<?xml version="1.0" encoding="UTF-8"?>
<svg xmlns="http://www.w3.org/2000/svg" version="1.1" viewBox="0 0 250 250">
  <defs>
    <style>
      .cls-1 {
        fill: #3a3a39;
      }
    </style>
  </defs>
  <!-- Generator: Adobe Illustrator 28.7.1, SVG Export Plug-In . SVG Version: 1.2.0 Build 142)  -->
  <g>
    <g id="Layer_1">
      <path class="cls-1" d="M240,10v230H10V10h230M250,0H0v250h250V0h0Z"/>
      <g id="Lr">
        <path class="cls-1" d="M125.5,176.2H57.8c-1.2,0-1.7-.6-1.7-1.9v-109.2c0-.7.4-1.4,1.2-1.5h21.3c.5,0,1.2.3,1.2.9v90h49.4c1.1,0,1.4.5,1.2,1.5l-3.1,18.6c0,.5-.3,1-.6,1.3-.4.2-.8.3-1.2.3Z"/>
        <path class="cls-1" d="M142.6,90.7h18.7c1.1,0,1.9.7,2.2,1.7.4.7.7,1.6.9,2.5.2,1.1.4,2.2.5,3.3.1,1.2.2,2.5.2,3.8,3.2-3.7,7.1-6.8,11.4-9.2,4.9-2.7,10.4-4,15.9-3.8.7,0,1.4.4,1.5,1.2v21.3c0,.9-.5,1.2-1.7,1.2-6.9-.4-13.9.9-20.2,3.6-2.1,1-4.2,2.2-5.8,4v54.5c0,1.1-.4,1.5-1.4,1.5h-20.8c-.9.1-1.6-.4-1.7-1.3v-59.6c0-2.6,0-5.2-.1-8s-.1-5.6-.2-8.3c-.1-2.4-.3-4.7-.6-7.1-.1-.5.2-1.1.7-1.2.2-.2.3-.2.5,0h0Z"/>
      </g>
    </g>
  </g>
</svg>