<svg width="1915" height="1803" viewBox="0 0 1915 1803" fill="none" xmlns="http://www.w3.org/2000/svg">
<g filter="url(#filter0_n_7001_1497)">
<path d="M2301.41 2287.49C2490.34 1991.99 2123.17 1601.76 2002.24 1473.34C1909.08 1374.12 1676.46 1134.61 1245.56 1039.96C674.779 914.241 465.95 1199.47 -165.199 1099.7C-665.498 1020.59 -781.662 802.51 -1128 891.614C-1358.49 950.849 -1601.33 1122.89 -1632.96 1296.22C-1688.39 1601.02 -1071.75 1805.51 -975.729 1837.06C-535.936 1982.79 -659.108 1801.68 -441.745 2103.65C-331.746 2270.01 -213.003 2529.3 -465.884 2687.1C-747.946 2863.07 -964.014 2719.52 -1323.03 2887.44C-1620.74 3026.74 -1897.64 3324.64 -1845.99 3517.75C-1774.15 3786.39 -1054.94 3893.97 -478.545 3709.09C118.075 3517.68 87.6971 3165.49 781.691 2814.07C1549.92 2425.16 2105.36 2593.99 2301.41 2287.49Z" fill="#FF6600"/>
</g>
<path d="M2259.11 1092.07C2227.87 999.708 2079.39 1011.48 2030.51 1015.38C1992.79 1018.33 1900.39 1027.13 1804.93 1104.12C1678.41 1206.05 1703.95 1300.94 1572.56 1420.48C1468.4 1515.23 1400.9 1502.5 1360 1593.11C1332.76 1653.4 1327.85 1735.98 1359.94 1772.98C1416.4 1838.01 1567.99 1739.83 1591.53 1724.49C1699.61 1654.45 1673.13 1579.91 1776.42 1585.28C1831.63 1590.35 1874.3 1679.45 1864.55 1761.74C1853.66 1853.51 1784.95 1875.41 1758.94 1982.48C1737.38 2071.27 1753.84 2183.13 1804.7 2205.51C1875.45 2236.64 2023.86 2099.37 2084 1942.21C2146.23 1779.53 2064.57 1724.87 2109.04 1513.24C2158.28 1279 2291.49 1187.89 2259.11 1092.07Z" fill="#FF6600" style="mix-blend-mode:plus-lighter"/>
<path d="M356.109 1505.07C324.875 1412.71 176.39 1424.48 127.507 1428.38C89.7882 1431.33 -2.60802 1440.13 -98.0694 1517.12C-224.594 1619.05 -199.05 1713.94 -330.443 1833.48C-434.602 1928.23 -502.101 1915.5 -543.003 2006.11C-570.239 2066.4 -575.154 2148.98 -543.065 2185.98C-486.599 2251.01 -335.015 2152.83 -311.474 2137.49C-203.388 2067.45 -229.869 1992.91 -126.577 1998.28C-71.3697 2003.35 -28.7026 2092.45 -38.4543 2174.74C-49.3404 2266.51 -118.048 2288.41 -144.06 2395.48C-165.621 2484.27 -149.164 2596.13 -98.3001 2618.51C-27.5461 2649.64 120.859 2512.37 180.996 2355.21C243.233 2192.53 161.568 2137.87 206.036 1926.24C255.281 1692 388.488 1600.89 356.109 1505.07Z" fill="#FF6600" style="mix-blend-mode:plus-lighter"/>
<defs>
<filter id="filter0_n_7001_1497" x="-1852.24" y="870.593" width="4206.69" height="2930.82" filterUnits="userSpaceOnUse" color-interpolation-filters="sRGB">
<feFlood flood-opacity="0" result="BackgroundImageFix"/>
<feBlend mode="normal" in="SourceGraphic" in2="BackgroundImageFix" result="shape"/>
<feTurbulence type="fractalNoise" baseFrequency="1 1" stitchTiles="stitch" numOctaves="3" result="noise" seed="1954" />
<feColorMatrix in="noise" type="luminanceToAlpha" result="alphaNoise" />
<feComponentTransfer in="alphaNoise" result="coloredNoise1">
<feFuncA type="discrete" tableValues="1 1 1 1 1 1 1 1 1 1 1 1 1 1 1 1 1 1 1 1 1 1 1 1 1 1 1 1 1 1 1 1 1 1 1 1 1 1 1 1 1 1 1 1 1 1 1 1 1 1 1 0 0 0 0 0 0 0 0 0 0 0 0 0 0 0 0 0 0 0 0 0 0 0 0 0 0 0 0 0 0 0 0 0 0 0 0 0 0 0 0 0 0 0 0 0 0 0 0 0 "/>
</feComponentTransfer>
<feComposite operator="in" in2="shape" in="coloredNoise1" result="noise1Clipped" />
<feFlood flood-color="rgba(255, 255, 255, 0.25)" result="color1Flood" />
<feComposite operator="in" in2="noise1Clipped" in="color1Flood" result="color1" />
<feMerge result="effect1_noise_7001_1497">
<feMergeNode in="shape" />
<feMergeNode in="color1" />
</feMerge>
</filter>
</defs>
</svg>
