<?xml version="1.0" encoding="utf-8"?>
<!-- Generator: Adobe Illustrator 30.1.0, SVG Export Plug-In . SVG Version: 9.03 Build 0)  -->
<svg version="1.1" id="Layer_1" xmlns="http://www.w3.org/2000/svg" xmlns:xlink="http://www.w3.org/1999/xlink" x="0px" y="0px"
	 viewBox="0 0 1313 308" enable-background="new 0 0 1313 308" xml:space="preserve">
<g>
	<path fill="#3A3A39" d="M1311.69,301.93l-43.13-126.35l-0.46-1.35h-1.43h-51.49h-1.43l-0.47,1.35l-43.13,126.35l-0.9,2.65h2.8
		h33.44h1.41l0.47-1.34l7.89-22.41h51.31l7.71,22.4l0.46,1.35h1.43h33.63h2.79L1311.69,301.93z M1256.64,251.56h-31.44l15.64-45.63
		L1256.64,251.56z"/>
	<polygon fill="#3A3A39" points="197.17,133.58 199.17,133.58 199.17,131.58 199.17,84.37 257.02,84.37 259.02,84.37 259.02,82.37 
		259.02,57.86 259.02,55.86 257.02,55.86 199.17,55.86 199.17,33.64 263.86,33.64 265.86,33.64 265.86,31.64 265.86,5.23 
		265.86,3.23 263.86,3.23 163.73,3.23 161.73,3.23 161.73,5.23 161.73,131.58 161.73,133.58 163.73,133.58 	"/>
	<path fill="#3A3A39" d="M693.71,133.58h2v-2V87.79h20.99c5.09,0,9.21,1.34,12.04,3.86c2.79,2.49,4.58,6.37,4.58,12v5.13
		c0,10.51,0.76,17.96,2.36,23.37l0.43,1.43h1.49h33.82h2.4l-0.43-2.36c-1.33-7.22-2.44-12.38-2.44-22.44v-7.03
		c0-9.74-2.9-16.61-7.74-21.4c-3.15-3.12-7.04-5.25-11.25-6.77c13.11-5.17,22.22-17.01,22.22-33.4c0-10.64-3.65-19.96-11.18-26.6
		c-7.5-6.61-18.62-10.36-33.19-10.36h-69.92h-2v2v126.35v2h2H693.71z M695.71,32.88h25.36c5.36,0,8.8,1.19,10.91,3.16
		c2.08,1.95,3.24,5.02,3.24,9.66c0,5.17-1.14,8.59-3.25,10.73c-2.1,2.14-5.56,3.42-11.09,3.42h-25.17V32.88z"/>
	<polygon fill="#3A3A39" points="382.46,133.58 384.46,133.58 384.46,131.58 384.46,105.17 384.46,103.17 382.46,103.17 
		316.25,103.17 316.25,81.52 376.19,81.52 378.19,81.52 378.19,79.52 378.19,55.01 378.19,53.01 376.19,53.01 316.25,53.01 
		316.25,33.64 381.89,33.64 383.89,33.64 383.89,31.64 383.89,5.23 383.89,3.23 381.89,3.23 280.81,3.23 278.81,3.23 278.81,5.23 
		278.81,131.58 278.81,133.58 280.81,133.58 	"/>
	<polygon fill="#3A3A39" points="641.67,133.58 643.67,133.58 643.67,131.58 643.67,105.17 643.67,103.17 641.67,103.17 
		575.46,103.17 575.46,81.52 635.4,81.52 637.4,81.52 637.4,79.52 637.4,55.01 637.4,53.01 635.4,53.01 575.46,53.01 575.46,33.64 
		641.1,33.64 643.1,33.64 643.1,31.64 643.1,5.23 643.1,3.23 641.1,3.23 540.02,3.23 538.02,3.23 538.02,5.23 538.02,131.58 
		538.02,133.58 540.02,133.58 	"/>
	<polygon fill="#3A3A39" points="864.12,133.58 866.12,133.58 866.12,131.58 866.12,105.17 866.12,103.17 864.12,103.17 
		843.89,103.17 843.89,33.64 864.12,33.64 866.12,33.64 866.12,31.64 866.12,5.23 866.12,3.23 864.12,3.23 786.22,3.23 784.22,3.23 
		784.22,5.23 784.22,31.64 784.22,33.64 786.22,33.64 806.45,33.64 806.45,103.17 786.22,103.17 784.22,103.17 784.22,105.17 
		784.22,131.58 784.22,133.58 786.22,133.58 	"/>
	<path fill="#3A3A39" d="M799.5,211.19c0-10.64-3.65-19.96-11.17-26.6c-7.5-6.61-18.62-10.36-33.2-10.36h-69.92h-2v2v126.35v2h2
		h33.82h2v-2v-43.79h20.99c5.09,0,9.21,1.34,12.04,3.86c2.79,2.49,4.58,6.36,4.58,12v5.13c0,10.51,0.76,17.96,2.36,23.37l0.42,1.43
		h1.49h33.82h2.4l-0.43-2.36c-1.33-7.22-2.44-12.38-2.44-22.44v-7.03c0-9.74-2.9-16.6-7.74-21.4c-3.15-3.12-7.04-5.25-11.25-6.77
		C790.39,239.42,799.5,227.58,799.5,211.19z M721.03,203.88h25.36c5.36,0,8.8,1.19,10.91,3.16c2.08,1.95,3.24,5.02,3.24,9.66
		c0,5.17-1.14,8.59-3.25,10.73c-2.11,2.14-5.56,3.42-11.09,3.42h-25.17V203.88z"/>
	<path fill="#3A3A39" d="M1084.78,136.62c25.54,0,43.14-8.29,54.33-21.14c11.14-12.79,15.69-29.85,15.69-46.98
		c0-16.86-4.55-34-15.69-46.95C1127.94,8.54,1110.34,0,1084.78,0c-25.37,0-42.92,8.49-54.1,21.48
		c-11.13,12.93-15.73,30.07-15.73,47.02c0,17.24,4.6,34.29,15.74,47.06C1041.87,128.38,1059.43,136.62,1084.78,136.62z
		 M1060.18,40.72c4.45-5.96,11.93-9.36,24.6-9.36c12.86,0,20.39,3.41,24.83,9.36c4.55,6.1,6.23,15.31,6.23,27.78
		c0,12.27-1.68,21.44-6.23,27.54c-4.45,5.95-11.98,9.41-24.83,9.41c-12.66,0-20.15-3.45-24.6-9.41c-4.55-6.1-6.27-15.28-6.27-27.54
		C1053.91,56.04,1055.63,46.82,1060.18,40.72z"/>
	<path fill="#3A3A39" d="M633.06,175.58l-0.46-1.35h-1.43h-51.49h-1.43l-0.46,1.35l-43.13,126.35l-0.9,2.65h2.8h33.44h1.42
		l0.47-1.34l7.89-22.41h51.31l7.71,22.4l0.46,1.35h1.43h33.63h2.79l-0.9-2.65L633.06,175.58z M621.14,251.56H589.7l15.64-45.63
		L621.14,251.56z"/>
	<path fill="#3A3A39" d="M940.59,136.62c23.34,0,39.84-4.1,50.89-13.49c11.08-9.43,16.26-23.84,17.79-43.45l0.17-2.16h-2.16h-34.77
		h-1.86l-0.13,1.86c-0.65,8.99-2.94,15.37-7.44,19.56c-4.51,4.19-11.6,6.52-22.67,6.52c-11,0-18.3-3.19-22.94-9.09
		c-4.72-6.01-6.98-15.2-6.98-27.86c0-12.83,2.45-22.06,7.36-28.06c4.85-5.92,12.4-9.08,23.51-9.08c10.76,0,17.47,2.41,21.69,6.51
		c4.24,4.12,6.35,10.29,7.09,18.64l0.16,1.82h1.83h34.39h2.15l-0.16-2.15c-1.35-18.42-6.58-32.61-17.59-42.14
		C979.95,4.55,963.6,0,940.78,0c-24.9,0-42.3,8.35-53.45,21.26c-11.11,12.86-15.81,29.99-15.81,47.24
		c0,17.71,4.64,34.76,15.72,47.42C898.36,128.62,915.72,136.62,940.59,136.62z"/>
	<path fill="#3A3A39" d="M511.37,113.46c10.2-12.19,15-28.55,15-45.34c0-16.79-4.8-33.01-15.01-45.06
		c-10.25-12.1-25.79-19.83-46.84-19.83h-63.84h-2v2v126.35v2h2h63.84C485.58,133.58,501.12,125.7,511.37,113.46z M436.12,33.64h20.8
		c11.07,0,18.54,2.85,23.29,8.29c4.81,5.5,7.2,14.04,7.2,26.19c0,11.96-2.35,20.66-7.15,26.36c-4.74,5.63-12.21,8.69-23.34,8.69
		h-20.8V33.64z"/>
	<path fill="#3A3A39" d="M539.17,248.52h-2.16h-34.77h-1.86l-0.13,1.86c-0.65,8.99-2.94,15.37-7.44,19.55
		c-4.51,4.19-11.6,6.52-22.67,6.52c-11,0-18.3-3.19-22.94-9.09c-4.72-6.01-6.98-15.2-6.98-27.86c0-12.83,2.45-22.06,7.36-28.07
		c4.85-5.92,12.4-9.08,23.51-9.08c10.76,0,17.46,2.41,21.69,6.51c4.25,4.12,6.35,10.29,7.1,18.64l0.16,1.82h1.83h34.39h2.15
		l-0.16-2.15c-1.35-18.42-6.59-32.61-17.59-42.15c-10.97-9.5-27.31-14.05-50.14-14.05c-24.9,0-42.3,8.35-53.46,21.26
		c-11.11,12.86-15.8,29.99-15.8,47.24c0,17.71,4.64,34.76,15.72,47.42c11.12,12.7,28.48,20.7,53.35,20.7
		c23.34,0,39.84-4.1,50.89-13.49c11.09-9.43,16.26-23.84,17.8-43.45L539.17,248.52z"/>
	<polygon fill="#3A3A39" points="976.55,274.17 1043.98,204.03 1044.53,203.45 1044.53,202.64 1044.53,176.23 1044.53,174.23 
		1042.53,174.23 930.43,174.23 928.43,174.23 928.43,176.23 928.43,202.64 928.43,204.64 930.43,204.64 994.16,204.64 
		927.09,274.79 926.53,275.37 926.53,276.17 926.53,302.58 926.53,304.58 928.53,304.58 1043.1,304.58 1045.1,304.58 1045.1,302.58 
		1045.1,276.17 1045.1,274.17 1043.1,274.17 	"/>
	<polygon fill="#3A3A39" points="850.54,274.17 850.54,252.52 910.48,252.52 912.48,252.52 912.48,250.52 912.48,226.01 
		912.48,224.01 910.48,224.01 850.54,224.01 850.54,204.64 916.18,204.64 918.18,204.64 918.18,202.64 918.18,176.23 918.18,174.23 
		916.18,174.23 815.1,174.23 813.1,174.23 813.1,176.23 813.1,302.58 813.1,304.58 815.1,304.58 916.75,304.58 918.75,304.58 
		918.75,302.58 918.75,276.17 918.75,274.17 916.75,274.17 	"/>
	<polygon fill="#3A3A39" points="1100.68,274.17 1168.11,204.03 1168.67,203.45 1168.67,202.64 1168.67,176.23 1168.67,174.23 
		1166.67,174.23 1054.57,174.23 1052.57,174.23 1052.57,176.23 1052.57,202.64 1052.57,204.64 1054.57,204.64 1118.29,204.64 
		1051.22,274.79 1050.67,275.37 1050.67,276.17 1050.67,302.58 1050.67,304.58 1052.67,304.58 1167.24,304.58 1169.24,304.58 
		1169.24,302.58 1169.24,276.17 1169.24,274.17 1167.24,274.17 	"/>
	<path fill="#3A3A39" d="M136.79,174.23h-2.75h-33.63h-1.45l-0.45,1.38l-26.03,79.61l0,0.01l0,0.01c-1.32,4.19-2.55,8.39-3.67,12.6
		c-1.17-4.2-2.4-8.4-3.72-12.6l0-0.01l0-0.01l-26.03-79.61l-0.45-1.38h-1.45H2.75H0l0.85,2.62L41.89,303.2l0.45,1.38h1.45H93h1.45
		l0.45-1.38l41.04-126.35L136.79,174.23z"/>
	<path fill="#3A3A39" d="M358.81,248.52h-1.86l-0.13,1.86c-0.65,8.99-2.94,15.37-7.44,19.55c-4.51,4.19-11.6,6.52-22.67,6.52
		c-11,0-18.3-3.19-22.94-9.09c-4.72-6.01-6.98-15.2-6.98-27.86c0-12.83,2.45-22.06,7.36-28.07c4.85-5.92,12.4-9.08,23.51-9.08
		c10.76,0,17.47,2.41,21.69,6.51c4.24,4.12,6.35,10.29,7.1,18.64l0.16,1.82h1.83h34.39h2.15l-0.16-2.15
		c-1.35-18.42-6.59-32.61-17.6-42.15c-10.97-9.5-27.31-14.05-50.14-14.05c-24.9,0-42.3,8.35-53.46,21.26
		c-11.11,12.86-15.8,29.99-15.8,47.24c0,17.71,4.64,34.76,15.72,47.42c11.12,12.7,28.48,20.7,53.35,20.7
		c23.34,0,39.84-4.1,50.89-13.49c11.09-9.43,16.26-23.84,17.8-43.45l0.17-2.16h-2.16H358.81z"/>
	<path fill="#3A3A39" d="M218.36,175.58l-0.46-1.35h-1.43h-51.49h-1.43l-0.46,1.35l-43.13,126.35l-0.9,2.65h2.8h33.44h1.42
		l0.47-1.34l7.89-22.41h51.31l7.71,22.4l0.46,1.35h1.43h33.63h2.8l-0.9-2.65L218.36,175.58z M206.44,251.56H175l15.64-45.63
		L206.44,251.56z"/>
</g>
</svg>
