<?xml version="1.0" encoding="UTF-8"?>
<svg id="Layer_1" data-name="Layer 1" xmlns="http://www.w3.org/2000/svg" width="137.11mm" height="119.59mm" viewBox="0 0 388.65 339">
  <path d="M74.16,235.08c-1.31.93-3.79,1.73-8.2,1.73s-7.33-1.22-8.98-2.72c-1.66-1.51-2.55-3.63-2.77-6.1l-.25-2.73h-24.73l.19,3.18c.42,7.12,2.92,14.33,8.83,19.76,5.91,5.42,14.83,8.7,27.38,8.7s21.2-2.48,27.19-7.31c6.1-4.93,8.59-11.92,8.59-19.78,0-7.16-1.99-13.23-6.54-17.68-4.49-4.4-11.08-6.82-19.48-7.63h0s-13.93-1.43-13.93-1.43c-2.4-.28-3.63-.96-4.24-1.57-.56-.56-.91-1.34-.91-2.6,0-1.36.55-2.4,1.79-3.22,1.37-.91,3.69-1.59,7.09-1.59,3.68,0,6.14.86,7.7,2.04,1.51,1.15,2.45,2.8,2.74,5.03l.34,2.61h25.01l-.25-3.23c-.54-7.14-3.33-13.89-9.27-18.83-5.9-4.9-14.55-7.7-26.28-7.7-10.96,0-19.57,2.45-25.5,7.09-6.03,4.71-8.96,11.43-8.96,19.12,0,6.85,2.11,12.64,6.3,16.91,4.16,4.24,10.07,6.7,17.14,7.52h0s0,0,0,0l15.87,1.75c2.45.34,3.84,1,4.61,1.71.66.62,1.16,1.56,1.16,3.35s-.55,2.84-1.67,3.63Z" fill="#3a3a39"/>
  <path d="M143.64,256.78c15.21,0,25.95-4.96,32.84-12.87,6.83-7.84,9.54-18.19,9.54-28.41s-2.71-20.46-9.52-28.38c-6.88-8.01-17.62-13.12-32.86-13.12s-25.84,5.08-32.72,13.07c-6.81,7.91-9.55,18.3-9.55,28.43s2.74,20.63,9.57,28.45c6.89,7.9,17.6,12.83,32.7,12.83ZM130.88,200.52c2.1-2.81,5.76-4.68,12.76-4.68s10.81,1.88,12.9,4.68c2.26,3.02,3.24,7.83,3.24,14.98s-.98,11.82-3.24,14.84c-2.09,2.81-5.78,4.71-12.9,4.71s-10.66-1.89-12.76-4.71c-2.26-3.03-3.27-7.82-3.27-14.84s1.01-11.95,3.27-14.98Z" fill="#3a3a39"/>
  <polygon points="223.96 110.16 226.96 110.16 226.96 107.16 226.96 91.87 226.96 88.87 223.96 88.87 178.86 88.87 175.86 88.87 175.86 91.87 175.86 107.16 175.86 110.16 178.86 110.16 188.73 110.16 188.73 146.73 178.86 146.73 175.86 146.73 175.86 149.73 175.86 165.02 175.86 168.02 178.86 168.02 223.96 168.02 226.96 168.02 226.96 165.02 226.96 149.73 226.96 146.73 223.96 146.73 214.09 146.73 214.09 110.16 223.96 110.16" fill="#3a3a39"/>
  <path d="M317.36,61.08c-1.31.93-3.79,1.73-8.2,1.73s-7.33-1.22-8.98-2.72c-1.66-1.51-2.55-3.63-2.77-6.1l-.25-2.73h-24.73l.19,3.18c.42,7.12,2.92,14.33,8.83,19.76,5.91,5.42,14.83,8.7,27.38,8.7s21.2-2.48,27.18-7.31c6.1-4.93,8.6-11.92,8.6-19.78,0-7.16-1.99-13.23-6.54-17.68-4.49-4.39-11.08-6.82-19.48-7.63h0s-13.93-1.43-13.93-1.43c-2.4-.28-3.63-.96-4.24-1.57-.56-.56-.91-1.34-.91-2.6,0-1.36.55-2.4,1.79-3.22,1.37-.91,3.69-1.59,7.09-1.59,3.68,0,6.14.86,7.7,2.04,1.51,1.15,2.45,2.81,2.74,5.03l.34,2.61h25.01l-.25-3.23c-.54-7.14-3.33-13.89-9.27-18.83C328.77,2.8,320.12,0,308.39,0c-10.96,0-19.57,2.45-25.5,7.09-6.03,4.71-8.96,11.43-8.96,19.12,0,6.85,2.11,12.64,6.3,16.91,4.16,4.24,10.07,6.7,17.14,7.52h0s.01,0,.01,0l15.89,1.75c2.44.34,3.83,1,4.59,1.71.66.62,1.16,1.56,1.16,3.35s-.55,2.84-1.67,3.63Z" fill="#3a3a39"/>
  <polygon points="198.88 23.16 198.88 78.02 198.88 81.02 201.88 81.02 221.24 81.02 224.24 81.02 224.24 78.02 224.24 23.16 244.78 23.16 247.78 23.16 247.78 20.16 247.78 4.87 247.78 1.87 244.78 1.87 178.34 1.87 175.34 1.87 175.34 4.87 175.34 20.16 175.34 23.16 178.34 23.16 198.88 23.16" fill="#3a3a39"/>
  <path d="M296.18,88.87h-3v79.15h39.96c12.7,0,22.23-4.77,28.54-12.31,6.24-7.46,9.11-17.38,9.11-27.43s-2.87-19.9-9.13-27.28c-6.31-7.46-15.84-12.13-28.52-12.13h-36.96ZM340.84,114.33c2.35,2.69,3.71,7.1,3.71,13.95s-1.33,11.26-3.71,14.07c-2.28,2.71-6,4.38-12.1,4.38h-10.2v-36.57h10.2c6.11,0,9.82,1.57,12.1,4.17Z" fill="#3a3a39"/>
  <path d="M255.63,43.95c5.71,0,9.95-1.4,12.66-4.49,2.63-3.01,3.22-6.99,3.22-10.72V1.87h-23.05v21.62h6.49v4.78h-6.49v15.68h7.18Z" fill="#3a3a39"/>
  <polygon points="257.64 88.87 254.64 88.87 235.06 88.87 232.06 88.87 232.06 91.87 232.06 165.02 232.06 168.02 235.06 168.02 287.53 168.02 290.53 168.02 290.53 165.02 290.53 149.73 290.53 146.73 287.53 146.73 257.64 146.73 257.64 91.87 257.64 88.87" fill="#3a3a39"/>
  <path d="M123.77,88.87h-25.47v48.32c0,10.39,3.09,18.73,9.63,24.4,6.46,5.61,15.82,8.19,27.47,8.19s20.99-2.61,27.43-8.24c6.51-5.69,9.56-14.02,9.56-24.35v-48.32h-25.36v45.79c0,6.16-1.15,9.22-2.71,10.83-1.53,1.58-4.13,2.45-8.92,2.45s-7.39-.87-8.92-2.45c-1.57-1.61-2.71-4.67-2.71-10.83v-45.79Z" fill="#3a3a39"/>
  <polygon points="226.91 255.02 229.16 255.02 250.83 255.02 253.08 255.02 253.71 252.86 265.43 212.5 265.43 252.02 265.43 255.02 268.43 255.02 287.79 255.02 290.79 255.02 290.79 252.02 290.79 178.87 290.79 175.87 287.79 175.87 255.23 175.87 252.97 175.87 252.35 178.04 240.28 220.27 228.31 178.05 227.69 175.87 225.42 175.87 192.09 175.87 189.09 175.87 189.09 178.87 189.09 252.02 189.09 255.02 192.09 255.02 211.45 255.02 214.45 255.02 214.45 252.02 214.45 212.15 226.28 252.86 226.91 255.02" fill="#3a3a39"/>
  <polygon points="274.71 262.87 271.71 262.87 271.71 265.87 271.71 307.6 253.61 264.7 252.83 262.87 250.84 262.87 219.05 262.87 216.05 262.87 216.05 265.87 216.05 339.02 216.05 342.02 219.05 342.02 237.53 342.02 240.53 342.02 240.53 339.02 240.53 297.71 258.64 340.2 259.42 342.02 261.4 342.02 293.19 342.02 296.19 342.02 296.19 339.02 296.19 265.87 296.19 262.87 293.19 262.87 274.71 262.87" fill="#3a3a39"/>
  <polygon points="358.47 255.02 361.47 255.02 361.47 252.02 361.47 236.73 361.47 233.73 358.47 233.73 321.98 233.73 321.98 224.88 354.84 224.88 357.84 224.88 357.84 221.88 357.84 207.69 357.84 204.69 354.84 204.69 321.98 204.69 321.98 197.16 358.14 197.16 361.14 197.16 361.14 194.16 361.14 178.87 361.14 175.87 358.14 175.87 299.62 175.87 296.62 175.87 296.62 178.87 296.62 252.02 296.62 255.02 299.62 255.02 358.47 255.02" fill="#3a3a39"/>
  <path d="M336.56,295.87h-3v18.21h22.9c-.69,2.14-1.71,3.9-3.18,5.25-2.18,1.99-5.76,3.49-11.88,3.49s-9.66-1.74-12.02-4.71c-2.48-3.12-3.9-8.14-3.9-15.61,0-7.9,1.7-12.92,4.4-15.96,2.64-2.97,6.71-4.58,12.73-4.58,4.8,0,8.09,1.09,10.2,2.6,2.06,1.48,3.21,3.5,3.55,5.92l.36,2.59h25.19l-.22-3.21c-.54-7.8-3.55-15.16-10.07-20.51-6.47-5.31-16.03-8.35-29.11-8.35-14.87,0-25.81,4.53-33.01,12.24-7.16,7.68-10.25,18.12-10.25,29.26s2.78,21.17,8.99,28.83c6.28,7.74,15.81,12.45,28.55,12.45,8.49,0,14.82-1.95,19.48-5.2,1.17-.81,2.21-1.7,3.15-2.63v6.07h22.17v-46.15h-45.02Z" fill="#3a3a39"/>
  <polygon points="172.63 81.02 175.63 81.02 175.63 78.02 175.63 62.73 175.63 59.73 172.63 59.73 136.14 59.73 136.14 50.88 169 50.88 172 50.88 172 47.88 172 33.69 172 30.69 169 30.69 136.14 30.69 136.14 23.16 172.3 23.16 175.3 23.16 175.3 20.16 175.3 4.87 175.3 1.87 172.3 1.87 113.78 1.87 110.78 1.87 110.78 4.87 110.78 78.02 110.78 81.02 113.78 81.02 172.63 81.02" fill="#3a3a39"/>
  <polygon points="162.86 262.87 159.86 262.87 159.86 265.87 159.86 281.16 159.86 284.16 162.86 284.16 172.73 284.16 172.73 320.73 162.86 320.73 159.86 320.73 159.86 323.73 159.86 339.02 159.86 342.02 162.86 342.02 207.96 342.02 210.96 342.02 210.96 339.02 210.96 323.73 210.96 320.73 207.96 320.73 198.09 320.73 198.09 284.16 207.96 284.16 210.96 284.16 210.96 281.16 210.96 265.87 210.96 262.87 207.96 262.87 162.86 262.87" fill="#3a3a39"/>
  <polygon points="132.25 262.87 129.25 262.87 129.25 265.87 129.25 291.36 104.67 291.36 104.67 265.87 104.67 262.87 101.67 262.87 82.31 262.87 79.31 262.87 79.31 265.87 79.31 339.02 79.31 342.02 82.31 342.02 101.67 342.02 104.67 342.02 104.67 339.02 104.67 312.43 129.25 312.43 129.25 339.02 129.25 342.02 132.25 342.02 151.61 342.02 154.61 342.02 154.61 339.02 154.61 265.87 154.61 262.87 151.61 262.87 132.25 262.87" fill="#3a3a39"/>
  <polygon points="105.13 81.02 108.13 81.02 108.13 78.02 108.13 62.73 108.13 59.73 105.13 59.73 75.24 59.73 75.24 4.87 75.24 1.87 72.24 1.87 52.66 1.87 49.66 1.87 49.66 4.87 49.66 78.02 49.66 81.02 52.66 81.02 105.13 81.02" fill="#3a3a39"/>
  <path d="M68.79,168.02c8.24,0,15.02-1.94,19.78-5.96,4.84-4.08,7.2-9.97,7.2-16.95s-2.01-11.55-5.68-14.98c-1.35-1.26-2.87-2.27-4.51-3.09,1.41-.83,2.72-1.82,3.88-2.99,3.36-3.41,5.21-8.09,5.21-14.14,0-5.62-1.86-11-6.17-14.95-4.29-3.93-10.63-6.09-18.94-6.09H23.88v79.15h44.91ZM49.24,109.39h14.16c2.43,0,3.53.58,4.05,1.1.51.51.98,1.46.98,3.38,0,1.78-.4,2.79-.93,3.37-.49.53-1.58,1.22-4.21,1.22h-14.05v-9.07ZM49.24,137.11h14.05c2.99,0,4.39.76,5.08,1.45.69.71,1.16,1.88,1.16,3.8s-.45,3.14-1.06,3.8c-.58.62-1.81,1.34-4.63,1.34h-14.6v-10.39Z" fill="#3a3a39"/>
  <polygon points="8.82 262.87 5.82 262.87 5.82 265.87 5.82 281.16 5.82 284.16 8.82 284.16 29.36 284.16 29.36 339.02 29.36 342.02 32.36 342.02 51.72 342.02 54.72 342.02 54.72 339.02 54.72 284.16 75.26 284.16 78.26 284.16 78.26 281.16 78.26 265.87 78.26 262.87 75.26 262.87 8.82 262.87" fill="#3a3a39"/>
</svg>