<?xml version="1.0" encoding="UTF-8"?>
<svg id="Layer_1" data-name="Layer 1" xmlns="http://www.w3.org/2000/svg" width="138.81mm" height="527mm" viewBox="0 0 393.48 1493.86">
  <path d="M393.48,10.28c-41.54,25.3-89.55,93.83-108.24,165.64-26.18,100.56,25.85,127.58,13.43,255.99-13.76,142.13-86.73,204.93-61.22,259.61,24.61,52.7,111.87,35.94,140.6,30.4,4.11-.79,9.33-1.82,15.43-3.3V10.28Z" fill="#fff140"/>
  <path d="M93.2,817.94C75.62,785.68,34.82,782.64,0,786.62v703.51c33.49-34.33,65.73-93.97,77.56-154.61,19.88-101.99-33.73-125.73-29.32-254.66,4.89-142.71,73.82-209.93,44.96-262.91Z" fill="#fff140"/>
</svg>