<?xml version="1.0" encoding="UTF-8"?>
<svg id="Layer_1" data-name="Layer 1" xmlns="http://www.w3.org/2000/svg" width="675.57mm" height="1000mm" viewBox="0 0 1915 2834.65">
  <path d="M1915,81.38c-9.12,5.36-18.34,11.25-27.63,17.72-133.39,92.76-114.59,189.22-254.08,299.2-110.58,87.18-177.01,69.72-224.19,157.22-31.42,58.22-42.14,140.26-12.74,179.43,51.75,68.84,209.87-18.41,234.44-32.06,112.75-62.25,91.58-138.48,194.24-125.84,54.71,8.95,91,100.83,75.47,182.23-17.32,90.78-87.4,107.78-120.89,212.75-27.76,87.05-19.22,199.79,29.94,225.7,25.66,13.53,63.91,4.16,105.44-20.89V81.38Z" fill="#fff140"/>
</svg>