<svg width="25" height="24" viewBox="0 0 25 24" fill="none" xmlns="http://www.w3.org/2000/svg">
<path d="M17.5 18.4301H13.5L9.04999 21.39C8.38999 21.83 7.5 21.3601 7.5 20.5601V18.4301C4.5 18.4301 2.5 16.4301 2.5 13.4301V7.42999C2.5 4.42999 4.5 2.42999 7.5 2.42999H17.5C20.5 2.42999 22.5 4.42999 22.5 7.42999V13.4301C22.5 16.4301 20.5 18.4301 17.5 18.4301Z" stroke="#292D32" stroke-width="1.5" stroke-miterlimit="10" stroke-linecap="round" stroke-linejoin="round"/>
<path d="M12.4998 11.36V11.15C12.4998 10.47 12.9198 10.11 13.3398 9.82001C13.7498 9.54001 14.1598 9.18002 14.1598 8.52002C14.1598 7.60002 13.4198 6.85999 12.4998 6.85999C11.5798 6.85999 10.8398 7.60002 10.8398 8.52002" stroke="#292D32" stroke-width="1.5" stroke-linecap="round" stroke-linejoin="round"/>
<path d="M12.4955 13.75H12.5045" stroke="#292D32" stroke-width="1.5" stroke-linecap="round" stroke-linejoin="round"/>
</svg>
