<svg width="115" height="129" viewBox="0 0 115 129" fill="none" xmlns="http://www.w3.org/2000/svg">
<path d="M111.931 61.7317C108.328 73.2706 101.998 83.2278 94.2869 92.3156C80.7165 108.307 64.5863 120.609 44.1111 126.381C36.0868 128.643 27.9026 129.356 19.5969 127.737C2.05553 124.317 -4.8987 108.948 4.0619 93.5155C8.29418 86.2438 14.561 81.1716 21.692 77.1203C38.7575 67.4247 50.5999 53.6161 55.5868 34.2004C56.9353 28.7137 58.6324 23.3239 60.6678 18.0639C67.8145 0.147182 88.6138 -4.80384 102.338 8.19128C109.646 15.1182 113.194 24.0334 114.481 33.8889C115.674 43.2701 114.803 52.776 111.931 61.7317Z" fill="#FF6600" style="mix-blend-mode:multiply"/>
</svg>
