<svg width="20" height="20" viewBox="0 0 20 20" fill="none" xmlns="http://www.w3.org/2000/svg">
<path d="M7.5026 8.33333C8.42308 8.33333 9.16927 7.58714 9.16927 6.66667C9.16927 5.74619 8.42308 5 7.5026 5C6.58213 5 5.83594 5.74619 5.83594 6.66667C5.83594 7.58714 6.58213 8.33333 7.5026 8.33333Z" stroke="#3A3A39" stroke-width="1.25" stroke-linecap="round" stroke-linejoin="round"/>
<path d="M9.9974 1.6665H7.4974C3.33073 1.6665 1.66406 3.33317 1.66406 7.49984V12.4998C1.66406 16.6665 3.33073 18.3332 7.4974 18.3332H12.4974C16.6641 18.3332 18.3307 16.6665 18.3307 12.4998V9.1665" stroke="#3A3A39" stroke-width="1.25" stroke-linecap="round" stroke-linejoin="round"/>
<path d="M13.4308 4.25833C13.1558 3.39167 13.4808 2.31667 14.3808 2.025C14.8558 1.875 15.4474 2 15.7808 2.45833C16.0974 1.98333 16.7058 1.86667 17.1808 2.025C18.0891 2.31667 18.4141 3.39167 18.1391 4.25833C17.7058 5.625 16.2058 6.34167 15.7891 6.34167C15.3641 6.34167 13.8724 5.64167 13.4308 4.25833Z" stroke="#3A3A39" stroke-width="1.25" stroke-linecap="round" stroke-linejoin="round"/>
<path d="M2.22656 15.7918L6.3349 13.0335C6.99323 12.5918 7.94323 12.6418 8.5349 13.1501L8.8099 13.3918C9.4599 13.9501 10.5099 13.9501 11.1599 13.3918L14.6266 10.4168C15.2766 9.85846 16.3266 9.85846 16.9766 10.4168L18.3349 11.5835" stroke="#3A3A39" stroke-width="1.25" stroke-linecap="round" stroke-linejoin="round"/>
</svg>
