<?xml version="1.0" encoding="utf-8"?>
<!-- Generator: Adobe Illustrator 30.1.0, SVG Export Plug-In . SVG Version: 9.03 Build 0)  -->
<svg version="1.1" id="Layer_1" xmlns="http://www.w3.org/2000/svg" xmlns:xlink="http://www.w3.org/1999/xlink" x="0px" y="0px"
	 viewBox="0 0 455 601" enable-background="new 0 0 455 601" xml:space="preserve">
<linearGradient id="SVGID_1_" gradientUnits="userSpaceOnUse" x1="539.9479" y1="40.8403" x2="-347.1232" y2="-47.9545" gradientTransform="matrix(1 0 0 -1 0 599.0394)">
	<stop  offset="0" style="stop-color:#222222;stop-opacity:0.5"/>
	<stop  offset="1" style="stop-color:#584911;stop-opacity:0"/>
</linearGradient>
<path fill="none" stroke="url(#SVGID_1_)" stroke-width="0.5" stroke-miterlimit="10" d="M449.55,79.62
	c-31.23-92.36-179.72-80.59-228.6-76.7C183.23,5.87,90.83,14.67-4.63,91.67C-131.15,193.6-105.61,288.49-237,408.02
	c-104.16,94.75-171.66,82.02-212.56,172.63c-27.24,60.29-32.15,142.88-0.06,179.88c56.47,65.02,208.05-33.15,231.59-48.49
	c108.09-70.04,81.6-144.58,184.9-139.21C22.07,577.9,64.74,667,54.99,749.28C44.1,841.06-24.61,862.96-50.62,970.02
	c-21.56,88.8-5.1,200.66,45.76,223.03c70.75,31.14,219.16-106.13,279.3-263.3c62.24-162.68-19.43-217.34,25.04-428.96
	C348.72,266.54,481.93,175.44,449.55,79.62z"/>
</svg>
