<svg width="26" height="28" viewBox="0 0 26 28" fill="none" xmlns="http://www.w3.org/2000/svg">
<path d="M6.17359 10.6621C6.23609 10.4308 6.82641 10.4308 6.88891 10.6621C7.13909 11.5882 7.54456 12.6474 8.17712 13.2799C8.80967 13.9125 9.86883 14.3179 10.7949 14.5681C11.0262 14.6306 11.0262 15.2209 10.7949 15.2834C9.86883 15.5336 8.80967 15.9391 8.17712 16.5716C7.54456 17.2042 7.13909 18.2634 6.88891 19.1894C6.82641 19.4208 6.23609 19.4208 6.17359 19.1894C5.92341 18.2634 5.51794 17.2042 4.88538 16.5716C4.25283 15.9391 3.19367 15.5336 2.26758 15.2834C2.03625 15.2209 2.03625 14.6306 2.26758 14.5681C3.19367 14.3179 4.25283 13.9125 4.88538 13.2799C5.51794 12.6474 5.92341 11.5882 6.17359 10.6621Z" stroke="#3A3A39" stroke-width="1.5"/>
<path d="M17.174 12.7005C17.228 12.467 17.772 12.467 17.826 12.7005C18.1375 14.0484 18.7095 15.8091 19.6945 16.794C20.6794 17.779 22.4401 18.351 23.788 18.6625C24.0215 18.7165 24.0215 19.2605 23.788 19.3145C22.4401 19.626 20.6794 20.1981 19.6945 21.183C18.7095 22.168 18.1375 23.9286 17.826 25.2766C17.772 25.51 17.228 25.51 17.174 25.2766C16.8625 23.9286 16.2905 22.168 15.3055 21.183C14.3206 20.1981 12.5599 19.626 11.212 19.3145C10.9785 19.2605 10.9785 18.7165 11.212 18.6625C12.5599 18.351 14.3206 17.779 15.3055 16.794C16.2905 15.8091 16.8625 14.0484 17.174 12.7005Z" stroke="#3A3A39" stroke-width="1.5"/>
<path d="M12.2976 1.04365C12.3519 0.810269 12.8981 0.81027 12.9524 1.04365C13.2606 2.36713 13.8227 4.08329 14.7857 5.04631C15.7487 6.00932 17.4649 6.57142 18.7884 6.87959C19.0218 6.93394 19.0218 7.48013 18.7884 7.53447C17.4649 7.84264 15.7487 8.40474 14.7857 9.36776C13.8227 10.3308 13.2606 12.0469 12.9524 13.3704C12.8981 13.6038 12.3519 13.6038 12.2976 13.3704C11.9894 12.0469 11.4273 10.3308 10.4643 9.36776C9.50126 8.40474 7.7851 7.84264 6.46162 7.53447C6.22824 7.48013 6.22824 6.93394 6.46162 6.87959C7.7851 6.57142 9.50126 6.00932 10.4643 5.04631C11.4273 4.08329 11.9894 2.36713 12.2976 1.04365Z" stroke="#3A3A39" stroke-width="1.5"/>
</svg>
