<svg width="126" height="34" viewBox="0 0 126 34" fill="none" xmlns="http://www.w3.org/2000/svg">
<g clip-path="url(#clip0_5328_2048)">
<mask id="mask0_5328_2048" style="mask-type:luminance" maskUnits="userSpaceOnUse" x="0" y="0" width="126" height="34">
<path d="M125.627 0.653076H0.983643V33.3463H125.627V0.653076Z" fill="white"/>
</mask>
<g mask="url(#mask0_5328_2048)">
<path fill-rule="evenodd" clip-rule="evenodd" d="M49.3765 5.72729V16.8226H47.4966L43.2601 10.8016V16.8226H40.7537V5.72729H42.6335L46.87 11.7483V5.72729H49.3765Z" fill="#3A3A39"/>
<path fill-rule="evenodd" clip-rule="evenodd" d="M60.3083 14.3774V16.8158H53.4087V5.72729H60.2266V8.16567H55.9152V10.0047H59.8316V12.4158H55.9152V14.3842H60.3083V14.3774Z" fill="#3A3A39"/>
<path fill-rule="evenodd" clip-rule="evenodd" d="M63.0872 5.72729H65.7231L67.6233 13.4919L69.7416 5.72729H71.7781L73.8964 13.4919L75.7967 5.72729H78.4326L75.4084 16.8226H72.5546L70.7701 10.2771L68.9856 16.8226H66.1317L63.1076 5.72729H63.0872Z" fill="#3A3A39"/>
<path fill-rule="evenodd" clip-rule="evenodd" d="M85.5024 11.2716C85.5024 8.00905 87.9 5.50256 91.2101 5.50256C93.199 5.50256 94.9563 6.5038 95.9166 8.07035L93.7507 9.33721C93.2671 8.47901 92.3204 7.97499 91.2101 7.97499C89.269 7.97499 88.0089 9.28953 88.0089 11.2716C88.0089 13.2536 89.2622 14.5681 91.2101 14.5681C92.3204 14.5681 93.2807 14.0641 93.7507 13.2059L95.9166 14.4728C94.9767 16.0393 93.2194 17.0406 91.2101 17.0406C87.9 17.0406 85.5024 14.5341 85.5024 11.2716Z" fill="#3A3A39"/>
<path fill-rule="evenodd" clip-rule="evenodd" d="M99.1858 16.8023H101.692V5.73425H99.1858V16.8023Z" fill="#3A3A39"/>
<path fill-rule="evenodd" clip-rule="evenodd" d="M113.176 8.0977H110.356V16.8023H107.768V8.0977H105.03L105.05 5.73425H113.203L113.183 8.0977H113.176Z" fill="#3A3A39"/>
<path fill-rule="evenodd" clip-rule="evenodd" d="M121.642 12.6406L121.601 16.9044L119.095 16.8771L119.136 12.6134L115.512 5.7478L118.366 5.77505L120.409 10.0728L122.534 5.81591L125.388 5.84316L121.642 12.6406Z" fill="#3A3A39"/>
<path fill-rule="evenodd" clip-rule="evenodd" d="M44.6223 26.6442C44.3567 27.1551 43.7914 27.482 43.1784 27.482C42.1499 27.482 41.4007 26.7328 41.4007 25.6907C41.4007 24.6486 42.1499 23.8994 43.1784 23.8994C43.7846 23.8994 44.3499 24.2195 44.6087 24.7167L44.6836 24.8597L45.2558 24.526L45.174 24.3898C44.779 23.6882 44.0093 23.2523 43.1716 23.2523C41.7889 23.2523 40.7468 24.2944 40.7468 25.6839C40.7468 27.0733 41.7889 28.1154 43.1716 28.1154C44.023 28.1154 44.7994 27.6727 45.1877 26.9576L45.2626 26.8213L44.6904 26.4876L44.6155 26.6374L44.6223 26.6442Z" fill="#3A3A39"/>
<path fill-rule="evenodd" clip-rule="evenodd" d="M50.4183 25.3094H48.2047V23.3274H47.5576V28.0543H48.2047V25.9497H50.4183V28.0543H51.0653V23.3274H50.4183V25.3094Z" fill="#3A3A39"/>
<path fill-rule="evenodd" clip-rule="evenodd" d="M56.5145 26.4196C56.5145 27.0803 56.099 27.4754 55.4043 27.4754C54.7095 27.4754 54.3009 27.0803 54.3009 26.4196V23.3274H53.6538V26.4196C53.6538 27.4345 54.3554 28.1224 55.4043 28.1224C56.4532 28.1224 57.1615 27.4413 57.1615 26.4196V23.3274H56.5145V26.4196Z" fill="#3A3A39"/>
<path fill-rule="evenodd" clip-rule="evenodd" d="M60.4036 23.9676H61.6296C62.0723 23.9676 62.4265 24.3354 62.4265 24.7918C62.4265 25.2481 62.0655 25.6091 61.6296 25.6091H60.4036V23.9608V23.9676ZM63.0804 24.7918C63.0804 23.9881 62.4333 23.3274 61.6296 23.3274H59.7498V28.0543H60.3968V26.2494H61.5206L62.5627 28.0543H63.312L62.1881 26.1336C62.7126 25.902 63.0668 25.3775 63.0668 24.7918H63.0804Z" fill="#3A3A39"/>
<path fill-rule="evenodd" clip-rule="evenodd" d="M69.0674 26.6442C68.8018 27.1551 68.2365 27.482 67.6235 27.482C66.595 27.482 65.8458 26.7328 65.8458 25.6907C65.8458 24.6486 66.595 23.8994 67.6235 23.8994C68.2296 23.8994 68.795 24.2195 69.0538 24.7167L69.1287 24.8597L69.7008 24.526L69.6191 24.3898C69.2241 23.6882 68.4544 23.2523 67.6166 23.2523C66.234 23.2523 65.1919 24.2944 65.1919 25.6839C65.1919 27.0733 66.234 28.1154 67.6166 28.1154C68.468 28.1154 69.2445 27.6727 69.6327 26.9576L69.7077 26.8213L69.1355 26.4876L69.0606 26.6374L69.0674 26.6442Z" fill="#3A3A39"/>
<path fill-rule="evenodd" clip-rule="evenodd" d="M74.8704 23.3274V25.3094H72.6568V23.3274H72.0098V28.0543H72.6568V25.9497H74.8704V28.0543H75.5175V23.3274H74.8704Z" fill="#3A3A39"/>
<path fill-rule="evenodd" clip-rule="evenodd" d="M0.983643 28.2653H14.3266V1.05493H0.983643V28.2653Z" fill="#3A3A39"/>
<path fill-rule="evenodd" clip-rule="evenodd" d="M17.623 5.72739V32.8356H30.6799V20.4257C30.6799 12.8041 24.9518 6.5311 17.623 5.72058V5.72739Z" fill="#3A3A39"/>
</g>
</g>
<defs>
<clipPath id="clip0_5328_2048">
<rect width="124.643" height="32.6933" fill="white" transform="translate(0.983643 0.653076)"/>
</clipPath>
</defs>
</svg>
