<svg width="97" height="40" viewBox="0 0 97 40" fill="none" xmlns="http://www.w3.org/2000/svg">
<path d="M22.0812 9.79449C21.6454 9.76751 21.208 9.78874 20.777 9.85779L20.1803 9.96331L19.9269 9.40935C19.6188 8.73436 19.1748 8.13015 18.6224 7.63449C18.07 7.13883 17.4211 6.7624 16.7165 6.52874L16.1357 6.33353C14.345 5.73532 12.4377 5.57058 10.5709 5.85288C8.70403 6.13519 6.93097 6.85646 5.39766 7.95732C3.86435 9.05818 2.61463 10.5072 1.75137 12.185C0.888117 13.8628 0.436014 15.7215 0.432274 17.608V23.9759C0.4158 25.3617 0.922274 26.7029 1.85086 27.7324C2.77944 28.7619 4.06202 29.4042 5.44321 29.5314C5.87873 29.5627 6.31642 29.5432 6.74742 29.4734L7.34408 29.3678L7.59754 29.8954C7.90406 30.5687 8.34579 31.1718 8.89533 31.6673C9.44486 32.1628 10.0905 32.5402 10.7921 32.776L11.3782 32.9712C13.1706 33.5728 15.0806 33.7398 16.9503 33.4585C18.8201 33.1771 20.5961 32.4554 22.1317 31.353C23.6672 30.2506 24.9184 28.7991 25.7818 27.1182C26.6452 25.4374 27.0962 23.5755 27.0974 21.6862V15.3552C27.1151 13.9677 26.6085 12.6245 25.6787 11.5938C24.7489 10.563 23.4642 9.92052 22.0812 9.79449ZM8.27341 18.2358V24.1553C8.27341 24.4761 8.21017 24.7937 8.08731 25.0901C7.96445 25.3865 7.78438 25.6557 7.55736 25.8826C7.33035 26.1094 7.06083 26.2893 6.76422 26.4121C6.46761 26.5348 6.14971 26.598 5.82866 26.598C5.50761 26.598 5.18971 26.5348 4.8931 26.4121C4.59649 26.2893 4.32698 26.1094 4.09997 25.8826C3.87295 25.6557 3.69288 25.3865 3.57002 25.0901C3.44716 24.7937 3.38392 24.4761 3.38392 24.1553V18.2411C3.38424 16.7499 3.73955 15.2803 4.42051 13.9534C5.10147 12.6265 6.08854 11.4805 7.30023 10.61C8.51192 9.73945 9.91346 9.1694 11.3891 8.94688C12.8648 8.72436 14.3723 8.85575 15.7872 9.33021C16.0916 9.4324 16.3729 9.5935 16.6149 9.80431C16.857 10.0151 17.0552 10.2715 17.1981 10.5588C17.3411 10.8462 17.4259 11.1588 17.4479 11.4789C17.4699 11.799 17.4286 12.1203 17.3263 12.4245C17.2241 12.7286 17.0628 13.0097 16.8519 13.2516C16.6409 13.4935 16.3843 13.6915 16.0967 13.8343C15.8091 13.9771 15.4962 14.0619 15.1758 14.0839C14.8555 14.1059 14.5339 14.0646 14.2295 13.9624C13.5495 13.7328 12.8246 13.6684 12.1147 13.7744C11.4048 13.8804 10.7304 14.1538 10.1473 14.5719C9.56418 14.9901 9.08912 15.541 8.76142 16.179C8.43372 16.8171 8.26281 17.5239 8.26285 18.2411L8.27341 18.2358ZM16.8643 19.7553C16.8726 20.3356 16.7085 20.9053 16.3926 21.3924C16.0768 21.8794 15.6234 22.2619 15.0899 22.4914C14.5564 22.721 13.9668 22.7872 13.3956 22.6818C12.8244 22.5764 12.2973 22.3041 11.8811 21.8993C11.4649 21.4944 11.1782 20.9754 11.0573 20.4077C10.9364 19.8401 10.9868 19.2493 11.202 18.7103C11.4173 18.1712 11.7877 17.7081 12.2664 17.3794C12.7452 17.0508 13.3108 16.8715 13.8916 16.8641C14.6684 16.8571 15.4163 17.158 15.9716 17.7008C16.5268 18.2437 16.844 18.9844 16.8538 19.7605L16.8643 19.7553ZM24.151 21.1164C24.1499 22.6071 23.7939 24.0762 23.1126 25.4024C22.4313 26.7286 21.4442 27.8739 20.2326 28.7438C19.021 29.6137 17.6198 30.1833 16.1445 30.4056C14.6692 30.6278 13.1622 30.4964 11.7478 30.022C11.4437 29.9181 11.1631 29.7554 10.922 29.5431C10.6809 29.3308 10.484 29.0732 10.3426 28.7849C10.2011 28.4966 10.1179 28.1832 10.0976 27.8628C10.0773 27.5423 10.1204 27.221 10.2244 26.9172C10.3285 26.6134 10.4913 26.333 10.7038 26.0921C10.9162 25.8512 11.1741 25.6545 11.4627 25.5131C11.7512 25.3718 12.0648 25.2886 12.3855 25.2684C12.7062 25.2481 13.0278 25.2912 13.3319 25.3951C14.0117 25.6228 14.7359 25.6855 15.4448 25.5783C16.1537 25.471 16.8268 25.1968 17.4087 24.7783C17.9906 24.3598 18.4645 23.809 18.7912 23.1713C19.118 22.5337 19.2883 21.8275 19.288 21.1112V15.1969C19.288 14.5491 19.5455 13.9278 20.004 13.4697C20.4625 13.0116 21.0843 12.7542 21.7327 12.7542C22.3811 12.7542 23.0029 13.0116 23.4614 13.4697C23.9199 13.9278 24.1774 14.5491 24.1774 15.1969L24.151 21.1164Z" fill="#3A3A39"/>
<path d="M43.4637 29.981C42.067 29.981 40.7715 29.7421 39.5769 29.2643C38.4008 28.7682 37.3717 28.0882 36.4896 27.2245C35.6075 26.3424 34.9184 25.3041 34.4222 24.1096C33.9444 22.8967 33.7055 21.5736 33.7055 20.1402C33.7055 18.7068 33.9536 17.3928 34.4498 16.1983C34.946 15.0038 35.6351 13.9747 36.5172 13.111C37.3993 12.2289 38.4284 11.549 39.6045 11.0712C40.799 10.5934 42.0854 10.3545 43.4637 10.3545C44.8787 10.3545 46.1743 10.6025 47.3504 11.0987C48.5449 11.5765 49.5648 12.2749 50.4102 13.1937C51.2555 14.1125 51.8803 15.2244 52.2846 16.5291L48.5633 17.6869C48.1222 16.4189 47.4607 15.4633 46.5786 14.8201C45.7149 14.1585 44.6857 13.8277 43.4912 13.8277C42.3702 13.8277 41.3687 14.0942 40.4866 14.6271C39.6229 15.1417 38.9429 15.8675 38.4468 16.8048C37.9506 17.742 37.7025 18.8538 37.7025 20.1402C37.7025 21.4266 37.9414 22.5476 38.4192 23.5032C38.9154 24.4588 39.5953 25.203 40.459 25.736C41.3228 26.2505 42.3151 26.5078 43.4361 26.5078C44.6122 26.5078 45.6689 26.177 46.6061 25.5154C47.5434 24.8355 48.2417 23.8983 48.7011 22.7038L52.4776 23.5859C52.0733 24.9458 51.4209 26.1035 50.5204 27.0591C49.62 28.0147 48.5633 28.7406 47.3504 29.2368C46.1375 29.733 44.8419 29.981 43.4637 29.981ZM54.9669 25.6808V9.38967H58.8536V25.4327C58.8536 25.837 58.973 26.1403 59.2119 26.3424C59.4508 26.5446 59.7357 26.6456 60.0665 26.6456C60.3054 26.6456 60.5075 26.6089 60.6729 26.5354L61.3896 29.4849C60.7464 29.8157 60.0113 29.981 59.1844 29.981C58.5044 29.981 57.8337 29.8432 57.1721 29.5676C56.5289 29.2735 55.996 28.8141 55.5733 28.1893C55.169 27.5461 54.9669 26.7099 54.9669 25.6808ZM71.0192 29.981C69.8431 29.981 68.7496 29.7973 67.7389 29.4297C66.7466 29.0622 65.8736 28.5385 65.1202 27.8585C64.3851 27.1786 63.8062 26.37 63.3836 25.4327C62.9793 24.4771 62.7771 23.4205 62.7771 22.2627C62.7771 21.0682 62.9885 19.984 63.4111 19.01C63.8338 18.036 64.4219 17.1999 65.1753 16.5016C65.9288 15.8032 66.7925 15.2703 67.7665 14.9028C68.7405 14.5168 69.7696 14.3239 70.8538 14.3239C71.7726 14.3239 72.6364 14.4525 73.445 14.7098C74.2535 14.9487 74.961 15.2979 75.5675 15.7573C76.1923 16.1983 76.6701 16.7313 77.0009 17.3561C77.3501 17.9809 77.5246 18.6608 77.5246 19.3959C77.5246 20.3515 77.249 21.1509 76.6977 21.7941C76.1464 22.4373 75.4113 22.9519 74.4924 23.3378C73.592 23.7053 72.5996 23.9626 71.5154 24.1096C70.4311 24.2382 69.3653 24.2842 68.3178 24.2474C68.1524 24.2291 67.9594 24.2199 67.7389 24.2199C67.5184 24.2199 67.3162 24.2199 67.1325 24.2199C66.9671 24.2015 66.8568 24.1923 66.8017 24.1923C66.9119 24.6885 67.1692 25.1479 67.5735 25.5706C67.9962 25.9932 68.5107 26.324 69.1172 26.5629C69.7236 26.7835 70.376 26.8937 71.0743 26.8937C71.6808 26.8937 72.2688 26.7926 72.8385 26.5905C73.4082 26.3883 73.9319 26.1127 74.4097 25.7635C74.9059 25.396 75.3102 25.0009 75.6226 24.5782L78.2965 26.5905C77.7084 27.3623 77.0285 28.0055 76.2566 28.5201C75.4848 29.0163 74.6578 29.3838 73.7757 29.6227C72.8936 29.8616 71.9748 29.981 71.0192 29.981ZM68.4556 21.4633C69.062 21.4633 69.6685 21.4358 70.2749 21.3806C70.8997 21.3255 71.4694 21.2244 71.984 21.0774C72.5169 20.912 72.9396 20.6915 73.252 20.4158C73.5828 20.1218 73.7482 19.7543 73.7482 19.3132C73.7482 18.9457 73.6195 18.6241 73.3623 18.3484C73.1234 18.0544 72.7926 17.8247 72.3699 17.6593C71.9656 17.4755 71.497 17.3836 70.9641 17.3836C70.1187 17.3836 69.3653 17.5766 68.7037 17.9625C68.0605 18.3484 67.5551 18.8538 67.1876 19.4786C66.8201 20.0851 66.6179 20.7191 66.5812 21.3806C66.8017 21.399 67.0773 21.4174 67.4081 21.4358C67.7389 21.4541 68.0881 21.4633 68.4556 21.4633ZM87.6175 29.981C86.1473 29.981 84.8242 29.6594 83.648 29.0163C82.4903 28.3731 81.5623 27.4634 80.8639 26.2873C80.184 25.1112 79.844 23.7237 79.844 22.1249C79.844 20.5261 80.1932 19.1478 80.8915 17.9901C81.5898 16.814 82.5362 15.9135 83.7307 15.2887C84.9252 14.6455 86.2576 14.3239 87.7277 14.3239C89.1979 14.3239 90.521 14.6455 91.6971 15.2887C92.8916 15.9135 93.8381 16.814 94.5364 17.9901C95.2347 19.1478 95.5839 20.5261 95.5839 22.1249C95.5839 23.7237 95.2255 25.1112 94.5088 26.2873C93.8105 27.4634 92.8549 28.3731 91.642 29.0163C90.4475 29.6594 89.106 29.981 87.6175 29.981ZM87.6175 26.5905C88.2974 26.5905 88.9406 26.4343 89.547 26.1219C90.1535 25.7911 90.6497 25.2949 91.0356 24.6334C91.4215 23.9534 91.6144 23.1173 91.6144 22.1249C91.6144 21.1325 91.4215 20.3056 91.0356 19.644C90.668 18.9824 90.181 18.4954 89.5746 18.183C88.9865 17.8523 88.3525 17.6869 87.6726 17.6869C86.9926 17.6869 86.3586 17.8523 85.7706 18.183C85.2009 18.4954 84.7323 18.9824 84.3647 19.644C83.9972 20.3056 83.8134 21.1325 83.8134 22.1249C83.8134 23.1173 83.988 23.9534 84.3372 24.6334C84.6863 25.2949 85.1458 25.7911 85.7154 26.1219C86.3035 26.4343 86.9375 26.5905 87.6175 26.5905Z" fill="#3A3A39"/>
</svg>
