<svg width="126" height="39" viewBox="0 0 126 39" fill="none" xmlns="http://www.w3.org/2000/svg">
<g clip-path="url(#clip0_5328_2111)">
<path d="M13.2906 29.0447C13.2952 27.8696 13.7649 26.7442 14.5971 25.9149C15.4292 25.0856 16.5559 24.6199 17.7305 24.62V20.1781H0.0222168V24.62C1.132 24.7126 2.16646 25.2191 2.92048 26.039C3.6745 26.8589 4.093 27.9323 4.093 29.0464C4.093 30.1606 3.6745 31.234 2.92048 32.0539C2.16646 32.8738 1.132 33.3803 0.0222168 33.4729V37.8943H17.7169V33.4729C16.5441 33.4693 15.4203 33.0016 14.591 32.1719C13.7617 31.3423 13.2942 30.218 13.2906 29.0447Z" fill="#3A3A39"/>
<path d="M28.0617 9.84222C28.0608 7.49486 27.1281 5.24395 25.4686 3.58444C23.8092 1.92493 21.559 0.992676 19.2126 0.992676V18.6918C21.5578 18.6918 23.807 17.7605 25.4662 16.1024C27.1255 14.4444 28.059 12.1952 28.0617 9.84905C28.0626 12.1955 28.9949 14.4455 30.6537 16.1044C32.3125 17.7633 34.5619 18.6952 36.9073 18.6952V0.992676C34.5613 0.992676 32.3114 1.92504 30.6525 3.58465C28.9936 5.24426 28.0617 7.49517 28.0617 9.84222Z" fill="#3A3A39"/>
<path d="M12.1875 1.02001C12.0031 0.992676 11.8186 0.992676 11.6342 0.992676H0.0222168V18.6918H3.33847V13.1634H11.6342C11.8186 13.1634 12.0031 13.1634 12.1875 13.1394C13.6978 13.0003 15.1017 12.3018 16.1238 11.1807C17.1459 10.0597 17.7125 8.59708 17.7125 7.07973C17.7125 5.56237 17.1459 4.09975 16.1238 2.97872C15.1017 1.85769 13.6978 1.15912 12.1875 1.02001ZM11.6342 9.84564H3.33847V4.31382H11.6342C12.3506 4.33901 13.0293 4.64145 13.5272 5.15741C14.0251 5.67336 14.3034 6.36254 14.3034 7.07973C14.3034 7.79691 14.0251 8.48609 13.5272 9.00204C13.0293 9.518 12.3506 9.82044 11.6342 9.84564Z" fill="#3A3A39"/>
<path d="M19.2161 37.8944V32.8854L24.2229 37.8944H19.2161Z" fill="#3A3A39"/>
<path d="M29.3048 37.8945L19.2161 27.7978V22.7102L34.3902 37.8945H29.3048Z" fill="#3A3A39"/>
<path d="M36.9073 20.1952V25.1496L31.9551 20.1952H36.9073Z" fill="#3A3A39"/>
<path d="M36.9071 35.3248L21.7842 20.1952H26.8696L36.9071 30.2372V35.3248Z" fill="#3A3A39"/>
<path d="M38.414 36.8864H38.0725V36.719H38.9571V36.8864H38.6155V37.9115H38.4311L38.414 36.8864ZM39.0664 36.719H39.3225L39.7426 37.6689L40.1524 36.719H40.412V37.8944H40.2276V36.9753L39.828 37.8944H39.6401L39.2405 36.9753V37.8944H39.0561L39.0664 36.719Z" fill="#3A3A39"/>
<path d="M46.1287 0.992747H50.3363C50.9151 0.989379 51.4883 1.10571 52.02 1.33443C52.5409 1.55432 52.9945 1.90792 53.3349 2.35947C53.6819 2.82926 53.8611 3.40201 53.8438 3.98587C53.851 4.53096 53.6939 5.06557 53.393 5.52002C53.0793 5.98444 52.6447 6.35425 52.1362 6.58948C51.5648 6.85321 50.9416 6.98516 50.3124 6.97558H48.2393V10.0507H46.1287V0.992747ZM49.9811 5.36627C50.2865 5.3719 50.5894 5.31129 50.8691 5.18859C51.1155 5.08464 51.3292 4.91578 51.4873 4.69999C51.6341 4.4936 51.7118 4.24601 51.7093 3.99271C51.7136 3.737 51.6384 3.48625 51.4941 3.27518C51.3384 3.05988 51.127 2.89098 50.8828 2.78657C50.5984 2.66329 50.2909 2.60269 49.9811 2.6089H48.2393V5.36627H49.9811Z" fill="#3A3A39"/>
<path d="M54.6365 3.53482H56.1631L56.4534 4.58037C56.6041 4.20359 56.8665 3.88205 57.2054 3.65906C57.5443 3.43608 57.9434 3.32236 58.3489 3.33323C58.71 3.32778 59.0653 3.42494 59.3735 3.61341C59.6921 3.80714 59.9537 4.08182 60.1317 4.40953C60.3256 4.771 60.442 5.16901 60.4732 5.57808L58.8578 6.02226C58.85 5.70067 58.729 5.39214 58.5162 5.15098C58.4217 5.04218 58.3045 4.95527 58.173 4.89627C58.0415 4.83727 57.8988 4.80759 57.7546 4.80929C57.5309 4.80745 57.3136 4.88356 57.1399 5.02455C56.9487 5.18041 56.8025 5.38445 56.7164 5.61566C56.6106 5.89376 56.5584 6.18941 56.5627 6.48695V10.0473H54.6433L54.6365 3.53482Z" fill="#3A3A39"/>
<path d="M62.7204 9.8186C62.1878 9.5442 61.7447 9.12338 61.4431 8.60563C61.1426 8.04873 60.9854 7.42584 60.9854 6.79301C60.9854 6.16019 61.1426 5.53729 61.4431 4.98039C61.7445 4.46161 62.1876 4.03964 62.7204 3.76401C63.3062 3.4813 63.9483 3.33447 64.5988 3.33447C65.2492 3.33447 65.8913 3.4813 66.4772 3.76401C67.01 4.03964 67.4531 4.46161 67.7545 4.98039C68.0549 5.53729 68.2122 6.16019 68.2122 6.79301C68.2122 7.42584 68.0549 8.04873 67.7545 8.60563C67.4529 9.12338 67.0097 9.5442 66.4772 9.8186C65.892 10.1035 65.2496 10.2516 64.5988 10.2516C63.9479 10.2516 63.3056 10.1035 62.7204 9.8186ZM65.4833 8.38695C65.7443 8.23416 65.9564 8.01016 66.0947 7.74118C66.2362 7.44515 66.3097 7.12117 66.3097 6.79301C66.3097 6.46485 66.2362 6.14087 66.0947 5.84484C65.9566 5.57482 65.7445 5.34966 65.4833 5.19565C65.216 5.04121 64.9127 4.9599 64.6039 4.9599C64.2952 4.9599 63.9919 5.04121 63.7245 5.19565C63.466 5.35096 63.2565 5.57595 63.12 5.84484C62.9784 6.14087 62.9049 6.46485 62.9049 6.79301C62.9049 7.12117 62.9784 7.44515 63.12 7.74118C63.2567 8.00903 63.4663 8.23286 63.7245 8.38695C63.9919 8.5414 64.2952 8.6227 64.6039 8.6227C64.9127 8.6227 65.216 8.5414 65.4833 8.38695Z" fill="#3A3A39"/>
<path d="M67.1599 12.9037C66.8002 12.7438 66.4891 12.4916 66.2583 12.1725L67.1121 11.0518C67.2148 11.2569 67.3735 11.4287 67.5698 11.5472C67.7516 11.6626 67.9624 11.7242 68.1777 11.7249C68.352 11.7287 68.5234 11.6799 68.6695 11.5848C68.8214 11.4926 68.9408 11.3552 69.011 11.1919C69.091 11.0124 69.1306 10.8177 69.1271 10.6212V3.53478H71.0329V10.9014C71.0417 11.3145 70.9306 11.7213 70.713 12.0724C70.4953 12.4236 70.1805 12.704 69.8068 12.8798C69.3922 13.0773 68.9374 13.1756 68.4782 13.1668C68.0248 13.1775 67.5746 13.0876 67.1599 12.9037ZM69.2638 2.3594C69.0573 2.14378 68.9421 1.85673 68.9421 1.55815C68.9421 1.25958 69.0573 0.97253 69.2638 0.756913C69.4865 0.548953 69.7823 0.437234 70.0868 0.445983C70.2378 0.440334 70.3884 0.46493 70.5298 0.518325C70.6711 0.57172 70.8004 0.652838 70.9099 0.756913C71.1164 0.97253 71.2316 1.25958 71.2316 1.55815C71.2316 1.85673 71.1164 2.14378 70.9099 2.3594C70.801 2.46457 70.6719 2.54662 70.5305 2.60064C70.389 2.65466 70.2381 2.67952 70.0868 2.67374C69.9357 2.67837 69.7851 2.65297 69.6438 2.59901C69.5026 2.54505 69.3734 2.46361 69.2638 2.3594Z" fill="#3A3A39"/>
<path d="M77.2078 3.76039C77.7076 4.03935 78.1148 4.45865 78.3792 4.96652C78.6636 5.52334 78.8056 6.14202 78.7925 6.76718C78.7925 6.8526 78.7925 6.95169 78.7925 7.06444C78.7913 7.15249 78.7844 7.24037 78.772 7.32754H73.912C73.9493 7.62064 74.0676 7.89752 74.2535 8.12707C74.4462 8.36059 74.6938 8.54258 74.9742 8.65668C75.2784 8.78225 75.6048 8.84501 75.9339 8.84119C76.3172 8.84366 76.6964 8.7608 77.0438 8.59859C77.349 8.47003 77.6117 8.25806 77.802 7.98698L78.9461 8.80018C78.6604 9.27493 78.2275 9.64328 77.7132 9.84915C77.0981 10.1247 76.4302 10.2623 75.7563 10.2523C75.0747 10.2646 74.4005 10.1097 73.7925 9.80131C73.2328 9.51675 72.7607 9.08576 72.4264 8.55417C72.0914 8.00915 71.9196 7.37954 71.9311 6.73985C71.9185 6.11885 72.0743 5.50602 72.382 4.96652C72.679 4.4585 73.1103 4.04232 73.6285 3.7638C74.1863 3.47073 74.8087 3.32268 75.4386 3.33329C76.0556 3.31761 76.6658 3.46493 77.2078 3.76039ZM74.6975 4.91527C74.4854 5.03972 74.3108 5.21915 74.1921 5.43463C74.0508 5.66958 73.9558 5.92935 73.912 6.19999H76.8662C76.84 5.93114 76.7586 5.67059 76.6272 5.43463C76.5089 5.22379 76.3368 5.04811 76.1285 4.92552C75.9155 4.80041 75.672 4.73656 75.425 4.74101C75.1763 4.73897 74.931 4.79886 74.7112 4.91527H74.6975Z" fill="#3A3A39"/>
<path d="M81.2753 9.81163C80.7396 9.52981 80.2944 9.10221 79.9911 8.57817C79.6806 8.03799 79.5203 7.42452 79.5267 6.80142C79.5158 6.1754 79.6676 5.55728 79.9672 5.0076C80.2477 4.49485 80.6651 4.07017 81.1728 3.78096C81.7073 3.48438 82.3104 3.33356 82.9215 3.34361C83.4152 3.34074 83.9044 3.43839 84.3593 3.63062C84.7891 3.80347 85.1752 4.06954 85.4898 4.40966C85.7901 4.74119 85.9964 5.14698 86.0874 5.58504L84.332 6.02922C84.2647 5.7097 84.0869 5.42415 83.8299 5.22286C83.6015 5.03225 83.3171 4.92144 83.02 4.90725C82.7229 4.89307 82.4293 4.97629 82.1838 5.14427C81.9428 5.31625 81.7556 5.55326 81.6441 5.82763C81.5091 6.13548 81.4416 6.46869 81.4461 6.80484C81.4406 7.14478 81.5167 7.48106 81.6681 7.78546C81.8029 8.06456 82.012 8.30102 82.2726 8.46883C82.5326 8.62732 82.8322 8.70905 83.1366 8.70459C83.4028 8.706 83.6654 8.64268 83.9017 8.52008C84.1345 8.40019 84.3367 8.22834 84.4925 8.01781C84.6499 7.80465 84.752 7.55577 84.7896 7.29345L86.569 7.54629C86.5058 8.06318 86.3013 8.55263 85.9782 8.96085C85.6485 9.37897 85.2234 9.71177 84.7384 9.93122C84.1915 10.1773 83.5962 10.2972 82.9967 10.2818C82.3972 10.2664 81.8089 10.1162 81.2753 9.84239V9.81163Z" fill="#3A3A39"/>
<path d="M89.086 9.9585C88.7215 9.77721 88.4212 9.48867 88.2254 9.13164C88.0225 8.73939 87.9227 8.30203 87.9351 7.86058V4.98705H86.6885V3.5349H87.9351V1.74449L89.8442 1.33447V3.54515H92.4876V4.9973H89.8442V7.57699C89.8283 7.88039 89.9284 8.17847 90.1243 8.41069C90.2145 8.51281 90.3262 8.59366 90.4514 8.64742C90.5766 8.70118 90.7122 8.72652 90.8483 8.72162C91.1258 8.72805 91.3979 8.64411 91.6236 8.48244C91.8589 8.29932 92.0503 8.06582 92.1837 7.79908L92.8667 8.93005C92.6339 9.33936 92.2984 9.68087 91.8934 9.92092C91.4553 10.1604 90.9613 10.2783 90.4624 10.2626C89.9858 10.2731 89.5138 10.1688 89.086 9.9585Z" fill="#3A3A39"/>
<path d="M46.1287 15.0017H47.6553L50.934 22.8125L54.2127 15.0017H55.7393V23.9708H54.684V16.529L51.4941 23.9708H50.3739L47.184 16.5427V23.9708H46.1287V15.0017Z" fill="#3A3A39"/>
<path d="M58.1985 23.9809C57.8454 23.839 57.5382 23.6025 57.3105 23.2975C57.1044 23.0127 56.9911 22.6712 56.9862 22.3195C56.9814 21.9679 57.085 21.6234 57.2832 21.3329C57.529 21.0119 57.8538 20.76 58.2258 20.6017C58.752 20.3742 59.3112 20.2324 59.8822 20.1814L61.4601 19.9935C61.6028 19.9838 61.7384 19.9273 61.846 19.8329C61.8942 19.7904 61.9325 19.7377 61.9579 19.6786C61.9833 19.6195 61.9952 19.5555 61.9928 19.4912C61.9932 19.2393 61.9008 18.996 61.7333 18.8079C61.5467 18.6006 61.3121 18.4422 61.0502 18.3466C60.7518 18.2316 60.4342 18.1747 60.1144 18.1792C59.7527 18.1739 59.3945 18.2498 59.0659 18.4013C58.7801 18.5347 58.5279 18.7309 58.3282 18.9753C58.1589 19.1789 58.0553 19.4291 58.0311 19.6928L57.1534 19.3238C57.2063 18.9547 57.368 18.6097 57.6179 18.3329C57.9093 18.0008 58.2758 17.7431 58.6868 17.5812C59.1518 17.3915 59.6499 17.2963 60.152 17.301C60.6514 17.2925 61.1467 17.3928 61.6035 17.5949C62.0051 17.7714 62.3485 18.0581 62.5939 18.4218C62.8298 18.7889 62.9488 19.219 62.9355 19.6552V22.9114C62.9293 23.0253 62.9631 23.1377 63.0311 23.2292C63.0615 23.2656 63.0997 23.2946 63.1428 23.3142C63.186 23.3337 63.233 23.3432 63.2804 23.342C63.3776 23.3388 63.4711 23.304 63.5468 23.2429C63.6477 23.1659 63.7334 23.0709 63.7995 22.9627L64.3221 23.5709C64.18 23.7806 63.9842 23.9482 63.7551 24.0561C63.5288 24.1718 63.2784 24.2326 63.0243 24.2338C62.8823 24.2397 62.7407 24.216 62.6085 24.1642C62.4762 24.1125 62.3561 24.0337 62.2558 23.9331C62.1559 23.8303 62.0779 23.7082 62.0268 23.5743C61.9758 23.4403 61.9526 23.2973 61.9587 23.154V22.9114C61.6445 23.4675 61.1304 23.883 60.5209 24.0732C60.1899 24.1802 59.8441 24.2344 59.4963 24.2338C59.0509 24.2391 58.6092 24.153 58.1985 23.9809ZM60.8555 23.0652C61.1932 22.8941 61.477 22.6327 61.6752 22.3101C61.8725 21.9824 61.9743 21.606 61.9689 21.2235V20.7657L59.9847 21.0049C59.4345 21.0492 58.9012 21.2161 58.4239 21.4935C58.2848 21.5764 58.169 21.6932 58.0871 21.833C58.0053 21.9728 57.9602 22.1311 57.956 22.293C57.9569 22.4537 58.0016 22.6112 58.0852 22.7484C58.1689 22.8857 58.2883 22.9976 58.4307 23.072C58.8093 23.2813 59.2383 23.3818 59.6704 23.3625C60.0841 23.3637 60.4914 23.2615 60.8555 23.0652Z" fill="#3A3A39"/>
<path d="M65.0867 17.5472H65.9644L66.0532 18.4868C66.275 18.1141 66.5969 17.811 66.9822 17.6121C67.3934 17.3919 67.854 17.2808 68.3203 17.2891C68.7867 17.2975 69.243 17.4252 69.6461 17.6599C70.0475 17.9065 70.3709 18.2619 70.5785 18.685C70.8083 19.1354 70.9255 19.6349 70.92 20.1405V23.9845H69.933V20.1269C69.9374 19.7797 69.8627 19.4362 69.7144 19.1223C69.5776 18.8392 69.3617 18.6018 69.0928 18.439C68.8048 18.2681 68.4747 18.1817 68.1399 18.1895C67.7766 18.1882 67.4192 18.2822 67.1034 18.462C66.7876 18.6418 66.5244 18.9013 66.3401 19.2146C66.1476 19.539 66.0483 19.9102 66.0532 20.2875V23.9776H65.0867V17.5472Z" fill="#3A3A39"/>
<path d="M73.1403 23.981C72.7872 23.839 72.48 23.6026 72.2523 23.2976C72.0385 23.0066 71.9246 22.6542 71.9278 22.293C71.924 21.9498 72.0279 21.614 72.225 21.3329C72.4724 21.0134 72.7967 20.7619 73.1676 20.6017C73.6949 20.3739 74.2553 20.232 74.8274 20.1815L76.4019 19.9935C76.5453 19.9824 76.6816 19.9262 76.7912 19.8329C76.8385 19.7898 76.8758 19.7369 76.9006 19.6779C76.9253 19.6189 76.937 19.5552 76.9347 19.4913C76.935 19.2393 76.8426 18.996 76.6751 18.8079C76.4885 18.6007 76.2539 18.4423 75.992 18.3466C75.6947 18.2319 75.3783 18.1751 75.0597 18.1792C74.6968 18.1736 74.3374 18.2495 74.0078 18.4013C73.7222 18.5337 73.4709 18.7301 73.2735 18.9753C73.1019 19.1779 72.997 19.4285 72.9729 19.6929L72.0849 19.3136C72.1393 18.9449 72.3008 18.6003 72.5494 18.3227C72.8416 17.9914 73.2079 17.7339 73.6184 17.571C74.0845 17.3809 74.5837 17.2857 75.087 17.2908C75.5853 17.2819 76.0796 17.3822 76.5351 17.5847C76.9463 17.7592 77.2985 18.0487 77.5494 18.4184C77.791 18.7837 77.9161 19.2138 77.908 19.6519V22.9081C77.9009 23.0215 77.9335 23.1339 78.0002 23.2258C78.0306 23.2622 78.0688 23.2913 78.112 23.3108C78.1551 23.3303 78.2022 23.3398 78.2495 23.3386C78.3467 23.3354 78.4403 23.3006 78.5159 23.2395C78.618 23.1629 78.7049 23.0679 78.7721 22.9593L79.2912 23.5675C79.1505 23.7771 78.9558 23.9447 78.7277 24.0527C78.5012 24.168 78.2509 24.2289 77.9968 24.2304C77.8544 24.2357 77.7125 24.2118 77.5797 24.1601C77.447 24.1084 77.3262 24.03 77.225 23.9297C77.125 23.8269 77.0471 23.7048 76.996 23.5709C76.9449 23.4369 76.9217 23.2939 76.9278 23.1507V22.9081C76.7763 23.1774 76.5759 23.4161 76.337 23.6119C76.0865 23.8174 75.799 23.9728 75.49 24.0698C74.7258 24.3091 73.9028 24.2802 73.1573 23.9878L73.1403 23.981ZM75.7974 23.0652C76.1351 22.8941 76.4188 22.6327 76.617 22.3101C76.8143 21.9825 76.9161 21.6061 76.9108 21.2236V20.7657L74.9265 21.0049C74.3774 21.0428 73.8439 21.204 73.3657 21.4764C73.2262 21.5592 73.1098 21.6759 73.0274 21.8157C72.945 21.9554 72.8993 22.1138 72.8944 22.276C72.8953 22.4367 72.94 22.5942 73.0236 22.7314C73.1073 22.8687 73.2267 22.9805 73.3691 23.055C73.7477 23.2643 74.1767 23.3648 74.6088 23.3454C75.0222 23.3525 75.4307 23.2562 75.7974 23.0652Z" fill="#3A3A39"/>
<path d="M80.9376 26.8959C80.4779 26.7404 80.0524 26.4979 79.6842 26.1818C79.3447 25.8933 79.074 25.5326 78.8918 25.126L79.7047 24.5656C79.8085 24.9024 79.9966 25.207 80.2511 25.4506C80.5247 25.7178 80.8518 25.9239 81.2108 26.0553C81.6029 26.2016 82.0185 26.2746 82.4369 26.2706C82.9141 26.2759 83.3845 26.1582 83.803 25.9289C84.1913 25.7209 84.5115 25.4054 84.7252 25.0201C84.9513 24.6187 85.069 24.1653 85.0667 23.7046V22.8606C84.803 23.2609 84.4453 23.5905 84.025 23.8208C83.5945 24.0507 83.1128 24.1683 82.6248 24.1624C82.0458 24.1709 81.4759 24.0183 80.9786 23.7217C80.4937 23.4324 80.0979 23.0151 79.8345 22.5155C79.5532 21.9808 79.4111 21.3839 79.4212 20.7798C79.4122 20.1649 79.5541 19.5571 79.8345 19.0099C80.0959 18.4969 80.4961 18.0677 80.9894 17.7712C81.4827 17.4746 82.0493 17.3225 82.6248 17.3322C83.1163 17.3247 83.6017 17.4422 84.0353 17.6739C84.4577 17.9012 84.816 18.2314 85.0769 18.634L85.1794 17.5646H86.0435V23.7148C86.0551 24.3366 85.8968 24.9497 85.5858 25.4882C85.2853 26.007 84.8451 26.4309 84.3153 26.7114C83.7466 27.0085 83.1126 27.1589 82.4711 27.1487C81.9493 27.1518 81.4308 27.0663 80.9376 26.8959ZM83.9431 22.946C84.3025 22.7299 84.5955 22.4191 84.7901 22.0474C84.996 21.6521 85.1004 21.2118 85.094 20.7661C85.1008 20.3051 84.9965 19.8492 84.7901 19.437C84.5993 19.0565 84.3059 18.7369 83.9431 18.5144C83.6718 18.3473 83.3688 18.2383 83.0532 18.1944C82.7376 18.1505 82.4164 18.1726 82.1098 18.2593C81.8032 18.3461 81.518 18.4955 81.2721 18.6982C81.0263 18.9009 80.8251 19.1525 80.6815 19.437C80.475 19.8492 80.3708 20.3051 80.3775 20.7661C80.37 21.2128 80.477 21.6539 80.6883 22.0474C80.8839 22.4183 81.1767 22.729 81.5353 22.946C81.9007 23.1592 82.3162 23.2714 82.7392 23.2714C83.1622 23.2714 83.5776 23.1592 83.9431 22.946Z" fill="#3A3A39"/>
<path d="M92.0645 17.7352C92.5386 18.0271 92.92 18.4477 93.1642 18.9481C93.4338 19.4966 93.5729 20.1 93.5707 20.7112V20.8957C93.574 20.9617 93.574 21.0279 93.5707 21.0939H88.1574C88.1921 21.5136 88.3319 21.9178 88.5638 22.2693C88.7896 22.6099 89.1004 22.8855 89.4655 23.0688C89.8702 23.2666 90.3162 23.3648 90.7665 23.3553C91.2168 23.3458 91.6583 23.2288 92.0543 23.0141C92.4264 22.816 92.73 22.5099 92.9252 22.136L93.7619 22.4777C93.5242 23.0161 93.1162 23.4615 92.6007 23.7453C92.0312 24.0595 91.3927 24.2273 90.7424 24.2339C90.0921 24.2405 89.4503 24.0855 88.8746 23.7829C88.343 23.4872 87.9051 23.048 87.611 22.5153C87.3171 21.9692 87.1601 21.3599 87.1535 20.7398C87.147 20.1196 87.2911 19.5071 87.5734 18.955C87.8423 18.4498 88.2468 18.0297 88.7414 17.742C89.2595 17.4413 89.8502 17.2888 90.4491 17.3012C91.0173 17.2937 91.5765 17.4439 92.0645 17.7352ZM89.3323 18.4459C89.0139 18.6179 88.7447 18.8684 88.5502 19.1736C88.3423 19.4957 88.2082 19.8597 88.1574 20.2397H92.529C92.4908 19.8622 92.3745 19.4969 92.1875 19.1668C92.0092 18.8658 91.7548 18.6171 91.4498 18.4459C91.1352 18.276 90.7826 18.189 90.4252 18.193C90.0509 18.1835 89.6802 18.2669 89.3459 18.4356L89.3323 18.4459Z" fill="#3A3A39"/>
<path d="M94.7866 17.547H95.6234L95.7258 18.3465C95.9191 18.0202 96.1947 17.7504 96.525 17.5641C96.8646 17.3804 97.2455 17.2863 97.6316 17.2907C98.1209 17.2816 98.6032 17.4081 99.025 17.6563C99.4161 17.8829 99.7257 18.2273 99.9096 18.6404C100.11 18.2362 100.42 17.8965 100.804 17.6598C101.206 17.4247 101.664 17.3008 102.13 17.3008C102.595 17.3008 103.053 17.4247 103.455 17.6598C103.846 17.9048 104.162 18.2522 104.37 18.6643C104.6 19.1147 104.717 19.6142 104.711 20.1199V23.9638H103.731V20.1267C103.736 19.7832 103.662 19.4432 103.516 19.1324C103.383 18.8524 103.173 18.6156 102.912 18.449C102.648 18.2807 102.34 18.1939 102.027 18.1996C101.7 18.1951 101.378 18.2789 101.095 18.4422C100.819 18.6026 100.596 18.8401 100.453 19.1256C100.297 19.4349 100.219 19.7772 100.224 20.1233V23.9775H99.2572V20.1267C99.2672 19.7736 99.1959 19.4229 99.0489 19.1017C98.9202 18.8207 98.7125 18.5832 98.4512 18.4183C98.1807 18.2543 97.8693 18.1702 97.553 18.1757C97.2237 18.1694 96.8989 18.2533 96.6138 18.4183C96.3411 18.5786 96.1223 18.8165 95.9854 19.1017C95.8277 19.4198 95.7503 19.7717 95.76 20.1267V23.9809H94.7969L94.7866 17.547Z" fill="#3A3A39"/>
<path d="M110.678 17.7351C111.152 18.027 111.533 18.4476 111.777 18.948C112.046 19.497 112.185 20.1001 112.184 20.7111V20.8956C112.189 20.9616 112.189 21.0278 112.184 21.0938H106.754C106.79 21.5132 106.929 21.917 107.16 22.2692C107.386 22.6107 107.698 22.8865 108.065 23.0687C108.469 23.2665 108.915 23.3647 109.364 23.3552C109.814 23.3457 110.255 23.2287 110.65 23.014C111.023 22.8159 111.326 22.5098 111.521 22.1359L112.362 22.4776C112.122 23.0161 111.713 23.4614 111.197 23.7452C110.628 24.0594 109.99 24.2272 109.34 24.2338C108.691 24.2404 108.049 24.0854 107.474 23.7828C106.942 23.4873 106.502 23.0481 106.207 22.5152C105.913 21.9691 105.756 21.3598 105.75 20.7397C105.743 20.1195 105.887 19.507 106.17 18.9549C106.439 18.4497 106.843 18.0296 107.338 17.7419C107.856 17.4422 108.447 17.2898 109.045 17.3011C109.619 17.2904 110.185 17.4407 110.678 17.7351ZM107.946 18.4458C107.627 18.6178 107.358 18.8683 107.163 19.1735C106.957 19.4963 106.823 19.86 106.771 20.2396H111.142C111.107 19.8614 110.991 19.4954 110.801 19.1667C110.624 18.8642 110.369 18.6151 110.063 18.4458C109.749 18.2758 109.396 18.1887 109.038 18.1929C108.66 18.1814 108.284 18.2648 107.946 18.4355V18.4458Z" fill="#3A3A39"/>
<path d="M113.383 17.5471H114.26L114.349 18.4867C114.57 18.1141 114.89 17.811 115.275 17.612C115.665 17.3994 116.104 17.2889 116.549 17.2908C117.037 17.2811 117.519 17.409 117.939 17.6598C118.34 17.9072 118.664 18.2623 118.874 18.6849C119.103 19.1359 119.22 19.6349 119.216 20.1404V23.9843H118.225V20.1268C118.231 19.7799 118.157 19.4363 118.01 19.1222C117.873 18.8381 117.656 18.6004 117.385 18.4388C117.098 18.2671 116.767 18.1806 116.432 18.1894C116.158 18.189 115.885 18.243 115.631 18.3484C115.378 18.4539 115.147 18.6086 114.953 18.8037C114.76 18.9988 114.607 19.2303 114.503 19.485C114.399 19.7397 114.347 20.0124 114.349 20.2873V23.9775H113.383V17.5471Z" fill="#3A3A39"/>
<path d="M122.136 23.9709C121.834 23.8079 121.584 23.5627 121.415 23.2636C121.244 22.9495 121.157 22.5963 121.163 22.2385V18.3468H119.752V17.5473H121.163V15.6407L122.129 15.4117V17.5473H125.002V18.3468H122.129V22.1394C122.116 22.4665 122.227 22.7864 122.44 23.0347C122.545 23.1492 122.675 23.2392 122.819 23.2982C122.963 23.3573 123.118 23.3839 123.273 23.3763C123.602 23.378 123.919 23.256 124.161 23.0347C124.431 22.7875 124.603 22.4516 124.646 22.0882L125.432 22.4299C125.397 22.6886 125.311 22.9379 125.179 23.1632C125.047 23.3884 124.872 23.5852 124.663 23.7419C124.241 24.0709 123.72 24.2457 123.185 24.2374C122.818 24.2387 122.457 24.147 122.136 23.9709Z" fill="#3A3A39"/>
<path d="M46.1287 28.9253H47.184V37.8944H46.1287V28.9253Z" fill="#3A3A39"/>
<path d="M48.7512 31.4673H49.629L49.7177 32.4103C49.938 32.0367 50.2587 31.7325 50.6433 31.5322C51.035 31.3222 51.4728 31.213 51.9172 31.2145C52.4059 31.2051 52.8874 31.333 53.3072 31.5835C53.7096 31.83 54.034 32.1853 54.243 32.6085C54.472 33.0593 54.5891 33.5585 54.5845 34.0641V37.8943H53.6044V34.0504C53.6099 33.7036 53.5363 33.36 53.3892 33.0459C53.2516 32.7622 53.0345 32.5247 52.7642 32.3625C52.4759 32.1924 52.146 32.106 51.8113 32.1131C51.4517 32.1127 51.0984 32.207 50.7867 32.3864C50.4716 32.5673 50.2082 32.8261 50.0217 33.1381C49.831 33.4644 49.7329 33.8365 49.7382 34.2144V37.8943H48.7717L48.7512 31.4673Z" fill="#3A3A39"/>
<path d="M57.0576 37.8602C56.6425 37.6859 56.2732 37.4181 55.9784 37.0778C55.7021 36.7572 55.5252 36.363 55.4695 35.9434L56.4223 35.7555C56.4496 36.0417 56.56 36.3137 56.74 36.5379C56.9386 36.7779 57.1947 36.9636 57.4845 37.0778C58.1041 37.3168 58.7876 37.3325 59.4176 37.1222C59.6592 37.0403 59.8772 36.9007 60.0528 36.7156C60.2024 36.559 60.2867 36.3513 60.2885 36.1347C60.2894 36.0312 60.2669 35.9288 60.2225 35.8353C60.1781 35.7418 60.1131 35.6596 60.0323 35.5949C59.8456 35.445 59.629 35.3366 59.3971 35.2771C59.1443 35.2054 58.8165 35.1302 58.4203 35.055C57.959 34.9763 57.5028 34.8702 57.0542 34.7372C56.7196 34.6347 56.4164 34.449 56.173 34.1974C55.9227 33.9164 55.7926 33.5483 55.811 33.1723C55.8079 32.8176 55.9167 32.4709 56.1218 32.1815C56.339 31.8775 56.6323 31.6359 56.9722 31.481C57.3541 31.3086 57.7691 31.2223 58.1881 31.2282C58.6012 31.2227 59.0113 31.3005 59.3937 31.4571C59.7402 31.595 60.0509 31.81 60.3021 32.0858C60.539 32.3412 60.7039 32.6548 60.7803 32.9947L59.8513 33.2509C59.8295 33.0812 59.7712 32.9181 59.6804 32.773C59.5896 32.6279 59.4685 32.5042 59.3253 32.4104C58.9879 32.1767 58.5846 32.057 58.1744 32.0687C57.9275 32.0652 57.6828 32.1154 57.4572 32.2156C57.2553 32.3018 57.0781 32.4368 56.9415 32.6086C56.8177 32.7665 56.7504 32.9614 56.7502 33.1621C56.7462 33.264 56.7679 33.3653 56.8132 33.4567C56.8586 33.548 56.9262 33.6265 57.0098 33.6849C57.1448 33.7913 57.2974 33.8734 57.4606 33.9275C57.5904 33.9616 57.9865 34.0368 58.6559 34.1564C59.1035 34.2362 59.5443 34.3504 59.9743 34.4981C60.3122 34.6173 60.6183 34.8125 60.8691 35.0687C61.1057 35.3362 61.2283 35.6857 61.2106 36.0425C61.2178 36.429 61.0978 36.8072 60.8691 37.1188C60.6152 37.4487 60.2797 37.7066 59.8957 37.867C59.4571 38.0561 58.9832 38.1493 58.5057 38.1404C58.009 38.1461 57.5163 38.0507 57.0576 37.8602Z" fill="#3A3A39"/>
<path d="M63.8883 37.8942C63.5878 37.7302 63.3393 37.4851 63.1711 37.1869C62.9995 36.8729 62.9125 36.5197 62.9183 36.1619V32.2701H61.4976V31.4672H62.9081V29.5606L63.8746 29.3317V31.4672H66.7469V32.2701H63.8883V36.0594C63.8744 36.3864 63.9855 36.7065 64.1991 36.9546C64.3042 37.0695 64.4334 37.1597 64.5775 37.2188C64.7215 37.2779 64.8769 37.3043 65.0324 37.2963C65.3609 37.2989 65.6783 37.1768 65.9204 36.9546C66.1906 36.7078 66.3628 36.3717 66.4053 36.0081L67.1909 36.3498C67.1555 36.6079 67.0694 36.8564 66.9376 37.0811C66.8057 37.3057 66.6306 37.5019 66.4224 37.6584C66.0004 37.9874 65.4786 38.1622 64.9436 38.1539C64.5753 38.1595 64.2119 38.0701 63.8883 37.8942Z" fill="#3A3A39"/>
<path d="M67.9868 30.063C67.9212 29.9947 67.8701 29.9137 67.8366 29.825C67.8032 29.7363 67.788 29.6418 67.7922 29.5471C67.7889 29.4545 67.8045 29.3623 67.838 29.2759C67.8714 29.1896 67.9221 29.111 67.9868 29.0448C68.0554 28.9794 68.1364 28.9285 68.2249 28.8951C68.3135 28.8616 68.4079 28.8463 68.5026 28.85C68.5982 28.8465 68.6936 28.8619 68.7832 28.8953C68.8729 28.9288 68.9551 28.9796 69.0251 29.0448C69.0911 29.1104 69.143 29.1888 69.1777 29.2751C69.2123 29.3615 69.229 29.454 69.2266 29.5471C69.2309 29.6424 69.2151 29.7375 69.1804 29.8264C69.1457 29.9152 69.0928 29.9958 69.0251 30.063C68.884 30.1957 68.6961 30.267 68.5026 30.2612C68.4077 30.2645 68.3132 30.2486 68.2245 30.2146C68.1359 30.1805 68.0551 30.129 67.9868 30.063ZM68.0073 31.4673H68.9739V37.8943H67.9868L68.0073 31.4673Z" fill="#3A3A39"/>
<path d="M72.1568 37.8942C71.8564 37.7302 71.6079 37.4851 71.4396 37.1869C71.2662 36.8735 71.1779 36.5201 71.1835 36.1619V32.2701H69.7729V31.4672H71.1835V29.5606L72.15 29.3317V31.4672H75.0257V32.2701H72.15V36.0594C72.1371 36.3869 72.2494 36.707 72.4642 36.9546C72.5686 37.0694 72.6973 37.1596 72.8408 37.2187C72.9843 37.2778 73.1391 37.3043 73.2941 37.2963C73.6238 37.2998 73.9426 37.1776 74.1855 36.9546C74.456 36.7084 74.6273 36.3718 74.6671 36.0081L75.456 36.3498C75.3832 36.8706 75.1068 37.3413 74.6876 37.6584C74.2644 37.9879 73.7414 38.1628 73.2053 38.1539C72.8393 38.1587 72.4783 38.0693 72.1568 37.8942Z" fill="#3A3A39"/>
<path d="M77.4268 37.7816C77.0262 37.543 76.7026 37.1943 76.4945 36.777C76.2627 36.3224 76.1455 35.818 76.1529 35.3078V31.4673H77.1194V35.3078C77.1103 35.6623 77.1865 36.0139 77.3414 36.3328C77.4838 36.6143 77.7013 36.8508 77.9699 37.0162C78.2565 37.1908 78.5872 37.2797 78.9227 37.2724C79.2823 37.2728 79.6357 37.1786 79.9473 36.9991C80.2622 36.819 80.5247 36.5599 80.7089 36.2474C80.902 35.922 81.0013 35.5495 80.9958 35.1711V31.4673H81.9897V37.8943H81.1119L81.0095 36.9513C80.7952 37.3284 80.4744 37.6339 80.0873 37.8294C79.6987 38.0378 79.2646 38.1469 78.8237 38.1472C78.3332 38.157 77.8497 38.0304 77.4268 37.7816Z" fill="#3A3A39"/>
<path d="M85.1314 37.8942C84.831 37.7302 84.5825 37.4851 84.4142 37.1869C84.242 36.8732 84.1548 36.5198 84.1615 36.1619V32.2701H82.7476V31.4672H84.1615V29.5606L85.128 29.3317V31.4672H88.0003V32.2701H85.128V36.0594C85.1142 36.3864 85.2253 36.7065 85.4388 36.9546C85.5432 37.0694 85.6719 37.1596 85.8154 37.2187C85.9589 37.2778 86.1137 37.3043 86.2687 37.2963C86.5985 37.2998 86.9172 37.1776 87.1601 36.9546C87.4306 36.7084 87.6019 36.3718 87.6417 36.0081L88.4306 36.3498C88.3578 36.8706 88.0815 37.3413 87.6622 37.6584C87.2391 37.9879 86.716 38.1628 86.1799 38.1539C85.814 38.1587 85.4529 38.0693 85.1314 37.8942Z" fill="#3A3A39"/>
<path d="M93.8611 31.645C94.3354 31.9382 94.7168 32.36 94.9609 32.8614C95.2308 33.4085 95.37 34.0109 95.3673 34.6211V34.8193C95.3706 34.8853 95.3706 34.9514 95.3673 35.0174H89.954C89.9881 35.4373 90.128 35.8416 90.3605 36.1928C90.586 36.5345 90.8968 36.8112 91.2621 36.9958C91.6668 37.1939 92.1131 37.292 92.5636 37.2819C93.014 37.2718 93.4555 37.1537 93.8509 36.9377C94.2216 36.7375 94.5246 36.4319 94.7218 36.0596L95.5585 36.4012C95.3206 36.9387 94.9126 37.3829 94.3973 37.6655C93.8278 37.9796 93.1893 38.1475 92.539 38.154C91.8887 38.1606 91.247 38.0056 90.6713 37.703C90.1389 37.4098 89.7007 36.9714 89.4076 36.4388C89.1143 35.8927 88.9573 35.2837 88.9502 34.6637C88.9431 34.0438 89.0859 33.4313 89.3666 32.8785C89.6359 32.3716 90.0417 31.9502 90.5381 31.6621C91.0571 31.3641 91.6474 31.2129 92.2457 31.2248C92.8126 31.2131 93.3717 31.3586 93.8611 31.645ZM91.1289 32.3592C90.8089 32.5274 90.5391 32.7773 90.3468 33.0835C90.1392 33.4073 90.0041 33.7721 89.9506 34.153H94.3256C94.2871 33.7745 94.1708 33.4081 93.9841 33.0767C93.8056 32.7767 93.5512 32.5292 93.2464 32.3592C92.9326 32.187 92.5797 32.0987 92.2218 32.1029C91.8462 32.096 91.475 32.1842 91.1426 32.3592H91.1289Z" fill="#3A3A39"/>
<path d="M96.7368 38.0276C96.593 37.9482 96.4746 37.8297 96.3953 37.6859C96.3151 37.5406 96.2739 37.3769 96.2757 37.211C96.2734 37.0456 96.3159 36.8826 96.3987 36.7394C96.4771 36.5949 96.5958 36.4762 96.7402 36.3978C96.8846 36.3149 97.0485 36.2725 97.2149 36.2747C97.3798 36.2728 97.5422 36.3141 97.6862 36.3943C97.83 36.4737 97.9484 36.5922 98.0278 36.736C98.1061 36.8821 98.1471 37.0452 98.1471 37.211C98.1471 37.3767 98.1061 37.5398 98.0278 37.6859C97.9498 37.8308 97.8311 37.9496 97.6862 38.0276C97.5402 38.1036 97.3779 38.1433 97.2132 38.1433C97.0486 38.1433 96.8863 38.1036 96.7402 38.0276H96.7368ZM97.635 37.9456C97.7601 37.878 97.8632 37.776 97.9321 37.6517C98.0041 37.5223 98.0407 37.3761 98.038 37.228C98.0408 37.0788 98.0043 36.9316 97.9321 36.8009C97.8634 36.6747 97.7604 36.5704 97.635 36.5003C97.5072 36.427 97.3622 36.3893 97.2149 36.3909C97.0644 36.3889 96.916 36.4266 96.7846 36.5003C96.6601 36.5701 96.5573 36.673 96.4875 36.7975C96.4146 36.9292 96.377 37.0775 96.3782 37.228C96.3766 37.3764 96.4143 37.5226 96.4875 37.6517C96.5565 37.776 96.6596 37.878 96.7846 37.9456C96.916 38.0192 97.0644 38.0569 97.2149 38.0549C97.3622 38.0566 97.5072 38.0188 97.635 37.9456Z" fill="#3A3A39"/>
<path d="M97.6788 37.8088L97.3919 37.3066C97.4245 37.3009 97.4557 37.2894 97.4841 37.2724C97.542 37.2477 97.5901 37.2044 97.6207 37.1494C97.655 37.0966 97.6728 37.0347 97.6719 36.9717C97.6724 36.9114 97.6558 36.8522 97.6241 36.8009C97.593 36.7505 97.5479 36.7101 97.4943 36.6847C97.4355 36.6537 97.3696 36.6384 97.3031 36.6403H96.8147V37.8157H96.9889V37.3237H97.2075L97.4841 37.8191L97.6788 37.8088ZM96.9957 37.1699V36.7804H97.2484C97.3145 36.776 97.3799 36.7953 97.4329 36.8351C97.4556 36.8505 97.4741 36.8715 97.4866 36.8959C97.4992 36.9204 97.5053 36.9477 97.5046 36.9751C97.5057 37.0028 97.5 37.0303 97.4881 37.0553C97.4762 37.0803 97.4584 37.1021 97.4363 37.1187C97.3844 37.1549 97.3219 37.1729 97.2587 37.1699H96.9957Z" fill="#3A3A39"/>
</g>
<defs>
<clipPath id="clip0_5328_2111">
<rect width="125.41" height="37.7114" fill="white" transform="translate(0.0222168 0.432373)"/>
</clipPath>
</defs>
</svg>
