<svg width="132" height="17" viewBox="0 0 132 17" fill="none" xmlns="http://www.w3.org/2000/svg">
<path d="M55.6867 0.526489V11.3703L44.0996 0.526489H55.6867Z" fill="#3A3A39"/>
<path d="M55.8132 16.4073H44.0657V5.48328L55.8132 16.4073Z" fill="#3A3A39"/>
<path d="M17.0755 14.8355C16.6396 15.1702 16.1701 15.4587 15.6746 15.6964C15.1523 15.9388 14.6031 16.1183 14.0384 16.2311C13.386 16.3683 12.7213 16.4382 12.0546 16.4396C10.9821 16.45 9.91906 16.2389 8.93196 15.8194C8.00363 15.4293 7.16209 14.8586 6.45627 14.1404C5.7504 13.4137 5.19284 12.5565 4.81472 11.6166C4.41449 10.6245 4.21284 9.5636 4.2212 8.4939C4.21559 7.4324 4.41344 6.37965 4.80403 5.3926C5.17969 4.44511 5.73738 3.58042 6.44557 2.8474C7.15908 2.11424 8.01162 1.53073 8.95334 1.131C9.96847 0.704451 11.0606 0.491503 12.1616 0.5054C12.8075 0.49976 13.4524 0.558866 14.0865 0.681845C14.6369 0.789555 15.1745 0.954432 15.6906 1.17378C16.1626 1.38067 16.6123 1.63507 17.0327 1.93305C17.4458 2.22912 17.8371 2.55434 18.2038 2.90622L16.4606 4.90602C15.8756 4.35591 15.217 3.88982 14.5036 3.52113C13.7735 3.15713 12.9666 2.97376 12.1509 2.98643C11.4489 2.98089 10.7541 3.12681 10.1137 3.4142C9.50813 3.69456 8.96321 4.09053 8.50953 4.57985C8.04523 5.08136 7.68212 5.66778 7.44012 6.30694C7.18584 6.99106 7.05899 7.71595 7.06583 8.44577C7.06054 9.17545 7.18734 9.90007 7.44012 10.5846C7.68051 11.2309 8.04365 11.8247 8.50953 12.3331C8.95845 12.8305 9.50434 13.2308 10.1137 13.5094C10.753 13.8008 11.4483 13.9486 12.1509 13.9425C12.9899 13.9654 13.8217 13.7818 14.5731 13.4078C15.3009 13.0091 15.9733 12.5165 16.5729 11.9427L18.3107 13.7019C17.9335 14.1158 17.5202 14.4952 17.0755 14.8355Z" fill="#3A3A39"/>
<path d="M37.1859 11.5093C36.8025 12.4575 36.2355 13.3207 35.5176 14.0491C34.7575 14.817 33.8508 15.4242 32.8514 15.8348C31.852 16.2454 30.7803 16.451 29.7 16.4393C28.5828 16.4538 27.4745 16.2391 26.4436 15.8083C25.4942 15.4161 24.6339 14.8359 23.9145 14.1026C23.2029 13.3763 22.6414 12.5169 22.2622 11.5735C21.4709 9.59643 21.4709 7.39067 22.2622 5.41365C22.6454 4.46246 23.2144 3.5972 23.9359 2.86844C24.6955 2.10476 25.6011 1.50191 26.5988 1.09586C27.5965 0.689809 28.6657 0.488884 29.7428 0.505054C30.8594 0.490324 31.9674 0.703176 32.9991 1.13065C33.9454 1.51996 34.8034 2.09613 35.5219 2.8247C36.2403 3.55326 36.8045 4.41925 37.1805 5.37086C37.9719 7.34788 37.9719 9.55366 37.1805 11.5307L37.1859 11.5093ZM34.5605 6.34938C34.3168 5.70466 33.954 5.11151 33.491 4.60089C33.0227 4.09551 32.457 3.68995 31.8281 3.4085C31.1641 3.11138 30.4435 2.96179 29.716 2.97004C29.0147 2.96149 28.3194 3.0998 27.6748 3.37606C27.0302 3.65233 26.4505 4.06044 25.9731 4.57416C25.5084 5.08147 25.1454 5.67322 24.9037 6.3173C24.3906 7.68599 24.3906 9.19418 24.9037 10.5629C25.1451 11.2087 25.5082 11.8022 25.9731 12.3113C26.4432 12.8134 27.0085 13.2169 27.636 13.4984C28.3008 13.7875 29.0179 13.9366 29.7428 13.9366C30.4676 13.9366 31.1848 13.7875 31.8495 13.4984C32.4714 13.2276 33.0304 12.8307 33.491 12.3327C33.9536 11.8258 34.3164 11.2363 34.5605 10.5949C35.0735 9.22626 35.0735 7.71807 34.5605 6.34938Z" fill="#3A3A39"/>
<path d="M74.733 0.499756H77.6632L71.0328 16.4019H68.6587L62.0979 0.499756H65.0923L69.9046 12.7231L74.733 0.499756Z" fill="#3A3A39"/>
<path d="M93.1267 2.94872H84.411V7.15152H92.1375V9.59512H84.411V13.969H93.239V16.4394H81.7268V0.505127H93.1267V2.94872Z" fill="#3A3A39"/>
<path d="M108.302 16.4073L104.195 10.5256H100.816V16.4073H98.1423V0.505181H104.987C105.796 0.493646 106.603 0.60911 107.377 0.847384C108.035 1.04836 108.647 1.37724 109.179 1.8152C109.672 2.23272 110.06 2.76019 110.312 3.35515C110.585 3.99922 110.719 4.69315 110.708 5.39238C110.717 5.9795 110.625 6.56383 110.435 7.11949C110.09 8.09671 109.412 8.92173 108.521 9.4508C108.058 9.72998 107.558 9.94071 107.034 10.0764L111.51 16.4073H108.302ZM107.12 3.60647C106.426 3.13287 105.595 2.90338 104.757 2.95413H100.816V8.14611H104.789C105.621 8.19103 106.443 7.94113 107.109 7.44031C107.39 7.21212 107.614 6.92191 107.763 6.59252C107.913 6.26313 107.983 5.90354 107.97 5.5421C107.994 5.17493 107.929 4.80739 107.781 4.4705C107.633 4.13361 107.407 3.83727 107.12 3.60647Z" fill="#3A3A39"/>
<path d="M122.129 16.4073H119.402V3.0129H114.515V0.505127H127.017V3.0129H122.129V16.4073Z" fill="#3A3A39"/>
</svg>
