<svg width="125" height="34" viewBox="0 0 125 34" fill="none" xmlns="http://www.w3.org/2000/svg">
<g clip-path="url(#clip0_5328_2095)">
<path d="M11.3629 3.71243C12.6598 3.48535 13.9739 3.37097 15.2905 3.37058C16.719 3.34993 18.1468 3.44528 19.5599 3.6557C19.9903 3.71568 20.4112 3.83057 20.8124 3.99756C20.9258 4.05428 21.096 4.16774 21.096 4.33792V6.21737C24.3981 5.25003 27.7569 4.33792 31.0575 3.37058C30.7172 6.55922 30.3753 9.68965 30.0902 12.8768C30.659 13.2187 31.0008 13.8441 31.2292 14.4144C31.5128 15.2116 31.5711 16.0654 31.5711 16.8626V17.203C32.0831 19.1436 32.1398 21.1888 31.5711 23.0667C31.1725 24.4894 30.3768 25.8553 29.1826 26.7092C28.4255 27.2367 27.541 27.5517 26.6209 27.6213C25.9111 27.6578 25.2 27.5807 24.5145 27.3929C24.1658 29.4909 23.6128 31.5498 22.8635 33.5403C22.5231 34.3375 22.3515 35.1913 22.1813 36.0452C21.8851 37.6073 21.6758 39.1847 21.5543 40.77C21.4788 41.374 21.4598 41.9837 21.4976 42.5912C21.4976 43.0465 21.7827 43.4451 22.0096 43.8437C22.6579 44.8658 23.3585 45.8539 24.1085 46.8039C24.7355 47.6578 25.4177 48.5117 26.1014 49.3656C26.2716 49.594 26.3865 49.9344 26.2716 50.2195C26.1566 50.5046 25.9312 50.6673 25.7028 50.9032C24.5638 51.984 23.4263 53.008 22.2305 54.0381C22.0604 54.2083 21.832 54.265 21.6036 54.3799C21.3159 54.4629 21.0133 54.4804 20.7181 54.431C20.4228 54.3817 20.1423 54.2668 19.8973 54.0948C19.7256 53.9246 19.5554 53.6962 19.6122 53.4693C19.6673 53.1445 19.8241 52.8455 20.06 52.6154C20.7422 51.869 21.4259 51.1346 22.1096 50.3374C21.4259 49.4268 20.8004 48.4594 20.1167 47.5488C19.417 46.5978 18.7692 45.6096 18.1761 44.5886C17.9858 44.3136 17.8505 44.0044 17.7775 43.678C17.7208 43.2244 17.7208 42.7656 17.7775 42.3121C17.8909 39.8071 18.1178 37.3589 18.2895 34.848C18.2895 34.7913 18.2895 34.6211 18.1761 34.6778C18.0976 34.6863 18.0217 34.7108 17.9532 34.7498C17.8846 34.7888 17.8248 34.8416 17.7775 34.9047C17.3336 35.2543 16.915 35.6349 16.525 36.0437C15.1591 37.5231 13.735 38.8905 12.4258 40.4266C12.0272 40.8819 11.5719 41.394 11.2882 41.9075C11.1733 42.0777 11.2882 42.2479 11.345 42.4195C11.5834 43.0107 11.869 43.5818 12.1989 44.1273C13.1662 45.9485 14.1903 47.7698 15.2725 49.5343C15.3231 49.6194 15.3544 49.7146 15.3642 49.8131C15.374 49.9116 15.362 50.0111 15.3293 50.1045C15.2944 50.1952 15.2409 50.2774 15.1723 50.3461C15.1036 50.4148 15.0213 50.4682 14.9307 50.5031C14.0201 51.0151 13.1095 51.5839 12.1989 52.0959C11.345 52.6095 10.4911 53.1782 9.63719 53.6903C9.35434 53.904 9.02118 54.0413 8.66984 54.0888C8.15631 54.1456 7.64428 53.8604 7.30243 53.5201C7.21077 53.4208 7.14274 53.3021 7.10344 53.1729C7.06415 53.0436 7.0546 52.9071 7.07552 52.7737C7.18334 52.4554 7.40651 52.1891 7.70101 52.0273C8.84002 51.3451 9.97904 50.6046 11.1166 49.9209C10.3194 48.3848 9.52373 46.786 8.72806 45.2529C8.19498 44.2354 7.71951 43.1888 7.30392 42.118C7.17552 41.8261 7.08038 41.5206 7.02029 41.2074C7.03505 40.9641 7.11328 40.7289 7.24719 40.5252C7.61277 39.9013 8.03183 39.3105 8.49966 38.7592C9.24607 37.8486 10.0373 36.9947 10.7762 36.1408C11.0736 35.8253 11.3405 35.4824 11.5734 35.1167C12.0002 34.3314 12.2163 33.4488 12.2003 32.555C12.2003 31.3608 11.9152 30.1665 11.5734 29.026C10.8911 28.6275 10.1507 28.2796 9.46701 27.887C8.49967 28.1154 7.4756 28.2289 6.50825 27.9437C5.74632 27.7581 5.04218 27.3868 4.45862 26.863C3.76565 26.2305 3.2212 25.4526 2.8643 24.5849C2.46907 23.5803 2.21778 22.5249 2.11789 21.45C2.05185 20.3822 2.12866 19.3103 2.34629 18.2629C2.38401 18.0906 2.36408 17.9107 2.28957 17.7508C2.11789 16.5566 2.17611 15.3026 2.63142 14.1681C2.91506 13.5426 3.31364 12.9738 3.94062 12.6887C3.59876 9.5538 3.31364 6.4189 2.97178 3.35266C5.30654 4.32 7.69653 5.29332 10.0313 6.31291V4.33792C10.0313 4.16774 10.1447 4.11101 10.2582 4.05428C10.6 3.88261 11.0046 3.82588 11.3405 3.71243M14.5545 9.11939C14.668 15.8938 14.7829 22.7249 14.8396 29.4993L27.9883 25.2298C28.1033 24.0356 28.2167 22.8413 28.3869 21.6471C27.3061 21.5321 26.2238 21.4187 25.1997 21.3619C24.9317 21.3241 24.6789 21.2142 24.4686 21.0438C24.2582 20.8734 24.0981 20.649 24.0055 20.3946C23.8353 19.996 23.9488 19.484 24.1772 19.0854C23.9955 18.9745 23.8401 18.8253 23.722 18.6481C23.6039 18.471 23.5259 18.2702 23.4935 18.0598C23.4655 17.8698 23.4763 17.676 23.5253 17.4902C23.5743 17.3045 23.6605 17.1306 23.7786 16.979C23.5301 16.8051 23.3418 16.5582 23.2397 16.2727C23.1375 15.9871 23.1266 15.6768 23.2083 15.3847C23.2763 15.1306 23.4134 14.9003 23.6045 14.7195C23.7956 14.5387 24.0331 14.4145 24.2906 14.3607C24.177 14.0477 24.177 13.7048 24.2906 13.3918C24.3854 13.0832 24.5853 12.8175 24.8555 12.6408C25.1257 12.4641 25.4493 12.3876 25.77 12.4245C26.9642 12.5379 28.1585 12.6529 29.4139 12.7663C29.6976 10.0912 29.9827 7.35787 30.2678 4.68276C24.9161 6.16363 19.7361 7.643 14.556 9.12238M3.96898 4.85443C4.25261 7.47282 4.53774 10.0912 4.76614 12.7096C5.90366 12.5961 7.04268 12.5379 8.12348 12.4245C8.46326 12.3837 8.8065 12.4647 9.09231 12.6529C9.3643 12.8331 9.5681 13.0991 9.67118 13.4087C9.77427 13.7182 9.77071 14.0534 9.66107 14.3607C9.95122 14.4269 10.2126 14.5842 10.407 14.8095C10.6015 15.0348 10.7188 15.3164 10.7419 15.6131C10.7729 15.8763 10.7309 16.1429 10.6206 16.3838C10.5103 16.6247 10.3358 16.8306 10.1164 16.979C10.2361 17.1509 10.3183 17.3461 10.3577 17.5519C10.397 17.7576 10.3926 17.9693 10.3448 18.1733C10.2378 18.5512 9.99408 18.8757 9.66107 19.0839C9.84937 19.3902 9.92977 19.7507 9.88947 20.108C9.83666 20.4152 9.68634 20.6972 9.46076 20.9123C9.23519 21.1273 8.94634 21.2641 8.637 21.3022C7.66817 21.359 6.69635 21.4724 5.73348 21.5291C5.84694 22.7234 5.96039 23.9773 6.13206 25.1731C8.92063 26.6525 11.6555 28.1333 14.4425 29.556C14.3291 22.7249 14.2156 15.837 14.1574 9.00594C10.7434 7.64002 7.32781 6.21737 3.96898 4.85144M7.78312 13.3321C6.6441 13.4471 5.50508 13.5038 4.31084 13.6172C4.24538 13.6213 4.1814 13.6385 4.12269 13.6677C4.06398 13.697 4.01171 13.7377 3.96898 13.7874C3.74774 14.0294 3.55629 14.297 3.39873 14.5846C3.00164 15.4952 3.00164 16.5252 3.05836 17.5448C3.17182 18.4554 3.39873 19.4228 3.96898 20.1632C4.19589 20.3916 4.42429 20.6752 4.70792 20.732C5.90217 20.6185 7.15614 20.5618 8.35188 20.4483C8.4551 20.4545 8.55711 20.4234 8.63931 20.3606C8.7215 20.2979 8.77843 20.2077 8.79972 20.1065C8.91317 19.8781 8.79972 19.5377 8.57281 19.3601C8.40114 19.2466 8.23096 19.3034 8.05928 19.3034C7.20539 19.3601 6.35151 19.4168 5.49762 19.5318C5.32744 19.5318 5.09904 19.475 5.04977 19.3034C4.93632 19.0197 5.1065 18.6779 5.39163 18.6779C6.53064 18.5629 7.66817 18.5062 8.80718 18.3927C8.88334 18.3892 8.95791 18.3697 9.02604 18.3355C9.09417 18.3013 9.15433 18.2531 9.20263 18.1941C9.25092 18.1351 9.28626 18.0666 9.30635 17.9931C9.32643 17.9195 9.33082 17.8426 9.31922 17.7672C9.30374 17.6165 9.22933 17.4779 9.11218 17.3817C8.99503 17.2856 8.84463 17.2395 8.69373 17.2537C7.55471 17.3687 6.4157 17.4254 5.3349 17.5388C5.22203 17.5581 5.10606 17.5334 5.01083 17.4699C4.91559 17.4063 4.84833 17.3086 4.82287 17.197C4.81387 17.137 4.81717 17.0758 4.83255 17.0171C4.84794 16.9584 4.87509 16.9034 4.91237 16.8555C4.94965 16.8076 4.99626 16.7678 5.0494 16.7385C5.10253 16.7092 5.16106 16.691 5.22145 16.685C6.53065 16.5715 7.83984 16.4581 9.20577 16.3431C9.34736 16.331 9.47906 16.2655 9.57415 16.1599C9.66923 16.0543 9.72059 15.9164 9.7178 15.7743C9.7178 15.4892 9.43267 15.2056 9.14904 15.2623L5.22145 15.6042C5.10835 15.6239 4.992 15.5994 4.89644 15.5358C4.80087 15.4721 4.73339 15.3743 4.70792 15.2623C4.68694 15.1341 4.71686 15.0027 4.79131 14.8962C4.86576 14.7897 4.97885 14.7164 5.1065 14.6921C6.13206 14.5786 7.15613 14.5219 8.18169 14.4652C8.25626 14.4672 8.33039 14.4531 8.39895 14.4237C8.46751 14.3943 8.52887 14.3504 8.57878 14.295C8.62943 14.2399 8.66829 14.175 8.69298 14.1044C8.71767 14.0337 8.72766 13.9588 8.72235 13.8842C8.71704 13.8095 8.69654 13.7367 8.66209 13.6703C8.62765 13.6039 8.57999 13.5452 8.52206 13.4978C8.4086 13.2127 8.06675 13.3261 7.78312 13.3261M25.4296 13.3261C25.3092 13.3632 25.2045 13.4394 25.1323 13.5428C25.0601 13.6461 25.0245 13.7705 25.0311 13.8964C25.0309 13.9637 25.044 14.0304 25.0696 14.0926C25.0953 14.1548 25.133 14.2113 25.1806 14.2589C25.2282 14.3065 25.2847 14.3442 25.3469 14.3698C25.4091 14.3955 25.4758 14.4086 25.5431 14.4084C26.5672 14.5219 27.6494 14.6353 28.678 14.6921C28.9631 14.6921 29.1333 15.0339 29.0766 15.2623C29.0198 15.4325 28.7914 15.6042 28.6213 15.5459C27.3121 15.4325 26.0029 15.319 24.6937 15.1474C24.5425 15.1328 24.3917 15.1786 24.2743 15.2748C24.1568 15.371 24.0822 15.5098 24.0667 15.6609C24.01 15.9445 24.2951 16.2297 24.5802 16.2297C25.8894 16.3431 27.1986 16.4581 28.5078 16.6282C28.5695 16.6308 28.6299 16.6468 28.6848 16.6751C28.7397 16.7034 28.7877 16.7433 28.8257 16.792C28.8636 16.8407 28.8904 16.8971 28.9044 16.9572C28.9183 17.0174 28.919 17.0798 28.9064 17.1403C28.9004 17.2008 28.8821 17.2595 28.8527 17.3127C28.8233 17.366 28.7834 17.4127 28.7353 17.45C28.6873 17.4873 28.6321 17.5144 28.5732 17.5297C28.5144 17.5449 28.453 17.5481 28.3929 17.5388C27.2553 17.4254 26.1163 17.3104 25.0355 17.197C24.8938 17.1786 24.7503 17.2146 24.634 17.2977C24.5177 17.3808 24.4372 17.5048 24.4086 17.6448C24.396 17.7204 24.3997 17.7978 24.4194 17.8718C24.4391 17.9458 24.4743 18.0148 24.5228 18.0741C24.5712 18.1335 24.6318 18.1818 24.7004 18.2159C24.769 18.25 24.844 18.269 24.9206 18.2718L28.3361 18.6137C28.3965 18.6197 28.4551 18.6379 28.5082 18.6672C28.5613 18.6965 28.6079 18.7363 28.6452 18.7842C28.6825 18.8321 28.7097 18.8871 28.725 18.9458C28.7404 19.0045 28.7437 19.0657 28.7347 19.1257C28.7347 19.3526 28.4511 19.5243 28.2227 19.5243C27.3121 19.4093 26.4015 19.3526 25.4341 19.2392C25.2419 19.2546 25.0608 19.3352 24.9206 19.4676C24.859 19.5734 24.8313 19.6956 24.8415 19.8176C24.8516 19.9396 24.8991 20.0556 24.9773 20.1498C25.1016 20.2639 25.2654 20.3255 25.4341 20.3214C26.6284 20.4349 27.7674 20.5484 28.9631 20.6618C29.19 20.6618 29.3617 20.4916 29.5319 20.3782C30.1006 19.8647 30.3858 19.1257 30.6142 18.3853C30.8235 17.5531 30.8951 16.6923 30.8262 15.837C30.7694 15.1533 30.541 14.4144 30.1424 13.8964C30.019 13.7521 29.8664 13.6356 29.6946 13.5545C28.4436 13.4411 27.1912 13.3261 25.9954 13.2127C25.6536 13.2694 25.5401 13.2694 25.4267 13.3261H25.4296Z" fill="#3A3A39"/>
<path d="M16.1448 11.6244C17.339 11.3974 18.5333 11.169 19.6738 10.9421C20.356 11.3407 20.983 11.796 21.6667 12.1946C21.4383 12.9918 21.1531 13.7307 20.8695 14.5279C20.1858 14.9265 19.5603 15.325 18.8766 15.7221C18.1929 15.437 17.454 15.2101 16.7135 14.925C16.3717 14.4697 16.0298 14.0143 15.6895 13.5023C15.8712 12.884 16.0207 12.2567 16.1373 11.6229M17.2181 12.6484C17.052 12.9393 16.9897 13.278 17.0415 13.609C17.0933 13.94 17.2561 14.2435 17.5032 14.4697C17.7236 14.672 18.0007 14.802 18.2971 14.8423C18.5936 14.8826 18.8953 14.8312 19.1617 14.6951C19.482 14.5638 19.7443 14.3216 19.9007 14.0129C19.7952 14.0346 19.6863 14.0336 19.5813 14.0101C19.4762 13.9865 19.3774 13.9409 19.2913 13.8762C19.2052 13.8116 19.1338 13.7294 19.0818 13.6351C19.0299 13.5408 18.9986 13.4365 18.9901 13.3291C18.9333 12.8738 19.3886 12.532 19.7872 12.532C19.5589 12.2309 19.2395 12.0116 18.8766 11.9065C18.5575 11.8193 18.2181 11.8462 17.9167 11.9825C17.6153 12.1187 17.3709 12.3558 17.2256 12.6529L17.2181 12.6484Z" fill="#3A3A39"/>
</g>
<g clip-path="url(#clip1_5328_2095)">
<path d="M105.609 3.37411V6.54754H97.5806V3.37411H105.609ZM99.1352 0.454102H103.515V11.6401C103.51 11.7874 103.541 11.9336 103.603 12.0672C103.662 12.1798 103.756 12.2695 103.872 12.3221C104.021 12.3795 104.18 12.4061 104.34 12.4004C104.495 12.3981 104.649 12.3824 104.8 12.3534C105.744 12.2438 106.749 11.5148 107.166 11.0023L108.859 13.4226C107.554 15.0043 105.355 15.4855 104.991 15.5709C104.569 15.663 104.141 15.7187 103.71 15.7375C102.704 15.7907 101.861 15.6872 101.178 15.4272C100.538 15.1989 99.9939 14.7602 99.635 14.1828C99.2914 13.6134 99.1248 12.9048 99.1352 12.0573V0.454102Z" fill="#3A3A39"/>
<path d="M105.94 10.7958H109.448V14.3038" fill="#3A3A39"/>
</g>
<path d="M88.6228 15.5453V3.35996H92.875V5.67644H93.0019C93.224 4.81966 93.5757 4.19294 94.057 3.79628C94.5436 3.39962 95.1121 3.20129 95.7627 3.20129C95.953 3.20129 96.1408 3.21716 96.3259 3.24889C96.5163 3.27534 96.6988 3.315 96.8733 3.36789V7.10441C96.6565 7.03037 96.3894 6.97484 96.072 6.93782C95.7547 6.90079 95.4823 6.88228 95.2549 6.88228C94.8265 6.88228 94.4405 6.98013 94.0967 7.17581C93.7582 7.36621 93.4911 7.63593 93.2954 7.98499C93.0998 8.32876 93.0019 8.73336 93.0019 9.19877V15.5453H88.6228Z" fill="#3A3A39"/>
<path d="M81.317 15.7674C80.016 15.7674 78.8947 15.5189 77.9533 15.0217C77.0172 14.5193 76.2953 13.8 75.7876 12.8639C75.2852 11.9225 75.0339 10.796 75.0339 9.48436C75.0339 8.22563 75.2878 7.12557 75.7955 6.18417C76.3032 5.24276 77.0199 4.51027 77.9454 3.98668C78.8709 3.46309 79.9631 3.20129 81.2218 3.20129C82.1421 3.20129 82.975 3.34409 83.7208 3.62968C84.4665 3.91528 85.1038 4.33045 85.6326 4.87519C86.1615 5.41465 86.5688 6.07046 86.8544 6.84262C87.14 7.61478 87.2827 8.48478 87.2827 9.45263V10.4681H76.3984V8.05639H83.2527C83.2474 7.70733 83.1575 7.40058 82.983 7.13615C82.8137 6.86642 82.5837 6.65751 82.2928 6.50942C82.0072 6.35605 81.6819 6.27936 81.317 6.27936C80.9627 6.27936 80.6374 6.35605 80.3412 6.50942C80.0451 6.65751 79.8071 6.86377 79.6272 7.12821C79.4527 7.39265 79.3602 7.70204 79.3496 8.05639V10.6585C79.3496 11.0498 79.4316 11.3989 79.5955 11.7057C79.7595 12.0124 79.9948 12.253 80.3016 12.4276C80.6083 12.6021 80.9785 12.6894 81.4122 12.6894C81.7137 12.6894 81.9887 12.6471 82.2373 12.5624C82.4911 12.4778 82.708 12.3562 82.8878 12.1975C83.0676 12.0336 83.1998 11.8379 83.2844 11.6105H87.2827C87.1452 12.4567 86.82 13.1918 86.307 13.8159C85.794 14.4347 85.1144 14.9159 84.2681 15.2597C83.4272 15.5982 82.4435 15.7674 81.317 15.7674Z" fill="#3A3A39"/>
<path d="M75.0506 3.35986L70.9571 15.5452H65.8799L61.7864 3.35986H66.3876L68.355 11.42H68.482L70.4494 3.35986H75.0506Z" fill="#3A3A39"/>
<path d="M55.496 15.7674C54.1738 15.7674 53.042 15.5056 52.1006 14.982C51.1592 14.4532 50.4372 13.718 49.9348 12.7766C49.4324 11.8299 49.1812 10.7325 49.1812 9.48436C49.1812 8.23621 49.4324 7.14143 49.9348 6.20003C50.4372 5.25334 51.1592 4.5182 52.1006 3.99461C53.042 3.46573 54.1738 3.20129 55.496 3.20129C56.8181 3.20129 57.9499 3.46573 58.8914 3.99461C59.8328 4.5182 60.5547 5.25334 61.0571 6.20003C61.5595 7.14143 61.8108 8.23621 61.8108 9.48436C61.8108 10.7325 61.5595 11.8299 61.0571 12.7766C60.5547 13.718 59.8328 14.4532 58.8914 14.982C57.9499 15.5056 56.8181 15.7674 55.496 15.7674ZM55.5277 12.5307C55.8979 12.5307 56.2179 12.4064 56.4876 12.1578C56.7573 11.9093 56.9662 11.5549 57.1143 11.0948C57.2624 10.6347 57.3364 10.0873 57.3364 9.45263C57.3364 8.81269 57.2624 8.2653 57.1143 7.81046C56.9662 7.35034 56.7573 6.99599 56.4876 6.74742C56.2179 6.49885 55.8979 6.37456 55.5277 6.37456C55.1363 6.37456 54.8005 6.49885 54.5202 6.74742C54.2399 6.99599 54.0257 7.35034 53.8776 7.81046C53.7295 8.2653 53.6555 8.81269 53.6555 9.45263C53.6555 10.0873 53.7295 10.6347 53.8776 11.0948C54.0257 11.5549 54.2399 11.9093 54.5202 12.1578C54.8005 12.4064 55.1363 12.5307 55.5277 12.5307Z" fill="#3A3A39"/>
<path d="M42.3946 15.7674C41.0724 15.7674 39.9406 15.5056 38.9992 14.982C38.0578 14.4532 37.3359 13.718 36.8335 12.7766C36.3311 11.8299 36.0798 10.7325 36.0798 9.48436C36.0798 8.23621 36.3311 7.14143 36.8335 6.20003C37.3359 5.25334 38.0578 4.5182 38.9992 3.99461C39.9406 3.46573 41.0724 3.20129 42.3946 3.20129C43.5899 3.20129 44.6239 3.41813 45.4965 3.85181C46.3744 4.2802 47.0541 4.88841 47.5353 5.67644C48.0166 6.45918 48.2599 7.37943 48.2652 8.43719H44.2034C44.1452 7.79724 43.9601 7.31067 43.6481 6.97748C43.3413 6.639 42.9447 6.46976 42.4581 6.46976C42.0773 6.46976 41.7441 6.58082 41.4585 6.80295C41.1729 7.01979 40.9508 7.35034 40.7921 7.7946C40.6335 8.23357 40.5541 8.78624 40.5541 9.45263C40.5541 10.119 40.6335 10.6743 40.7921 11.1186C40.9508 11.5576 41.1729 11.8881 41.4585 12.1102C41.7441 12.3271 42.0773 12.4355 42.4581 12.4355C42.7807 12.4355 43.0663 12.3615 43.3149 12.2134C43.5635 12.06 43.7644 11.8379 43.9178 11.547C44.0765 11.2508 44.1717 10.8912 44.2034 10.4681H48.2652C48.2493 11.5417 48.0034 12.4778 47.5274 13.2764C47.0514 14.0697 46.3771 14.6832 45.5044 15.1169C44.6371 15.5506 43.6005 15.7674 42.3946 15.7674Z" fill="#3A3A39"/>
<path d="M36.524 32.5453V20.3599H40.7762V22.6764H40.9031C41.1252 21.8196 41.4769 21.1929 41.9582 20.7963C42.4448 20.3996 43.0133 20.2013 43.6638 20.2013C43.8542 20.2013 44.042 20.2171 44.2271 20.2489C44.4175 20.2753 44.5999 20.315 44.7745 20.3679V24.1044C44.5576 24.0304 44.2905 23.9748 43.9732 23.9378C43.6559 23.9008 43.3835 23.8823 43.1561 23.8823C42.7277 23.8823 42.3416 23.9801 41.9979 24.1758C41.6594 24.3662 41.3923 24.6359 41.1966 24.985C41.0009 25.3287 40.9031 25.7333 40.9031 26.1988V32.5453H36.524ZM50.9043 32.7674C49.6032 32.7674 48.482 32.5188 47.5406 32.0217C46.6045 31.5193 45.8826 30.8 45.3749 29.8639C44.8724 28.9225 44.6212 27.796 44.6212 26.4843C44.6212 25.2256 44.8751 24.1256 45.3828 23.1841C45.8905 22.2427 46.6071 21.5102 47.5327 20.9867C48.4582 20.4631 49.5503 20.2013 50.8091 20.2013C51.7293 20.2013 52.5623 20.3441 53.308 20.6297C54.0537 20.9153 54.691 21.3304 55.2199 21.8752C55.7488 22.4146 56.156 23.0704 56.4416 23.8426C56.7272 24.6148 56.87 25.4848 56.87 26.4526V27.4681H45.9857V25.0564H52.84C52.8347 24.7073 52.7448 24.4006 52.5702 24.1361C52.401 23.8664 52.1709 23.6575 51.88 23.5094C51.5945 23.356 51.2692 23.2793 50.9043 23.2793C50.5499 23.2793 50.2247 23.356 49.9285 23.5094C49.6323 23.6575 49.3943 23.8638 49.2145 24.1282C49.04 24.3926 48.9474 24.702 48.9368 25.0564V27.6585C48.9368 28.0498 49.0188 28.3989 49.1828 28.7056C49.3467 29.0124 49.5821 29.253 49.8888 29.4276C50.1956 29.6021 50.5658 29.6893 50.9995 29.6893C51.3009 29.6893 51.5759 29.647 51.8245 29.5624C52.0784 29.4778 52.2952 29.3562 52.475 29.1975C52.6549 29.0335 52.7871 28.8379 52.8717 28.6104H56.87C56.7325 29.4566 56.4072 30.1918 55.8942 30.8159C55.3812 31.4346 54.7016 31.9159 53.8554 32.2597C53.0145 32.5982 52.0308 32.7674 50.9043 32.7674ZM70.1853 20.3599L66.0918 32.5453H61.0145L56.921 20.3599H61.5223L63.4897 28.42H63.6166L65.584 20.3599H70.1853ZM76.4519 32.7674C75.1509 32.7674 74.0297 32.5188 73.0883 32.0217C72.1522 31.5193 71.4302 30.8 70.9225 29.8639C70.4201 28.9225 70.1689 27.796 70.1689 26.4843C70.1689 25.2256 70.4227 24.1256 70.9304 23.1841C71.4382 22.2427 72.1548 21.5102 73.0803 20.9867C74.0059 20.4631 75.098 20.2013 76.3567 20.2013C77.277 20.2013 78.11 20.3441 78.8557 20.6297C79.6014 20.9153 80.2387 21.3304 80.7676 21.8752C81.2965 22.4146 81.7037 23.0704 81.9893 23.8426C82.2749 24.6148 82.4177 25.4848 82.4177 26.4526V27.4681H71.5334V25.0564H78.3876C78.3823 24.7073 78.2924 24.4006 78.1179 24.1361C77.9487 23.8664 77.7186 23.6575 77.4277 23.5094C77.1421 23.356 76.8169 23.2793 76.4519 23.2793C76.0976 23.2793 75.7723 23.356 75.4762 23.5094C75.18 23.6575 74.942 23.8638 74.7622 24.1282C74.5876 24.3926 74.4951 24.702 74.4845 25.0564V27.6585C74.4845 28.0498 74.5665 28.3989 74.7304 28.7056C74.8944 29.0124 75.1297 29.253 75.4365 29.4276C75.7432 29.6021 76.1134 29.6893 76.5471 29.6893C76.8486 29.6893 77.1236 29.647 77.3722 29.5624C77.626 29.4778 77.8429 29.3562 78.0227 29.1975C78.2025 29.0335 78.3347 28.8379 78.4194 28.6104H82.4177C82.2802 29.4566 81.9549 30.1918 81.4419 30.8159C80.9289 31.4346 80.2493 31.9159 79.4031 32.2597C78.5622 32.5982 77.5784 32.7674 76.4519 32.7674ZM88.1369 25.691V32.5453H83.7578V20.3599H87.9148V22.6764H88.0417C88.3062 21.9043 88.7716 21.2987 89.438 20.8597C90.1096 20.4208 90.8924 20.2013 91.7862 20.2013C92.6483 20.2013 93.3966 20.3996 94.0313 20.7963C94.6712 21.1876 95.1657 21.7271 95.5148 22.4146C95.8691 23.1022 96.0437 23.8876 96.0384 24.7708V32.5453H91.6593V25.691C91.6645 25.0881 91.5112 24.6148 91.1991 24.271C90.8924 23.9272 90.464 23.7553 89.914 23.7553C89.5543 23.7553 89.2396 23.8347 88.9699 23.9933C88.7055 24.1467 88.5019 24.3688 88.3591 24.6597C88.2163 24.9453 88.1422 25.2891 88.1369 25.691ZM105.655 27.2142V20.3599H110.034V32.5453H105.877V30.2288H105.75C105.486 31.0063 105.023 31.6145 104.362 32.0534C103.701 32.4871 102.915 32.704 102.006 32.704C101.154 32.704 100.408 32.5083 99.7684 32.1169C99.1337 31.7255 98.6392 31.1861 98.2849 30.4985C97.9358 29.811 97.7586 29.023 97.7534 28.1344V20.3599H102.132V27.2142C102.138 27.8171 102.291 28.2905 102.593 28.6342C102.899 28.978 103.328 29.1499 103.878 29.1499C104.243 29.1499 104.557 29.0732 104.822 28.9198C105.092 28.7612 105.298 28.539 105.441 28.2534C105.589 27.9626 105.66 27.6161 105.655 27.2142ZM117.653 32.7674C116.352 32.7674 115.231 32.5188 114.289 32.0217C113.353 31.5193 112.631 30.8 112.124 29.8639C111.621 28.9225 111.37 27.796 111.37 26.4843C111.37 25.2256 111.624 24.1256 112.132 23.1841C112.639 22.2427 113.356 21.5102 114.282 20.9867C115.207 20.4631 116.299 20.2013 117.558 20.2013C118.478 20.2013 119.311 20.3441 120.057 20.6297C120.803 20.9153 121.44 21.3304 121.969 21.8752C122.498 22.4146 122.905 23.0704 123.191 23.8426C123.476 24.6148 123.619 25.4848 123.619 26.4526V27.4681H112.735V25.0564H119.589C119.584 24.7073 119.494 24.4006 119.319 24.1361C119.15 23.8664 118.92 23.6575 118.629 23.5094C118.343 23.356 118.018 23.2793 117.653 23.2793C117.299 23.2793 116.974 23.356 116.677 23.5094C116.381 23.6575 116.143 23.8638 115.963 24.1282C115.789 24.3926 115.696 24.702 115.686 25.0564V27.6585C115.686 28.0498 115.768 28.3989 115.932 28.7056C116.096 29.0124 116.331 29.253 116.638 29.4276C116.944 29.6021 117.315 29.6893 117.748 29.6893C118.05 29.6893 118.325 29.647 118.573 29.5624C118.827 29.4778 119.044 29.3562 119.224 29.1975C119.404 29.0335 119.536 28.8379 119.621 28.6104H123.619C123.481 29.4566 123.156 30.1918 122.643 30.8159C122.13 31.4346 121.451 31.9159 120.604 32.2597C119.763 32.5982 118.78 32.7674 117.653 32.7674Z" fill="#3A3A39"/>
<defs>
<clipPath id="clip0_5328_2095">
<rect width="32.8419" height="30.7519" fill="white" transform="translate(0.626709 1.87769)"/>
</clipPath>
<clipPath id="clip1_5328_2095">
<rect width="11.868" height="15.2934" fill="white" transform="translate(97.5806 0.454102)"/>
</clipPath>
</defs>
</svg>
