<svg width="136" height="34" viewBox="0 0 136 34" fill="none" xmlns="http://www.w3.org/2000/svg">
<path d="M42.9776 19.0127C42.8502 18.738 42.832 18.7197 42.4315 18.7197H39.0273C38.5904 18.7197 38.5722 18.738 38.4448 19.0127L37.5892 21.3014C37.4436 21.6859 37.3525 22.0338 37.3525 22.2535C37.3525 22.638 37.6074 22.876 38.0989 22.9493L38.5722 23.0042C38.8089 23.0408 38.9181 23.0957 38.9181 23.1873C38.9181 23.2788 38.8817 23.2788 38.5904 23.2788H35.4047C35.2409 23.2788 35.2227 23.2605 35.2227 23.1507C35.2227 23.0896 35.3076 23.0408 35.4775 23.0042L35.7688 22.9493C36.4605 22.7112 36.6608 22.5098 36.9702 21.6676L41.1208 11.2677C41.2118 11.0297 41.3028 10.9381 41.412 10.9381C41.5031 10.9381 41.5759 10.993 41.6487 11.1761L46.1087 21.631C46.582 22.7295 46.6548 22.8211 47.1645 22.9493L47.5286 23.0042C47.8199 23.0408 47.8745 23.0591 47.8745 23.1873C47.8745 23.2788 47.7653 23.3521 47.6378 23.3521H43.1414C43.014 23.3521 42.9048 23.2605 42.9048 23.1507C42.9048 23.0591 42.9776 23.0042 43.105 23.0042H43.5055C44.0334 23.0042 44.4703 22.8028 44.4521 22.5464C44.4521 22.4549 44.3975 22.2718 44.2883 22.0521L42.9776 19.0127ZM38.8089 17.969C38.7542 18.0606 38.736 18.1521 38.736 18.2254C38.736 18.3169 38.7907 18.3902 38.8817 18.3902H42.3951C42.5225 18.3902 42.6317 18.3169 42.6317 18.2437C42.6317 18.207 42.5953 18.0972 42.5407 17.9324L40.8477 13.7212C40.7628 13.5137 40.7142 13.4099 40.7021 13.4099C40.6657 13.4099 40.6111 13.5015 40.5382 13.6662L38.8089 17.969Z" fill="#3A3A39"/>
<path d="M53.8135 11.0663C55.2881 11.0663 56.1983 11.2311 56.8536 11.5973C57.691 12.0733 58.2007 12.9522 58.2007 13.9409C58.2007 14.655 57.9277 15.2958 57.4543 15.7353C56.9264 16.2296 56.4167 16.4676 55.106 16.8521C56.5988 17.2733 57.1631 17.5296 57.7274 18.024C58.3099 18.5366 58.6558 19.3789 58.6558 20.2577C58.6558 21.2465 58.2553 22.0521 57.4726 22.638C56.799 23.1141 55.6886 23.3521 54.0866 23.3704H48.7346C48.5161 23.3704 48.4797 23.3338 48.4797 23.1873C48.4797 23.1263 48.5526 23.0835 48.6982 23.0591L49.1351 23.0042C49.9361 22.9676 50.0999 22.8028 50.1727 21.869V12.055C50.1727 11.6522 50.0271 11.524 49.5356 11.4325L48.8438 11.3775C48.6982 11.3592 48.6254 11.3043 48.6254 11.2128C48.6254 11.1029 48.6982 11.0663 48.8984 11.0663H53.8135ZM52.0477 21.7591C52.0477 22.3206 52.0781 22.6624 52.1388 22.7845C52.248 22.9859 52.5392 23.0957 52.9943 23.0957C54.0138 23.0957 54.833 22.931 55.3973 22.638C56.089 22.2535 56.5441 21.2648 56.5441 20.093C56.5441 18.9211 56.0526 17.8958 55.3063 17.5113C54.7055 17.2183 54.0502 17.0902 53.0672 17.0902H52.521C52.1023 17.0902 52.0659 17.1451 52.0477 17.6211V21.7591ZM52.1023 16.431C52.1023 16.6324 52.1206 16.7057 52.1934 16.724C52.3208 16.7972 52.8123 16.8704 53.14 16.8704C54.032 16.8704 55.0696 16.4859 55.5065 15.9733C55.907 15.4972 56.1072 14.8564 56.1072 14.0508C56.1072 13.1353 55.8524 12.4029 55.3609 12.0001C54.8876 11.5973 54.1958 11.3592 53.5041 11.3592C52.43 11.3592 52.1023 11.5973 52.1023 12.348V16.431Z" fill="#3A3A39"/>
<path d="M61.5069 22.2351C61.5069 22.0886 61.5069 21.8506 61.4887 21.5576L61.4159 20.5506V20.3675L61.3977 20.221V20.1478C61.3977 20.0745 61.4341 20.0379 61.4887 20.0379C61.5797 20.0379 61.689 20.2027 61.8164 20.5323C62.0531 21.1914 62.6174 22.0703 63.1453 22.6196C63.6368 23.1322 64.274 23.352 65.2206 23.352C66.8953 23.352 67.9512 22.3083 67.9512 20.6421C67.9512 19.8731 67.7145 19.2872 67.223 18.8478C66.7861 18.445 66.24 18.1703 64.8929 17.6943C63.4002 17.1633 62.7994 16.852 62.2351 16.3577C61.7072 15.8633 61.3977 15.0943 61.3977 14.2337C61.3977 13.007 61.9074 12.0732 62.8904 11.5056C63.564 11.1394 64.4378 10.8831 65.0931 10.8831C65.53 10.8831 66.2036 10.9929 66.6587 11.1577C67.2412 11.3408 67.6356 11.4324 67.842 11.4324C67.9876 11.4324 68.0786 11.414 68.1696 11.3957C68.3335 11.3408 68.4427 11.3042 68.4791 11.3042C68.6247 11.3042 68.6793 11.4507 68.6793 11.8352L68.734 12.3661L68.7704 13.0802L68.825 13.7211V13.9225C68.8432 13.9774 68.8432 14.0323 68.8432 14.0689C68.8432 14.1422 68.825 14.1788 68.734 14.1788C68.6247 14.1788 68.5701 14.1239 68.4791 13.8309C68.3335 13.4464 67.9148 12.7323 67.6599 12.4211C66.9864 11.6521 66.1126 11.2309 65.1659 11.2309C63.7642 11.2309 62.7448 12.1647 62.7448 13.4647C62.7448 13.9774 62.9451 14.5267 63.2363 14.783C63.4305 14.9417 64.1283 15.2713 65.3298 15.7717C67.3504 16.5957 67.7873 16.8154 68.4609 17.4562C69.098 18.0788 69.4803 19.0126 69.4803 19.983C69.4803 22.2351 67.6963 23.7365 65.0021 23.7365C63.9099 23.7365 62.7448 23.5167 61.8346 23.1322C61.5433 23.0224 61.5069 22.9308 61.5069 22.3083V22.2351Z" fill="#3A3A39"/>
<path d="M78.1387 19.0127C78.0113 18.738 77.9931 18.7197 77.5926 18.7197H74.1884C73.7515 18.7197 73.7333 18.738 73.6059 19.0127L72.7503 21.3014C72.6047 21.6859 72.5137 22.0338 72.5137 22.2535C72.5137 22.638 72.7685 22.876 73.26 22.9493L73.7333 23.0042C73.97 23.0408 74.0792 23.0957 74.0792 23.1873C74.0792 23.2788 74.0428 23.2788 73.7515 23.2788H70.5658C70.402 23.2788 70.3838 23.2605 70.3838 23.1507C70.3838 23.0896 70.4687 23.0408 70.6386 23.0042L70.9299 22.9493C71.6217 22.7112 71.8219 22.5098 72.1314 21.6676L76.2819 11.2677C76.3729 11.0297 76.464 10.9381 76.5732 10.9381C76.6642 10.9381 76.737 10.993 76.8098 11.1761L81.2698 21.631C81.7431 22.7295 81.816 22.8211 82.3257 22.9493L82.6898 23.0042C82.981 23.0408 83.0356 23.0591 83.0356 23.1873C83.0356 23.2788 82.9264 23.3521 82.799 23.3521H78.3026C78.1751 23.3521 78.0659 23.2605 78.0659 23.1507C78.0659 23.0591 78.1387 23.0042 78.2662 23.0042H78.6666C79.1946 23.0042 79.6315 22.8028 79.6133 22.5464C79.6133 22.4549 79.5586 22.2718 79.4494 22.0521L78.1387 19.0127ZM73.97 17.969C73.9154 18.0606 73.8972 18.1521 73.8972 18.2254C73.8972 18.3169 73.9518 18.3902 74.0428 18.3902H77.5562C77.6836 18.3902 77.7929 18.3169 77.7929 18.2437C77.7929 18.207 77.7564 18.0972 77.7018 17.9324L76.0089 13.7212C75.9239 13.5137 75.8754 13.4099 75.8632 13.4099C75.8268 13.4099 75.7722 13.5015 75.6994 13.6662L73.97 17.969Z" fill="#3A3A39"/>
<path d="M92.9432 20.3859C94.2903 22.4732 94.7089 22.9493 95.4189 23.1507C95.4735 23.1873 95.5099 23.2239 95.5099 23.2605C95.5099 23.3155 95.4735 23.3338 95.2369 23.3338H93.3254C92.8885 23.3338 92.8521 23.3155 92.7611 23.2239C92.7247 23.1873 92.6337 23.0591 92.215 22.3817L89.6118 18.3169C89.2477 17.7676 89.1021 17.6761 88.5924 17.6578L87.3727 17.6395V22.107C87.3909 22.7845 87.4637 22.8394 88.2101 22.9493L88.9565 23.0225C89.1749 23.0591 89.2295 23.0774 89.2295 23.1507C89.2295 23.2422 89.1749 23.2788 89.0475 23.2788H84.3326C84.096 23.2788 84.0414 23.2422 84.0414 23.1324C84.0414 23.0225 84.1324 22.9676 84.3326 22.9676L84.8423 22.931C85.4067 22.8577 85.5887 22.4183 85.5887 21.1549V12.293C85.5887 11.6339 85.4977 11.5423 84.6421 11.4142L84.187 11.3592C84.0231 11.3409 83.9321 11.286 83.9321 11.1945C83.9321 11.1029 84.0049 11.0663 84.2234 11.0663L89.0475 11.0846C90.8133 11.0846 91.3958 11.1761 92.2514 11.6339C93.1252 12.1099 93.6895 13.0803 93.6895 14.1606C93.6895 15.5522 93.0342 16.2845 90.9953 17.1817L92.9432 20.3859ZM88.9565 17.3465C89.3205 17.3465 89.9941 17.1451 90.3764 16.9254C91.2138 16.4493 91.7599 15.3874 91.7599 14.2522C91.7599 13.1902 91.2138 12.1282 90.4674 11.7071C89.9941 11.4508 89.539 11.3775 88.5014 11.3775C87.5183 11.3775 87.3181 11.5057 87.3545 12.1282L87.3727 12.5128V17.3465H88.9565Z" fill="#3A3A39"/>
<path d="M108.81 17.1268C108.81 18.3352 108.464 19.7084 107.918 20.6605C106.881 22.4732 104.733 23.5901 102.257 23.5901C101.037 23.5901 100.072 23.3155 99.0529 22.7112C97.0323 21.5028 95.9583 19.5986 95.9583 17.2183C95.9583 13.4282 98.5978 10.7916 102.439 10.7916C106.062 10.7916 108.81 13.5198 108.81 17.1268ZM99.5445 12.4395C98.6525 13.4465 98.0517 15.2775 98.0517 16.9986C98.0517 18.4268 98.343 19.7084 98.9073 20.8619C99.7265 22.5464 100.819 23.2971 102.439 23.2971C103.877 23.2971 104.969 22.6563 105.625 21.4479C106.298 20.2211 106.68 18.6099 106.68 17.0352C106.68 15.5705 106.353 14.0874 105.77 13.0254C105.133 11.8353 103.877 11.1029 102.475 11.1029C101.328 11.1029 100.345 11.5606 99.5445 12.4395Z" fill="#3A3A39"/>
<path d="M135.629 23.0042L135.265 22.9493C134.756 22.8211 134.683 22.7295 134.21 21.631L129.75 11.1761C129.677 10.993 129.604 10.9381 129.513 10.9381C129.404 10.9381 129.313 11.0297 129.222 11.2677L125.071 21.6676C124.762 22.5098 124.555 22.7433 123.863 22.9813C123.863 22.9813 123.606 23.0774 123.276 23.0934C123.101 23.1026 122.868 23.1003 122.709 23.0774C122.536 23.0522 122.338 22.9996 122.213 22.9447C121.603 22.6838 121.2 22.4366 120.181 21.2098L116.012 16.1197L118.67 13.117C119.599 12.055 120.09 11.6705 120.873 11.4142L121.273 11.3409C121.528 11.3043 121.656 11.2555 121.656 11.1944C121.656 11.0846 121.546 11.0663 121.128 11.0663H117.851C117.687 11.0663 117.596 11.1212 117.596 11.2311C117.596 11.3226 117.632 11.3409 117.851 11.3775L118.47 11.4325C118.688 11.4691 118.889 11.762 118.889 12.0367C118.889 12.2747 118.743 12.5127 118.233 13.0803L114.811 16.9254C114.702 17.0352 114.501 17.1268 114.374 17.1268H113.846C113.682 17.1268 113.664 17.1268 113.646 16.962L113.664 12.4578C113.682 11.6339 113.773 11.4874 114.483 11.3959L115.029 11.3409H115.248C115.302 11.3409 115.339 11.286 115.339 11.2128C115.339 11.1029 115.266 11.0663 114.92 11.0663H110.515C110.333 11.0663 110.278 11.1029 110.278 11.2311C110.278 11.2799 110.357 11.3165 110.515 11.3409L110.933 11.3959C111.625 11.4325 111.734 11.5789 111.807 12.4578V21.9788C111.807 22.7662 111.662 22.9676 110.988 23.0591L110.515 23.0957C110.242 23.114 110.187 23.1324 110.187 23.2422C110.187 23.3155 110.223 23.3338 110.442 23.3338H115.193C115.393 23.3338 115.448 23.3155 115.448 23.2239C115.448 23.1507 115.393 23.1507 115.066 23.0957L114.465 23.0225C113.791 22.9126 113.682 22.7479 113.664 21.7591L113.646 17.969C113.646 17.5845 113.791 17.4564 114.228 17.4564C114.72 17.4564 115.029 17.6395 115.43 18.1521L118.306 21.8324C118.616 22.2352 118.743 22.4732 118.743 22.6014C118.743 22.876 118.488 23.0408 118.051 23.0591L117.614 23.0774C117.287 23.0957 117.25 23.0957 117.25 23.2056C117.25 23.3155 117.268 23.3338 117.505 23.3338H122.791C122.907 23.3361 123.082 23.3338 123.344 23.3292L126.694 23.2788C126.985 23.2788 127.021 23.2788 127.021 23.1873C127.021 23.0957 126.912 23.0408 126.675 23.0042L126.202 22.9493C125.711 22.876 125.456 22.638 125.456 22.2535C125.456 22.0338 125.547 21.6859 125.692 21.3014L126.548 19.0127C126.675 18.738 126.694 18.7197 127.13 18.7197H130.535C130.935 18.7197 130.953 18.738 131.081 19.0127L132.391 22.0521C132.501 22.2718 132.555 22.4549 132.555 22.5464C132.573 22.8028 132.137 23.0042 131.609 23.0042H131.208C131.081 23.0042 131.008 23.0591 131.008 23.1507C131.008 23.2605 131.117 23.3521 131.245 23.3521H135.741C135.868 23.3521 135.978 23.2788 135.978 23.1873C135.978 23.0591 135.923 23.0408 135.632 23.0042H135.629ZM130.496 18.3902H126.983C126.892 18.3902 126.837 18.3169 126.837 18.2254C126.837 18.1521 126.855 18.0606 126.91 17.969L128.639 13.6662C128.712 13.5015 128.767 13.4099 128.803 13.4099C128.815 13.4099 128.864 13.5137 128.949 13.7212L130.642 17.9324C130.696 18.0972 130.733 18.207 130.733 18.2437C130.733 18.3169 130.623 18.3902 130.496 18.3902Z" fill="#3A3A39"/>
<path d="M8.60558 14.0226C8.19053 13.5997 7.39691 13.5895 7.39691 13.3665C7.39691 13.1435 8.19053 13.1332 8.60558 12.7103C9.02062 12.2874 9.03068 11.4787 9.24953 11.4787C9.46837 11.4787 9.47843 12.2874 9.89348 12.7103C10.3085 13.1332 11.1021 13.1435 11.1021 13.3665C11.1021 13.5895 10.3085 13.5997 9.89348 14.0226C9.47843 14.4456 9.46837 15.2542 9.24953 15.2542C9.03068 15.2542 9.02062 14.4456 8.60558 14.0226ZM7.34786 14.9185C7.2309 14.9185 7.20448 15.3286 6.98187 15.5554C6.75925 15.7822 6.35679 15.8079 6.35679 15.9283C6.35679 16.0488 6.75925 16.0745 6.98187 16.3013C7.20448 16.5281 7.22964 16.9382 7.34786 16.9382C7.46609 16.9382 7.49124 16.5281 7.71386 16.3013C7.93647 16.0745 8.33894 16.0488 8.33894 15.9283C8.33894 15.8079 7.93647 15.7822 7.71386 15.5554C7.49124 15.3286 7.46609 14.9185 7.34786 14.9185ZM30.7746 22.1022C30.7739 22.1006 30.7718 22.1007 30.7712 22.1023C28.598 28.1721 22.8853 32.5056 16.177 32.5056C14.1873 32.5056 12.2848 32.1238 10.5362 31.4285C9.64657 31.0748 8.62307 31.2494 7.85847 31.8255C6.20832 33.0688 4.32135 33.7244 3.12949 33.7244H1.47183C1.39007 33.7244 1.34228 33.6309 1.39007 33.5629L4.28249 29.3698C4.42844 29.1582 4.27699 28.8698 4.01995 28.8698C3.98348 28.8698 3.96084 28.8288 3.98096 28.798C4.4622 28.0063 4.3682 26.9986 3.81359 26.2565C1.82625 23.5972 0.645508 20.2781 0.645508 16.6781C0.645508 7.93768 7.59941 0.851807 16.1783 0.851807C18.2442 0.851807 20.2142 1.26494 22.0168 2.01122C22.1031 2.04695 22.1966 2.18082 22.1071 2.15389C22.1021 2.15261 22.0971 2.15133 22.092 2.15005C20.7828 1.74123 19.393 1.51951 17.9516 1.51951C10.1651 1.51951 3.85142 7.95178 3.85142 15.8873C3.85142 19.1616 4.92661 22.1795 6.73623 24.5952C6.73635 24.5953 6.73662 24.5957 6.73662 24.5955C6.73662 24.5953 6.73688 24.5948 6.737 24.5949C6.81863 24.705 6.90277 24.8137 6.98816 24.9212C7.0523 25.0032 7.11896 25.084 7.18562 25.1634C7.37424 25.3915 7.5704 25.6132 7.7741 25.8284C7.77419 25.8285 7.77431 25.8285 7.77423 25.8286C7.7736 25.8292 7.77345 25.8304 7.77407 25.831C7.84415 25.9062 7.91547 25.9802 7.98804 26.0541C9.20676 27.2947 10.6468 28.3084 12.2429 29.03C12.7862 29.2754 13.3475 29.4868 13.9244 29.6616C14.6829 29.8915 15.1521 29.0152 14.608 28.4389C14.3132 28.1265 13.8326 28.0881 13.4737 28.3241C13.4086 28.3668 13.3438 28.4085 13.2795 28.449C12.9859 28.6339 12.6181 28.6521 12.306 28.5006C11.2696 27.9974 10.3026 27.369 9.42424 26.6347C8.80317 26.1154 8.80263 25.187 9.38913 24.629C9.66583 24.365 9.88467 24.1574 10.0557 23.9549C10.501 23.4256 10.6494 23.0219 10.6116 22.9732C10.6066 22.9655 10.5877 22.9732 10.5802 22.9771C10.4563 23.0402 9.58746 23.8767 8.2864 25.2754C8.21074 25.3567 8.08183 25.3575 8.00703 25.2754C7.94188 25.2039 7.94171 25.0947 8.00613 25.0225C8.7895 24.1446 9.60868 23.3397 10.0167 22.9386C10.1702 22.7874 10.272 22.6887 10.3022 22.6528C10.3576 22.5887 10.4142 22.4798 10.4695 22.3734C10.5337 22.2478 10.5953 22.1299 10.6544 22.0838C10.7135 22.0389 10.7978 22.021 10.8871 22.0031C10.9625 21.9877 11.0418 21.971 11.1059 21.9364C11.2279 21.8723 11.5436 21.4366 12.0655 20.7138C12.1372 20.6151 12.2127 20.51 12.2932 20.3998C12.6177 19.9512 12.9107 19.5052 13.1459 19.1464C13.4289 18.7145 13.5559 18.5236 13.6037 18.5069C13.6327 18.4966 13.6691 18.4979 13.7157 18.4992C13.8238 18.5018 13.9898 18.5043 14.2615 18.3864C14.796 18.1557 15.3293 17.4227 15.4928 17.0049C15.6109 16.7046 15.6017 16.5401 15.5702 16.5148C15.5683 16.5132 15.5657 16.5128 15.5633 16.5128C15.5519 16.5128 15.5268 16.5281 15.4928 16.5909C15.2488 17.0497 14.9256 17.4675 14.5571 17.7995C14.1898 18.1314 13.8515 18.1416 13.649 18.1468C13.571 18.1493 13.5094 18.1506 13.4905 18.1724C13.4075 18.2698 12.9849 18.8145 12.3875 19.6296C12.1146 20.0012 11.7964 20.4549 11.5159 20.856C11.1047 21.4417 10.8707 21.7749 10.828 21.8006C10.7475 21.8467 10.6833 21.8672 10.6204 21.8864C10.5098 21.921 10.4054 21.9544 10.2293 22.1338C9.88398 22.4856 8.81244 23.6831 7.86352 24.8117C7.79637 24.8916 7.67339 24.8922 7.60639 24.8122C7.55634 24.7524 7.55469 24.666 7.60227 24.6043C8.51653 23.4179 9.8893 21.8342 10.0859 21.6737C10.1966 21.5827 10.34 21.5404 10.4557 21.5058C10.5513 21.4776 10.633 21.4533 10.6632 21.4122C11.4631 20.1691 13.5811 17.1676 14.2464 16.4884C14.2489 16.4859 14.2521 16.4843 14.2555 16.4837L14.3332 16.4717C14.8539 16.391 15.4438 16.3013 15.7758 15.6784C15.9305 15.3875 15.9406 15.2043 15.9104 15.1568C15.9032 15.1466 15.8884 15.148 15.8782 15.1552C15.8586 15.1693 15.8317 15.2047 15.8035 15.2709C15.6576 15.6105 15.3897 15.863 15.0061 16.0193C14.8489 16.0834 14.6766 16.0847 14.5395 16.086C14.4087 16.086 14.2955 16.0885 14.2477 16.1424C13.5509 16.8742 12.3372 18.3339 10.5072 21.129C10.4506 21.2149 10.4255 21.2546 10.4192 21.2623C10.3928 21.2956 10.3161 21.3136 10.1827 21.343C10.0394 21.3738 9.86203 21.4135 9.76393 21.4904C9.65325 21.5763 8.88227 22.3888 7.67235 23.9972C7.61129 24.0781 7.54949 24.1612 7.48696 24.246C7.40545 24.3565 7.24145 24.3595 7.1595 24.2493C7.1064 24.1779 7.10647 24.0792 7.15802 24.0067C8.05538 22.7448 8.64857 22.0351 8.98672 21.6631C9.2092 21.4183 9.40673 21.1479 9.5551 20.8523C9.9558 20.0538 10.9305 18.2713 12.6215 16.095C14.7835 13.3114 16.6876 12.5116 17.3857 12.281C17.6561 12.1913 17.5768 11.8491 17.3769 11.8093C16.8375 11.7024 16.3025 11.2839 15.7526 11.2839H12.7133C12.6718 11.2839 12.6416 11.2429 12.6529 11.2032C12.9789 10.1238 14.3447 9.69791 15.281 9.48081C15.6535 9.39443 15.9654 9.19676 16.2859 8.98808C16.772 8.67149 17.3103 8.29803 17.7295 7.89705C18.323 7.32939 19.3779 6.71221 20.9878 6.84449C23.4076 7.04313 25.3634 9.90491 26.0463 11.6709C26.0564 11.6953 26.0337 11.7209 26.0086 11.7158C25.9178 11.6952 25.8391 11.7822 25.8671 11.871C26.0333 12.399 26.0711 12.6762 26.079 12.7974C26.0802 12.8269 26.0463 12.8436 26.0249 12.8231C25.9666 12.7687 25.8683 12.8251 25.8821 12.9037C25.924 13.1408 25.9389 13.3506 25.9444 13.4498C25.9457 13.4754 25.918 13.4933 25.8954 13.4792C25.8066 13.4253 25.7042 13.5051 25.7252 13.6068C25.8119 14.026 25.804 14.3163 25.7935 14.4417C25.791 14.4699 25.757 14.4814 25.7382 14.4609C25.6359 14.351 25.4379 14.4583 25.4638 14.6061C25.9654 17.4734 24.4697 21.4882 22.2744 23.7921C21.7412 24.3517 21.214 24.8154 20.7012 25.1994C19.4818 26.1127 18.9936 28.0248 20.0394 29.1327C20.527 29.6493 21.2517 29.8859 21.9322 29.6823C25.7595 28.5373 28.9101 25.7819 30.6319 22.1863C30.6382 22.1735 30.6445 22.1607 30.6508 22.1479C30.6613 22.1265 30.6717 22.1052 30.6822 22.0838C30.6839 22.0804 30.6856 22.0769 30.6873 22.0735C30.7117 22.0201 30.7882 22.0486 30.7778 22.1019C30.7774 22.1036 30.7752 22.1037 30.7746 22.1022ZM14.3011 14.9447C14.3008 14.9451 14.3002 14.9451 14.2999 14.9447C14.2928 14.9379 14.2689 14.9411 14.2225 14.9697C13.9006 15.1697 12.7183 16.5243 11.902 17.688C11.0581 18.8927 10.0821 20.519 9.89348 20.9432C9.88719 20.9586 9.87335 20.9957 9.89976 21.0098C9.96894 21.0457 10.2054 20.9252 10.4683 20.4716C11.4078 18.8504 13.0378 16.6999 13.6138 16.0693C14.01 15.6349 14.3549 15.0172 14.3023 14.9448C14.302 14.9444 14.3015 14.9444 14.3011 14.9447ZM15.5645 14.204C15.5645 14.2036 15.5643 14.2032 15.564 14.2029C15.5566 14.1968 15.5479 14.1944 15.5343 14.1957C15.4551 14.2021 15.2991 14.3417 15.1922 14.4699C15.0576 14.6327 14.991 14.7595 15.0011 14.839C15.0048 14.8659 15.0174 14.8877 15.0388 14.9031C15.0677 14.9236 15.1042 14.93 15.1469 14.921C15.2476 14.9005 15.3696 14.8018 15.4488 14.675C15.5667 14.4858 15.6233 14.2584 15.565 14.205C15.5647 14.2048 15.5645 14.2044 15.5645 14.204ZM10.1607 24.679C10.1612 24.679 10.1614 24.6783 10.1609 24.678C10.1525 24.6736 10.143 24.6713 10.1324 24.6713C10.106 24.6713 10.0758 24.6854 10.0507 24.711C9.96517 24.7982 9.78783 24.9789 9.48975 25.2057L9.40297 25.2711C9.19041 25.4313 9.03697 25.5479 9.03069 25.6069C9.03069 25.6209 9.04121 25.632 9.05263 25.6401C9.11393 25.6838 9.27313 25.7024 9.50484 25.5838C9.74381 25.462 10.0633 25.1557 10.1589 24.8917C10.1973 24.7855 10.1991 24.7067 10.1604 24.68C10.1599 24.6797 10.1601 24.679 10.1607 24.679ZM4.93746 28.3418C4.93786 28.3418 4.93825 28.3416 4.93857 28.3414C5.0153 28.2809 5.10326 28.1892 5.20014 28.0726C5.25106 28.0114 5.24497 27.9215 5.18931 27.8645C5.11947 27.793 5.00184 27.804 4.94698 27.8876C4.81895 28.0825 4.71088 28.2492 4.62912 28.3788C4.60286 28.4204 4.56282 28.4833 4.60353 28.5109C4.62364 28.5237 4.69525 28.534 4.93632 28.3422C4.93664 28.3419 4.93705 28.3418 4.93746 28.3418ZM5.79767 28.6932C5.86122 28.6167 5.85314 28.5036 5.77985 28.4363C5.70061 28.3636 5.57588 28.3722 5.50862 28.4561C4.56154 29.6379 3.89025 30.583 3.88664 30.6653C3.88664 30.6794 3.88664 30.7024 3.89796 30.7076C3.94575 30.7294 4.12183 30.5858 4.42242 30.2795C4.62927 30.0687 5.08048 29.5569 5.79767 28.6932ZM21.3852 14.4315C21.3852 14.3469 21.3185 14.2303 21.2154 14.1341C21.1173 14.0419 20.9651 13.9842 20.867 14.0008C20.8306 14.0073 20.8029 14.0252 20.789 14.0521C20.7199 14.1867 20.8721 14.2905 20.9224 14.3238C20.9463 14.3392 20.9739 14.361 21.0041 14.384C21.0984 14.4571 21.2116 14.5442 21.2921 14.5442C21.3135 14.5442 21.3324 14.5378 21.3487 14.5225C21.3726 14.4994 21.3852 14.4686 21.3852 14.4302V14.4315ZM22.1386 14.4283C22.1386 14.4278 22.1385 14.4274 22.1383 14.4271C21.9849 14.1571 21.7826 14.0816 21.711 14.0867C21.6945 14.0867 21.684 14.1021 21.6824 14.1184C21.679 14.1521 21.6994 14.1803 21.7374 14.2315C21.7839 14.2943 21.848 14.3815 21.9072 14.5391C22.0241 14.8544 22.1512 15.012 22.2606 14.9851C22.287 14.9787 22.3033 14.9646 22.3134 14.9428C22.336 14.889 22.3247 14.7559 22.1389 14.4295C22.1387 14.4291 22.1386 14.4287 22.1386 14.4283ZM23.0712 14.7102C23.0713 14.7103 23.0714 14.7102 23.0713 14.7101C22.8525 14.3338 22.4995 14.1521 22.4367 14.1803C22.4266 14.1841 22.4216 14.1905 22.419 14.1995C22.4027 14.252 22.4756 14.3815 22.5561 14.5135C22.6706 14.7006 22.7637 14.9121 22.8379 15.0825C22.8857 15.1902 22.9259 15.2837 22.9611 15.3452C23.0089 15.4285 23.0504 15.4721 23.0844 15.4734C23.1045 15.4747 23.1246 15.4606 23.146 15.4298C23.2114 15.3389 23.2805 15.0714 23.071 14.7104C23.0709 14.7102 23.0711 14.7101 23.0712 14.7102ZM23.9924 15.2965C23.9711 15.1056 23.9094 14.8288 23.7296 14.5929C23.5774 14.3943 23.4064 14.3648 23.3032 14.4238C23.2932 14.4289 23.2881 14.4366 23.2856 14.4456C23.2756 14.4853 23.3259 14.5712 23.4026 14.7006C23.4567 14.7916 23.5246 14.9056 23.5975 15.0479C23.6491 15.1479 23.6981 15.2581 23.7422 15.3555C23.7505 15.3741 23.7591 15.3933 23.7679 15.4127C23.8458 15.5852 23.9971 15.5938 23.9982 15.4045C23.9984 15.372 23.9967 15.3364 23.9924 15.2978V15.2965ZM23.3233 12.5238C23.3233 12.5236 23.3236 12.5235 23.3238 12.5237C23.4583 12.677 23.6479 12.7128 23.7107 12.6629C23.7359 12.6424 23.7484 12.6193 23.7497 12.5898C23.7535 12.5219 23.6944 12.4271 23.5812 12.3143C23.4265 12.1605 23.2617 12.108 23.1812 12.108C23.1762 12.108 23.1712 12.108 23.1674 12.108C23.1498 12.1092 23.1372 12.1144 23.1322 12.122C23.102 12.1656 23.1422 12.3179 23.3229 12.524C23.3231 12.5241 23.3233 12.524 23.3233 12.5238ZM21.8298 12.7583C21.8296 12.7581 21.8292 12.7582 21.8292 12.7585C21.8268 12.9171 22.2362 13.4076 22.6794 13.4844C22.9246 13.5267 23.0856 13.4434 23.1485 13.3601C23.1724 13.328 23.1825 13.2947 23.1737 13.2755C23.1561 13.2357 23.0617 13.2216 22.9448 13.2024C22.8567 13.1883 22.7461 13.1717 22.6303 13.1383C22.4832 13.0961 22.3222 12.9807 22.1801 12.8795C22.0531 12.7885 21.9348 12.7039 21.8745 12.7103C21.8446 12.7141 21.8307 12.7292 21.8304 12.7581C21.8304 12.7584 21.83 12.7586 21.8298 12.7583ZM20.6325 13.0961C20.6322 13.0961 20.632 13.0963 20.6322 13.0966C20.7355 13.2644 20.9667 13.496 21.2796 13.5984C21.3902 13.6343 21.4997 13.6497 21.599 13.6497C21.7726 13.6497 21.9147 13.6023 21.9889 13.5369C22.0292 13.501 22.0468 13.4613 22.0392 13.4229C22.0141 13.2819 21.8581 13.2729 21.4821 13.2511L21.3965 13.246C21.15 13.2319 20.9727 13.064 20.8431 12.941C20.7488 12.8513 20.6809 12.7872 20.6205 12.8154C20.6205 12.8154 20.5878 12.8346 20.5752 12.8807C20.5602 12.937 20.5802 13.0099 20.6328 13.0955C20.6329 13.0957 20.6327 13.0961 20.6325 13.0961ZM19.959 13.2357C19.959 13.235 19.9585 13.2343 19.9577 13.2341C19.8676 13.2059 19.7813 13.1702 19.7049 13.1383C19.6005 13.0948 19.5049 13.0563 19.4496 13.0563C19.4257 13.0563 19.4093 13.064 19.4018 13.0807C19.3892 13.1127 19.398 13.1627 19.4257 13.2152C19.4609 13.2793 19.6118 13.4959 20.1023 13.5843C20.5048 13.6561 20.5778 13.501 20.5903 13.4523C20.6092 13.378 20.5702 13.3088 20.5237 13.2921C20.4771 13.2755 20.4256 13.278 20.3614 13.2819C20.2623 13.287 20.1381 13.2934 19.9602 13.2374C19.9595 13.2372 19.959 13.2365 19.959 13.2357ZM19.4659 9.90427C19.4659 9.90467 19.4657 9.90504 19.4654 9.90527C19.2794 10.0292 19.0482 10.01 18.8949 9.9959C18.8635 9.99334 18.8245 9.98949 18.7956 9.98949C18.7704 9.98949 18.7516 9.99206 18.7503 9.99975C18.739 10.0484 18.7868 10.092 18.8157 10.1125C18.9666 10.2215 19.3226 10.274 19.5993 10.0907C19.8948 9.89466 19.9061 9.61399 19.8709 9.49352C19.8571 9.4461 19.8395 9.43072 19.8344 9.43072C19.8206 9.43072 19.8055 9.46404 19.7879 9.50634C19.7464 9.60237 19.6774 9.76238 19.4665 9.90327C19.4661 9.90349 19.4659 9.90387 19.4659 9.90427ZM19.4357 9.20388C19.359 9.04753 19.1616 8.98986 18.9955 9.07444C18.8295 9.15903 18.7578 9.35511 18.8346 9.51146C18.8723 9.58708 18.9377 9.64218 19.0207 9.66653C19.1037 9.69088 19.1943 9.68191 19.2748 9.6409C19.4408 9.55632 19.5125 9.36024 19.4357 9.20388ZM17.7278 8.43173C17.7278 8.43216 17.7278 8.43258 17.7279 8.43299C17.7331 8.45324 17.7481 8.47091 17.768 8.47979C17.8661 8.52336 18.0095 8.59641 18.139 8.69253C18.1931 8.73354 18.2698 8.72073 18.3101 8.66562C18.3742 8.57847 18.4912 8.43493 18.6912 8.24526C18.8736 8.07225 19.0635 7.90436 19.1867 7.80568C19.1905 7.8027 19.1941 7.79979 19.1976 7.79694C19.2556 7.74965 19.2251 7.70151 19.1565 7.73134C18.8421 7.86847 18.6132 8.04918 18.4761 8.15683C18.3805 8.23244 18.3516 8.25423 18.329 8.24526C18.3239 8.24398 18.3164 8.23885 18.3139 8.22604C18.29 8.10941 18.6245 7.80311 18.8031 7.67752C19.0056 7.53526 19.1792 7.45196 19.3389 7.37891C19.437 7.33405 19.4383 7.31099 19.4383 7.31099C19.4383 7.30586 19.4194 7.29817 19.3892 7.29817C19.3829 7.29817 19.3754 7.29817 19.3666 7.29945C19.1918 7.32124 18.9037 7.3866 18.4183 7.70828C18.0711 7.93896 17.8435 8.22219 17.7391 8.37085C17.7266 8.38861 17.7228 8.41014 17.7276 8.43047C17.7277 8.43088 17.7278 8.4313 17.7278 8.43173ZM17.8234 10.2343C17.8234 10.2343 17.8259 10.2291 17.8234 10.224C17.768 10.0869 16.6424 10.0369 15.8815 10.1394C15.8758 10.1394 15.8704 10.1372 15.8665 10.1332L15.8664 10.133C15.6154 9.81231 15.1968 9.72562 14.8027 9.82819C13.8146 10.0854 13.3786 10.5056 13.2239 10.6956C13.2164 10.7046 13.2151 10.7174 13.2214 10.7277C13.2264 10.7367 13.2365 10.7456 13.2516 10.7431C13.5761 10.6982 14.4439 10.5777 15.5079 10.4419C16.1192 10.3637 16.6776 10.3368 17.0863 10.3189C17.48 10.3009 17.7907 10.2868 17.8234 10.2343ZM16.3606 15.8207C16.3632 15.8438 16.3732 15.863 16.3908 15.8771C16.4009 15.8848 16.4374 15.9091 16.5015 15.9002C16.5745 15.8899 16.6889 15.8335 16.8298 15.631C17.031 15.3388 17.114 15.0018 17.0851 14.5993C17.075 14.4532 17.0184 14.3635 16.982 14.3635C16.9618 14.3635 16.9342 14.4007 16.9266 14.5032C16.9065 14.7634 16.8285 15.1376 16.5719 15.4426C16.4223 15.6208 16.3531 15.7451 16.3606 15.8207ZM15.8657 17.3996C15.8661 17.3996 15.8665 17.3998 15.8668 17.4001C15.8906 17.428 15.9206 17.4432 15.9569 17.4406C16.0437 17.4381 16.1619 17.3509 16.2651 17.2138C16.377 17.0651 16.4248 16.8075 16.3896 16.6935C16.3795 16.6627 16.3644 16.6435 16.3455 16.6371C16.3103 16.6255 16.2663 16.696 16.2085 16.7832C16.1682 16.846 16.1166 16.9241 16.0512 17.0036C16.0336 17.0241 16.0173 17.0446 16.0009 17.0638C15.8666 17.2212 15.795 17.3147 15.8647 17.3991C15.8649 17.3994 15.8653 17.3996 15.8657 17.3996ZM15.0765 18.3294C15.0765 18.3291 15.0768 18.329 15.0771 18.3291C15.2782 18.4583 15.5121 18.5132 15.9972 18.3646C16.5279 18.2019 16.9178 17.6457 17.0612 17.4137C17.2159 17.1625 17.2134 17.0074 17.1857 16.9857C17.1744 16.9767 17.1543 16.9959 17.148 17.0023C17.1216 17.0292 17.0876 17.0702 17.0423 17.1228C16.9228 17.265 16.7405 17.4803 16.4625 17.7354C16.0538 18.1096 15.5356 18.2057 15.2048 18.1365C15.0853 18.1109 15.0149 18.1455 14.9973 18.1891C14.9797 18.2325 15.0109 18.2874 15.076 18.3297C15.0762 18.3298 15.0765 18.3297 15.0765 18.3294ZM14.071 19.6405C14.0714 19.6409 14.0716 19.6414 14.0716 19.642C14.0731 19.6889 14.0945 19.7181 14.1332 19.7308C14.2175 19.7564 14.3697 19.6936 14.4615 19.5591C14.5847 19.3809 14.6665 19.1438 14.5923 19.0516C14.5898 19.0477 14.5835 19.04 14.5671 19.04C14.5596 19.04 14.5495 19.0413 14.537 19.0464C14.3776 19.1078 14.0681 19.5225 14.0703 19.639C14.0703 19.6396 14.0706 19.64 14.071 19.6405ZM12.4377 22.3335C12.4353 22.3288 12.4306 22.3247 12.4253 22.3247C12.4139 22.3247 12.3976 22.3337 12.3787 22.3516C12.307 22.4247 12.2089 22.5247 11.887 22.7195C11.7473 22.804 11.604 22.854 11.4895 22.895C11.3185 22.9553 11.1952 22.9988 11.1952 23.1091C11.1952 23.1731 11.2543 23.2013 11.3034 23.2141C11.536 23.2718 12.0945 23.1001 12.3775 22.5477C12.445 22.4157 12.4482 22.3542 12.4377 22.3335ZM12.9493 20.2592C12.949 20.2595 12.9477 20.2601 12.9472 20.2601C12.9469 20.2601 12.9465 20.2601 12.9459 20.2601C12.9422 20.2601 12.9321 20.2627 12.9158 20.2729C12.8302 20.3267 12.6152 20.6254 12.3649 20.9688C12.2504 21.1265 12.1221 21.3033 11.9926 21.475C11.8706 21.6378 11.7549 21.7865 11.6543 21.9172C11.4857 22.1351 11.3524 22.3068 11.3436 22.344C11.3373 22.3683 11.3336 22.4003 11.3537 22.408C11.4593 22.4542 11.9851 22.0607 12.346 21.493C12.7587 20.8436 12.9925 20.3064 12.9501 20.2592C12.9499 20.259 12.9495 20.259 12.9493 20.2592ZM13.3258 21.1816C13.3207 21.1726 13.3132 21.1687 13.3019 21.1687C13.2906 21.1687 13.2742 21.1739 13.2553 21.1841C13.0805 21.2751 12.751 21.7224 12.8164 21.8698C12.8315 21.9044 12.8554 21.9223 12.8868 21.9249C12.9799 21.9313 13.1409 21.7954 13.2503 21.616C13.3547 21.443 13.3836 21.2802 13.3258 21.1816ZM14.6929 20.3005C14.6929 20.3001 14.6931 20.2997 14.6935 20.2995C15.2629 19.9957 15.6312 19.4065 15.679 19.3028C15.7192 19.2182 15.7255 19.1464 15.7117 19.1362C15.7079 19.1336 15.6903 19.1349 15.6513 19.1708C15.6274 19.1925 15.5947 19.2246 15.5532 19.2669C15.3872 19.4309 15.079 19.7372 14.6929 19.9692C14.1873 20.2716 13.8037 20.3255 13.5748 20.3562C13.4943 20.3678 13.4365 20.3754 13.4025 20.3908C13.3849 20.3985 13.3761 20.4113 13.3773 20.4293C13.3824 20.4754 13.4503 20.5369 13.5673 20.5613C13.615 20.5715 14.0462 20.6458 14.6923 20.3014C14.6927 20.3012 14.6929 20.3009 14.6929 20.3005ZM17.2733 30.2355C17.2729 30.2363 17.2735 30.2373 17.2744 30.2373C17.4989 30.2475 17.7234 30.2539 17.9504 30.2539C18.8224 30.2539 19.19 29.2317 18.5916 28.5974L17.6471 27.5963C17.2285 27.1526 16.6139 26.968 16.0046 26.9985C15.7243 27.0125 15.4875 27.0079 15.3021 26.9998C15.2078 26.9957 15.1145 27.0299 15.0447 27.0934C14.926 27.2012 14.7493 27.2081 14.619 27.1146L13.9685 26.6475C13.9395 26.627 13.9056 26.6667 13.9307 26.6924L14.7721 27.5831L17.2731 30.234C17.2735 30.2344 17.2736 30.235 17.2733 30.2355Z" fill="#3A3A39"/>
</svg>
