<svg width="65" height="31" viewBox="0 0 65 31" fill="none" xmlns="http://www.w3.org/2000/svg">
<g clip-path="url(#clip0_5328_2157)">
<path d="M26.7551 4.8584C22.2629 4.8584 18.6086 8.51263 18.6086 13.0048C18.6086 17.497 22.2629 21.1513 26.7551 21.1513C31.2473 21.1513 34.9015 17.497 34.9015 13.0048C34.9015 8.51263 31.2473 4.8584 26.7551 4.8584ZM26.7551 17.1417C24.4745 17.1417 22.6129 15.2854 22.6129 12.9995C22.6129 10.7136 24.4692 8.85737 26.7551 8.85737C29.041 8.85737 30.8972 10.7136 30.8972 12.9995C30.8972 15.2854 29.041 17.1417 26.7551 17.1417Z" fill="#3A3A39"/>
<path d="M36.5194 0.207153C36.4345 0.207153 36.3708 0.276101 36.3708 0.355656V20.6846C36.3708 20.7695 36.4398 20.8384 36.5247 20.8384H40.2266C40.3115 20.8384 40.3804 20.7695 40.3804 20.6846V0.355656C40.3804 0.270797 40.3115 0.207153 40.2319 0.207153H36.5194Z" fill="#3A3A39"/>
<path d="M46.3683 0.207153H42.6663C42.5815 0.207153 42.5178 0.276101 42.5178 0.355656V20.6846C42.5178 20.7695 42.5868 20.8384 42.6716 20.8384H46.3736C46.4584 20.8384 46.5221 20.7695 46.5221 20.6899V0.36096C46.5221 0.276101 46.4531 0.212457 46.3736 0.212457L46.3683 0.207153Z" fill="#3A3A39"/>
<path d="M4.37406 0.207153C4.26799 0.207153 4.19374 0.31853 4.23617 0.413996L5.75302 4.11596C5.77423 4.1743 5.83257 4.21142 5.89091 4.21142H12.9925V12.9996C12.9925 15.2802 11.1362 17.1418 8.85036 17.1418C6.56448 17.1418 4.78775 15.3597 4.7135 13.1428C4.7135 13.0632 4.64455 12.9996 4.565 12.9996H0.863035C0.778176 12.9996 0.709229 13.0686 0.709229 13.1534C0.794087 17.5767 4.41119 21.146 8.85566 21.146C13.3001 21.146 17.0021 17.4918 17.0021 12.9996V0.355656C17.0021 0.270797 16.9332 0.207153 16.8483 0.207153H4.37406Z" fill="#3A3A39"/>
<path d="M60.9695 5.31982V14.3148C60.9695 14.3148 59.4473 17.1417 56.4136 17.1417C53.3799 17.1417 52.717 15.8529 52.717 13.1958V5.31452C52.717 5.22966 52.648 5.16602 52.5685 5.16602H48.8665C48.7816 5.16602 48.7127 5.23496 48.7127 5.31982V13.6625C48.7127 18.457 51.6828 21.1513 55.7348 21.1513C59.0336 21.1513 60.9748 19.12 60.9748 19.12V22.0529C60.9748 24.4236 58.9965 26.3595 56.6682 26.3595C54.3399 26.3595 52.4465 24.5085 52.3669 22.2014C52.3669 22.1218 52.298 22.0529 52.2184 22.0529H48.5059C48.421 22.0529 48.3521 22.1218 48.3521 22.2067C48.4316 26.7201 52.1336 30.3691 56.6682 30.3691C61.2028 30.3691 64.9791 26.6406 64.9791 22.0529V5.31982C64.9791 5.23496 64.9101 5.17132 64.8305 5.17132H61.1286C61.0437 5.17132 60.9801 5.24027 60.9801 5.31982H60.9695Z" fill="#3A3A39"/>
</g>
<defs>
<clipPath id="clip0_5328_2157">
<rect width="64.2699" height="30.162" fill="white" transform="translate(0.709229 0.207153)"/>
</clipPath>
</defs>
</svg>
