<svg width="106" height="34" viewBox="0 0 106 34" fill="none" xmlns="http://www.w3.org/2000/svg">
<g clip-path="url(#clip0_5328_1963)">
<path d="M6.32962 1.18103C6.21322 1.29743 5.98042 1.40219 5.80582 1.40219C5.31694 1.41383 4.03654 1.99583 3.30322 2.55455C2.23233 3.35771 1.33605 4.70795 0.917013 6.13967C0.626013 7.12908 0.579453 9.29412 0.823893 10.1904C1.23129 11.6454 2.34874 13.1935 3.57094 13.985C3.88522 14.1829 4.59526 14.4972 5.14234 14.6951C6.07354 15.0094 6.28306 15.0326 7.79626 15.0443C9.27454 15.0443 9.51898 15.021 10.229 14.7533C11.3348 14.3342 11.9168 13.9734 12.5919 13.2517C13.1856 12.6232 13.6861 11.5988 13.6861 11.0052C13.6861 10.6444 13.5581 10.6444 13.139 10.9936C12.7083 11.3428 11.8237 11.7851 10.9507 12.0644C10.4036 12.239 9.9031 12.2856 8.6809 12.2856C6.67882 12.2856 6.25978 12.1343 4.99102 10.9354C4.18786 10.1671 3.97834 9.59676 3.97834 8.0952C3.9667 6.88463 3.98998 6.77987 4.3159 6.18623C4.71166 5.46455 5.46826 4.76615 6.22486 4.40531C6.98146 4.04447 9.29782 4.02119 10.0777 4.37039C10.7761 4.67303 11.8237 5.47619 12.2311 6.02327C12.8829 6.88464 12.9528 6.82644 13.1041 5.28995C13.1739 4.66139 13.2554 3.86987 13.2903 3.54395C13.3602 2.99687 13.3369 2.93867 13.0343 2.69423C12.5105 2.27519 10.8809 1.53023 10.2523 1.41383C9.93802 1.35563 9.62374 1.22759 9.54226 1.12283C9.4375 0.971509 9.15814 0.936589 7.97086 0.948229C6.7021 0.959869 6.50422 0.983149 6.32962 1.18103ZM19.9252 1.50695C19.8902 1.56515 19.9368 1.77467 20.0416 1.97255C20.158 2.21699 20.2045 2.48471 20.158 2.72915C20.0998 3.05507 19.25 5.11535 18.5749 6.582C18.2141 7.36188 17.9929 7.89732 17.9929 7.95552C17.9929 7.99044 17.83 8.37456 17.6321 8.81688C17.4342 9.24756 17.2014 9.79464 17.0966 10.0158C17.0035 10.237 16.8522 10.5978 16.7591 10.7957C16.6659 11.0052 16.5146 11.3428 16.4332 11.5523C15.8744 12.8792 15.3041 13.9501 15.0363 14.1946C14.4194 14.7649 14.5358 14.7998 17.0966 14.7649C19.3781 14.73 19.4479 14.7184 19.4014 14.4972C19.3781 14.3692 19.3548 13.9268 19.3432 13.5078C19.3315 12.8909 19.4014 12.5882 19.7273 11.82C19.9484 11.3078 20.2045 10.819 20.3093 10.7375C20.5072 10.5745 24.5812 10.528 24.8256 10.6909C24.9071 10.7491 25.1748 11.2264 25.4076 11.7734C25.8616 12.7861 25.9663 13.6591 25.7335 14.4623L25.652 14.7882H28.0499C30.6689 14.7882 30.7387 14.7649 30.1102 14.1596C29.7959 13.8686 29.4118 13.1702 29.016 12.2274C28.9229 12.0062 28.6552 11.3777 28.4107 10.8306C28.1779 10.2835 27.9451 9.73644 27.8869 9.6084C27.8404 9.48036 27.6658 9.0846 27.5028 8.7354C26.525 6.60528 24.9769 2.78735 24.9769 2.51963C24.9769 2.34503 25.0584 2.05403 25.1515 1.87943C25.2446 1.69319 25.2796 1.51859 25.2446 1.47203C25.1282 1.35563 19.995 1.39055 19.9252 1.50695ZM22.8701 5.84867C22.9283 5.99999 23.1844 6.55871 23.4521 7.1058C23.7082 7.65288 23.9293 8.16504 23.9293 8.23488C23.9293 8.35128 23.5801 8.3862 22.6024 8.3862C21.869 8.3862 21.2405 8.35128 21.2172 8.29308C21.159 8.19996 22.1833 6.04655 22.4161 5.76719C22.614 5.52275 22.7537 5.54603 22.8701 5.84867ZM32.8572 1.47203C32.8223 1.51859 32.9038 1.71647 33.0551 1.91435C33.5789 2.61275 33.5905 2.81063 33.5905 8.14176C33.5789 13.4147 33.544 13.7872 33.0784 14.311C32.671 14.7533 32.799 14.7882 35.1387 14.7882C36.3841 14.7882 37.4201 14.7533 37.455 14.7184C37.5016 14.6834 37.3619 14.4157 37.164 14.1131L36.8032 13.5776L36.7683 10.8306C36.7333 8.10684 36.7566 7.5714 36.9545 7.5714C37.0127 7.5714 37.9905 9.1428 39.1312 11.0634C40.4349 13.2401 41.2729 14.5438 41.3777 14.5205C41.4708 14.5088 41.5872 14.4157 41.6338 14.3226C41.692 14.2295 42.0528 13.6126 42.4369 12.9491C42.8211 12.2856 43.1353 11.7269 43.1353 11.7036C43.1353 11.6803 43.3565 11.2846 43.6359 10.8073C43.9152 10.3417 44.1713 9.87612 44.2179 9.783C44.2644 9.68988 44.4157 9.42216 44.5554 9.201C44.6835 8.97984 44.9279 8.53752 45.0792 8.23488C45.2771 7.85076 45.4051 7.69944 45.4866 7.78092C45.5565 7.85076 45.5914 9.03804 45.5914 10.8422L45.5797 13.7755L45.2887 14.1596C45.1258 14.3692 44.9977 14.5903 44.9977 14.6602C44.9977 14.7533 45.7543 14.7882 47.3257 14.7882C48.676 14.7882 49.6537 14.7416 49.6537 14.6834C49.6537 14.6252 49.5141 14.4157 49.3511 14.2062C48.8971 13.6708 48.8157 12.5068 48.8739 7.3968C48.9321 2.83391 48.9786 2.32175 49.4209 1.92599C49.968 1.42547 49.84 1.40219 46.5808 1.40219C44.8813 1.40219 43.4729 1.44875 43.438 1.49531C43.4031 1.55351 43.4845 1.76303 43.6126 1.96091C43.8454 2.35667 43.9269 3.57887 43.729 3.80003C43.6708 3.85823 43.4263 4.30055 43.1703 4.77779C41.9946 6.9894 41.5989 7.66452 41.401 7.8624C41.1798 8.04864 41.1565 8.037 40.819 7.37352C40.4581 6.68675 40.3883 6.57035 39.3407 4.71959C38.6307 3.47411 38.5143 3.00851 38.7703 2.31011C38.8751 2.04239 38.9915 1.71647 39.0264 1.60007C39.0846 1.41383 38.8867 1.40219 36.0117 1.40219C34.3122 1.40219 32.9038 1.43711 32.8572 1.47203ZM52.6452 1.47203C52.6103 1.51859 52.7383 1.75139 52.9479 2.00747L53.3204 2.47307V13.7057L53.0061 14.1247C52.8198 14.3459 52.6802 14.5903 52.6802 14.6602C52.6802 14.7533 53.4484 14.7882 55.0664 14.7882C57.0684 14.7882 57.4526 14.7649 57.4526 14.6252C57.4526 14.5321 57.3944 14.4157 57.3245 14.3692C57.2547 14.3342 57.0917 14.0782 56.9753 13.8104C56.8007 13.4263 56.7542 13.0422 56.7542 11.7851V10.2486L57.0568 10.1322C57.2198 10.0624 58.407 10.0158 59.6991 10.0158C62.5858 10.0158 63.1445 9.86448 64.2969 8.81688C66.1244 7.12908 66.2058 4.55663 64.4715 2.82227C63.8662 2.21699 63.4472 1.97255 62.4694 1.62335C61.8874 1.42547 61.4684 1.40219 57.278 1.40219C54.7754 1.40219 52.6918 1.43711 52.6452 1.47203ZM61.9805 4.82435C62.6207 5.44127 62.5625 6.31427 61.8525 6.7566C61.4916 6.97776 61.2938 6.9894 59.1404 6.96611L56.8124 6.9312L56.7774 5.77883C56.7542 4.92911 56.7891 4.59155 56.8938 4.52171C56.9753 4.46351 58.0811 4.44023 59.3382 4.45187L61.6313 4.48679L61.9805 4.82435ZM70.2333 1.47203C70.1867 1.50695 70.2333 1.72811 70.3381 1.94927C70.4428 2.20535 70.4777 2.51963 70.4428 2.74079C70.3846 3.04343 69.6047 4.95239 68.918 6.46559C68.8249 6.65183 68.627 7.14072 68.464 7.53648C68.1846 8.19996 67.8587 8.95656 67.3931 9.98088C67.3 10.1788 67.2302 10.3766 67.2302 10.4116C67.2302 10.4814 67.0556 10.8539 66.1011 12.9258C65.845 13.4729 65.4958 14.0432 65.3328 14.2062C64.7392 14.7649 64.8207 14.7882 67.4164 14.7882H69.8143L69.7211 14.4623C69.5 13.7639 69.6047 12.7745 70.0238 11.8084C70.2333 11.3078 70.4894 10.819 70.5941 10.7375C70.792 10.5862 74.866 10.528 75.1105 10.6909C75.2967 10.8073 75.9369 12.2623 76.1348 13.0306C76.2861 13.566 76.2745 13.7057 76.1348 14.0549C75.8089 14.8231 75.7157 14.7882 78.3464 14.7882C80.9654 14.7882 81.0352 14.7649 80.3834 14.148C80.0109 13.7872 79.9876 13.7406 79.0564 11.5872C78.3697 10.0042 78.2416 9.70152 77.8575 8.8518C77.7178 8.5608 77.4734 7.99044 77.2988 7.5714C77.1242 7.15236 76.8681 6.54707 76.7168 6.23279C75.9835 4.63811 75.2618 2.78735 75.2618 2.51963C75.2618 2.34503 75.3433 2.05403 75.4364 1.87943C75.5295 1.69319 75.5644 1.51859 75.5295 1.47203C75.4364 1.37891 70.3148 1.37891 70.2333 1.47203ZM73.3412 6.25607C73.5158 6.62855 73.7835 7.18728 73.9348 7.48992C74.3771 8.39784 74.3888 8.3862 72.8989 8.3862C71.5719 8.3862 71.3391 8.33964 71.5137 8.10684C71.5719 8.037 71.8163 7.53648 72.0608 6.9894C72.5147 6.01163 72.7708 5.59259 72.9454 5.59259C72.992 5.59259 73.1782 5.89523 73.3412 6.25607ZM83.2585 1.47203C83.2119 1.51859 83.3167 1.70483 83.468 1.89107C83.6193 2.07731 83.8055 2.41487 83.8754 2.65931C83.9452 2.92703 83.9918 5.01059 83.9918 8.1534C83.9801 13.438 83.9569 13.7872 83.468 14.3226C83.3516 14.4506 83.2934 14.6252 83.3283 14.7067C83.3749 14.8464 83.8055 14.8813 85.6796 14.8697C88.2404 14.8697 88.2986 14.8464 87.7748 14.148C87.4722 13.7522 87.4489 13.6591 87.3907 12.1343C87.3208 10.0274 87.3208 10.0158 88.5198 10.0158C89.5906 10.0158 89.4626 9.8994 90.8943 12.0761C92.2678 14.148 92.6636 14.4506 94.4096 14.7416C95.4456 14.9162 97.6106 14.9628 97.6106 14.8115C97.6106 14.6718 97.273 14.4041 96.7609 14.148C96.2022 13.857 95.3757 13.0655 94.6773 12.1576C94.107 11.4126 93.3038 10.1089 93.3038 9.93432C93.3038 9.87612 93.5482 9.70152 93.8625 9.5502C94.5958 9.18936 95.6434 8.10684 95.981 7.3968C96.2022 6.9312 96.2604 6.61691 96.2604 5.76719C96.2604 4.87091 96.2138 4.62647 95.9577 4.07939C95.6202 3.38099 94.6773 2.34503 94.0837 2.04239C92.8731 1.41383 92.7684 1.40219 87.8912 1.40219C85.3886 1.40219 83.2934 1.43711 83.2585 1.47203ZM92.6752 4.94075C93.1408 5.48783 93.1874 5.96507 92.8033 6.41903C92.3493 6.95447 92.1747 6.9894 89.7769 6.9894C87.8214 6.9894 87.4954 6.96612 87.4372 6.80316C87.3092 6.45395 87.3558 4.71959 87.5187 4.55663C87.6235 4.45187 88.2171 4.41695 89.9748 4.45187L92.2795 4.48679L92.6752 4.94075ZM100.055 1.56515C100.055 1.64663 100.136 1.79795 100.253 1.87943C100.73 2.28683 100.753 2.56619 100.753 8.0952C100.753 13.6242 100.73 13.9036 100.253 14.311C100.136 14.3924 100.055 14.5438 100.055 14.6252C100.055 14.7533 100.497 14.7882 102.441 14.7882C104.036 14.7882 104.827 14.7533 104.827 14.6602C104.827 14.602 104.699 14.3459 104.536 14.1131L104.245 13.6824V8.25816C104.245 2.57783 104.269 2.28683 104.758 1.86779C104.862 1.78631 104.944 1.64663 104.944 1.56515C104.944 1.43711 104.501 1.40219 102.499 1.40219C100.497 1.40219 100.055 1.43711 100.055 1.56515ZM18.9241 19.4908C17.6088 19.9331 17.0268 20.2823 16.1887 21.132C14.8501 22.4939 14.1517 24.2748 14.1517 26.3235C14.1517 29.0007 15.5136 31.3054 17.6903 32.3064C18.8659 32.8535 19.4246 32.9699 21.0892 33.0281C22.2415 33.063 22.6373 33.0397 23.359 32.8302C25.2796 32.3064 25.7219 32.2249 26.4552 32.2948C26.8975 32.3413 27.2002 32.3181 27.2467 32.2482C27.2816 32.1784 27.3166 31.3054 27.3166 30.2927C27.3166 29.2917 27.3515 28.0578 27.3864 27.5689C27.4446 26.7891 27.4912 26.6261 27.7822 26.3351C27.9684 26.1489 28.0848 25.9626 28.0382 25.9161C28.0033 25.8811 26.5134 25.8462 24.7325 25.8462C22.2764 25.8462 21.4733 25.8811 21.4034 25.9859C21.3569 26.0674 21.2987 26.661 21.2754 27.2896C21.2288 28.3023 21.2521 28.4303 21.4034 28.3721C21.5082 28.3372 22.195 28.2906 22.9399 28.279C24.4764 28.2557 24.5113 28.2673 24.5113 29.0705C24.5113 30.2578 24.1621 30.444 21.9505 30.444C20.3908 30.444 20.3675 30.444 19.5876 30.0483C18.2141 29.3615 17.6554 28.407 17.5622 26.5679C17.4458 24.6007 17.958 23.5299 19.3664 22.7383L20.1463 22.296H21.6013C22.8235 22.3077 23.1611 22.3426 23.7314 22.5637C24.7674 22.9595 25.0235 23.1108 25.7917 23.8209C26.1758 24.1817 26.525 24.4494 26.5716 24.4029C26.6065 24.3679 26.6531 23.4833 26.6531 22.4473L26.6647 20.5616L26.0478 20.2241C25.7102 20.0495 24.9536 19.7468 24.36 19.5606C23.359 19.2347 23.196 19.2114 21.4849 19.223C19.9484 19.223 19.5643 19.2696 18.9241 19.4908ZM50.7246 19.5024C49.1649 20.0844 48.0707 20.8759 47.2443 22.005C46.2781 23.332 45.9289 24.4378 45.9289 26.1372C45.9289 28.3139 46.7437 30.1181 48.3268 31.4334C49.7003 32.5741 51.0622 33.063 52.878 33.063C54.7172 33.063 56.2187 32.5392 57.4526 31.4916C59.1054 30.0599 59.897 28.3372 59.897 26.1372C59.897 22.9711 58.0695 20.4918 54.9965 19.4675C53.8791 19.095 51.7722 19.1066 50.7246 19.5024ZM53.914 22.2844C55.0431 22.587 55.9626 23.4018 56.4981 24.5658C56.8822 25.3923 56.9171 26.6494 56.5796 27.5922C56.2886 28.3837 55.2992 29.4313 54.4844 29.8038C53.6812 30.1763 52.168 30.1763 51.3881 29.8271C50.55 29.4313 49.8283 28.7213 49.3977 27.8599C49.0717 27.1848 49.0252 26.9869 49.0252 26.1489C49.0252 25.3806 49.0834 25.0896 49.3162 24.5658C50.1892 22.6918 52.0167 21.7722 53.914 22.2844ZM30.6805 19.5606C30.6805 19.6304 30.8202 19.8982 31.0064 20.1775L31.3207 20.6664V31.6429L30.9482 32.1784C30.7387 32.481 30.5641 32.7487 30.5641 32.772C30.5641 32.8651 35.4064 32.8419 35.4879 32.7604C35.5344 32.7138 35.4064 32.5043 35.2201 32.2831C34.7662 31.771 34.7429 31.6429 34.7778 29.8038L34.8127 28.2324L35.8836 28.1975L36.9429 28.1626L38.0719 29.8504C38.6889 30.7816 39.4105 31.7244 39.6783 31.9572C40.4465 32.6207 41.3311 32.8302 43.3216 32.8302C44.2761 32.8302 44.9977 32.7837 44.9977 32.7255C44.9977 32.6673 44.7533 32.4927 44.4507 32.3413C43.6242 31.9456 42.8443 31.2472 42.0761 30.2461C41.692 29.7573 41.3893 29.3149 41.3893 29.28C41.3893 29.2335 41.238 29.0007 41.0401 28.7562C40.5978 28.1975 40.5862 27.8599 41.0169 27.6853C41.6571 27.406 42.6581 26.533 43.0189 25.9393C43.4147 25.2991 43.7173 24.333 43.7173 23.7161C43.7173 23.2621 43.4729 22.4241 43.1586 21.8188C42.6115 20.7595 41.2729 19.805 39.9809 19.5606C39.1545 19.3976 30.6805 19.4093 30.6805 19.5606ZM39.2359 22.5172C40.0507 22.7733 40.3417 23.0875 40.3417 23.7627C40.3417 24.2399 40.2952 24.3563 39.9227 24.6706L39.5153 25.0314L37.164 25.0081L34.8127 24.9732L34.7778 23.7743C34.7429 22.6219 34.7545 22.5754 35.0106 22.4706C35.4529 22.296 38.5957 22.3309 39.2359 22.5172ZM62.0504 19.549C62.0154 19.6072 62.1202 19.8516 62.2832 20.0961C62.4461 20.3405 62.5974 20.6431 62.6324 20.7712C62.6556 20.9108 62.7022 22.6685 62.7255 24.6822C62.772 27.5107 62.8186 28.5118 62.9583 29.0472C63.4472 30.9096 64.4482 31.9805 66.2408 32.5509C67.137 32.8302 69.7677 32.9001 70.7571 32.6673C72.8872 32.1667 74.1327 30.9795 74.575 29.0123C74.6449 28.7097 74.738 26.7309 74.7845 24.624L74.8544 20.7828L75.1803 20.2125C75.3549 19.8982 75.4946 19.6072 75.4946 19.549C75.4946 19.4908 74.447 19.4442 73.1666 19.4442C71.7698 19.4442 70.8386 19.4908 70.8386 19.5606C70.8386 19.6188 70.9666 19.8516 71.1179 20.0844C71.5137 20.6664 71.5719 21.2833 71.5253 24.9383C71.4788 28.0811 71.4788 28.1277 71.1878 28.698C70.7571 29.5245 70.0936 29.8504 68.8132 29.8504C68.301 29.8504 67.6725 29.7805 67.4397 29.6991C66.8926 29.5128 66.3455 28.8959 66.1826 28.2906C66.0312 27.7319 65.9847 21.3415 66.1244 20.7246C66.1709 20.5035 66.3106 20.1892 66.427 20.0378C66.881 19.4558 66.8228 19.4442 64.39 19.4442C63.1096 19.4442 62.0969 19.4908 62.0504 19.549ZM78.6374 19.5955C78.6374 19.6886 78.7189 19.8283 78.812 19.9098C79.2776 20.2939 79.3358 21.0273 79.3358 26.1023C79.3358 31.2821 79.2892 31.8408 78.8003 32.3763C78.649 32.5392 78.521 32.7022 78.521 32.7487C78.521 32.8651 83.3865 32.8535 83.4564 32.7255C83.4913 32.6789 83.3981 32.5159 83.2468 32.3763C82.8278 31.9805 82.6997 31.3054 82.7347 29.6874L82.7696 28.2324L85.2722 28.1626C87.833 28.0811 88.1705 28.0345 89.1483 27.6039C89.8584 27.3012 90.9525 26.2071 91.325 25.4388C91.5694 24.9499 91.616 24.6822 91.616 23.8092C91.616 22.8897 91.5694 22.6801 91.2901 22.0865C90.8478 21.1902 89.998 20.3638 89.0319 19.8865L88.2404 19.5024L83.4447 19.4675C79.3125 19.4326 78.6374 19.4558 78.6374 19.5955ZM87.4838 22.5754C88.2986 23.0061 88.5896 23.6695 88.252 24.3214C87.9145 24.9732 87.6118 25.0431 85.1558 25.0431C83.9336 25.0431 82.886 25.0081 82.8278 24.9732C82.7579 24.9383 82.7114 24.3796 82.7114 23.751C82.7114 22.7733 82.7463 22.5754 82.9209 22.4706C83.2119 22.2844 87.1113 22.3775 87.4838 22.5754Z" fill="#3A3A39"/>
</g>
<defs>
<clipPath id="clip0_5328_1963">
<rect width="104.715" height="32.1264" fill="white" transform="translate(0.404053 0.936523)"/>
</clipPath>
</defs>
</svg>
