<svg width="160" height="34" viewBox="0 0 160 34" fill="none" xmlns="http://www.w3.org/2000/svg">
<path d="M82.7215 26.2586C82.6413 26.1241 82.5209 26.0181 82.3773 25.9556C82.2373 25.8919 82.0853 25.8593 81.9315 25.8597C81.818 25.8592 81.7049 25.8737 81.5952 25.9028C81.4896 25.9289 81.3892 25.9726 81.298 26.0318C81.2099 26.0888 81.1374 26.1668 81.0868 26.2586C81.0317 26.3599 81.004 26.4738 81.0066 26.5891C81.0054 26.6778 81.0206 26.766 81.0516 26.8492C81.0858 26.928 81.1372 26.9982 81.2021 27.0545C81.2878 27.1243 81.3826 27.1821 81.4837 27.2266C81.6259 27.2878 81.7715 27.3407 81.9198 27.3849C82.086 27.4377 82.2483 27.4945 82.4067 27.557C82.556 27.614 82.6963 27.6924 82.8232 27.7897C82.9434 27.8847 83.0415 28.0049 83.1106 28.1417C83.233 28.393 83.2638 28.6792 83.1978 28.9509C83.1317 29.2225 82.973 29.4626 82.7489 29.6297C82.6022 29.7365 82.4372 29.8154 82.262 29.8624C82.0766 29.9135 81.8852 29.9391 81.6929 29.9387C81.5658 29.9384 81.4389 29.9273 81.3136 29.9055C81.1888 29.8822 81.0664 29.8475 80.948 29.8018C80.832 29.7541 80.7223 29.6924 80.6214 29.618C80.518 29.5406 80.4287 29.446 80.3574 29.3384L80.7993 28.9766C80.8901 29.134 81.0265 29.2602 81.1904 29.3384C81.3558 29.42 81.5379 29.4622 81.7223 29.4616C81.8355 29.4607 81.948 29.4442 82.0566 29.4127C82.1647 29.3809 82.2671 29.3321 82.3597 29.268C82.4497 29.2061 82.5251 29.1254 82.5807 29.0314C82.639 28.9333 82.6688 28.8209 82.6667 28.7068C82.6709 28.594 82.6474 28.4819 82.5983 28.3802C82.5492 28.2911 82.4778 28.2164 82.391 28.1632C82.2799 28.093 82.1603 28.0371 82.0351 27.997L81.5326 27.8249C81.3855 27.7806 81.2423 27.7243 81.1044 27.6568C80.9792 27.5979 80.8644 27.5193 80.7641 27.4241C80.6673 27.3301 80.5902 27.2177 80.5373 27.0936C80.4792 26.9469 80.4512 26.7899 80.4552 26.6321C80.4497 26.4513 80.4881 26.2718 80.5671 26.109C80.6461 25.9463 80.7634 25.805 80.9088 25.6974C81.0512 25.5922 81.2106 25.5122 81.3801 25.4608C81.5591 25.4079 81.7449 25.3816 81.9315 25.3826C82.1601 25.3795 82.3874 25.4179 82.6022 25.496C82.8137 25.577 83.0005 25.7118 83.1439 25.8871L82.7215 26.2547V26.2586Z" fill="#3A3A39"/>
<path d="M89.5651 26.3856C89.4394 26.2168 89.2733 26.0824 89.0821 25.9945C88.8939 25.9077 88.689 25.863 88.4818 25.8635C88.2519 25.8612 88.0245 25.9114 87.817 26.0102C87.6184 26.105 87.4404 26.2379 87.2929 26.4013C87.1444 26.5709 87.0284 26.7664 86.9507 26.9781C86.8685 27.1962 86.8268 27.4275 86.8275 27.6605C86.8256 27.902 86.8673 28.1418 86.9507 28.3684C87.0281 28.5774 87.1434 28.7703 87.291 28.9374C87.436 29.1017 87.613 29.2348 87.8111 29.3285C88.0291 29.424 88.265 29.4719 88.503 29.4692C88.741 29.4666 88.9758 29.4132 89.1916 29.3128C89.4048 29.2056 89.5912 29.0519 89.7372 28.8631L90.1282 29.1877C89.9464 29.4369 89.7032 29.6349 89.4223 29.7626C89.1273 29.8892 88.8087 29.9519 88.4877 29.9464C88.1889 29.9491 87.8928 29.8905 87.6175 29.7743C87.3543 29.6652 87.1161 29.5035 86.9175 29.2992C86.7155 29.0938 86.5572 28.8497 86.4521 28.5815C86.3363 28.2912 86.2785 27.9809 86.282 27.6684C86.2759 27.3595 86.3283 27.0524 86.4364 26.763C86.54 26.4941 86.6955 26.2483 86.894 26.0395C87.0923 25.8337 87.3296 25.6696 87.5921 25.5565C87.8722 25.4354 88.1747 25.3748 88.4798 25.3786C88.7701 25.3779 89.058 25.4317 89.3285 25.537C89.5995 25.6443 89.8356 25.8242 90.0109 26.0571L89.5631 26.3817L89.5651 26.3856Z" fill="#3A3A39"/>
<path d="M93.2825 25.4921H93.7967V27.3301H96.1119V25.4921H96.6262V29.8291H96.1119V27.8073H93.7967V29.8291H93.2825V25.4921Z" fill="#3A3A39"/>
<path d="M102.17 29.4614C102.409 29.4643 102.645 29.4163 102.864 29.3206C103.07 29.229 103.255 29.0959 103.408 28.9296C103.56 28.7634 103.68 28.5696 103.76 28.3586C103.926 27.9055 103.926 27.4077 103.76 26.9546C103.68 26.743 103.56 26.5486 103.408 26.3817C103.249 26.2126 103.057 26.0785 102.844 25.9879C102.631 25.8973 102.401 25.8523 102.17 25.8557C101.93 25.8528 101.693 25.9007 101.474 25.9965C101.269 26.0887 101.084 26.2217 100.932 26.3875C100.78 26.5545 100.66 26.7489 100.58 26.9605C100.413 27.4136 100.413 27.9113 100.58 28.3645C100.66 28.5754 100.78 28.7692 100.932 28.9354C101.084 29.1017 101.268 29.2348 101.474 29.3265C101.693 29.4222 101.93 29.4702 102.17 29.4673V29.4614ZM102.17 29.9385C101.858 29.9425 101.549 29.884 101.261 29.7665C100.992 29.6576 100.748 29.496 100.543 29.2913C100.338 29.0856 100.178 28.84 100.072 28.5698C99.8475 27.9843 99.8475 27.3367 100.072 26.7512C100.178 26.4807 100.339 26.2346 100.543 26.0278C100.749 25.8243 100.993 25.6629 101.261 25.5526C101.846 25.3257 102.494 25.3257 103.079 25.5526C103.347 25.6625 103.59 25.8239 103.795 26.0278C104 26.234 104.16 26.4803 104.266 26.7512C104.493 27.3362 104.493 27.9848 104.266 28.5698C104.161 28.8404 104 29.0861 103.795 29.2913C103.591 29.4962 103.347 29.6578 103.079 29.7665C102.791 29.884 102.481 29.9425 102.17 29.9385Z" fill="#3A3A39"/>
<path d="M109.727 29.4614C109.966 29.4643 110.203 29.4163 110.422 29.3206C110.628 29.2295 110.812 29.0962 110.963 28.9296C111.117 28.7644 111.237 28.5703 111.315 28.3586C111.485 27.9059 111.485 27.4073 111.315 26.9546C111.237 26.7423 111.117 26.5476 110.963 26.3817C110.812 26.2155 110.627 26.0823 110.422 25.9906C110.202 25.8977 109.965 25.8499 109.727 25.8499C109.488 25.8499 109.251 25.8977 109.031 25.9906C108.826 26.0828 108.642 26.2159 108.49 26.3817C108.338 26.5501 108.22 26.7459 108.142 26.9585C107.975 27.4116 107.975 27.9094 108.142 28.3625C108.222 28.5735 108.341 28.7673 108.494 28.9335C108.645 29.0997 108.83 29.2329 109.035 29.3246C109.255 29.4203 109.492 29.4683 109.731 29.4653L109.727 29.4614ZM109.727 29.9385C109.416 29.9427 109.107 29.8842 108.818 29.7665C108.549 29.658 108.305 29.4964 108.101 29.2913C107.896 29.0856 107.735 28.84 107.629 28.5698C107.405 27.9843 107.405 27.3367 107.629 26.7512C107.736 26.4807 107.896 26.2346 108.101 26.0278C108.306 25.8239 108.55 25.6625 108.818 25.5526C109.403 25.3257 110.052 25.3257 110.637 25.5526C110.904 25.6625 111.147 25.8239 111.352 26.0278C111.557 26.2346 111.717 26.4807 111.824 26.7512C112.051 27.3362 112.051 27.9848 111.824 28.5698C111.718 28.84 111.557 29.0856 111.352 29.2913C111.148 29.4962 110.905 29.6578 110.637 29.7665C110.348 29.884 110.039 29.9425 109.727 29.9385Z" fill="#3A3A39"/>
<path d="M115.269 25.4921H115.783V29.3501H117.768V29.8291H115.269V25.4921Z" fill="#3A3A39"/>
<path d="M122.838 26.2584C122.759 26.1243 122.639 26.0184 122.496 25.9553C122.356 25.8915 122.203 25.8588 122.048 25.8595C121.935 25.8591 121.822 25.8736 121.712 25.9025C121.607 25.929 121.506 25.9726 121.415 26.0316C121.327 26.0886 121.254 26.1665 121.204 26.2584C121.149 26.3597 121.121 26.4736 121.124 26.5889C121.122 26.6778 121.138 26.7662 121.17 26.8489C121.203 26.9286 121.255 26.999 121.321 27.0542C121.406 27.1249 121.501 27.1822 121.603 27.2244C121.744 27.2876 121.889 27.3411 122.037 27.3847C122.205 27.4375 122.367 27.4942 122.524 27.5568C122.673 27.6138 122.813 27.6921 122.94 27.7895C123.061 27.884 123.159 28.0042 123.228 28.1414C123.305 28.307 123.342 28.4887 123.335 28.6714C123.34 28.8669 123.295 29.0605 123.206 29.2345C123.123 29.3884 123.007 29.5219 122.866 29.6256C122.719 29.7324 122.554 29.8113 122.379 29.8583C122.194 29.9093 122.002 29.935 121.81 29.9345C121.683 29.9342 121.556 29.923 121.431 29.9013C121.306 29.8781 121.183 29.8434 121.065 29.7977C120.949 29.7499 120.839 29.6882 120.738 29.6139C120.635 29.5365 120.546 29.4419 120.474 29.3342L120.916 28.9725C121.008 29.1295 121.144 29.2555 121.307 29.3342C121.473 29.4159 121.656 29.4581 121.841 29.4574C121.954 29.4564 122.066 29.4399 122.174 29.4085C122.282 29.3771 122.385 29.3283 122.479 29.2638C122.568 29.2013 122.642 29.1207 122.698 29.0272C122.756 28.9291 122.786 28.8167 122.784 28.7026C122.788 28.59 122.766 28.4779 122.717 28.3761C122.667 28.287 122.595 28.2123 122.508 28.159C122.397 28.0884 122.277 28.0325 122.152 27.9928L121.652 27.8208C121.504 27.7768 121.36 27.7205 121.221 27.6526C121.097 27.5932 120.983 27.5147 120.883 27.4199C120.785 27.327 120.708 27.2144 120.656 27.0894C120.597 26.9428 120.569 26.7859 120.572 26.628C120.567 26.4471 120.605 26.2676 120.684 26.1049C120.763 25.9421 120.88 25.8009 121.026 25.6933C121.168 25.5883 121.328 25.5083 121.497 25.4567C121.676 25.4038 121.862 25.3774 122.048 25.3785C122.277 25.3753 122.504 25.4138 122.719 25.4919C122.931 25.5729 123.117 25.7077 123.261 25.883L122.838 26.2506V26.2584Z" fill="#3A3A39"/>
<path d="M75.3262 27.997C75.4281 27.9981 75.5299 27.9929 75.6312 27.9813C75.6937 27.9748 75.7539 27.9541 75.8072 27.9207C75.8283 27.9058 75.8462 27.887 75.86 27.8651C75.8737 27.8433 75.883 27.819 75.8874 27.7936C75.9028 27.7216 75.9107 27.6482 75.9108 27.5746H76.0575V28.83H75.9108C75.9114 28.7562 75.9029 28.6826 75.8854 28.6109C75.8751 28.5596 75.8475 28.5134 75.8072 28.4799C75.7579 28.4459 75.7006 28.425 75.641 28.4193C75.5457 28.4068 75.4496 28.4015 75.3535 28.4037H44.5013C44.4112 28.4024 44.321 28.4069 44.2315 28.4174C44.1722 28.4225 44.1148 28.4405 44.0633 28.4702C44.0211 28.4986 43.99 28.5407 43.9753 28.5894C43.9572 28.6532 43.9467 28.7188 43.944 28.785H43.7954V27.6117H43.944C43.9441 27.678 43.954 27.7439 43.9733 27.8073C43.9908 27.8546 44.023 27.8951 44.0653 27.9226C44.1193 27.9533 44.1793 27.972 44.2412 27.9774C44.3367 27.9869 44.4327 27.9915 44.5287 27.9911L75.3262 27.997Z" fill="#3A3A39"/>
<path d="M159.19 27.997C159.292 27.9982 159.395 27.993 159.497 27.9813C159.559 27.9745 159.618 27.9538 159.671 27.9207C159.713 27.8897 159.742 27.8445 159.753 27.7936C159.766 27.7213 159.774 27.6481 159.776 27.5746H159.923V28.83H159.776C159.775 28.7563 159.766 28.683 159.751 28.6109C159.74 28.5594 159.712 28.5132 159.671 28.4799C159.622 28.4462 159.565 28.4254 159.506 28.4193C159.411 28.4068 159.314 28.4015 159.217 28.4037H128.365C128.275 28.4023 128.186 28.4069 128.097 28.4174C128.037 28.4225 127.979 28.4405 127.927 28.4702C127.885 28.4982 127.854 28.5406 127.841 28.5894C127.822 28.653 127.811 28.7187 127.808 28.785H127.661V27.6117H127.808C127.808 27.6781 127.819 27.744 127.839 27.8073C127.856 27.8545 127.887 27.895 127.929 27.9226C127.983 27.9535 128.044 27.9722 128.107 27.9774C128.202 27.9869 128.297 27.9915 128.392 27.9911L159.19 27.997Z" fill="#3A3A39"/>
<path d="M54.8045 17.7446C54.8001 18.0492 54.8178 18.3537 54.8573 18.6558C54.8755 18.852 54.9525 19.038 55.0783 19.1896C55.2066 19.321 55.3715 19.4109 55.5515 19.4478C55.8168 19.5057 56.0875 19.5358 56.359 19.5377V20.1243H50.925V19.5377C51.2205 19.5357 51.5151 19.5056 51.8049 19.4478C51.9973 19.4134 52.1766 19.3268 52.3231 19.1975C52.456 19.0595 52.5416 18.8828 52.5675 18.693C52.6121 18.4137 52.6323 18.131 52.6281 17.8482V14.7528H47.1335V17.7446C47.1286 18.0494 47.1483 18.3541 47.1922 18.6558C47.2063 18.854 47.2887 19.0411 47.4252 19.1855C47.5617 19.3299 47.744 19.4225 47.9411 19.4478C48.2308 19.5057 48.5255 19.5358 48.821 19.5377V20.1243H43.4006V19.5377C43.6722 19.5358 43.9429 19.5057 44.2082 19.4478C44.3852 19.412 44.5477 19.325 44.6756 19.1975C44.7947 19.0532 44.8713 18.8784 44.8965 18.693C44.941 18.4137 44.9613 18.131 44.9571 17.8482V11.0044C44.9615 10.7244 44.9438 10.4446 44.9043 10.1674C44.8825 9.98615 44.8152 9.8133 44.7088 9.6649C44.6 9.53613 44.4514 9.44735 44.2864 9.41266C44.0503 9.36073 43.8103 9.32868 43.5688 9.31684V8.73022H48.6763V9.31684C48.4055 9.31923 48.1356 9.34871 47.8707 9.40484C47.6903 9.44194 47.5265 9.53582 47.4033 9.67273C47.2842 9.82692 47.2098 10.0109 47.1882 10.2046C47.1474 10.5079 47.1291 10.8137 47.1335 11.1197V13.8455H52.6281V11.0063C52.6325 10.7261 52.6122 10.4461 52.5675 10.1694C52.5403 9.98509 52.464 9.81152 52.3466 9.66686C52.2219 9.53484 52.058 9.4464 51.8792 9.41461C51.6129 9.36196 51.3429 9.32993 51.0716 9.3188V8.73218H56.1967V9.3188C55.955 9.32146 55.7143 9.35097 55.4791 9.40679C55.3122 9.44607 55.1634 9.54044 55.0567 9.67468C54.9468 9.83216 54.8795 10.0154 54.8612 10.2065C54.8214 10.506 54.8038 10.8079 54.8084 11.1099V17.7446H54.8045Z" fill="#3A3A39"/>
<path d="M60.7429 10.592C60.6185 10.3726 60.4827 10.1599 60.3362 9.95455C60.2296 9.80629 60.1018 9.67452 59.9569 9.56347C59.8335 9.47071 59.6924 9.40417 59.5423 9.36793C59.3772 9.33247 59.2087 9.31542 59.0398 9.31709V8.73047H64.0163V9.31709C63.7201 9.29894 63.4232 9.33879 63.1422 9.43441C63.0696 9.46197 63.0068 9.51054 62.9619 9.57392C62.9169 9.63731 62.8919 9.71263 62.89 9.7903C62.8936 9.91193 62.9215 10.0316 62.9721 10.1423C63.0308 10.2811 63.1246 10.4688 63.2517 10.7054L65.3694 14.7472H65.43L67.2955 11.6381C67.6214 11.0841 67.8482 10.6722 67.9759 10.4023C68.0852 10.2031 68.1518 9.98339 68.1715 9.75706C68.1758 9.68189 68.1557 9.60734 68.1141 9.54458C68.0725 9.48182 68.0117 9.43425 67.9408 9.409C67.6648 9.32849 67.3771 9.29608 67.0902 9.31318V8.72656H70.8054V9.31318C70.6052 9.31159 70.4064 9.34672 70.2188 9.41682C70.0063 9.51037 69.8168 9.64917 69.6635 9.82354C69.4234 10.0866 69.2056 10.3692 69.0123 10.6683C68.7698 11.0281 68.4811 11.4993 68.1461 12.082L65.9834 15.7855V17.2951C65.9772 17.6912 65.9995 18.0872 66.0499 18.4801C66.0745 18.7205 66.1555 18.9516 66.2865 19.1547C66.4011 19.3082 66.5669 19.4157 66.7538 19.4578C67.0068 19.5127 67.2654 19.5377 67.5243 19.5321V20.1187H62.2447V19.5321C62.5009 19.537 62.7568 19.512 63.0073 19.4578C63.1974 19.4166 63.3678 19.3117 63.4903 19.1606C63.6252 18.9704 63.7093 18.749 63.7347 18.5172C63.7841 18.1465 63.8063 17.7727 63.8012 17.3987V16.03L60.7429 10.592Z" fill="#3A3A39"/>
<path d="M77.0759 9.62984C77.0418 9.62528 77.0071 9.62867 76.9745 9.63976C76.9419 9.65085 76.9123 9.66934 76.8881 9.69378C76.8638 9.71821 76.8456 9.74793 76.8348 9.7806C76.8239 9.81327 76.8208 9.84801 76.8256 9.88209V17.5375C76.8256 18.111 77.0029 18.536 77.3575 18.8124C77.7121 19.0887 78.2602 19.2269 79.002 19.2269C80.2938 19.2269 81.2885 18.8358 81.9859 18.0537C82.6833 17.2715 83.0314 16.1361 83.0301 14.6474C83.0399 13.9315 82.9451 13.2181 82.7485 12.5297C82.5853 11.9553 82.3087 11.4194 81.9351 10.9536C81.585 10.5312 81.1411 10.1963 80.6386 9.97595C80.0988 9.7428 79.5156 9.62684 78.9277 9.63571L77.0759 9.62984ZM73.0928 20.1303V19.5437C73.3554 19.5399 73.6172 19.5124 73.8749 19.4616C74.0558 19.4292 74.2219 19.341 74.3501 19.2093C74.4724 19.0669 74.5517 18.8926 74.5789 18.7068C74.6231 18.4248 74.6427 18.1396 74.6375 17.8542V11.0104C74.6414 10.7307 74.6271 10.4512 74.5945 10.1734C74.5754 9.99148 74.5078 9.81796 74.399 9.67091C74.295 9.54416 74.152 9.45545 73.9923 9.41866C73.7706 9.36688 73.5449 9.33482 73.3176 9.32285V8.73623H78.9453C79.8388 8.72715 80.7267 8.87746 81.5675 9.1801C82.3302 9.45481 83.0336 9.87223 83.6402 10.41C84.2226 10.9287 84.689 11.5643 85.0089 12.2755C85.3372 13.0139 85.5039 13.8139 85.4978 14.622C85.5059 15.3893 85.3492 16.1495 85.0383 16.8511C84.741 17.5163 84.3042 18.1098 83.7575 18.5914C83.1799 19.0917 82.5113 19.4761 81.7884 19.7236C80.9759 20.0034 80.1214 20.1417 79.2621 20.1323L73.0928 20.1303Z" fill="#3A3A39"/>
<path d="M92.0195 13.8202C92.6517 13.8202 93.1601 13.8007 93.5447 13.7616C93.8569 13.743 94.1619 13.6598 94.4403 13.5171C94.6507 13.3973 94.811 13.2057 94.8919 12.9775C94.998 12.6652 95.0676 12.3417 95.0992 12.0135H95.6487V16.3525H95.0992C95.0591 16.0286 94.9796 15.7108 94.8626 15.4061C94.7714 15.1767 94.6044 14.9856 94.3894 14.8644C94.1149 14.7257 93.8147 14.6451 93.5075 14.6278C93.1373 14.5926 92.6413 14.575 92.0195 14.575V17.6274C92.012 17.8994 92.0544 18.1704 92.1446 18.4271C92.227 18.6418 92.3748 18.8251 92.567 18.9512C92.8042 19.1007 93.0711 19.1968 93.3491 19.2328C94.222 19.353 95.1079 19.3412 95.9772 19.1976C96.331 19.1364 96.6657 18.9938 96.9549 18.7811C97.2223 18.5704 97.4355 18.2989 97.5767 17.9891C97.7543 17.5883 97.8855 17.1684 97.9678 16.7377H98.5544L98.3178 20.1303H88.2769V19.5437C88.5452 19.5409 88.8125 19.5107 89.0746 19.4537C89.2544 19.4194 89.4198 19.3322 89.5498 19.2034C89.669 19.0591 89.7455 18.8844 89.7708 18.6989C89.8163 18.4198 89.8366 18.137 89.8314 17.8542V11.0103C89.8358 10.7304 89.8181 10.4506 89.7786 10.1734C89.7576 9.99192 89.6902 9.81886 89.583 9.67089C89.4746 9.54176 89.3258 9.45291 89.1607 9.41864C88.9246 9.36659 88.6845 9.33454 88.4431 9.32282V8.73621H97.8016L97.9052 11.638H97.2697C97.2258 11.2834 97.131 10.937 96.9881 10.6095C96.8693 10.3501 96.6854 10.1258 96.4543 9.95833C96.1904 9.77962 95.8897 9.66266 95.5744 9.61613C95.1359 9.54708 94.6924 9.51503 94.2486 9.52032H92.5748C92.4108 9.49793 92.244 9.53169 92.1016 9.61613C92.0235 9.75369 91.9919 9.91283 92.0117 10.0698V13.83L92.0195 13.8202Z" fill="#3A3A39"/>
<path d="M113.196 14.2798H114.16C115.117 14.2798 115.818 14.0875 116.262 13.7029C116.707 13.3184 116.929 12.7109 116.929 11.8805C116.929 11.1394 116.734 10.5684 116.366 10.1617C115.998 9.75498 115.404 9.55553 114.606 9.55553H113.466C113.288 9.55553 113.198 9.63961 113.198 9.80778V14.2798H113.196ZM119.313 11.902C119.313 12.967 118.898 13.7785 118.069 14.3365C117.24 14.8944 116.035 15.174 114.456 15.1753H113.196V17.7682C113.19 18.0737 113.215 18.3789 113.271 18.6794C113.307 18.8909 113.417 19.0827 113.581 19.2211C113.773 19.3617 113.998 19.4482 114.235 19.4713C114.603 19.5176 114.974 19.5378 115.345 19.532V20.1186H109.465V19.532C109.734 19.5291 110.002 19.499 110.265 19.442C110.444 19.4081 110.609 19.3208 110.738 19.1917C110.858 19.0476 110.935 18.8729 110.961 18.6872C111.005 18.4079 111.025 18.1252 111.02 17.8425V10.9986C111.024 10.7188 111.007 10.439 110.969 10.1617C110.948 9.9802 110.881 9.80715 110.773 9.65917C110.665 9.52968 110.516 9.44075 110.351 9.40692C110.115 9.35472 109.875 9.32266 109.633 9.31111V8.72449H114.759C116.259 8.72449 117.394 8.99107 118.163 9.52424C118.932 10.0574 119.317 10.8474 119.319 11.8942L119.313 11.902Z" fill="#3A3A39"/>
<path d="M123.356 15.7913H126.876L125.173 11.3037H125.114L123.354 15.7913H123.356ZM127.207 16.6791H123.016C122.551 17.722 122.319 18.4474 122.32 18.8554C122.32 19.1527 122.43 19.3404 122.652 19.4186C122.977 19.512 123.314 19.5523 123.652 19.5379V20.1245H119.594V19.5379C119.801 19.5128 120.007 19.4729 120.208 19.4186C120.371 19.3739 120.526 19.304 120.668 19.2113C120.805 19.1189 120.923 19.0007 121.016 18.8633C121.127 18.6981 121.222 18.5218 121.297 18.3373L125.193 8.57788H126.288L129.829 17.2266C130.036 17.7311 130.211 18.1261 130.353 18.4116C130.467 18.6561 130.622 18.8791 130.812 19.0705C130.971 19.2212 131.165 19.3306 131.376 19.3893C131.645 19.4578 131.92 19.5023 132.197 19.5222V20.1304H126.598V19.5281C126.945 19.5293 127.289 19.4792 127.621 19.3795C127.718 19.3467 127.802 19.2822 127.858 19.1965C127.914 19.1107 127.941 19.0085 127.932 18.9063C127.924 18.7243 127.889 18.5444 127.828 18.3725C127.76 18.1554 127.666 17.8895 127.547 17.5727L127.207 16.685V16.6791Z" fill="#3A3A39"/>
<path d="M137.795 13.9845H138.757C139.687 13.9845 140.381 13.804 140.84 13.4429C141.299 13.0818 141.528 12.4867 141.528 11.6576C141.539 11.3768 141.493 11.0967 141.392 10.8344C141.291 10.5721 141.138 10.3332 140.941 10.1324C140.55 9.74129 140.024 9.55553 139.342 9.55553H138.059C137.881 9.55553 137.791 9.63961 137.791 9.80778V13.9845H137.795ZM143.837 11.5852C143.862 12.3349 143.609 13.0673 143.127 13.6423C142.653 14.195 141.898 14.5653 140.861 14.753L144.297 18.6931C144.526 18.9651 144.815 19.1806 145.142 19.3227C145.453 19.463 145.791 19.5363 146.133 19.5378V20.1244H142.613L138.941 15.627C138.761 15.3918 138.543 15.1888 138.296 15.0267C138.142 14.9317 137.966 14.8784 137.785 14.8723V17.7682C137.78 18.0691 137.805 18.3698 137.86 18.6657C137.896 18.8731 138 19.0628 138.155 19.2054C138.342 19.3502 138.565 19.4403 138.8 19.4655C139.175 19.5151 139.554 19.5373 139.932 19.532V20.1186H134.054V19.532C134.317 19.5359 134.579 19.5137 134.837 19.4655C135.017 19.4323 135.182 19.3442 135.31 19.2132C135.434 19.0659 135.513 18.8861 135.539 18.6951C135.584 18.4132 135.604 18.1279 135.599 17.8425V10.9986C135.603 10.719 135.588 10.4394 135.554 10.1617C135.535 9.97972 135.468 9.80617 135.359 9.65917C135.25 9.53039 135.101 9.44161 134.936 9.40692C134.695 9.35447 134.45 9.32242 134.203 9.31111V8.72449H139.326C140.76 8.72449 141.868 8.97608 142.65 9.47927C143.016 9.6934 143.317 10.0014 143.524 10.3714C143.73 10.7414 143.834 11.1598 143.824 11.5833L143.837 11.5852Z" fill="#3A3A39"/>
<path d="M151.748 17.7446C151.742 18.0466 151.759 18.3485 151.798 18.648C151.819 18.8393 151.886 19.0226 151.994 19.1818C152.101 19.3152 152.25 19.4088 152.416 19.4478C152.656 19.5056 152.902 19.5358 153.15 19.5377V20.1243H148.011V19.5377C148.28 19.535 148.548 19.5049 148.81 19.4478C148.99 19.4138 149.155 19.3266 149.284 19.1975C149.404 19.0538 149.482 18.8789 149.507 18.693C149.55 18.4136 149.57 18.131 149.565 17.8482V11.0044C149.57 10.7271 149.553 10.4499 149.514 10.1753C149.495 9.99341 149.427 9.82001 149.319 9.67273C149.208 9.54656 149.06 9.45834 148.897 9.42048C148.66 9.36336 148.42 9.32866 148.177 9.31684V8.73022H153.286V9.31684C153.016 9.31923 152.746 9.34871 152.481 9.40484C152.3 9.44194 152.137 9.53582 152.013 9.67273C151.894 9.82651 151.819 10.0107 151.798 10.2046C151.759 10.508 151.742 10.8138 151.748 11.1197V14.4087L155.582 10.2906C155.765 10.13 155.886 9.90974 155.922 9.66882C155.922 9.56127 155.852 9.47328 155.709 9.41657C155.455 9.34438 155.191 9.31465 154.927 9.32858V8.74196H158.969V9.3188C158.777 9.32552 158.586 9.34577 158.398 9.37942C158.224 9.41461 158.059 9.48086 157.909 9.57496C157.714 9.69889 157.531 9.84026 157.361 9.99732C157.166 10.1792 156.91 10.4236 156.614 10.7306L153.965 13.4662L158.318 18.7692C158.502 19.0062 158.737 19.1987 159.006 19.3324C159.316 19.4634 159.647 19.5337 159.984 19.5397V20.1263H154.509V19.5397C154.803 19.5438 155.096 19.509 155.381 19.436C155.559 19.3754 155.649 19.2776 155.649 19.1388C155.649 19.0909 155.641 19.0433 155.625 18.998C155.606 18.9416 155.581 18.8873 155.551 18.8357C155.505 18.7532 155.453 18.6741 155.396 18.5991C155.326 18.5052 155.234 18.3899 155.115 18.251L152.483 15.0305L151.744 15.8009V17.7563L151.748 17.7446Z" fill="#3A3A39"/>
<path d="M16.9067 0.678223C21.2353 0.678875 25.387 2.39871 28.4478 5.45947C31.5083 8.52014 33.2283 12.6712 33.229 16.9995C33.2284 21.3281 31.5085 25.4798 28.4478 28.5405C25.387 31.6013 21.2353 33.3211 16.9067 33.3218C12.5784 33.321 8.42737 31.6011 5.3667 28.5405C2.30593 25.4798 0.586102 21.3281 0.585449 16.9995C0.586183 12.671 2.30601 8.52017 5.3667 5.45947C8.42739 2.39878 12.5783 0.678955 16.9067 0.678223Z" stroke="#3A3A39" stroke-width="0.933455"/>
<path d="M12.8335 10.6842H12.9424V10.0321H12.8335V9.90674H13.5033V10.1385H13.3615V10.0397H13.1083V10.2879H13.4058V10.4208H13.1083V10.6753H13.3805V10.5728H13.5223V10.8083H12.8335V10.6842Z" fill="#3A3A39"/>
<path d="M14.2151 10.5169V10.5841C14.2151 10.6423 14.2886 10.6777 14.3734 10.6777C14.4582 10.6777 14.5304 10.6372 14.5304 10.5651C14.5304 10.4739 14.4279 10.4384 14.3228 10.4043C14.2177 10.3701 14.0847 10.3042 14.0847 10.1422C14.0847 9.98008 14.2316 9.88892 14.3861 9.88892C14.5405 9.88892 14.6722 9.94336 14.6722 10.0472V10.1662H14.5215V10.1042C14.5215 10.0586 14.4544 10.0345 14.3861 10.0345C14.3177 10.0345 14.2518 10.0649 14.2518 10.1333C14.2518 10.2017 14.3354 10.246 14.4304 10.2814C14.5646 10.3295 14.6988 10.3827 14.6988 10.5511C14.6988 10.7195 14.5443 10.8208 14.3734 10.8208C14.224 10.8208 14.0645 10.7537 14.0645 10.617V10.5144L14.2151 10.5169Z" fill="#3A3A39"/>
<path d="M15.3899 10.6842H15.4975V10.0397H15.3278V10.1764H15.186V9.90674H15.9761V10.1764H15.8356V10.0397H15.6634V10.6842H15.7723V10.8083H15.3899V10.6842Z" fill="#3A3A39"/>
<path d="M16.4167 10.646H16.5784V10.8077H16.4167V10.646Z" fill="#3A3A39"/>
<path d="M17.7851 10.6751H17.9813V10.1687C17.9813 10.137 17.9813 10.1079 17.9813 10.1079C17.9706 10.1265 17.9574 10.1435 17.9421 10.1585L17.8699 10.2269L17.7737 10.1244L17.9991 9.90784H18.1434V10.6764H18.3371V10.803H17.7864V10.6764L17.7851 10.6751Z" fill="#3A3A39"/>
<path d="M19.0705 10.3574C19.0876 10.3598 19.1051 10.3588 19.1218 10.3542C19.1385 10.3497 19.1541 10.3418 19.1676 10.331C19.1811 10.3202 19.1923 10.3068 19.2004 10.2915C19.2086 10.2762 19.2134 10.2594 19.2148 10.2421C19.2158 10.1921 19.1983 10.1434 19.1656 10.1056C19.1328 10.0677 19.0872 10.0433 19.0376 10.037C19.0178 10.0378 18.9984 10.0426 18.9806 10.0512C18.9627 10.0597 18.9469 10.0719 18.9339 10.0868C18.921 10.1018 18.9113 10.1192 18.9053 10.1381C18.8994 10.157 18.8975 10.1769 18.8995 10.1966C18.8985 10.2188 18.9023 10.2411 18.9107 10.2617C18.919 10.2824 18.9318 10.301 18.948 10.3163C18.9643 10.3316 18.9836 10.3432 19.0048 10.3502C19.0259 10.3573 19.0483 10.3598 19.0705 10.3574ZM19.0376 9.89141C19.2313 9.89141 19.3858 10.0484 19.3858 10.313C19.3858 10.5574 19.2515 10.8195 18.9629 10.8195C18.9001 10.8201 18.8379 10.8071 18.7805 10.7815L18.8274 10.6435C18.867 10.6624 18.9101 10.6728 18.954 10.6739C19.0983 10.6739 19.1743 10.5473 19.1971 10.4207C19.1482 10.4633 19.0847 10.4855 19.0198 10.4827C18.9811 10.4832 18.9427 10.4759 18.9069 10.4613C18.8711 10.4466 18.8386 10.4248 18.8114 10.3972C18.7842 10.3697 18.7628 10.3369 18.7486 10.3009C18.7344 10.2649 18.7276 10.2264 18.7286 10.1877C18.7279 10.1472 18.7354 10.107 18.7507 10.0695C18.7659 10.032 18.7886 9.99797 18.8174 9.96946C18.8461 9.94096 18.8803 9.91856 18.9179 9.90362C18.9556 9.88868 18.9958 9.88151 19.0363 9.88254L19.0376 9.89141Z" fill="#3A3A39"/>
<path d="M20.2029 10.6777C20.223 10.6773 20.2427 10.6727 20.2609 10.6642C20.2791 10.6557 20.2953 10.6435 20.3084 10.6283C20.3215 10.6131 20.3313 10.5954 20.3372 10.5762C20.343 10.557 20.3447 10.5368 20.3422 10.5169C20.3433 10.494 20.3394 10.4712 20.3308 10.45C20.3221 10.4289 20.309 10.4098 20.2922 10.3943C20.2754 10.3787 20.2555 10.367 20.2337 10.36C20.212 10.3529 20.1889 10.3507 20.1662 10.3535C20.0852 10.3535 20.0257 10.4004 20.0257 10.4675C20.0242 10.5182 20.0415 10.5676 20.0742 10.6064C20.1069 10.6452 20.1527 10.6705 20.2029 10.6777ZM19.856 10.4016C19.856 10.1484 19.9915 9.89518 20.2776 9.89518C20.3396 9.89438 20.4011 9.90735 20.4574 9.93316L20.4106 10.0699C20.3709 10.0514 20.3278 10.0415 20.284 10.0408C20.1422 10.0408 20.0649 10.1674 20.0409 10.294C20.0899 10.2506 20.1539 10.2279 20.2194 10.2307C20.2582 10.2303 20.2967 10.2379 20.3326 10.2528C20.3684 10.2677 20.4009 10.2897 20.428 10.3175C20.4551 10.3453 20.4762 10.3783 20.4902 10.4146C20.5042 10.4508 20.5107 10.4895 20.5094 10.5283C20.5102 10.5687 20.5029 10.6089 20.4878 10.6464C20.4727 10.6839 20.4501 10.7179 20.4215 10.7464C20.3928 10.775 20.3587 10.7974 20.3211 10.8123C20.2836 10.8273 20.2434 10.8345 20.2029 10.8334C20.0079 10.8334 19.8547 10.6777 19.8547 10.4118L19.856 10.4016Z" fill="#3A3A39"/>
<path d="M21.3673 10.3043C21.4033 10.2624 21.4247 10.21 21.4281 10.1549C21.4281 10.0764 21.3736 10.0283 21.2901 10.0283C21.2065 10.0283 21.1634 10.0751 21.1634 10.1334C21.1634 10.222 21.2597 10.26 21.3686 10.2992L21.3673 10.3043ZM21.2888 10.6842C21.3259 10.6877 21.3629 10.6763 21.3916 10.6526C21.4204 10.6288 21.4385 10.5946 21.442 10.5575C21.442 10.4714 21.3458 10.4448 21.2154 10.3866C21.1908 10.4041 21.1703 10.4268 21.1554 10.453C21.1406 10.4793 21.1316 10.5085 21.1293 10.5385C21.1297 10.5588 21.1343 10.5787 21.1426 10.5971C21.151 10.6156 21.163 10.6321 21.1778 10.6459C21.1927 10.6596 21.2102 10.6701 21.2293 10.6769C21.2483 10.6837 21.2686 10.6866 21.2888 10.6854V10.6842ZM21.1052 10.3195C21.0739 10.3007 21.0479 10.2742 21.0297 10.2425C21.0115 10.2108 21.0018 10.175 21.0014 10.1384C21.0023 10.1028 21.0107 10.0678 21.0261 10.0357C21.0414 10.0036 21.0634 9.97509 21.0905 9.95203C21.1176 9.92897 21.1493 9.91189 21.1835 9.9019C21.2176 9.89191 21.2535 9.88924 21.2888 9.89405C21.461 9.89405 21.5864 9.98902 21.5864 10.1372C21.5811 10.2225 21.5451 10.303 21.4851 10.3638C21.522 10.3816 21.5533 10.4092 21.5756 10.4436C21.598 10.478 21.6104 10.5178 21.6117 10.5588C21.6092 10.5976 21.5988 10.6356 21.5812 10.6703C21.5637 10.705 21.5392 10.7357 21.5094 10.7607C21.4795 10.7857 21.4449 10.8044 21.4077 10.8156C21.3704 10.8268 21.3313 10.8303 21.2926 10.826C21.2534 10.8303 21.2138 10.8267 21.1761 10.8153C21.1383 10.8039 21.1033 10.7849 21.0731 10.7596C21.043 10.7343 21.0182 10.7031 21.0005 10.6679C20.9827 10.6327 20.9722 10.5943 20.9697 10.555C20.9729 10.5076 20.9872 10.4616 21.0114 10.4207C21.0355 10.3798 21.069 10.3451 21.109 10.3195H21.1052Z" fill="#3A3A39"/>
<path d="M17.5737 18.9282C17.5708 19.1351 17.5823 19.342 17.6079 19.5474C17.6212 19.6809 17.6741 19.8075 17.7599 19.9108C17.8474 19.9999 17.9593 20.0611 18.0815 20.0868C18.2622 20.1253 18.4462 20.1457 18.631 20.1475V20.5502H14.935V20.1475C15.1361 20.1456 15.3366 20.1253 15.5339 20.0868C15.6645 20.0627 15.7862 20.0036 15.8859 19.9158C15.9767 19.8221 16.0352 19.7019 16.053 19.5727C16.0826 19.383 16.0957 19.1911 16.0923 18.9991V16.8934H12.3558V18.9282C12.3526 19.1353 12.3661 19.3424 12.3963 19.5474C12.4124 19.6818 12.4684 19.8084 12.5571 19.9108C12.6534 20.0023 12.7745 20.0635 12.9053 20.0868C13.1027 20.1253 13.3031 20.1456 13.5042 20.1475V20.5502H9.81836V20.1475C10.0027 20.1457 10.1864 20.1253 10.3666 20.0868C10.4869 20.0618 10.5973 20.0024 10.6844 19.9158C10.7659 19.8178 10.8181 19.6989 10.8351 19.5727C10.8651 19.383 10.8787 19.1911 10.8756 18.9991V14.3459C10.8788 14.1557 10.867 13.9656 10.8402 13.7774C10.8249 13.6533 10.7783 13.5352 10.7047 13.4342C10.631 13.3463 10.5297 13.2861 10.4173 13.2633C10.2564 13.228 10.093 13.206 9.92852 13.1974V12.7948H13.4042V13.1974C13.2195 13.1993 13.0353 13.2196 12.8547 13.2582C12.7322 13.2832 12.6208 13.3467 12.5369 13.4393C12.4564 13.5446 12.4061 13.6697 12.3913 13.8014C12.3644 14.0054 12.3525 14.2111 12.3558 14.4168V16.2692H16.0923V14.3459C16.0961 14.1555 16.0826 13.9652 16.0518 13.7774C16.034 13.6513 15.9819 13.5326 15.9011 13.4342C15.8167 13.3448 15.7057 13.2848 15.5846 13.2633C15.4033 13.2278 15.2196 13.2058 15.035 13.1974V12.7948H18.5196V13.1974C18.3553 13.1996 18.1918 13.22 18.0321 13.2582C17.9187 13.2846 17.8175 13.3484 17.7447 13.4393C17.6698 13.5468 17.6228 13.6712 17.6079 13.8014C17.5822 14.0055 17.5708 14.2111 17.5737 14.4168V18.9282Z" fill="#3A3A39"/>
<path d="M18.7121 12.6023H14.8439V13.3785L15.0237 13.3886C15.198 13.3968 15.3715 13.4175 15.5428 13.4506C15.624 13.4639 15.6989 13.5024 15.7568 13.5608C15.8144 13.6342 15.8515 13.7216 15.8645 13.814C15.8919 13.9908 15.9042 14.1695 15.9012 14.3484V16.0805H12.5483V14.4231C12.5455 14.2271 12.5565 14.0312 12.5813 13.8368C12.5904 13.7401 12.6259 13.6477 12.6838 13.5697C12.7413 13.5077 12.8172 13.466 12.9003 13.4506C13.0669 13.4158 13.2366 13.3975 13.4068 13.3962H13.5929V12.615H9.73487V13.3899L9.9134 13.4013C10.0667 13.41 10.219 13.4304 10.3692 13.462C10.4402 13.4751 10.5046 13.5122 10.5516 13.5671C10.6049 13.642 10.6384 13.7291 10.6491 13.8204C10.6731 13.9987 10.6837 14.1786 10.6807 14.3585V19.0117C10.6842 19.1922 10.6719 19.3727 10.644 19.5511C10.6343 19.6437 10.5983 19.7316 10.5402 19.8043C10.4795 19.864 10.4023 19.9041 10.3186 19.9196C10.152 19.9544 9.98233 19.9727 9.81212 19.974H9.62598V20.7413H13.698V19.9601H13.5106C13.3219 19.9584 13.1338 19.9398 12.9484 19.9044C12.8534 19.888 12.7653 19.844 12.6952 19.7778C12.6331 19.7034 12.5948 19.6121 12.585 19.5157C12.5564 19.3212 12.5437 19.1247 12.5471 18.9281V17.0821H15.8999V18.9953C15.9031 19.1758 15.8904 19.3563 15.8619 19.5346C15.8516 19.6237 15.813 19.7072 15.7518 19.7727C15.6782 19.8381 15.5879 19.882 15.4909 19.8993C15.3056 19.9347 15.1174 19.9534 14.9288 19.955H14.7414V20.7413H18.821V19.9601H18.6349C18.4647 19.9587 18.295 19.9405 18.1284 19.9056C18.0425 19.8892 17.9635 19.8473 17.9017 19.7854C17.8426 19.7104 17.807 19.6197 17.7992 19.5245C17.7746 19.3284 17.7636 19.1308 17.7663 18.9332V14.4231C17.7634 14.2271 17.7744 14.0312 17.7992 13.8368C17.8095 13.739 17.8434 13.6452 17.898 13.5633C17.9447 13.5053 18.01 13.4651 18.0828 13.4494C18.2286 13.4157 18.3776 13.3979 18.5273 13.3962H18.7134V12.615L18.7121 12.6023ZM18.5196 12.7948V13.1974C18.3554 13.1995 18.1919 13.2199 18.0322 13.2582C17.9188 13.2846 17.8175 13.3484 17.7447 13.4392C17.6699 13.5468 17.6229 13.6712 17.608 13.8014C17.5823 14.0054 17.5709 14.2111 17.5738 14.4167V18.9281C17.5709 19.1351 17.5823 19.342 17.608 19.5473C17.6213 19.6809 17.6742 19.8074 17.7599 19.9107C17.8474 19.9998 17.9593 20.061 18.0816 20.0867C18.2622 20.1253 18.4463 20.1456 18.6311 20.1475V20.5501H14.9351V20.1475C15.1362 20.1456 15.3366 20.1252 15.534 20.0867C15.6646 20.0626 15.7863 20.0035 15.886 19.9158C15.9767 19.822 16.0353 19.7019 16.0531 19.5726C16.0826 19.3829 16.0958 19.191 16.0924 18.9991V16.8934H12.3559V18.9281C12.3527 19.1353 12.3662 19.3424 12.3964 19.5473C12.4125 19.6818 12.4685 19.8084 12.5572 19.9107C12.6535 20.0022 12.7746 20.0635 12.9054 20.0867C13.1028 20.1252 13.3032 20.1456 13.5043 20.1475V20.5501H9.81844V20.1475C10.0028 20.1457 10.1864 20.1253 10.3667 20.0867C10.487 20.0618 10.5974 20.0024 10.6845 19.9158C10.7659 19.8178 10.8182 19.6989 10.8352 19.5726C10.8652 19.383 10.8788 19.1911 10.8757 18.9991V14.3458C10.8789 14.1557 10.8671 13.9656 10.8403 13.7773C10.825 13.6533 10.7784 13.5352 10.7048 13.4342C10.6311 13.3463 10.5297 13.286 10.4173 13.2632C10.2565 13.228 10.093 13.2059 9.9286 13.1974V12.7948H13.4043V13.1974C13.2195 13.1992 13.0354 13.2196 12.8547 13.2582C12.7322 13.2832 12.6209 13.3466 12.5369 13.4392C12.4565 13.5445 12.4061 13.6697 12.3913 13.8014C12.3645 14.0053 12.3526 14.211 12.3559 14.4167V16.2692H16.0924V14.3458C16.0962 14.1555 16.0827 13.9652 16.0519 13.7773C16.0341 13.6513 15.982 13.5325 15.9012 13.4342C15.8167 13.3447 15.7058 13.2848 15.5846 13.2632C15.4034 13.2277 15.2197 13.2057 15.0351 13.1974V12.7948H18.5196Z" fill="#3A3A39"/>
<path d="M20.937 18.5483H21.5916C22.2424 18.5483 22.7194 18.4174 23.0224 18.1557C23.3254 17.8941 23.4765 17.4813 23.4757 16.9174C23.4757 16.4109 23.3491 16.0214 23.0958 15.7487C22.8426 15.4761 22.4433 15.3385 21.898 15.336H21.1219C21.0016 15.336 20.9408 15.3929 20.9408 15.5069V18.5457L20.937 18.5483ZM25.0939 16.9276C25.0939 17.6518 24.8119 18.2039 24.2481 18.5837C23.6842 18.9636 22.865 19.1535 21.7904 19.1535H20.9345V20.9262C20.9302 21.1337 20.9471 21.3412 20.9851 21.5453C21.0099 21.6889 21.0848 21.819 21.1966 21.9125C21.326 22.0088 21.4792 22.0679 21.6397 22.0834C21.8917 22.1148 22.1456 22.1283 22.3994 22.124V22.5266H18.4021V22.124C18.5848 22.1222 18.7667 22.1018 18.9453 22.0632C19.0681 22.041 19.1812 21.9818 19.2694 21.8935C19.3511 21.7962 19.4034 21.6776 19.4201 21.5517C19.4501 21.3616 19.4636 21.1692 19.4606 20.9768V16.3223C19.4632 16.1318 19.4513 15.9413 19.4252 15.7525C19.4094 15.629 19.3628 15.5114 19.2897 15.4107C19.2162 15.3223 19.1148 15.2616 19.0023 15.2385C18.8414 15.2037 18.6779 15.1821 18.5135 15.1739V14.7712H21.9981C23.0186 14.7712 23.791 14.9523 24.3152 15.3144C24.8394 15.6766 25.1011 16.2138 25.1002 16.9263L25.0939 16.9276Z" fill="#3A3A39"/>
<path d="M21.1295 15.5286H21.8892C22.3741 15.5286 22.7299 15.6463 22.9465 15.8793C23.163 16.1123 23.2782 16.4668 23.2782 16.9176C23.2782 17.4241 23.1516 17.7887 22.8907 18.0116C22.6299 18.2344 22.188 18.3572 21.5866 18.3572H21.1244V15.5286H21.1295ZM21.9943 14.5802H18.3224V15.3539L18.5009 15.3665C18.6543 15.374 18.8067 15.3944 18.9567 15.4273C19.0273 15.4408 19.0914 15.4773 19.139 15.5311C19.1917 15.6062 19.2247 15.6933 19.2353 15.7844C19.261 15.9625 19.2724 16.1425 19.2695 16.3225V20.9757C19.2723 21.1566 19.26 21.3375 19.2327 21.5164C19.222 21.6087 19.1861 21.6963 19.1289 21.7696C19.0669 21.8293 18.9884 21.869 18.9035 21.8836C18.7369 21.9186 18.5673 21.9373 18.3971 21.9393H18.2109V22.7192H22.5932V21.9329H22.4007C22.1583 21.9367 21.9159 21.9236 21.6752 21.8937C21.5499 21.8835 21.4296 21.8397 21.327 21.7671C21.2505 21.7021 21.199 21.6126 21.1814 21.5138C21.147 21.3229 21.1318 21.1291 21.1358 20.9352V19.3449H21.7993C22.9072 19.3449 23.7707 19.1423 24.3646 18.7434C24.9812 18.3281 25.2952 17.7165 25.2952 16.9277C25.2952 16.1389 25.0027 15.5577 24.4266 15.1551C23.872 14.7752 23.0566 14.5764 22.0006 14.5764L21.9943 14.5802ZM20.937 18.5484H21.5916C22.2425 18.5484 22.7194 18.4176 23.0224 18.1559C23.3255 17.8942 23.4766 17.4815 23.4757 16.9176C23.4757 16.4111 23.3491 16.0216 23.0959 15.7489C22.8426 15.4763 22.4434 15.3387 21.8981 15.3361H21.1219C21.0016 15.3361 20.9408 15.3931 20.9408 15.5071V18.5459M21.9981 14.7701C23.0186 14.7701 23.791 14.9512 24.3152 15.3133C24.8394 15.6755 25.1011 16.2127 25.1002 16.9252C25.1002 17.6494 24.8183 18.2015 24.2544 18.5814C23.6906 18.9612 22.8713 19.1511 21.7968 19.1511H20.9408V20.9238C20.9365 21.1314 20.9535 21.3388 20.9915 21.543C21.0163 21.6865 21.0912 21.8166 21.2029 21.9101C21.3323 22.0064 21.4856 22.0655 21.6461 22.0811C21.8981 22.1124 22.1519 22.1259 22.4058 22.1216V22.5268H18.4085V22.1241C18.5911 22.1224 18.7731 22.102 18.9517 22.0634C19.0722 22.0399 19.1829 21.9808 19.2695 21.8937C19.3512 21.7964 19.4034 21.6778 19.4201 21.5518C19.4501 21.3617 19.4637 21.1694 19.4607 20.977V16.3225C19.4632 16.1319 19.4514 15.9415 19.4252 15.7527C19.4094 15.6292 19.3629 15.5116 19.2897 15.4108C19.2162 15.3225 19.1149 15.2618 19.0023 15.2386C18.8414 15.2039 18.678 15.1823 18.5136 15.1741V14.7714H21.9981" fill="#3A3A39"/>
<path d="M25.3192 31.2873L24.7823 31.5481C24.7823 31.5481 19.6289 30.8467 17.132 30.2237C14.8807 31.0265 10.1933 32.085 10.1933 32.085L9.56023 31.7836C9.56023 31.7836 13.8919 30.9315 16.4888 30.011C15.6227 29.8628 14.982 29.5868 14.1071 29.269C11.9976 28.503 9.64002 27.195 8.21303 25.7693C5.76507 23.3171 4.51324 20.4627 4.45752 17.2061C4.38282 12.0021 7.73693 7.47545 11.7279 5.55718C8.54095 7.78566 7.35075 9.01766 6.27323 10.9866C4.72722 13.3467 4.78547 16.7654 4.7766 17.7239C5.00705 20.4804 6.01746 23.2496 7.94206 25.2856C9.77929 27.2026 11.5456 27.9243 14.5414 29.1462C16.1355 29.6716 17.1042 29.9059 17.1042 29.9059C17.1042 29.9059 23.7377 28.0066 26.1903 25.0716C28.0756 22.9609 29.0164 20.4829 29.1924 17.6188C29.2747 15.2903 28.7277 12.1856 27.0829 10.0445C25.8383 8.45294 23.4617 6.16241 20.9027 4.72656C22.7615 5.27735 25.4825 7.80845 27.1551 9.85967C28.634 11.7754 29.181 13.6456 29.3481 15.9969C29.6204 19.6447 28.5783 22.8229 26.0358 25.5262C24.9887 26.6366 23.5503 27.528 22.1106 28.2991C20.7178 29.0499 19.5871 29.4235 17.6701 30.0274L18.4881 30.1718C18.4982 30.1718 18.8679 30.2351 18.8679 30.2376L25.3002 31.2936L25.3192 31.2873Z" fill="#3A3A39"/>
<path d="M10.6857 27.4799C10.6309 27.3145 10.5885 27.1452 10.5591 26.9734C10.5591 26.9734 9.02955 25.3932 9.26759 24.5018C9.37142 24.1106 9.47145 23.4534 9.76394 23.1394C9.98953 23.5819 10.2811 23.9875 10.6287 24.3423C11.2327 24.907 10.7009 26.9595 10.7009 26.9595C10.7009 26.9595 10.8807 27.604 10.9339 27.6382L10.6807 27.4786L10.6857 27.4799Z" fill="#3A3A39"/>
<path d="M10.9328 27.6395C10.8948 27.6598 10.0325 27.5521 10.0325 27.5521C10.0325 27.5521 8.00661 28.4207 7.26336 27.8826C6.93416 27.6458 6.38969 27.2495 6.05542 27.1736C6.50365 26.9039 7.21903 26.7393 7.59762 26.5531C8.33961 26.1885 10.0705 27.4141 10.0705 27.4141C10.0705 27.4141 10.7365 27.4749 10.7871 27.4369L10.9328 27.6395Z" fill="#3A3A39"/>
<path d="M13.9627 29.0233C13.8675 28.8772 13.7828 28.7244 13.7095 28.5662C13.7095 28.5662 11.8317 27.4203 11.8393 26.4973C11.8393 26.0921 11.7747 25.4312 11.9786 25.0538C12.308 25.4261 12.6923 25.7459 13.1182 26.0022C13.8437 26.396 13.8437 28.5168 13.8437 28.5168C13.8437 28.5168 14.1805 29.0968 14.24 29.1157L13.9602 29.0233H13.9627Z" fill="#3A3A39"/>
<path d="M14.2424 29.1108C14.2095 29.1399 13.3485 29.2513 13.3485 29.2513C13.3485 29.2513 11.6113 30.5998 10.7515 30.2642C10.3717 30.1174 9.74743 29.873 9.4043 29.8844C9.76896 29.5121 10.4173 29.1715 10.7414 28.898C11.3682 28.3586 13.351 29.112 13.351 29.112C13.351 29.112 14.0107 29.0031 14.0499 28.9537L14.2424 29.1108Z" fill="#3A3A39"/>
<path d="M7.93585 25.4576C7.91135 25.2852 7.8995 25.1113 7.9004 24.9372C7.9004 24.9372 6.67347 23.1126 7.06599 22.2782C7.2607 21.8362 7.47923 21.4051 7.72061 20.9867C7.95992 21.4134 8.18277 22.0237 8.43474 22.3618C8.92855 23.024 8.04094 24.9498 8.04094 24.9498C8.04094 24.9498 8.10552 25.6171 8.1511 25.6589L7.93585 25.4589V25.4576Z" fill="#3A3A39"/>
<path d="M8.1121 25.5122C8.2767 25.5958 7.37012 25.321 7.37012 25.321C7.37012 25.321 5.20748 25.7161 4.59718 25.0235C4.33001 24.7196 3.88685 24.2144 3.58423 24.0624C4.08057 23.8991 4.81496 23.8991 5.23027 23.8029C6.03556 23.6142 7.44735 25.1957 7.44735 25.1957C7.44735 25.1957 7.79555 25.3071 7.85379 25.2818L8.12222 25.5122H8.1121Z" fill="#3A3A39"/>
<path d="M5.63659 22.1556C5.6726 21.9834 5.72127 21.8141 5.7822 21.6491C5.7822 21.6491 5.25547 19.5143 5.90882 18.8635C6.19624 18.5786 6.63308 18.1152 6.92937 17.8176C6.95652 18.3553 7.03539 18.8892 7.16488 19.4118C7.40166 20.2031 5.90755 21.7086 5.90755 21.7086C5.90755 21.7086 5.73915 22.3569 5.76827 22.4126L5.63407 22.1505L5.63659 22.1556Z" fill="#3A3A39"/>
<path d="M5.55408 22.1643C5.41238 22.0637 5.27823 21.9528 5.1527 21.8326C5.1527 21.8326 2.98499 21.4629 2.64945 20.6019C2.50257 20.222 2.25946 19.5978 2.01636 19.3496C2.53802 19.3673 3.2281 19.6193 3.6472 19.6687C4.46769 19.7674 5.25146 21.7376 5.25146 21.7376C5.25146 21.7376 5.78452 22.1466 5.84783 22.1466L5.55408 22.1643Z" fill="#3A3A39"/>
<path d="M4.7803 18.1203C4.85898 17.9717 4.94784 17.8287 5.04622 17.6923C5.04622 17.6923 5.11332 15.5651 5.89455 15.1296C6.23642 14.9384 6.70997 14.5547 7.10882 14.4041C6.90623 14.8751 6.91509 15.5601 6.92142 15.9691C6.93662 16.768 5.14877 17.781 5.14877 17.781C5.14877 17.781 4.82336 18.3406 4.83476 18.4001L4.77905 18.1203H4.7803Z" fill="#3A3A39"/>
<path d="M4.58159 18.4318C4.54107 18.4167 4.33596 17.8836 4.33596 17.8836C4.33596 17.8836 2.41262 16.9719 2.32526 16.0831C2.28601 15.6931 2.22396 15.0448 2.07202 14.7523C2.55317 14.9043 3.13181 15.3196 3.50787 15.4753C4.24732 15.7817 4.46258 17.8228 4.46258 17.8228C4.46258 17.8228 4.65124 18.2027 4.71581 18.2128L4.58919 18.4318H4.58159Z" fill="#3A3A39"/>
<path d="M4.92465 14.2293C5.03941 14.1227 5.1617 14.0245 5.29058 13.9355C5.29058 13.9355 6.00724 12.0932 6.82646 11.9527C7.18605 11.8919 7.78116 11.6754 8.16102 11.7096C7.80016 12.0464 7.58744 12.6465 7.46715 13.0061C7.23291 13.7114 5.35389 14.0469 5.35389 14.0469C5.35389 14.0469 4.89554 14.4357 4.88794 14.4926L4.92465 14.2293Z" fill="#3A3A39"/>
<path d="M4.76789 14.3497C4.7865 14.1466 4.77541 13.9418 4.73497 13.7419C4.73497 13.7419 3.33203 12.3491 3.52956 11.5426C3.61692 11.188 3.76255 10.6018 3.7157 10.2966C4.09555 10.579 4.46907 11.1209 4.75143 11.3742C5.30348 11.8718 4.86158 13.7267 4.86158 13.7267C4.86558 13.8629 4.8787 13.9987 4.90084 14.1332L4.77422 14.3497H4.76789Z" fill="#3A3A39"/>
<path d="M6.3441 10.7171C6.36816 10.6854 6.6923 10.4638 6.6923 10.4638C6.6923 10.4638 8.00027 8.9786 8.81316 9.13054C9.17149 9.19511 9.79317 9.26476 10.0679 9.38378C9.68807 9.6545 9.34723 9.97617 9.05499 10.3397C8.59283 10.9222 6.71382 10.593 6.71382 10.593C6.54124 10.7007 6.37588 10.8196 6.21875 10.9488L6.34537 10.7145L6.3441 10.7171Z" fill="#3A3A39"/>
<path d="M6.1008 10.9158C6.08181 10.8816 6.22742 10.0978 6.22742 10.0978C6.22742 10.0978 5.38414 8.30872 5.84757 7.61865C6.05015 7.31603 6.38823 6.81336 6.449 6.51074C6.70224 6.90453 6.87444 7.54395 7.05297 7.87822C7.40371 8.5341 6.35404 10.127 6.35404 10.127C6.32608 10.2896 6.30664 10.4536 6.2958 10.6182L6.1008 10.9158Z" fill="#3A3A39"/>
<path d="M8.40304 7.95412C8.55548 7.91793 8.71036 7.89296 8.86645 7.87942C8.86645 7.87942 10.4023 6.63349 11.1823 6.91712C11.5254 7.04373 12.0952 7.31596 12.4016 7.60592C11.9965 7.71228 11.5001 7.89588 11.2178 8.14911C10.6644 8.64546 8.86772 8.0073 8.86772 8.0073C8.86772 8.0073 8.27515 8.11746 8.24097 8.16304L8.40304 7.95412Z" fill="#3A3A39"/>
<path d="M8.28263 8.06559C8.33674 7.85108 8.40269 7.63972 8.48016 7.4325C8.48016 7.4325 7.95089 5.5269 8.52194 4.92546C8.77518 4.66083 9.18922 4.22273 9.30064 3.9353C9.48677 4.36581 9.54629 5.02422 9.66657 5.38382C9.90082 6.08908 8.59791 7.48315 8.59791 7.48315C8.59791 7.48315 8.50421 7.82122 8.53206 7.8706L8.27883 8.06306L8.28263 8.06559Z" fill="#3A3A39"/>
<path d="M10.6213 6.15094C10.653 6.13575 11.0518 6.06231 11.0518 6.06231C11.0518 6.06231 12.6548 5.4786 13.2119 5.93569C13.4563 6.13448 13.883 6.40924 14.1109 6.6017C13.7235 6.6169 13.1955 6.82455 12.8941 6.95117C12.3028 7.2044 11.0176 6.17247 11.0176 6.17247C11.0176 6.17247 10.4858 6.34593 10.4453 6.37252L10.6213 6.15727V6.15094Z" fill="#3A3A39"/>
<path d="M12.5849 4.99517C12.5849 4.99517 13.6827 3.68974 14.3905 3.80243C14.7007 3.85181 15.2148 3.92905 15.4744 3.87334C15.2579 4.21647 14.8198 4.57987 14.621 4.8407C14.2335 5.34717 12.6065 5.1028 12.6065 5.1028L11.3555 5.86251C11.3555 5.86251 10.4691 6.25756 10.4514 6.28415L12.5849 5.00151V4.99517Z" fill="#3A3A39"/>
<path d="M10.3718 6.33477C10.3718 6.29932 10.8618 5.59152 10.8618 5.59152C10.8618 5.59152 10.9669 3.88977 11.6026 3.55929C11.9125 3.38564 12.1925 3.16334 12.4319 2.90088C12.6598 3.4618 12.4117 3.92396 12.4079 4.25063C12.4003 4.89132 10.9454 5.66116 10.9454 5.66116C10.9454 5.66116 10.6707 6.10179 10.6795 6.14991L10.3731 6.3297L10.3718 6.33477Z" fill="#3A3A39"/>
<path d="M23.5338 27.3839C23.5881 27.2184 23.6304 27.0491 23.6604 26.8775C23.6604 26.8775 25.19 25.2985 24.9532 24.4059C24.8481 24.0146 24.7481 23.3587 24.4556 23.0435C24.2309 23.4865 23.9392 23.8922 23.5908 24.2463C22.9881 24.811 23.5199 26.8635 23.5199 26.8635C23.5199 26.8635 23.3388 27.508 23.2856 27.5422L23.5389 27.3827L23.5338 27.3839Z" fill="#3A3A39"/>
<path d="M23.2856 27.5434C23.3249 27.5636 24.1859 27.456 24.1859 27.456C24.1859 27.456 26.2118 28.3259 26.955 27.7865C27.2842 27.5497 27.8287 27.1534 28.163 27.0774C27.716 26.8077 26.9994 26.6431 26.6208 26.457C25.8788 26.0936 24.1492 27.3193 24.1492 27.3193C24.1492 27.3193 23.4819 27.3788 23.4313 27.3408L23.2856 27.5434Z" fill="#3A3A39"/>
<path d="M20.2315 28.9842C20.3172 28.8326 20.3921 28.6752 20.4557 28.5131C20.4557 28.5131 22.265 27.2634 22.2068 26.3429C22.1802 25.939 22.2068 25.2755 21.9852 24.9083C21.6783 25.2994 21.3132 25.641 20.9026 25.9213C20.1999 26.3556 20.3189 28.4739 20.3189 28.4739C20.3189 28.4739 20.0163 29.0703 19.9568 29.0931L20.2315 28.9854V28.9842Z" fill="#3A3A39"/>
<path d="M19.9571 29.0957C19.9913 29.1236 20.8586 29.1856 20.8586 29.1856C20.8586 29.1856 22.668 30.4341 23.5088 30.0529C23.8772 29.8845 24.4888 29.606 24.8319 29.5933C24.4521 29.2426 23.7759 28.94 23.4391 28.6829C22.782 28.1764 20.846 29.0438 20.846 29.0438C20.846 29.0438 20.18 28.9729 20.1382 28.926L19.9546 29.0957H19.9571Z" fill="#3A3A39"/>
<path d="M26.2687 25.3338C26.2869 25.161 26.2924 24.987 26.2852 24.8134C26.2852 24.8134 27.4412 22.9432 27.0183 22.1228C26.8064 21.6887 26.5718 21.266 26.3155 20.8566C26.0914 21.2921 25.8939 21.9113 25.6546 22.2582C25.1848 22.9382 26.1446 24.8299 26.1446 24.8299C26.1446 24.8299 26.1054 25.4984 26.061 25.5427L26.2687 25.3338Z" fill="#3A3A39"/>
<path d="M26.0953 25.3947C25.9345 25.4858 26.8296 25.1756 26.8296 25.1756C26.8296 25.1756 29.0049 25.4896 29.5887 24.7742C29.8419 24.4602 30.2686 23.9386 30.5699 23.7752C30.0635 23.6321 29.3342 23.6587 28.9239 23.5777C28.1136 23.4194 26.7613 25.0541 26.7613 25.0541C26.7613 25.0541 26.4169 25.1807 26.3586 25.1554L26.1054 25.3947H26.0953Z" fill="#3A3A39"/>
<path d="M28.2937 22.1556C28.2581 21.9834 28.2098 21.8142 28.1493 21.6491C28.1493 21.6491 28.6748 19.5143 28.0227 18.8635C27.7353 18.5786 27.2985 18.1152 27.0022 17.8176C26.9738 18.3552 26.8949 18.8889 26.7667 19.4118C26.5299 20.2031 28.0227 21.7086 28.0227 21.7086C28.0227 21.7086 28.1924 22.3569 28.1633 22.4126L28.2899 22.1505L28.2937 22.1556Z" fill="#3A3A39"/>
<path d="M28.3768 22.1643C28.5185 22.0637 28.6526 21.9528 28.7781 21.8326C28.7781 21.8326 30.9458 21.4629 31.2814 20.6019C31.4283 20.222 31.6714 19.5978 31.9145 19.3496C31.3928 19.3673 30.7027 19.6193 30.2836 19.6687C29.4631 19.7674 28.6794 21.7376 28.6794 21.7376C28.6794 21.7376 28.1463 22.1466 28.083 22.1466L28.3768 22.1643Z" fill="#3A3A39"/>
<path d="M29.1452 18.1203C29.0665 17.9717 28.9776 17.8287 28.8793 17.6923C28.8793 17.6923 28.8109 15.5651 28.0309 15.1296C27.689 14.9384 27.2155 14.5547 26.8167 14.4041C27.0192 14.8751 27.0104 15.5601 27.0028 15.9691C26.9888 16.768 28.7754 17.781 28.7754 17.781C28.7754 17.781 29.1021 18.3406 29.0895 18.4001L29.1464 18.1203H29.1452Z" fill="#3A3A39"/>
<path d="M29.3527 18.4318C29.3932 18.4167 29.5984 17.8836 29.5984 17.8836C29.5984 17.8836 31.5217 16.9719 31.6091 16.0831C31.6483 15.6931 31.7104 15.0448 31.8623 14.7523C31.3811 14.9043 30.8025 15.3196 30.4264 15.4753C29.687 15.7817 29.4717 17.8228 29.4717 17.8228C29.4717 17.8228 29.2831 18.2027 29.2185 18.2128L29.3451 18.4318H29.3527Z" fill="#3A3A39"/>
<path d="M29.0064 14.2293C28.8916 14.1227 28.7693 14.0245 28.6405 13.9355C28.6405 13.9355 27.9238 12.0932 27.1046 11.9527C26.745 11.8919 26.1499 11.6754 25.77 11.7096C26.1309 12.0464 26.3436 12.6465 26.4639 13.0061C26.6981 13.7114 28.5772 14.0469 28.5772 14.0469C28.5772 14.0469 29.0355 14.4357 29.0431 14.4926L29.0064 14.2293Z" fill="#3A3A39"/>
<path d="M29.1633 14.3497C29.1438 14.1466 29.1549 13.9417 29.1962 13.7419C29.1962 13.7419 30.5991 12.3491 30.4016 11.5426C30.3142 11.188 30.1686 10.6018 30.2155 10.2966C29.8356 10.579 29.4558 11.1209 29.1797 11.3742C28.6264 11.8718 29.0696 13.7267 29.0696 13.7267C29.0656 13.8629 29.0525 13.9987 29.0303 14.1332L29.1633 14.3497Z" fill="#3A3A39"/>
<path d="M27.5869 10.7169C27.5628 10.6852 27.2387 10.4636 27.2387 10.4636C27.2387 10.4636 25.9345 8.97588 25.1178 9.12402C24.7595 9.18859 24.1378 9.25824 23.863 9.37726C24.2429 9.64798 24.5837 9.96965 24.876 10.3332C25.3381 10.9157 27.2172 10.5865 27.2172 10.5865C27.3897 10.6942 27.5551 10.813 27.7122 10.9423L27.5856 10.708L27.5869 10.7169Z" fill="#3A3A39"/>
<path d="M27.8247 10.9158C27.8437 10.8816 27.6981 10.0978 27.6981 10.0978C27.6981 10.0978 28.5414 8.30872 28.078 7.61865C27.8741 7.31603 27.5373 6.81336 27.4765 6.51074C27.2233 6.90453 27.0511 7.54395 26.8713 7.87822C26.5218 8.5341 27.5715 10.127 27.5715 10.127C27.5988 10.2917 27.6169 10.4578 27.6259 10.6246L27.8235 10.9221L27.8247 10.9158Z" fill="#3A3A39"/>
<path d="M25.5279 7.95412C25.3755 7.91793 25.2206 7.89296 25.0645 7.87942C25.0645 7.87942 23.5286 6.63349 22.7486 6.91712C22.4055 7.04373 21.8357 7.31596 21.5293 7.60592C21.9345 7.71228 22.4308 7.89588 22.7132 8.14911C23.2665 8.64546 25.0632 8.0073 25.0632 8.0073C25.0632 8.0073 25.6558 8.11746 25.6963 8.16304L25.5342 7.95412H25.5279Z" fill="#3A3A39"/>
<path d="M25.6482 8.06559C25.5941 7.85108 25.5282 7.63972 25.4507 7.4325C25.4507 7.4325 25.98 5.5269 25.4089 4.92546C25.1557 4.66083 24.7416 4.22273 24.6302 3.9353C24.4441 4.36581 24.3846 5.02422 24.2643 5.38382C24.03 6.08908 25.3329 7.48315 25.3329 7.48315C25.3329 7.48315 25.4266 7.82122 25.3988 7.8706L25.652 8.06306L25.6482 8.06559Z" fill="#3A3A39"/>
<path d="M22.9592 5.91045C22.9275 5.89652 22.5274 5.82562 22.5274 5.82562C22.5274 5.82562 20.9194 5.25583 20.3673 5.71166C20.1242 5.91045 19.7 6.18901 19.4734 6.384C19.8608 6.39667 20.3914 6.59926 20.694 6.72334C21.2866 6.96772 22.5629 5.92944 22.5629 5.92944C22.5629 5.92944 23.0959 6.09785 23.1365 6.12444L22.9592 5.91045Z" fill="#3A3A39"/>
<path d="M20.985 4.77096C20.985 4.77096 19.877 3.47439 19.1705 3.59341C18.8603 3.64533 18.3462 3.73269 18.0867 3.67318C18.3057 4.01379 18.7476 4.37338 18.9477 4.63295C19.3402 5.13942 20.9647 4.87859 20.9647 4.87859L22.5044 5.68515C22.6207 5.70758 22.7347 5.74064 22.845 5.78391L20.985 4.77096Z" fill="#3A3A39"/>
<path d="M23.2093 6.09159C23.2093 6.05741 22.7129 5.35341 22.7129 5.35341C22.7129 5.35341 22.5939 3.65166 21.9532 3.32751C21.6422 3.15853 21.3604 2.94048 21.1188 2.68176C20.8972 3.24395 21.1492 3.70484 21.1556 4.03151C21.1682 4.6722 22.6294 5.42431 22.6294 5.42431C22.6294 5.42431 22.908 5.86241 22.8991 5.91053L23.2068 6.08779L23.2093 6.09159Z" fill="#3A3A39"/>
</svg>
