<?xml version="1.0" encoding="UTF-8"?>
<svg xmlns="http://www.w3.org/2000/svg" version="1.1" viewBox="0 0 250 250">
  <defs>
    <style>
      .cls-1 {
        fill: #3a3a39;
      }
    </style>
  </defs>
  <!-- Generator: Adobe Illustrator 28.7.1, SVG Export Plug-In . SVG Version: 1.2.0 Build 142)  -->
  <g>
    <g id="Layer_1">
      <path class="cls-1" d="M125.3,54.4c-33,6-54.4,18.2-68.5,29.7-1.8,6.9-2.8,14-2.8,21.1,0,48.8,41.7,88.4,93.1,88.4s14.9-1,21.9-2.7c14.9-18.8,27-51.6,30.1-78.7,3.2-28.4,9.7-37,17.7-42.6,2.9-2,5.8-3.5,9-4.2-9-19.5-25.2-34.7-45.3-42.5,0,.2.1.4.2.6,3.9,16.6-13.8,23.2-55.5,30.8ZM238.9,82.6c-.4-.7-.7-1.4-1-2.2-6.1-14.8-20.6-5.2-24.4,3.5-7.6,17.2-6.4,24.7-9.5,42.1s-13.6,50.9-28.8,68.1c-21.7,24.6-45.4,35.5-78.7,32.3-33.3-3.2-58.9-31.4-68.4-51.9-8-17.2-9.2-36.6.3-61.9,9.4-25.2,37.7-45.7,63.5-55.6s46.3-10.8,60.7-15c14.4-4.2,22.9-11.1,22.4-17-.7-7.3-7.7-11.2-11.7-12.8-12.4-4-25.2-6-38.2-5.9C57.7,6.3,3.1,59.4,3.1,125s54.6,118.7,121.9,118.7,121.9-53.2,121.9-118.7c0-14.5-2.7-28.9-8-42.4Z"/>
    </g>
  </g>
</svg>