<?xml version="1.0" encoding="UTF-8"?>
<svg xmlns="http://www.w3.org/2000/svg" version="1.1" viewBox="0 0 250 250">
  <defs>
    <style>
      .cls-1 {
        fill: #3a3a39;
        fill-rule: evenodd;
      }
    </style>
  </defs>
  <!-- Generator: Adobe Illustrator 28.7.1, SVG Export Plug-In . SVG Version: 1.2.0 Build 142)  -->
  <g>
    <g id="Layer_1">
      <path class="cls-1" d="M115.7,23.8h-27.5c-15.2,0-27.5,12.3-27.5,27.5s12.3,27.5,27.5,27.5h27.5V23.8ZM115.7,5.2h46.1c25.5,0,46.1,20.7,46.1,46.1s-7.2,28.4-18.3,36.8c11.1,8.4,18.3,21.8,18.3,36.8,0,25.5-20.7,46.1-46.1,46.1s-19.8-3.4-27.5-9.1v36.6c0,25.5-20.7,46.1-46.1,46.1s-46.1-20.7-46.1-46.1,7.2-28.4,18.3-36.8c-11.1-8.4-18.3-21.8-18.3-36.8s7.2-28.4,18.3-36.8c-11.1-8.4-18.3-21.8-18.3-36.8,0-25.5,20.7-46.1,46.1-46.1h27.5ZM134.3,23.8v55h27.5c15.2,0,27.5-12.3,27.5-27.5s-12.3-27.5-27.5-27.5h-27.5ZM88.2,152.5h27.5v-27.4h0v-27.6h-27.5c-15.2,0-27.5,12.3-27.5,27.5s12.3,27.4,27.4,27.5h.1ZM60.7,198.6c0-15.2,12.3-27.4,27.4-27.5h.1s27.5,0,27.5,0v27.5c0,15.2-12.3,27.5-27.5,27.5s-27.5-12.3-27.5-27.5ZM134.3,124.9c0-15.2,12.3-27.4,27.5-27.4s27.5,12.3,27.5,27.5-12.3,27.5-27.5,27.5-27.5-12.3-27.5-27.4h0Z"/>
    </g>
  </g>
</svg>