<?xml version="1.0" encoding="UTF-8"?>
<svg id="Layer_1" xmlns="http://www.w3.org/2000/svg" version="1.1" viewBox="0 0 92 92">
  <!-- Generator: Adobe Illustrator 29.0.1, SVG Export Plug-In . SVG Version: 2.1.0 Build 192)  -->
  <defs>
    <style>
      .st0 {
        fill: #fff;
      }
    </style>
  </defs>
  <path class="st0" d="M85.5,49.9l2.7-3.9-2.7-3.9,1.9-4.3-3.4-3.3,1-4.6-4-2.6v-4.7c.1,0-4.3-1.7-4.3-1.7l-.8-4.7-4.7-.8-1.7-4.4h-4.7c0,.1-2.5-3.9-2.5-3.9l-4.6,1-3.3-3.4-4.3,1.9-3.9-2.7-3.9,2.7-4.3-1.9-3.3,3.4-4.6-1-2.6,4h-4.7c0-.1-1.7,4.3-1.7,4.3l-4.7.8-.8,4.7-4.4,1.7v4.7c.1,0-3.9,2.6-3.9,2.6l1,4.6-3.4,3.3,1.9,4.3-2.7,3.9,2.7,3.9-1.9,4.3,3.4,3.3-1,4.6,4,2.5v4.7c-.1,0,4.3,1.7,4.3,1.7l.8,4.7,4.7.8,1.7,4.4h4.7c0-.1,2.6,3.9,2.6,3.9l4.6-1,3.3,3.4,4.3-1.9,3.9,2.7,3.9-2.7,4.3,1.9,3.3-3.4,4.6,1,2.5-4h4.7c0,.1,1.7-4.3,1.7-4.3l4.7-.8.8-4.7,4.4-1.7v-4.7c-.1,0,3.9-2.5,3.9-2.5l-1-4.6,3.4-3.3-1.9-4.3ZM83.9,61.7l-3.9,2.5v4.6c.1,0-4.2,1.7-4.2,1.7l-.8,4.5-4.5.8-1.7,4.3h-4.6c0-.1-2.5,3.8-2.5,3.8l-4.5-1-3.2,3.3h0s-4.2-1.9-4.2-1.9l-3.8,2.6-3.8-2.6-4.2,1.9h0s-3.2-3.3-3.2-3.3l-4.5,1-2.5-3.9h-4.6c0,.1-1.7-4.2-1.7-4.2l-4.5-.8-.8-4.5-4.3-1.7v-4.6c0,0-3.8-2.5-3.8-2.5l1-4.5-3.3-3.2h0l1.9-4.2-2.6-3.8h0l2.6-3.8-1.9-4.2h0s3.3-3.2,3.3-3.2l-1-4.5,3.9-2.5v-4.6c0,0,4.2-1.7,4.2-1.7l.8-4.5,4.5-.8,1.7-4.3h4.6c0,0,2.5-3.8,2.5-3.8l4.5,1,3.2-3.3h0s4.2,1.9,4.2,1.9l3.8-2.6h0s3.8,2.6,3.8,2.6l4.2-1.9h0s3.2,3.3,3.2,3.3l4.5-1,2.5,3.9h4.6c0,0,1.7,4.2,1.7,4.2l4.5.8.8,4.5,4.3,1.7v4.6c-.1,0,3.8,2.5,3.8,2.5l-1,4.5,3.3,3.2h0s-1.9,4.2-1.9,4.2l2.6,3.8-2.6,3.8,1.9,4.2h0s-3.3,3.2-3.3,3.2l1,4.5Z"/>
  <path class="st0" d="M56.9,42.7c-.2-.2-.4-.7-.4-1v-2.1c0-1.8-1.4-3.2-3.2-3.2h-2.1c-.3,0-.8-.2-1.1-.4l-2-1.7c-1.2-1-3-1-4.2,0,0,0,0,0,0,0l-2,1.7c-.2.2-.7.4-1,.4h-2.2c-1.8,0-3.2,1.4-3.2,3.2v2.1c0,.3-.2.8-.4,1l-1.7,2c-1,1.2-1,3,0,4.2l1.7,2c.2.2.4.8.4,1v2.1c0,1.8,1.4,3.2,3.2,3.2h2.2c.3,0,.8.2,1.1.4l2,1.7c.6.5,1.3.7,2.1.7s1.5-.3,2.1-.8l2-1.7c.2-.2.8-.4,1-.4h2.1c1.8,0,3.2-1.4,3.2-3.2v-2.1c0-.3.2-.8.4-1.1l1.7-2c1-1.2,1-3,0-4.2l-1.7-2ZM57.4,47.8l-1.7,2c-.5.5-.8,1.4-.8,2.1v2.1c0,.9-.7,1.6-1.6,1.6h-2.1c-.7,0-1.6.3-2.1.8l-2,1.7c-.6.5-1.5.5-2.1,0l-2-1.7c-.5-.5-1.4-.8-2.1-.8h-2.2c-.9,0-1.6-.7-1.6-1.6v-2.1c0-.7-.3-1.6-.8-2.1l-1.7-2c-.5-.6-.5-1.5,0-2.1l1.7-2c.4-.5.8-1.4.8-2.1v-2.1c0-.9.7-1.6,1.6-1.6h2.2c.7,0,1.6-.3,2.1-.8l2-1.7c.6-.5,1.5-.5,2.1,0l2,1.7c.5.5,1.4.8,2.1.8h2.1c.9,0,1.6.7,1.6,1.6v2.1c0,.7.3,1.6.8,2.1l1.7,2c.5.6.5,1.5,0,2.1Z"/>
  <path class="st0" d="M50.4,44.2h-2.1l.2-1.6c.2-.9-.4-1.9-1.3-2.2-.8-.3-1.8,0-2.2.7l-1.4,2.1c-.3-.3-.8-.6-1.5-.6h-.6c-1.6,0-2,1-2,1.9v5.7c0,.9.3,1.9,2,1.9h.6c.8,0,1.3-.3,1.6-.6l.9.7c.4.4,1.1.5,1.6.5h2.2c1.1,0,2.2-.8,2.4-1.8l1.4-4.3c.2-.6.1-1.3-.2-1.8-.4-.5-1-.8-1.7-.8ZM42.5,50.3c0,.2,0,.3,0,.3,0,0-.1,0-.4,0h-.6c-.2,0-.3,0-.3,0s0,0,0,0c0,0,0-.1,0-.3v-5.7c0-.2,0-.3,0-.3,0,0,.1,0,.4,0h.6c.2,0,.3,0,.3,0,0,0,0,.1,0,.3v5.7ZM50.8,46.3l-1.4,4.3c0,.3-.5.6-.9.6h-2.2c-.2,0-.5,0-.5-.1l-1.6-1.3v-4.4l2.3-3.4c0,0,.3-.1.4-.1.1,0,.3.2.2.4l-.3,1.9c0,.4,0,.8.3,1.1.3.3.6.5,1,.5h2.3c.2,0,.3,0,.3.1,0,.1,0,.2,0,.3Z"/>
</svg>