<?xml version="1.0" encoding="UTF-8"?>
<svg id="Layer_1" xmlns="http://www.w3.org/2000/svg" version="1.1" viewBox="0 0 92 92">
  <!-- Generator: Adobe Illustrator 29.0.1, SVG Export Plug-In . SVG Version: 2.1.0 Build 192)  -->
  <defs>
    <style>
      .st0 {
        fill: #f60;
      }
    </style>
  </defs>
  <path class="st0" d="M46,0l4.2,3,4.7-2.1,3.6,3.7,5.1-1.1,2.8,4.4h5.2c0-.1,1.9,4.7,1.9,4.7l5.1.9.9,5.1,4.8,1.9v5.2c-.1,0,4.3,2.8,4.3,2.8l-1.1,5.1,3.7,3.6-2.1,4.7,3,4.2-3,4.2,2.1,4.7-3.7,3.6,1.1,5.1-4.4,2.8v5.2c.1,0-4.7,1.9-4.7,1.9l-.9,5.1-5.1.9-1.9,4.8h-5.2c0-.1-2.8,4.3-2.8,4.3l-5.1-1.1-3.6,3.7-4.7-2.1-4.2,3-4.2-3-4.7,2.1-3.6-3.7-5.1,1.1-2.8-4.4h-5.2c0,.1-1.9-4.7-1.9-4.7l-5.1-.9-.9-5.1-4.8-1.9v-5.2c.1,0-4.3-2.8-4.3-2.8l1.1-5.1-3.7-3.6,2.1-4.7-3-4.2,3-4.2-2.1-4.7,3.7-3.6-1.1-5.1,4.4-2.8v-5.2c-.1,0,4.7-1.9,4.7-1.9l.9-5.1,5.1-.9,1.9-4.8h5.2c0,.1,2.8-4.3,2.8-4.3l5.1,1.1,3.6-3.7,4.7,2.1,4.2-3Z"/>
</svg>