<?xml version="1.0" encoding="UTF-8"?>
<svg id="Layer_1" xmlns="http://www.w3.org/2000/svg" version="1.1" viewBox="0 0 92 92">
  <!-- Generator: Adobe Illustrator 29.0.1, SVG Export Plug-In . SVG Version: 2.1.0 Build 192)  -->
  <defs>
    <style>
      .st0 {
        fill: #f8f4ef;
      }
    </style>
  </defs>
  <path class="st0" d="M54.3,74.8c-1.2.4-1.9-.2-2.2-1.1-.3-1-.1-1.9,1-2.3l1.5-.5-.5-1.6,1.4-.5,1.7,5-2.8.9ZM55,71.9l-1,.3c-.5.2-.6.5-.4.9.1.4.4.6.9.4l1-.3-.4-1.3ZM45.9,71.8c0-.4-.1-.6-.2-.9h1.4c0,0,.1.4.2.8v.2c0,.5.4.7.9.7h1c0,0-.2-2-.2-2h1.4c0-.1.5,5.1.5,5.1l-2.9.3c-1.2.1-1.8-.4-1.9-1.3,0-.8.4-1.3,1-1.5-.6,0-1.1-.3-1.1-1.1v-.3ZM49.3,73.4h-1.1c-.5.2-.7.4-.6.9,0,.4.3.6.7.6h1.1c0-.1-.1-1.4-.1-1.4ZM42.5,70.4c2.1.3,2.7,1.7,2.5,3.1-.2,1.4-1.1,2.7-3.2,2.4-2.1-.3-2.7-1.8-2.5-3.1.2-1.4,1.1-2.7,3.2-2.4ZM43.5,73.3c.1-1,0-1.7-1.2-1.8-1.1-.1-1.5.4-1.6,1.5-.1,1,0,1.7,1.2,1.8,1.1.1,1.4-.4,1.6-1.5ZM39.4,70.1l-.3,1.1-1.6-.5-1.3,4-1.3-.4,1.1-3.2c.4-1.3,1.1-1.7,2.4-1.2l1.1.4ZM33.5,70l.5-.9-2.5-1.4.5-1,3.8,2-2.5,4.7-3.7-2,.5-1,2.5,1.4.5-.9-2.3-1.2.5-.9,2.3,1.2ZM29.6,64.5c1.5,1.4,1.3,2.9.3,4-.9,1.1-2.4,1.6-4,.2-1.4-1.3-1.5-2.3-.6-3.5l1.1,1c-.4.6-.5,1.1.2,1.7.7.6,1.4.5,2.1-.3.7-.8.8-1.5,0-2.1-.7-.6-1.2-.6-1.8,0l-1.1-1c1.2-1.1,2.2-1.2,3.6.1ZM26.3,61.3l-3.4,2.5,1,1.4-.9.7-2.8-3.9.9-.7,1,1.4,3.4-2.5.8,1.1ZM21.3,55.9c.4-.2.7-.6.4-1.3-.2-.6-.5-.8-.9-.7-.3.1-.4.4-.3.8l.3,1.1c.2.9-.1,1.6-1,1.9-.9.3-1.8-.1-2.4-1.6-.5-1.5,0-2.4.8-2.8l.5,1.3c-.4.2-.5.6-.3,1.2.2.5.5.7.8.6.3,0,.4-.3.3-.7l-.2-1c-.3-1.1,0-1.8,1-2.1,1-.3,1.9,0,2.4,1.7.6,1.7,0,2.5-1,2.9l-.5-1.3ZM19.7,51.7l-3.3.3v-1.4c-.1,0,2.9-.3,2.9-.3.9,0,1.1-.5,1.1-1.2,0-.7-.4-1-1.3-.9l-3.1.3v-1.4c-.1,0,3.1-.3,3.1-.3,1.4-.1,2.2.6,2.4,2.2s-.5,2.5-1.9,2.7ZM21.6,43.2c-.3,2-1.7,2.6-3.1,2.5-1.4-.2-2.7-1.1-2.4-3.2.2-1.9,1.1-2.5,2.6-2.5l-.2,1.4c-.7,0-1.2.2-1.3,1.1-.1,1,.4,1.4,1.5,1.6,1.1.1,1.7-.2,1.8-1.1.1-.9-.2-1.3-1-1.5l.2-1.5c1.6.3,2.2,1.1,1.9,3.1ZM23.1,37.5c-.8,1.9-2.3,2.1-3.6,1.6-1.3-.5-2.3-1.7-1.6-3.7.7-1.8,1.7-2.2,3.1-1.7l-.5,1.3c-.7-.2-1.2,0-1.5.8-.4.9,0,1.5,1,1.9,1,.4,1.7.2,2-.7.3-.9.1-1.4-.6-1.7l.5-1.4c1.5.7,1.8,1.6,1.1,3.5ZM23.3,31.9l.9.6,1.6-2.4.9.6-2.4,3.5-4.4-3,2.4-3.5.9.6-1.6,2.4.8.6,1.5-2.2.9.6-1.5,2.2ZM26.9,28.2c.3.3.8.4,1.4-.1.5-.5.5-.8.3-1.1-.2-.3-.5-.2-.8,0l-.9.7c-.8.6-1.5.6-2.2,0-.7-.7-.6-1.7.5-2.8,1.2-1.1,2.2-1,2.9-.4l-1,1c-.3-.3-.8-.3-1.2.2-.4.4-.5.8-.2,1,.2.2.4.2.8,0l.8-.6c.9-.7,1.7-.7,2.3,0,.7.8.7,1.7-.5,2.9-1.3,1.2-2.3,1-3,.3l1-.9ZM31.2,24.6c.3.4.7.5,1.4.2.6-.4.7-.7.5-1-.2-.3-.5-.3-.8-.2l-1.1.5c-.9.4-1.6.2-2.1-.5-.5-.9-.2-1.8,1.1-2.6,1.4-.9,2.4-.5,2.9.2l-1.2.7c-.3-.3-.7-.4-1.2,0-.5.3-.6.6-.4.9.1.2.4.3.8.1l.9-.4c1.1-.5,1.8-.3,2.3.5.5.9.4,1.8-1.1,2.7-1.5.9-2.5.4-3-.3l1.2-.7ZM35.6,24l-1.8-5,4-1.4.4,1-2.6.9.4,1,2.4-.8.3,1-2.4.8.7,2-1.3.5ZM40,20.5l-.4-3.3,1.4-.2.4,3.1c.1.9.5,1.1,1.2,1,.7,0,1-.4.9-1.3l-.4-3.1,1.4-.2.4,3.3c.2,1.4-.6,2.2-2.2,2.4s-2.5-.4-2.7-1.8ZM45.9,21.9l.4-5.3h1.4c0,.1-.4,4.3-.4,4.3l2.4.2v1.1c0,0-3.9-.3-3.9-.3ZM50.3,22.3l1.4-5.1,1.4.4-1.1,4.1,2.3.6-.3,1.1-3.7-1ZM55.5,18.2l1.4.7v1.9c0,.3,0,.6,0,1,.2-.2.5-.4.7-.7l1.4-1.3,1.4.7-3.4,2.6-.6,1.4-1.3-.6.6-1.4-.2-4.3ZM64.1,30.3l-1.1-.9.4-1-1.7-1.5-.9.5-1-.9,4.9-2.7,1.6,1.4-2.2,5.2ZM62.8,26.3l1.2,1,.9-2.2-2.1,1.2ZM70.4,30c.7,1,.3,1.9-.5,2.4-.8.6-1.8.6-2.5-.4l-.9-1.3-1.4,1-.8-1.2,4.4-3,1.7,2.4ZM67.5,30.2l.6.9c.3.4.7.4,1,.2.3-.2.5-.5.2-1l-.6-.9-1.2.8ZM73.4,35.7c.5,1.1,0,1.9-1,2.3-1,.4-1.9.2-2.3-.9l-.6-1.4-1.6.7-.5-1.3,4.9-2,1.1,2.8ZM70.5,35.3l.4,1c.2.5.6.5.9.4.4-.2.6-.4.4-.9l-.4-1-1.3.5ZM71,44.3c-.4,0-.6.2-.9.3l-.2-1.4c.2-.1.5-.2.9-.3h.2c.5-.1.7-.5.6-.9l-.2-1-1.9.3-.2-1.4,5.2-.9.5,2.9c.2,1.2-.3,1.9-1.1,2-.7.1-1.3-.3-1.6-.9,0,.6-.2,1.1-1,1.2h-.3ZM72.4,40.8l.2,1.1c0,.5.3.6.8.6.4,0,.6-.3.5-.8l-.2-1.1-1.3.2ZM69.8,47.8c.1-2.1,1.5-2.8,2.9-2.7,1.4,0,2.8.9,2.6,3-.1,2.1-1.6,2.8-2.9,2.7-1.4,0-2.7-.9-2.6-3ZM72.7,46.6c-1,0-1.7.2-1.7,1.3,0,1.1.5,1.4,1.6,1.5,1.1,0,1.7-.2,1.7-1.3,0-1.1-.5-1.4-1.6-1.5ZM69.3,52.4h5.6c0-.1-.4,1.3-.4,1.3h-3.5c-.3,0-.6,0-.9,0,.2.1.5.3.7.5l2.9,2-.4,1.4-4.6-3.2.6-2ZM69.1,58.8l-.9-.5-1.4,2.5-1-.5,2.1-3.7,4.6,2.6-2.1,3.7-1-.5,1.4-2.5-.9-.5-1.3,2.3-.9-.5,1.3-2.3ZM65.4,60.8l4,3.6-1.8,2c-1.2,1.3-2.6,1-3.7.1-1-.9-1.5-2.4-.3-3.7l1.8-2ZM65.3,62.6l-.6.7c-.6.7-.5,1.4.2,2.1.8.7,1.4.7,2.1,0l.6-.7-2.3-2.1ZM61.3,68.4l-2.9,1.8-.5-.8,2.9-1.8.5.8Z"/>
</svg>