<?xml version="1.0" encoding="UTF-8"?>
<svg id="Layer_1" data-name="Layer 1" xmlns="http://www.w3.org/2000/svg" width="92" height="92" viewBox="0 0 92 92">
  <path d="M46,0l4.24,2.97,4.74-2.08,3.58,3.74,5.05-1.12,2.78,4.36,5.17-.11,1.87,4.82,5.1.9.9,5.1,4.82,1.87-.11,5.17,4.36,2.78-1.12,5.05,3.74,3.58-2.08,4.74,2.97,4.24-2.97,4.24,2.08,4.74-3.74,3.58,1.12,5.05-4.36,2.78.11,5.17-4.82,1.87-.9,5.1-5.1.9-1.87,4.82-5.17-.11-2.78,4.36-5.05-1.12-3.58,3.74-4.74-2.08-4.24,2.97-4.24-2.97-4.74,2.08-3.58-3.74-5.05,1.12-2.78-4.36-5.17.11-1.87-4.82-5.1-.9-.9-5.1-4.82-1.87.11-5.17-4.36-2.78,1.12-5.05-3.74-3.58,2.08-4.74L0,46l2.97-4.24-2.08-4.74,3.74-3.58-1.12-5.05,4.36-2.78-.11-5.17,4.82-1.87.9-5.1,5.1-.9,1.87-4.82,5.17.11,2.78-4.36,5.05,1.12,3.58-3.74,4.74,2.08,4.24-2.97Z" fill="#f60"/>
</svg>