<?xml version="1.0" encoding="UTF-8"?>
<svg id="Layer_1" data-name="Layer 1" xmlns="http://www.w3.org/2000/svg" width="32.46mm" height="32.46mm" viewBox="0 0 92 92">
  <path d="M54.47,69l1.9,7.6-2,.5-1.5-6-3.4.8-.4-1.6,5.4-1.3ZM40.37,69.9h2.1c0,.1.4,1.6.4,1.6l3.3.2.6-1.4h2.1c0,.1-3.2,7.7-3.2,7.7l-3.2-.2s-2.1-7.9-2.1-7.9ZM45.47,73.2h-2.3c0-.1.9,3.2.9,3.2,0,0,1.4-3.2,1.4-3.2ZM38.87,72.4l-1.9,4.4-1.9-.8,1.8-4.2c.5-1.3.2-1.8-.8-2.2s-1.6-.3-2.1,1l-1.8,4.2-1.9-.8,1.9-4.4c.8-1.9,2.4-2.4,4.6-1.5,2.2.9,2.9,2.4,2.1,4.3ZM26.97,63.3l-4.2,4.4-1.4-1.4,5.4-5.6,2.4,2.3-1.9,5.2c-.1.3-.3.7-.5,1l4.2-4.4,1.4,1.4-5.4,5.6-2.4-2.3,2-5.3c.1-.3.3-.6.4-.9ZM24.57,56.2c1.3,2.7,0,4.6-1.9,5.5s-4.2.7-5.5-2c-1.2-2.5-.7-4,1.3-5.1l.9,1.9c-.9.5-1.3,1.2-.7,2.4.6,1.3,1.6,1.5,3,.8s1.9-1.5,1.3-2.8-1.3-1.5-2.4-1.1l-.9-1.9c2.2-.9,3.6-.3,4.8,2.3h.1ZM22.47,51.8l-7.8.7-.2-2.1,3-.3-.3-3.2-3,.3-.2-2.1,7.8-.7.2,2.1-3.1.3.3,3.2,3.1-.3s.2,2.1.2,2.1ZM19.27,40.5l1.5.4,1-4.1,1.6.4-1.5,6.1-7.6-1.8,1.5-6.1,1.6.4-1,4.1,1.4.3.9-3.7,1.5.4-.9,3.7v-.1ZM23.87,36.2l-6.6-4.2,2.1-3.3c1.4-2.1,3.5-2.1,5.3-1,1.7,1.1,2.7,3.1,1.3,5.2,0,0-2.1,3.3-2.1,3.3ZM23.57,33.5l.8-1.2c.8-1.2.4-2.1-.8-2.9-1.3-.8-2.2-.7-3,.5l-.8,1.2,3.8,2.4ZM30.97,24c.4.5,1.1.8,2,.2.8-.5,1-1,.7-1.5-.3-.4-.7-.5-1.2-.3l-1.5.7c-1.3.6-2.4.3-3.1-.8-.8-1.2-.4-2.7,1.6-3.9,2-1.3,3.5-.8,4.3.3l-1.7,1.1c-.4-.5-1-.6-1.8-.1-.7.4-.9.9-.6,1.4.2.3.6.5,1.1.2l1.3-.6c1.5-.8,2.6-.5,3.4.7.8,1.3.5,2.7-1.6,4-2.2,1.3-3.6.7-4.4-.5l1.7-1-.2.1ZM37.27,23.3l-.4-1.6,1.3-.4-1.2-4.4-1.3.4-.4-1.6,4.6-1.3.4,1.6-1.3.4,1.2,4.4,1.3-.4.4,1.6s-4.6,1.3-4.6,1.3ZM44.97,21.8v-6.2h-2.5v-1.6h7.1v1.6h-2.5v6.2h-2.1ZM53.17,19.5l-.5,1.5,4,1.2-.5,1.6-6-1.8,2.2-7.5,6,1.8-.5,1.6-4-1.2-.4,1.4,3.7,1.1-.4,1.4-3.7-1.1h.1ZM61.97,22.7l3.9,3.2-.8,1-3.9-3.2s.8-1,.8-1ZM66.07,31.8l1.4-.8,4.2,2.2c.6.3,1.1.3,1.5.1.5-.2.7-.7.3-1.5-.6-1.1-1.5-1-2.3-.6l-1-1.8c1.5-.8,3.4-.6,4.7,1.8,1.1,2.1.6,3.3-.5,3.9-.9.5-2,.4-4-.8l-1.6-.9,2,3.8-1.4.8s-3.3-6.2-3.3-6.2ZM69.87,42.6c-.4-2.8,1.4-4.1,3.5-4.4,2-.3,4.2.4,4.6,3.2s-1.5,4.1-3.5,4.4c-2.1.3-4.2-.4-4.6-3.2ZM73.67,40.3c-1.5.2-2.3.7-2.1,2.1.2,1.4,1.1,1.6,2.6,1.4,1.5-.2,2.3-.7,2.1-2.1-.2-1.4-1.1-1.6-2.6-1.4ZM70.57,47.3l1.6.3,1.9,4.4c.3.7.6,1,1.1,1s1-.1,1.1-1c.2-1.2-.5-1.7-1.4-1.9l.4-2c1.6.3,3.1,1.7,2.6,4.4-.4,2.3-1.6,2.9-2.8,2.7-1-.2-1.8-1-2.6-3.1l-.7-1.7-.8,4.2-1.6-.3,1.3-6.9-.1-.1ZM66.97,58.5l1.4.8,2.1-3.7,1.4.8,2.4,5.1-1.5,2.6-4-2.3-.6,1.1-1.4-.8.6-1.1-1.4-.8,1-1.8v.1ZM71.07,57.8l-1.3,2.2,3,1.7-1.8-4,.1.1ZM65.17,66.9l-4,3.1-.8-1.1,4-3.1.8,1.1Z" fill="#f8f4ef"/>
</svg>