<?xml version="1.0" encoding="UTF-8"?>
<svg id="Layer_1" data-name="Layer 1" xmlns="http://www.w3.org/2000/svg" width="32.46mm" height="32.46mm" viewBox="0 0 92 92">
  <path d="M54.65,69l1.9,7.5-2,.5-1.5-6-3.4.9-.4-1.6,5.4-1.4v.1ZM40.45,69.9h2.1c0,.1.4,1.6.4,1.6l3.3.2.6-1.4h2.1c0,.1-3.1,7.7-3.1,7.7l-3.2-.2s-2.2-7.9-2.2-7.9ZM45.65,73.3h-2.3c0-.1,1,3.2,1,3.2l1.3-3.2ZM39.05,72.5l-1.9,4.5-1.9-.8,1.7-4.2c.5-1.3.2-1.8-.8-2.2-1-.4-1.6-.3-2.1,1l-1.7,4.2-1.9-.8,1.9-4.5c.8-1.9,2.3-2.4,4.6-1.5s2.9,2.4,2.1,4.3ZM27.05,63.5l-4.2,4.5-1.4-1.3,5.3-5.7,2.5,2.3-1.9,5.2c-.1.3-.3.7-.5,1l4.2-4.5,1.4,1.3-5.3,5.7-2.5-2.3,2-5.3c.1-.3.2-.6.4-.9h0ZM24.65,56.4c1.3,2.7,0,4.6-1.9,5.5s-4.2.8-5.5-2c-1.2-2.5-.7-4,1.3-5.1l.9,1.9c-.9.5-1.3,1.2-.7,2.4.6,1.3,1.6,1.5,3.1.8,1.4-.7,1.9-1.5,1.3-2.8s-1.4-1.5-2.4-1l-.9-1.9c2.2-.9,3.6-.3,4.8,2.2ZM22.55,52l-7.8.7-.2-2.1,3-.3-.3-3.2-3,.3-.2-2.1,7.8-.7.2,2.1-3.1.3.3,3.2,3.1-.3s.2,2.1.2,2.1ZM19.25,40.7l1.5.4,1-4.1,1.6.4-1.4,6.1-7.6-1.8,1.4-6.1,1.6.4-1,4.1,1.4.3.9-3.7,1.5.3s-.9,3.7-.9,3.7ZM23.75,36.3l-6.6-4.1,2.1-3.3c1.3-2.1,3.5-2.1,5.2-1.1s2.7,3.1,1.4,5.2l-2.1,3.3ZM23.55,33.7l.7-1.2c.8-1.2.4-2.1-.9-2.9s-2.2-.7-3,.5l-.7,1.2,3.8,2.4h.1ZM30.85,24.1c.4.5,1.1.8,2,.2.8-.5,1-1,.7-1.5-.3-.4-.7-.5-1.2-.3l-1.5.7c-1.3.6-2.4.4-3.1-.8-.8-1.2-.4-2.7,1.5-3.9,2-1.3,3.5-.8,4.3.3l-1.7,1.1c-.4-.5-1-.6-1.8-.1-.7.4-.9.9-.6,1.4.2.3.6.5,1.1.2l1.3-.7c1.5-.8,2.6-.5,3.4.7.8,1.3.5,2.7-1.6,4-2.2,1.4-3.6.7-4.4-.4l1.7-1.1-.1.2ZM37.05,23.4l-.5-1.6,1.3-.4-1.3-4.3-1.3.4-.5-1.6,4.6-1.4.5,1.6-1.3.4,1.3,4.3,1.3-.4.5,1.6s-4.6,1.4-4.6,1.4ZM44.85,21.8v-6.2h-2.6v-1.6h7.1v1.6h-2.5v6.2h-2ZM52.95,19.5l-.4,1.5,4,1.2-.5,1.6-6-1.8,2.2-7.5,6,1.8-.5,1.6-4-1.2-.4,1.4,3.7,1.1-.4,1.4s-3.7-1.1-3.7-1.1ZM61.75,22.6l3.9,3.2-.8,1-3.9-3.2s.8-1,.8-1ZM65.85,31.7l1.4-.8,4.2,2.2c.6.3,1.1.3,1.5.1.5-.2.7-.7.3-1.5-.6-1.1-1.5-1-2.3-.6l-1-1.8c1.5-.8,3.4-.6,4.7,1.8,1.1,2.1.6,3.3-.5,3.9-.9.5-2,.4-4-.8l-1.6-.9,2,3.8-1.4.8s-3.3-6.2-3.3-6.2ZM69.85,42.4c-.4-2.8,1.4-4.1,3.4-4.5,2-.3,4.2.4,4.6,3.2s-1.4,4.1-3.5,4.5c-2,.3-4.2-.4-4.6-3.2h.1ZM73.65,40.1c-1.5.2-2.3.7-2.1,2.1.2,1.4,1.1,1.6,2.6,1.3,1.5-.2,2.3-.7,2.1-2.1-.2-1.4-1.1-1.6-2.6-1.3ZM70.55,47.1l1.6.3,1.9,4.3c.3.7.6,1,1.1,1s1-.2,1.1-1c.2-1.2-.5-1.7-1.4-1.9l.4-2c1.6.3,3.1,1.7,2.6,4.3-.4,2.3-1.6,2.9-2.8,2.7-1-.2-1.8-1-2.6-3.1l-.7-1.6-.8,4.2-1.6-.3,1.3-6.9h-.1ZM68.85,55.2l1.4.8.3,4.7c0,.7.3,1.1.7,1.3.4.3,1,.2,1.4-.5.6-1.1,0-1.8-.7-2.3l1-1.8c1.4.9,2.4,2.6,1,5-1.2,2.1-2.5,2.2-3.6,1.6-.9-.5-1.4-1.5-1.4-3.8v-1.8l-2.2,3.7-1.4-.8s3.5-6.1,3.5-6.1ZM65.05,67l-4,3-.8-1.1,4-3,.8,1.1Z" fill="#f8f4ef"/>
</svg>