<?xml version="1.0" encoding="UTF-8"?>
<svg id="Layer_1" data-name="Layer 1" xmlns="http://www.w3.org/2000/svg" width="32.46mm" height="32.46mm" viewBox="0 0 92 92">
  <path d="M45.95,0l4.2,2.99,4.7-2.1,3.6,3.69,5.1-1.1,2.8,4.39h5.2l1.9,4.69,5.1.9.9,5.09,4.8,1.9v5.19l4.3,2.79-1.1,5.09,3.7,3.59-2.1,4.69,3,4.19-3,4.19,2.1,4.69-3.7,3.59,1.1,5.09-4.4,2.79v5.19l-4.7,1.9-.9,5.09-5.1.9-1.9,4.79h-5.2l-2.8,4.29-5.1-1.1-3.6,3.69-4.7-2.1-4.2,2.99-4.2-2.99-4.7,2.1-3.6-3.69-5.1,1.1-2.8-4.39h-5.2l-1.9-4.69-5.1-.9-.9-5.09-4.8-1.9v-5.19l-4.3-2.79,1.1-5.09-3.7-3.59,2.1-4.69L0,46l3-4.19-2.1-4.69,3.7-3.59-1.1-5.09,4.4-2.79v-5.19l4.7-1.9.9-5.09,5.1-.9,1.9-4.79h5.2l2.8-4.29,5.1,1.1,3.6-3.69,4.7,2.1L45.95,0h0Z" fill="#f60"/>
</svg>