<svg width="116" height="128" viewBox="0 0 116 128" fill="none" xmlns="http://www.w3.org/2000/svg">
<g filter="url(#filter0_dddd_5738_1885)">
<path d="M57.6094 1.08691L62.2162 4.31323L67.3639 2.04765L71.2528 6.11072L76.7435 4.89294L79.765 9.63662L85.3879 9.51343L87.4259 14.7554L92.9647 15.7316L93.9409 21.2704L99.1829 23.3084L99.0597 28.9313L103.803 31.9527L102.586 37.4435L106.649 41.3324L104.383 46.4801L107.609 51.0869L104.383 55.6937L106.649 60.8414L102.586 64.7303L103.803 70.2211L99.0597 73.2426L99.1829 78.8654L93.9409 80.9034L92.9647 86.4423L87.4259 87.4184L85.3879 92.6604L79.765 92.5372L76.7435 97.2809L71.2528 96.0631L67.3639 100.126L62.2162 97.8606L57.6094 101.087L53.0026 97.8606L47.8549 100.126L43.966 96.0631L38.4752 97.2809L35.4537 92.5372L29.8309 92.6604L27.7929 87.4184L22.254 86.4423L21.2779 80.9034L16.0359 78.8654L16.1591 73.2426L11.4154 70.2211L12.6332 64.7303L8.57011 60.8414L10.8357 55.6937L7.60938 51.0869L10.8357 46.4801L8.57011 41.3324L12.6332 37.4435L11.4154 31.9527L16.1591 28.9313L16.0359 23.3084L21.2779 21.2704L22.254 15.7316L27.7929 14.7554L29.8309 9.51343L35.4537 9.63662L38.4752 4.89294L43.966 6.11072L47.8549 2.04765L53.0026 4.31323L57.6094 1.08691Z" fill="#FF6600"/>
</g>
<g filter="url(#filter1_dddd_5738_1885)">
<path d="M57.6101 6.52173L61.7162 9.39736L66.3044 7.37804L69.7705 10.9995L74.6645 9.91405L77.3576 14.1421L82.3692 14.0323L84.1857 18.7045L89.1225 19.5746L89.9926 24.5114L94.6648 26.3278L94.555 31.3395L98.783 34.0326L97.6976 38.9265L101.319 42.3927L99.2997 46.9809L102.175 51.0869L99.2997 55.193L101.319 59.7812L97.6976 63.2473L98.783 68.1413L94.555 70.8344L94.6648 75.8461L89.9926 77.6625L89.1225 82.5993L84.1857 83.4694L82.3692 88.1416L77.3576 88.0318L74.6645 92.2598L69.7705 91.1744L66.3044 94.7959L61.7162 92.7765L57.6101 95.6522L53.5041 92.7765L48.9159 94.7959L45.4497 91.1744L40.5558 92.2598L37.8627 88.0318L32.851 88.1416L31.0346 83.4694L26.0978 82.5993L25.2277 77.6625L20.5555 75.8461L20.6653 70.8344L16.4372 68.1413L17.5227 63.2473L13.9012 59.7812L15.9206 55.193L13.0449 51.0869L15.9206 46.9809L13.9012 42.3927L17.5227 38.9265L16.4372 34.0326L20.6653 31.3395L20.5555 26.3278L25.2277 24.5114L26.0978 19.5746L31.0346 18.7045L32.851 14.0323L37.8627 14.1421L40.5558 9.91405L45.4497 10.9995L48.9159 7.37804L53.5041 9.39736L57.6101 6.52173Z" fill="#FF6600"/>
<path d="M57.9219 6.07642L61.7764 8.77563L66.0859 6.88013L66.4336 6.72681L66.6973 7.0022L69.9512 10.4026L74.5469 9.38306L74.918 9.30103L75.123 9.62231L77.6514 13.592L82.3574 13.4885L82.7383 13.4807L82.876 13.8352L84.5811 18.2219L89.2168 19.0393L89.5918 19.1057L89.6582 19.4807L90.4736 24.1155L94.8613 25.8215L95.2168 25.9592L95.208 26.3401L95.1045 31.0452L99.0752 33.5745L99.3965 33.7786L99.3135 34.1506L98.2939 38.7454L101.695 42.0002L101.97 42.2629L101.816 42.6116L99.9199 46.9192L102.62 50.7756L102.839 51.0872L102.62 51.3987L99.9199 55.2542L101.816 59.5627L101.97 59.9104L101.695 60.1741L98.2939 63.428L99.3135 68.0237L99.3965 68.3948L99.0752 68.5999L95.1045 71.1282L95.208 75.8342L95.2168 76.2151L94.8613 76.3528L90.4736 78.0579L89.6582 82.6936L89.5918 83.0686L89.2168 83.135L84.5811 83.9504L82.876 88.3381L82.7383 88.6936L82.3574 88.6848L77.6514 88.5813L75.123 92.552L74.918 92.8733L74.5469 92.7903L69.9512 91.7708L66.6973 95.1721L66.4336 95.4465L66.0859 95.2932L61.7773 93.3967L57.9219 96.0969L57.6104 96.3157L57.2988 96.0969L53.4424 93.3967L49.1348 95.2932L48.7861 95.4465L48.5234 95.1721L45.2686 91.7708L40.6738 92.7903L40.3018 92.8733L40.0977 92.552L37.5684 88.5813L32.8633 88.6848L32.4824 88.6936L32.3447 88.3381L30.6387 83.9504L26.0039 83.135L25.6289 83.0686L25.5625 82.6936L24.7451 78.0579L20.3584 76.3528L20.0039 76.2151L20.0117 75.8342L20.1152 71.1282L16.1455 68.5999L15.8242 68.3948L15.9062 68.0237L16.9258 63.428L13.5254 60.1741L13.25 59.9104L13.4033 59.5627L15.2988 55.2532L12.5996 51.3987L12.3818 51.0872L12.5996 50.7756L15.2998 46.9192L13.4033 42.6116L13.25 42.2629L13.5254 42.0002L16.9248 38.7444L15.9062 34.1506L15.8242 33.7786L16.1455 33.5745L20.1152 31.0452L20.0117 26.3401L20.0039 25.9592L20.3584 25.8215L24.7451 24.1155L25.5625 19.4807L25.6289 19.1057L26.0039 19.0393L30.6387 18.2219L32.3447 13.8352L32.4824 13.4807L32.8633 13.4885L37.5684 13.592L40.0977 9.62231L40.3018 9.30103L40.6738 9.38306L45.2676 10.4016L48.5234 7.0022L48.7861 6.72681L49.1348 6.88013L53.4424 8.77661L57.2988 6.07642L57.6104 5.85864L57.9219 6.07642Z" stroke="#F8F4EF" stroke-width="1.08696"/>
</g>
<path d="M42.9292 74.8989L38.8879 80.8387L36.8824 79.9275L41.7064 72.8189L45.1726 74.3937L43.6099 80.9422L47.5027 75.4524L50.9573 77.0219L48.7879 85.3367L46.7824 84.4255L48.5979 77.4744L44.3596 83.3247L41.3223 81.9448L42.9292 74.8989ZM37.5102 68.4466C39.6863 70.9752 38.8347 73.304 37.1169 74.7824C35.4279 76.2359 32.95 76.7726 30.7738 74.2441C28.5811 71.6962 29.4989 69.3272 31.1782 67.882C32.8864 66.4119 35.3175 65.8988 37.5102 68.4466ZM35.5886 73.0066C36.8432 71.9269 37.268 70.9565 36.1301 69.6343C34.9756 68.2929 33.9611 68.578 32.7065 69.6578C31.4325 70.7541 31.0091 71.7066 32.1636 73.048C33.3015 74.3702 34.3147 74.103 35.5886 73.0066ZM29.914 57.9577C30.5567 57.7136 30.8629 57.5156 31.2836 57.2605L32.0882 59.3793C31.803 59.5966 31.3687 59.816 30.714 60.0646L30.3926 60.1867C29.6308 60.476 29.459 61.0996 29.7167 61.7781L30.2636 63.2184L33.1324 62.1291L33.937 64.2479L26.0211 67.2539L24.3577 62.8733C23.6796 61.0878 24.2662 59.8708 25.5399 59.3871C26.6708 58.9577 27.7083 59.3945 28.2859 60.3057C28.1525 59.4165 28.307 58.5679 29.4735 58.1249L29.914 57.9577ZM28.7638 63.788L28.1174 62.0858C27.8417 61.3597 27.3954 61.1886 26.7169 61.4463C26.0979 61.6814 25.9059 62.1084 26.1726 62.8107L26.8235 64.5248L28.7638 63.788ZM31.0851 56.1055L22.6216 56.3624L22.5536 54.1224L26.2954 54.0088L22.4601 51.0425L22.372 48.1407L26.0592 51.2644L30.7206 47.8745L30.8351 47.871L30.9167 50.5565L27.7589 52.7033L29.1844 53.9211L31.0171 53.8655L31.0851 56.1055ZM31.6853 44.0689L30.0413 43.4132L30.5932 42.0295L26.0162 40.204L25.4643 41.5878L23.8203 40.9321L25.7543 36.0831L27.3982 36.7387L26.8463 38.1225L31.4234 39.9479L31.9753 38.5642L33.6192 39.2198L31.6853 44.0689ZM36.965 32.0253L31.8207 27.7965L33.179 26.144L39.7201 31.5209L37.3834 34.3636L31.6187 32.6742C31.2364 32.5577 30.8523 32.4233 30.4747 32.2612L35.6288 36.498L34.2705 38.1505L27.7294 32.7736L30.0661 29.931L35.9355 31.6735C36.2525 31.7692 36.6267 31.8955 36.965 32.0253ZM44.3105 19.159C46.0941 18.3754 47.3122 19.2171 47.9319 20.6277C48.5925 22.1315 48.3884 23.598 46.6048 24.3816L44.3432 25.3751L45.4545 27.9048L43.3794 28.8164L39.9738 21.0641L44.3105 19.159ZM43.6467 23.7897L45.2205 23.0983C45.9666 22.7705 46.0583 22.1879 45.792 21.5817C45.5308 20.9871 45.0718 20.702 44.3373 21.0247L42.7402 21.7263L43.6467 23.7897ZM58.2589 23.4239C58.3249 24.1083 58.4351 24.4559 58.5703 24.929L56.3143 25.1464C56.1799 24.814 56.0828 24.3372 56.0156 23.6402L55.9826 23.2979C55.9044 22.4868 55.3481 22.1567 54.6257 22.2263L53.0921 22.3741L53.3865 25.4286L51.1305 25.646L50.3182 17.2177L54.9823 16.7681C56.8834 16.5849 57.9027 17.4716 58.0334 18.8278C58.1494 20.0318 57.4545 20.9175 56.4233 21.2343C57.3162 21.3402 58.094 21.7129 58.2137 22.955L58.2589 23.4239ZM52.9382 20.7772L54.7506 20.6025C55.5238 20.528 55.8064 20.1425 55.7368 19.4201C55.6733 18.761 55.312 18.4633 54.5642 18.5354L52.7391 18.7113L52.9382 20.7772ZM63.6095 26.3012C60.3763 25.4795 59.737 23.0837 60.2952 20.8871C60.844 18.7274 62.5652 16.8657 65.7984 17.6874C69.0564 18.5153 69.6645 20.982 69.1188 23.1293C68.5637 25.3136 66.8675 27.1291 63.6095 26.3012ZM62.5659 21.4641C62.1582 23.0684 62.3673 24.1068 64.058 24.5364C65.7733 24.9723 66.4404 24.1566 66.8481 22.5523C67.2621 20.9233 67.0622 19.9003 65.3469 19.4644C63.6562 19.0348 62.9799 19.8351 62.5659 21.4641ZM71.8048 29.9862C69.551 28.3878 69.7148 26.0219 71.107 24.059C72.5287 22.0545 74.7965 21.2121 77.4864 23.1199C79.8752 24.8142 80.0217 26.5884 79.1576 28.0049L77.3297 26.7084C77.6738 26.0471 77.4817 25.2396 76.495 24.5398C75.2591 23.6632 74.1229 23.8565 73.018 25.4144C71.9794 26.8788 72.0068 28.0066 73.2428 28.8831C74.4891 29.7671 75.3391 29.449 76.0058 28.7511L73.7728 27.1673L74.5905 26.0145L78.5579 28.8284L75.8693 32.6192L74.3425 31.5364L75.2412 30.2693C74.4482 30.8152 73.3211 31.0617 71.8048 29.9862ZM82.1579 38.6497C81.5932 39.042 81.3439 39.3081 80.9974 39.6573L79.7044 37.7959C79.9287 37.5161 80.297 37.1982 80.8722 36.7987L81.1545 36.6026C81.8238 36.1377 81.8397 35.491 81.4257 34.8949L80.5467 33.6295L78.0264 35.3801L76.7335 33.5187L83.6878 28.6882L86.3609 32.5366C87.4505 34.1052 87.1756 35.428 86.0566 36.2052C85.0631 36.8953 83.9507 36.7223 83.17 35.9778C83.5144 36.8083 83.5697 37.6691 82.5448 38.3809L82.1579 38.6497ZM81.8644 32.7143L82.9032 34.2097C83.3463 34.8477 83.8207 34.9057 84.4168 34.4917C84.9605 34.1139 85.0436 33.6532 84.615 33.0362L83.569 31.5303L81.8644 32.7143ZM85.4726 41.8545L83.8281 42.3547L85.1582 46.728L83.465 47.2431L81.4827 40.7257L89.5836 38.2618L91.5548 44.7425L89.8615 45.2576L88.5425 40.9208L87.0441 41.3765L88.252 45.3478L86.6805 45.8258L85.4726 41.8545ZM86.3041 50.254C85.6031 50.3101 84.9616 50.7617 84.9489 51.9458C84.9373 53.028 85.3149 53.4395 85.9006 53.4458C86.4608 53.4518 86.7445 53.1238 86.8404 52.4881L87.0639 50.6441C87.2586 49.1182 88.1338 48.249 89.5725 48.2644C91.164 48.2814 92.2462 49.49 92.2199 51.9346C92.192 54.5447 90.933 55.5754 89.4294 55.6738L89.4531 53.4584C90.1289 53.3765 90.58 52.872 90.5902 51.9171C90.5995 51.0513 90.2612 50.5384 89.701 50.5324C89.2681 50.5277 88.9471 50.7789 88.8637 51.4275L88.6808 53.0427C88.4827 54.8997 87.5951 55.7306 86.0673 55.7142C84.3993 55.6963 83.2901 54.6403 83.3196 51.8901C83.3495 49.1018 84.8113 48.1497 86.3274 48.0768L86.3041 50.254ZM85.2639 59.2787C84.5802 59.1142 83.8301 59.344 83.4501 60.4655C83.1027 61.4906 83.3337 61.9991 83.8885 62.1871C84.4191 62.3669 84.7906 62.1432 85.0794 61.5688L85.8649 59.8856C86.5241 58.4957 87.6261 57.9415 88.9888 58.4032C90.4962 58.9141 91.1492 60.3991 90.3646 62.7145C89.5269 65.1866 88.01 65.775 86.5502 65.4014L87.2612 63.303C87.929 63.4352 88.5145 63.0959 88.821 62.1914C89.0989 61.3714 88.9367 60.7787 88.4061 60.5989C87.9961 60.4599 87.6129 60.5989 87.3321 61.1895L86.6564 62.6679C85.8909 64.3713 84.7891 64.8853 83.342 64.3949C81.7622 63.8596 81.0361 62.5111 81.9187 59.9063C82.8137 57.2653 84.499 56.8146 85.9627 57.2165L85.2639 59.2787Z" fill="#F8F4EF"/>
<path d="M57.6089 64.5637C64.6125 64.5637 70.2901 58.8862 70.2901 51.8826C70.2901 44.879 64.6125 39.2014 57.6089 39.2014C50.6053 39.2014 44.9277 44.879 44.9277 51.8826C44.9277 58.8862 50.6053 64.5637 57.6089 64.5637Z" stroke="#F8F4EF" stroke-width="1.7" stroke-linecap="round" stroke-linejoin="round"/>
<path d="M52.5377 40.4695H53.8058C51.333 47.8753 51.333 55.8898 53.8058 63.2956H52.5377" stroke="#F8F4EF" stroke-width="1.7" stroke-linecap="round" stroke-linejoin="round"/>
<path d="M61.4141 40.4695C63.8869 47.8753 63.8869 55.8898 61.4141 63.2956" stroke="#F8F4EF" stroke-width="1.7" stroke-linecap="round" stroke-linejoin="round"/>
<path d="M46.1953 56.955V55.6869C53.6011 58.1597 61.6156 58.1597 69.0214 55.6869V56.955" stroke="#F8F4EF" stroke-width="1.7" stroke-linecap="round" stroke-linejoin="round"/>
<path d="M46.1953 48.0783C53.6011 45.6054 61.6156 45.6054 69.0214 48.0783" stroke="#F8F4EF" stroke-width="1.7" stroke-linecap="round" stroke-linejoin="round"/>
<defs>
<filter id="filter0_dddd_5738_1885" x="0.000679493" y="-4.24385e-05" width="115.217" height="127.174" filterUnits="userSpaceOnUse" color-interpolation-filters="sRGB">
<feFlood flood-opacity="0" result="BackgroundImageFix"/>
<feColorMatrix in="SourceAlpha" type="matrix" values="0 0 0 0 0 0 0 0 0 0 0 0 0 0 0 0 0 0 127 0" result="hardAlpha"/>
<feOffset dy="1.08696"/>
<feGaussianBlur stdDeviation="1.08696"/>
<feColorMatrix type="matrix" values="0 0 0 0 0 0 0 0 0 0 0 0 0 0 0 0 0 0 0.1 0"/>
<feBlend mode="normal" in2="BackgroundImageFix" result="effect1_dropShadow_5738_1885"/>
<feColorMatrix in="SourceAlpha" type="matrix" values="0 0 0 0 0 0 0 0 0 0 0 0 0 0 0 0 0 0 127 0" result="hardAlpha"/>
<feOffset dy="4.34783"/>
<feGaussianBlur stdDeviation="2.17391"/>
<feColorMatrix type="matrix" values="0 0 0 0 0 0 0 0 0 0 0 0 0 0 0 0 0 0 0.09 0"/>
<feBlend mode="normal" in2="effect1_dropShadow_5738_1885" result="effect2_dropShadow_5738_1885"/>
<feColorMatrix in="SourceAlpha" type="matrix" values="0 0 0 0 0 0 0 0 0 0 0 0 0 0 0 0 0 0 127 0" result="hardAlpha"/>
<feOffset dy="10.8696"/>
<feGaussianBlur stdDeviation="3.26087"/>
<feColorMatrix type="matrix" values="0 0 0 0 0 0 0 0 0 0 0 0 0 0 0 0 0 0 0.05 0"/>
<feBlend mode="normal" in2="effect2_dropShadow_5738_1885" result="effect3_dropShadow_5738_1885"/>
<feColorMatrix in="SourceAlpha" type="matrix" values="0 0 0 0 0 0 0 0 0 0 0 0 0 0 0 0 0 0 127 0" result="hardAlpha"/>
<feOffset dy="18.4783"/>
<feGaussianBlur stdDeviation="3.80435"/>
<feColorMatrix type="matrix" values="0 0 0 0 0 0 0 0 0 0 0 0 0 0 0 0 0 0 0.01 0"/>
<feBlend mode="normal" in2="effect3_dropShadow_5738_1885" result="effect4_dropShadow_5738_1885"/>
<feBlend mode="normal" in="SourceGraphic" in2="effect4_dropShadow_5738_1885" result="shape"/>
</filter>
<filter id="filter1_dddd_5738_1885" x="4.11005" y="4.10775" width="107.001" height="118.958" filterUnits="userSpaceOnUse" color-interpolation-filters="sRGB">
<feFlood flood-opacity="0" result="BackgroundImageFix"/>
<feColorMatrix in="SourceAlpha" type="matrix" values="0 0 0 0 0 0 0 0 0 0 0 0 0 0 0 0 0 0 127 0" result="hardAlpha"/>
<feOffset dy="1.08696"/>
<feGaussianBlur stdDeviation="1.08696"/>
<feColorMatrix type="matrix" values="0 0 0 0 0 0 0 0 0 0 0 0 0 0 0 0 0 0 0.1 0"/>
<feBlend mode="normal" in2="BackgroundImageFix" result="effect1_dropShadow_5738_1885"/>
<feColorMatrix in="SourceAlpha" type="matrix" values="0 0 0 0 0 0 0 0 0 0 0 0 0 0 0 0 0 0 127 0" result="hardAlpha"/>
<feOffset dy="4.34783"/>
<feGaussianBlur stdDeviation="2.17391"/>
<feColorMatrix type="matrix" values="0 0 0 0 0 0 0 0 0 0 0 0 0 0 0 0 0 0 0.09 0"/>
<feBlend mode="normal" in2="effect1_dropShadow_5738_1885" result="effect2_dropShadow_5738_1885"/>
<feColorMatrix in="SourceAlpha" type="matrix" values="0 0 0 0 0 0 0 0 0 0 0 0 0 0 0 0 0 0 127 0" result="hardAlpha"/>
<feOffset dy="10.8696"/>
<feGaussianBlur stdDeviation="3.26087"/>
<feColorMatrix type="matrix" values="0 0 0 0 0 0 0 0 0 0 0 0 0 0 0 0 0 0 0.05 0"/>
<feBlend mode="normal" in2="effect2_dropShadow_5738_1885" result="effect3_dropShadow_5738_1885"/>
<feColorMatrix in="SourceAlpha" type="matrix" values="0 0 0 0 0 0 0 0 0 0 0 0 0 0 0 0 0 0 127 0" result="hardAlpha"/>
<feOffset dy="18.4783"/>
<feGaussianBlur stdDeviation="3.80435"/>
<feColorMatrix type="matrix" values="0 0 0 0 0 0 0 0 0 0 0 0 0 0 0 0 0 0 0.01 0"/>
<feBlend mode="normal" in2="effect3_dropShadow_5738_1885" result="effect4_dropShadow_5738_1885"/>
<feBlend mode="normal" in="SourceGraphic" in2="effect4_dropShadow_5738_1885" result="shape"/>
</filter>
</defs>
</svg>
