<svg width="585" height="1055" viewBox="0 0 585 1055" fill="none" xmlns="http://www.w3.org/2000/svg">
<path d="M588.856 1.41772C463.802 -18.2968 393.768 221.417 210.803 218.733C167.74 218.103 117.986 204.035 67.0891 234.828C60.8325 238.611 5.32433 273.341 0.904962 331.152C-2.33216 373.527 23.576 406.184 54.4325 445.055C87.8053 487.117 104.873 490.743 124.68 514.206C181.305 581.291 134.65 661.685 148.967 769.616C161.332 862.461 219.583 981.34 322.604 1029.3C455.879 1091.32 650.532 1028.39 682.145 929.662C718.934 814.825 507.336 737.981 518.696 565.545C529.817 396.413 741.284 350.549 730.514 189.84C724.982 106.611 661.119 12.8277 588.856 1.41772Z" stroke="url(#paint0_linear_5328_1814)" stroke-width="0.5" stroke-miterlimit="10"/>
<defs>
<linearGradient id="paint0_linear_5328_1814" x1="-133.639" y1="727.998" x2="787.756" y2="841.755" gradientUnits="userSpaceOnUse">
<stop stop-color="#222222" stop-opacity="0.5"/>
<stop offset="1" stop-color="#584911" stop-opacity="0"/>
</linearGradient>
</defs>
</svg>
