<svg width="683" height="925" viewBox="0 0 683 925" fill="none" xmlns="http://www.w3.org/2000/svg">
<path d="M793.258 57.843C694.816 -20.1546 514.307 148.951 357.197 57.0331C320.218 35.4013 284.164 -0.913635 224.69 0.281646C217.38 0.426042 151.943 2.70263 119.21 49.5955C95.2197 83.968 101.328 124.374 108.615 172.477C116.486 224.521 129.454 235.959 134.876 265.574C150.372 350.244 69.7706 395.608 28.2045 494.211C-7.5104 579.056 -16.5029 708.475 48.7354 799.647C133.146 917.571 333.186 959.536 409.927 891.246C499.205 811.82 354.378 642.943 450.434 502.182C544.631 364.107 750.699 428.791 821.727 287.139C858.55 213.801 850.135 102.929 793.258 57.843Z" stroke="url(#paint0_linear_5328_1816)" stroke-width="0.5" stroke-miterlimit="10"/>
<defs>
<linearGradient id="paint0_linear_5328_1816" x1="-195.731" y1="320.437" x2="534.344" y2="882.672" gradientUnits="userSpaceOnUse">
<stop stop-color="#222222" stop-opacity="0.5"/>
<stop offset="1" stop-color="#584911" stop-opacity="0"/>
</linearGradient>
</defs>
</svg>
