<svg width="491" height="1082" viewBox="0 0 491 1082" fill="none" xmlns="http://www.w3.org/2000/svg">
<path d="M490.512 162.112C491.287 64.6131 347.15 27.0532 299.692 14.7049C263.091 5.12527 172.917 -16.8547 57.4879 24.5865C-95.4624 79.3981 -102.441 177.42 -265.763 247.269C-395.23 302.63 -454.824 268.472 -523.173 340.662C-568.671 388.691 -600.391 465.099 -582.207 510.577C-550.182 590.522 -374.788 547.471 -347.519 540.699C-222.444 509.967 -223.021 430.862 -127.2 469.802C-76.7069 492.694 -65.6109 590.858 -101.802 665.399C-142.177 748.531 -214.266 746.693 -273.944 839.312C-323.424 916.126 -344.552 1027.2 -303.837 1065.02C-247.203 1117.63 -61.9934 1036.6 46.3472 907.843C158.482 774.558 99.2517 696.148 210.647 510.799C333.972 305.646 489.686 263.251 490.512 162.112Z" stroke="url(#paint0_linear_5328_1820)" stroke-width="0.5" stroke-miterlimit="10"/>
<defs>
<linearGradient id="paint0_linear_5328_1820" x1="567.741" y1="20.6563" x2="-299.409" y2="-186.298" gradientUnits="userSpaceOnUse">
<stop stop-color="#222222" stop-opacity="0.5"/>
<stop offset="1" stop-color="#584911" stop-opacity="0"/>
</linearGradient>
</defs>
</svg>
