<svg width="441" height="503" viewBox="0 0 441 503" fill="none" xmlns="http://www.w3.org/2000/svg">
<path d="M439.392 81.7882C426.996 11.687 318.525 3.86971 282.813 1.30915C255.263 -0.706057 187.604 -4.50674 110.239 40.5799C7.71162 100.25 15.7232 171.551 -92.2522 243.395C-177.846 300.34 -225.169 283.734 -264.648 344.642C-290.933 385.168 -303.555 444.238 -284.458 474.472C-250.846 527.613 -130.644 473.404 -111.966 464.92C-26.2526 426.24 -37.1762 369.525 36.7905 384.752C76.0825 394.479 97.0896 463.48 81.009 521.803C63.0669 586.851 11.0673 595.108 -19.4735 669.53C-44.7926 731.251 -45.2051 813.801 -10.9504 835.543C36.6991 865.792 158.903 783.013 219.579 676.181C282.378 565.594 229.438 517.17 284.789 369.303C346.074 205.632 452.235 154.509 439.392 81.7882Z" stroke="url(#paint0_linear_6210_1950)" stroke-width="0.5" stroke-miterlimit="10"/>
<defs>
<linearGradient id="paint0_linear_6210_1950" x1="476.045" y1="-30.028" x2="-174.006" y2="-63.4083" gradientUnits="userSpaceOnUse">
<stop stop-color="#584911" stop-opacity="0"/>
<stop offset="1" stop-color="#222222" stop-opacity="0.5"/>
</linearGradient>
</defs>
</svg>
