<svg width="506" height="467" viewBox="0 0 506 467" fill="none" xmlns="http://www.w3.org/2000/svg">
<path d="M787.273 -204.939C787.84 -276.126 682.602 -303.549 647.951 -312.565C621.228 -319.559 555.39 -335.607 471.113 -305.35C359.44 -265.331 354.344 -193.763 235.099 -142.764C140.573 -102.344 97.0615 -127.283 47.1587 -74.5759C13.9392 -39.5087 -9.22037 16.2786 4.05629 49.4829C27.4387 107.852 155.497 76.4201 175.407 71.4756C266.728 49.0377 266.306 -8.71873 336.268 19.7122C373.134 36.4264 381.235 108.098 354.811 162.522C325.333 223.219 272.699 221.876 229.126 289.5C193 345.584 177.574 426.681 207.301 454.292C248.651 492.706 383.876 433.544 462.978 339.536C544.851 242.222 501.605 184.973 582.938 49.6453C672.98 -100.142 786.67 -131.095 787.273 -204.939Z" stroke="url(#paint0_linear_6210_1974)" stroke-width="0.5" stroke-miterlimit="10"/>
<defs>
<linearGradient id="paint0_linear_6210_1974" x1="843.66" y1="-308.22" x2="210.533" y2="-459.322" gradientUnits="userSpaceOnUse">
<stop stop-color="#222222" stop-opacity="0.5"/>
<stop offset="1" stop-color="#584911" stop-opacity="0"/>
</linearGradient>
</defs>
</svg>
