<svg width="556" height="357" viewBox="0 0 556 357" fill="none" xmlns="http://www.w3.org/2000/svg">
<path d="M787.96 -314.939C788.526 -386.126 683.288 -413.549 648.638 -422.565C621.915 -429.559 556.077 -445.607 471.799 -415.35C360.126 -375.331 355.031 -303.763 235.786 -252.764C141.259 -212.344 97.7481 -237.283 47.8452 -184.576C14.6257 -149.509 -8.53385 -93.7214 4.74282 -60.5171C28.1252 -2.1476 156.184 -33.5799 176.094 -38.5244C267.414 -60.9623 266.993 -118.719 336.954 -90.2878C373.82 -73.5736 381.922 -1.90233 355.497 52.5218C326.019 113.219 273.385 111.876 229.813 179.5C193.686 235.584 178.26 316.681 207.987 344.292C249.337 382.706 384.563 323.544 463.665 229.536C545.537 132.222 502.292 74.9729 583.624 -60.3547C673.666 -210.142 787.357 -241.095 787.96 -314.939Z" stroke="url(#paint0_linear_3931_5706)" stroke-opacity="0.5" stroke-width="0.5" stroke-miterlimit="10"/>
<defs>
<linearGradient id="paint0_linear_3931_5706" x1="844.347" y1="-418.22" x2="211.22" y2="-569.322" gradientUnits="userSpaceOnUse">
<stop stop-color="#222222" stop-opacity="0.5"/>
<stop offset="1" stop-color="#584911" stop-opacity="0"/>
</linearGradient>
</defs>
</svg>
