<svg width="475" height="518" viewBox="0 0 475 518" fill="none" xmlns="http://www.w3.org/2000/svg">
<path d="M473.96 119.061C474.526 47.8742 369.288 20.4508 334.638 11.4351C307.915 4.44076 242.077 -11.6073 157.799 18.6499C46.1265 58.6691 41.0309 130.237 -78.2143 181.236C-172.741 221.656 -216.252 196.717 -266.155 249.424C-299.374 284.491 -322.534 340.279 -309.257 373.483C-285.875 431.852 -157.816 400.42 -137.906 395.476C-46.5857 373.038 -47.0074 315.281 22.954 343.712C59.8203 360.426 67.9218 432.098 41.4974 486.522C12.0192 547.219 -40.6147 545.876 -84.1871 613.5C-120.314 669.584 -135.74 750.681 -106.013 778.292C-64.6626 816.706 70.5629 757.544 149.665 663.536C231.537 566.222 188.292 508.973 269.624 373.645C359.666 223.858 473.357 192.905 473.96 119.061Z" stroke="url(#paint0_linear_3932_5715)" stroke-opacity="0.5" stroke-width="0.5" stroke-miterlimit="10"/>
<defs>
<linearGradient id="paint0_linear_3932_5715" x1="240.218" y1="422.717" x2="391.32" y2="-210.41" gradientUnits="userSpaceOnUse">
<stop stop-color="#222222" stop-opacity="0.5"/>
<stop offset="1" stop-color="#584911" stop-opacity="0"/>
</linearGradient>
</defs>
</svg>
