<svg width="561" height="699" viewBox="0 0 561 699" fill="none" xmlns="http://www.w3.org/2000/svg">
<path d="M340.303 662.644C490.994 633.957 598.347 474.816 546.758 388.368C484.446 283.987 227.213 347.364 120.468 215.89C52.5621 132.227 113.252 53.0203 38.9604 15.1422C-39.2839 -24.7474 -173.88 28.7894 -236.719 64.1917C-337.828 121.117 -442.343 237.598 -398.883 323.304C-349.727 420.335 -145.238 410.092 -129.285 495.736C-118.805 551.841 -200.232 589.735 -171.326 648.919C-157.34 677.529 -121.663 702.672 -100.927 697.721C-67.237 689.675 -106.035 609.942 -46.5 532.623C-15.3847 492.208 44.7175 449.796 80.9612 459.9C133.219 474.352 82.1164 582.354 163.077 638.506C227.173 683.022 330.674 664.469 340.303 662.644Z" stroke="url(#paint0_linear_3397_8097)" stroke-width="0.5" stroke-miterlimit="10"/>
<defs>
<linearGradient id="paint0_linear_3397_8097" x1="-192.161" y1="767.554" x2="357.729" y2="165.16" gradientUnits="userSpaceOnUse">
<stop stop-color="#222222" stop-opacity="0.5"/>
<stop offset="1" stop-color="#584911" stop-opacity="0"/>
</linearGradient>
</defs>
</svg>
