<svg width="648" height="542" viewBox="0 0 648 542" fill="none" xmlns="http://www.w3.org/2000/svg">
<path d="M21.1542 290.352C10.3229 312.368 -9.7381 354.896 7.80447 406.101C26.5644 460.905 76.9901 492.349 93.3994 501.686C200.579 562.744 381.094 549.356 457.497 484.377C486.862 459.445 491.772 434.536 533.907 420.355C586.001 402.746 621.086 426.345 656.925 406.18C692.443 386.203 704.501 336.904 681.844 313.032C666.472 296.815 645.239 303.027 584.558 277.337C555.504 265.024 540.825 258.612 534.259 246.394C522.146 223.823 541.032 193.165 564.301 174.455C610.705 137.123 659.981 159.036 736.464 119.548C761.953 106.386 796.444 88.6096 797.533 60.8423C798.542 35.7461 772.055 7.03334 735.141 1.44876C704.984 -3.11617 680.992 9.72537 678.618 11.0497C654.014 24.6568 654.045 43.8188 642.332 59.061C616.053 93.1743 542.427 92.2121 487.378 94.6918C457.53 96.0446 298.613 103.222 180.521 154.695C153.608 166.427 61.8347 207.755 21.1542 290.352Z" stroke="url(#paint0_linear_3397_8096)" stroke-width="0.5" stroke-miterlimit="10"/>
<defs>
<linearGradient id="paint0_linear_3397_8096" x1="-127.526" y1="308.29" x2="184.933" y2="733.263" gradientUnits="userSpaceOnUse">
<stop stop-color="#222222" stop-opacity="0.5"/>
<stop offset="1" stop-color="#584911" stop-opacity="0"/>
</linearGradient>
</defs>
</svg>
