<svg width="734" height="722" viewBox="0 0 734 722" fill="none" xmlns="http://www.w3.org/2000/svg">
<path d="M931.096 159.743C856.61 81.5525 637.585 173.198 510.107 72.9271C480.102 49.3286 454.869 14.8572 397.105 3.99951C390.006 2.66318 326.198 -8.55903 282.194 20.2785C249.942 41.4168 245.169 73.0485 239.502 110.709C233.358 151.452 242.863 162.628 240.278 185.999C232.881 252.816 143.044 271.039 76.8496 337.066C19.9409 393.89 -22.9295 489.56 16.0039 571.107C66.3905 676.586 248.53 747.73 340.693 711.482C447.909 669.327 352.624 513.538 482.587 426.539C610.045 341.196 792.006 430.64 898.029 338.022C952.969 290.081 974.126 204.936 931.096 159.743Z" stroke="url(#paint0_linear_3397_8098)" stroke-width="0.5" stroke-miterlimit="10"/>
<defs>
<linearGradient id="paint0_linear_3397_8098" x1="-93.5552" y1="161.95" x2="301.983" y2="825.662" gradientUnits="userSpaceOnUse">
<stop stop-color="#222222" stop-opacity="0.5"/>
<stop offset="1" stop-color="#584911" stop-opacity="0"/>
</linearGradient>
</defs>
</svg>
