<?xml version="1.0" encoding="UTF-8"?>
<svg id="Layer_1" xmlns="http://www.w3.org/2000/svg" version="1.1" viewBox="0 0 92 92">
  <!-- Generator: Adobe Illustrator 29.0.1, SVG Export Plug-In . SVG Version: 2.1.0 Build 192)  -->
  <defs>
    <style>
      .st0 {
        fill: #f8f4ef;
      }
    </style>
  </defs>
  <path class="st0" d="M50.6,69.8c2.9-.6,4.5,1,4.9,3.1.4,2-.2,4.2-3.2,4.9-2.7.6-4-.3-4.7-2.4l2.1-.5c.3,1,.9,1.5,2.2,1.2,1.4-.3,1.8-1.2,1.5-2.8-.3-1.5-1.1-2.2-2.4-1.9-1.4.3-1.7,1-1.6,2.1l-2.1.5c-.3-2.4.5-3.6,3.3-4.2ZM38.9,71.3c0-.6,0-1,0-1.4l2.1.3c0,.3,0,.8,0,1.4v.3c-.1.7.3,1.2.9,1.2l1.4.2.4-2.8,2.1.3-1,7.7-4.3-.6c-1.7-.2-2.5-1.2-2.3-2.5.1-1.1,1-1.8,1.9-1.8-.8-.3-1.4-.8-1.2-1.9v-.4ZM43.2,74.8l-1.7-.2c-.7,0-1,.2-1.1.9,0,.6.2.9.9,1l1.7.2.3-1.9ZM30.9,66l1.9.9-.2,1.5,3,1.5,1.1-1.1,1.8.9-5.9,5.8-2.8-1.4,1.1-8.2ZM34.4,71.1l-2-1-.5,3.5,2.5-2.4ZM30.5,65.5l-5.5,5.5-4.3-4.4,1.2-1.1,2.9,2.9,1.1-1.1-2.6-2.6,1.1-1.1,2.6,2.6,2.2-2.1,1.5,1.5ZM24.7,58.6l-5.4,2.9,1.2,2.2-1.4.8-3.3-6.3,1.4-.8,1.2,2.2,5.4-2.9,1,1.8ZM22.4,53.9l-1.6.3-.3-1.3-4.4,1,.3,1.3-1.6.3-1-4.7,1.6-.3.3,1.3,4.4-1-.3-1.3,1.6-.3,1,4.7ZM20.2,42l-6.1-.6.2-2,7.8.7-.3,3.4-5.3,1.7c-.4.1-.7.2-1.1.3l6.1.6-.2,2-7.8-.7.3-3.4,5.4-1.7c.3,0,.6-.2,1-.3ZM24,36.1c-1.1,2.3-3.3,2.5-5.3,1.5-2-1-3.1-3-1.8-5.7,1.2-2.4,2.8-2.8,4.2-2.2l-.9,1.8c-.6-.2-1.4,0-1.9,1.1-.6,1.2-.3,2.3,1.3,3,1.5.7,2.5.6,3.1-.7.6-1.3.2-2-.5-2.5l-1.1,2.3-1.2-.6,2-4,3.8,1.9-.8,1.5-1.3-.6c.6.6,1,1.6.2,3.2ZM28.4,25.8c.4.5,1.1.7,2,0,.8-.6.9-1.1.6-1.5-.3-.4-.7-.4-1.2-.1l-1.5.9c-1.2.7-2.3.6-3.1-.5-.9-1.2-.6-2.6,1.2-4,1.9-1.4,3.4-1.1,4.3,0l-1.6,1.2c-.4-.4-1.1-.5-1.8,0-.6.5-.8,1-.5,1.4.2.3.6.4,1.1.1l1.3-.8c1.5-.9,2.6-.7,3.4.4.9,1.2.8,2.6-1.2,4.1-2.1,1.5-3.6,1-4.5,0l1.6-1.2ZM34.6,24.5l-.6-1.5,1.3-.5-1.6-4.2-1.3.5-.6-1.5,4.5-1.7.6,1.5-1.3.5,1.6,4.2,1.3-.5.6,1.5-4.5,1.7ZM46,20.5l-.4-6.1h2c0-.1.5,7.7.5,7.7l-3.4.2-2.5-4.9c-.2-.3-.3-.7-.4-1l.4,6.1h-2c0,.1-.5-7.7-.5-7.7l3.4-.2,2.5,5c.1.3.3.6.4.9ZM52.9,23.5c-2.9-.9-3.4-3.1-2.7-5.1.6-2,2.3-3.6,5.2-2.7,2.7.8,3.4,2.2,2.9,4.4l-2-.6c.2-1,0-1.7-1.3-2.2-1.4-.4-2.2.2-2.7,1.7-.5,1.5-.2,2.5,1.2,2.9,1.3.4,2,0,2.4-1.1l2,.6c-.9,2.2-2.2,2.9-4.9,2ZM61.1,23.7l-.9,1.3,3.4,2.5-1,1.3-5-3.7,4.6-6.3,5,3.7-1,1.3-3.4-2.5-.9,1.2,3.1,2.3-.9,1.2-3.1-2.3ZM65.3,31.9l1.4-.8,4.2,2.2c.6.3,1.1.3,1.5.1.5-.2.7-.7.3-1.5-.6-1.1-1.5-1-2.3-.6l-1-1.8c1.5-.8,3.4-.7,4.7,1.7,1.1,2.1.6,3.3-.5,3.9-.9.5-2,.4-4-.8l-1.6-.9,2.1,3.8-1.4.8-3.4-6.2ZM69.3,42.6c-.5-2.8,1.3-4.2,3.4-4.5,2-.3,4.2.3,4.7,3.1.5,2.8-1.4,4.2-3.4,4.5-2,.3-4.2-.3-4.7-3.1ZM73.1,40.2c-1.5.3-2.3.7-2.1,2.1.2,1.4,1.2,1.6,2.7,1.3,1.5-.3,2.3-.7,2.1-2.1-.2-1.4-1.1-1.6-2.7-1.3ZM70.1,46.9l1.6.2-.2,1.7,4.5.5.2-1.6,1.6.2-.2,1.6c-.2,1.4-.9,1.9-1.9,1.8l-4.4-.5-.2,1.5-1.6-.2.6-5.2ZM67.6,55.9c1.1-2.6,3.4-2.8,5.3-2,1.9.8,3.4,2.6,2.2,5.2-1.1,2.6-3.4,2.8-5.3,2-1.9-.8-3.3-2.6-2.2-5.2ZM72,55.9c-1.4-.6-2.3-.6-2.9.6-.5,1.3.1,1.9,1.5,2.5,1.4.6,2.4.6,2.9-.6.5-1.3-.1-1.9-1.5-2.5ZM66.6,65.1l-3.7,3.4-.9-1,3.7-3.4.9,1Z"/>
</svg>