<?xml version="1.0" encoding="UTF-8"?>
<svg id="Layer_1" data-name="Layer 1" xmlns="http://www.w3.org/2000/svg" width="92" height="92" viewBox="0 0 92 92">
  <path d="M46,88.27l-3.9-2.73-4.35,1.92-3.29-3.43-4.64,1.03-2.55-4.01-4.75.11-1.72-4.43-4.68-.83-.83-4.68-4.43-1.72.1-4.75-4.01-2.56,1.03-4.64-3.44-3.29,1.91-4.35-2.73-3.89,2.73-3.9-1.92-4.35,3.43-3.29-1.03-4.64,4.01-2.55-.1-4.75,4.43-1.72.83-4.68,4.68-.83,1.72-4.43,4.75.1,2.55-4.01,4.64,1.03,3.29-3.44,4.35,1.92,3.9-2.73,3.89,2.73,4.35-1.92,3.29,3.44,4.64-1.03,2.56,4.01,4.76-.1,1.72,4.43,4.68.83.83,4.68,4.43,1.72-.1,4.75,4.01,2.55-1.03,4.64,3.44,3.29-1.92,4.35,2.73,3.9-2.73,3.9,1.92,4.35-3.44,3.29,1.03,4.64-4.01,2.56.1,4.75-4.43,1.72-.83,4.68-4.68.83-1.72,4.43-4.76-.11-2.56,4.01-4.64-1.03-3.29,3.43-4.35-1.92-3.9,2.73ZM42.23,84.3l3.77,2.64,3.77-2.64,4.22,1.86,3.18-3.33,4.5,1,2.47-3.88,4.61.1,1.67-4.29,4.54-.8.8-4.54,4.29-1.67-.1-4.61,3.88-2.47-1-4.5,3.33-3.18-1.86-4.22,2.64-3.77-2.64-3.77,1.86-4.22-3.33-3.18,1-4.5-3.88-2.48.1-4.6-4.29-1.67-.8-4.54-4.54-.8-1.67-4.29-4.61.1-2.47-3.89-4.5,1-3.18-3.33-4.22,1.85-3.77-2.64-3.77,2.64-4.21-1.86-3.19,3.33-4.5-1-2.48,3.89-4.6-.1-1.67,4.29-4.54.8-.8,4.54-4.29,1.67.1,4.6-3.89,2.48,1,4.5-3.33,3.19,1.86,4.21-2.64,3.77,2.64,3.77-1.85,4.22,3.33,3.18-1,4.5,3.89,2.47-.1,4.61,4.29,1.67.8,4.54,4.54.8,1.67,4.29,4.6-.1,2.48,3.88,4.5-1,3.18,3.33,4.22-1.86Z" fill="#f8f4ef"/>
  <g>
    <path d="M48.45,45.18c-.62-.79-1.51-1.24-2.43-1.24s-1.81.45-2.43,1.24l-4.41,5.6c-1.47,1.86-1.32,3.35.46,4.81l2.08,1.85-.48,2.1c-.18.77,0,1.57.51,2.21.57.71,1.48,1.14,2.43,1.14h3.65c1,0,1.89-.39,2.44-1.08.51-.63.69-1.43.51-2.26l-.47-2.09,2.09-1.86c1.76-1.56,1.9-3,.46-4.81l-4.42-5.6ZM48.81,60.62c-.19.24-.55.38-.97.38h-3.65c-.39,0-.74-.16-.96-.42-.1-.13-.21-.34-.15-.61l.43-1.89h5.01l.43,1.88c.06.26.01.49-.13.67ZM51.15,54.18l-2.25,2h-5.75l-2.28-2.03c-1.02-.84-1.05-1.15-.21-2.21l4.41-5.6v2.77c0,.52.42.94.94.94s.94-.42.94-.94v-2.78s0,0,0,0l4.42,5.61c.82,1.03.79,1.32-.24,2.23Z" fill="#f8f4ef"/>
    <path d="M58.38,42.62h-1.59c-.39,0-.76.09-1.1.24l-6.56-6.56c.44-.49.69-1.12.69-1.79,0-.72-.28-1.39-.79-1.9l-1.13-1.13c-1.05-1.05-2.75-1.05-3.8,0l-1.13,1.13c-1.01,1.01-1.04,2.63-.09,3.68l-6.56,6.56c-.34-.15-.71-.24-1.1-.24h-1.59c-1.48,0-2.68,1.2-2.68,2.68v1.59c0,1.48,1.2,2.68,2.68,2.68h1.59c1.48,0,2.68-1.2,2.68-2.68v-1.59c0-.39-.09-.77-.24-1.1l6.56-6.56c.51.46,1.14.69,1.79.69s1.28-.24,1.79-.69l6.57,6.56c-.15.34-.24.71-.24,1.1v1.59c0,1.48,1.2,2.68,2.68,2.68h1.59c1.48,0,2.68-1.2,2.68-2.68v-1.59c0-1.48-1.2-2.68-2.68-2.68ZM36,46.89c0,.44-.36.79-.79.79h-1.59c-.44,0-.79-.36-.79-.79v-1.59c0-.44.36-.79.79-.79h1.59c.44,0,.79.36.79.79v1.59ZM45.44,36.2l-.56-.56s0,0,0,0,0,0,0,0l-.56-.56c-.15-.15-.23-.35-.23-.56s.08-.41.23-.56l1.13-1.13c.15-.15.35-.23.56-.23s.41.08.56.23l1.13,1.13c.15.15.23.35.23.56s-.08.41-.23.56l-.56.56s0,0,0,0c0,0,0,0,0,0l-.56.56c-.3.3-.82.3-1.13,0ZM59.17,46.89c0,.44-.36.79-.79.79h-1.59c-.44,0-.79-.36-.79-.79v-1.59c0-.44.36-.79.79-.79h1.59c.44,0,.79.36.79.79v1.59Z" fill="#f8f4ef"/>
  </g>
</svg>