<?xml version="1.0" encoding="UTF-8"?>
<svg id="Layer_1" data-name="Layer 1" xmlns="http://www.w3.org/2000/svg" width="32.46mm" height="32.46mm" viewBox="0 0 92.01 92.01">
  <path d="M32.87,67.92l-3.72,5.47-1.85-.84,4.44-6.54,3.19,1.45-1.44,6.03,3.58-5.05,3.18,1.44-2,7.65-1.85-.84,1.67-6.4-3.9,5.38-2.79-1.27,1.48-6.48h.01ZM27.89,61.98c2,2.33,1.22,4.47-.36,5.83-1.55,1.34-3.83,1.83-5.84-.5-2.02-2.34-1.17-4.52.37-5.85,1.57-1.35,3.81-1.82,5.83.52ZM26.12,66.18c1.15-.99,1.55-1.89.5-3.1-1.06-1.23-2-.97-3.15.02-1.17,1.01-1.56,1.89-.5,3.12,1.05,1.22,1.98.97,3.15-.04ZM20.9,52.33c.59-.22.87-.41,1.26-.64l.74,1.95c-.26.2-.66.4-1.26.63l-.3.11c-.7.27-.86.84-.62,1.46l.5,1.33,2.64-1,.74,1.95-7.28,2.77-1.53-4.03c-.62-1.64-.08-2.76,1.09-3.21,1.04-.4,2,0,2.53.85-.12-.82.02-1.6,1.09-2.01l.41-.15h0ZM19.84,57.7l-.59-1.57c-.25-.67-.66-.83-1.29-.59-.57.22-.75.61-.5,1.26l.6,1.58,1.79-.68h0ZM21.97,50.63l-7.79.24-.06-2.06,3.44-.1-3.53-2.73-.08-2.67,3.39,2.87,4.29-3.12h.11l.08,2.47-2.91,1.98,1.31,1.12,1.69-.05.06,2.06h0ZM22.53,39.55l-1.51-.6.51-1.27-4.21-1.68-.51,1.27-1.51-.6,1.78-4.46,1.51.6-.51,1.27,4.21,1.68.51-1.27,1.51.6-1.78,4.46ZM27.38,28.46l-4.73-3.89,1.25-1.52,6.02,4.95-2.15,2.62-5.3-1.55c-.35-.11-.71-.23-1.05-.38l4.74,3.9-1.25,1.52-6.02-4.95,2.15-2.62,5.4,1.6c.29.09.64.2.95.32h-.01ZM34.14,16.62c1.64-.72,2.76.05,3.33,1.35.61,1.38.42,2.73-1.22,3.45l-2.08.91,1.02,2.33-1.91.84-3.13-7.13s3.99-1.75,3.99-1.75ZM33.53,20.88l1.45-.64c.69-.3.77-.84.53-1.4-.24-.55-.66-.81-1.34-.51l-1.47.65.83,1.9ZM46.98,20.55c.06.63.16.95.29,1.38l-2.08.2c-.12-.31-.21-.74-.27-1.39l-.03-.31c-.07-.75-.58-1.05-1.25-.99l-1.41.14.27,2.81-2.08.2-.75-7.76,4.29-.41c1.75-.17,2.69.65,2.81,1.9.11,1.11-.53,1.92-1.48,2.21.82.1,1.54.44,1.65,1.58l.04.43h0ZM42.08,18.11l1.67-.16c.71-.07.97-.42.91-1.09-.06-.61-.39-.88-1.08-.81l-1.68.16s.18,1.9.18,1.9ZM51.91,23.19c-2.97-.76-3.56-2.96-3.05-4.98.5-1.99,2.09-3.7,5.06-2.94,3,.76,3.56,3.03,3.06,5.01-.51,2.01-2.07,3.68-5.07,2.92h0ZM50.94,18.74c-.38,1.48-.18,2.43,1.37,2.83,1.58.4,2.19-.35,2.57-1.83.38-1.5.2-2.44-1.38-2.84-1.56-.4-2.18.34-2.56,1.84ZM59.45,26.58c-2.07-1.47-1.92-3.65-.64-5.45,1.31-1.84,3.39-2.62,5.87-.86,2.2,1.56,2.33,3.19,1.54,4.49l-1.68-1.19c.32-.61.14-1.35-.77-2-1.14-.81-2.18-.63-3.2.8-.96,1.35-.93,2.39.21,3.19,1.15.81,1.93.52,2.54-.12l-2.05-1.46.75-1.06,3.65,2.59-2.47,3.49-1.4-1,.83-1.17c-.73.5-1.77.73-3.16-.26h-.02ZM68.98,34.56c-.52.36-.75.61-1.07.93l-1.19-1.71c.21-.26.55-.55,1.07-.92l.26-.18c.62-.43.63-1.02.25-1.57l-.81-1.16-2.32,1.61-1.19-1.71,6.4-4.44,2.46,3.54c1,1.44.75,2.66-.28,3.38-.91.63-1.94.48-2.66-.21.32.76.37,1.56-.58,2.21l-.36.25.02-.02ZM68.71,29.09l.96,1.38c.41.59.84.64,1.39.26.5-.35.58-.77.18-1.34l-.96-1.39-1.57,1.09ZM72.03,37.51l-1.51.46,1.22,4.02-1.56.47-1.82-6,7.45-2.27,1.81,5.96-1.56.47-1.21-3.99-1.38.42,1.11,3.65-1.45.44-1.11-3.65v.02ZM72.79,45.24c-.65.05-1.24.47-1.25,1.56-.01,1,.34,1.37.88,1.38.52,0,.78-.3.86-.88l.21-1.7c.18-1.4.98-2.2,2.31-2.19,1.46.02,2.46,1.13,2.44,3.38-.03,2.4-1.18,3.35-2.57,3.44l.02-2.04c.62-.08,1.04-.54,1.05-1.42,0-.8-.3-1.27-.82-1.27-.4,0-.69.23-.77.82l-.17,1.49c-.18,1.71-1,2.47-2.4,2.46-1.53-.02-2.56-.99-2.53-3.52.03-2.57,1.37-3.44,2.77-3.51l-.02,2h-.01ZM71.84,53.55c-.63-.15-1.32.06-1.67,1.09-.32.94-.11,1.41.4,1.58.49.17.83-.04,1.1-.57l.72-1.55c.61-1.28,1.62-1.79,2.87-1.36,1.39.47,1.99,1.84,1.27,3.97-.77,2.27-2.17,2.82-3.51,2.47l.65-1.93c.61.12,1.15-.19,1.44-1.02.26-.75.11-1.3-.38-1.47-.38-.13-.73,0-.99.54l-.62,1.36c-.7,1.57-1.72,2.04-3.05,1.59-1.45-.49-2.12-1.73-1.31-4.13.82-2.43,2.37-2.84,3.72-2.47,0,0-.64,1.9-.64,1.9Z" fill="#f8f4ef"/>
</svg>