<?xml version="1.0" encoding="UTF-8"?>
<svg id="Layer_1" data-name="Layer 1" xmlns="http://www.w3.org/2000/svg" width="32.46mm" height="32.46mm" viewBox="0 0 92 92">
  <path d="M54.42,69.1l1.8,7.6-2,.5-1.5-6-3.4.8-.4-1.6,5.4-1.3h.1ZM40.22,69.9h2.1c0,.1.4,1.6.4,1.6l3.3.2.6-1.4h2.1c0,.1-3.2,7.7-3.2,7.7l-3.2-.2-2.1-8v.1ZM45.32,73.2l-2.3-.2.9,3.4s1.4-3.2,1.4-3.2ZM38.72,72.4l-1.9,4.4-1.9-.8,1.8-4.2c.5-1.2.2-1.8-.7-2.2-1-.4-1.6-.3-2.1,1l-1.8,4.2-1.9-.8,1.9-4.4c.8-1.9,2.4-2.4,4.6-1.5,2.2.9,2.9,2.4,2.1,4.3h-.1ZM26.82,63.3l-4.2,4.4-1.4-1.4,5.4-5.6,2.4,2.3-2,5.2c-.1.3-.3.7-.5,1l4.3-4.4,1.4,1.4-5.4,5.6-2.4-2.3,2-5.3c.1-.3.3-.6.4-.9ZM24.42,56.2c1.3,2.7,0,4.6-1.9,5.5s-4.2.7-5.5-2c-1.2-2.5-.6-4,1.3-5.1l.9,1.9c-.9.5-1.3,1.2-.7,2.4.6,1.3,1.6,1.5,3,.8s1.9-1.5,1.3-2.8-1.3-1.5-2.4-1.1l-.9-1.9c2.2-.8,3.6-.3,4.8,2.3h.1ZM22.42,51.7l-7.8.6-.2-2.1,3-.2-.3-3.2-3,.2-.2-2.1,7.8-.6.2,2.1-3.1.3.3,3.2,3.1-.3s.2,2.1.2,2.1ZM19.32,40.4l1.5.4,1-4.1,1.6.4-1.5,6.1-7.6-1.9,1.5-6,1.6.4-1,4,1.4.3.9-3.7,1.5.4s-.9,3.7-.9,3.7ZM23.92,36.1l-6.6-4.2,2.1-3.3c1.4-2.1,3.6-2.1,5.3-1s2.7,3.1,1.3,5.2l-2.1,3.3ZM23.62,33.5l.8-1.2c.8-1.2.4-2.1-.8-2.9-1.3-.8-2.2-.7-3,.5l-.8,1.2,3.8,2.5v-.1ZM31.02,23.9c.4.5,1.1.8,2,.2.9-.5,1-1,.7-1.5-.3-.4-.7-.5-1.2-.3l-1.5.7c-1.3.6-2.4.3-3.1-.8-.8-1.3-.3-2.7,1.6-3.9,2.1-1.3,3.5-.8,4.3.4l-1.7,1.1c-.4-.5-1-.6-1.8-.1-.7.4-.9.9-.6,1.4.2.3.6.5,1.1.2l1.3-.6c1.5-.8,2.6-.5,3.4.7.8,1.3.5,2.7-1.6,4-2.2,1.3-3.6.7-4.4-.5l1.7-1h-.2ZM37.32,23.3l-.4-1.6,1.3-.4-1.2-4.4-1.3.4-.4-1.6,4.6-1.3.4,1.6-1.3.4,1.2,4.4,1.3-.4.4,1.6s-4.6,1.3-4.6,1.3ZM45.02,21.8v-6.2h-2.5v-1.6h7.1v1.6h-2.5v6.2h-2.1ZM53.22,19.5l-.5,1.5,4,1.2-.5,1.6-6-1.8,2.3-7.5,6,1.8-.5,1.6-4-1.2-.4,1.4,3.7,1.1-.4,1.4s-3.7-1.1-3.7-1.1ZM62.02,22.7l3.9,3.2-.9,1-3.9-3.2.9-1ZM66.02,31.9l1.4-.7,4.2,2.3c.6.3,1.1.4,1.5.1.5-.2.7-.7.3-1.5-.6-1.1-1.5-1-2.3-.6l-1-1.8c1.5-.7,3.4-.6,4.7,1.8,1.1,2.1.6,3.3-.6,3.9-.9.5-2,.3-4-.9l-1.5-.9,2,3.8-1.4.7s-3.3-6.2-3.3-6.2ZM69.92,42.6c-.4-2.8,1.4-4.1,3.5-4.4,2-.3,4.2.4,4.6,3.3s-1.5,4.1-3.5,4.4c-2.1.3-4.2-.4-4.6-3.3ZM73.62,40.4c-1.5.2-2.3.7-2.1,2,.2,1.4,1.1,1.6,2.6,1.4,1.5-.2,2.3-.7,2.1-2-.2-1.4-1.1-1.6-2.6-1.4ZM70.52,47.4l1.6.3,1.8,4.4c.3.7.6,1,1.1,1s1-.1,1.1-1c.2-1.2-.5-1.7-1.4-1.9l.4-2c1.6.3,3.1,1.7,2.5,4.4-.5,2.3-1.6,2.9-2.9,2.7-1-.2-1.8-1-2.6-3.2l-.7-1.7-.8,4.2-1.6-.3,1.3-6.9h.2ZM70.12,58.1c-.7-.4-1.4-.1-1.8.6-.4.7-.3,1.4.4,1.8.7.4,1.3.1,1.7-.5.3-.5.3-.8.3-1.2h1.4v3l1.9-3.4,1.4.8-3.1,5.4-1.4-.8v-3.1c0,.2-.2.4-.4.8-.4.7-1.5,1.8-3.1.9-1.4-.8-1.8-2.2-.6-4.3,1.1-1.9,2.5-2.6,4.1-1.7l-1,1.8.2-.1ZM65.22,66.8l-4,3.1-.8-1.1,4-3.1.8,1.1Z" fill="#f8f4ef"/>
</svg>