<?xml version="1.0" encoding="UTF-8"?>
<svg id="Layer_1" xmlns="http://www.w3.org/2000/svg" version="1.1" viewBox="0 0 100 100">
  <!-- Generator: Adobe Illustrator 29.0.1, SVG Export Plug-In . SVG Version: 2.1.0 Build 192)  -->
  <defs>
    <style>
      .st0 {
        fill: #f8f4ef;
      }

      .st1 {
        fill: #f8f8f8;
      }
    </style>
  </defs>
  <path class="st0" d="M49.9,95.8c-.1,0-.2,0-.3,0l-.3-.2-3.7-2.5-4,1.8-.2.2c-.2.1-.5.1-.7,0l-.3-.3-3.1-3.2-4.3.9s0,0-.1,0h-.4c-.1,0-.3,0-.4-.2l-.2-.2s0,0,0,0l-2.3-3.7h-4.8c-.3,0-.5-.2-.5-.5v-.3c-.3-.5-.7-1.6-1.7-4.1l-4.3-.7h-.3c-.3,0-.5-.2-.5-.5v-.4l-.7-4.2-4-1.6h-.3c-.3,0-.5-.2-.5-.5v-4.9c-.6-.4-2.5-1.6-3.6-2.3l-.3-.2c-.2-.1-.2-.3-.2-.5v-.4s0,0,0-.1l1-4.3-3.5-3.4c-.2-.2-.2-.5,0-.7l.2-.3,1.7-3.9-2.7-4c-.1-.2-.1-.4,0-.6l.2-.3,2.5-3.7-1.8-4-.2-.2c-.1-.2-.1-.5,0-.7l.3-.3,3.2-3.1-.9-4.3s0,0,0-.1v-.4c0-.1,0-.3.2-.4l.2-.2s0,0,0,0l3.7-2.3v-4.2c0-.1-.1-.3-.1-.6s.2-.5.5-.5h.3c.5-.3,1.6-.7,4.1-1.7l.7-4.3v-.3c0-.3.2-.5.5-.5h.4l4.2-.7,1.6-4v-.3c0-.3.2-.5.5-.5h4.9c.4-.6,1.6-2.5,2.3-3.6l.2-.3c.1-.2.3-.2.5-.2h.4s0,0,.1,0l4.3,1,3.4-3.5c.2-.2.5-.2.7,0l.3.2,3.9,1.7,4-2.7c.2-.1.4-.1.6,0l.3.2s0,0,0,0h0c0,0,3.6,2.6,3.6,2.6l4-1.8.2-.2c.2-.1.5-.1.7,0l.3.3,3.1,3.2,4.3-.9s0,0,.1,0h.4c.1,0,.3,0,.4.2l.2.2s0,0,0,0l2.3,3.7h4.2c.1,0,.3-.1.6-.1s.5.2.5.5v.3l1.6,4,4.3.7h.3c.3,0,.5.2.5.5v.4l.7,4.2,4,1.6h.3c.3,0,.5.2.5.5v4.9l4,2.5c.2.1.2.3.2.5v.4s0,0,0,.1l-1,4.3,3.5,3.4c.2.2.2.5,0,.7l-.2.3-1.7,3.9,2.7,4c.1.2.1.4,0,.6l-.2.3-2.5,3.7,1.8,4,.2.2c.1.2.1.5,0,.7l-.3.3-3.2,3.1.9,4.3s0,0,0,.1v.4c0,.1,0,.3-.2.4l-.2.2s0,0,0,0l-3.7,2.3v4.8c0,.3-.2.5-.5.5h-.3l-4,1.6-.7,4.3v.3c0,.3-.2.5-.5.5h-.4l-4.2.7-1.6,4v.3c0,.3-.2.5-.5.5h-4.9l-2.5,4c-.1.2-.3.2-.5.2h-.4s0,0-.1,0l-4.3-1-3.4,3.5c-.2.2-.5.2-.7,0l-.3-.2-3.9-1.7-4,2.7c0,0-.2,0-.3,0ZM45.7,91.8c.1,0,.2,0,.3,0l3.9,2.7,3.9-2.7c.2-.1.4-.1.5,0l4.3,1.9,3.3-3.4c.1-.1.3-.2.5-.2l4.6,1.1h0c0,0,2.5-3.9,2.5-3.9.1-.2.3-.3.5-.3h4.7s0,0,0,0l1.7-4.4c0-.2.2-.3.4-.3l4.6-.8.8-4.6c0-.2.2-.3.3-.4l4.4-1.8s0,0,0,0v-4.6c0-.2,0-.4.3-.5l3.9-2.5h0c0-.1-1-4.7-1-4.7,0-.2,0-.4.2-.5l3.4-3.3-1.9-4.3c0-.2,0-.4,0-.5l2.7-3.9-2.7-3.9c-.1-.2-.1-.4,0-.5l1.9-4.3-3.4-3.3c-.1-.1-.2-.3-.2-.5l1.1-4.6h0s-3.9-2.5-3.9-2.5c-.2-.1-.3-.3-.3-.5v-4.7s0,0,0,0l-4.4-1.7c-.2,0-.3-.2-.3-.4l-.8-4.6-4.6-.8c-.2,0-.3-.2-.4-.3l-1.8-4.4h-4.6c-.2,0-.4,0-.5-.3l-2.5-3.9h-.1l-4.5,1c-.2,0-.4,0-.5-.2l-3.3-3.4-4.3,1.9c-.2,0-.4,0-.5,0l-3.9-2.7s0,0,0,0h0s-3.9,2.7-3.9,2.7c-.2.1-.4.1-.5,0l-4.3-1.9-3.3,3.4c-.1.1-.3.2-.5.2l-4.6-1.1h0c-2.5,4.1-2.6,4.3-3,4.2h-4.6s0,0,0,0l-1.7,4.4c0,.2-.2.3-.4.3l-4.6.8-.8,4.6c0,.2-.2.3-.3.4-1.9.7-3.9,1.5-4.3,1.7,0,0,0,0,0,0v4.6c0,.2,0,.4-.3.5l-3.9,2.5h0c0,.1,1,4.7,1,4.7,0,.2,0,.4-.2.5l-3.4,3.3,1.9,4.3c0,.2,0,.4,0,.5l-2.7,3.9,2.7,3.9c.1.2.1.4,0,.5l-1.9,4.3,3.4,3.3c.1.1.2.3.2.5l-1.1,4.6h0c4,2.5,4.2,2.7,4.1,3.1v4.6s0,0,0,0l4.4,1.7c.2,0,.3.2.3.4l.8,4.6,4.6.8c.2,0,.3.2.4.3.7,1.9,1.5,3.9,1.7,4.3,0,0,0,.1.1.2h4.6c.2,0,.4,0,.5.3l2.5,3.9h.1l4.5-1c.2,0,.4,0,.5.2l3.3,3.4,4.3-1.9c0,0,.1,0,.2,0ZM75.3,12.5h0ZM75.3,12.5h0s0,0,0,0ZM75.3,12.5h0s0,0,0,0ZM75.3,12.5h0s0,0,0,0Z"/>
  <path class="st1" d="M65.6,42.5h-11v-2.7h11v2.7Z"/>
  <path class="st1" d="M56,54.5c0,1.6,1.2,3.3,2.9,3.9,1.7.6,4.3,0,5.3-2l3.7,1c-.5.6-.9,1.3-1.4,1.8-1.4,1.5-3.1,2.2-5.1,2.5-2.3.2-4.5,0-6.4-1.5-2.2-1.6-3.3-3.7-3.4-6.4,0-2.8.7-5.2,2.9-7,1.6-1.4,3.5-2,5.6-2s4.8.7,6.5,2.6c1.7,1.8,2.5,4.8,2.1,7.2h-12.7,0ZM64.4,51.8c0-2.1-1.7-4.1-4.4-4-2.3,0-4.3,2.2-4.1,4h8.5Z"/>
  <path class="st1" d="M46.4,49.9c.5.3,1.1.5,1.6.8,2.2,1.4,2.9,4,2.4,6.3-.4,2.1-1.9,3.4-3.9,4.1-1,.3-2,.5-3.1.5h-11.4v-22.9h11.8c2.6,0,4.4,1.2,5.3,3.7.9,2.4.2,5.2-1.6,6.7-.4.3-.7.5-1.1.8ZM36.5,57.9h6.5c2,0,3.3-1.6,3-3.5-.3-1.6-1.3-2.5-3-2.5h-6.5v6ZM36.5,42.5v5.8h6.2c1.3,0,2.1-.9,2.4-2.1.4-1.8-.5-3.8-2.9-3.7h-5.7Z"/>
</svg>