<?xml version="1.0" encoding="UTF-8"?>
<svg id="Layer_1" xmlns="http://www.w3.org/2000/svg" version="1.1" viewBox="0 0 100 100">
  <!-- Generator: Adobe Illustrator 29.0.1, SVG Export Plug-In . SVG Version: 2.1.0 Build 192)  -->
  <defs>
    <style>
      .st0 {
        fill: #f8f4ef;
      }
    </style>
  </defs>
  <path class="st0" d="M27,64.3l-6.6,3.2-2.5-5.2,1.4-.7,1.7,3.5,1.4-.7-1.5-3.1,1.3-.6,1.5,3.1,2.6-1.2.8,1.7ZM21.5,58.7l-4.5.8-.3-1.9,4.2-.7c1.3-.2,1.5-.7,1.4-1.7-.2-1-.6-1.4-1.9-1.2l-4.2.7-.3-1.9,4.5-.8c1.9-.3,3.1.6,3.5,2.8.4,2.2-.4,3.5-2.3,3.9ZM23,50.5l-7.3-.6.2-2,5.8.5.3-3.3h1.5c0,.1-.4,5.4-.4,5.4ZM23.7,44.4l-6.9-2.3.6-1.9,5.5,1.8,1-3.1,1.5.5-1.7,5ZM24,28.5c1.1-1.3,2.3-1.2,3.4-.3,1.1.9,1.5,2.1.5,3.4l-1.3,1.7,1.9,1.5-1.2,1.5-5.7-4.6,2.6-3.2ZM25.3,32.3l.9-1.2c.4-.5.3-1-.2-1.4-.4-.4-.9-.4-1.3.2l-.9,1.2,1.5,1.2ZM36.1,26c.3.5.6.7.9,1l-1.6,1.1c-.2-.2-.5-.5-.9-1l-.2-.2c-.4-.6-1-.6-1.5-.2l-1.1.8,1.5,2.2-1.6,1.1-4.3-5.9,3.3-2.4c1.3-1,2.5-.7,3.2.2.6.8.5,1.8-.2,2.5.7-.3,1.5-.4,2.1.5l.2.3ZM31,26.3l1.3-.9c.5-.4.6-.8.2-1.3-.3-.5-.7-.5-1.3-.2l-1.3.9,1,1.5ZM41.3,25.6c-2.7.9-4.3-.5-5-2.4-.6-1.8-.3-4,2.5-4.9,2.7-.9,4.4.6,5,2.4.6,1.8.3,4-2.5,4.9ZM38.3,22.6c.5,1.4,1.1,2,2.5,1.5,1.4-.5,1.5-1.4,1.1-2.8-.5-1.4-1.1-2-2.5-1.5-1.4.5-1.5,1.4-1.1,2.8ZM45.3,24.1v-1.5c-.1,0,2.1-.2,2.1-.2l-.5-5.8,1.9-.2.4,4.6c.2,1.9-.5,2.7-2.4,2.9h-1.6ZM52.9,21.1l-.2,1.5,3.9.6-.2,1.5-5.8-.8,1-7.2,5.8.8-.2,1.5-3.9-.6-.2,1.3,3.6.5-.2,1.4-3.6-.5ZM60.5,26.6c-2.6-1.2-2.8-3.2-2-5.1.8-1.8,2.6-3.1,5.1-1.9,2.4,1.1,2.9,2.5,2.2,4.4l-1.8-.8c.3-.9.2-1.6-1-2.2-1.2-.5-2,0-2.7,1.3-.6,1.4-.4,2.3.8,2.8,1.2.5,1.9.2,2.4-.7l1.8.8c-1.1,2-2.4,2.4-4.8,1.3ZM66,29.6l3.7-4.4-1.8-1.5,1-1.2,5.1,4.3-1,1.2-1.8-1.5-3.7,4.4-1.5-1.3ZM72.9,38.5c-1.3-2.6-.1-4.3,1.6-5.2,1.7-.9,3.9-.8,5.2,1.7,1.3,2.6,0,4.4-1.6,5.3-1.7.9-3.9.8-5.2-1.8ZM75.4,35.1c-1.3.7-1.8,1.4-1.1,2.7.7,1.4,1.6,1.3,2.9.7,1.3-.7,1.8-1.4,1.1-2.7-.7-1.3-1.6-1.3-2.9-.7ZM77.4,48l5.7-.9.3,1.8-7.2,1.1-.5-3.1,4.4-2.7c.3-.2.6-.3.9-.5l-5.7.9-.3-1.8,7.2-1.1.5,3.1-4.5,2.8c-.2.1-.5.3-.8.5ZM75.9,54l7.1,1.8-1.1,4.1c-.4,1.5-1.3,1.9-2.3,1.7-1-.3-1.3-1-1.3-1.9-.4.9-1,1.4-2.1,1.1-1.2-.3-1.7-1.3-1.3-2.8l1.1-4.1ZM76.8,56.3l-.4,1.7c-.2.6.1.9.6,1,.5.1.9,0,1-.7l.4-1.7-1.6-.4ZM79.7,57l-.4,1.7c-.2.6.1.9.5,1,.5.1.8,0,.9-.6l.4-1.7-1.5-.4ZM75.5,64.4l-1.3-.8-2,3.4-1.3-.8,3-5.1,6.3,3.7-3,5-1.3-.8,2-3.4-1.2-.7-1.8,3.1-1.2-.7,1.8-3.1ZM70.2,67.1l5.1,5.3-1.4,1.3-2-2.1-2.2,2.1,2,2.1-1.4,1.3-5.1-5.3,1.4-1.3,2,2.1,2.2-2.1-2-2.1,1.4-1.3ZM57.7,75.8l1.7-.9,1,1,2.8-1.4-.2-1.4,1.7-.9,1,7.7-2.7,1.3-5.5-5.5ZM63.4,76.1l-1.9,1,2.3,2.3-.4-3.3ZM51.8,78.2l.8,5.7-1.8.3-1-7.2,3.1-.5,2.7,4.4c.2.3.3.6.5.9l-.8-5.7,1.8-.3,1,7.2-3.1.5-2.7-4.5c-.1-.2-.3-.5-.5-.8ZM45.1,76.1c2.8.5,3.5,2.5,3.2,4.4-.3,1.9-1.7,3.6-4.5,3.1-2.6-.4-3.4-1.7-3.2-3.8l2,.3c0,1,.2,1.6,1.5,1.8,1.3.2,2-.4,2.3-1.9.3-1.5-.1-2.3-1.4-2.5-1.3-.2-1.8.2-2.1,1.3l-2-.3c.6-2.2,1.7-2.9,4.4-2.5ZM37.4,77.2l.7-1.3-3.5-1.7.7-1.4,5.3,2.6-3.2,6.6-5.3-2.6.7-1.4,3.5,1.7.6-1.2-3.2-1.6.6-1.3,3.2,1.6ZM29.9,73.1l-3.3-3.4.9-.9,3.3,3.4-.9.9Z"/>
</svg>