<?xml version="1.0" encoding="UTF-8"?>
<svg id="Layer_1" xmlns="http://www.w3.org/2000/svg" version="1.1" viewBox="0 0 100 100">
  <!-- Generator: Adobe Illustrator 29.0.1, SVG Export Plug-In . SVG Version: 2.1.0 Build 192)  -->
  <defs>
    <style>
      .st0 {
        fill: #f60;
      }
    </style>
  </defs>
  <path class="st0" d="M50,0l4.6,3.2,5.1-2.3,3.9,4.1,5.5-1.2,3,4.7h5.6c0-.1,2,5.1,2,5.1l5.5,1,1,5.5,5.2,2v5.6c0,0,4.6,3,4.6,3l-1.2,5.5,4.1,3.9-2.3,5.1,3.2,4.6-3.2,4.6,2.3,5.1-4.1,3.9,1.2,5.5-4.7,3v5.6c0,0-5.1,2-5.1,2l-1,5.5-5.5,1-2,5.2h-5.6c0,0-3,4.6-3,4.6l-5.5-1.2-3.9,4.1-5.1-2.3-4.6,3.2-4.6-3.2-5.1,2.3-3.9-4.1-5.5,1.2-3-4.7h-5.6c0,0-2-5.1-2-5.1l-5.5-1-1-5.5-5.2-2v-5.6c.1,0-4.6-3-4.6-3l1.2-5.5-4.1-3.9,2.3-5.1L.2,49.8l3.2-4.6-2.3-5.1,4.1-3.9-1.2-5.5,4.7-3v-5.6c-.1,0,5.1-2,5.1-2l1-5.5,5.5-1,2-5.2h5.6c0,.1,3-4.6,3-4.6l5.5,1.2,3.9-4.1,5.1,2.3S50,0,50,0Z"/>
</svg>