<?xml version="1.0" encoding="UTF-8"?>
<svg id="Layer_1" data-name="Layer 1" xmlns="http://www.w3.org/2000/svg" width="675.57mm" height="35.99mm" viewBox="0 0 1915 102.02">
  <path d="M615.77,2.54h-1.99v60.01c0,8.51-1.56,13.36-4.27,16.14-2.68,2.76-6.94,3.95-13.58,3.95s-10.9-1.19-13.58-3.95c-2.71-2.78-4.27-7.63-4.27-16.14V2.54h-30.38v63.44c0,13.67,4.05,24.33,12.34,31.52,8.24,7.15,20.35,10.59,35.89,10.59s27.62-3.48,35.82-10.65c8.25-7.21,12.26-17.86,12.26-31.46V2.54h-28.24Z" fill="#3a3a39"/>
  <polygon points="34.4 80.99 34.4 4.52 34.4 2.54 32.41 2.54 5.87 2.54 3.88 2.54 3.88 4.52 3.88 103.71 3.88 105.69 5.87 105.69 77.01 105.69 79 105.69 79 103.71 79 82.98 79 80.99 77.01 80.99 34.4 80.99" fill="#3a3a39"/>
  <polygon points="116.98 80.99 116.98 64.83 163.61 64.83 165.6 64.83 165.6 62.84 165.6 43.6 165.6 41.61 163.61 41.61 116.98 41.61 116.98 27.24 168.09 27.24 170.08 27.24 170.08 25.26 170.08 4.52 170.08 2.54 168.09 2.54 88.74 2.54 86.75 2.54 86.75 4.52 86.75 103.71 86.75 105.69 88.74 105.69 168.53 105.69 170.52 105.69 170.52 103.71 170.52 82.98 170.52 80.99 168.53 80.99 116.98 80.99" fill="#3a3a39"/>
  <polygon points="654.86 2.54 652.87 2.54 652.87 4.52 652.87 25.26 652.87 27.24 654.86 27.24 670.32 27.24 670.32 80.99 654.86 80.99 652.87 80.99 652.87 82.98 652.87 103.71 652.87 105.69 654.86 105.69 716.01 105.69 718 105.69 718 103.71 718 82.98 718 80.99 716.01 80.99 700.55 80.99 700.55 27.24 716.01 27.24 718 27.24 718 25.26 718 4.52 718 2.54 716.01 2.54 654.86 2.54" fill="#3a3a39"/>
  <path d="M275.4,2.54h-1.99v25.16h8.8v10.64h-8.8v17.1h7.66c7.44,0,12.49-1.82,15.59-5.38,3.06-3.5,3.85-8.25,3.85-13.16V2.54h-25.11Z" fill="#3a3a39"/>
  <path d="M366.22,41.32h0s-18.9-1.93-18.9-1.93h0c-3.54-.42-5.71-1.46-6.98-2.72-1.24-1.23-1.85-2.87-1.85-5,0-2.58,1.13-4.62,3.36-6.1,2.32-1.53,5.91-2.5,10.76-2.5,5.3,0,9.12,1.24,11.7,3.19,2.55,1.93,4.06,4.71,4.53,8.2l.23,1.73h29.84l-.16-2.14c-.7-9.23-4.29-17.82-11.82-24.09-7.51-6.24-18.72-9.97-34.31-9.97-14.58,0-25.74,3.26-33.29,9.17-7.62,5.95-11.35,14.43-11.35,24.29,0,8.85,2.72,16.13,7.95,21.47,5.21,5.32,12.73,8.51,21.99,9.59h.01s21.6,2.38,21.6,2.38c3.52.5,5.88,1.48,7.35,2.86,1.41,1.31,2.24,3.2,2.24,6.06s-.98,5.08-3.14,6.62c-2.29,1.63-6.16,2.73-12.33,2.73-6.58,0-10.86-1.76-13.58-4.23-2.72-2.48-4.09-5.88-4.43-9.62l-.17-1.81h-29.43l.12,2.1c.54,9.25,3.79,18.48,11.3,25.38,7.52,6.9,19.05,11.24,35.72,11.24s27.97-3.32,35.55-9.45c7.66-6.19,10.88-15,10.88-25.21,0-9.32-2.57-16.94-8.24-22.49-5.63-5.51-14.04-8.7-25.18-9.77Z" fill="#3a3a39"/>
  <polygon points="176.27 2.54 174.28 2.54 174.28 4.52 174.28 25.26 174.28 27.24 176.27 27.24 206.2 27.24 206.2 103.71 206.2 105.69 208.19 105.69 234.43 105.69 236.42 105.69 236.42 103.71 236.42 27.24 266.35 27.24 268.34 27.24 268.34 25.26 268.34 4.52 268.34 2.54 266.35 2.54 176.27 2.54" fill="#3a3a39"/>
  <path d="M533.07,57.92c-2.72-2.54-6.05-4.3-9.72-5.55,3.35-1.36,6.36-3.2,8.81-5.68,4.12-4.18,6.46-9.97,6.46-17.71,0-7.15-2.36-13.84-7.69-18.73-5.32-4.87-13.35-7.72-24.27-7.72h-59.86v103.16h58.81c10.87,0,19.52-2.56,25.48-7.59,6.01-5.07,9.02-12.42,9.02-21.39s-2.57-14.61-7.04-18.79ZM477.03,63.79h21.13c4.38,0,6.91,1.11,8.37,2.59,1.46,1.49,2.17,3.69,2.17,6.6s-.66,5.13-2,6.57c-1.32,1.41-3.64,2.48-7.79,2.48h-21.88v-18.24ZM505.4,40.33c-1.19,1.3-3.32,2.32-7.24,2.32h-21.13v-16.46h21.28c3.59,0,5.71.86,6.95,2.09,1.24,1.22,1.95,3.15,1.95,6.06,0,2.66-.59,4.65-1.81,5.98Z" fill="#3a3a39"/>
  <path d="M864.04,2.54h-52.1v103.16h52.1c16.65,0,28.97-6.23,37.1-15.94,8.08-9.66,11.87-22.6,11.87-35.86s-3.79-26.09-11.88-35.64c-8.13-9.6-20.45-15.71-37.09-15.71ZM842.17,27.24h15.91c8.62,0,14.34,2.22,17.97,6.37,3.67,4.21,5.55,10.78,5.55,20.28s-1.84,16.06-5.52,20.42c-3.62,4.29-9.34,6.68-18,6.68h-15.91V27.24Z" fill="#3a3a39"/>
  <polygon points="1575.67 2.54 1573.68 2.54 1573.68 4.52 1573.68 41.16 1536.19 41.16 1536.19 4.52 1536.19 2.54 1534.2 2.54 1507.95 2.54 1505.97 2.54 1505.97 4.52 1505.97 103.71 1505.97 105.69 1507.95 105.69 1534.2 105.69 1536.19 105.69 1536.19 103.71 1536.19 65.57 1573.68 65.57 1573.68 103.71 1573.68 105.69 1575.67 105.69 1601.92 105.69 1603.9 105.69 1603.9 103.71 1603.9 4.52 1603.9 2.54 1601.92 2.54 1575.67 2.54" fill="#3a3a39"/>
  <polygon points="1617.17 2.54 1615.18 2.54 1615.18 4.52 1615.18 25.26 1615.18 27.24 1617.17 27.24 1632.63 27.24 1632.63 80.99 1617.17 80.99 1615.18 80.99 1615.18 82.98 1615.18 103.71 1615.18 105.69 1617.17 105.69 1678.32 105.69 1680.31 105.69 1680.31 103.71 1680.31 82.98 1680.31 80.99 1678.32 80.99 1662.86 80.99 1662.86 27.24 1678.32 27.24 1680.31 27.24 1680.31 25.26 1680.31 4.52 1680.31 2.54 1678.32 2.54 1617.17 2.54" fill="#3a3a39"/>
  <polygon points="1408.32 2.54 1406.33 2.54 1406.33 4.52 1406.33 25.26 1406.33 27.24 1408.32 27.24 1438.25 27.24 1438.25 103.71 1438.25 105.69 1440.24 105.69 1466.49 105.69 1468.48 105.69 1468.48 103.71 1468.48 27.24 1498.41 27.24 1500.39 27.24 1500.39 25.26 1500.39 4.52 1500.39 2.54 1498.41 2.54 1408.32 2.54" fill="#3a3a39"/>
  <path d="M1768.83,2.54h-1.98v68.89c-.22-.54-.44-1.08-.65-1.59h-.01s-27.89-66.08-27.89-66.08l-.51-1.22h-46.41v103.16h29.03V37.37c.31.79.63,1.59.95,2.37h0s.01.02.01.02l27.59,64.73.51,1.21h46.41V2.54h-27.05Z" fill="#3a3a39"/>
  <path d="M1852.69,47.28h-1.99v20.53h31.67c-.93,4.35-2.66,8.02-5.61,10.73-3.46,3.16-8.88,5.28-17.51,5.28s-14.21-2.51-17.93-7.17c-3.78-4.76-5.73-12.13-5.73-22.46,0-10.95,2.34-18.36,6.48-23.03,4.11-4.62,10.29-6.9,18.82-6.9,6.8,0,11.73,1.54,15.04,3.92,3.29,2.35,5.14,5.62,5.66,9.43l.24,1.72h30.11l-.15-2.13c-.7-10.13-4.58-19.52-12.89-26.35-8.28-6.8-20.72-10.85-38.16-10.85-19.73,0-33.95,5.99-43.23,15.94-9.26,9.92-13.34,23.51-13.34,38.25s3.69,27.87,11.72,37.77c8.08,9.97,20.38,16.12,37.1,16.12,11.19,0,19.33-2.57,25.22-6.68,3.16-2.21,5.62-4.82,7.54-7.64v11.93h25.9v-58.41h-58.96Z" fill="#3a3a39"/>
  <polygon points="759.59 80.99 759.59 4.52 759.59 2.54 757.6 2.54 731.06 2.54 729.07 2.54 729.07 4.52 729.07 103.71 729.07 105.69 731.06 105.69 802.2 105.69 804.19 105.69 804.19 103.71 804.19 82.98 804.19 80.99 802.2 80.99 759.59 80.99" fill="#3a3a39"/>
  <path d="M1016.55,41.32h0s-18.9-1.93-18.9-1.93h0c-3.54-.42-5.71-1.46-6.98-2.72-1.24-1.23-1.85-2.87-1.85-5,0-2.58,1.13-4.62,3.36-6.1,2.32-1.53,5.91-2.5,10.76-2.5,5.3,0,9.13,1.24,11.7,3.19,2.55,1.93,4.07,4.71,4.53,8.2l.23,1.73h29.84l-.17-2.14c-.7-9.23-4.28-17.82-11.82-24.09-7.51-6.24-18.72-9.97-34.31-9.97-14.58,0-25.73,3.26-33.29,9.17-7.62,5.95-11.35,14.43-11.35,24.29,0,8.85,2.72,16.13,7.95,21.47,5.21,5.32,12.73,8.51,21.99,9.59h.01s21.6,2.38,21.6,2.38c3.52.5,5.88,1.48,7.35,2.86,1.41,1.31,2.24,3.2,2.24,6.06s-.97,5.08-3.14,6.62c-2.28,1.63-6.15,2.73-12.32,2.73-6.58,0-10.86-1.76-13.58-4.23-2.72-2.48-4.09-5.88-4.43-9.62l-.16-1.81h-29.43l.12,2.1c.54,9.25,3.79,18.48,11.3,25.38,7.52,6.9,19.05,11.24,35.72,11.24s27.97-3.32,35.55-9.45c7.67-6.19,10.89-15,10.89-25.21,0-9.32-2.58-16.94-8.25-22.49-5.63-5.51-14.04-8.7-25.17-9.77Z" fill="#3a3a39"/>
  <path d="M1109.3,0c-20.01,0-33.91,6.71-42.78,17-8.82,10.25-12.45,23.8-12.45,37.18s3.63,27.09,12.46,37.21c8.87,10.17,22.78,16.68,42.77,16.68s34.09-6.54,42.96-16.73c8.84-10.14,12.42-23.64,12.42-37.16s-3.59-26.86-12.41-37.13c-8.86-10.32-22.8-17.06-42.97-17.06ZM1090.33,32.63c3.38-4.53,9.11-7.18,18.97-7.18s15.78,2.66,19.16,7.18c3.49,4.67,4.8,11.78,4.8,21.55s-1.31,16.7-4.8,21.37c-3.38,4.53-9.14,7.22-19.16,7.22s-15.58-2.68-18.97-7.22c-3.49-4.68-4.84-11.76-4.84-21.37s1.35-16.88,4.84-21.55Z" fill="#3a3a39"/>
  <polygon points="1349.03 80.99 1349.03 64.83 1395.67 64.83 1397.65 64.83 1397.65 62.84 1397.65 43.6 1397.65 41.61 1395.67 41.61 1349.03 41.61 1349.03 27.24 1400.14 27.24 1402.13 27.24 1402.13 25.26 1402.13 4.52 1402.13 2.54 1400.14 2.54 1320.79 2.54 1318.81 2.54 1318.81 4.52 1318.81 103.71 1318.81 105.69 1320.79 105.69 1400.59 105.69 1402.58 105.69 1402.58 103.71 1402.58 82.98 1402.58 80.99 1400.59 80.99 1349.03 80.99" fill="#3a3a39"/>
  <polygon points="1260.61 2.54 1259.11 2.54 1258.7 3.98 1240.33 68.25 1222.1 3.98 1221.69 2.54 1220.19 2.54 1175 2.54 1173.01 2.54 1173.01 4.52 1173.01 103.71 1173.01 105.69 1175 105.69 1201.25 105.69 1203.24 105.69 1203.24 103.71 1203.24 35.06 1223.35 104.26 1223.77 105.69 1225.26 105.69 1254.64 105.69 1256.14 105.69 1256.55 104.26 1276.52 35.51 1276.52 103.71 1276.52 105.69 1278.51 105.69 1304.76 105.69 1306.74 105.69 1306.74 103.71 1306.74 4.52 1306.74 2.54 1304.76 2.54 1260.61 2.54" fill="#3a3a39"/>
</svg>