<?xml version="1.0" encoding="UTF-8"?>
<svg id="Layer_1" data-name="Layer 1" xmlns="http://www.w3.org/2000/svg" width="675.57mm" height="161.22mm" viewBox="0 0 1915 457">
  <path d="M763.85,171.32c-4.79,3.41-12.87,5.69-25.7,5.69-13.7,0-22.64-3.67-28.3-8.84-5.68-5.18-8.54-12.29-9.25-20.08l-.33-3.64h-60.91l.25,4.23c1.13,19.21,7.86,38.34,23.45,52.66,15.59,14.31,39.53,23.34,74.16,23.34s58.08-6.89,73.81-19.6c15.89-12.84,22.57-31.1,22.57-52.29,0-19.35-5.34-35.15-17.09-46.65-11.67-11.41-29.11-18.04-52.22-20.26h0s-.02,0-.02,0c0,0,0,0,0,0h0s-39.3-4.02-39.3-4.02c-7.36-.87-11.89-3.04-14.57-5.69-2.61-2.58-3.89-6.04-3.89-10.49,0-5.41,2.37-9.69,7.04-12.78,4.85-3.21,12.35-5.23,22.44-5.23,11.03,0,19.01,2.57,24.4,6.66,5.32,4.04,8.49,9.84,9.46,17.14l.46,3.48h61.76l-.33-4.3c-1.46-19.15-8.89-36.98-24.53-49.97C791.62,7.74,768.36,0,735.98,0,705.69,0,682.54,6.78,666.87,19.02c-15.8,12.35-23.55,29.92-23.55,50.39,0,18.37,5.63,33.47,16.49,44.53,10.81,11.02,26.41,17.65,45.64,19.89h.01s.01,0,.01,0l44.88,4.95c7.34,1.03,12.28,3.09,15.38,5.97,2.97,2.76,4.69,6.72,4.69,12.69s-2.04,10.64-6.57,13.87Z" fill="#3a3a39"/>
  <polygon points="431.8 56.36 431.8 215.42 431.8 219.42 435.8 219.42 490.36 219.42 494.36 219.42 494.36 215.42 494.36 56.36 556.7 56.36 560.7 56.36 560.7 52.36 560.7 9.27 560.7 5.27 556.7 5.27 369.46 5.27 365.46 5.27 365.46 9.27 365.46 52.36 365.46 56.36 369.46 56.36 431.8 56.36" fill="#3a3a39"/>
  <path d="M587.28,114.95c15.46,0,25.89-3.78,32.31-11.13,6.32-7.24,7.96-17.07,7.96-27.28V5.27h-56.05v52.02h18.29v22.38h-18.29v35.28h15.78Z" fill="#3a3a39"/>
  <path d="M1645.09,250.27h-4v143.73c-.54-1.35-1.08-2.67-1.61-3.94h0v-.02l-57.97-137.33-1.03-2.44h-96.25v214.15h60.08v-142.54c.73,1.86,1.47,3.7,2.23,5.53v.04s57.36,134.54,57.36,134.54l1.04,2.43h96.23v-214.15h-56.08Z" fill="#3a3a39"/>
  <path d="M1054,219.42c22.58,0,40.52-5.32,52.88-15.74,12.46-10.51,18.7-25.75,18.7-44.36s-5.33-30.3-14.6-38.96c-5.71-5.34-12.73-9.02-20.46-11.61,7.07-2.83,13.42-6.69,18.57-11.92,8.52-8.66,13.39-20.65,13.39-36.71,0-14.84-4.88-28.71-15.94-38.83-11.03-10.09-27.69-16.01-50.37-16.01h-124.28v214.15h122.11ZM1055.99,137.74c3.07,3.13,4.55,7.75,4.55,13.82s-1.37,10.71-4.19,13.74c-2.78,2.97-7.64,5.2-16.3,5.2h-45.6v-38.19h44.05c9.14,0,14.44,2.31,17.49,5.43ZM1053.65,83.79c-2.5,2.73-6.98,4.87-15.15,4.87h-44.05v-34.47h44.36c7.49,0,11.94,1.8,14.55,4.38,2.6,2.57,4.08,6.62,4.08,12.7,0,5.55-1.22,9.73-3.79,12.52Z" fill="#3a3a39"/>
  <path d="M1799.01,219.42c34.57,0,60.14-12.93,77-33.09,16.78-20.06,24.65-46.92,24.65-74.45s-7.88-54.17-24.66-74c-16.87-19.93-42.44-32.61-76.99-32.61h-108.16v214.15h108.16ZM1753.41,56.36h33.2c17.95,0,29.88,4.62,37.44,13.28,7.67,8.78,11.57,22.49,11.57,42.24s-3.82,33.42-11.5,42.53c-7.55,8.96-19.49,13.92-37.51,13.92h-33.2V56.36Z" fill="#3a3a39"/>
  <polygon points="1670.46 219.42 1674.46 219.42 1674.46 215.42 1674.46 172.33 1674.46 168.33 1670.46 168.33 1581.77 168.33 1581.77 9.27 1581.77 5.27 1577.77 5.27 1522.59 5.27 1518.59 5.27 1518.59 9.27 1518.59 215.42 1518.59 219.42 1522.59 219.42 1670.46 219.42" fill="#3a3a39"/>
  <polygon points="1491.32 219.42 1495.32 219.42 1495.32 215.42 1495.32 172.33 1495.32 168.33 1491.32 168.33 1459.05 168.33 1459.05 56.36 1491.32 56.36 1495.32 56.36 1495.32 52.36 1495.32 9.27 1495.32 5.27 1491.32 5.27 1364.22 5.27 1360.22 5.27 1360.22 9.27 1360.22 52.36 1360.22 56.36 1364.22 56.36 1396.49 56.36 1396.49 168.33 1364.22 168.33 1360.22 168.33 1360.22 172.33 1360.22 215.42 1360.22 219.42 1364.22 219.42 1491.32 219.42" fill="#3a3a39"/>
  <path d="M1819.38,343.27h-4v42.41h65.87c-1.93,9.12-5.53,16.85-11.75,22.54-7.21,6.59-18.52,11-36.48,11s-29.61-5.22-37.36-14.96c-7.9-9.93-11.96-25.28-11.96-46.76,0-22.78,4.88-38.22,13.52-47.95,8.56-9.63,21.47-14.39,39.21-14.39,14.16,0,24.42,3.2,31.35,8.16,6.85,4.91,10.71,11.74,11.81,19.69l.48,3.45h62.33l-.3-4.28c-1.45-21.02-9.51-40.5-26.75-54.66-17.18-14.11-43-22.53-79.23-22.53-40.97,0-70.51,12.45-89.76,33.09-19.21,20.59-27.7,48.8-27.7,79.41s7.67,57.87,24.34,78.43c16.76,20.68,42.29,33.45,77,33.45,23.25,0,40.14-5.34,52.36-13.85,6.69-4.67,11.86-10.21,15.87-16.18v25.07h53.57v-121.15h-122.42Z" fill="#3a3a39"/>
  <path d="M81.45,330.89h0s-39.28-4.02-39.28-4.02h0c-7.37-.87-11.91-3.04-14.59-5.69-2.61-2.58-3.89-6.04-3.89-10.49,0-5.41,2.37-9.69,7.04-12.78,4.85-3.21,12.35-5.23,22.44-5.23,11.03,0,19.01,2.58,24.4,6.67,5.32,4.04,8.49,9.84,9.46,17.14l.46,3.48h61.76l-.33-4.3c-1.46-19.15-8.89-36.98-24.53-49.97-15.58-12.95-38.84-20.69-71.22-20.69-30.29,0-53.45,6.78-69.11,19.02-15.8,12.34-23.55,29.91-23.55,50.39,0,18.37,5.63,33.47,16.49,44.53,10.81,11.02,26.41,17.65,45.64,19.89h.01s.01,0,.01,0l44.88,4.95c7.34,1.03,12.28,3.09,15.38,5.97,2.97,2.76,4.69,6.72,4.69,12.69s-2.04,10.64-6.57,13.87c-4.79,3.41-12.87,5.69-25.7,5.69-13.7,0-22.64-3.67-28.3-8.84-5.68-5.18-8.54-12.29-9.25-20.08l-.33-3.64h-60.9l.25,4.23c1.13,19.21,7.86,38.35,23.45,52.66,15.59,14.31,39.53,23.33,74.16,23.33s58.08-6.89,73.81-19.6c15.89-12.84,22.57-31.1,22.57-52.29,0-19.35-5.34-35.15-17.09-46.65-11.67-11.42-29.12-18.05-52.25-20.27Z" fill="#3a3a39"/>
  <polygon points="895.76 250.27 891.76 250.27 891.76 254.27 891.76 297.36 891.76 301.36 895.76 301.36 958.1 301.36 958.1 460.42 958.1 464.42 962.1 464.42 1016.66 464.42 1020.66 464.42 1020.66 460.42 1020.66 301.36 1083 301.36 1087 301.36 1087 297.36 1087 254.27 1087 250.27 1083 250.27 895.76 250.27" fill="#3a3a39"/>
  <polygon points="588.74 250.27 585.72 250.27 584.89 253.17 546.59 387.22 508.58 253.18 507.75 250.27 504.73 250.27 410.8 250.27 406.8 250.27 406.8 254.27 406.8 460.42 406.8 464.42 410.8 464.42 465.36 464.42 469.36 464.42 469.36 460.42 469.36 316.78 511.43 461.54 512.27 464.42 515.27 464.42 576.34 464.42 579.34 464.42 580.18 461.53 621.94 317.73 621.94 460.42 621.94 464.42 625.94 464.42 680.5 464.42 684.5 464.42 684.5 460.42 684.5 254.27 684.5 250.27 680.5 250.27 588.74 250.27" fill="#3a3a39"/>
  <polygon points="772.4 413.33 772.4 379.48 869.46 379.48 873.46 379.48 873.46 375.48 873.46 335.49 873.46 331.49 869.46 331.49 772.4 331.49 772.4 301.36 878.76 301.36 882.76 301.36 882.76 297.36 882.76 254.27 882.76 250.27 878.76 250.27 713.84 250.27 709.84 250.27 709.84 254.27 709.84 460.42 709.84 464.42 713.84 464.42 879.69 464.42 883.69 464.42 883.69 460.42 883.69 417.33 883.69 413.33 879.69 413.33 772.4 413.33" fill="#3a3a39"/>
  <polygon points="353.38 219.42 357.38 219.42 357.38 215.42 357.38 172.33 357.38 168.33 353.38 168.33 246.09 168.33 246.09 134.48 343.15 134.48 347.15 134.48 347.15 130.48 347.15 90.49 347.15 86.49 343.15 86.49 246.09 86.49 246.09 56.36 352.45 56.36 356.45 56.36 356.45 52.36 356.45 9.27 356.45 5.27 352.45 5.27 187.53 5.27 183.53 5.27 183.53 9.27 183.53 215.42 183.53 219.42 187.53 219.42 353.38 219.42" fill="#3a3a39"/>
  <polygon points="1243.59 250.27 1239.59 250.27 1239.59 254.27 1239.59 330.56 1161.41 330.56 1161.41 254.27 1161.41 250.27 1157.41 250.27 1102.85 250.27 1098.85 250.27 1098.85 254.27 1098.85 460.42 1098.85 464.42 1102.85 464.42 1157.41 464.42 1161.41 464.42 1161.41 460.42 1161.41 381.03 1239.59 381.03 1239.59 460.42 1239.59 464.42 1243.59 464.42 1298.15 464.42 1302.15 464.42 1302.15 460.42 1302.15 254.27 1302.15 250.27 1298.15 250.27 1243.59 250.27" fill="#3a3a39"/>
  <path d="M1341.52,9.27v-4h-62.56v124.59c0,17.69-3.24,27.82-8.9,33.64-5.62,5.78-14.52,8.24-28.33,8.24s-22.71-2.47-28.33-8.24c-5.66-5.82-8.9-15.95-8.9-33.64V5.27h-62.87v131.72c0,28.39,8.4,50.49,25.6,65.41,17.09,14.83,42.22,21.98,74.5,21.98s57.35-7.24,74.36-22.11c17.11-14.96,25.43-37.05,25.43-65.28V9.27Z" fill="#3a3a39"/>
  <path d="M274.25,245c-41.57,0-70.42,13.93-88.82,35.3-18.31,21.27-25.85,49.41-25.85,77.2s7.53,56.26,25.86,77.26c18.42,21.1,47.27,34.62,88.81,34.62s70.78-13.59,89.2-34.74c18.33-21.05,25.78-49.06,25.78-77.14s-7.46-55.78-25.77-77.08c-18.4-21.41-47.34-35.42-89.21-35.42ZM234.72,312.62c7.06-9.46,19-14.98,39.53-14.98s32.87,5.53,39.92,14.98c7.28,9.75,10.02,24.57,10.02,44.88s-2.74,34.74-10.02,44.49c-7.06,9.46-19.08,15.05-39.92,15.05s-32.47-5.58-39.53-15.05c-7.28-9.76-10.1-24.52-10.1-44.49s2.81-35.13,10.1-44.88Z" fill="#3a3a39"/>
  <polygon points="163.15 219.42 167.15 219.42 167.15 215.42 167.15 172.33 167.15 168.33 163.15 168.33 74.46 168.33 74.46 9.27 74.46 5.27 70.46 5.27 15.28 5.27 11.28 5.27 11.28 9.27 11.28 215.42 11.28 219.42 15.28 219.42 163.15 219.42" fill="#3a3a39"/>
  <polygon points="1329.86 250.27 1325.86 250.27 1325.86 254.27 1325.86 297.36 1325.86 301.36 1329.86 301.36 1362.13 301.36 1362.13 413.33 1329.86 413.33 1325.86 413.33 1325.86 417.33 1325.86 460.42 1325.86 464.42 1329.86 464.42 1456.96 464.42 1460.96 464.42 1460.96 460.42 1460.96 417.33 1460.96 413.33 1456.96 413.33 1424.69 413.33 1424.69 301.36 1456.96 301.36 1460.96 301.36 1460.96 297.36 1460.96 254.27 1460.96 250.27 1456.96 250.27 1329.86 250.27" fill="#3a3a39"/>
</svg>