<svg width="73" height="69" viewBox="0 0 73 69" fill="none" xmlns="http://www.w3.org/2000/svg">
<g clip-path="url(#clip0_6662_828)">
<path d="M8.43357 51.9046C9.61053 51.6449 10.7837 51.3681 11.9645 51.1314C12.6269 50.9987 13.3008 50.908 13.9728 50.8421C14.6954 50.7705 15.4218 50.7438 16.1473 50.7095C17.3157 50.6541 18.0421 51.2908 18.5318 52.2692C18.6769 52.5584 18.8639 52.862 18.8849 53.1684C18.9145 53.5998 18.5413 53.8814 18.0955 53.9521C16.6723 54.1754 15.2338 54.3387 13.8344 54.667C11.7382 55.1596 9.65635 55.7266 7.59357 56.3499C5.92501 56.8539 4.30514 57.5135 2.64231 58.0395C2.29963 58.1473 1.76031 58.1015 1.49208 57.8944C0.610072 57.2109 -0.0227951 56.3661 0.000114145 55.1262C0.0125233 54.4465 0.438253 54.1525 0.82771 53.7793C2.19749 52.4639 3.61213 51.1915 4.93705 49.8322C6.56742 48.1598 8.14339 46.4331 9.70599 44.6958C10.6672 43.6267 11.6256 42.5423 12.4665 41.3787C13.5185 39.924 14.5121 38.4167 15.4094 36.8627C15.9153 35.9865 16.2179 34.9832 16.5358 34.0125C16.6952 33.5237 16.5358 33.4264 16.0308 33.4846C14.852 33.6201 13.8497 34.1795 12.8684 34.7875C11.3402 35.7345 9.96085 36.879 8.73425 38.18C7.79975 39.1718 6.80415 40.1636 6.53592 41.6069C6.49774 41.813 6.38892 42.066 6.22951 42.1767C6.01092 42.3295 5.65678 42.508 5.45728 42.4297C4.43877 42.0288 3.64459 41.3444 3.22554 40.2991C2.9554 39.6252 3.13868 38.9885 3.47086 38.3938C4.23259 37.0326 5.20719 35.8223 6.3326 34.7589C7.57352 33.5867 8.89748 32.4995 10.4047 31.6652C11.6676 30.9665 12.9763 30.3384 14.41 30.1465C17.183 29.7752 19.2248 30.7698 19.8815 33.7328C20.2156 35.241 19.8471 36.711 19.1837 38.1065C17.8225 40.9683 15.964 43.4978 13.9318 45.9014C12.6699 47.3933 11.322 48.8147 9.98662 50.2427C9.47212 50.7934 8.88412 51.2755 8.32952 51.789L8.43548 51.9046H8.43357Z" fill="#3A3A39"/>
<path d="M60.9856 38.0843C62.3868 37.1256 64.0211 36.5637 65.7156 36.4579C69.2172 36.2899 71.8045 39.1043 70.8871 42.4815C69.4597 47.7339 66.0887 51.3381 60.7803 52.8961C57.5586 53.8291 54.7381 51.4625 53.7087 49.0618C52.8193 46.9969 52.9624 44.9071 53.5346 42.8236C54.4488 39.4806 56.2245 36.5667 58.2459 33.8052C59.9563 31.4636 61.9465 29.3862 64.4996 27.9713C65.557 27.446 66.6774 27.0582 67.8333 26.8176C68.5828 26.6279 69.2451 27.0228 69.7583 27.6012C70.6912 28.6368 70.5419 29.4671 69.3384 30.1637C66.3219 31.8519 63.6992 34.1629 61.6449 36.943C61.4614 37.1918 61.2997 37.4592 61.1349 37.7204C61.1069 37.7826 61.0882 37.8541 60.9856 38.0843ZM57.4249 47.6531C57.5369 49.1862 58.0873 49.6402 59.5178 49.2608C60.0427 49.1242 60.5507 48.9291 61.0322 48.6793C63.382 47.3929 65.304 45.4471 66.5614 43.0817C67.0012 42.2667 67.3395 41.4009 67.569 40.5037C67.7773 39.7387 67.4135 39.3406 66.6205 39.4028C65.9787 39.4434 65.3481 39.5906 64.7546 39.8382C61.9888 41.0641 59.6805 43.1319 58.1588 45.7468C57.8136 46.2972 57.6644 46.9969 57.4249 47.6531Z" fill="#3A3A39"/>
<path d="M61.6135 60.3974C61.583 60.5549 61.5801 60.7897 61.4904 60.9844C61.1802 61.6545 60.9692 61.6631 60.2132 61.5161C58.7623 61.2345 57.2971 61.0159 55.8318 60.8212C54.946 60.7028 54.0478 60.6694 53.1534 60.6141C52.4021 60.5673 51.6499 60.5167 50.8978 60.5158C48.7758 60.5119 46.6538 60.5091 44.5328 60.553C43.5477 60.573 42.5645 60.6962 41.5813 60.7859C40.1743 60.9138 38.7654 61.0245 37.3632 61.1944C35.8598 61.3768 34.3621 61.6058 32.8663 61.8416C31.1051 62.1184 29.3345 62.3619 27.5924 62.7322C25.4676 63.1828 23.3551 63.704 21.2609 64.2786C19.3059 64.8151 17.3634 65.4126 15.4486 66.077C13.6894 66.6869 11.9721 67.4162 10.2387 68.1016C9.84444 68.2572 9.44544 68.4185 9.07984 68.6304C8.58061 68.9206 8.09666 68.869 7.71388 68.5139C7.03806 67.8868 6.45578 67.1842 6.39374 66.1858C6.36319 65.6866 6.51115 65.3401 6.9636 65.0909C8.85648 64.0428 10.7999 63.116 12.8179 62.3218C15.8457 61.1295 18.9442 60.174 22.1114 59.4638C24.7622 58.8701 27.4387 58.3842 30.1162 57.9222C32.0683 57.5853 34.0347 57.3142 36.0039 57.108C37.7364 56.9266 39.4813 56.8484 41.2234 56.7777C43.0828 56.7014 44.9461 56.6193 46.8046 56.6622C48.9638 56.7128 51.1278 56.8302 53.2765 57.046C55.0672 57.2264 56.8465 57.5481 58.6143 57.8936C59.4295 58.053 60.2667 58.2707 60.9358 58.8386C61.395 59.229 61.6536 59.7139 61.6145 60.3964L61.6135 60.3974Z" fill="#3A3A39"/>
<path d="M7.45232 9.9445C6.20949 10.6671 4.96762 11.3925 3.72098 12.1094C3.44798 12.2669 3.16734 12.4206 2.87334 12.5285C2.57456 12.6373 2.27674 12.6058 2.0572 12.3251C1.87201 12.0903 1.66679 11.8689 1.50165 11.6207C1.29165 11.3047 1.24869 10.9401 1.50833 10.649C2.11447 9.96931 2.71297 9.27249 3.39357 8.67208C3.94434 8.18526 4.60107 7.81394 5.22631 7.41398C7.02945 6.25993 8.93855 5.28152 10.9345 4.54174C12.4427 3.98333 14.0492 3.62346 15.6433 3.37814C17.1782 3.14237 18.6874 3.40201 19.9436 4.47587C21.3401 5.67002 21.8756 7.21448 21.7276 8.99758C21.5529 11.1014 20.5927 12.8902 19.3307 14.5292C18.696 15.3539 18.0793 16.2111 17.3357 16.9309C15.3818 18.8218 13.3409 20.6192 10.945 21.9518C10.1604 22.388 9.35665 22.7947 8.5386 23.165C8.04318 23.3893 7.79309 23.733 7.66805 24.2456C7.2805 25.8359 6.85382 27.4156 6.46722 29.0059C6.29254 29.7237 6.17608 30.4559 6.03481 31.1823C5.88686 31.945 5.25876 32.2037 4.60394 31.7741C4.51326 31.7149 4.40348 31.6834 4.30135 31.6405C2.74066 30.979 2.39415 30.1772 2.72729 28.7272C3.11579 27.0348 3.56157 25.3557 3.99684 23.6738C4.06271 23.4208 3.99971 23.2987 3.80212 23.1278C3.16734 22.578 2.92297 22.2324 3.27998 21.6607C3.45657 21.3781 3.79162 21.1528 4.10375 21.0058C4.50562 20.8159 4.73376 20.582 4.8483 20.1315C5.33608 18.2052 5.86872 16.2903 6.38418 14.3717C6.76886 12.9389 7.15259 11.5052 7.53727 10.0715C7.50864 10.0295 7.48095 9.98745 7.45232 9.94545V9.9445ZM9.06742 18.503C9.10942 18.5269 9.15142 18.5517 9.19342 18.5755C9.79669 18.1775 10.4181 17.8052 10.9994 17.3776C13.0546 15.8675 14.9828 14.2228 16.5349 12.1705C17.5601 10.816 18.3762 9.37654 18.6788 7.68126C18.758 7.23548 18.6024 6.91475 18.1891 6.77443C17.8827 6.67039 17.5457 6.61407 17.2212 6.60834C15.3092 6.57302 13.6044 7.34144 11.8824 8.0268C11.6552 8.11749 11.5531 8.2979 11.7354 8.56135C11.8098 8.66826 11.8203 8.86299 11.7822 8.99567C11.4929 10.0218 11.1856 11.0432 10.882 12.0665C10.4754 13.4401 10.0582 14.8098 9.66497 16.1873C9.44542 16.9538 9.26501 17.7298 9.06646 18.502L9.06742 18.503Z" fill="#3A3A39"/>
<path d="M43.0388 49.0142C43.9332 48.8959 44.7541 48.7708 45.5798 48.6811C47.2102 48.5035 48.8453 48.3021 50.4814 48.556C50.8289 48.6095 51.205 48.8147 51.4617 49.061C52.1013 49.6729 52.6606 50.3601 52.6654 51.3214C52.6673 51.8053 52.3905 52.0592 51.9123 52.1098C49.5421 52.359 47.1596 52.5308 44.8085 52.904C42.657 53.2457 40.5388 53.7984 38.4111 54.2833C37.9873 54.3797 37.5826 54.5735 37.1817 54.7501C36.5221 55.0403 35.8405 54.9048 35.3795 54.3473C35.0578 53.9578 34.697 53.5846 34.4536 53.1493C33.9782 52.2988 34.1099 51.3452 34.9862 50.7152C36.2032 49.8409 37.3726 48.8863 38.476 47.8716C39.9995 46.4713 41.4981 45.0347 42.9042 43.5189C44.2997 42.0155 45.618 40.4338 46.877 38.8129C47.8908 37.5081 48.8453 36.1411 49.671 34.7122C50.174 33.8426 50.4012 32.8088 50.7143 31.8361C50.8413 31.4409 50.5368 31.1403 50.1091 31.1546C49.02 31.1918 48.1179 31.733 47.2388 32.28C45.1684 33.5677 43.4731 35.2725 42.0928 37.2675C41.606 37.971 41.313 38.8082 40.9369 39.5871C40.7641 39.945 40.3431 40.1484 40.0444 39.9145C39.4382 39.441 38.8197 38.9561 38.3252 38.3748C37.7296 37.6742 37.8756 36.8418 38.309 36.1077C38.7185 35.4147 39.211 34.7685 39.6883 34.1175C41.1526 32.1196 42.9242 30.4473 45.0682 29.1987C46.5372 28.3434 48.1199 27.7993 49.8447 28.0361C51.7672 28.2995 53.0692 29.4001 53.5503 31.2882C53.8748 32.5597 53.8949 33.8741 53.3785 35.1322C52.9957 36.0629 52.6501 37.0146 52.1881 37.9052C51.3071 39.6043 50.2724 41.2279 48.999 42.6512C47.1042 44.7693 45.093 46.7834 43.1323 48.8424C43.1132 48.8624 43.1037 48.893 43.0369 49.0171L43.0388 49.0142Z" fill="#3A3A39"/>
<path d="M36.2626 37.3602C36.1852 38.5439 36.2062 39.5356 36.0354 40.4921C35.8196 41.6958 35.4722 42.8794 35.1343 44.0583C34.5606 46.0562 33.6834 47.9252 32.5054 49.6338C31.1977 51.5315 29.7344 53.2917 27.6888 54.4629C26.8154 54.9631 25.8704 55.3144 24.8805 55.3191C23.9756 55.323 23.0869 55.07 22.2898 54.5593C20.6938 53.536 19.7431 52.0546 19.3422 50.2533C19.0692 49.0258 19.0453 47.7524 19.2668 46.4943C19.4548 45.4252 19.5541 44.3304 19.8519 43.2928C20.1946 42.0996 20.6614 40.9341 21.1692 39.8001C21.5997 38.8379 22.139 37.9205 22.6774 37.0118C23.5575 35.5275 24.6342 34.1873 25.8035 32.9216C26.6235 32.0338 27.5045 31.2244 28.6042 30.6898C29.8489 30.0846 31.1557 30.2173 32.0768 31.3952C32.1561 31.4964 32.2888 31.6024 32.4081 31.6186C34.4785 31.8954 35.412 33.3091 35.8855 35.138C36.0898 35.9274 36.1633 36.7503 36.2645 37.3621L36.2626 37.3602ZM22.8826 49.8744C22.9466 50.3097 23.0048 50.891 23.1212 51.4609C23.2778 52.2283 23.8753 52.5509 24.5349 52.1472C25.3224 51.6661 26.108 51.1411 26.7705 50.5044C28.6061 48.7404 29.91 46.5946 30.9419 44.2826C32.0444 41.8132 32.8042 39.2493 32.8768 36.524C32.8939 35.8845 32.8663 35.2154 32.6944 34.6063C32.5083 33.9448 32.0196 33.5573 31.2788 33.9468C31.0832 34.0498 30.8865 34.1548 30.7052 34.2799C28.9268 35.5084 27.6993 37.2333 26.5309 38.9973C25.3129 40.8367 24.4357 42.8422 23.7541 44.9413C23.2473 46.501 23.0162 48.0999 22.8826 49.8734V49.8744Z" fill="#3A3A39"/>
<path d="M57.5079 22.1151C58.0921 20.9592 58.6734 19.8003 59.2623 18.6463C60.1071 16.9901 60.9557 15.3359 61.8062 13.6826C62.4143 12.5018 63.0195 11.3192 63.6428 10.147C64.2518 9.00247 64.8503 7.85032 65.5089 6.73541C66.7279 4.67167 67.9831 2.63084 69.2317 0.585236C69.6689 -0.130677 70.1375 -0.153586 70.8563 0.331326C71.2276 0.581418 71.534 0.821965 71.7469 1.22479C72.1516 1.98938 71.7536 2.60697 71.4176 3.21884C70.8391 4.27362 70.1919 5.29117 69.6106 6.345C68.8107 7.79591 68.0261 9.25638 67.2682 10.7292C66.1714 12.8617 65.0994 15.0066 64.0275 17.1515C63.3297 18.548 62.6415 19.9502 61.9637 21.3563C61.1848 22.9714 60.425 24.596 59.6489 26.213C59.4857 26.5538 59.2948 26.8831 59.1048 27.2105C58.7135 27.8873 58.1932 28.0543 57.3771 27.8148C56.0722 27.432 55.0413 26.6817 54.4295 25.4666C54.1822 24.9759 54.0791 24.3889 54.0142 23.8333C53.8519 22.4444 53.7107 21.0508 53.6353 19.6553C53.5732 18.4907 53.6124 17.3195 53.6143 16.1521C53.6162 14.8462 53.5847 13.5375 53.6458 12.2346C53.725 10.5345 53.8701 8.83637 54.0075 7.13918C54.0562 6.54068 54.6232 5.96986 55.343 5.91163C56.4779 5.81999 57.2215 5.97558 57.6892 6.99123C57.7904 7.21077 57.842 7.479 57.8296 7.7205C57.7532 9.1466 57.6406 10.5698 57.5613 11.9959C57.506 12.9934 57.4831 13.9919 57.4496 14.9904C57.4286 15.6127 57.4038 16.2351 57.4038 16.8584C57.4038 18.2196 57.421 19.5798 57.4296 20.941C57.4325 21.319 57.4296 21.698 57.4296 22.076C57.4554 22.0894 57.4802 22.1037 57.506 22.117L57.5079 22.1151Z" fill="#3A3A39"/>
<path d="M42.09 7.91867C41.7559 8.02176 41.4887 8.12486 41.2118 8.18117C41.0505 8.21458 40.8224 8.24036 40.7136 8.1554C40.0292 7.62085 39.1777 7.21803 39.0441 6.21003C38.9877 5.78812 39.0078 5.45211 39.4526 5.16193C40.7365 4.32574 42.0776 3.62606 43.5152 3.09533C44.9909 2.55028 46.4313 1.905 47.9242 1.41723C49.841 0.791043 51.8016 0.324267 53.8348 0.238358C54.7226 0.20113 56.2498 1.15568 56.4742 2.32691C56.5753 2.85287 56.3529 3.18983 55.8098 3.3206C54.651 3.60124 53.4731 3.8227 52.341 4.18447C50.6457 4.72666 48.9886 5.3853 47.3038 5.95993C46.5258 6.2253 46.501 6.94217 46.2948 7.52635C45.7507 9.06891 45.2668 10.6325 44.7637 12.1884C44.7122 12.3478 44.6893 12.5167 44.6301 12.7897C44.9126 12.7048 45.1112 12.637 45.3135 12.5845C46.6862 12.2285 48.056 11.86 49.4343 11.5278C50.2896 11.3216 50.8557 11.8447 51.3396 12.4327C51.7463 12.9262 51.8732 13.5257 51.584 14.1128C51.4637 14.3571 51.1859 14.5929 50.9273 14.6883C49.4048 15.2458 47.8593 15.7412 46.3368 16.2977C45.4367 16.6261 44.549 16.9993 43.687 17.4165C43.4455 17.5339 43.2126 17.8555 43.1486 18.1247C42.636 20.3011 42.1454 22.4832 41.6882 24.671C41.4858 25.639 41.4028 26.6317 41.2023 27.5996C41.1479 27.8631 40.9007 28.1351 40.6687 28.3002C40.453 28.453 40.1886 28.4177 39.9518 28.1571C39.7485 27.9327 39.4211 27.823 39.151 27.6588C38.2117 27.0861 37.8222 26.2585 37.9969 25.1684C38.3415 23.0206 38.6193 20.8586 39.0708 18.7328C39.2006 18.1228 39.0612 17.8613 38.6842 17.509C37.9425 16.817 38.0609 15.9254 38.9314 15.3909C39.1997 15.2267 39.4459 14.9995 39.7361 14.9069C40.1523 14.7743 40.2353 14.4363 40.3298 14.1156C40.8062 12.4843 41.2624 10.8463 41.7254 9.21113C41.8438 8.794 41.9612 8.37686 42.091 7.91867H42.09Z" fill="#3A3A39"/>
<path d="M25.8377 14.5379C27.1015 14.1455 28.1983 13.8029 29.2979 13.4659C29.5099 13.401 29.7265 13.3542 29.9432 13.3046C30.9245 13.0812 31.7301 13.5165 32.111 14.472C32.1578 14.5894 32.195 14.7097 32.2418 14.8271C32.5148 15.5067 32.3888 15.9153 31.7177 16.2188C30.6906 16.6827 29.6301 17.0722 28.6049 17.5399C27.2991 18.1356 26.0114 18.7713 24.7276 19.4108C24.5701 19.4891 24.4116 19.68 24.3648 19.8499C23.9028 21.5061 23.4465 23.1651 23.0256 24.8327C22.7058 26.0975 22.4347 27.3747 22.1493 28.648C21.9928 29.3487 21.5718 29.5615 20.9409 29.236C20.7165 29.1205 20.5027 28.985 20.2765 28.8733C19.4164 28.4504 18.9487 27.7775 19.111 26.8115C19.3849 25.1792 19.7104 23.5545 20.0302 21.9299C20.1362 21.3896 20.3318 20.8656 20.4063 20.3224C20.4368 20.0991 20.3194 19.7888 20.161 19.6199C19.7477 19.1798 19.4556 18.7092 19.3477 18.1041C19.2733 17.6869 19.4336 17.4378 19.7496 17.2364C20.119 17.0016 20.4731 16.7286 20.8712 16.5558C21.4811 16.2914 21.6138 15.7568 21.7704 15.2118C22.3087 13.3466 22.8461 11.4814 23.3988 9.62097C23.4857 9.32793 23.4551 9.15802 23.2079 8.92892C22.6953 8.45451 22.282 7.8961 22.2352 7.14296C22.2056 6.67046 22.3899 6.33255 22.8013 6.14068C23.5315 5.80086 24.256 5.43527 25.0158 5.17849C26.7168 4.60576 28.4255 4.04544 30.1561 3.57389C31.3082 3.25985 32.4976 3.03266 33.6851 2.92384C34.0841 2.88757 34.6005 3.25985 34.9327 3.58057C35.4099 4.04258 35.6362 4.67735 35.6753 5.36368C35.6944 5.69109 35.5541 5.88295 35.2629 5.96886C34.4792 6.20177 33.6841 6.40127 32.9071 6.65232C31.6643 7.05323 30.431 7.48373 29.1949 7.90469C29.0908 7.94001 28.9973 8.02496 28.8913 8.03928C27.9224 8.17387 27.6924 8.89742 27.4776 9.69829C27.2504 10.544 26.9163 11.3602 26.6319 12.1906C26.3808 12.9256 26.1346 13.6635 25.8387 14.5379H25.8377Z" fill="#3A3A39"/>
</g>
<defs>
<clipPath id="clip0_6662_828">
<rect width="72.5497" height="68.8174" fill="white"/>
</clipPath>
</defs>
</svg>
