<svg width="20" height="20" viewBox="0 0 20 20" fill="none" xmlns="http://www.w3.org/2000/svg">
<path d="M9.14258 1.66748H7.47591C3.30924 1.66748 1.64258 3.33488 1.64258 7.50339V12.5056C1.64258 16.6741 3.30924 18.3415 7.47591 18.3415H12.4759C16.6426 18.3415 18.3092 16.6741 18.3092 12.5056V10.8382" stroke="#3A3A39" stroke-width="1.25055" stroke-linecap="round" stroke-linejoin="round"/>
<path d="M18.2358 2.96824C17.2108 5.5277 14.6358 9.01257 12.4858 10.7383L11.1691 11.7888C11.0025 11.9138 10.8358 12.0139 10.6441 12.0889C10.6441 11.9639 10.6358 11.8388 10.6191 11.7054C10.5441 11.1468 10.2941 10.6216 9.84414 10.1797C9.38581 9.72121 8.83581 9.46277 8.26914 9.38773C8.13581 9.3794 8.00247 9.37106 7.86914 9.3794C7.94414 9.17097 8.05247 8.97922 8.19414 8.82082L9.24414 7.50357C10.9691 5.35262 14.4608 2.75981 17.0108 1.73436C17.4025 1.58429 17.7858 1.70101 18.0275 1.94279C18.2775 2.1929 18.3941 2.5764 18.2358 2.96824Z" stroke="#3A3A39" stroke-width="1.25055" stroke-linecap="round" stroke-linejoin="round"/>
<path d="M10.6494 12.0802C10.6494 12.8138 10.3661 13.5141 9.84109 14.0477C9.43276 14.4562 8.88276 14.7397 8.22443 14.823L6.58276 14.9981C5.69109 15.0982 4.92443 14.3395 5.02443 13.4308L5.19943 11.7884C5.35776 10.3294 6.57443 9.39565 7.87443 9.37064C8.00776 9.3623 8.14109 9.37064 8.27443 9.37898C8.84109 9.45401 9.39109 9.71246 9.84943 10.171C10.2994 10.6212 10.5494 11.1381 10.6244 11.6967C10.6411 11.8301 10.6494 11.9635 10.6494 12.0802Z" stroke="#3A3A39" stroke-width="1.25055" stroke-linecap="round" stroke-linejoin="round"/>
<path d="M13.1837 9.98785C13.1837 8.24542 11.7754 6.82812 10.0254 6.82812" stroke="#3A3A39" stroke-width="1.25055" stroke-linecap="round" stroke-linejoin="round"/>
</svg>
