<svg width="161" height="140" viewBox="0 0 161 140" fill="none" xmlns="http://www.w3.org/2000/svg">
<path d="M159.075 55.2126C152.057 36.9692 114.598 46.1105 100.832 21.4383C97.5914 15.6316 95.6316 7.89269 87.5849 3.46439C86.5961 2.91979 77.6669 -1.82123 69.5956 2.05086C63.6796 4.8893 61.313 10.8747 58.4975 18.0015C55.4496 25.7111 56.2824 28.2731 54.6742 32.733C50.0754 45.4834 35.7239 45.4514 22.3974 55.6981C10.9372 64.519 -0.461601 81.4853 1.07854 98.9633C3.07472 121.572 26.5166 142.741 42.1581 139.347C60.3535 135.401 54.2933 101.175 78.2274 89.3817C101.701 77.8118 124.159 102.547 144.817 88.7004C155.518 81.5354 163.128 65.756 159.075 55.2126Z" fill="#FF6600" style="mix-blend-mode:multiply"/>
</svg>
