<?xml version="1.0" encoding="UTF-8"?>
<svg id="Layer_1" data-name="Layer 1" xmlns="http://www.w3.org/2000/svg" width="385.52mm" height="377.13mm" viewBox="0 0 1092.82 1069.04">
  <path d="M938.85,1069.02c97.49-1.85,131.16-146.94,142.23-194.71,8.59-36.85,28.14-127.58-16.39-241.85-58.9-151.42-157.07-155.76-231.29-317.15-58.82-127.93-26.28-188.42-100.28-254.81-49.23-44.19-126.47-73.85-171.44-54.45-79.05,34.16-31.31,208.33-23.8,235.41,34.08,124.2,113.14,121.5,76.79,218.33-21.53,51.09-119.36,64.82-194.84,30.64-84.19-38.13-84.29-110.24-178.48-167.41-78.12-47.4-189.72-65.53-226.43-23.82-51.07,58.03,34.91,240.99,166.53,345.83,136.25,108.51,213.04,47.2,401.32,153.57,208.39,117.77,254.96,272.29,356.08,270.39Z" fill="#f7cd46"/>
</svg>