<?xml version="1.0" encoding="utf-8"?>
<!-- Generator: Adobe Illustrator 30.1.0, SVG Export Plug-In . SVG Version: 9.03 Build 0)  -->
<svg version="1.1" id="Layer_1" xmlns="http://www.w3.org/2000/svg" xmlns:xlink="http://www.w3.org/1999/xlink" x="0px" y="0px"
	 viewBox="0 0 743 643" enable-background="new 0 0 743 643" xml:space="preserve">
<linearGradient id="SVGID_1_" gradientUnits="userSpaceOnUse" x1="455.5875" y1="57.5542" x2="639.1676" y2="929.9532" gradientTransform="matrix(1 0 0 -1 0 641.0394)">
	<stop  offset="0" style="stop-color:#222222;stop-opacity:0.5"/>
	<stop  offset="1" style="stop-color:#584911;stop-opacity:0"/>
</linearGradient>
<path fill="none" stroke="url(#SVGID_1_)" stroke-width="0.5" stroke-miterlimit="10" d="M939.1,642.02
	c97.49-1.85,131.16-146.94,142.23-194.71c8.59-36.85,28.14-127.58-16.39-241.85C1006.04,54.04,907.87,49.7,833.65-111.69
	c-58.82-127.93-26.28-188.42-100.28-254.81c-49.23-44.19-126.47-73.85-171.44-54.45c-79.05,34.16-31.31,208.33-23.8,235.41
	c34.08,124.2,113.14,121.5,76.79,218.33C593.4,83.89,495.57,97.62,420.08,63.45C335.89,25.32,335.79-46.79,241.6-103.96
	c-78.12-47.4-189.72-65.53-226.43-23.82c-51.07,58.03,34.91,240.99,166.53,345.83c136.25,108.51,213.04,47.2,401.32,153.57
	C791.41,489.4,837.98,643.92,939.1,642.02z"/>
</svg>
