<svg width="1485" height="962" viewBox="0 0 1485 962" fill="none" xmlns="http://www.w3.org/2000/svg">
<path d="M1442.46 786.169C1532.02 710.946 1454.03 550.189 1428.34 497.273C1408.58 456.419 1358.4 357.03 1230.7 283.99C1061.58 187.129 966.709 257.099 775.789 162.487C624.453 87.4795 609.206 6.50648 490.114 0.367576C410.86 -3.73941 316.445 26.8255 289.114 78.8333C241.116 170.312 416.987 296.808 444.403 316.413C569.848 406.595 641.571 344.462 680.667 462.212C699.105 526.109 618.185 612.68 521.991 637.711C414.7 665.618 360.236 598.414 229.257 616.096C120.64 630.773 2.84662 697.998 0.0513408 764.597C-3.84489 857.242 214.322 963.117 416.169 961.69C625.102 960.199 650.513 845.094 906.373 802.381C1189.59 755.129 1349.54 864.181 1442.46 786.169Z" fill="#FF6600" style="mix-blend-mode:plus-lighter"/>
</svg>
