<?xml version="1.0" encoding="UTF-8"?>
<svg id="Layer_1" data-name="Layer 1" xmlns="http://www.w3.org/2000/svg" width="326.83mm" height="422.36mm" viewBox="0 0 926.44 1197.24">
  <path d="M921.43,79.37C890.19-13,741.71-1.22,692.83,2.67c-37.72,2.95-130.11,11.75-225.58,88.75-126.53,101.93-100.98,196.82-232.37,316.36-104.16,94.75-171.66,82.02-212.56,172.63-27.24,60.29-32.15,142.88-.06,179.88,56.47,65.02,208.05-33.15,231.59-48.49,108.09-70.04,81.6-144.58,184.9-139.21,55.21,5.07,97.87,94.17,88.12,176.46-10.89,91.78-79.59,113.67-105.61,220.74-21.56,88.8-5.1,200.66,45.76,223.03,70.75,31.14,219.16-106.13,279.3-263.3,62.24-162.68-19.43-217.34,25.04-428.96,49.24-234.25,182.45-325.35,150.07-421.17Z" fill="#f7cd46"/>
</svg>