<svg width="25" height="25" viewBox="0 0 25 25" fill="none" xmlns="http://www.w3.org/2000/svg">
<path d="M11.465 2.21143H9.46591C4.46811 2.21143 2.46899 4.21143 2.46899 9.21143V15.2114C2.46899 20.2114 4.46811 22.2114 9.46591 22.2114H15.4633C20.4611 22.2114 22.4602 20.2114 22.4602 15.2114V13.2114" stroke="#3A3A39" stroke-width="1.5" stroke-linecap="round" stroke-linejoin="round"/>
<path d="M22.3703 3.7714C21.1409 6.8414 18.0522 11.0214 15.4733 13.0914L13.894 14.3514C13.6941 14.5014 13.4942 14.6214 13.2643 14.7114C13.2643 14.5614 13.2543 14.4114 13.2343 14.2514C13.1444 13.5814 12.8445 12.9514 12.3047 12.4214C11.755 11.8714 11.0953 11.5614 10.4156 11.4714C10.2557 11.4614 10.0957 11.4514 9.93579 11.4614C10.0258 11.2114 10.1557 10.9814 10.3256 10.7914L11.5851 9.2114C13.6542 6.6314 17.8423 3.5214 20.901 2.2914C21.3707 2.1114 21.8305 2.2514 22.1204 2.5414C22.4203 2.8414 22.5602 3.3014 22.3703 3.7714Z" stroke="#3A3A39" stroke-width="1.5" stroke-linecap="round" stroke-linejoin="round"/>
<path d="M13.2744 14.7014C13.2744 15.5814 12.9346 16.4214 12.3049 17.0614C11.8151 17.5514 11.1554 17.8914 10.3657 17.9914L8.39658 18.2014C7.32705 18.3214 6.40746 17.4114 6.5274 16.3214L6.73731 14.3514C6.92723 12.6014 8.38658 11.4814 9.9459 11.4514C10.1058 11.4414 10.2658 11.4514 10.4257 11.4614C11.1054 11.5514 11.7651 11.8614 12.3149 12.4114C12.8546 12.9514 13.1545 13.5714 13.2444 14.2414C13.2644 14.4014 13.2744 14.5614 13.2744 14.7014Z" stroke="#3A3A39" stroke-width="1.5" stroke-linecap="round" stroke-linejoin="round"/>
<path d="M16.313 12.1914C16.313 10.1014 14.6237 8.40137 12.5247 8.40137" stroke="#3A3A39" stroke-width="1.5" stroke-linecap="round" stroke-linejoin="round"/>
</svg>
