<svg width="25" height="25" viewBox="0 0 25 25" fill="none" xmlns="http://www.w3.org/2000/svg">
<path d="M10.4606 4.61328V18.1133C10.4606 19.1933 10.0223 20.1833 9.32506 20.9033L9.28524 20.9433C9.19559 21.0333 9.09599 21.1233 9.00635 21.1933C8.70753 21.4533 8.36886 21.6533 8.02024 21.7933C7.91067 21.8433 7.80112 21.8833 7.69156 21.9233C7.3031 22.0533 6.88476 22.1133 6.47638 22.1133C6.20744 22.1133 5.93852 22.0833 5.67955 22.0333C5.55007 22.0033 5.42056 21.9733 5.29108 21.9333C5.13171 21.8833 4.98231 21.8333 4.83291 21.7633C4.83291 21.7533 4.8329 21.7533 4.82293 21.7633C4.54404 21.6233 4.27512 21.4633 4.02611 21.2733L4.01614 21.2633C3.88665 21.1633 3.76714 21.0633 3.65758 20.9433C3.54801 20.8233 3.43843 20.7033 3.32886 20.5733C3.13961 20.3233 2.98026 20.0533 2.84081 19.7733C2.85077 19.7633 2.85077 19.7633 2.84081 19.7633C2.84081 19.7633 2.8408 19.7533 2.83084 19.7433C2.77108 19.6033 2.72127 19.4533 2.67147 19.3033C2.63163 19.1733 2.60174 19.0433 2.57186 18.9133C2.52206 18.6533 2.49219 18.3833 2.49219 18.1133V4.61328C2.49219 3.11328 3.48823 2.11328 4.98231 2.11328H7.97045C9.46452 2.11328 10.4606 3.11328 10.4606 4.61328Z" stroke="#3A3A39" stroke-width="1.5" stroke-linecap="round" stroke-linejoin="round"/>
<path d="M22.4131 16.6133V19.6133C22.4131 21.1133 21.417 22.1133 19.923 22.1133H6.47632C6.8847 22.1133 7.30304 22.0533 7.6915 21.9233C7.80106 21.8833 7.91061 21.8433 8.02018 21.7933C8.3688 21.6533 8.70747 21.4533 9.00629 21.1933C9.09593 21.1233 9.19554 21.0333 9.28518 20.9433L9.325 20.9033L16.0981 14.1133H19.923C21.417 14.1133 22.4131 15.1133 22.4131 16.6133Z" stroke="#3A3A39" stroke-width="1.5" stroke-linecap="round" stroke-linejoin="round"/>
<path d="M5.29124 21.9332C4.69361 21.7532 4.12588 21.4232 3.65774 20.9432C3.17964 20.4732 2.85092 19.9032 2.67163 19.3032C3.06009 20.5532 4.04618 21.5432 5.29124 21.9332Z" stroke="#3A3A39" stroke-width="1.5" stroke-linecap="round" stroke-linejoin="round"/>
<path d="M18.7974 11.4032L16.0981 14.1132L9.32495 20.9032C10.0222 20.1832 10.4605 19.1932 10.4605 18.1132V8.45323L13.1597 5.74324C14.2156 4.68324 15.6299 4.68324 16.6858 5.74324L18.7974 7.86324C19.8532 8.92324 19.8532 10.3432 18.7974 11.4032Z" stroke="#3A3A39" stroke-width="1.5" stroke-linecap="round" stroke-linejoin="round"/>
<path d="M6.47627 19.1133C7.02637 19.1133 7.47232 18.6656 7.47232 18.1133C7.47232 17.561 7.02637 17.1133 6.47627 17.1133C5.92617 17.1133 5.48022 17.561 5.48022 18.1133C5.48022 18.6656 5.92617 19.1133 6.47627 19.1133Z" stroke="#3A3A39" stroke-width="1.5" stroke-linecap="round" stroke-linejoin="round"/>
</svg>
