<?xml version="1.0" encoding="UTF-8"?>
<svg id="Layer_1" data-name="Layer 1" xmlns="http://www.w3.org/2000/svg" width="11.29mm" height="11.29mm" viewBox="0 0 32 32">
  <path d="M13.3,17.8c.7-.3,1.1-.7,1.5-1.1.6-.7.9-1.7.9-2.9s-.3-2.1-.9-3c-1-1.3-2.7-2-5-2.1H.4v19.4h8.7c1,0,1.9,0,2.7-.3.8-.2,1.6-.5,2.2-1,.6-.4,1-.9,1.4-1.5.6-.9.9-2,.9-3.1s-.3-2.1-.8-2.8c-.5-.8-1.3-1.4-2.2-1.7h0v.1ZM4.3,12.2h4.2c.9,0,1.7.1,2.3.3.7.3,1,.9,1,1.8s-.3,1.4-.8,1.7c-.5.3-1.2.5-2.1.5h-4.7v-4.3h.1ZM10.9,24.6c-.5.2-1.1.3-2,.3h-4.7v-5.2h4.8c.8,0,1.5.1,1.9.3.8.4,1.2,1.1,1.2,2.1s-.4,2-1.3,2.4h.1v.1Z" fill="#f60"/>
  <path d="M31.5,19.3c-.2-1.1-.6-2.1-1.1-3-.6-1-1.5-1.7-2.5-2.1-1-.4-2.1-.7-3.4-.7-2.1,0-3.8.7-5.1,2-1.3,1.3-2,3.2-2,5.7s.7,4.6,2.2,5.8,3.1,1.8,5.1,1.8,4.1-.7,5.4-2.1c.8-.9,1.3-1.7,1.4-2.6h-3.8c-.2.4-.5.8-.8,1-.5.4-1.2.7-2.1.7s-1.5-.2-2.1-.5c-.9-.6-1.4-1.6-1.5-3h10.4c0-1.2,0-2.2-.1-2.9h0v-.1ZM21.3,19.7c.1-.9.5-1.7,1-2.2s1.3-.8,2.2-.8,1.6.3,2.2.8.9,1.3,1,2.3h-6.5l.1-.1Z" fill="#f60"/>
  <rect x="20" y="9.9" width="8.4" height="2" fill="#f60"/>
</svg>