<?xml version="1.0" encoding="UTF-8"?>
<svg id="Layer_1" data-name="Layer 1" xmlns="http://www.w3.org/2000/svg" width="11.29mm" height="11.29mm" viewBox="0 0 32 32">
  <path d="M16,1C7.7,1,1,7.7,1,16s6.7,15,15,15,15-6.7,15-15S24.3,1,16,1ZM25.9,8.1c1.8,2.2,2.8,4.9,2.8,7.7-.6-.1-3-.6-5.9-.6-1,0-1.9,0-2.9.2,0-.2-.2-.4-.3-.6-.3-.6-.5-1.2-.8-1.8,4.4-1.8,6.6-4.4,7-4.9h.1ZM16,3.3c3.1,0,6,1.1,8.3,3.1-.4.5-2.3,2.9-6.5,4.5-2-3.6-4.1-6.6-4.7-7.3.9-.2,1.9-.3,2.9-.3ZM10.6,4.6c.4.6,2.6,3.6,4.6,7.2-5.4,1.4-10.3,1.5-11.5,1.5h-.1c.8-3.9,3.5-7.1,6.9-8.8l.1.1ZM3.3,16v-.3h.3c1.6,0,7-.1,12.7-1.8.3.7.7,1.3,1,2-.1,0-.3,0-.4.1-6.3,2-9.8,7.5-10.4,8.4-2-2.2-3.2-5.2-3.2-8.4h0ZM16,28.7c-2.8,0-5.5-.9-7.7-2.6.4-.7,3-5.4,9.9-7.9h0c1.7,4.5,2.5,8.3,2.7,9.5-1.5.7-3.2,1-4.9,1ZM23.2,26.5c-.2-1-.9-4.5-2.4-8.9.8-.1,1.7-.2,2.6-.2,2.6,0,4.7.6,5.2.7-.6,3.5-2.5,6.4-5.3,8.4h-.1Z" fill="#f60"/>
</svg>