<?xml version="1.0" encoding="UTF-8"?>
<svg id="Layer_1" data-name="Layer 1" xmlns="http://www.w3.org/2000/svg" width="11.29mm" height="11.29mm" viewBox="0 0 32 32">
  <path d="M16,1C7.7,1,1,7.7,1,16s6.7,15,15,15,15-6.7,15-15S24.3,1,16,1ZM30.4,16v1.5l-2.5-.3v-2.3l2.5-.3v1.4ZM1.6,16v-1.5l2.5.3v2.2l-2.5.3v-1.4.1ZM27.2,12.1l2.4-.9c.3.9.5,1.8.7,2.8l-2.5.3c-.1-.7-.3-1.5-.5-2.2h-.1ZM27.3,16c0,.7,0,1.5-.2,2.2l-2.5-.6c.2-1.1.2-2.2,0-3.3l2.5-.6c.1.7.2,1.5.2,2.2v.1ZM16,24.1c-4.5,0-8.1-3.6-8.1-8.1s3.6-8.1,8.1-8.1,8.1,3.6,8.1,8.1-3.6,8.1-8.1,8.1ZM16.3,27.2v-2.6c1.1,0,2.2-.3,3.2-.7l1.1,2.3c-1.4.6-2.8,1-4.3,1h0ZM11.3,26.2l1.1-2.3c1,.5,2.1.7,3.2.7v2.6c-1.5,0-3-.4-4.4-1h.1ZM4.7,16c0-.8,0-1.5.2-2.3l2.5.6c-.2,1.1-.2,2.2,0,3.3l-2.5.6c-.1-.7-.2-1.4-.2-2.2ZM15.7,4.8v2.6c-1.1,0-2.2.3-3.2.7l-1.1-2.3c1.4-.6,2.8-.9,4.3-1ZM20.6,5.7l-1.1,2.3c-1-.4-2.1-.7-3.2-.7v-2.6c1.5,0,3,.4,4.3,1ZM27,11.6c-.3-.7-.6-1.4-1-2l2.1-1.5c.5.8,1,1.7,1.3,2.6l-2.4.9ZM26.9,13.2l-2.5.6c-.3-1.1-.8-2.1-1.4-2.9l2-1.6c.9,1.2,1.6,2.5,1.9,4h0v-.1ZM22.6,10.4c-.7-.8-1.6-1.5-2.6-2l1.1-2.3c1.3.7,2.5,1.6,3.4,2.8l-2,1.6.1-.1ZM21.8,5.7l1.2-2.3c.8.5,1.6,1,2.4,1.7l-1.7,1.9c-.6-.5-1.2-.9-1.9-1.3ZM21.3,5.4c-.7-.3-1.4-.6-2.1-.8l.6-2.5c.9.3,1.8.6,2.7,1,0,0-1.2,2.3-1.2,2.3ZM18.6,4.5c-.8-.2-1.5-.3-2.3-.3V1.6c1,0,2,.1,2.9.4l-.6,2.5ZM15.7,4.1c-.8,0-1.5.1-2.3.3l-.6-2.5c.9-.2,1.9-.3,2.9-.3,0,0,0,2.5,0,2.5ZM12.9,4.6c-.7.2-1.4.5-2.1.8l-1.2-2.3c.9-.4,1.8-.8,2.7-1,0,0,.6,2.5.6,2.5ZM10.3,5.6c-.7.4-1.3.8-1.9,1.3l-1.7-1.9c.7-.6,1.5-1.2,2.4-1.6l1.2,2.3v-.1ZM10.9,6l1.1,2.3c-1,.5-1.8,1.2-2.6,2l-2-1.6c1-1.1,2.1-2.1,3.5-2.7h0ZM7.1,9.2l2,1.6c-.7.9-1.2,1.9-1.4,2.9l-2.5-.6c.4-1.4,1-2.8,1.9-4v.1ZM5,11.5l-2.4-.9c.4-.9.8-1.8,1.4-2.6l2.1,1.5c-.4.6-.8,1.3-1.1,2ZM4.8,12c-.3.7-.4,1.5-.5,2.2l-2.5-.3c.1-1,.4-1.9.7-2.8l2.4.9h-.1ZM4.3,17.7c.1.8.3,1.5.5,2.2l-2.4.9c-.3-.9-.6-1.9-.7-2.8l2.5-.3h.1ZM5,20.5c.3.7.6,1.4,1.1,2l-2.1,1.5c-.5-.8-1-1.7-1.4-2.6l2.4-.9ZM5.1,18.7l2.5-.6c.3,1.1.8,2.1,1.4,3l-2,1.6c-.9-1.2-1.6-2.6-1.9-4h0ZM9.4,21.6c.7.8,1.6,1.6,2.6,2.1l-1.1,2.3c-1.3-.7-2.5-1.6-3.5-2.8l2-1.6ZM10.3,26.4l-1.2,2.3c-.8-.5-1.6-1-2.4-1.6l1.7-1.9c.6.5,1.2.9,1.9,1.3h0v-.1ZM10.8,26.6c.7.3,1.4.6,2.1.8l-.6,2.5c-.9-.2-1.8-.6-2.7-1,0,0,1.2-2.3,1.2-2.3ZM13.5,27.6c.7.2,1.5.3,2.3.3v2.6c-1,0-1.9-.1-2.9-.3l.6-2.5v-.1ZM16.3,27.8c.8,0,1.5-.1,2.2-.3l.6,2.5c-.9.2-1.9.3-2.9.3v-2.6l.1.1ZM19.1,27.4c.7-.2,1.4-.5,2.1-.8l1.2,2.3c-.9.4-1.8.8-2.7,1l-.6-2.5ZM21.8,26.3c.7-.4,1.3-.8,1.9-1.3l1.7,1.9c-.7.6-1.5,1.2-2.4,1.6l-1.2-2.3v.1ZM21.1,26l-1.1-2.3c1-.5,1.9-1.2,2.6-2.1l2,1.6c-1,1.1-2.1,2.1-3.5,2.8h0ZM25,22.8l-2-1.6c.7-.9,1.1-1.9,1.4-3l2.5.6c-.4,1.4-1,2.8-1.9,4ZM27,20.5l2.4.9c-.4.9-.8,1.7-1.4,2.5l-2.1-1.5c.4-.6.8-1.3,1.1-2v.1ZM27.2,20c.3-.7.4-1.4.5-2.2l2.5.3c-.1,1-.4,1.9-.7,2.8l-2.4-.9h.1ZM27.7,7.7l-2.1,1.5c-.4-.6-.9-1.2-1.5-1.7l1.7-1.9c.7.6,1.3,1.4,1.9,2.1h0ZM6.3,5.4l1.7,1.9c-.6.5-1.1,1.1-1.5,1.7l-2.1-1.5c.6-.8,1.2-1.5,1.9-2.2v.1ZM4.3,24.4l2.1-1.5c.4.6.9,1.2,1.5,1.7l-1.7,1.9c-.7-.7-1.3-1.4-1.9-2.2v.1ZM25.8,26.6l-1.7-1.9c.6-.5,1.1-1.1,1.5-1.7l2.1,1.5c-.6.8-1.2,1.5-1.9,2.2h0v-.1Z" fill="#f60"/>
</svg>