<svg width="127" height="39" viewBox="0 0 127 39" fill="none" xmlns="http://www.w3.org/2000/svg">
<path d="M40.5225 35.0754L38.2529 29.9615H38.9737L41.0583 34.7053H40.7173L42.8311 29.9615H43.513L41.2336 35.0754H40.5225ZM52.9454 35.1241C52.4129 35.1241 51.9454 35.0137 51.5428 34.793C51.1401 34.5657 50.8252 34.2572 50.5979 33.8676C50.3706 33.4714 50.257 33.0201 50.257 32.5136C50.257 32.0071 50.3641 31.559 50.5784 31.1694C50.7992 30.7797 51.0979 30.4745 51.4746 30.2537C51.8577 30.0264 52.2863 29.9128 52.7604 29.9128C53.2409 29.9128 53.6663 30.0232 54.0364 30.244C54.4131 30.4583 54.7085 30.7635 54.9228 31.1596C55.1371 31.5493 55.2443 32.0006 55.2443 32.5136C55.2443 32.5461 55.241 32.5818 55.2345 32.6207C55.2345 32.6532 55.2345 32.6889 55.2345 32.7279H50.783V32.2116H54.8644L54.5916 32.4162C54.5916 32.046 54.5105 31.7181 54.3481 31.4324C54.1923 31.1401 53.978 30.9129 53.7052 30.7505C53.4325 30.5882 53.1175 30.507 52.7604 30.507C52.4097 30.507 52.0947 30.5882 51.8155 30.7505C51.5363 30.9129 51.3187 31.1401 51.1629 31.4324C51.007 31.7246 50.9291 32.059 50.9291 32.4357V32.5428C50.9291 32.9325 51.0135 33.2766 51.1823 33.5753C51.3577 33.8676 51.598 34.0981 51.9032 34.2669C52.2149 34.4293 52.5688 34.5105 52.9649 34.5105C53.2766 34.5105 53.5656 34.4553 53.8319 34.3449C54.1046 34.2345 54.3384 34.0656 54.5332 33.8384L54.9228 34.2864C54.6955 34.5592 54.4098 34.767 54.0656 34.9098C53.728 35.0527 53.3546 35.1241 52.9454 35.1241ZM65.6915 29.9128C66.1071 29.9128 66.4708 29.994 66.7825 30.1563C67.1007 30.3122 67.3474 30.5524 67.5228 30.8771C67.7046 31.2018 67.7955 31.6109 67.7955 32.1045V35.0754H67.1039V32.1727C67.1039 31.6337 66.9675 31.2278 66.6948 30.9551C66.4285 30.6758 66.0519 30.5362 65.5649 30.5362C65.2012 30.5362 64.883 30.6109 64.6103 30.7602C64.344 30.9031 64.1362 31.1142 63.9868 31.3934C63.844 31.6661 63.7725 31.9973 63.7725 32.387V35.0754H63.0809V29.9615H63.7433V31.3642L63.6362 31.1012C63.7985 30.731 64.0583 30.442 64.4154 30.2342C64.7726 30.0199 65.1979 29.9128 65.6915 29.9128ZM77.7096 35.1241C77.229 35.1241 76.8589 34.9943 76.5991 34.7345C76.3393 34.4748 76.2095 34.1078 76.2095 33.6338V28.8316H76.9011V33.5948C76.9011 33.8936 76.9757 34.1241 77.1251 34.2864C77.281 34.4488 77.5017 34.53 77.7875 34.53C78.0927 34.53 78.346 34.4423 78.5473 34.2669L78.7908 34.7637C78.6544 34.8871 78.4888 34.978 78.294 35.0365C78.1057 35.0949 77.9109 35.1241 77.7096 35.1241ZM75.2938 30.5362V29.9615H78.4596V30.5362H75.2938ZM88.5925 35.1241C88.1574 35.1241 87.7775 35.043 87.4528 34.8806C87.1281 34.7183 86.8749 34.4748 86.693 34.1501C86.5177 33.8254 86.43 33.4195 86.43 32.9325V29.9615H87.1216V32.8545C87.1216 33.4 87.2548 33.8124 87.521 34.0916C87.7938 34.3644 88.1737 34.5007 88.6607 34.5007C89.0179 34.5007 89.3263 34.4293 89.5861 34.2864C89.8523 34.1371 90.0536 33.9228 90.19 33.6435C90.3329 33.3643 90.4043 33.0299 90.4043 32.6402V29.9615H91.0959V35.0754H90.4335V33.6728L90.5407 33.926C90.3783 34.3027 90.1251 34.5981 89.7809 34.8124C89.4432 35.0202 89.0471 35.1241 88.5925 35.1241ZM99.4523 35.0754V29.9615H100.115V31.3544L100.047 31.1109C100.189 30.7213 100.43 30.4258 100.767 30.2245C101.105 30.0167 101.524 29.9128 102.024 29.9128V30.5849C101.998 30.5849 101.972 30.5849 101.946 30.5849C101.92 30.5784 101.894 30.5752 101.868 30.5752C101.329 30.5752 100.907 30.7408 100.602 31.072C100.297 31.3966 100.144 31.861 100.144 32.4649V35.0754H99.4523ZM111.839 35.1241C111.307 35.1241 110.839 35.0137 110.437 34.793C110.034 34.5657 109.719 34.2572 109.492 33.8676C109.265 33.4714 109.151 33.0201 109.151 32.5136C109.151 32.0071 109.258 31.559 109.472 31.1694C109.693 30.7797 109.992 30.4745 110.369 30.2537C110.752 30.0264 111.18 29.9128 111.654 29.9128C112.135 29.9128 112.56 30.0232 112.93 30.244C113.307 30.4583 113.603 30.7635 113.817 31.1596C114.031 31.5493 114.138 32.0006 114.138 32.5136C114.138 32.5461 114.135 32.5818 114.129 32.6207C114.129 32.6532 114.129 32.6889 114.129 32.7279H109.677V32.2116H113.758L113.486 32.4162C113.486 32.046 113.405 31.7181 113.242 31.4324C113.086 31.1401 112.872 30.9129 112.599 30.7505C112.327 30.5882 112.012 30.507 111.654 30.507C111.304 30.507 110.989 30.5882 110.71 30.7505C110.43 30.9129 110.213 31.1401 110.057 31.4324C109.901 31.7246 109.823 32.059 109.823 32.4357V32.5428C109.823 32.9325 109.908 33.2766 110.076 33.5753C110.252 33.8676 110.492 34.0981 110.797 34.2669C111.109 34.4293 111.463 34.5105 111.859 34.5105C112.171 34.5105 112.46 34.4553 112.726 34.3449C112.999 34.2345 113.232 34.0656 113.427 33.8384L113.817 34.2864C113.59 34.5592 113.304 34.767 112.96 34.9098C112.622 35.0527 112.249 35.1241 111.839 35.1241ZM123.348 35.1241C122.926 35.1241 122.527 35.0657 122.15 34.9488C121.774 34.8254 121.478 34.6728 121.264 34.491L121.576 33.9455C121.783 34.1014 122.05 34.2377 122.374 34.3546C122.699 34.465 123.04 34.5202 123.397 34.5202C123.884 34.5202 124.235 34.4455 124.449 34.2962C124.663 34.1403 124.771 33.9358 124.771 33.6825C124.771 33.4942 124.709 33.3481 124.586 33.2442C124.469 33.1338 124.313 33.0526 124.118 33.0006C123.923 32.9422 123.706 32.8935 123.465 32.8545C123.225 32.8156 122.985 32.7701 122.745 32.7182C122.511 32.6662 122.296 32.5915 122.102 32.4941C121.907 32.3902 121.748 32.2506 121.624 32.0753C121.507 31.8999 121.449 31.6661 121.449 31.3739C121.449 31.0947 121.527 30.8447 121.683 30.6239C121.839 30.4031 122.066 30.231 122.365 30.1076C122.67 29.9777 123.04 29.9128 123.475 29.9128C123.806 29.9128 124.137 29.9583 124.469 30.0492C124.8 30.1336 125.073 30.2472 125.287 30.3901L124.985 30.9453C124.758 30.7895 124.514 30.6791 124.254 30.6141C123.995 30.5427 123.735 30.507 123.475 30.507C123.014 30.507 122.673 30.5882 122.452 30.7505C122.238 30.9064 122.131 31.1077 122.131 31.3544C122.131 31.5493 122.189 31.7019 122.306 31.8123C122.43 31.9227 122.589 32.0103 122.783 32.0753C122.985 32.1337 123.202 32.1824 123.436 32.2214C123.676 32.2603 123.913 32.309 124.147 32.3675C124.387 32.4194 124.605 32.4941 124.8 32.5915C125.001 32.6824 125.16 32.8156 125.277 32.9909C125.401 33.1597 125.462 33.3838 125.462 33.663C125.462 33.9617 125.378 34.2215 125.209 34.4423C125.047 34.6566 124.806 34.8254 124.488 34.9488C124.176 35.0657 123.797 35.1241 123.348 35.1241Z" fill="#3A3A39"/>
<path d="M8.38677 19.4735C8.57076 19.567 8.73815 19.6901 8.8823 19.8378L12.464 23.4195C12.5655 23.5214 12.6862 23.6023 12.8191 23.6574C12.9519 23.7126 13.0944 23.741 13.2383 23.741C13.3821 23.741 13.5246 23.7126 13.6574 23.6574C13.7903 23.6023 13.911 23.5214 14.0125 23.4195L24.8122 12.6161C24.9141 12.5146 24.995 12.3939 25.0502 12.2611C25.1054 12.1282 25.1338 11.9857 25.1338 11.8419C25.1338 11.698 25.1054 11.5556 25.0502 11.4227C24.995 11.2898 24.9141 11.1692 24.8122 11.0676C22.727 9.05782 20.0775 7.73315 17.2186 7.27098C14.3596 6.80882 11.4277 7.23124 8.81545 8.48167C6.20322 9.7321 4.03542 11.7508 2.60237 14.2675C1.16932 16.7842 0.539428 19.6786 0.797081 22.5632C0.819981 22.7677 0.900108 22.9615 1.02823 23.1224C1.15636 23.2833 1.32729 23.4048 1.52138 23.473C1.71547 23.5411 1.92484 23.5531 2.12544 23.5075C2.32603 23.462 2.50971 23.3607 2.65535 23.2155L6.04027 19.8305C6.34325 19.5303 6.7337 19.334 7.15538 19.2698C7.57705 19.2057 8.0082 19.277 8.38677 19.4735Z" fill="#3A3A39"/>
<path d="M14.654 28.4476C14.3292 28.7709 13.9041 28.9741 13.4485 29.0238C12.9929 29.0735 12.534 28.9666 12.1471 28.7208C12.0323 28.6466 11.9271 28.5585 11.8338 28.4585L8.23389 24.8622C8.02894 24.6575 7.75112 24.5425 7.46145 24.5425C7.17178 24.5425 6.89395 24.6575 6.689 24.8622L3.47531 28.0759C3.29171 28.2578 3.17851 28.499 3.15583 28.7564C3.13315 29.0139 3.20245 29.2711 3.35142 29.4823C5.31945 32.2372 8.20641 34.199 11.4924 35.0142C14.7785 35.8295 18.2476 35.4447 21.2751 33.9292C24.3026 32.4137 26.6895 29.867 28.006 26.7478C29.3225 23.6286 29.4821 20.1419 28.456 16.9155C28.4005 16.7348 28.2992 16.5716 28.1618 16.4418C28.0244 16.3119 27.8557 16.22 27.6722 16.1748C27.4886 16.1297 27.2966 16.1329 27.1147 16.1842C26.9327 16.2354 26.7672 16.333 26.6342 16.4673L14.654 28.4476Z" fill="#3A3A39"/>
<path d="M45.1142 11.3095C46.1565 11.3095 47.0847 11.5131 47.899 11.9202C48.7296 12.3273 49.381 12.9543 49.8533 13.8012C50.3256 14.6318 50.5617 15.7066 50.5617 17.0257V24.5009H47.5082V17.4166C47.5082 16.2603 47.2313 15.3972 46.6776 14.8272C46.1402 14.2572 45.3829 13.9722 44.4058 13.9722C43.6892 13.9722 43.054 14.1188 42.5003 14.4119C41.9466 14.705 41.5151 15.1448 41.2056 15.731C40.9125 16.301 40.7659 17.0257 40.7659 17.9052V24.5009H37.7124V11.4561H40.6193V14.9738L40.1063 13.8989C40.5623 13.0683 41.2219 12.4332 42.0851 11.9935C42.9645 11.5375 43.9742 11.3095 45.1142 11.3095ZM60.5907 24.6719C59.1413 24.6719 57.871 24.3869 56.7799 23.8169C55.7051 23.2306 54.8663 22.4326 54.2638 21.4229C53.6775 20.4132 53.3844 19.265 53.3844 17.9785C53.3844 16.6756 53.6694 15.5275 54.2394 14.534C54.8256 13.5243 55.6236 12.7345 56.6333 12.1645C57.6593 11.5945 58.8238 11.3095 60.1266 11.3095C61.3969 11.3095 62.5287 11.5863 63.5222 12.1401C64.5156 12.6938 65.2973 13.4755 65.8673 14.4852C66.4373 15.4949 66.7223 16.6838 66.7223 18.0517C66.7223 18.182 66.7141 18.3286 66.6979 18.4915C66.6979 18.6543 66.6897 18.809 66.6734 18.9556H55.8028V16.928H65.0612L63.8642 17.5632C63.8804 16.814 63.7257 16.1545 63.4 15.5845C63.0743 15.0145 62.6265 14.5666 62.0565 14.2409C61.5027 13.9152 60.8595 13.7523 60.1266 13.7523C59.3775 13.7523 58.7179 13.9152 58.1479 14.2409C57.5942 14.5666 57.1545 15.0226 56.8288 15.6089C56.5193 16.1789 56.3646 16.8547 56.3646 17.6365V18.125C56.3646 18.9067 56.5438 19.5989 56.9021 20.2014C57.2603 20.804 57.7652 21.2682 58.4166 21.5939C59.068 21.9196 59.8172 22.0824 60.664 22.0824C61.3969 22.0824 62.0565 21.9684 62.6427 21.7404C63.229 21.5124 63.7502 21.1542 64.2062 20.6656L65.8429 22.5466C65.2566 23.2306 64.5156 23.7599 63.6199 24.1344C62.7405 24.4927 61.7307 24.6719 60.5907 24.6719ZM74.5655 24.6719C73.1324 24.6719 72.025 24.3054 71.2433 23.5726C70.4616 22.8234 70.0707 21.7242 70.0707 20.2747V8.57351H73.1243V20.2014C73.1243 20.8203 73.279 21.3007 73.5884 21.6427C73.9141 21.9847 74.362 22.1557 74.932 22.1557C75.616 22.1557 76.186 21.9766 76.642 21.6183L77.497 23.7924C77.1387 24.0856 76.699 24.3054 76.1778 24.452C75.6567 24.5986 75.1192 24.6719 74.5655 24.6719ZM67.921 13.9966V11.5538H76.6175V13.9966H67.921ZM82.6529 24.5009L77.8649 11.4561H80.7475L84.8514 22.9619H83.4834L87.7829 11.4561H90.3478L94.5251 22.9619H93.1815L97.4077 11.4561H100.119L95.3068 24.5009H92.3754L88.5646 14.3142H89.4684L85.5843 24.5009H82.6529ZM102.219 24.5009V11.4561H105.126V15.047L104.784 13.9966C105.175 13.1172 105.785 12.4495 106.616 11.9935C107.463 11.5375 108.513 11.3095 109.767 11.3095V14.2165C109.637 14.1839 109.515 14.1676 109.401 14.1676C109.287 14.1513 109.173 14.1432 109.059 14.1432C107.902 14.1432 106.982 14.4852 106.298 15.1692C105.614 15.8369 105.272 16.8385 105.272 18.1739V24.5009H102.219ZM114.849 21.5939L114.922 17.7586L121.738 11.4561H125.402L119.613 17.27L118 18.6136L114.849 21.5939ZM112.357 24.5009V6.37495H115.411V24.5009H112.357ZM122.202 24.5009L117.439 18.6136L119.368 16.1708L125.915 24.5009H122.202Z" fill="#3A3A39"/>
</svg>
