<svg width="112" height="21" viewBox="0 0 112 21" fill="none" xmlns="http://www.w3.org/2000/svg">
<path fill-rule="evenodd" clip-rule="evenodd" d="M36.7954 7.34298C36.7954 6.75977 36.6272 6.29298 36.2896 5.94356C35.9532 5.59319 35.38 5.41903 34.5706 5.41903H33.2191L33.2184 9.32484H34.5586C35.4294 9.32484 36.0274 9.1331 36.3537 8.74853C36.6477 8.4035 36.7954 7.93404 36.7954 7.34298ZM40.96 7.29734C40.96 8.71167 40.6319 9.88264 39.9753 10.8081C39.1235 12.0098 37.7081 12.6087 35.732 12.6096L33.2189 12.6087L33.2181 17.8126H29.2009V2.13379H35.5956C37.4139 2.13379 38.7939 2.67417 39.7379 3.75225C40.5526 4.67877 40.9608 5.85932 40.96 7.29734Z" fill="#3A3A39"/>
<path fill-rule="evenodd" clip-rule="evenodd" d="M50.1386 11.9774L48.4415 6.98125L46.7216 11.9784L50.1386 11.9774ZM56.6387 17.8126H52.2632L51.2475 15.0785H45.5892L44.5048 17.8126H40.176L46.2372 2.13379H50.7051L56.6387 17.8126Z" fill="#3A3A39"/>
<path fill-rule="evenodd" clip-rule="evenodd" d="M69.9654 2.13379L64.0744 10.2784V17.8126H59.9817V10.2784L54.2866 2.13379H59.1748L62.1484 6.40754L65.008 2.13379H69.9654Z" fill="#3A3A39"/>
<path fill-rule="evenodd" clip-rule="evenodd" d="M76.2376 12.6906C76.2376 13.3098 76.1998 13.8162 76.1295 14.2117C75.9785 15.0542 75.5448 15.8147 74.8293 16.4936C73.9031 17.3726 72.7752 17.8126 71.4424 17.8126C69.8643 17.8126 68.5881 17.0605 67.6143 15.5582L70.1144 12.9139C70.2291 13.9057 70.6439 14.4019 71.3587 14.4019C72.0883 14.4019 72.4449 13.8127 72.43 12.6335L72.4195 11.7935V2.13379H76.2369L76.2376 12.6906Z" fill="#3A3A39"/>
<path fill-rule="evenodd" clip-rule="evenodd" d="M92.4191 9.58669C92.4191 8.4981 92.0675 7.55589 91.3661 6.76222C90.4655 5.74937 89.3403 5.24225 87.9899 5.24225C87.0595 5.24225 86.2162 5.50099 85.461 6.01939C84.7055 6.53625 84.1677 7.22729 83.8484 8.08821C83.6649 8.5808 83.5719 9.07849 83.5719 9.58669C83.5719 10.6297 83.9242 11.5648 84.6256 12.3878C85.4958 13.4092 86.6174 13.9198 87.9899 13.9198C89.3629 13.9198 90.4881 13.4136 91.3661 12.3999C92.0675 11.5907 92.4191 10.6538 92.4191 9.58669ZM96.6195 9.58678C96.6195 11.6822 95.9146 13.5232 94.5075 15.1088C92.9012 16.911 90.7291 17.8126 87.9897 17.8126C85.2581 17.8126 83.0895 16.911 81.4849 15.1088C80.0769 13.5232 79.3728 11.6831 79.3728 9.58678C79.3728 8.62834 79.5635 7.64563 79.9428 6.63897C80.324 5.63215 80.833 4.77031 81.4727 4.05345C83.0791 2.25141 85.2503 1.34985 87.9897 1.34985C90.7291 1.34985 92.9012 2.25141 94.5075 4.05345C95.9137 5.63741 96.6195 7.48257 96.6195 9.58678Z" fill="#3A3A39"/>
<path fill-rule="evenodd" clip-rule="evenodd" d="M111.645 2.26453L105.755 10.4091V17.9433H101.662V10.4091L95.9666 2.26453H100.855L103.829 6.53733L106.688 2.26453H111.645Z" fill="#3A3A39"/>
<path fill-rule="evenodd" clip-rule="evenodd" d="M20.5775 0.572661C18.8578 0.550684 7.85617 0.482178 5.26718 2.32974C2.96461 3.97269 1.59766 6.42833 1.2807 9.01871C1.15123 9.54827 1.05916 10.0863 1.01488 10.632C1.00206 10.8103 0.989997 10.9889 0.985875 11.1674V11.4922L0.979004 16.2448C7.58165 5.69673 17.4414 1.63952 20.5775 0.572661Z" fill="#3A3A39"/>
<mask id="mask0_5328_2163" style="mask-type:luminance" maskUnits="userSpaceOnUse" x="1" y="0" width="21" height="21">
<path fill-rule="evenodd" clip-rule="evenodd" d="M1.89355 0.591309H21.3376V20.01H1.89355V0.591309Z" fill="white"/>
</mask>
<g mask="url(#mask0_5328_2163)">
<path fill-rule="evenodd" clip-rule="evenodd" d="M1.89355 20.0004H7.3551C7.3551 20.0004 14.0418 20.2493 16.927 18.208C19.2932 16.5344 20.6952 14.0349 21.0217 11.3975C21.1538 10.8592 21.2492 10.3114 21.2938 9.75414C21.3087 9.5742 21.32 9.39149 21.3254 9.20893V8.87899L21.3376 0.591309C9.20332 7.0926 4.02963 15.1487 1.89355 20.0004Z" fill="#3A3A39"/>
</g>
</svg>
