<svg width="114" height="22" viewBox="0 0 114 22" fill="none" xmlns="http://www.w3.org/2000/svg">
<g clip-path="url(#clip0_5328_1954)">
<path d="M0.586426 13.3718C0.586426 11.7826 0.886368 10.3855 1.48362 9.18573C2.09929 7.98333 2.93071 7.05982 3.97787 6.41258C5.02504 5.76534 6.19323 5.44171 7.48246 5.44171C8.51121 5.44171 9.44524 5.65483 10.2845 6.07843C11.1449 6.50467 11.8158 7.07561 12.3026 7.79652V0.616333H17.0964V21.136H12.3026V18.9181C11.8553 19.6574 11.2107 20.2494 10.3687 20.6914C9.54785 21.136 8.58488 21.3571 7.48246 21.3571C6.19323 21.3571 5.02504 21.0334 3.97787 20.3862C2.93071 19.7205 2.09929 18.7865 1.48362 17.5867C0.886368 16.3659 0.586426 14.9609 0.586426 13.3718ZM12.3026 13.4007C12.3026 12.2167 11.9658 11.2853 11.2922 10.6012C10.6371 9.91716 9.83463 9.57512 8.88219 9.57512C7.92974 9.57512 7.11674 9.91716 6.44319 10.6012C5.78805 11.2669 5.4618 12.1904 5.4618 13.3744C5.4618 14.5584 5.78805 15.5003 6.44319 16.2028C7.11674 16.8869 7.92974 17.2289 8.88219 17.2289C9.83463 17.2289 10.6397 16.8869 11.2922 16.2028C11.9658 15.5187 12.3026 14.5847 12.3026 13.4033V13.4007Z" fill="#3A3A39"/>
<path d="M26.2816 21.357C24.7503 21.357 23.3664 21.0334 22.1324 20.3861C20.9168 19.7389 19.9565 18.8154 19.2461 17.613C18.5541 16.4106 18.2095 15.0056 18.2095 13.398C18.2095 11.7904 18.5647 10.4117 19.2751 9.21197C19.9854 7.99116 20.9563 7.05713 22.1903 6.41251C23.4243 5.76527 24.8056 5.44165 26.3395 5.44165C27.8734 5.44165 29.2547 5.76527 30.4887 6.41251C31.7226 7.05976 32.6935 7.99379 33.4039 9.21197C34.1143 10.4144 34.4695 11.8088 34.4695 13.398C34.4695 14.9872 34.1064 16.3922 33.3776 17.613C32.6672 18.8154 31.6858 19.7389 30.4334 20.3861C29.1994 21.0334 27.8181 21.357 26.2842 21.357H26.2816ZM26.2816 17.2525C27.1972 17.2525 27.9734 16.921 28.6075 16.2553C29.2626 15.5897 29.5888 14.6372 29.5888 13.4006C29.5888 12.164 29.2705 11.209 28.6364 10.5459C28.0207 9.88026 27.2525 9.54875 26.3368 9.54875C25.4212 9.54875 24.6266 9.88026 24.011 10.5459C23.3953 11.1932 23.0848 12.1456 23.0848 13.4006C23.0848 14.6557 23.3848 15.5923 23.982 16.2553C24.5977 16.921 25.366 17.2525 26.2816 17.2525Z" fill="#3A3A39"/>
<path d="M45.7251 17.1131V21.1333H43.2861C41.5496 21.1333 40.1946 20.7176 39.2211 19.8862C38.2502 19.0364 37.7635 17.6577 37.7635 15.7554V9.59873H35.3903C35.3903 9.59873 34.9193 8.56473 34.2194 7.63859C33.5196 6.71508 31.8831 5.66003 31.8831 5.66003H37.7635V1.89233H42.5573V5.66266H45.6962V9.59873H42.5573V15.8107C42.5573 16.2738 42.6704 16.6053 42.8941 16.8079C43.1177 17.0105 43.4913 17.1131 44.0149 17.1131H45.7251Z" fill="#3A3A39"/>
<path d="M54.7759 17.1131V21.1333H52.3369C50.5978 21.1333 49.2428 20.7176 48.2719 19.8862C47.301 19.0364 46.8143 17.6577 46.8143 15.7554V9.59873H42.573V5.66266H46.8143V1.89233H51.6081V5.66266H58.0437C58.0437 5.66266 56.8755 6.48618 55.9415 7.64122C55.0074 8.79626 54.747 9.60137 54.747 9.60137H51.6081V15.8133C51.6081 16.2764 51.7212 16.6079 51.9449 16.8105C52.1685 17.0131 52.5421 17.1157 53.0657 17.1157H54.7759V17.1131Z" fill="#3A3A39"/>
<path d="M71.407 13.1479C71.407 13.5926 71.378 14.053 71.3228 14.5345H60.4749C60.5485 15.4949 60.859 16.2342 61.3984 16.7525C61.9588 17.2524 62.6403 17.5024 63.4454 17.5024C64.6399 17.5024 65.4739 17.0025 65.9396 16.0053H71.0413C70.7808 17.0209 70.3046 17.9365 69.6126 18.7495C68.939 19.5625 68.0892 20.2018 67.0631 20.6623C66.0343 21.1253 64.8872 21.3542 63.6164 21.3542C62.0851 21.3542 60.7196 21.0306 59.5251 20.3834C58.3279 19.7361 57.3939 18.8126 56.723 17.6102C56.0494 16.4078 55.7126 15.0028 55.7126 13.3953C55.7126 11.7877 56.0389 10.3827 56.694 9.18029C57.3676 7.97789 58.3016 7.05439 59.4961 6.40714C60.6906 5.7599 62.064 5.43628 63.6164 5.43628C65.1687 5.43628 66.4763 5.74938 67.6524 6.3782C68.8312 7.00703 69.7441 7.90422 70.3993 9.06715C71.0728 10.2327 71.4096 11.5903 71.4096 13.1427L71.407 13.1479ZM66.5027 11.9008C66.5027 11.0878 66.2211 10.4406 65.6607 9.95909C65.1003 9.4776 64.4004 9.23817 63.5585 9.23817C62.7166 9.23817 62.0719 9.46971 61.5115 9.93015C60.9695 10.3932 60.6327 11.0483 60.5038 11.8982H66.5027V11.9008Z" fill="#3A3A39"/>
<path d="M72.5144 13.3691C72.5144 11.78 72.8143 10.3829 73.4116 9.18309C74.0273 7.9807 74.8613 7.05719 75.9058 6.40995C76.953 5.7627 78.1212 5.43908 79.4104 5.43908C80.4392 5.43908 81.3732 5.6522 82.2125 6.0758C83.0729 6.50204 83.7438 7.07298 84.2306 7.79389V0.616333H89.0244V21.136H84.2306V18.9181C83.7833 19.6574 83.1387 20.2494 82.2967 20.6914C81.4732 21.136 80.5129 21.3571 79.4104 21.3571C78.1212 21.3571 76.953 21.0334 75.9058 20.3862C74.8587 19.7205 74.0273 18.7865 73.4116 17.5867C72.8143 16.3659 72.5144 14.9609 72.5144 13.3718V13.3691ZM84.2306 13.3981C84.2306 12.2141 83.8938 11.2827 83.2229 10.5986C82.5677 9.91453 81.7652 9.57249 80.8128 9.57249C79.8604 9.57249 79.0473 9.91453 78.3738 10.5986C77.7213 11.2643 77.3924 12.1878 77.3924 13.3718C77.3924 14.5557 77.7187 15.4977 78.3738 16.2002C79.0473 16.8842 79.8604 17.2263 80.8128 17.2263C81.7652 17.2263 82.5703 16.8842 83.2229 16.2002C83.8964 15.5161 84.2306 14.582 84.2306 13.4007V13.3981Z" fill="#3A3A39"/>
<path d="M94.0078 10.2643C92.2502 9.34082 91.3741 7.88847 91.3741 5.90991C91.3741 4.91273 91.6345 4.00502 92.1581 3.19202C92.6817 2.3606 93.4763 1.70283 94.5392 1.22398C95.6048 0.724073 96.9125 0.474121 98.4648 0.474121C100.017 0.474121 101.314 0.724073 102.361 1.22398C103.427 1.70546 104.222 2.3606 104.743 3.19202C105.266 4.00502 105.527 4.9101 105.527 5.90991C105.527 6.90972 105.285 7.77797 104.798 8.5173C104.329 9.25663 103.695 9.8381 102.893 10.2643C103.901 10.7458 104.677 11.4115 105.219 12.2613C105.761 13.0927 106.032 14.0741 106.032 15.2002C106.032 16.5131 105.695 17.6497 105.021 18.6101C104.348 19.552 103.432 20.2729 102.275 20.7728C101.135 21.2727 99.8645 21.5227 98.4622 21.5227C97.0598 21.5227 95.7811 21.2727 94.6208 20.7728C93.4815 20.2729 92.5738 19.552 91.9029 18.6101C91.2294 17.6497 90.8926 16.5131 90.8926 15.2002C90.8926 14.0531 91.1636 13.0664 91.7056 12.2324C92.2476 11.3825 93.0132 10.7248 94.0051 10.2643H94.0078ZM100.875 6.63082C100.875 5.87308 100.651 5.29161 100.201 4.88379C99.7724 4.45756 99.1936 4.24707 98.4622 4.24707C97.7307 4.24707 97.144 4.46019 96.6967 4.88379C96.2679 5.31003 96.0521 5.89939 96.0521 6.65713C96.0521 7.41488 96.2757 7.95162 96.7257 8.37522C97.1729 8.78304 97.7544 8.98563 98.4622 8.98563C99.1699 8.98563 99.7514 8.77251 100.201 8.34891C100.649 7.92268 100.875 7.35174 100.875 6.63082ZM98.4648 12.3139C97.586 12.3139 96.8756 12.5534 96.3336 13.0348C95.7916 13.4979 95.5206 14.1452 95.5206 14.9766C95.5206 15.7527 95.7811 16.3895 96.3047 16.8894C96.8467 17.3893 97.565 17.6392 98.4622 17.6392C99.3594 17.6392 100.059 17.3893 100.564 16.8894C101.088 16.3895 101.348 15.7527 101.348 14.9766C101.348 14.2004 101.077 13.5163 100.535 13.0348C100.012 12.5534 99.3199 12.3139 98.4622 12.3139H98.4648Z" fill="#3A3A39"/>
<path d="M110.573 21.3569C109.734 21.3569 109.042 21.1175 108.5 20.636C107.976 20.1361 107.716 19.5257 107.716 18.8048C107.716 18.0839 107.979 17.4471 108.5 16.9472C109.042 16.4473 109.734 16.1974 110.573 16.1974C111.412 16.1974 112.067 16.4473 112.591 16.9472C113.133 17.4471 113.404 18.0654 113.404 18.8048C113.404 19.5441 113.133 20.1361 112.591 20.636C112.067 21.1175 111.394 21.3569 110.573 21.3569Z" fill="#3A3A39"/>
</g>
<defs>
<clipPath id="clip0_5328_1954">
<rect width="112.818" height="21.0459" fill="white" transform="translate(0.586426 0.476807)"/>
</clipPath>
</defs>
</svg>
