<svg width="22" height="20" viewBox="0 0 22 20" fill="none" xmlns="http://www.w3.org/2000/svg">
<path d="M20.9251 3.28323C19.6418 6.48323 16.4251 10.8332 13.7334 12.9916L12.0918 14.3082C11.8834 14.4582 11.6751 14.5916 11.4418 14.6832C11.4418 14.5332 11.4334 14.3666 11.4084 14.2082C11.3168 13.5082 11.0001 12.8582 10.4418 12.2999C9.8751 11.7332 9.18343 11.3999 8.4751 11.3082C8.30843 11.2999 8.14176 11.2832 7.9751 11.2999C8.06676 11.0416 8.20843 10.7999 8.38343 10.5999L9.68343 8.95823C11.8334 6.26656 16.2001 3.03323 19.3918 1.75823C19.8834 1.5749 20.3584 1.70823 20.6584 2.01656C20.9751 2.3249 21.1251 2.7999 20.9251 3.28323Z" stroke="#3A3A39" stroke-width="1.5" stroke-linecap="round" stroke-linejoin="round"/>
<path d="M11.4417 14.6832C11.4417 15.5998 11.0917 16.4748 10.4334 17.1415C9.92507 17.6498 9.2334 17.9998 8.4084 18.1082L6.3584 18.3332C5.24173 18.4582 4.2834 17.5082 4.41673 16.3748L4.64173 14.3248C4.84173 12.4998 6.36673 11.3332 7.9834 11.2998C8.15007 11.2915 8.32507 11.2998 8.4834 11.3082C9.19173 11.3998 9.8834 11.7248 10.4501 12.2998C11.0084 12.8582 11.3251 13.5082 11.4167 14.2082C11.4251 14.3665 11.4417 14.5248 11.4417 14.6832Z" stroke="#3A3A39" stroke-width="1.5" stroke-linecap="round" stroke-linejoin="round"/>
<path d="M14.6167 12.0584C14.6167 9.88337 12.85 8.1167 10.675 8.1167" stroke="#3A3A39" stroke-width="1.5" stroke-linecap="round" stroke-linejoin="round"/>
</svg>
