<?xml version="1.0" encoding="UTF-8"?>
<svg id="Layer_1" data-name="Layer 1" xmlns="http://www.w3.org/2000/svg" width="136" height="113" viewBox="0 0 136 113">
  <polygon points="10.89 14.91 12.43 7.53 10.89 7.53 9.81 13.5 9.77 13.5 8.68 7.53 7.08 7.53 7.08 7.53 8.64 14.91 10.89 14.91" fill="#f60"/>
  <path d="M11.91,14.91h1.56l.38-1.77h1.62l.36,1.77h1.62c-.6-2.57-1.18-5.03-1.65-7.38h-2.2c-.5,2.35-1.06,4.81-1.7,7.38h.01ZM14.64,8.88h.05l.64,3.15h-1.35l.65-3.15h.01Z" fill="#f60"/>
  <path d="M21.71,14.91l.09-1.34c-.71.05-1.6.05-2.29.05-.02-1.92-.01-4.12.04-6.1h-1.57c.06,2.41.06,4.86,0,7.38h3.73Z" fill="#f60"/>
  <path d="M26.08,14.91l.09-1.34c-.71.05-1.6.05-2.29.05-.02-1.92-.01-4.12.04-6.1h-1.57c.06,2.41.06,4.86,0,7.38h3.73Z" fill="#f60"/>
  <path d="M30.65,14.91l.07-1.33c-.72.05-1.72.05-2.43.06v-1.93h1.98l.06-1.08h-2.05v-1.87c.64,0,1.62.02,2.31.06l.07-1.31h-3.91c.07,2.41.07,4.86,0,7.38h3.88l.02.02Z" fill="#f60"/>
  <path d="M34.91,7.53c-.21.91-.7,2.57-.88,3.43h-.03c-.19-.85-.69-2.49-.91-3.43h-1.82c.65,1.73,1.29,3.35,1.78,4.85,0,.79-.03,1.84-.05,2.53h1.93c-.02-.77-.04-1.79-.05-2.59.54-1.6,1.12-3.12,1.74-4.79,0,0-1.71,0-1.71,0Z" fill="#f60"/>
  <path d="M13.28,24.75c-.03-1.07-.05-2.07-.05-3.1h1.82c-.01,1.03-.02,2.04-.05,3.1h1.58c-.07-2.52-.07-4.98,0-7.38h-1.58c.02.96.04,2.13.05,3.12h-1.82c0-.99.02-2.16.05-3.12h-1.58c.07,2.41.07,4.86,0,7.38,0,0,1.58,0,1.58,0Z" fill="#f60"/>
  <path d="M19.23,22.98h1.62l.36,1.77h1.62c-.6-2.57-1.18-5.03-1.65-7.38h-2.2c-.5,2.35-1.06,4.81-1.7,7.38h1.56l.38-1.77h.01ZM20.02,18.72h.05l.64,3.15h-1.35l.65-3.15h.01Z" fill="#f60"/>
  <path d="M25.43,23.61c-.65,0-.92-.5-.92-2.26,0-.58.02-2.8.06-3.99h-1.58c.04,1.17.04,3.84.04,4.26,0,2.43.68,3.28,2.3,3.28h.19c1.59,0,2.28-.89,2.28-3.31,0-.37,0-3.06.04-4.23h-1.57c.05,1.21.07,3.34.07,4.05,0,1.67-.27,2.19-.92,2.19h0Z" fill="#f60"/>
  <path d="M30.29,17.37h-1.57c.06,2.41.06,4.86,0,7.38h3.72l.1-1.34c-.71.05-1.6.05-2.29.05-.02-1.92-.01-4.12.04-6.1h0Z" fill="#f60"/>
  <path d="M10.62,34.6h1.56l.38-1.77h1.62l.36,1.77h1.62c-.6-2.57-1.18-5.03-1.65-7.38h-2.2c-.5,2.35-1.06,4.81-1.7,7.38h0ZM13.35,28.56h.05l.64,3.15h-1.35l.65-3.15h.01Z" fill="#f60"/>
  <path d="M18.89,34.6c.19-1.37.57-3.71.74-4.95h.03c.16,1.24.56,3.58.74,4.95h2.11c.34-2.55.71-5.01,1.12-7.38h-1.55c-.17,1.26-.61,3.8-.77,5.08h-.03c-.18-1.29-.6-3.83-.76-5.08h-1.73c-.14,1.15-.58,3.74-.76,5.03h-.04c-.15-1.29-.61-3.88-.76-5.03h-1.55c.38,2.37.77,4.83,1.12,7.38h2.1-.01Z" fill="#f60"/>
  <path d="M25.05,32.82h1.62l.36,1.77h1.62c-.6-2.57-1.18-5.03-1.65-7.38h-2.2c-.49,2.35-1.05,4.81-1.7,7.38h1.56l.38-1.77h.01ZM25.84,28.56h.05l.64,3.15h-1.35s.66-3.15.66-3.15Z" fill="#f60"/>
  <path d="M31.35,27.21c-.21.91-.7,2.57-.88,3.43h-.03c-.19-.85-.68-2.49-.91-3.43h-1.82c.66,1.73,1.29,3.35,1.78,4.85-.01.79-.03,1.84-.05,2.53h1.93c-.02-.77-.04-1.79-.05-2.59.54-1.6,1.12-3.12,1.74-4.79,0,0-1.71,0-1.71,0Z" fill="#f60"/>
  <path d="M86.97,15.23l.07-1.31c-.71.05-1.7.05-2.39.06v-1.9h1.96l.06-1.06h-2.02v-1.84c.63,0,1.6.02,2.28.06l.07-1.29h-3.86c.07,2.37.07,4.8,0,7.28,0,0,3.83,0,3.83,0Z" fill="#f60"/>
  <path d="M89.4,13.49h1.6l.35,1.75h1.6c-.59-2.54-1.17-4.96-1.62-7.28h-2.17c-.49,2.32-1.04,4.74-1.67,7.28h1.54l.37-1.75ZM90.18,9.28h.05l.64,3.11h-1.33l.65-3.11h-.01Z" fill="#f60"/>
  <path d="M96.39,13.22c0,.54-.4.9-.98.9h-.06c-.55,0-1.26-.22-1.8-.55l-.13,1.34c.68.31,1.47.49,2.22.49h.07c1.35,0,2.27-.82,2.27-2.03,0-2.2-3.01-2.24-3.01-3.53,0-.5.44-.83,1.11-.83h.06c.51,0,1.13.11,1.67.29l.08-1.28c-.56-.13-1.34-.22-2.03-.22h-.07c-1.53,0-2.46.74-2.46,1.88,0,2.04,3.05,2.11,3.05,3.54h.01Z" fill="#f60"/>
  <path d="M100.03,15.23h1.57c-.05-1.7-.07-4.4-.05-6.04.47.01,1.15.02,1.64.05l.08-1.29h-4.85v1.29c.53-.03,1.19-.04,1.65-.05.03,1.64,0,4.35-.05,6.04h.01Z" fill="#f60"/>
  <path d="M88.28,24.94h1.57c-.05-1.7-.07-4.4-.05-6.04.47.01,1.15.02,1.64.05l.08-1.29h-4.85v1.29c.53-.03,1.19-.04,1.65-.05.03,1.64,0,4.35-.05,6.04h.01Z" fill="#f60"/>
  <path d="M94.37,17.5h-.28c-1.56,0-2.49,1.35-2.49,3.79s.89,3.81,2.49,3.81h.28c1.55,0,2.49-1.3,2.49-3.81s-.93-3.79-2.49-3.79ZM95.33,21.32c0,1.72-.39,2.46-1.09,2.46s-1.1-.75-1.1-2.46v-.05c0-1.67.4-2.4,1.1-2.4s1.09.73,1.09,2.4v.05Z" fill="#f60"/>
  <path d="M84.71,34.65c.19-1.35.56-3.66.73-4.88h.03c.16,1.22.55,3.53.73,4.88h2.08c.33-2.52.7-4.94,1.1-7.28h-1.53c-.17,1.24-.6,3.74-.76,5.01h-.03c-.18-1.27-.59-3.78-.75-5.01h-1.71c-.14,1.13-.57,3.69-.75,4.96h-.04c-.15-1.27-.6-3.83-.75-4.96h-1.53c.37,2.34.76,4.76,1.1,7.28h2.08Z" fill="#f60"/>
  <path d="M89.93,34.65h3.83l.07-1.31c-.71.05-1.69.05-2.39.06v-1.9h1.96l.06-1.06h-2.02v-1.84c.63,0,1.6.02,2.28.06l.07-1.29h-3.86c.07,2.37.07,4.8,0,7.28Z" fill="#f60"/>
  <path d="M97.29,28.42h.06c.51,0,1.13.11,1.67.29l.08-1.28c-.56-.13-1.34-.22-2.03-.22h-.07c-1.53,0-2.46.74-2.46,1.88,0,2.04,3.05,2.11,3.05,3.54,0,.54-.39.9-.98.9h-.06c-.55,0-1.26-.22-1.8-.55l-.13,1.34c.68.31,1.46.49,2.22.49h.07c1.35,0,2.27-.82,2.27-2.03,0-2.2-3.01-2.24-3.01-3.53,0-.5.44-.83,1.11-.83h.01Z" fill="#f60"/>
  <path d="M99.63,28.66c.53-.03,1.19-.04,1.65-.05.03,1.64,0,4.35-.05,6.04h1.57c-.05-1.7-.07-4.4-.05-6.04.47.01,1.16.02,1.64.05l.08-1.29h-4.85v1.29h.01Z" fill="#f60"/>
  <polygon points="22.7 44.6 23.73 39.64 22.7 39.64 21.98 43.65 21.95 43.65 21.22 39.64 20.14 39.64 20.14 39.64 21.19 44.6 22.7 44.6" fill="#f60"/>
  <path d="M82.3,50.1c0,6.75,5.49,12.24,12.24,12.24s12.24-5.49,12.24-12.24-5.49-12.24-12.24-12.24-12.24,5.49-12.24,12.24ZM94.54,38.75c6.26,0,11.35,5.09,11.35,11.35s-5.09,11.35-11.35,11.35-11.35-5.09-11.35-11.35,5.09-11.35,11.35-11.35Z" fill="#f60"/>
  <path d="M94.54,59.27c5.05,0,9.17-4.11,9.17-9.17s-4.11-9.17-9.17-9.17-9.17,4.11-9.17,9.17,4.11,9.17,9.17,9.17ZM94.54,41.82c4.57,0,8.28,3.71,8.28,8.28s-3.71,8.28-8.28,8.28-8.28-3.71-8.28-8.28,3.71-8.28,8.28-8.28Z" fill="#f60"/>
  <path d="M92.43,46.25h.09c.07,3.1.05,6.14-.07,9.46h2.53c-.14-4.09-.14-7.73,0-11.64h-2.53c-.15,1.15-.6,1.68-1.49,1.68v2.7c.91,0,1.44-.79,1.47-2.21h0Z" fill="#f60"/>
  <path d="M96.83,46.59c.69,0,1.26-.56,1.26-1.26s-.56-1.26-1.26-1.26-1.26.56-1.26,1.26.56,1.26,1.26,1.26Z" fill="#f60"/>
  <path d="M89.83,84.84c1.01,0,1.89-.21,2.78-.67l.31,2.67c-1.08.61-2.55.95-4.03.95h-.13c-4.85,0-7.42-3.02-7.42-9.46s2.74-9.84,7.93-9.84h.11c1.05,0,2.19.15,3.57.48l-.29,2.88c-.98-.29-1.88-.44-2.74-.44-3.29,0-4.95,2.25-4.95,6.69v.08c0,4.35,1.68,6.64,4.87,6.64v.02Z" fill="#f60"/>
  <path d="M101.49,68.5h-.72c-4.05,0-6.27,3.42-6.27,9.62,0,3.09.55,5.51,1.64,7.18,1.07,1.65,2.63,2.49,4.62,2.49h.73c4.05,0,6.27-3.43,6.27-9.67s-2.23-9.62-6.27-9.62ZM104.1,78.2c0,4.38-.96,6.51-2.97,6.51s-2.99-2.13-2.99-6.51v-.13c0-4.22,1-6.35,2.99-6.35s2.97,2.14,2.97,6.35v.13Z" fill="#f60"/>
  <path d="M25.77,59.4c-.25,0-.37.16-.37.54s.11.55.37.55h.02c.26,0,.38-.17.38-.55,0-.36-.13-.53-.38-.53h-.02Z" fill="#f60"/>
  <path d="M7.81,68.89h12.2l-.2,3.02c-1.04-.06-2.39-.09-3.48-.11l-.77-.02v.15c-.06,4.33,0,11.21.13,15.44h-3.75c.13-4.28.21-11.16.13-15.45v-.15l-.73.02c-1.08.02-2.4.05-3.54.11v-3.02h0Z" fill="#f60"/>
  <path d="M34.4,87.39h-3.72c.08-2.74.11-5.39.13-7.74v-.15h-4.91v.15c0,2.3.04,4.7.13,7.74h-3.72c.18-6.28.18-12.5,0-18.49h3.72c-.08,2.51-.13,5.41-.13,7.8v.15h4.91v-.15c-.02-2.17-.07-5-.13-7.79h3.72c-.18,5.99-.18,12.21,0,18.49h0Z" fill="#f60"/>
  <path d="M32.04,61.3c.28,0,.56-.11.77-.32.43-.43.43-1.12,0-1.55l-9.33-9.33,9.33-9.33c.43-.43.43-1.12,0-1.55s-1.12-.43-1.55,0l-9.33,9.33-9.33-9.33c-.43-.43-1.12-.43-1.55,0s-.43,1.12,0,1.55l9.33,9.33-9.33,9.33c-.43.43-.43,1.12,0,1.55.21.21.49.32.77.32s.56-.11.77-.32l9.33-9.33,9.33,9.33c.21.21.49.32.77.32h.02Z" fill="#f60"/>
  <path d="M13.58,52.58c-.02-.72-.04-1.39-.04-2.08h1.22c0,.69-.01,1.37-.04,2.08h1.06c-.05-1.69-.05-3.35,0-4.96h-1.06c.01.64.03,1.43.04,2.1h-1.22c0-.67.01-1.45.04-2.1h-1.06c.05,1.62.05,3.27,0,4.96h1.06Z" fill="#f60"/>
  <path d="M27.9,52.58h1.05l.25-1.19h1.09l.24,1.19h1.09c-.4-1.73-.79-3.38-1.11-4.96h-1.48c-.33,1.58-.71,3.23-1.14,4.96h.01ZM29.74,48.53h.03l.43,2.12h-.91l.44-2.12h0Z" fill="#f60"/>
  <path d="M20.84,56.2c.24,0,.49.04.76.13l.09-.84c-.35-.08-.67-.13-.99-.13h-.03c-1.39,0-2.13.98-2.13,2.64s.69,2.54,2,2.54h.04c.4,0,.8-.09,1.11-.27h0l-.09-.78c-.25.14-.5.2-.77.2-.81,0-1.25-.58-1.25-1.72v-.02c0-1.16.43-1.73,1.27-1.73v-.02Z" fill="#f60"/>
  <path d="M23.44,60.52h.09c.96,0,1.47-.67,1.47-1.89s-.5-1.86-1.47-1.86h-.09c-.95,0-1.45.63-1.45,1.86s.5,1.9,1.45,1.9h0ZM22.9,58.62c0-.78.19-1.11.59-1.11s.59.33.59,1.11v.02h0c0,.82-.18,1.12-.58,1.12s-.6-.32-.6-1.12v-.02Z" fill="#f60"/>
  <path d="M66.84,52.92s.1.35.17.41,1.11.5,1.11.5c0,0-.89-.79-1.28-.91Z" fill="#f60"/>
  <path d="M67.56,54.18c.34.41,1.55,1.22,1.55,1.22,0,0-.72-.8-1.55-1.22Z" fill="#f60"/>
  <path d="M45.98,51.12l-.19-.02-.15-.74h0l.04.97s.16-.17.3-.21Z" fill="#f60"/>
  <path d="M54.47,42.01h0c.04-.32.05-.64.05-.64h-.14s-.16.2-.16.32.26.35.26.32h0Z" fill="#f60"/>
  <path d="M75.98,41.24s-.03.02-.05.04l-.71,1.14s-.02.04-.04.06c-.01.02-.02.04-.03.06-.01-.04-.02-.09-.04-.13l-.43-1.14s-.01-.02-.02-.03c0,0-.01,0-.02,0h-.27l-.23,1.91h.26l.16-1.33v-.14l.42,1.14s.02.04.04.05c.02,0,.04.02.06.02h.04s.09-.02.11-.07l.7-1.14s-.01.05-.02.08c0,.03,0,.05-.01.07l-.16,1.32h.26l.23-1.91h-.28.03Z" fill="#f60"/>
  <path d="M75.38,45.04s.07-.11.09-.18.03-.14.03-.21-.01-.13-.04-.19c-.02-.06-.06-.11-.11-.15s-.11-.07-.19-.09-.17-.03-.27-.03h-.52l-.23,1.91h.3l.1-.78h.15s.06,0,.07,0,.03.03.04.05l.32.65s.05.06.11.06h.27l-.37-.74s-.05-.07-.08-.09c.07-.02.14-.05.2-.09s.11-.08.15-.14h-.02ZM75.18,44.86s-.04.09-.08.13-.08.07-.13.09c-.05.02-.12.03-.19.03h-.22l.08-.69h.23c.11,0,.2.02.25.07.06.05.08.12.08.21,0,.06,0,.11-.03.16h0Z" fill="#f60"/>
  <path d="M75.46,47.15s-.05.03-.07.05l-.6.7s-.04.04-.06.04-.05,0-.08,0h-.08l.1-.83h-.3l-.23,1.91h.3l.11-.86h.11s.07,0,.08,0c.02,0,.03.03.05.05l.45.74s.02.03.04.05c.02,0,.04.02.08.02h.26l-.53-.9s-.03-.05-.05-.07c-.02-.02-.04-.03-.06-.04.04-.02.07-.05.11-.09l.72-.81h-.25s-.06,0-.08,0h-.02Z" fill="#f60"/>
  <polygon points="40.74 43.14 41.03 43.14 41.24 41.48 41.78 41.48 41.81 41.23 40.42 41.23 40.39 41.48 40.94 41.48 40.74 43.14" fill="#f60"/>
  <path d="M40.76,45.32h.15s.06,0,.07,0,.03.03.04.05l.32.65s.05.06.11.06h.27l-.37-.74s-.05-.07-.08-.09c.07-.02.14-.05.2-.09s.11-.08.15-.14c.04-.05.07-.11.09-.18s.03-.14.03-.21,0-.13-.04-.19c-.02-.06-.06-.11-.11-.15s-.11-.07-.19-.09c-.08-.02-.17-.03-.27-.03h-.52l-.23,1.91h.3l.1-.78h-.02ZM40.87,44.42h.23c.11,0,.2.02.25.07.06.05.08.12.08.21,0,.06,0,.11-.03.16-.02.05-.04.09-.08.13s-.08.07-.13.09-.12.03-.19.03h-.22l.08-.69h0Z" fill="#f60"/>
  <path d="M41.99,47.63c-.04-.1-.09-.19-.16-.26s-.15-.13-.24-.17c-.1-.04-.2-.06-.32-.06h-.67l-.23,1.91h.67c.1,0,.19,0,.28-.04.09-.02.17-.06.24-.1.08-.05.14-.1.2-.16s.11-.14.16-.22c.04-.08.08-.17.1-.26.02-.09.04-.2.04-.3h0c0-.12-.02-.23-.05-.33h-.02ZM41.69,48.32c-.03.1-.08.19-.14.26-.06.07-.13.13-.21.17-.08.04-.18.06-.28.06h-.37l.18-1.43h.37c.08,0,.15,0,.21.04.06.03.11.07.16.12.04.05.08.11.1.19.02.07.03.15.03.24,0,.13-.02.25-.05.35Z" fill="#f60"/>
  <path d="M134.74,18.67l.42-8.06h-.41v-.19h-.39v-.19h-.39v-.18h-.39v-.19h-.39v-.18h-.39v-.19h-.4v-.19h-.39v-.19h-.39v-.19h-.4v-.19h-.39v-.19h-.39v-.19h-.4v-.19h-.39v-.19h-.39v-.19h-.39v-.19h-.39v-.18h-.4v-.19h-.39v-.19h-.39v-.19h-.4v-.19h-.39v-.19h-.39v-.19h-.4v-.19h-.39v-.19h-.39v-.19h-.4v-.19h-.39v-.19h-.39v-.18h-.39v-.19h-.39v-.19h-.4v-.19h-.39v-.18h-.39v-.19h-.4v-.19h-.4v-.19h-.39v-.19h-.4v-.19h-.39v-.19h-.39v-.19h-.39v-.19h-.4v-.19h-.39v-.19h-.4v-.19h-.39v-.19h-.39v-.19h-.4v-.19h-.5l.05-.89c.03-.52-.39-.95-.91-.95h-42.03c-.52,0-.93.44-.9.96l.2,3.66c.53,9.47.87,18.69,1.04,28.04,0,.51-.4.92-.91.92h-10.65c.18-4.93.39-9.87.67-14.89l.45-8.08h-.41v-.19h-.39v-.19h-.39v-.18h-.39v-.19h-.39v-.18h-.39v-.19h-.39v-.19h-.39v-.19h-.39v-.19h-.39v-.19h-.39v-.19h-.39v-.19h-.39v-.19h-.4v-.19h-.39v-.19h-.4v-.19h-.39v-.18h-.39v-.19h-.39v-.19h-.39v-.19h-.4v-.19h-.39v-.19h-.39v-.19h-.39v-.19h-.39v-.19h-.4v-.19h-.39v-.19h-.39v-.19h-.39v-.18h-.39v-.19h-.39v-.19h-.39v-.19h-.39v-.18h-.39v-.19h-.4v-.19h-.39v-.19h-.39v-.19h-.39v-.19h-.39v-.19h-.39v-.19h-.39v-.19h-.4v-.19h-.39v-.19h-.39v-.19h-.39v-.19h-.39v-.19h-.39v-.19h-.51l.05-.88c.03-.52-.38-.96-.9-.96H1.15C.63,0,.21.44.24.95l.19,3.65c1.48,28.06,1.48,57.2,0,86.62l-.18,3.64c-.03.52.39.95.91.95h1.06l-.02.34h.23l-.02.36h.23l-.02.36h.23l-.02.36h.23l-.02.36h.23l-.02.36h.24l-.02.36h.23l-.02.36h.23l-.02.36h.23l-.02.36h.23l-.02.36h.23l-.02.36h.23l-.02.36h.23l-.02.36h.23l-.02.36h.23l-.02.36h.23l-.02.36h.23l-.02.36h.23l-.02.36h.23l-.02.35h.23l-.02.36h.23l-.02.36h.23l-.02.36h.23l-.02.36h.23l-.02.36h.23l-.02.36h.23l-.02.36h.23l-.02.36h.23l-.02.36h.23l-.02.36h.23l-.02.36h.23l-.02.36h.23l-.02.36h.23l-.02.36h.23l-.02.36h.23l-.02.36h.23l-.02.36h.23l-.02.36h.23l-.02.36h.23l-.02.36h.23l-.02.36h.23l-.02.36h.23l-.02.36h.23l-.02.36h.23l-.02.36h.23l-.02.36h.23l-.02.36h.23l-.02.36h50.95l-.42-8.06c-.49-9.4-.81-17.99-.99-26.52h11.42c-.16,4.14-.35,8.38-.58,12.8l-.19,3.65c-.03.52.39.95.91.95h1.06l-.02.34h.23l-.02.36h.23l-.02.36h.23l-.02.36h.23l-.02.36h.23l-.02.36h.24l-.02.36h.23l-.02.36h.23l-.02.36h.23l-.02.36h.23l-.02.36h.23l-.02.36h.23l-.02.36h.24l-.02.36h.23l-.02.36h.23l-.02.36h.23l-.02.36h.23l-.02.36h.23l-.02.36h.23l-.02.35h.23l-.02.36h.23l-.02.36h.23l-.02.36h.23l-.02.36h.23l-.02.36h.23l-.02.36h.23l-.02.36h.23l-.02.36h.23l-.02.36h.23l-.02.36h.23l-.02.36h.23l-.02.36h.23l-.02.36h.23l-.02.36h.23l-.02.36h.23l-.02.36h.23l-.02.36h.23l-.02.36h.23l-.02.36h.23l-.02.36h.23l-.02.36h.23l-.02.36h.23l-.02.36h.23l-.02.36h.23l-.02.36h.23l-.02.36h.23l-.02.36h.24l-.02.36h50.82l-.4-8.04c-1.47-29.31-1.47-58.34,0-86.28l.2-.14ZM43.25,56.76h-.61c.62-.24,1.18-.47,1.18-.47,0,0-.09.2-.57.47ZM61.36,56.72s-.05.03-.08.04h-.54l1.56-.47s-.52.21-.94.43ZM66.98,56.76c-.47-.11-1.03-.18-1.85-.26.98-.12,1.51-.08,3.04.26h-1.19ZM68.18,56.76c-.95-.41-1.77-.68-3.11-.58,1.03-.18,1.88-.12,3.12.18-.94-.49-1.77-.79-2.91-.76.88-.17,1.92-.06,1.92-.06,0,0-.21-.32-.63-.46s-1.05-.17-3.18.42c.95-.48,2.57-1.01,3.21-.99.63.03,1.15.52,1.79,1.03.41.33,1.02.88,1.41,1.23h-1.62ZM111.68,5.32c-1.43,27.75-1.51,56.01-.08,85.07.03.52-.39.95-.9.95h-32.8c-.52,0-.93-.44-.9-.95.58-11.26.93-21.78,1.06-32.71,0-.5-.4-.92-.91-.92h-1.51c-.26-.21-.55-.41-.77-.63-.36-.35-.61-.73-1.07-1.1-.26-.21-.51-.39-.7-.55,0,0,.46.77.68.95.21.18.92.89.97.94-.04-.02-.62-.37-.97-.42.44.2.83.57,1.15.81h-3.73c-.08-.04-.14-.08-.18-.11-.32-.21-.86-.63-.88-.64.28.3.5.54.73.74h-.97c-.26-.32-.71-.84-1.31-1.37-.97-.86-1.45-1.19-1.91-1.21-.45-.02-1.07.07-1.7.31-.64.24-1.85.72-2.28.96-.43.24-.77.24-1.68.4s-1.42.57-1.42.57c0,0,.73-.16,1.46-.21-.22.04-.69.31-1.1.56h-2.58c.64-.37,1.43-.81,2.38-1.33-.73.18-2.09.82-3.09,1.33h-.28c.73-.49,1.73-1.14,2.45-1.56-.8.21-2.41,1.08-3.26,1.56h-.13c.91-.67,3.01-2.17,3.66-2.26.84-.12,2.31.58,3.41.48-.6-.03-2.78-.81-3.25-.83s-.96.24-1.92.84c-.69.43-1.69,1.22-2.42,1.77h-1.47l.19-.11-.28.11h-.96l1.23-.69s-.76.3-1.75.69h-.61c1.1-.5,2.16-.95,2.16-.95-.51-.02-1.31.18-1.31.18.9-.59,4.29-1.27,4.29-1.27,0,0-1.78.14-2.95.38-1.17.23-3.6,1.19-4.62,1.66h-2.55c.65-.2,1.4-.42,1.86-.41-.54-.05-1.57.15-2.65.41h-1.32c.11-.04.22-.08.36-.13.86-.33,2.94-.76,2.94-.76,0,0-1.74,0-2.73.28,1.13-.76,2.2-.85,2.63-.85s.91.03,1.63.11,1.45-.08,1.45-.08c0,0-2.61-.49-3.95-.32-1.34.17-3.13,1.14-3.13,1.14l.42-.38.02-.94-.48,1.05s.07-.94.15-1.31c.08-.37.32-1.04.32-1.04l-.21.11s.29-.43.49-.56l.07.19.1-.84s-.41.19-.75.4c-.34.22-.55,1.43-.55,1.43l.4-.37s-.22.75-.31,1.23-.04.51-.14.69-.15.35-.15.51c.13-.28.28-.42.28-.42l-.11.55s-.27.15-.56.33h-.97c.23-.22.48-.46.81-.61-.33,0-.86.37-.84.36s.25-.47.53-.63c.29-.16.63-.28.69-.35.06-.07.17-.47.17-.47,0,0-.71.19-.97.36-.26.17-.56.57-.68.76-.08.13-.18.36-.39.59h-1.28c-.5,0-.91.41-.91.92.13,10.93.48,21.44,1.06,32.71.03.52-.39.95-.9.95H5.76c-.52,0-.93-.43-.9-.95,1.43-29.06,1.43-57.41,0-85.16-.03-.52.39-.95.9-.95h32.92c.52,0,.93.44.9.96-.57,10.57-.93,21.03-1.06,31.71,0,.5.4.92.91.92h37.72c.5,0,.91-.41.91-.92-.13-10.68-.48-21.14-1.06-31.71-.03-.52.39-.96.91-.96l32.88.1c.52,0,.93.44.9.95h0v-.04Z" fill="#f60"/>
  <path d="M72.14,52.64c-.13-.12-.83-.71-.83-.71l-.07-1.16s.05-.18-.1-.51c-.15-.33-.67-1.37-.67-1.37v-1.31l-.24.13-.19.23s-.12.34-.1.36c.03.03.07.5.07.5l-.14.12s.01.88,0,.92-.16-.72-.16-.72l-.21.38-.19,1.41s-.16.22-.21.37v-.04c0-.31-.11-.57-.32-.78-.14-.13-.39-.29-.78-.29h-.38v-.37c.14-.14.28-.29.4-.43.18-.21.35-.42.49-.65.15-.24.27-.49.36-.75.09-.28.14-.58.14-.89,0-.37-.07-.73-.2-1.04-.14-.32-.34-.61-.59-.84s-.55-.41-.9-.54c-.34-.12-.72-.19-1.13-.19h0c-.37,0-.73.05-1.07.15-.03,0-.07.03-.1.04.03-.11.04-.19.04-.19l-.35-1.44h0s-.03.84-.07,1.78c-.16.08-.31.18-.46.29-.15.12-.29.27-.42.43.13-.41.56-.53.56-.53,0,0-.32-.05-.55.13-.12.1-.33.54-.5.92v-.02s-.03-.05-.04-.07c.1-.35.22-.7.27-.81.1-.21.49-.43.51-.59.02-.16.28-1.5.25-1.62-.04-.12-.15-.38-.15-.38l.63.21-.04-.27s-.69-.17-.76-.18c-.06,0-.12.07-.25.38s-.36,1.07-.36,1.07l-.05-.8-.48.33s-.14.52-.23.85c-.02.07-.04.11-.05.16-.07.03-.14.07-.2.12h0l.07.09c-.11.07-.19.17-.26.29-.11-.06-.22-.12-.35-.16-.34-.12-.72-.19-1.13-.19h0c-.37,0-.73.05-1.07.15-.35.11-.66.27-.94.49-.1.08-.19.18-.28.28l-.19-.24-.06.55s-.04.05-.05.08c0-.33-.02-.8-.02-.98,0-.29-.06-.41-.26-.53-.2-.12-.54-.18-.54-.18,0,0,.49.39.56.62.06.22.04.92.06,1.44-.03.07-.07.14-.1.22-.13-.29-.27-.56-.45-.79-.07-.09-.16-.17-.25-.25.03-.67.06-1.22.06-1.22l.12-.84-.4-1.19c-.17.38-.08,1.15,0,1.58.06.32.02.95-.03,1.42-.1-.07-.2-.13-.31-.19v-.04c.1-1.15-.19-2.19-.19-2.19-.09.57-.13,1.33-.14,2.07-.14-.06-.28-.1-.43-.14.07-.59.18-1.51.21-2.11.05-.93,0-1.4,0-1.4,0,0,.4-.04.78.14-.23-.26-1.01-.44-1.35-.43.21-.09.62-.1.62-.1,0,0-.63-.35-.78-.34-.15,0-.34.42-.34.42l-.31,3.15-.03-1.62s-.34-.05-.39-.21-.1-.26-.16-.24c-.06,0-.32,1.28-.48,1.91.03-.41.11-1.4.11-1.4,0,0-.33,1.44-.4,2.09-.02.19-.05.42-.08.66-.06.05-.11.11-.16.17l-.03-1.64-.3.23-.09,1.89c-.12.18-.23.38-.33.6-.03-.1-.05-.2-.09-.3-.08-.2-.19-.37-.32-.54-.04-.35-.08-.64-.08-.64l-.34-1.26s0,.76.04,1.52c-.2-.16-.43-.3-.68-.41.16-.24.3-.48.3-.48,0,0-.21.23-.42.42-.08-.03-.18-.05-.26-.07l.39-.32-.12-.05v-.46l.33-.38-.31.09-.34.18-.1.9c-.22-.05-.46-.08-.71-.08h0c-.37,0-.73.05-1.07.15-.35.11-.66.27-.94.49-.27.22-.5.49-.69.82-.18.32-.3.69-.36,1.11l-.08.57.56.1.78.14h0c.1.02.2.03.29.03.2,0,.39-.04.54-.12.12-.07.23-.16.32-.28-.05.46-.1.85-.1.85l-.03.2s.16-.16.39-.32c-.11.13-.23.26-.37.4l-.99,1-.06.02v.05l-.95.94c-.16.15-.28.32-.35.51-.02.06-.02.11-.03.17l-.03-.03c-.09-.07-.32,0-.58.15-.26.15-.57.37-.57.37l.16-.19v-.3c0-.14-.2-.22-.29-.21-.09,0-.27.55-.27.55,0,0,.08-.42.09-.55.02-.13.04-.26.28-.46.24-.21.36-.35.36-.35l-.13.05-.73.36s-.26.97-.27.99c0,.02-.02.63-.08.97-.05.34-.11,1.18-.11,1.18l.39-1.32s-.06.47-.15.84c-.09.36-.26.8-.37,1.11s-.14.98-.14.98c0,0,.12-.42.22-.69.11-.28.29-.9.29-.9,0,0-.06.45-.13.77-.07.33-.11.97-.12.98,0,0,.35-.9.35-.9l.03.72s1.29-.67,1.93-.62c-.56-.11-1.1.07-1.1.07v-.23c.37-.34.47-.74.67-1.2-.17.27-.59.68-.59.68,0,0,.06-.54.08-.82s-.06-1.04-.06-1.04l-.23,1.24s0-1.14.04-1.39c.04-.24.25-.36.55-.52.29-.15.43-.16.45-.06,0,.04-.02.09-.02.13v1.07h.64c.02.5.03,1.08.03,1.08,0,0,.06-.58.11-1.08h.24c-.08.86-.2,1.97-.2,1.97,0,0,.55-1.45.55-1.43s-.14,1.16-.14,1.16c0,0,1.14.1,1.67.33.52.23,1.96.31,2.25.29.29-.03.64-.24.64-.24,0,0-.3.16-1.19,0-.89-.14-1.74-.3-1.74-.3,0,0,.72,0,1.07-.08-.7-.11-1.56-.17-1.56-.17,0,0,.94-.15,1.17-.22-.38-.21-1.43-.12-1.43-.12,0,0,.56-.21.87-.18-.17-.18-.86-.15-1.27-.08.4-.32.98-.47,1.35-.53.37-.06.77-.12.83-.14.04,0,.08-.14.13-.26h1.06c.34.4.73.91.95,1.34-.04-.49-.29-.98-.52-1.34h.57v-1.35s.03.02.04.03c.06.1.12.21.19.3.29.37.64.65,1.03.83.11.05.23.08.35.11.18.12.36.23.47.37.15.2.82,1.06.82,1.06h0c-.35-.75-.55-1.09-.77-1.32.12,0,.23.03.36.04.14.16.27.33.37.5-.05-.18-.12-.35-.2-.51.4-.02.79-.09,1.14-.26.4-.18.75-.46,1.04-.83.08-.1.15-.23.22-.35-.02.1-.06.2-.06.3v1.07h1.93c-.18.14-.37.31-.5.47-.3.38-.92.49-1.29,1.02.45-.31,1.5-.74,1.62-.78.12-.04.34-.34.34-.34l-.45.25.49-.62h.73c-.18.4-.31.7-.31.7,0,0,.19-.31.44-.7h.47c-.13.48-.19.95-.16,1.27.05-.38.23-.85.43-1.27h.27c-.02.11-.03.22,0,.28,0-.08.06-.18.12-.28h.16c-.16.36-.32.76-.31.84,0,.16.06.47.11.57.05.09.63.37.63.37l-.14-.37.4.43s.3.03,1.1,0c.79-.03.93-.26,1.52-.69-.35.06-.98.37-.98.37l-.43-1.41s-.26-.09-.32-.11h1.05c.42.2.79.4.79.4l-.51-.4h2.77s.07.04.09.07c.28.31.38.42.38.42,0,0-.06-.23-.16-.49h.73c.02.09.06.16.12.2.2.13,1.3.9,1.55,1.05.24.14.47.26.56.5s.37.58.71.83.53.4.53.4c-.61-.64-.47-.55-.75-.88s-.28-.53-.34-.68c-.07-.14-1.85-1.23-1.85-1.23l.05-.18h.05v-.2l.22-.86.25-.23v1.62l.22-.27s.11-2.04.26-2.57c-.04,1.1.08,2.48.08,2.48,0,0,.14-2.37.2-2.69.05-.32-.23-.45-.26-.66s.21-1.18.21-1.18l.03.92s.69,1.51.7,1.83c.01.32.07,2.83.07,2.83l.12-1.23.43.32s.12,1.29.43,1.93l-.13-1.59s.55,2.29.93,2.82h0c-.19-.91-.33-1.84-.44-2.36-.12-.52-.17-.82-.3-.94l.1-.07ZM44.95,53.71c-.06-.54.04-.8.15-1.31.04.43,0,.92-.15,1.31ZM51.86,49.07c0,.63-.03,1.16-.03,1.16l-.74-.55c.1-.11.2-.21.3-.32.17-.19.32-.4.46-.6,0,.11.02.2.02.31h0ZM51.45,50.18s-.06-.02-.09-.02h-.73l.22-.23c.07-.08.14-.15.21-.23l.4.47h-.01ZM51.87,52.1h-4.89v-.48c0-.09.02-.19.06-.3s.11-.2.2-.29l2.01-2.02c.17-.17.32-.34.45-.49.13-.16.23-.31.32-.46.08-.15.15-.3.19-.45.04-.15.06-.31.06-.48,0-.28-.07-.49-.2-.64-.13-.15-.33-.22-.6-.22-.22,0-.41.06-.56.17-.15.12-.26.26-.31.43-.07.18-.16.29-.26.35-.07.04-.16.06-.27.06-.06,0-.13,0-.2-.02l-.78-.14c.05-.35.15-.65.29-.91.15-.26.32-.47.54-.65.21-.17.46-.3.74-.38.28-.08.58-.13.89-.13h0c.34,0,.65.05.93.15.28.1.51.24.71.42.19.18.34.39.45.64.1.25.16.52.16.81,0,.25-.04.49-.11.71-.07.22-.17.42-.29.62-.12.2-.27.39-.43.57s-.34.37-.52.56l-1.36,1.4c.18-.05.35-.1.52-.12.17-.03.33-.04.48-.04h1.3c.16,0,.28.04.38.13.09.09.14.2.14.35v.86h-.04ZM49.5,47.06l.02-.2h.02c-.03.12-.04.2-.04.2ZM55.53,41.18s.23,1.16.19,1.93c-.02.44-.03,1.01-.04,1.44-.1-.02-.2-.03-.3-.04l.15-3.33ZM54.41,44.52h0ZM57.39,50.2c-.13.45-.31.82-.54,1.11s-.51.51-.82.66c-.32.14-.66.22-1.03.22s-.71-.07-1.02-.22c-.31-.14-.59-.36-.81-.66-.23-.29-.41-.66-.54-1.11s-.19-.97-.19-1.58.06-1.14.19-1.58c.13-.45.31-.82.54-1.11s.5-.51.81-.65c.31-.14.66-.21,1.02-.21s.71.07,1.03.21.59.36.82.65.41.66.54,1.11c.05.16.08.35.11.54v.03h0c.05.31.08.64.08,1.01,0,.61-.07,1.14-.2,1.58h0ZM62.84,44.74c0,.17,0,.4,0,.64-.04-.04-.07-.08-.11-.12.04-.24.08-.43.12-.52ZM57.82,50.72c.04-.12.1-.22.13-.35.15-.5.22-1.09.22-1.75,0-.26-.02-.49-.04-.73,0-.06,0-.11,0-.17l.26.05v.04c0,.27.06,1.3.12,2.19l-.61.62s-.06.07-.09.11h0ZM62.96,52.1h-4.89v-.48c0-.09.02-.19.06-.3s.11-.2.2-.29l2.01-2.02c.17-.17.32-.34.45-.49.13-.16.23-.31.32-.46.08-.15.15-.3.19-.45.04-.15.06-.31.06-.48,0-.28-.07-.49-.2-.64-.13-.15-.33-.22-.6-.22-.22,0-.41.06-.56.17-.15.12-.26.26-.31.43-.07.18-.16.29-.26.35-.07.04-.16.06-.27.06-.06,0-.13,0-.2-.02l-.78-.14c.05-.35.15-.65.29-.91.15-.26.32-.47.54-.65.21-.17.46-.3.74-.38.28-.08.58-.13.89-.13h0c.34,0,.65.05.93.15.28.1.51.24.71.42.19.18.34.39.45.64.1.25.16.52.16.81,0,.25-.04.49-.11.71-.07.22-.17.42-.29.62-.12.2-.27.39-.43.57s-.34.37-.52.56l-1.36,1.4c.18-.05.35-.1.52-.12.17-.03.33-.04.48-.04h1.3c.16,0,.28.04.38.13.09.09.14.2.14.35v.86h-.04ZM58.76,47.83h.08c.06.02.11.02.16.02-.02.41-.06,1.28,0,1.61l.21-.99s0,.35,0,.79l-.53.53c.03-.66.06-1.4.04-1.97h.02ZM60.06,47.6s-.14.5-.23.59c-.06.06-.1.3-.14.63l-.19.2c0-.31,0-.54-.02-.61-.04-.12-.18-.36-.3-.54.19,0,.36-.04.51-.12.02,0,.03-.03.04-.04l-.11.37.44-.48ZM60.34,48.13l.04-.65.06.51s-.06.1-.1.15h0ZM60.54,46.91s.08.24.17.53h0c-.02.08-.06.15-.09.23-.04-.35-.08-.76-.08-.76ZM63.64,53.93l-.53-1.24h.2s.33,1.24.33,1.24ZM63.48,50.59c-.07-.03-.14-.04-.21-.06-.02-.02-.02-.04-.04-.06-.1-.1-.27-.21-.5-.26h.12s.64-.74.77-.96c.13-.22.27-.67.27-.67l-.87,1.1.04-.71c.16-.08.33-.78.42-1.27l.14.03.78.14h.08c-.02.5-.04,1.17-.06,1.81l-.92.93-.02-.02ZM68.5,52.1h-4.89v-.48c0-.09.02-.19.06-.3s.11-.2.2-.29l2.01-2.02c.17-.17.32-.34.45-.49.13-.16.23-.31.32-.46.08-.15.15-.3.19-.45s.06-.31.06-.48c0-.28-.07-.49-.2-.64-.13-.15-.33-.22-.6-.22-.22,0-.41.06-.56.17-.15.12-.26.26-.31.43-.07.18-.16.29-.26.35-.07.04-.16.06-.27.06-.06,0-.13,0-.2-.02l-.78-.14c.05-.35.15-.65.29-.91.15-.26.32-.47.54-.65.21-.17.46-.3.74-.38s.58-.13.89-.13h0c.34,0,.65.05.93.15.28.1.51.24.71.42.19.18.34.39.45.64.1.25.16.52.16.81,0,.25-.04.49-.11.71-.07.22-.17.42-.29.62s-.27.39-.43.57-.34.37-.52.56l-1.36,1.4c.18-.05.35-.1.52-.12.17-.03.33-.04.48-.04h1.3c.16,0,.28.04.38.13.09.09.14.2.14.35v.86h-.04ZM65.8,47.76c-.22.05-.58.44-.58.44,0,0,.63-.34.63-.25v.21c-.11.13-.24.28-.39.43l-.75.76c.03-.35.05-.91.06-1.5.17,0,.33-.04.46-.12.18-.09.31-.26.42-.45l.15.47h0ZM65.77,47.07h0c.02-.07.06-.12.11-.16.03-.02.08-.05.2-.05.11,0,.16.02.17.03.02.02.05.1.05.24,0,.12-.01.23-.04.33-.03.11-.07.22-.13.33h0v-.14l-.35-.58h-.01ZM67.33,50.1v.07h-.06l.07-.07h-.01ZM68.79,52.7h0s.01,0,.01,0h0s-.01,0-.01,0Z" fill="#f60"/>
  <path d="M55.73,46.71c-.1-.18-.21-.3-.34-.36s-.26-.1-.39-.1-.26.03-.38.1c-.13.06-.24.19-.33.36s-.18.42-.23.72c-.06.31-.09.7-.09,1.18s.03.88.09,1.19c.06.31.14.55.23.72.1.18.21.3.33.36.13.06.25.1.38.1s.26-.03.39-.1c.13-.06.24-.19.34-.36.1-.18.18-.42.24-.72.06-.31.09-.7.09-1.19s-.03-.88-.09-1.18c-.06-.31-.14-.55-.24-.72ZM54.99,46.85c.08.14.14.27.14.27,0,0,0-.08.03-.19.02.02.03.04.05.08.05.08.11.24.17.54.04.19.06.44.07.72-.09-.18-.43-.91-.57-1.39.05-.03.08-.03.1-.03h.01ZM55.39,49.69c-.06.3-.13.46-.18.55-.06.11-.1.13-.1.13-.04.02-.08.03-.12.03-.02,0-.06,0-.11-.03h0s-.04-.03-.09-.12c-.05-.08-.11-.25-.17-.55-.02-.08-.03-.19-.04-.3h0l.4.37c-.07-.12-.25-.45-.42-.78,0-.12,0-.23,0-.37v-.22c.1.16.17.29.17.29,0,0,.26-.29.29-.42.02-.14,0-.43-.1-.59-.05-.08-.15-.17-.25-.25.03-.11.05-.2.07-.27.06.05.11.11.14.2.12.33.52.84.58.92,0,.11,0,.21,0,.33,0,.44-.03.8-.08,1.07h0Z" fill="#f60"/>
</svg>