<?xml version="1.0" encoding="UTF-8"?>
<svg id="Layer_1" data-name="Layer 1" xmlns="http://www.w3.org/2000/svg" width="118" height="108" viewBox="0 0 118 108">
  <path d="M19.78,19.88l-1.11,21.11c-.03.29,0,.59.08.88.09.28.24.54.43.76.2.22.44.4.7.52.27.12.56.18.85.18l4.99.27c1.33.07,2.24-.75,2.31-2.1l1.11-21.11c.02-.4.11-.48.51-.46l6.24.34c1.33.07,2.24-.75,2.31-2.1l.27-5.05c.07-1.39-.7-2.26-2.07-2.34l-22.82-1.23c-1.33-.07-2.24.75-2.31,2.1l-.26,5.05c-.03.29,0,.59.08.88.09.28.24.54.43.76.2.22.44.4.7.52.27.12.56.18.85.18l6.24.33c.42.02.48.09.46.51h.01Z" fill="#f60"/>
  <path d="M50.79,45.06l-1.54-28.87c-.07-1.23-1.1-2.17-2.31-2.1l-4.9.27c-1.21.07-2.14,1.11-2.07,2.34l1.54,28.87c.07,1.23,1.1,2.17,2.31,2.1l4.9-.27c1.21-.07,2.14-1.11,2.07-2.34Z" fill="#f60"/>
  <path d="M75.66,11.02l-18.68-1.61c-1.33-.11-2.26.68-2.37,2.03l-2.42,28.81c-.04.29-.02.59.06.88s.22.55.41.78.42.41.69.54c.26.13.55.2.85.21l18.7,1.59c1.37.12,2.26-.64,2.37-2.03l.42-5.04c.12-1.39-.63-2.29-2-2.4l-10.76-.93c-.38-.03-.47-.15-.44-.53l.12-1.44c.03-.4.12-.48.52-.45l6.89.6c1.33.11,2.26-.68,2.37-2.03l.42-5.04c.12-1.39-.63-2.29-2-2.4l-6.89-.6c-.37-.03-.47-.15-.44-.53l.12-1.44c.03-.4.13-.48.52-.45l10.77.93c1.33.12,2.26-.68,2.37-2.03l.42-5.04c.12-1.39-.63-2.28-2-2.4l-.02.02Z" fill="#f60"/>
  <path d="M79.86,48.74c.12.27.3.52.51.72.22.2.47.36.75.46s.58.14.87.12l4.99-.22c.3,0,.59-.07.86-.2.27-.12.51-.3.71-.52s.35-.48.45-.76.14-.58.12-.88l-.3-7.13c0-.07,0-.14.02-.21s.06-.13.11-.18.11-.09.17-.12c.07-.03.14-.04.21-.04l1.5-.07,4.88,8.62c.17.34.44.61.77.8.33.18.7.27,1.07.24l5.09-.22c.44,0,.88-.13,1.26-.36.38-.23.7-.55.92-.94.2-.39.3-.83.28-1.27-.02-.44-.15-.87-.38-1.24l-4.93-8.39c2.25-1.96,3.26-5.07,3.07-9.48-.17-4.02-1.23-6.86-3.23-8.69-2-1.82-5.07-2.67-9.27-2.49l-9.77.42c-.3,0-.59.07-.86.19-.27.12-.51.3-.71.52-.2.22-.35.48-.45.76s-.14.58-.12.88l1.22,28.8c0,.3.07.59.19.87h0ZM88.26,26.22c.02-.07.06-.13.1-.19.05-.05.11-.1.17-.12.07-.03.14-.04.21-.04l2.27-.1c1.91-.08,2.37-.02,2.45,2.1.08,2.12-.36,2.22-2.26,2.3l-2.27.1c-.07,0-.14,0-.21-.02s-.13-.06-.18-.1c-.05-.05-.09-.11-.12-.17-.03-.07-.04-.14-.04-.21l-.14-3.34c-.01-.07,0-.14.02-.21h0Z" fill="#f60"/>
  <path d="M34.06,51.96l-22.79,1.64c-1.33.1-2.13,1.03-2.04,2.37l.36,5.05c0,.3.07.59.19.86s.3.51.52.71c.22.19.48.34.76.43.28.09.58.11.87.07l6.23-.45c.42-.03.49.03.52.45l1.48,21.09c0,.3.07.59.19.86.12.27.3.51.52.7.22.19.48.34.76.42.28.09.58.11.87.07l4.99-.36c1.33-.1,2.13-1.03,2.03-2.38l-1.48-21.09c-.03-.4.05-.49.45-.52l6.23-.45c1.33-.1,2.13-1.03,2.03-2.38l-.35-5.05c-.09-1.39-.97-2.16-2.35-2.06v.02Z" fill="#f60"/>
  <path d="M46.34,57.03l-4.9-.3c-1.21-.07-2.25.86-2.33,2.08l-1.74,28.86c-.07,1.23.85,2.28,2.06,2.35l4.9.3c1.21.07,2.25-.86,2.33-2.08l1.74-28.86c.07-1.23-.85-2.28-2.06-2.35Z" fill="#f60"/>
  <path d="M71.63,72.6c2.24-1.97,3.23-5.07,3.03-9.49-.19-4.02-1.25-6.86-3.26-8.69-2-1.83-5.08-2.65-9.28-2.45l-9.77.46c-.3,0-.59.07-.86.2-.27.12-.51.3-.71.52s-.35.48-.45.76c-.1.28-.14.58-.12.88l1.33,28.79c0,.3.07.59.2.87.12.27.3.52.52.72.22.2.48.36.76.45.28.1.58.14.87.12l5-.23c.3,0,.59-.08.86-.2.27-.12.51-.3.71-.52.2-.22.35-.48.45-.77.1-.28.14-.58.12-.88l-.33-7.13c0-.07,0-.14.02-.21s.06-.13.11-.19c.05-.05.11-.09.17-.12.07-.03.14-.04.21-.04l1.5-.07,4.91,8.6c.18.33.44.61.77.79.33.18.7.27,1.08.24l5.08-.24c.44,0,.87-.13,1.25-.36s.69-.55.91-.94c.2-.39.29-.83.27-1.27-.02-.44-.15-.87-.39-1.24l-4.96-8.36h0ZM63.03,65.86l-2.27.11c-.07,0-.14,0-.21-.02s-.13-.06-.18-.11-.09-.11-.12-.17c-.03-.07-.04-.14-.04-.21l-.15-3.34c0-.07,0-.14.02-.21s.06-.13.1-.19c.05-.05.11-.1.17-.12.07-.03.14-.04.21-.04l2.28-.1c1.91-.09,2.36-.03,2.46,2.09.1,2.12-.35,2.22-2.26,2.31h0Z" fill="#f60"/>
  <path d="M101.25,57.68l-18.68-1.6c-1.33-.11-2.26.68-2.37,2.03l-2.41,28.81c-.04.29-.02.59.06.88.08.28.22.55.41.78s.42.41.69.54c.26.13.55.2.85.21l18.69,1.6c1.37.12,2.26-.64,2.37-2.03l.42-5.04c.11-1.39-.63-2.28-2-2.4l-10.76-.92c-.37-.03-.47-.15-.44-.53l.12-1.44c.03-.4.13-.48.52-.44l6.89.6c1.33.11,2.26-.68,2.37-2.03l.42-5.04c.12-1.39-.63-2.29-2-2.4l-6.89-.6c-.37-.03-.47-.15-.44-.53l.12-1.44c.03-.4.13-.48.52-.44l10.77.92c1.33.11,2.26-.68,2.37-2.03l.42-5.04c.12-1.38-.63-2.28-2-2.4l-.02-.02Z" fill="#f60"/>
  <path d="M109.22,92.92h-.17c.39-1.03.65-2.13.75-3.3l.42-5.04c.15-1.57-.02-3.16-.51-4.65-.49-1.5-1.29-2.87-2.35-4.03-.09-.1-.16-.22-.2-.35s-.06-.26-.04-.4l.04-.53c.01-.13.05-.26.11-.38.06-.12.15-.22.26-.31,1.24-.97,2.25-2.19,2.99-3.58s1.17-2.93,1.28-4.51l.42-5.04c.17-1.95-.15-3.92-.93-5.72-.07-.17-.1-.35-.07-.53.02-.18.1-.35.21-.49.5-.6.93-1.25,1.3-1.94.95-1.77,1.41-3.76,1.36-5.78-.05-2.01-.62-3.98-1.66-5.7l-1.84-3.14c-.08-.13-.12-.27-.13-.42-.01-.15,0-.3.06-.44,1.02-2.79,1.46-6.02,1.31-9.62-.27-6.49-2.32-11.52-6.19-15.05s-8.99-5.12-15.66-4.82l-4.21.18c-.17,0-.33-.03-.48-.1-.15-.08-.28-.19-.37-.34-1.83-2.87-4.88-4.72-8.47-5.01L57.76.3c-1.47-.14-2.95,0-4.35.45-1.41.44-2.71,1.16-3.84,2.12-.6.51-1.15,1.09-1.63,1.73-.09.12-.21.21-.34.28-.13.06-.28.1-.43.1-.25,0-.49.02-.73.02l-1.58.09c-.13,0-.26-.02-.39-.07-.12-.05-.24-.12-.33-.22-1.97-1.9-4.55-3.02-7.27-3.14L14.05.43c-1.47-.1-2.94.1-4.34.59-1.39.49-2.67,1.25-3.77,2.25s-1.98,2.21-2.61,3.56c-.63,1.35-.98,2.81-1.04,4.3l-.26,5.05c-.09,1.49.11,2.98.59,4.38.48,1.41,1.23,2.7,2.21,3.82,1.3,1.46,2.96,2.54,4.81,3.15.2.07.38.2.51.38.12.18.18.39.17.61l-.63,11.98c-.05,1.02.02,2.05.23,3.06.03.13.03.26,0,.38-.02.13-.07.25-.14.36-.07.11-.16.2-.27.27-.11.07-.22.12-.35.15-2.68.51-5.07,2.01-6.72,4.21C.79,51.13,0,53.86.25,56.61l.35,5.05c.09,1.49.47,2.94,1.12,4.28.65,1.34,1.56,2.53,2.67,3.51,1.47,1.29,3.25,2.16,5.16,2.52.21.04.4.15.55.31.14.16.23.37.24.59l.84,11.96c.09,1.49.47,2.94,1.12,4.28s1.56,2.53,2.67,3.51,2.41,1.72,3.8,2.18c1.4.46,2.88.64,4.34.52l4.99-.36c.61-.04,1.22-.14,1.81-.28.18-.04.36-.03.53.03s.32.17.43.31c.98,1.2,2.19,2.18,3.56,2.87,1.37.7,2.87,1.1,4.4,1.18l4.9.3c1.47.1,2.94-.09,4.34-.57,1.39-.48,2.68-1.22,3.79-2.2.47-.42.9-.88,1.29-1.37.08-.11.19-.21.32-.27.12-.06.26-.1.4-.1h.41l4.99-.24c1.7-.07,3.37-.54,4.87-1.36.13-.07.26-.11.41-.11.14,0,.28.02.41.08,1.54.67,3.21.98,4.88.9l.73-.04c.15,0,.3.02.44.09.14.06.26.16.36.27.95,1.14,2.12,2.07,3.43,2.74,1.31.68,2.74,1.08,4.21,1.2l18.68,1.6c.34.03.69.04,1.03.04,1.16,0,2.28-.18,3.32-.5-.02.22-.03.44-.03.67,0,4,3.22,7.26,7.19,7.26s7.19-3.26,7.19-7.26-3.22-7.26-7.19-7.26l.02-.02ZM98.06,96.02l-18.68-1.6c-1.14-.08-2.25-.43-3.22-1.03-.98-.6-1.8-1.43-2.4-2.41l-.3-.5c-.09-.15-.22-.28-.38-.36-.16-.08-.33-.12-.51-.11l-2.87.13c-1.47.07-2.93-.32-4.17-1.13l-.59-.38c-.17-.11-.37-.16-.57-.15-.2,0-.39.08-.55.2l-.54.43c-1.19.93-2.64,1.46-4.14,1.53l-4.99.24c-.47.02-.93,0-1.4-.07l-.66-.09c-.19-.03-.39,0-.57.09s-.32.23-.42.4l-.33.6c-.38.68-.87,1.3-1.45,1.82-.72.64-1.56,1.13-2.47,1.43-.91.31-1.87.43-2.83.36l-4.9-.3c-1.26-.06-2.47-.46-3.53-1.14-1.06-.69-1.92-1.64-2.5-2.77l-.44-.86c-.11-.23-.31-.4-.55-.48-.24-.08-.5-.07-.72.04l-.85.4c-.84.39-1.74.63-2.66.69l-4.99.36c-.96.09-1.92-.02-2.83-.32s-1.76-.78-2.48-1.42-1.32-1.41-1.74-2.29c-.42-.87-.67-1.82-.72-2.79l-1.08-15.45c-.02-.25-.14-.49-.33-.65-.19-.17-.43-.25-.68-.24l-.95.04c-.94.05-1.88-.08-2.76-.39-.89-.31-1.7-.8-2.4-1.44-.7-.63-1.27-1.4-1.67-2.26-.41-.86-.64-1.79-.69-2.74l-.36-5.05c-.09-.97.01-1.95.31-2.87.29-.93.77-1.78,1.4-2.52.63-.73,1.4-1.33,2.27-1.76.86-.42,1.81-.67,2.77-.71l4.08-.3c.17,0,.33-.07.47-.17s.26-.23.33-.38c.08-.15.11-.33.1-.5-.01-.17-.07-.34-.16-.48l-.93-1.41c-.87-1.34-1.28-2.92-1.18-4.52l.81-15.46c.01-.26-.07-.51-.24-.7s-.4-.31-.65-.33l-.95-.08c-.94-.06-1.85-.32-2.69-.74-.84-.42-1.59-1.01-2.21-1.73s-1.09-1.55-1.39-2.45c-.3-.9-.42-1.85-.35-2.8l.27-5.05c.03-.97.25-1.93.66-2.81.4-.88.98-1.67,1.7-2.32.71-.65,1.55-1.15,2.46-1.46s1.87-.44,2.83-.37l22.82,1.23c.96.03,1.9.26,2.78.67.87.41,1.66.98,2.31,1.7.09.1.18.22.3.37l.31.41c.1.13.22.23.36.29.14.07.3.1.46.09l3.47-.19c.57-.03,1.15,0,1.72.09l.69.11c.2.03.41,0,.59-.09s.33-.24.43-.42l.33-.63c.42-.8.99-1.51,1.67-2.1.74-.62,1.59-1.09,2.51-1.37.92-.28,1.88-.38,2.84-.28l18.68,1.61c2.79.24,5.07,1.86,6.09,4.33l.26.64c.08.18.21.34.38.45s.36.16.56.15l6.73-.3c5.59-.24,9.81,1,12.89,3.81,3.02,2.76,4.67,6.89,4.9,12.28.15,3.58-.36,6.67-1.53,9.2l-.22.48c-.07.15-.1.31-.09.47,0,.16.05.32.13.45l2.86,4.87c.68,1.14,1.06,2.43,1.1,3.76.04,1.33-.27,2.65-.89,3.82-.49.92-1.17,1.72-1.98,2.36l-.76.6c-.2.16-.33.39-.37.65-.03.26.03.52.19.72l.59.78c1.07,1.47,1.56,3.28,1.38,5.09l-.42,5.04c-.21,2.5-1.5,4.63-3.53,5.8l-.45.26c-.14.08-.25.19-.34.33-.09.13-.14.29-.15.45l-.37,4.41c-.01.16.01.32.07.47s.16.28.28.38l.4.33c1.81,1.5,2.73,3.8,2.52,6.32l-.42,5.04c-.33,3.97-3.28,6.74-7.16,6.74-.23,0-.46,0-.7-.03l-.06-.06ZM109.22,105.45c-2.86,0-5.19-2.36-5.19-5.26s2.33-5.26,5.19-5.26,5.19,2.36,5.19,5.26-2.33,5.26-5.19,5.26Z" fill="#f60"/>
  <path d="M110.17,100.81v-.04s.01-.03.02-.04c.33-.24.47-.64.47-1.22,0-1.02-.44-1.5-1.54-1.5h-1.35s-.05,0-.07.01c-.02,0-.04.02-.06.04s-.03.04-.04.06c0,.02-.01.05-.01.07v3.97s0,.05.01.08c0,.02.02.05.04.06.02.02.04.03.06.04.02,0,.05.01.08.01h.69s.05,0,.08-.01c.02-.01.05-.02.06-.04.02-.02.03-.04.04-.07,0-.02.01-.05.01-.08v-.98s0-.05.01-.07.02-.04.04-.06c.02-.02.04-.03.06-.04s.05-.01.07-.01h.27s.02.01.02.02l.64,1.25s.03.05.06.07.05.02.09.02h.7s.08,0,.12-.02.07-.05.09-.08.03-.08.03-.12-.01-.08-.03-.12l-.65-1.22v.02ZM109.16,99.92h-.31s-.05,0-.07-.01c-.02,0-.04-.02-.06-.04-.02-.02-.03-.04-.04-.06,0-.02-.01-.05-.01-.07v-.46s0-.05.01-.07.02-.05.04-.06c.02-.02.04-.03.06-.04.02,0,.05-.01.07-.01h.31c.3,0,.44.04.44.42s-.15.42-.44.42v-.02Z" fill="#f60"/>
</svg>