<?xml version="1.0" encoding="UTF-8"?>
<svg id="Layer_1" data-name="Layer 1" xmlns="http://www.w3.org/2000/svg" width="163" height="234" viewBox="0 0 163 234">
  <path d="M100.03,69.18l-9.33,2.22h4.11c.64-.34,2.96-1.53,5.22-2.22ZM85.18,114.09c.18,4.96.22,15.83.22,17.62,0,10.02,4.02,14.31,13.64,14.31h1.74c9.53,0,13.46-4.34,13.46-14.4,0-1.61.04-12.57.27-17.53h-9.48c.27,5.14.4,13.28.4,16.15,0,6.8-1.39,8.94-5.5,8.94s-5.59-2.15-5.59-8.86c0-2.68.13-11.18.4-16.24h-9.57.01ZM118.08,106.69l.32-4.69c-3.08.16-7.48.22-10.53.26v-5.01h8.63l.26-3.85h-8.89c0-1.76,0-3.63.03-4.85,2.79,0,7.03.1,10.01.22l.32-4.56h-17.04c.32,7.32.32,14.8,0,22.47h16.89ZM98.41,106.69l.35-4.69c-3.05.16-6.93.19-9.92.19-.1-5.84-.03-11.97.19-17.97h-6.87c.32,7.32.32,14.8,0,22.47h16.25ZM60.4,114.09c-3.04,9.97-6.44,20.4-10.33,31.31h9.66l2.15-7.07h9.75l2.06,7.07h10.02c-3.67-10.91-7.16-21.33-9.97-31.31h-13.34ZM62.86,132.88l3.76-12.48h.36l3.67,12.48h-7.79ZM33.81,50.42c-.37,1.81-.74,2.78-.53,4.71.49-1.4.68-3.15.53-4.71ZM93.9,33.2c-.33,1.52-.42,5.47-.42,5.47,0,0,2.13-10.89,2.1-13.39,0,0-1.36,6.4-1.68,7.92h0ZM96.82,22.82c-.61,1.4-1.12,8.41-1.96,13.18,1.43-3.88,2.06-10.24,1.96-13.18ZM142.39,145.4l.49-6.53c-4.25.22-9.66.27-13.82.27-.13-8.14-.04-16.68.27-25.05h-9.57c.45,10.2.45,20.62,0,31.31h22.63ZM127.68,106.69h8.41c-.1-2.34-.19-5.3-.22-7.74,2.34-4.88,4.81-9.66,7.54-14.73h-7.54c-.9,2.76-2.86,7.64-3.63,10.24h-.26c-.8-2.6-2.85-7.38-3.82-10.24h-7.99c2.82,5.26,5.58,10.37,7.77,14.92-.06,2.41-.16,5.42-.26,7.54h0ZM79.37,106.69l.35-4.69c-3.05.16-6.93.19-9.92.19-.1-5.84-.03-11.97.19-17.97h-6.87c.32,7.32.32,14.8,0,22.47h16.25ZM96.43,155.21c-2.81,9.21-5.95,18.83-9.54,28.9h8.92l1.98-6.52h9l1.9,6.52h9.25c-3.39-10.07-6.61-19.69-9.21-28.9h-12.3ZM98.71,172.55l3.47-11.52h.33l3.39,11.52h-7.19ZM157.26,72.7c-1.43-2.73-3.68-4.97-6.42-6.38-.53-1.27-1.2-2.14-1.67-2.73-.15-.2-.27-.35-.37-.49-1.05-1.59-2.51-2.72-3.69-3.62-.45-.35-.96-.74-1.21-.99-.33-.33-.66-.71-1.04-1.15-.79-.91-1.77-2.05-3.18-3.19-.49-.4-.97-.77-1.42-1.12-.37-.29-.72-.55-1.01-.8-.17-.14-.35-.27-.54-.39l-.11-.51c-.44-2.03-.86-3.95-2.53-5.51-.23-.22-.75-.67-1.32-1.16l-.08-1.35c.06-1.07-.09-2.53-.86-4.26-.37-.84-1.27-2.7-1.87-3.94v-3.4c0-1.99-1.05-3.83-2.75-4.85-1.71-1.02-3.83-1.06-5.58-.12l-.86.47c-.64.34-1.2.81-1.66,1.36l-.68.82c-.3.36-.56.76-.76,1.19-.4-.42-.87-.78-1.37-1.06-.41-.36-.87-.67-1.38-.91-.89-.41-1.53-.69-2.02-.89l-1.85-3.15c-.24-.41-.53-.77-.85-1.09.11-.52.24-1.09.36-1.62.21-.86.21-1.77,0-2.63l-1.05-4.38c.03-.4.03-.8-.03-1.2l-.14-.98c-.33-2.29-2.01-4.14-4.26-4.69-2.55-.62-2.78-.67-2.88-.69-2.42-.5-4.81.53-6.22,2.69-.08.12-.16.25-.23.38-.09.05-.17.11-.26.17l-1.69,1.18c-1.08.76-1.87,1.87-2.22,3.14l-.49,1.78c-.51.57-.89,1.23-1.13,1.93-.71,1.15-1.13,2.39-1.36,3.49h-1.19c-.17,0-.33,0-.49.02-.17-.34-.37-.67-.61-.97l-.57-.73c-.3-2.39-1.55-3.93-2.82-4.91-.05-.36-.12-.72-.23-1.07l-1.41-4.28c-.04-.12-.09-.25-.14-.37.29-1.63-.15-3.36-1.29-4.68-.73-.84-1.66-1.49-2.66-1.98-.41-.45-.89-.84-1.44-1.15C72.62.19,71.13-.09,69.74.02c-1.75.14-4.19,1.08-5.88,4.76-.45.32-.87.7-1.21,1.15-.19.25-.4.54-.6.86-.61.56-1.05,1.22-1.36,1.88-.81.75-1.42,1.75-1.68,2.9-.02.09-.07.31-.14.61-.14-.06-.28-.11-.42-.16-1.37-1-3.15-1.35-4.85-.87l-1.12.31c-.4.11-.79.27-1.16.47l-1.2.65c-1.63.88-2.72,2.51-2.92,4.35l-.13,1.16c-.99.49-1.79,1.14-2.4,1.96-.94,1.26-1.18,2.57-1.37,3.62-.08.43-.16.87-.29,1.37-.46,1.8-.99,6.61-1.21,8.67l-.12.05c-1.31.49-2.36,1.45-3,2.66-1.39-.78-3.09-.96-4.67-.39l-.46.16c-.21.07-.41.16-.61.26l-2.6,1.3c-1.44.72-2.51,2.02-2.93,3.58-.76,2.8-.95,3.51-1.02,3.83-.33.19-.68.39-1.01.61-.8.51-3.19,2.05-4.4,8.5-.62.26-1.21.56-1.71.88-2.08,1.36-3.68,3.8-4.12,4.52-.18.3-.33.57-.44.79-.05.11-.12.24-.17.33-3.02,1.57-4.57,4.24-5.1,5.32-5.01,2.39-8.48,7.51-8.48,13.42v108.37c0,4.75,2.25,8.99,5.73,11.71,2.48,4.76,7.46,8.02,13.19,8.02h128.22c8.19,0,14.86-6.67,14.86-14.86v-108.37c0-4.75-2.25-8.99-5.73-11.71h.03ZM135.74,59.85c1.63,1.33,2.53,2.7,3.8,3.96,1.26,1.26,3.29,2.38,4.17,3.72.63.96,1.26,1.47,1.62,2.49-1.36-1.36-3.23-2.68-4.45-3.2-1.21-.52-3.07-2.71-5.2-3.68,1.24.19,3.32,1.44,3.44,1.52-.16-.17-2.69-2.73-3.44-3.37-.79-.66-2.43-3.41-2.43-3.41.68.57,1.56,1.21,2.49,1.96h0ZM116.88,47.55c.09,2.97,1.08,3.93,1.08,3.93,0,0,.93-4.37,1-4.89.07-.51.82-1.58.82-1.58l.66-5.08.74-1.36s.54,2.71.58,2.59c.05-.12,0-3.3,0-3.3l.51-.44s-.16-1.7-.26-1.8c-.09-.1.35-1.31.35-1.31l.68-.82.86-.47v4.7s1.84,3.76,2.37,4.94c.53,1.18.36,1.85.36,1.85l.25,4.19s2.49,2.11,2.94,2.54c.46.43.63,1.5,1.05,3.37.42,1.88.91,5.22,1.58,8.49-1.34-1.88-3.31-10.13-3.31-10.13l.44,5.73c-1.1-2.31-1.52-6.94-1.52-6.94l-1.54-1.14-.42,4.42s-.19-9.05-.24-10.19c-.05-1.14-2.5-6.57-2.5-6.57l-.09-3.3s-.84,3.48-.75,4.25c.09.76,1.1,1.22.91,2.37-.19,1.14-.7,9.68-.7,9.68,0,0-.44-4.93-.3-8.91-.56,1.92-.93,9.26-.93,9.26l-.75.98-.05-5.82-.89.82-1.12,4.49s6.33,3.93,6.57,4.44c.23.51.23,1.24,1.21,2.43.98,1.19.51.86,2.67,3.18,0,0-.68-.56-1.89-1.45-1.22-.89-2.22-2.1-2.53-2.97-.3-.86-1.12-1.28-1.99-1.8-.87-.51-4.77-3.3-5.49-3.76-.72-.47-.63-1.57-.38-4.6h0l.02-.02ZM136.45,70.25c-5.4-.72-5.45-1.5-7.81-2.22s-3.68-2.19-5.89-4.64c0,0,1.99,1.55,3.13,2.3,1.15.75,5.42,2.76,10.57,4.56h0ZM119.1,61.18s-4.33-2.92-5.52-4.38c2.98,1.51,5.52,4.38,5.52,4.38ZM115.56,55.54s-3.68-1.58-3.93-1.81-.61-1.47-.61-1.47c1.38.44,4.54,3.28,4.54,3.28ZM107.48,34.4c0-.35-2.22.89-2.22.89,0,0,1.28-1.4,2.06-1.59l-1.54-4.93,2.66,4.54.37,13.98s.83-13.2,1.13-13.15c.3.05,2.19.93,2.19.93l.11,1.07s.24,8.58.28,8.51c.05-.07.65-8.83.65-8.83l.58,1.14v11.93l-1.99-2.95s.56,2.28,1.51,3.65c.95,1.37,1.51,3.61,1.51,3.61,0,0-.34-.37-1.34-1.5-1-1.12-4.07-1-4.07-1l1.43-.61s-1.5-.4-2.6.09-3.11-.54-3.11-.54l2.85-.12s-.47-14.77-.47-15.12h0ZM85.39,34.86l1.63-5.83h2.14l1.8,5.37-.16,8.38s1.43-2.5,1.61-3.34c.19-.84.49-3.37.58-4.39.09-1.03.7-3.01.84-4.44.14-1.43.61-2.67.51-2.97-.09-.3-.79-1.45-.79-1.45,0,0,0-3.16,1.59-4.13l-.24-.33c.22-.2.47-.35.73-.47.06-.15.11-.33.17-.54.33-1.2.83-3.05.83-3.05l1.69-1.18.16,2.9s.82-2.73,1.28-3.86c.47-1.12.67-1.43.9-1.38s2.69.64,2.69.64l.14.98-2.22-.75s.42.93.54,1.37-.79,5.28-.88,5.84-1.46,1.33-1.82,2.1c-.37.77-1.72,5.52-1.72,5.52,0,0,1.88-4.94,2.7-5.61s1.96-.47,1.96-.47c0,0-1.7.46-2.07,2.1-.37,1.65-.61,4.86-.81,6.5-.19,1.65-.95,5.24-1.63,5.61l-.12,2.56,3.1-3.94s-.51,1.6-.96,2.4c-.46.81-2.73,3.45-2.73,3.45,0,0-2.1,0-3.15.84,2.79-.21,5.61.11,6.94,1.52l-1.89-.21,1.86,3.8s-1.54-.17-3.89.3c1.93.37,4.73,1.24,4.73,1.24l3.67,2.93s-3.58-2.05-5.65-2.54-4.52-1.21-4.52-1.21c0,0,2.35,1.79,2.75,2l2,4.75s-1.23-4.47-1.18-4.47,1.19.4,1.19.4l1.54,5.07s2.26-1.14,3.49-1.35c-2.11,1.54-2.58,2.35-5.4,2.47-2.82.12-3.89,0-3.89,0l-1.44-1.54.49,1.35s-2.05-.98-2.23-1.32c-.17-.33-.33-1.47-.39-2.03-.05-.56,2.12-5.33,2.12-5.33,0,0-1.81,2.21-2,3.33-.31-1.3,1.46-5.35,1.46-5.35,0,0-3.45,5.4-3.91,8.89-.25-2.58,1.18-7.71,2.96-10.13-1.74,1.6-5.65,8.08-5.65,8.08,0,0,3.68-8.91,5.77-10.73-1.74,1.05-4.66,5.94-4.66,5.94,0,0,1.56-3.45,2.03-4.44,0,0,.09-7.58.02-8.99-.07-1.4-1.36-5.12-1.36-5.12,0,0,.35,3.34.44,4.25.09.91-.51,2.27-.51,2.27l-.51-4.49-.37,6.01,1.24-1.08-1.52,2.95-.57,7.18-.74-5.26-.68,5.77s-.12-6.01,0-8.32.35-4.32.68-4.65.82-2.13.82-2.13l-1.55,1.73h0l.02.03ZM104.68,21.87s-.7,2.94-.82,4.22c-.12,1.29-.14,10.05-.42,13.37s-1.26,8.61-1.26,8.61c0,0,.33-13.66.56-16.51.24-2.85.7-14.87.7-14.87l1.24,5.17h0ZM83.28,33.25s1.38,2.05,1.6,2.75c.21.7.03,5.43-.67,9.5-.07-1.61-.17-9.26-.17-9.26l-.75,3.58c-.33-1.54,0-6.57,0-6.57h-.01ZM82.87,53.12c1.05-1.36,3.41-2.87,3.41-2.87l-2.67,3.41,1.61-.91s-.77,1.1-1.19,1.24c-.42.14-4.18,1.71-5.77,2.82,1.33-1.93,3.55-2.33,4.6-3.68h0ZM78.83,21.09c.72.45.97.89.93,1.92-.05,1.04.09,4.72.09,4.72l.35-3.44,1.26,1.61s.25,2.14.75,6.06c.5,3.92-.37,14.74-.37,14.74,0,0-.75-11.06-.75-12.83s-.56-6.19-.56-6.19c0,0-.65,10.59-.72,10.54-.07-.05-.61-8.13-.68-9.98-.07-1.85.03-4.72-.21-5.56-.23-.84-1.99-2.24-1.99-2.24,0,0,1.18.2,1.9.65h0ZM76.93,17.49l-.41,3.03s-.52,8.82-.28,12.15c.65-4.03,1.14-6.03,1.14-6.03,0,0-.11,5.01-.28,6.24s-.63,4.8-.63,4.8l.91-1.26c-.11,1.3-.86,2.33-1.12,3.63s-.91,5.23-.91,5.23c0,0-.12-7.25-.14-9.18-.02-1.92-.25-9.18,0-10.62.25-1.44.6-5.05.31-6.59-.28-1.54-.6-4.31,0-5.68l1.41,4.28ZM66.75,10.71h.51s-.03,1.13-.16,2.3c-.01.12-.94-.72-.92-1.15.01-.43.57-1.15.57-1.15ZM60.7,19.58l1.07-.83.17,9.39s.54-4.1.79-6.45,1.42-7.53,1.42-7.53c0,0-.29,3.56-.39,5.04.56-2.26,1.47-6.81,1.7-6.86.22-.05.37.3.57.88s1.38.75,1.38.75l.12,5.84,1.09-11.33s.67-1.46,1.2-1.5c.54-.04,2.77,1.21,2.77,1.21,0,0-1.47.02-2.21.35,1.21-.02,4,.63,4.8,1.56-1.35-.67-2.79-.5-2.79-.5,0,0,.16,1.71-.02,5.05-.19,3.34-1,9.56-1,9.56,0,0,.02-4.44.16-7.22s-.68-6.94-.68-6.94l-.67,14.68c.72.61,1.32,1.4,1.1,3.16-.14-.65-1.1-1.93-1.47-2.07s-1.75.16-1.75.16c0,0,1.3.17,1.66.42.37.25.31.88.23,1.58-.09.7-.54,3.42-.54,3.42,0,0-.54-1.19-1.05-1.93,0,1.56,2.3,6.24,2.3,6.24,0,0-1.68-2.14-2.16-3.42-.47-1.28-1.79-1.09-1.82-1.49s.19-8.73.19-8.73l-1.35,8.47-.23-6.21s-.46,7.08-.68,7.4c-.23.31-1.07.56-2,.61s-2.54,1.09-2.54,1.09l.62-13.83h0v-.02ZM74.33,23.17c-.35,4.14-1.02,9.4-1.02,9.4,0,0-.56-11.33.35-17.29,0,0,1.02,3.75.67,7.89h0ZM69.01,35.53c-.09.49-1.02,1.52-1.02,1.52,0,0-1.46-2.47-2.05-3.48-.6-1.01-.94-1.27-.42-1.55.14-.08.96,0,1.28,0s1.48.77,1.84,1.37.46,1.65.37,2.14h0ZM60.24,34.65l.51,5.98.25-6.55c0-.27.18-.52.43-.63,1.28-.54,2.36-.55,2.74-.46.42.11,1.65,1.58,2.02,2.59.37,1.02,2.24,4.5,2.72,5.31l-1.4-1.33s-.12,1.65-.03,2.45c.09.81,1.3,3.03,1.3,3.03,0,0-1.63-1.79-2.89-2.7s-2.16-1.23-2.16-1.23c0,0,4.3,3.65,5.1,5.73-1.58-2.02-3.96-3.68-4.93-4,2.54,2.23,3.98,4.58,3.98,4.58,0,0-2.75-2.37-3.89-3.1,1.37,1.96,5,5.06,6.15,9.17-2.13-3.51-6.59-6.69-7.9-7.86-1.31-1.17-2.36-1.75-2.36-2.42s-.28-7.35.37-8.59h0v.03ZM52.46,18.88l1.2-.65,1.12-.31-1.19,1.37.02,1.65.44.17-2.02,1.72.43-3.94h0ZM42.3,47.99c0-.67-.27-1-.27-1l1.3-6.62,1.28-.48s-1,4.45-1.21,5.37c-.21.91.05,2.05-.25,5,.61-2.05,1.04-5.86,1.43-7s.5-2.45.92-3.59,1.88-1.8,2.49-2.7c.6-.9,1.39-2.07,3.28-2.82-2.37.14-4.3,2.25-4.3,2.25l.09-.71s.65-6.3,1.06-7.91.45-2.66.73-3.04c.28-.37,1.38-.59,1.38-.59l-.77,7.04s1.38-6.29,1.58-6.68c.2-.4.64-.63,1.38-.99s2.68-2.53,2.68-2.53c0,0-1.8,3.03-2.44,3.45s-1.37,1.48-1.37,1.48l2.2-1.48-.49,5.26c-.94-.03-2.03.54-2.03.54,0,0,4.27.46,4.85,1.72-.86-.44-2.03-.68-2.03-.68l-.25,4.84s-2.85.53-4.21,1.66c2.05-.63,4.79-.61,4.79-.61,0,0-3.07.76-4.34,1.04-1.26.28-3.21,1.41-3.21,1.41,0,0,2.24-.62,2.44-.61.2,0,.75.71.75.71-.86-.25-3.33.6-3.33.6,0,0,1.74-.13,3.05.15,1.31.28,3.7,2.67,3.7,2.67,0,0-5.7.05-7.81,1.38,3-.73,8.09.02,9.61.56s3.62-.02,3.62-.02l-4.11-4.89,3.25,2.43s.42-10.47-.33-11.92c-.75-1.45-1.99-4.04-1.99-4.04l1.5,2.15c-.61-2.62-.61-10.07-.61-10.07l1.2,4.53s.7,6.01.98,6.99.96,1.99.65,4c-.3,2.01-.75,8.74-.35,9.65.4.91,6.43,5.89,7.74,6.82,1.31.94,2.03,1.85,3.76,5.63,0,0-2.38-3.12-2.93-3.82-.54-.7-1.58-1.26-2.4-1.84s-2.65-1.82-3.64-2.84c-.98-1.02-1.74-1.7-2.47-1.82-.74-.12-2.86-.11-2.98-.05-.12.05.72,2.03.88,2.44.16.4.91.72,2.54,2.28-.67-.09-2.86-1.35-2.86-1.35,0,0,3.07,3.44,3.36,6.9-1.51-2.91-5.08-6.9-5.61-7.08-.53-.17-3.21-.16-5.01.49.91-.11,2.61.35,3.88,1.1-.44.42-.65,1.56-.86,1.61s-1.65.28-2.95.49c-1.3.21-3.37.77-4.78,1.92,1.46-.28,3.89-.36,4.5.27-1.12-.11-3.1.67-3.1.67,0,0,3.72-.33,5.07.42-.81.25-4.16.79-4.16.79,0,0,3.03.23,5.53.61-1.26.28-3.81.28-3.81.28,0,0,3.04.58,6.19,1.1,3.15.51,4.23-.05,4.23-.05,0,0-1.26.77-2.29.86-1.03.09-6.15-.21-7.99-1.03-1.85-.82-5.91-1.17-5.91-1.17,0,0,.47-4.09.49-4.16s-1.94,5.14-1.94,5.14c0,0,1-9.85,1.02-10.52h0ZM36.28,45.68l.68.09c-.48.13-1.06.75-1.06.75l-.16-3.49.54,2.65h0ZM31.31,51.17c.19-1.23.26-3.41.27-3.48s.95-3.55.95-3.55l2.6-1.3.46-.16s-.43.5-1.27,1.25-.94,1.22-.99,1.67c-.06.46-.33,1.98-.33,1.98,0,0,.65-1.94.97-1.96.31-.02,1.05.28,1.04.77s0,1.08,0,1.08l-.55.69s1.09-.78,2.02-1.32c.94-.54,1.75-.78,2.07-.53.31.26.86.99,1.64,1.52.77.53,1.18.55,1.19.91s-.61,6.6-.61,6.6c0,0-.11-5.94-.22-6.35-.12-.41-1.36-1.12-1.36-1.12,0,0,.23,1.05.75,1.81-.89-.72-1.38-2.06-1.39-2.51,0-.46-.56-.4-1.64.17-1.08.57-1.82.99-1.96,1.87-.14.88-.15,4.99-.15,4.99l.83-4.48s.29,2.74.22,3.74-.3,2.95-.3,2.95c0,0,1.47-1.46,2.09-2.44-.7,1.65-1.05,3.1-2.35,4.31l-.03.82s1.92-.64,3.9-.25c-2.29-.16-6.87,2.24-6.87,2.24l-.09-2.61s-1.27,3.27-1.25,3.23c.02-.05.19-2.36.42-3.53s.44-2.78.44-2.78c0,0-.65,2.24-1.03,3.25-.37,1-.8,2.5-.8,2.5,0,0,.13-2.4.5-3.52s.98-2.68,1.31-3.98c.33-1.31.53-3.01.53-3.01l-1.38,4.76s.2-3,.39-4.23h-.01ZM26.14,56.99s.75-4.35,1.96-5.13c1.21-.78,2.67-1.44,2.67-1.44l-.34,3.03-.25-.68c-.72.47-1.75,2.03-1.75,2.03l.75-.4s-.84,2.42-1.12,3.75c-.28,1.33-.53,4.72-.53,4.72l1.72-3.77-.09,3.38-1.47,1.36s6.35-3.46,11.11-4.09c4.77-.63,14.03,1.15,14.03,1.15,0,0-2.57.56-5.14.28-2.57-.28-4.3-.4-5.8-.4s-5.31.33-9.33,3.08c3.53-1.01,9.71-1,9.71-1,0,0-7.4,1.54-10.45,2.73s-3.58,1.19-9.43,2.45c6.03-1.84,6.88-3.68,6.88-3.68,0,0-3.98,1.61-6.88,2.76,1.27-.89,3.64-2.26,3.64-2.26l.39-1.98s-.53.53-.99,1.52c.03-.58.17-1.18.54-1.82.37-.65.19-.78.51-2.5s1.09-4.42,1.09-4.42l-1.44,1.32h.01ZM34.22,67.24c-2.1.49-7.33,2.14-13.04,2.94,0,0,18.2-6.06,23.49-5.61-2.77-.03-8.35,2.17-10.45,2.67h0ZM40.1,66.86s-3.76,1.33-5.31,1.87c-1.54.54-5.49,1.87-8.02,1.33,1.61-.02,4.93-1.28,7.71-2.01,2.78-.72,5.61-1.19,5.61-1.19h.01ZM16.84,67.12c1.88-.95,2.37-2.47,2.79-3.16.42-.68,1.49-2.16,2.4-2.75.91-.6,3.44-1.28,3.44-1.28,0,0-.39,1.42-.61,1.68-.23.26-1.44.68-2.45,1.26-1.01.57-1.79,2.18-1.89,2.26.11-.09,1.88-1.32,2.98-1.28-2.45,1.19-3.84,3.65-5.31,4.31-1.47.67-2.68.89-4.05,1.86,0,0,.84-1.96,2.72-2.91h-.02ZM152.29,188.35c0,4.74-3.85,8.59-8.59,8.59H15.48c-4.74,0-8.59-3.85-8.59-8.59v-108.36c0-4.74,3.85-8.59,8.59-8.59h15.7c3.91-1.18,13.07-3.99,15.88-5.31,3.6-1.68,12.3-5.14,16.46-5.98s10.47-1.36,10.47-1.36c0,0-12.04,2.42-15.23,4.56,0,0,2.84-.74,4.66-.67,0,0-13.53,5.85-15.78,7.57,6.87-2.81,16.51-6.63,16.51-6.63l-13.08,7.4,13.11-5.33-8.77,5.33,6.24-2.56-3.44,2.97h1.21c1.78-.88,5.26-2.61,6.79-3.53,2.1-1.26,7.71-6.03,11.11-8.17s5.15-3.09,6.8-3.01c1.65.07,9.4,2.87,11.53,2.98-3.89.39-9.12-2.14-12.1-1.72-2.98.42-14.55,9.29-14.55,9.29,0,0,9.61-5.71,13.6-6.77-4.52,2.67-12.17,7.96-12.17,7.96,0,0,10.97-6.07,15.43-7.15-7.4,4.1-12.03,6.73-14.31,8.69,4.66-2.31,6.38-2.7,6.38-2.7,0,0-3.37,2.19-5.39,4.13h16.28l8.83-3.87s-9.45,2.96-11.38,3.26c2.16-1.51,7.43-4.03,7.43-4.03l-9.71,3.17s6.05-3.21,7.52-4c1.47-.79,3.33-1.56,3.33-1.56l-10.85,3.35s4.93-3.35,6.43-3.65c-2.56.19-5.17.77-5.17.77,0,0,1.81-1.47,5.03-2.03,3.23-.56,4.42-.54,5.96-1.42,1.54-.88,5.84-2.59,8.11-3.46,2.27-.86,4.44-1.19,6.05-1.12s3.32,1.26,6.78,4.35,5.52,6.1,5.52,6.1c0,0-3.97-3.79-6.24-5.61s-4.11-3.6-6.36-3.69-8.02,1.82-11.38,3.55c7.57-2.13,9.82-2.03,11.29-1.52s2.22,1.66,2.22,1.66c0,0-3.72-.37-6.82.23,4.04-.09,6.99.96,10.33,2.73-4.42-1.05-7.41-1.28-11.08-.63,4.8-.35,7.71.63,11.13,2.13-5.52-1.26-7.41-1.4-10.92-.98,7.01.7,8.74,1.31,13.49,3.48-4.98-1.31-8.21-2.17-12.97-1.92,8.63,1.17,11.88,3.09,11.88,3.09,0,0-5.21-1.47-11.34-1.43,6.05.94,8.02,1.85,9.14,2.36-3.69-.8-7.85-.86-7.85-.86l6.28,1.54h16.25l-2.82-2.85,7.97,2.85h7.06c-1.42-.52-8.32-3.07-11.8-4.36,0,0,4.63.95,7.05,1.72,2.42.77,6.17,2.49,6.17,2.49l-.71.15h1.01c4.74,0,8.59,3.85,8.59,8.59v108.37h.02ZM24.47,155.21c-2.81,9.21-5.95,18.83-9.54,28.9h8.92l1.98-6.52h9l1.9,6.52h9.25c-3.39-10.07-6.61-19.69-9.21-28.9h-12.3ZM26.74,172.55l3.47-11.52h.33l3.39,11.52h-7.19ZM129.88,168.38h-.33c-1.03-3.35-3.67-9.5-4.91-13.17h-10.28c3.63,6.77,7.18,13.34,9.99,19.2-.08,3.1-.21,6.98-.33,9.7h10.82c-.12-3.01-.25-6.81-.29-9.95,3.01-6.28,6.19-12.43,9.7-18.95h-9.7c-1.16,3.55-3.68,9.83-4.67,13.17h0ZM80.04,155.21c-.95,4.91-3.43,14.45-4.25,19.49h-.21c-.99-5.04-3.39-14.57-4.25-19.49h-9.7c-.74,4.5-3.18,14.24-4.17,19.28h-.25c-.87-5.04-3.43-14.78-4.25-19.28h-8.67c2.15,9.29,4.29,18.91,6.19,28.9h11.72c1.12-5.37,3.22-14.12,4.13-18.95h.21c.91,4.83,3.14,13.58,4.13,18.95h11.77c1.94-9.99,4.01-19.61,6.32-28.9h-8.72ZM37.36,114.09c.18,4.07.31,8.23.31,12.39h-10.96c0-4.16.13-8.32.31-12.39h-9.62c.45,10.2.45,20.62,0,31.31h9.62c-.18-4.52-.31-8.95-.31-13.33h10.96c0,4.38-.13,8.81-.31,13.33h9.62c-.45-10.69-.45-21.11,0-31.31h-9.62ZM43.72,106.69l1.54-5.07h7l1.47,5.07h7.19c-2.63-7.83-5.13-15.31-7.16-22.47h-9.56c-2.18,7.16-4.62,14.63-7.41,22.47h6.93ZM48.66,88.75h.26l2.63,8.95h-5.58l2.7-8.95h-.01ZM31.72,106.69l6.52-22.47h-6.74l-4.62,17.36h-.26l-4.69-17.36h-7l6.58,22.47h10.21Z" fill="#f60"/>
  <path d="M32.03,215.41v.38h-2.18v5.83h-.45v-5.83h-2.19v-.38h4.83,0Z" fill="#f60"/>
  <path d="M34.74,218.82v2.81h-.45v-6.21h1.58c.72,0,1.25.14,1.61.41.35.28.53.68.53,1.22,0,.24-.04.45-.12.65-.08.2-.2.37-.35.52-.15.15-.34.27-.56.36-.22.1-.46.16-.73.19.07.04.13.1.19.18l2.14,2.69h-.39s-.09,0-.12-.03c-.03-.02-.07-.05-.1-.09l-1.99-2.52c-.05-.07-.1-.11-.16-.14s-.15-.04-.26-.04h-.82ZM34.74,218.48h1.08c.27,0,.52-.03.74-.1s.4-.16.55-.28c.15-.12.26-.27.34-.44s.12-.37.12-.58c0-.44-.14-.77-.43-.98-.29-.21-.71-.32-1.26-.32h-1.14v2.71h0Z" fill="#f60"/>
  <path d="M45.43,221.62h-.35s-.07,0-.1-.03-.05-.05-.06-.09l-.73-1.81h-3.05l-.73,1.81s-.03.06-.06.08-.07.03-.11.03h-.34l2.54-6.21h.45l2.54,6.21h0ZM41.28,219.37h2.78l-1.27-3.14c-.02-.05-.04-.1-.06-.17-.02-.06-.04-.13-.06-.2-.02.07-.04.14-.06.2s-.04.12-.06.17l-1.27,3.13h0Z" fill="#f60"/>
  <path d="M50.47,216.17c-.02.05-.06.07-.11.07-.04,0-.09-.03-.15-.08s-.14-.11-.24-.18c-.1-.07-.23-.13-.39-.18-.15-.06-.34-.08-.57-.08s-.42.03-.6.1c-.17.07-.31.15-.43.26s-.2.24-.26.39c-.06.15-.09.3-.09.46,0,.21.04.38.13.52s.21.25.35.35c.15.1.31.18.5.24.19.07.38.13.57.2.2.07.39.14.57.21.19.08.35.17.5.29s.26.26.35.43.13.38.13.64-.04.51-.13.74c-.09.23-.22.43-.39.6-.17.17-.38.3-.62.4-.25.1-.53.15-.84.15-.41,0-.76-.07-1.06-.22s-.56-.34-.78-.6l.12-.19s.08-.07.12-.07c.03,0,.06.02.1.05.04.04.09.08.15.13s.13.11.21.17c.08.06.18.12.29.17s.23.09.37.13c.14.03.3.05.48.05.25,0,.47-.04.66-.11.19-.08.36-.18.49-.31s.23-.28.31-.46c.07-.18.11-.37.11-.57,0-.22-.04-.4-.13-.54s-.21-.26-.35-.35c-.15-.09-.31-.18-.5-.24-.19-.07-.38-.13-.57-.19-.2-.06-.39-.13-.57-.21-.19-.08-.35-.17-.5-.29s-.26-.27-.36-.44c-.09-.18-.13-.4-.13-.66,0-.21.04-.41.12-.6.08-.19.19-.36.35-.51.15-.15.34-.27.56-.36s.48-.13.77-.13c.32,0,.61.05.87.15.26.1.49.26.7.47l-.11.2h0Z" fill="#f60"/>
  <path d="M57.9,221.62h-.45v-2.98h-3.89v2.98h-.45v-6.21h.45v2.9h3.89v-2.9h.45v6.21Z" fill="#f60"/>
  <path d="M68.34,221.62h-.45v-2.98h-3.89v2.98h-.45v-6.21h.45v2.9h3.89v-2.9h.45v6.21Z" fill="#f60"/>
  <path d="M75.92,221.62h-.35s-.07,0-.1-.03-.05-.05-.06-.09l-.73-1.81h-3.05l-.73,1.81s-.03.06-.06.08-.07.03-.11.03h-.34l2.54-6.21h.45l2.54,6.21h0ZM71.76,219.37h2.78l-1.27-3.14c-.02-.05-.04-.1-.06-.17-.02-.06-.04-.13-.06-.2-.02.07-.04.14-.06.2s-.04.12-.06.17l-1.27,3.13h0Z" fill="#f60"/>
  <path d="M79.99,221.3c.3,0,.56-.05.8-.15.24-.1.44-.25.6-.43.17-.18.29-.4.38-.65s.13-.52.13-.81v-3.84h.45v3.84c0,.34-.05.66-.16.96s-.26.56-.47.78c-.2.22-.45.39-.74.52-.29.12-.62.19-.98.19s-.69-.06-.98-.19-.54-.3-.74-.52-.36-.48-.47-.78-.16-.62-.16-.96v-3.84h.45v3.84c0,.29.04.56.13.81s.21.47.37.65.36.33.6.43c.24.11.5.16.8.16h0Z" fill="#f60"/>
  <path d="M85.64,221.24h2.95v.38h-3.39v-6.21h.45v5.83h0Z" fill="#f60"/>
  <path d="M91.35,221.62h-.45v-6.21h.45v6.21Z" fill="#f60"/>
  <path d="M94.73,215.43s.05.03.07.07l4.02,5.38c0-.09-.01-.17-.01-.26v-5.21h.4v6.21h-.22c-.07,0-.12-.03-.16-.09l-4.04-5.39c0,.09.01.17.01.25v5.23h-.39v-6.21h.22s.07,0,.1.02h0Z" fill="#f60"/>
  <path d="M104.78,221.33c.21,0,.41,0,.58-.03.18-.02.34-.06.49-.1.15-.04.29-.1.43-.16s.27-.13.41-.21v-1.67h-1.19s-.06,0-.08-.03c-.02-.02-.03-.04-.03-.07v-.25h1.72v2.21c-.16.11-.31.21-.48.29-.17.09-.35.16-.54.21-.19.06-.4.1-.61.13-.22.03-.46.05-.72.05-.45,0-.86-.07-1.23-.23-.37-.15-.69-.36-.95-.64-.26-.28-.47-.61-.62-1s-.22-.83-.22-1.31.07-.92.22-1.31.36-.72.62-1c.27-.28.6-.49.98-.64.38-.15.82-.23,1.29-.23.24,0,.46,0,.66.05.2.03.39.08.56.14s.33.14.48.23.29.2.43.32l-.12.19s-.06.06-.11.06c-.03,0-.05,0-.07-.02-.04-.02-.11-.06-.19-.12s-.2-.13-.34-.2c-.14-.07-.32-.13-.53-.19s-.47-.08-.78-.08c-.4,0-.77.07-1.09.19-.32.13-.6.31-.83.55s-.41.53-.53.88c-.12.35-.19.73-.19,1.16s.06.83.19,1.18c.12.35.3.64.53.88.23.24.5.43.82.56s.67.19,1.05.19h0v.02Z" fill="#f60"/>
  <path d="M116.99,220.58s.05,0,.08.03l.18.19c-.13.14-.27.26-.42.37s-.32.2-.5.28-.38.14-.59.18c-.22.04-.45.06-.71.06-.43,0-.82-.07-1.18-.23-.36-.15-.67-.36-.92-.64-.26-.28-.46-.61-.6-1s-.22-.83-.22-1.31.07-.9.22-1.29.36-.72.62-1c.27-.28.59-.5.96-.65s.79-.23,1.23-.23c.23,0,.43.02.62.05s.36.08.52.14c.16.06.31.14.46.23.14.09.28.2.42.32l-.14.2s-.06.05-.11.05c-.03,0-.06,0-.1-.05-.04-.03-.09-.07-.16-.12-.06-.05-.14-.1-.23-.15-.09-.05-.2-.1-.32-.15-.12-.05-.26-.08-.43-.11-.16-.03-.34-.05-.55-.05-.38,0-.72.07-1.04.2-.31.13-.59.32-.82.56-.23.24-.41.53-.53.88-.13.34-.19.73-.19,1.16s.06.83.19,1.18c.12.35.3.64.52.88.22.24.49.42.79.55s.63.19.99.19c.22,0,.42,0,.6-.04.17-.03.33-.07.48-.13s.28-.13.41-.22c.12-.08.25-.18.37-.3.02,0,.03-.02.04-.03.01,0,.03,0,.05,0h0Z" fill="#f60"/>
  <path d="M125.25,218.52c0,.48-.07.92-.21,1.31s-.35.72-.61,1-.57.49-.93.64-.77.23-1.21.23-.83-.07-1.2-.23c-.36-.15-.67-.37-.93-.64-.26-.28-.46-.61-.61-1s-.22-.83-.22-1.31.07-.91.22-1.3c.14-.39.35-.72.61-1s.57-.49.93-.64.76-.23,1.2-.23.85.08,1.21.23.67.36.93.64.46.61.61,1c.14.39.21.82.21,1.3ZM124.78,218.52c0-.43-.06-.82-.18-1.17-.12-.35-.29-.64-.51-.88s-.48-.43-.79-.55c-.31-.13-.65-.19-1.02-.19s-.71.06-1.01.19c-.31.13-.57.31-.79.55s-.39.53-.51.88-.18.74-.18,1.17.06.83.18,1.17.29.64.51.88.48.42.79.55c.31.12.64.19,1.01.19s.72-.06,1.02-.19c.31-.13.57-.31.79-.55s.39-.53.51-.88c.12-.34.18-.73.18-1.17Z" fill="#f60"/>
  <path d="M127.05,221.29c0-.06,0-.11.03-.16.02-.05.05-.09.09-.13.04-.04.08-.07.13-.09.05-.02.1-.03.16-.03s.11,0,.16.03.09.05.13.09.07.08.09.13.03.1.03.16-.01.11-.03.16-.05.09-.09.13c-.04.04-.08.06-.13.09-.05.02-.1.03-.16.03-.11,0-.21-.04-.29-.12s-.12-.17-.12-.29h0Z" fill="#f60"/>
  <path d="M65.86,228.19v.3h-2.62v2.01h2.18v.29h-2.18v2.07h2.62v.3h-2.98v-4.97h2.98Z" fill="#f60"/>
  <path d="M69.95,228.79s-.05.06-.09.06c-.03,0-.07-.02-.12-.07-.05-.04-.11-.09-.2-.14-.08-.05-.18-.1-.31-.15-.12-.04-.28-.07-.46-.07s-.34.03-.48.08c-.14.05-.25.12-.35.21-.09.09-.16.19-.21.31-.05.12-.07.24-.07.37,0,.17.04.31.11.42s.17.2.28.28c.12.08.25.14.4.19s.3.11.46.16c.16.05.31.11.46.17s.28.14.4.23.21.21.28.35.11.31.11.51-.04.41-.11.59-.17.34-.31.48-.3.24-.5.32-.42.12-.67.12c-.33,0-.61-.06-.85-.17-.24-.12-.44-.27-.62-.48l.1-.15s.06-.05.1-.05c.02,0,.05,0,.08.04s.07.06.12.1c.05.04.1.09.17.14s.14.09.23.13c.09.04.19.07.3.1s.24.04.38.04c.2,0,.37-.03.53-.09.16-.06.29-.14.39-.24.11-.1.19-.23.24-.37s.08-.29.08-.46c0-.18-.04-.32-.11-.43-.07-.11-.17-.21-.28-.28-.12-.08-.25-.14-.4-.19s-.3-.1-.46-.15c-.16-.05-.31-.1-.46-.16s-.28-.14-.4-.23-.21-.21-.28-.35-.11-.32-.11-.53c0-.17.03-.33.1-.48.06-.15.16-.29.28-.41.12-.12.27-.21.45-.29.18-.07.38-.11.61-.11.26,0,.49.04.7.12s.39.21.56.38l-.08.16h.01Z" fill="#f60"/>
  <path d="M74.96,228.19v.3h-1.75v4.66h-.36v-4.66h-1.76v-.3h3.87Z" fill="#f60"/>
  <path d="M75.33,232.88s0-.09.03-.13c.02-.04.04-.07.07-.1s.06-.05.1-.07.08-.03.13-.03.09,0,.13.03c.04.02.07.04.1.07.03.03.05.06.07.1.02.04.03.08.03.13s0,.09-.03.13c-.02.04-.04.07-.07.1s-.06.05-.1.07-.08.02-.13.02c-.09,0-.17-.03-.23-.09-.06-.06-.09-.14-.09-.23h0Z" fill="#f60"/>
  <path d="M80.83,228.13c.19,0,.37.03.54.08.17.06.32.14.46.25.13.11.24.25.31.42.08.17.12.36.12.59,0,.19-.03.36-.09.52s-.14.31-.23.46c-.1.15-.21.29-.34.43s-.27.28-.41.43l-1.56,1.59c.07-.02.15-.03.23-.04.08,0,.16,0,.24,0h2.14s.07,0,.09.03.03.05.03.09v.2h-3.2v-.12s0-.05.02-.08c.01-.03.03-.05.05-.07l1.7-1.72c.14-.14.27-.28.39-.42.12-.13.22-.27.31-.4.09-.14.16-.27.21-.42.05-.14.07-.3.07-.46,0-.18-.03-.34-.09-.48s-.14-.25-.24-.33c-.1-.09-.22-.15-.35-.19-.13-.04-.27-.06-.42-.06-.16,0-.3.02-.43.07s-.25.12-.35.2c-.1.09-.19.19-.25.3-.07.12-.11.25-.14.39-.02.08-.07.12-.14.12h-.03l-.17-.03c.03-.21.09-.4.17-.57.09-.17.2-.31.33-.42.13-.11.29-.2.46-.26s.36-.09.57-.09Z" fill="#f60"/>
  <path d="M87.11,230.67c0,.44-.05.81-.14,1.13s-.22.58-.38.79c-.16.21-.35.36-.57.46s-.45.15-.69.15-.48-.05-.69-.15c-.22-.1-.4-.26-.56-.46-.16-.21-.29-.47-.38-.79-.09-.32-.14-.7-.14-1.13s.05-.81.14-1.13.22-.58.38-.79c.16-.21.35-.36.56-.46s.45-.15.69-.15.48.05.69.15c.22.1.41.26.57.46.16.21.29.47.38.79.09.32.14.7.14,1.13ZM86.76,230.67c0-.4-.04-.75-.12-1.03-.08-.29-.18-.52-.31-.7s-.28-.31-.46-.4c-.17-.08-.36-.13-.55-.13s-.37.04-.55.13c-.17.08-.32.22-.46.4-.13.18-.23.42-.31.7-.08.29-.12.63-.12,1.03s.04.75.12,1.03.18.52.31.7.28.31.46.4c.17.08.36.12.55.12s.37-.04.55-.12c.17-.08.33-.21.46-.4.13-.18.23-.41.31-.7.08-.29.12-.63.12-1.03Z" fill="#f60"/>
  <path d="M89.99,228.13c.19,0,.37.03.54.08.17.06.32.14.46.25.13.11.24.25.31.42.08.17.12.36.12.59,0,.19-.03.36-.09.52s-.14.31-.23.46c-.1.15-.21.29-.34.43s-.27.28-.41.43l-1.56,1.59c.07-.02.15-.03.23-.04.08,0,.16,0,.24,0h2.14s.07,0,.09.03.03.05.03.09v.2h-3.2v-.12s0-.05.02-.08c.01-.03.03-.05.05-.07l1.7-1.72c.14-.14.27-.28.39-.42.12-.13.22-.27.31-.4.09-.14.16-.27.21-.42.05-.14.07-.3.07-.46,0-.18-.03-.34-.09-.48s-.14-.25-.24-.33c-.1-.09-.22-.15-.35-.19-.13-.04-.27-.06-.42-.06-.16,0-.3.02-.43.07s-.25.12-.35.2c-.1.09-.19.19-.25.3-.07.12-.11.25-.14.39-.02.08-.07.12-.14.12h-.03l-.17-.03c.03-.21.09-.4.17-.57.09-.17.2-.31.33-.42.13-.11.29-.2.46-.26s.36-.09.57-.09Z" fill="#f60"/>
  <path d="M94.56,228.13c.19,0,.37.03.54.08.17.06.32.14.46.25.13.11.24.25.31.42.08.17.12.36.12.59,0,.19-.03.36-.09.52s-.14.31-.23.46c-.1.15-.21.29-.34.43s-.27.28-.41.43l-1.56,1.59c.07-.02.15-.03.23-.04.08,0,.16,0,.24,0h2.14s.07,0,.09.03.03.05.03.09v.2h-3.2v-.12s0-.05.02-.08c.01-.03.03-.05.05-.07l1.7-1.72c.14-.14.27-.28.39-.42.12-.13.22-.27.31-.4.09-.14.16-.27.21-.42.05-.14.07-.3.07-.46,0-.18-.03-.34-.09-.48s-.14-.25-.24-.33c-.1-.09-.22-.15-.35-.19-.13-.04-.27-.06-.42-.06-.16,0-.3.02-.43.07s-.25.12-.35.2c-.1.09-.19.19-.25.3-.07.12-.11.25-.14.39-.02.08-.07.12-.14.12h-.03l-.17-.03c.03-.21.09-.4.17-.57.09-.17.2-.31.33-.42.13-.11.29-.2.46-.26s.36-.09.57-.09Z" fill="#f60"/>
</svg>