<?xml version="1.0" encoding="UTF-8"?>
<svg id="Layer_1" data-name="Layer 1" xmlns="http://www.w3.org/2000/svg" width="272" height="106" viewBox="0 0 272 106">
  <path d="M164.05,64.21c1.37-2.92,2.05-6.12,1.99-9.34,0-5.19-1.05-9.31-3.15-12.36-1.97-2.94-4.73-5.26-7.97-6.68-3.74-1.55-7.64-2.68-11.63-3.36-.59-.12-1.18-.24-1.76-.34-.59-.1-1.18-.2-1.77-.29-3.21-.51-6.39-1.19-9.53-2.04-2.15-.59-4.12-1.7-5.74-3.23-1.53-1.48-2.3-3.54-2.3-6.17-.02-1.24.3-2.45.92-3.52.62-1.07,1.53-1.94,2.61-2.53,2.36-1.44,5.7-2.16,10.03-2.16,2.86.05,5.69.58,8.38,1.57,2.73.97,5.33,2.26,7.76,3.83.26.17.58.24.89.2.31-.04.6-.2.8-.43l6.81-7.73c.13-.15.23-.33.29-.53.06-.19.07-.4.05-.6-.03-.2-.09-.39-.2-.57-.11-.17-.25-.32-.41-.44-2.07-1.38-4.25-2.58-6.53-3.59-2.85-1.25-5.81-2.22-8.85-2.88-3.02-.66-6.11-1-9.2-1.01-5.51,0-10.23.81-14.16,2.42-3.64,1.38-6.76,3.84-8.95,7.05-2.1,3.34-3.17,7.22-3.06,11.17,0,6.02,1.24,10.63,3.72,13.83.12.16.21.34.27.53.05.19.06.4.03.59-.03.2-.11.39-.22.55-.11.17-.25.31-.42.42-2.43,1.46-4.44,3.51-5.88,5.95-1.78,3.22-2.66,6.86-2.55,10.54,0,4.51.97,8.14,2.9,10.89,1.88,2.7,4.47,4.82,7.49,6.13,3.55,1.48,7.25,2.57,11.04,3.26.37.04.74.1,1.1.18.36.09.73.15,1.1.19l3.53.56c4.09.67,7.25,1.29,9.49,1.88,2.06.49,3.98,1.45,5.61,2.79.74.65,1.33,1.45,1.72,2.36s.57,1.89.52,2.87c0,2.76-1.33,4.9-3.98,6.43s-6.39,2.29-11.22,2.29c-3.4-.04-6.78-.62-10-1.72-3.2-1.06-6.27-2.48-9.14-4.24-.27-.17-.6-.23-.91-.18-.32.06-.6.23-.79.48l-7.03,8.92c2.33,1.95,4.92,3.58,7.69,4.83,2.98,1.37,6.12,2.39,9.33,3.04,3.36.69,6.78,1.04,10.21,1.03,6.06,0,11.22-.81,15.51-2.44,4.28-1.63,7.55-4.01,9.81-7.15,2.31-3.3,3.5-7.26,3.4-11.29,0-5.31-1.27-9.39-3.81-12.25-.11-.12-.23-.22-.33-.35.25-.16.5-.33.74-.5,2.47-1.77,4.45-4.14,5.75-6.88v.02ZM133.19,62.9l-1.64-.25-.82-.13c-2.46-.35-4.89-.93-7.25-1.72-1.77-.58-3.37-1.61-4.64-2.98-1.19-1.39-1.81-3.19-1.73-5.02,0-3.18,1.16-5.55,3.47-7.12s5.68-2.36,10.11-2.37h.68c.23,0,.46.02.68.05l.77.1,1.12.18.31.05,1.36.2c.33.04.68.1,1.04.16s.68.12,1.04.16c2.81.38,5.58.98,8.29,1.78,1.98.58,3.78,1.66,5.23,3.14,1.32,1.4,1.99,3.32,1.99,5.74.05,1.47-.25,2.93-.9,4.25-.64,1.32-1.6,2.47-2.79,3.33-1.51,1.08-3.21,1.85-5.02,2.27-.19.05-.4.05-.59,0-2.65-.58-5.66-1.11-9.05-1.59l-1.68-.22h.02Z" fill="#f60"/>
  <path d="M21.21,22.99H.99v57.31h12.71c.37,0,.73-.13,1-.39s.43-.6.45-.98v-17.24c.01-.37.17-.72.45-.98.27-.25.63-.39,1-.38h4.62c15.05,0,24.03-7.11,24.03-19.03,0-8.39-4.17-18.31-24.03-18.31h-.01ZM15.15,36.4c.02-.37.18-.72.45-.98.27-.25.63-.39,1-.39h3.81c9.91,0,10.7,2.72,10.7,6.24s-.82,7-10.7,7h-3.78c-.37,0-.73-.13-1-.38s-.43-.61-.45-.98c0,0-.03-10.51-.03-10.51Z" fill="#f60"/>
  <path d="M74.28,22.06c-14.82,0-24.78,11.79-24.78,29.35s9.96,29.81,24.78,29.81,24.78-11.98,24.78-29.81-9.96-29.35-24.78-29.35ZM74.28,68.73c-7.65,0-10.37-8.95-10.37-17.32s2.72-16.86,10.37-16.86,10.37,8.71,10.37,16.86-2.72,17.32-10.37,17.32Z" fill="#f60"/>
  <path d="M209.36,64.27c-3.02,3.09-6.04,4.47-9.8,4.47-8.58,0-13.91-6.61-13.91-17.24s5.33-16.94,13.91-16.94c1.6-.02,3.19.28,4.67.89s2.82,1.51,3.95,2.65l1.52,1.47c.28.27.65.42,1.04.42s.76-.15,1.04-.42l6.92-6.98c.13-.13.23-.28.29-.44.07-.17.1-.34.1-.52s-.03-.36-.1-.52c-.07-.17-.17-.32-.29-.44l-1.4-1.36c-4.72-4.64-11.08-7.22-17.7-7.19-16.94,0-28.32,11.89-28.32,29.58s11.37,29.57,27.65,29.57c7.89,0,14.54-2.84,19.74-8.45l1.31-1.4c.24-.26.38-.61.37-.96,0-.36-.16-.7-.41-.94l-6.96-6.75c-.28-.28-.65-.43-1.04-.43s-.76.15-1.04.43l-1.5,1.51h-.04Z" fill="#f60"/>
  <path d="M246.82,22.06c-14.82,0-24.78,11.79-24.78,29.35s9.96,29.81,24.78,29.81,24.78-11.98,24.78-29.81c.01-17.56-9.96-29.35-24.78-29.35ZM246.82,68.73c-7.65,0-10.37-8.95-10.37-17.32s2.72-16.86,10.37-16.86,10.37,8.71,10.37,16.86-2.72,17.32-10.37,17.32Z" fill="#f60"/>
  <path d="M232.7,103.9h2.67v-6.2h-2.04v-.74c.82-.07,1.63-.28,2.38-.62h.9v7.56h2.4v.91h-6.28l-.03-.91Z" fill="#f60"/>
  <path d="M239.47,104.06l.68-.68c.52.44,1.17.68,1.85.68,1.49,0,2.81-.97,2.81-3.78,0-2.08-.89-3.19-2.41-3.19-.25-.02-.5.02-.74.1s-.45.22-.64.39-.33.38-.43.61c-.1.23-.15.48-.15.73,0,1.16.68,1.79,1.97,1.79.46-.02.91-.14,1.33-.35.41-.2.78-.49,1.08-.85l.04.86c-.71.71-1.67,1.13-2.68,1.16-1.71,0-2.87-.88-2.87-2.61,0-1.61,1.44-2.72,3.07-2.72,2.04,0,3.55,1.36,3.55,4.08,0,3.4-1.87,4.7-3.87,4.7-.95.01-1.87-.31-2.59-.92h0Z" fill="#f60"/>
  <path d="M251.69,97.29h-5.32v-.95h6.69v.68c-2.44,2.56-3.04,4.47-3.19,7.77h-1.26c0-2.81,1.1-5.5,3.07-7.5h0Z" fill="#f60"/>
  <path d="M254.27,104.14c3.13-2.53,4.84-4.02,4.84-5.45,0-.97-.64-1.64-2-1.64-.84.04-1.63.4-2.21,1.01l-.68-.63c.4-.4.88-.72,1.4-.94.52-.22,1.09-.33,1.66-.34,1.86,0,3.02.99,3.02,2.48s-1.74,3.17-4.24,5.25c.58-.04,1.17-.07,1.72-.07h3.03v.94h-6.51l-.02-.62h0Z" fill="#f60"/>
  <path d="M267.71,100.57c0,.16-.04.32-.12.46s-.21.25-.36.31c-.15.07-.31.09-.47.06s-.31-.1-.42-.21c-.12-.11-.2-.26-.23-.41-.03-.16-.02-.32.04-.47s.16-.28.3-.37c.13-.09.29-.14.45-.14.1,0,.21.02.31.05.1.04.19.09.26.17.08.07.14.16.18.25.04.1.07.2.07.3h-.01Z" fill="#f60"/>
  <path d="M227.07,100.57c0,.16-.04.32-.12.46s-.21.25-.36.31c-.15.07-.31.09-.47.06s-.31-.1-.42-.21c-.12-.11-.2-.26-.23-.41-.04-.16-.02-.32.04-.47s.16-.28.3-.37c.13-.09.29-.14.45-.14.1,0,.21.02.3.05s.19.09.26.17c.07.07.13.16.18.25.04.1.06.2.07.3Z" fill="#f60"/>
</svg>