<?xml version="1.0" encoding="UTF-8"?>
<svg id="Layer_1" data-name="Layer 1" xmlns="http://www.w3.org/2000/svg" width="139" height="50" viewBox="0 0 139 50">
  <path d="M137.78,8.97c-1.03-1.29-2.85-1.94-5.44-1.94-1.14.05-2.25.34-3.27.83-1.02.49-1.92,1.18-2.65,2.03l-.6-2.28h-5.38l-.79,2.91c.47,1.29.47,2.87-.04,4.74l-4.09,15.14c-.51,1.88-1.36,3.43-2.51,4.67l-2.3,8.5H2.49l-1.74,5.73h108.4v.02h6.5c.32,0,.62-.1.87-.29.25-.19.43-.45.51-.74l3.21-11.93c.82,1.09,2.14,1.7,3.94,1.8,5.25,0,8.63-2.67,10.03-7.89l4.09-15.11c.75-2.74.57-4.82-.53-6.19h0ZM130.77,14.91l-4.09,15.11c-.38,1.41-1.35,2.07-3.05,2.07-.57,0-1.32-.08-1.64-.48-.22-.29-.25-.73-.09-1.35l4.09-15.11c.38-1.41,1.34-2.07,3.03-2.07.58,0,1.34.09,1.66.49.22.28.25.73.09,1.34Z" fill="#f60"/>
  <path d="M13.96,1.19c.07-.24.3-.89,1.3-.89.9,0,.9.52.82.8,0,.03-.02.05-.04.07-.02.02-.05.03-.08.03l-.49.09c-.09,0-.15-.04-.14-.11.02-.16-.02-.26-.25-.26-.3,0-.38.17-.46.45l-.15.53c-.08.29-.1.45.21.45.09,0,.17,0,.25-.06.07-.05.12-.12.15-.2.01-.04.04-.07.08-.09s.08-.03.12-.02l.45.09s.02,0,.03,0c.01,0,.02.02.02.03v.06c-.09.29-.38.8-1.27.8-1,0-.87-.65-.81-.89l.25-.91v.02Z" fill="#f60"/>
  <path d="M18.56,2.8s-.03.07-.06.09-.07.03-.1.03h-.47c-.08,0-.12-.04-.1-.11l.09-.32c.02-.07,0-.11-.09-.11h-.36s-.07,0-.1.03-.05.05-.06.08l-.09.32s-.03.06-.06.08c-.03.02-.06.03-.1.03h-.47c-.08,0-.11-.04-.09-.12l.43-1.55c.13-.46.35-.95,1.29-.95s.9.49.77.95c0,0-.43,1.55-.43,1.55ZM18.26,1.25c.05-.17.04-.26-.23-.26s-.33.09-.38.26l-.11.4c-.02.07.01.11.1.11h.36s.07,0,.1-.03c.03-.02.05-.05.06-.09l.11-.39h-.01Z" fill="#f60"/>
  <path d="M21.81,2.72v.08s-.02.05-.04.07-.04.03-.07.04c-.03,0-.05,0-.08,0h-.48s-.07-.02-.08-.05l-.23-.73h-.01s-.01,0-.02,0h-.17s-.07,0-.1.03-.05.05-.06.08l-.16.58s-.03.06-.06.08c-.03.02-.06.03-.1.03h-.47c-.07,0-.12-.05-.1-.11l.65-2.33s.03-.06.06-.08c.03-.02.06-.03.1-.03h.93c.74,0,.97.29.8.86-.03.15-.09.29-.18.41s-.2.23-.34.3c0,0-.02,0-.02.02v.03l.23.73h0ZM20.94.99s-.07,0-.1.03c-.03.02-.05.05-.06.08l-.07.27c-.02.07.02.11.1.11h.21c.2,0,.3-.02.37-.25.07-.23-.03-.25-.23-.25h-.22Z" fill="#f60"/>
  <path d="M24.99,1.19c.07-.24.3-.89,1.3-.89.9,0,.9.52.82.8,0,.03-.02.05-.04.07-.02.02-.05.03-.08.03l-.49.09c-.09,0-.15-.04-.14-.11.02-.16-.02-.26-.25-.26-.3,0-.38.17-.46.45l-.15.53c-.08.29-.1.45.21.45.09,0,.17,0,.25-.06.07-.05.12-.12.15-.2.01-.04.04-.07.08-.09.04-.02.08-.03.12-.02l.45.09s.02,0,.03,0c.01,0,.02.02.02.03v.06c-.09.29-.38.8-1.27.8-1,0-.87-.65-.81-.89l.25-.91v.02Z" fill="#f60"/>
  <path d="M29.81,2.1c-.07.24-.3.89-1.3.89s-.87-.65-.81-.89l.25-.91c.07-.24.3-.89,1.3-.89s.87.64.8.89l-.25.91h.01ZM29.29,1.38c.08-.29.1-.45-.21-.45s-.38.17-.45.45l-.15.53c-.08.29-.1.45.21.45s.38-.17.46-.45l.15-.53h0Z" fill="#f60"/>
  <path d="M32.88,2.1c-.07.24-.3.89-1.3.89s-.87-.65-.81-.89l.25-.91c.07-.24.3-.89,1.3-.89s.87.64.8.89l-.25.91h0ZM32.36,1.38c.08-.29.1-.45-.2-.45s-.38.17-.46.45l-.14.53c-.08.29-.1.45.2.45s.38-.17.46-.45l.15-.53h-.01Z" fill="#f60"/>
  <path d="M34.96.37c.08,0,.12.03.1.11l-.48,1.71c-.02.07,0,.11.1.11h.94c.08,0,.11.04.09.11l-.11.41s-.03.06-.06.08c-.03.02-.06.03-.1.03h-1.66c-.08,0-.11-.04-.1-.11l.65-2.33s.03-.06.06-.08c.03-.02.06-.03.1-.03h.47Z" fill="#f60"/>
  <path d="M37.76.37c.08,0,.12.03.1.11l-.65,2.33s-.03.06-.06.08c-.03.02-.06.03-.1.03h-.48c-.08,0-.11-.04-.1-.11l.65-2.33s.03-.06.06-.08c.03-.02.06-.03.1-.03,0,0,.48,0,.48,0Z" fill="#f60"/>
  <path d="M39.66.37c.07,0,.11.03.12.08l.23,1.21s.04.03.05,0l.33-1.18s.03-.06.06-.08c.03-.02.07-.03.1-.03h.47c.08,0,.11.03.1.11l-.65,2.33s-.03.06-.06.08c-.03.02-.06.03-.1.03h-.62c-.07,0-.11-.03-.12-.08l-.23-1.21s-.04-.03-.05,0l-.33,1.18s-.03.06-.06.08c-.03.02-.06.03-.1.03h-.47c-.08,0-.11-.04-.1-.11l.65-2.33s.03-.06.06-.08.06-.03.1-.03c0,0,.62,0,.62,0Z" fill="#f60"/>
  <path d="M41.94,1.19c.07-.24.3-.89,1.3-.89.88,0,.9.5.83.79,0,.03-.02.06-.05.08-.03.02-.06.03-.09.04l-.5.09c-.09,0-.13-.02-.11-.09.03-.18,0-.29-.25-.29-.3,0-.38.17-.46.45l-.15.53c-.08.29-.1.45.21.45s.38-.17.43-.35h-.26c-.08,0-.12-.04-.1-.11l.08-.29s.03-.06.06-.08c.03-.02.06-.03.1-.03h.84c.08,0,.11.03.09.11l-.13.49c-.07.24-.3.89-1.3.89s-.87-.65-.8-.89l.27-.9h-.01Z" fill="#f60"/>
  <path d="M48.5,2.8s-.03.07-.06.09c-.03.02-.07.03-.1.03h-.47c-.08,0-.11-.04-.1-.11l.09-.32c.02-.07,0-.11-.1-.11h-.36s-.07,0-.1.03c-.03.02-.05.05-.06.08l-.09.32s-.03.06-.06.08c-.03.02-.06.03-.1.03h-.47c-.08,0-.11-.04-.09-.12l.43-1.55c.13-.46.35-.95,1.29-.95s.9.49.76.95l-.43,1.55h.02ZM48.2,1.25c.05-.17.04-.26-.23-.26s-.33.09-.38.26l-.11.4c-.02.07,0,.11.1.11h.36s.07,0,.1-.03c.03-.02.05-.05.06-.08l.11-.39h0Z" fill="#f60"/>
  <path d="M50.58,1.1c.02-.07,0-.11-.1-.11h-.6c-.08,0-.11-.04-.1-.11l.11-.41s.03-.06.06-.08c.03-.02.06-.03.1-.03h2.15c.08,0,.12.03.1.11l-.11.41s-.03.06-.06.08c-.03.02-.06.03-.1.03h-.6s-.07,0-.1.03c-.03.02-.05.05-.06.08l-.48,1.71s-.03.06-.06.08c-.03.02-.06.03-.1.03h-.47c-.08,0-.11-.04-.1-.11l.5-1.71h.02Z" fill="#f60"/>
  <path d="M55.69.37c.08,0,.11.03.1.11l-.65,2.33s-.03.06-.06.08c-.03.02-.06.03-.1.03h-.46c-.08,0-.12-.04-.1-.11l.65-2.33s.03-.06.06-.08c.03-.02.06-.03.1-.03,0,0,.46,0,.46,0Z" fill="#f60"/>
  <path d="M57.33,1.1c.02-.07,0-.11-.1-.11h-.6c-.08,0-.12-.04-.1-.11l.11-.41s.03-.06.06-.08c.03-.02.06-.03.1-.03h2.16c.08,0,.12.03.1.11l-.11.41s-.03.06-.06.08c-.03.02-.06.03-.1.03h-.6s-.07,0-.1.03c-.03.02-.05.05-.06.08l-.48,1.71s-.03.06-.06.08c-.03.02-.06.03-.1.03h-.47c-.08,0-.12-.04-.1-.11l.48-1.71h.03Z" fill="#f60"/>
  <path d="M61.07,1.27c-.09,0-.12-.02-.11-.09,0-.15-.1-.24-.3-.24s-.3.09-.3.17c-.02.29,1.31.29,1.07,1.12-.03.11-.35.75-1.34.75-.88,0-.93-.5-.87-.79,0-.03.03-.06.05-.08.03-.02.06-.03.09-.04l.5-.09c.09,0,.13.02.11.09-.03.17.1.29.3.29s.39-.11.39-.2c0-.31-1.28-.24-1.04-1.08.08-.24.25-.45.47-.58.22-.14.48-.2.75-.17.86,0,.93.49.88.75,0,.03-.02.06-.05.08-.03.02-.06.03-.09.04l-.51.08h0Z" fill="#f60"/>
  <path d="M66.69.37c.08,0,.12.03.1.11l-.11.41s-.03.06-.06.08-.06.03-.1.03h-1.06s-.07,0-.1.03c-.03.02-.05.05-.06.08l-.03.12c-.02.07.02.11.1.11h.69c.08,0,.11.04.09.11l-.11.41s-.03.06-.06.08c-.03.02-.06.03-.1.03h-.69s-.07,0-.1.03c-.03.02-.05.05-.06.08l-.21.75s-.03.06-.06.08-.06.03-.1.03h-.49c-.08,0-.12-.04-.1-.11l.65-2.33s.03-.06.06-.08c.03-.02.06-.03.1-.03h1.8v-.02Z" fill="#f60"/>
  <path d="M68.28.37c.08,0,.11.03.1.11l-.65,2.33s-.03.06-.06.08-.06.03-.1.03h-.46c-.08,0-.12-.04-.1-.11l.65-2.33s.03-.06.06-.08c.03-.02.06-.03.1-.03,0,0,.46,0,.46,0Z" fill="#f60"/>
  <path d="M70.19.37s.06,0,.08.02c.02.02.04.04.05.07l.23,1.21s.04.03.05,0l.33-1.18s.03-.06.06-.08.06-.03.1-.03h.47c.08,0,.12.03.1.11l-.65,2.33s-.03.06-.06.08-.06.03-.1.03h-.62c-.07,0-.11-.03-.12-.08l-.23-1.21s-.04-.03-.05,0l-.33,1.18s-.03.06-.06.08-.06.03-.1.03h-.47c-.08,0-.12-.04-.1-.11l.65-2.33s.03-.06.06-.08c.03-.02.06-.03.1-.03h.62-.01Z" fill="#f60"/>
  <path d="M74.61.37c.08,0,.12.03.1.11l-.11.41s-.03.06-.06.08-.06.03-.1.03h-1.01s-.07,0-.1.03c-.03.02-.05.05-.06.08l-.03.12c-.02.07.02.11.1.11h.65c.08,0,.11.04.1.11l-.11.41s-.03.06-.06.08c-.03.02-.06.03-.1.03h-.65s-.07,0-.1.03c-.03.02-.05.05-.06.08l-.03.12c-.02.07,0,.11.1.11h1.01c.08,0,.12.04.1.11l-.11.41s-.03.06-.06.08-.06.03-.1.03h-1.76c-.08,0-.12-.04-.1-.11l.65-2.33s.03-.06.06-.08c.03-.02.06-.03.1-.03h1.76l-.02-.02Z" fill="#f60"/>
  <path d="M76.82,1.27c-.09,0-.12-.02-.11-.09,0-.15-.1-.24-.3-.24s-.3.09-.3.17c-.02.29,1.31.29,1.07,1.12-.03.11-.35.75-1.34.75-.88,0-.93-.5-.87-.79,0-.03.02-.06.05-.08.03-.02.06-.04.09-.04l.5-.09c.09,0,.13.02.11.09-.03.17.09.29.3.29s.39-.11.39-.2c0-.31-1.27-.24-1.04-1.08.09-.24.25-.44.47-.58s.48-.2.75-.18c.86,0,.93.49.9.75,0,.03-.03.06-.05.08-.03.02-.06.03-.09.04l-.52.08h-.01Z" fill="#f60"/>
  <path d="M79.06,1.1c.02-.07,0-.11-.1-.11h-.6c-.08,0-.11-.04-.1-.11l.11-.41s.03-.06.06-.08.06-.03.1-.03h2.15c.09,0,.12.03.1.11l-.11.41s-.03.06-.06.08-.06.03-.1.03h-.6s-.07,0-.1.03c-.03.02-.05.05-.06.08l-.48,1.71s-.03.06-.06.08-.06.03-.1.03h-.47c-.08,0-.11-.04-.1-.11l.5-1.71h.02Z" fill="#f60"/>
  <path d="M25.17,29.95l4.09-15.14c.36-1.32.88-2.49,1.56-3.49-.12-.93-.42-1.71-.92-2.34-1.03-1.29-2.85-1.94-5.44-1.94h0c-1.14.07-2.25.35-3.27.84s-1.92,1.18-2.65,2.03l-.6-2.28h-5.38l-8.12,29.98h7.6l6.07-22.44c.38-1.41,1.34-2.07,3.03-2.07.58,0,1.34.09,1.66.49.22.28.25.73.09,1.35l-6.14,22.67h7.6l.78-2.87c-.49-1.3-.48-2.89.03-4.78h0Z" fill="#f60"/>
  <path d="M48.89,9.4c-1.27-1.58-3.7-2.37-7.25-2.37h0c-6.51,0-10.53,2.66-11.95,7.88l-4.09,15.14c-.67,2.45-.45,4.39.65,5.75,1.25,1.57,3.69,2.37,7.23,2.37,4.21,0,7.38-1.13,9.49-3.32l6.59-24.35c-.16-.4-.38-.77-.65-1.11h-.02ZM41.58,14.8l-4.09,15.14c-.33,1.24-1.12,1.76-2.64,1.76h0c-.66,0-1.14-.12-1.31-.32-.16-.2-.14-.52,0-1l4.09-15.14c.34-1.24,1.13-1.77,2.62-1.77h.04c.64,0,1.13.13,1.29.33s.14.52,0,.99h0Z" fill="#f60"/>
  <path d="M63.37,29.99l.72-2.73.08-.31h1.26l1.92-7.1c-.45-1.34-.5-2.77-.09-4.29l.19-.73c.36-1.33.89-2.5,1.57-3.51-.11-.93-.42-1.72-.92-2.35-1.03-1.29-2.85-1.94-5.44-1.94h0c-1.14.07-2.25.35-3.27.84s-1.92,1.18-2.65,2.03l-.6-2.28h-5.39l-8.12,29.98h7.6l6.07-22.44c.38-1.41,1.34-2.07,3.03-2.07.58,0,1.34.09,1.66.49.22.28.25.73.09,1.35l-6.14,22.67h7.6l.78-2.88c-.47-1.29-.46-2.87.04-4.72h0Z" fill="#f60"/>
  <path d="M83.74,29.91c.94-3.5-.45-6.49-4.1-8.9-3.27-2.17-4.72-4.04-4.31-5.56l.07-.29c.39-1.42,1.36-2.07,3.06-2.07.58,0,1.34.08,1.65.48.22.28.25.73.07,1.35l-.79,2.95h7.6l.72-2.71c.17-.64.28-1.25.34-1.82h-3.08l.15-.52,1.14-4.18c-1.38-1.07-3.53-1.63-6.44-1.63v.03c-6.51,0-10.54,2.66-11.96,7.9l-.19.72c-.92,3.41.47,6.36,4.13,8.78,3.22,2.14,4.73,3.99,4.35,5.36l-.07.29c-.38,1.41-1.33,2.07-3.01,2.07h-.04c-.57,0-1.33-.09-1.65-.49-.22-.28-.25-.73-.08-1.34l.78-2.97h-7.6l-.72,2.73c-.67,2.45-.45,4.38.64,5.74,1.27,1.58,3.7,2.38,7.25,2.38,6.51,0,10.53-2.65,11.95-7.87l.12-.42h.02Z" fill="#f60"/>
  <path d="M118.57,9.4c-1.28-1.58-3.71-2.37-7.25-2.37h0c-6.51,0-10.53,2.66-11.95,7.88l-4.09,15.14c-.67,2.45-.45,4.39.65,5.75,1.25,1.57,3.69,2.37,7.23,2.37,6.53,0,10.57-2.67,11.99-7.89l4.09-15.14c.66-2.45.45-4.38-.64-5.74h-.03ZM111.26,14.8l-4.09,15.14c-.33,1.24-1.12,1.76-2.65,1.76h0c-.66,0-1.14-.12-1.31-.32-.16-.2-.14-.52,0-1l4.09-15.14c.34-1.24,1.13-1.77,2.62-1.77h.04c.64,0,1.13.13,1.29.33s.14.52,0,.99h0Z" fill="#f60"/>
  <path d="M99.6,12.94c.91-2.04,2.32-3.59,4.2-4.65l.25-.91h-4.7l1.77-6.53h-7.61l-1.77,6.53h-4.7l-1.52,5.55h4.7l-6.67,24.65h7.6l6.67-24.65h1.78Z" fill="#f60"/>
</svg>