<?xml version="1.0" encoding="UTF-8"?>
<svg id="Layer_1" data-name="Layer 1" xmlns="http://www.w3.org/2000/svg" width="259" height="142" viewBox="0 0 259 142">
  <path d="M251.27,30.73l6.69-.48.2-2.22h-40.25l-.2,2.22,6.53.48-3.74,47.57h-.08l-32.48-50.27h-50.67l-21.62,51.42h-.08l-13.32-51.42h-42.73l-.2,2.22,6.6.48-5.8,63.57-5.71.05c-.8.02-1.59-.1-2.35-.34-.93-.41-1.74-1.04-2.38-1.84-1.08-1.26-1.93-2.7-2.51-4.25-.95-2.25-1.87-4.84-2.78-7.75-.9-2.92-1.63-5.09-2.11-6.53-.62-1.79-1.48-3.49-2.54-5.05-1.02-1.38-2.38-2.49-3.94-3.21-1.93-.89-4.04-1.34-6.16-1.31v-.1c5.73-.91,10.39-2.9,13.97-5.97,3.59-3.07,5.63-7.37,6.15-12.88.33-2.69,0-5.41-.94-7.95-.84-2.16-2.31-4.02-4.22-5.34-2.02-1.37-4.27-2.35-6.64-2.91-2.81-.64-5.69-.95-8.58-.91H6.46l-.2,2.22,6.6.48-5.8,63.57-6.69.48-.2,2.23h24.36l.2-2.23-6.61-.48,2.71-29.68c.67,0,1.63-.05,2.9-.05.73,0,1.45.19,2.09.56.74.47,1.37,1.11,1.82,1.86,1.24,1.83,2.19,3.85,2.82,5.97.51,1.53.89,2.78,1.14,3.75,1.77,6.53,3.06,10.81,3.84,12.84.63,1.78,1.62,3.42,2.91,4.81.97,1.05,2.21,1.81,3.58,2.2,1.69.35,3.41.51,5.13.47h46.12l.2-2.23-6.48-.48,4.95-61.29h.08l16.88,64.96h1.63l26.23-62.69h.09l-5.47,59.02-6.69.48-.2,2.23h64.48l.2-2.23-6.53-.48,3.65-46.7h.09l32.46,50.37h2.64l5.66-67.24,6.65-.48,6.53.48-5.8,63.57-6.69.48-.2,2.23h24.37l.2-2.23-6.6-.48,5.76-63.54v-.03ZM22.84,61.91c-.82,0-1.45,0-1.76-.05l2.81-30.79c1.38-.24,2.78-.37,4.18-.39,1.52-.03,3.03.2,4.47.69,1.31.46,2.48,1.24,3.42,2.27,1.1,1.28,1.84,2.84,2.12,4.51.43,2.33.51,4.71.24,7.07-.51,5.55-1.93,9.72-4.27,12.51s-6.08,4.19-11.21,4.19h0ZM84.41,94.3l-6.64.48-6.53-.48,5.8-63.57,6.64-.47,6.53.47-5.8,63.57ZM155.52,94.3l-6.64.48-6.53-.48,5.8-63.57,6.64-.47,6.53.47-5.8,63.57ZM179.79,94.3l-6.64.48-6.53-.48,5.79-63.57,6.43-.47,6.3.47-5.35,63.57h0Z" fill="#f60"/>
  <path d="M67.74,118.86c.28,0,.55.03.82.1.22.05.42.15.6.28.16.12.28.27.36.45.08.19.12.39.11.6,0,.15-.03.29-.08.42-.06.14-.13.27-.23.38-.11.12-.23.22-.37.3-.16.09-.33.15-.51.2.39.03.76.18,1.05.43.12.11.22.25.28.41.06.15.09.32.09.49,0,.22-.04.44-.13.64-.09.19-.22.35-.38.48-.18.14-.39.24-.61.3-.27.07-.54.11-.82.11h-1.88v-5.58h1.7ZM66.49,119.19v2.28h1.26c.23,0,.46-.03.69-.1.17-.06.33-.14.47-.26.12-.1.21-.22.27-.37.06-.13.09-.27.09-.42s-.03-.31-.09-.45c-.07-.14-.16-.27-.28-.36-.34-.22-.74-.32-1.14-.28l-1.25-.04h-.02ZM67.94,124.09c.41.03.82-.08,1.16-.32.13-.11.23-.24.3-.4.07-.15.1-.32.09-.49,0-.16-.03-.33-.11-.47-.07-.14-.17-.27-.3-.36-.14-.11-.31-.18-.48-.23-.21-.05-.43-.08-.65-.08h-1.46v2.35s1.45,0,1.45,0Z" fill="#f60"/>
  <path d="M80.52,121.66c0,.4-.06.8-.2,1.18-.13.33-.32.64-.57.9-.25.25-.54.45-.87.57-.36.14-.74.21-1.13.2-.39,0-.77-.06-1.13-.2-.33-.12-.63-.32-.88-.57-.24-.26-.44-.56-.56-.9-.14-.38-.21-.77-.2-1.18,0-.4.07-.79.2-1.17.12-.33.32-.64.56-.9.25-.26.55-.45.88-.58.36-.14.74-.21,1.13-.2.39,0,.77.06,1.13.2.33.13.63.32.87.57.25.26.44.57.57.91.14.37.2.77.2,1.17ZM80.09,121.66c0-.36-.05-.71-.16-1.05-.1-.3-.26-.58-.48-.82-.21-.22-.46-.39-.74-.5-.3-.12-.62-.18-.95-.17-.33,0-.65.06-.95.17-.28.11-.53.28-.74.5-.22.23-.38.51-.48.82-.22.69-.22,1.42,0,2.11.1.3.27.58.48.82.21.21.46.38.74.49.3.12.63.18.95.17.32,0,.65-.05.95-.17.28-.1.54-.27.74-.49.22-.24.38-.51.48-.82.11-.34.17-.7.16-1.05h0Z" fill="#f60"/>
  <path d="M88.08,124.16c.26,0,.51-.05.75-.15.21-.09.4-.22.56-.38.15-.17.27-.37.35-.59.08-.23.12-.48.12-.73v-3.45h.42v3.45c0,.28-.05.56-.15.82-.09.26-.24.5-.43.7-.2.2-.43.36-.69.47-.59.23-1.25.23-1.84,0-.26-.11-.49-.27-.69-.47-.19-.2-.34-.44-.43-.7-.1-.26-.15-.54-.15-.82v-3.45h.42v3.45c0,.25.04.49.12.73.08.22.19.41.35.58.15.17.34.31.56.39.24.1.49.15.75.15h-.02Z" fill="#f60"/>
  <path d="M99.85,119.21h-2.04v5.24h-.42v-5.24h-2.06v-.34h4.52v.34Z" fill="#f60"/>
  <path d="M105.35,124.45h-.42v-5.58h.42v5.58Z" fill="#f60"/>
  <path d="M116.59,125.68h-.35s-.1,0-.14-.02c-.05-.02-.09-.05-.12-.08l-1.24-1.28c-.37.14-.76.21-1.16.21s-.77-.06-1.13-.2c-.33-.13-.62-.32-.87-.57-.25-.26-.44-.56-.56-.9-.14-.38-.21-.77-.2-1.18,0-.4.06-.79.2-1.17.12-.34.31-.64.56-.9.25-.25.54-.45.87-.58.36-.14.74-.21,1.13-.2.39,0,.77.06,1.13.2.33.13.63.32.88.57.25.26.44.57.56.91.23.63.27,1.31.12,1.96-.05.24-.14.47-.25.69-.1.21-.24.4-.4.56-.16.17-.33.31-.53.43l1.51,1.56h0ZM111.23,121.66c0,.36.05.72.17,1.05.1.3.27.58.48.82.21.22.46.38.74.49.61.23,1.29.23,1.9,0,.28-.11.53-.28.74-.49.21-.24.37-.51.47-.82.23-.68.23-1.42,0-2.11-.1-.3-.26-.58-.47-.82-.21-.22-.46-.39-.74-.5-.61-.23-1.29-.23-1.9,0-.28.11-.53.28-.74.5-.22.23-.38.51-.48.82-.12.34-.18.69-.17,1.05h0Z" fill="#f60"/>
  <path d="M123.93,124.16c.26,0,.51-.05.74-.15.21-.08.41-.22.56-.38.16-.17.28-.37.35-.59.08-.23.12-.48.12-.73v-3.45h.42v3.45c0,.28-.06.56-.15.82-.1.26-.25.5-.44.7-.2.2-.43.36-.69.47-.29.12-.6.18-.92.17-.32,0-.63-.05-.92-.17-.26-.11-.5-.26-.69-.47-.19-.2-.34-.44-.44-.7-.1-.26-.14-.54-.15-.82v-3.45h.42v3.45c0,.25.04.49.11.73.08.21.2.41.35.58.16.17.35.31.56.39.24.1.49.15.75.15h.02Z" fill="#f60"/>
  <path d="M135.37,124.11v.33h-3.48v-5.58h3.48v.33h-3.06v2.26h2.55v.33h-2.55v2.33s3.06,0,3.06,0Z" fill="#f60"/>
  <path d="M151.59,118.86v5.58h-.43v-2.66h-3.64v2.68h-.42v-5.58h.42v2.6h3.64v-2.6l.43-.02Z" fill="#f60"/>
  <path d="M162.58,121.66c0,.4-.06.8-.19,1.18-.13.33-.32.64-.57.9-.25.25-.54.45-.87.57-.36.14-.74.21-1.13.2-.38,0-.77-.06-1.13-.2-.33-.12-.63-.32-.88-.57-.24-.26-.44-.56-.56-.9-.14-.38-.21-.77-.2-1.18,0-.4.07-.79.2-1.17.12-.33.32-.64.56-.9.25-.26.55-.45.88-.58.36-.14.74-.21,1.13-.2.39,0,.77.06,1.13.2.33.13.63.32.87.57.25.26.44.57.57.91.13.37.2.77.19,1.17ZM162.15,121.66c0-.36-.05-.71-.16-1.05-.1-.3-.26-.58-.48-.82-.21-.22-.46-.39-.74-.5-.3-.12-.62-.18-.95-.17-.33,0-.65.06-.96.17-.28.11-.53.28-.74.5-.22.23-.38.51-.48.82-.22.69-.22,1.42,0,2.11.1.3.27.58.48.82.21.21.46.38.74.49.31.12.63.18.96.17.32,0,.65-.05.95-.17.28-.1.54-.27.74-.49.21-.24.38-.51.48-.82.11-.34.17-.7.16-1.05h0Z" fill="#f60"/>
  <path d="M171.48,119.21h-2.05v5.24h-.42v-5.24h-2.05v-.34h4.52v.34Z" fill="#f60"/>
  <path d="M180.06,124.11v.33h-3.49v-5.58h3.49v.33h-3.06v2.26h2.51v.33h-2.55v2.33s3.1,0,3.1,0Z" fill="#f60"/>
  <path d="M188.62,124.1v.34h-3.18v-5.58h.42v5.24s2.76,0,2.76,0Z" fill="#f60"/>
  <path d="M52.25,141.59v.29h-3v-.29h1.33v-4.82l-1.28,1.09s-.04,0-.06,0-.04,0-.06,0c-.03,0-.07-.02-.09-.05l-.12-.16,1.68-1.42h.31v5.31l1.28.04h0Z" fill="#f60"/>
  <path d="M60.11,139.57l.23-.32c.07-.1.13-.19.19-.29-.16.17-.36.31-.58.4-.23.09-.48.14-.73.14-.22,0-.44-.04-.65-.11-.2-.07-.38-.18-.53-.32-.15-.14-.26-.32-.34-.51-.08-.21-.13-.43-.12-.65,0-.23.05-.46.14-.67.09-.2.22-.38.38-.53.17-.15.37-.27.59-.35.24-.09.49-.13.74-.13s.48.04.71.13c.21.08.39.2.55.35.16.16.28.35.36.55.09.23.14.47.13.72,0,.14-.02.27-.05.41s-.08.27-.14.4c-.07.13-.14.26-.22.4l-.3.45-1.53,2.14s-.05.06-.09.07c-.04.02-.08.02-.11.02h-.35s1.72-2.3,1.72-2.3ZM59.29,139.21c.21,0,.43-.04.63-.11.17-.07.33-.17.47-.3.12-.12.22-.26.29-.42.06-.15.1-.3.1-.46,0-.19-.04-.38-.11-.56-.06-.16-.16-.31-.29-.43s-.28-.22-.44-.28c-.18-.07-.36-.11-.56-.11s-.4.03-.59.1c-.17.07-.32.16-.46.28-.13.12-.23.26-.3.43s-.11.36-.11.55.03.38.1.56c.06.16.16.3.28.42s.27.21.43.26c.19.07.39.1.59.09h-.03v-.02Z" fill="#f60"/>
  <path d="M67.19,138.51c.17-.05.34-.08.51-.1.15,0,.31,0,.47,0,.28,0,.55.04.82.12.21.08.41.2.57.35.16.15.28.33.35.53.08.21.13.44.12.67,0,.28-.05.56-.16.82-.1.22-.25.42-.43.59-.19.17-.41.29-.64.38-.25.09-.51.13-.78.13-.15,0-.31,0-.46,0-.14-.03-.28-.06-.41-.11-.12-.05-.24-.1-.36-.16-.1-.05-.19-.12-.28-.19l.11-.15s.03-.03.05-.04c.02,0,.04,0,.06,0,.06,0,.11.03.16.06.08.05.17.1.26.13.12.06.25.1.38.13.16.04.34.07.51.07.21,0,.43-.04.63-.11.19-.07.36-.17.51-.3.14-.14.26-.3.33-.49.09-.21.13-.43.12-.65,0-.19-.03-.38-.1-.56-.06-.16-.15-.31-.28-.43-.14-.12-.3-.22-.47-.28-.22-.07-.44-.1-.67-.1-.17,0-.33,0-.5,0-.18,0-.36.07-.56.11l-.24-.07.45-2.45h2.62v.16s0,.05-.01.07c0,.02-.02.04-.04.06-.05.04-.11.05-.17.05h-2.11l-.35,1.78h-.01Z" fill="#f60"/>
  <path d="M79.29,139.98v.27h-1.05v1.63h-.34v-1.63h-2.84s-.04-.04-.05-.07v-.19l2.92-3.71h.34v3.69h1.02ZM77.88,139.98v-3.23l-2.51,3.26,2.51-.03Z" fill="#f60"/>
  <path d="M90.53,139.04h1.91v.32h-1.91v-.32Z" fill="#f60"/>
  <path d="M108.33,141.88h-.47s-.07-.05-.09-.08l-1.87-2.26-.07-.08-.08-.05h-1v2.52h-.42v-5.57h1.49c.53-.04,1.06.09,1.5.38.17.13.3.29.39.48s.12.4.11.61c0,.2-.03.39-.11.57-.08.18-.19.34-.33.48-.16.14-.33.25-.52.33-.22.09-.45.14-.69.16.07.04.13.1.18.16l2,2.36h-.02ZM105.75,139.06c.23,0,.47-.03.69-.09.18-.05.36-.14.51-.25.14-.11.25-.24.33-.4.07-.16.11-.34.11-.52.01-.17-.02-.34-.09-.5-.07-.15-.18-.29-.31-.39-.36-.21-.77-.31-1.18-.29h-1.06v2.45h1,0Z" fill="#f60"/>
  <path d="M113.84,141.87h-.45v-5.57h.42l.03,5.57Z" fill="#f60"/>
  <path d="M125.41,136.3v5.57h-.37v-4.97l-2.28,3.9s-.04.06-.07.08-.06.03-.1.03h-.07s-.07,0-.09-.03c-.03-.02-.05-.04-.07-.07l-2.35-3.91v4.98h-.38v-5.57h.38l.07.07,2.35,3.88c.04.08.08.16.11.24l.05-.12s0-.08.07-.11l2.28-3.88s.04-.05.07-.07h.41v-.02Z" fill="#f60"/>
  <path d="M131.66,141.87h-.43v-5.57h.43v5.57Z" fill="#f60"/>
  <path d="M141.95,136.3v5.57h-.28s-.05-.03-.07-.06l-3.78-4.84v4.91h-.37v-5.57h.3s.05.03.07.06l3.77,4.83v-4.9h.36,0Z" fill="#f60"/>
  <path d="M148.23,141.87h-.42v-5.57h.42v5.57Z" fill="#f60"/>
  <path d="M160.09,139.04h1.91v.32h-1.91v-.32Z" fill="#f60"/>
  <path d="M174.27,141.87h-.42v-5.57h.42v5.57Z" fill="#f60"/>
  <path d="M183.88,136.64h-2.05v5.23h-.42v-5.23h-2.06v-.34h4.52v.34h0Z" fill="#f60"/>
  <path d="M192.82,141.87h-.43s-.04-.05-.05-.08l-.68-1.63h-2.86l-.69,1.63s-.03.06-.06.08h-.4l2.38-5.57h.41l2.37,5.57h.01ZM191.53,139.85l-1.18-2.82c-.05-.11-.09-.22-.11-.33,0,.07-.04.12-.06.18-.02.05-.03.1-.06.15l-1.18,2.82h2.6-.01Z" fill="#f60"/>
  <path d="M201.07,141.53v.34h-3.18v-5.57h.43v5.23h2.75Z" fill="#f60"/>
  <path d="M207.19,139.58v2.29h-.42v-2.29l-2.15-3.26h.47s.04.04.06.07l1.63,2.56c.04.06.07.11.1.17l.08.17.07-.17c.03-.06.06-.12.1-.17l1.63-2.56s.03-.05.06-.07h.47l-2.09,3.26h-.01Z" fill="#f60"/>
  <path d="M39.01,128.77h-19.96v.27h19.96v-.27Z" fill="#f60"/>
  <path d="M239.28,128.77h-19.96v.27h19.96v-.27Z" fill="#f60"/>
  <path d="M142.27.06h-1.07c-.09-.03-.18-.03-.28-.02-.09,0-.18.05-.26.1s-.14.12-.19.2-.08.17-.09.26c-.1.39-.29.75-.57,1.03-.28.29-.63.49-1.02.6-1.2.25-1.3.95-1.29,1.81v.22c-.06.69,0,.73.68.6.47-.09.93-.25,1.39-.38l.55-.14c-.17.7-.48,1.36-.93,1.93-.44.57-1,1.04-1.64,1.38-.77.47-1.65.71-2.55.69-.9-.02-1.77-.29-2.52-.79-.55-.35-1-.83-1.31-1.4s-.47-1.21-.46-1.86c.29.11.45.18.61.23l1.33.35c.47.12.66-.06.67-.52,0-.42.04-.84.12-1.25.07-.38-.07-.55-.45-.62-.41-.07-.79-.25-1.1-.51-.32-.27-.56-.61-.7-1-.12-.3-.11-.76-.33-.89s-.73-.06-1.1-.07h-.62c-.08-.02-.16-.02-.24,0-.08,0-.15.04-.22.09-.06.04-.12.1-.16.17-.04.07-.07.14-.08.22-.14.43-.37.83-.69,1.15s-.71.57-1.13.71c-.65.25-1.01.71-1.07,1.39v.06c-.11,1.27-.07,1.31,1.29.93.39-.11.82-.24,1.19-.38-.25,2.16-2.63,3.95-4.9,3.97-2.27.02-4.57-1.98-4.28-3.93l1.83.49c.46.11.67-.07.69-.52.01-.4.05-.8.11-1.19.06-.41-.09-.61-.51-.71-.39-.08-.75-.25-1.05-.51s-.53-.59-.67-.96c-.12-.3-.11-.75-.33-.89-.23-.14-.72-.07-1.09-.07h-.51c-.51-.07-.69.11-.74.62-.38,4.39-.78,8.79-1.2,13.18-.05.53.11.68.64.67h25.05c.51,0,.69-.13.74-.64.16-2.11.38-4.24.57-6.35l.61-6.77c.02-.44-.22-.66-.73-.66v-.02Z" fill="#f60"/>
</svg>