<?xml version="1.0" encoding="UTF-8"?>
<svg id="Layer_1" data-name="Layer 1" xmlns="http://www.w3.org/2000/svg" width="316" height="195" viewBox="0 0 316 195">
  <path d="M15.78,133.76c-5.31.17-9.14-1.05-11.49-3.59-2.35-2.53-3.52-5.82-3.52-9.84,0-3.74.75-7.44,2.18-10.9,2.37-5.82,5.52-11.29,9.36-16.27,3.87-5.15,8.43-9.74,13.56-13.64,5-3.78,9.92-5.86,14.75-6.24,5.04-.34,7.57,2.33,7.57,8.1-.1,3.13-.86,6.2-2.23,9.02-1.61,3.49-3.87,6.65-6.67,9.29-.45.67-1.08,1.2-1.82,1.53-.67.31-1.39.5-2.12.56-.42.04-.84,0-1.24-.14-.16-.04-.3-.13-.4-.27-.1-.13-.14-.3-.13-.46,0-.69,1.14-1.76,3.44-3.3,2.84-1.93,5.14-4.56,6.68-7.63,1.76-3.33,2.64-6.41,2.64-9.23.11-1.67-.43-3.31-1.5-4.59-1.01-1.09-2.6-1.57-4.82-1.45-3.8.29-7.99,2.28-12.58,5.92-4.84,3.89-9.2,8.34-12.99,13.26-3.87,4.87-7.14,10.18-9.73,15.83-1.78,3.59-2.74,7.54-2.8,11.54,0,3.54,1,6.25,3,8.08,2,1.84,5.51,2.85,10.46,2.92,5.22-.24,10.34-1.59,15.01-3.94,5.03-2.43,9.73-5.49,13.98-9.12,3.82-3.18,7.2-6.85,10.04-10.93.41-.52.76-.8,1.03-.83.21,0,.34.12.41.41-.02.26-.13.5-.31.69-2.92,4.22-6.36,8.05-10.24,11.41-4.31,3.81-9.1,7.05-14.24,9.64-4.73,2.5-9.95,3.93-15.3,4.19l.02-.02Z" fill="#f60"/>
  <path d="M14.8,134.34c-4.95,0-8.63-1.27-10.97-3.79-2.33-2.52-3.67-6.06-3.67-10.22.02-3.81.77-7.58,2.22-11.11,2.4-5.86,5.57-11.38,9.44-16.4,3.91-5.2,8.51-9.83,13.68-13.77,5.07-3.83,10.15-5.97,15.07-6.36,2.48-.16,4.43.37,5.8,1.6,1.6,1.43,2.4,3.8,2.4,7.07-.1,3.21-.88,6.36-2.27,9.25-1.63,3.54-3.93,6.74-6.76,9.42-.51.74-1.21,1.32-2.02,1.69-.74.34-1.53.55-2.33.61-.51.04-1.02-.01-1.5-.18-.27-.08-.5-.25-.66-.48s-.24-.5-.24-.78c0-.63.43-1.58,3.67-3.77,2.76-1.88,4.99-4.44,6.49-7.43,1.71-3.24,2.57-6.26,2.57-8.95.09-1.53-.4-3.03-1.38-4.21-.88-.96-2.3-1.38-4.34-1.26-3.62.28-7.74,2.23-12.23,5.79-4.8,3.87-9.12,8.29-12.89,13.16-3.83,4.83-7.07,10.1-9.64,15.7-1.75,3.52-2.69,7.39-2.75,11.32,0,3.37.95,5.95,2.82,7.67,1.87,1.72,5.3,2.69,10.05,2.75,5.13-.24,10.15-1.57,14.73-3.88,4.98-2.41,9.64-5.45,13.85-9.04,3.78-3.15,7.12-6.78,9.93-10.81.56-.69,1.01-1.04,1.47-1.09.25-.02.5.06.7.21.2.16.33.39.36.64v.12c-.02.38-.18.74-.43,1.01-2.94,4.25-6.41,8.11-10.33,11.48-4.35,3.85-9.18,7.13-14.36,9.75-4.8,2.53-10.1,3.99-15.52,4.26h-.96v.03ZM5.41,130.45c2.28,1.96,5.76,2.88,10.33,2.75,5.25-.27,10.37-1.68,15.01-4.13,5-2.53,9.66-5.68,13.87-9.37-4.26,3.62-8.97,6.69-14,9.12-4.75,2.39-9.95,3.75-15.26,4-4.41-.09-7.75-.88-9.95-2.38h0ZM41.43,73.82h-.77c-4.67.37-9.53,2.43-14.42,6.12-5.09,3.87-9.61,8.42-13.45,13.53-3.8,4.94-6.93,10.36-9.29,16.13-1.27,3.12-1.98,6.43-2.11,9.79.3-3.46,1.23-6.84,2.75-9.97,2.61-5.68,5.9-11.03,9.8-15.93,3.83-4.95,8.22-9.43,13.08-13.36,4.68-3.72,9.03-5.76,12.91-6.05,2.41-.12,4.19.43,5.31,1.65,1.16,1.39,1.76,3.16,1.65,4.97,0,2.91-.91,6.1-2.71,9.49-1.59,3.16-3.96,5.86-6.88,7.85-3.06,2.07-3.15,2.75-3.15,2.83s0,.15.14.19c.32.1.65.14.98.1.66-.06,1.31-.22,1.91-.5.63-.29,1.17-.75,1.56-1.33l.08-.09c2.74-2.59,4.97-5.68,6.55-9.1,1.33-2.75,2.07-5.75,2.18-8.8,0-2.94-.69-5.03-2.02-6.24-1.16-.92-2.61-1.38-4.09-1.29h-.01Z" fill="#f60"/>
  <path d="M51.7,125.62c-.18.02-.36-.01-.52-.09-.07-.05-.13-.12-.17-.21-.04-.08-.05-.18-.04-.26v-.36c0-2.53.73-6.84,2.18-12.96,1.45-6.12,3.09-12.1,4.92-17.97,1.82-5.87,3.44-9.99,4.82-12.39.11-.19.26-.34.44-.46s.38-.2.6-.22c.32-.04.65.03.93.21.13.09.24.21.32.35.07.14.11.3.1.46-.04.33-.19.63-.42.86-.96,1.07-2.26,3.91-3.88,8.5-1.62,4.59-3.23,9.65-4.82,15.19-1.58,5.53-2.76,10.26-3.52,14.17,1.06-2.31,2.29-4.54,3.68-6.67,1.39-2.2,3-4.24,4.82-6.1,1.73-1.75,3.48-2.75,5.28-2.93h.69c.07-.01.14-.01.21,0,.07.02.14.02.21,0,0,.06.03.09.1.08.54.17,1.02.49,1.39.93.37.43.6.96.68,1.53.28,1.37.42,2.78.41,4.18,0,.97.06,1.94.21,2.91.06.69.35,1.33.83,1.83.12.11.27.2.43.24s.33.05.5,0c1.93-.24,6.52-4.08,13.77-11.63l.31-.14c.15-.01.3.03.41.12.06.03.11.08.14.14.04.06.06.12.06.19l-.1.29c-2.91,3.24-6.06,6.25-9.42,9.01-2.35,1.81-4.13,2.75-5.38,2.94-.27.05-.55.04-.81-.02-.27-.06-.52-.17-.74-.33-.33-.27-.6-.61-.79-.99-.2-.38-.31-.79-.34-1.22-.14-1.07-.21-2.14-.21-3.22.01-1.12-.08-2.24-.26-3.35-.03-.4-.17-.78-.42-1.1s-.58-.55-.96-.67h-.62c-1.94.23-4.03,1.74-6.26,4.54-2.16,2.68-4.1,5.53-5.8,8.53-1.62,2.89-2.49,4.85-2.64,5.89-.07.11-.17.18-.3.21h-.02Z" fill="#f60"/>
  <path d="M51.57,126.19c-.24,0-.48-.05-.69-.17-.17-.1-.3-.24-.39-.41-.09-.17-.13-.36-.11-.56v-.36c0-2.58.69-6.88,2.19-13.08,1.45-6.11,3.1-12.16,4.92-18.01,1.82-5.84,3.44-10.08,4.87-12.47.16-.26.38-.48.64-.64.26-.16.55-.27.85-.31.47-.05.94.05,1.34.3.22.13.4.32.52.55.12.22.18.48.17.73-.03.46-.23.89-.54,1.22-.64.69-1.81,2.72-3.78,8.32-1.61,4.56-3.23,9.64-4.82,15.15-1.03,3.57-1.89,6.84-2.57,9.75.51-.89,1.06-1.79,1.64-2.7,1.41-2.23,3.05-4.3,4.89-6.19,1.82-1.84,3.72-2.89,5.64-3.11h.81c.13-.01.26,0,.39.05l.69-.08v.3c.56.24,1.05.62,1.42,1.1.37.48.62,1.05.71,1.65.29,1.41.43,2.85.43,4.3,0,.94.06,1.88.2,2.82.04.56.27,1.09.65,1.5.06.05.13.09.21.1.08.02.16.02.24,0,1.03-.13,4.13-1.79,13.4-11.46l.08-.08.59-.23c.3-.03.61.05.85.23.13.09.24.2.32.34s.12.29.13.45l-.03.19-.12.33-.1.14c-2.93,3.26-6.1,6.3-9.49,9.08-2.45,1.89-4.31,2.88-5.68,3.06-.35.06-.7.04-1.04-.04-.34-.08-.67-.23-.95-.43-.39-.31-.72-.71-.95-1.15-.24-.44-.38-.93-.42-1.43-.15-1.09-.22-2.19-.21-3.29.01-1.09-.07-2.18-.25-3.25-.17-.92-.58-1.18-.91-1.29h-.5c-1.75.23-3.7,1.67-5.82,4.31-2.14,2.66-4.06,5.48-5.74,8.45-1.58,2.82-2.45,4.74-2.57,5.69v.19l-.14.13c-.19.18-.43.28-.69.29h-.18l-.05.02h-.05ZM51.57,124.24v.5c.67-1.88,1.52-3.69,2.55-5.4,1.71-3.02,3.67-5.9,5.85-8.61,2.36-2.95,4.54-4.51,6.66-4.76h.05l.82.04c.39.11.75.31,1.04.59s.5.63.62,1.02v-.16c-.06-.44-.23-.86-.5-1.21s-.63-.62-1.05-.78h-.12l-.19-.12-.12-.03h-.75c-1.56.19-3.22,1.11-4.82,2.75-1.78,1.83-3.37,3.84-4.74,6-1.37,2.11-2.59,4.32-3.64,6.6l-1.66,3.56h0ZM64.09,81.31h-.11c-.13.02-.25.06-.35.13-.11.07-.19.17-.26.28-1.32,2.28-2.93,6.4-4.74,12.21-1.81,5.8-3.44,11.85-4.9,17.93-.94,3.95-1.57,7.16-1.9,9.6l.21-1.09c.76-3.93,1.95-8.72,3.53-14.22,1.58-5.51,3.21-10.65,4.82-15.22,1.65-4.7,2.96-7.54,3.99-8.68.26-.32.27-.47.27-.49,0-.06,0-.13-.03-.19-.03-.06-.07-.11-.12-.14-.12-.08-.27-.12-.41-.12h0ZM69.75,114.61v.21c.02.35.11.69.27,1.01.16.31.38.59.65.82-.52-.56-.84-1.27-.92-2.03h0Z" fill="#f60"/>
  <path d="M82.55,117.59c-1.25.17-1.93-.58-2.07-2.25,0-2.22.98-4.78,2.95-7.69,1.96-2.91,4.12-4.65,6.47-5.23.63-.08,1.27,0,1.85.25s1.09.65,1.46,1.16c.18-.58.46-1.12.83-1.6.24-.37.61-.63,1.03-.74.34-.06.7.02.98.21.14.07.25.18.33.3.08.13.13.28.13.43l-.11.38c-.59,1.23-1.11,2.5-1.55,3.79-.52,1.38-.8,2.84-.83,4.31,0,.6.07,1.19.21,1.77.02.13.06.25.13.36s.16.2.27.27c.11.07.23.11.36.13s.26,0,.38-.03c.69-.1,1.69-.78,3-2.06s2.8-2.8,4.45-4.55c2.13-2.37,4.31-4.62,6.52-6.75,2.21-2.12,4.14-3.32,5.8-3.59.17-.05.34-.07.51-.04.17.03.33.09.47.19.14.1.26.23.34.38.08.15.13.32.13.49-.03.61-.17,1.21-.41,1.78-1.14,3.1-2.29,6.19-3.44,9.29,1.26-2.64,2.73-5.17,4.4-7.57,1.62-2.29,3.13-3.56,4.51-3.81,1.31-.16,1.96.81,1.96,2.91-.03,2.1-.35,4.18-.93,6.2.19-.34.39-.68.62-1,.74-1.32,1.55-2.6,2.43-3.83,1-1.43,2.06-2.24,3.16-2.42.54-.06,1.08.05,1.56.32.15.16.27.36.34.57.07.21.09.44.07.66-.07,1.35-.42,2.67-1.04,3.87-.45.82-.73,1.72-.83,2.66l.1.08c0,.14.02.27.1.38.07.08.24.1.52.05.92-.15,2.52-1.1,4.82-2.85,2.31-1.75,4.47-3.55,6.46-5.4,1.32-1.16,2.57-2.4,3.73-3.71.06-.09.13-.17.22-.23.09-.06.19-.1.3-.12.05-.02.11-.02.17,0,.06.01.11.04.14.09.07.08.11.19.1.3l-.1.29c-.72.8-1.48,1.56-2.28,2.29-1.31,1.25-2.88,2.65-4.71,4.19s-3.67,2.95-5.51,4.23c-1.33,1.04-2.87,1.79-4.5,2.21-.46.07-.94.02-1.38-.13-.28-.13-.41-.47-.41-1.01.03-.68.19-1.35.47-1.97.31-.77.64-1.55.99-2.33.54-.97.9-2.04,1.03-3.15,0-.24-.03-.38-.1-.43-.13-.06-.27-.1-.41-.11-.62.11-1.43.81-2.43,2.12-.99,1.29-1.89,2.64-2.69,4.06-.53.88-1,1.8-1.38,2.75-.13.31-.35.58-.62.78-.28.19-.6.32-.94.38-.29.07-.59.07-.88,0-.11-.03-.2-.09-.27-.18-.07-.09-.1-.2-.09-.31.2-1.05.48-2.09.83-3.11.41-1.15.79-2.31,1.14-3.48.32-1.01.49-2.05.52-3.11.04-.33-.04-.67-.21-.96-.08-.08-.18-.14-.29-.17s-.23-.03-.33,0c-.89.15-1.98,1.11-3.26,2.88-1.29,1.79-2.46,3.65-3.53,5.58-1.06,1.95-1.81,3.38-2.22,4.28-.08.2-.22.37-.41.47-.22.13-.47.21-.72.25-.24.05-.5.03-.73-.06-.1-.04-.18-.11-.24-.19-.06-.09-.08-.19-.07-.3v-.09c.41-1.21.9-2.61,1.45-4.2,1.16-2.88,2.13-5.83,2.9-8.84,0-.3-.17-.42-.52-.36-.62.1-1.62.8-3,2.11s-2.93,2.84-4.66,4.61c-2.14,2.32-4.3,4.48-6.47,6.49-2.18,2.02-3.92,3.11-5.23,3.31-.39.11-.81.07-1.17-.11s-.65-.49-.8-.86c-.34-.77-.52-1.6-.52-2.44s.09-1.69.26-2.51c.14-.75.33-1.48.56-2.2-1.58,2.54-3.31,4.98-5.18,7.32-1.9,2.42-3.58,3.73-5.03,3.92l.04-.02ZM82.44,116.9c.63-.08,1.51-.74,2.64-1.98,1.14-1.24,2.31-2.66,3.52-4.27,1.2-1.61,2.26-3.14,3.16-4.59-.19-.38-.48-.69-.85-.9-.37-.2-.79-.29-1.21-.25-1.1.16-2.28.98-3.52,2.48-1.24,1.49-2.31,3.11-3.21,4.82-.92,1.71-1.38,3.02-1.38,3.92.01.58.3.83.86.75v.02h-.01Z" fill="#f60"/>
  <path d="M82.22,118.18c-.47.01-.94-.13-1.32-.42-.33-.3-.59-.67-.77-1.07-.18-.41-.27-.85-.26-1.29,0-2.37,1.03-5.06,3.05-8.06,2.02-2.99,4.34-4.86,6.82-5.47.58-.09,1.16-.06,1.73.1.56.16,1.08.44,1.52.83.15-.32.34-.63.56-.92.33-.49.84-.84,1.43-.96.48-.06.97.04,1.38.3.22.12.41.29.54.51.13.21.2.46.2.71v.14l-.14.48c-.58,1.21-1.09,2.45-1.53,3.72-.5,1.32-.77,2.72-.8,4.13,0,.55.07,1.1.19,1.64.07.27.13.35.47.3.34-.06,1.07-.35,2.66-1.9,1.33-1.3,2.82-2.82,4.44-4.54,2.13-2.37,4.33-4.64,6.54-6.76,2.32-2.23,4.32-3.44,6.12-3.75.49-.11,1-.02,1.42.25.19.15.35.34.47.55.12.21.19.45.22.69v.09c-.03.68-.18,1.35-.45,1.98l-.89,2.41c.27-.41.54-.81.82-1.2,1.73-2.46,3.33-3.79,4.9-4.06.3-.05.6-.04.89.04s.57.21.8.4c.65.55.97,1.54.97,3.04,0,.97-.08,1.94-.22,2.9.38-.58.79-1.21,1.25-1.86,1.09-1.56,2.28-2.46,3.55-2.67h.1c.68-.07,1.36.09,1.94.45.23.21.4.47.51.76s.15.6.12.91c-.07,1.43-.44,2.82-1.08,4.1-.35.68-.61,1.4-.76,2.15l.08.05v.16c.59-.13,1.82-.72,4.47-2.75,2.29-1.73,4.45-3.53,6.42-5.36,1.3-1.13,2.52-2.34,3.66-3.63.1-.15.23-.28.39-.38.15-.1.32-.17.5-.2.16-.03.32-.03.47.02.15.05.29.13.4.25.17.19.25.44.25.69v.19l-.18.43c-.73.84-1.52,1.62-2.35,2.36-1.33,1.27-2.92,2.69-4.74,4.22s-3.7,2.99-5.51,4.26c-1.81,1.27-3.44,2.07-4.75,2.31-.58.09-1.17.02-1.72-.18-.26-.15-.47-.38-.6-.65-.13-.27-.18-.57-.14-.87.03-.75.2-1.49.5-2.17.32-.78.65-1.56.99-2.34.49-.88.83-1.84.98-2.84-.75.47-1.39,1.09-1.87,1.83-.97,1.27-1.85,2.61-2.64,3.99-.53.84-1,1.72-1.38,2.64-.17.43-.46.81-.84,1.07-.23.17-.49.3-.77.39l-.56,1.07.28-.99h-.12c-.39.08-.8.05-1.18-.06-.22-.06-.42-.2-.56-.38s-.21-.41-.21-.64v-.09c.21-1.08.49-2.14.85-3.19.42-1.17.8-2.31,1.14-3.44.3-.95.47-1.95.5-2.95,0-.19-.01-.39-.06-.57h-.07c-.5.08-1.38.61-2.87,2.64-1.27,1.76-2.44,3.6-3.48,5.51-1.06,1.93-1.8,3.35-2.2,4.23-.13.31-.35.57-.65.73-.29.17-.61.28-.94.33-.36.07-.73.03-1.07-.1-.21-.08-.38-.21-.51-.4-.12-.18-.19-.4-.18-.62v-.27c.41-1.21.9-2.61,1.45-4.2,1.09-2.73,2.01-5.52,2.75-8.36-.9.48-1.71,1.11-2.42,1.85-1.34,1.27-2.86,2.75-4.64,4.59-2.13,2.31-4.32,4.51-6.49,6.51-2.28,2.11-4.1,3.24-5.55,3.44-.52.13-1.07.07-1.55-.17s-.86-.65-1.06-1.14c-.37-.84-.56-1.75-.56-2.66,0-.54.03-1.08.1-1.62-1.05,1.53-2.18,3.06-3.38,4.56-2.07,2.58-3.83,3.94-5.46,4.13-.11.04-.21.08-.32.11h0ZM89.97,105.44h-.2c-.94.13-2,.89-3.14,2.27-1.21,1.45-2.27,3.03-3.15,4.71-.85,1.62-1.28,2.86-1.28,3.66v.23h.12c.22,0,.87-.26,2.28-1.8,1.12-1.22,2.29-2.64,3.48-4.23,1.19-1.58,2.11-2.93,2.93-4.25-.11-.18-.27-.32-.45-.43s-.39-.17-.6-.18v.02ZM90.39,102.96c-.14,0-.28.01-.41.03-2.13.52-4.19,2.2-6.06,4.97-1.87,2.77-2.85,5.28-2.86,7.38v.08c.28-1.23.75-2.41,1.38-3.5.92-1.74,2.02-3.39,3.28-4.91,1.38-1.63,2.63-2.51,3.9-2.69.54-.07,1.08.03,1.56.28.48.25.87.65,1.11,1.14l.1.16.76-1.24-.39-.45c-.28-.37-.64-.67-1.05-.89-.41-.21-.86-.33-1.33-.35h.01ZM94.72,102.33l-1.38,4.17c-.23.7-.41,1.42-.55,2.14-.16.79-.25,1.6-.25,2.4s.16,1.52.47,2.22c.17.38.45.75,1.33.63h.11c-.21-.1-.39-.25-.53-.43s-.24-.4-.28-.62c-.15-.62-.22-1.26-.22-1.9.03-1.54.32-3.06.86-4.5.45-1.29.97-2.56,1.56-3.8l.06-.23s-.05-.12-.19-.21c-.17-.11-.37-.15-.57-.12-.16.04-.31.12-.42.25h0ZM110.56,111.42c.11.03.23.03.34,0,.18-.02.35-.08.5-.17.08-.04.14-.1.17-.18.28-.62.69-1.43,1.24-2.46l-.62-.24,3.44-9.29c.21-.49.34-1.01.38-1.54-.02-.17-.1-.33-.23-.45-.16-.08-.35-.09-.52-.05-.4.07-.79.18-1.16.34.18.02.36.09.5.2.11.09.19.2.25.33.06.13.08.27.07.41v.13c-.77,3.03-1.74,6.01-2.92,8.92-.55,1.53-1.02,2.89-1.43,4.07h-.02v-.02ZM120.09,109.3c.17.03.35.03.53,0,.25-.04.48-.13.69-.28h.03l.78-2.85c.57-1.97.88-4,.91-6.04,0-1.38-.3-1.96-.56-2.18-.1-.08-.22-.13-.35-.16s-.26-.03-.39,0c-.24.04-.47.11-.69.21.21-.05.43-.04.63.03.2.06.39.18.53.33.27.39.39.86.34,1.33-.02,1.11-.21,2.2-.54,3.26-.34,1.16-.73,2.35-1.15,3.51-.31.93-.57,1.88-.76,2.84h-.02.02ZM129.78,99.66c.1.2.14.42.13.64-.13,1.19-.5,2.34-1.1,3.39-.33.76-.65,1.53-.96,2.29-.25.56-.39,1.15-.43,1.76,0,.41.1.5.1.51.33.09.68.11,1.02.06.2-.03.4-.08.59-.15-.15-.04-.28-.12-.38-.23-.11-.13-.18-.28-.21-.45l-.14-.1v-.29c.09-1.02.4-2,.89-2.9.57-1.13.91-2.36.98-3.63.03-.28-.04-.57-.2-.8-.08-.05-.17-.09-.27-.1h-.02,0Z" fill="#f60"/>
  <path d="M145.27,119c-.55.09-1.1.13-1.66.11-.29-.04-.58-.15-.83-.31-.21-.17-.38-.38-.49-.63s-.15-.52-.13-.79v-.45c.34-1.02.82-1.99,1.45-2.86,1.31-1.84,3.76-4.21,7.35-7.14,3.58-2.92,7.31-5.65,11.18-8.18.37-1.11.57-2.27.62-3.44,0-2.71-1.24-3.81-3.72-3.31-2.14.38-4.59,2.01-7.35,4.89-1.5,1.8-2.86,3.71-4.09,5.71-1.2,1.98-2.5,4.39-3.88,7.21l-.21.03c-.08.08-.19.13-.31.14-.17.04-.35.02-.52-.05-.14-.06-.21-.21-.21-.45v-.27c0-2.4.71-6.52,2.12-12.35,1.41-5.83,3.04-11.57,4.87-17.21,1.84-5.64,3.44-9.69,4.82-12.15.25-.33.62-.56,1.03-.63.32-.07.65-.01.94.15.13.06.23.16.31.29.07.12.11.26.11.4-.04.33-.18.64-.41.88-1.04,1.21-2.46,4.25-4.25,9.12s-3.48,10.12-5.07,15.75c-1.32,4.46-2.36,9-3.1,13.6.77-1.45,1.73-3.12,2.9-5.01,1.22-1.95,2.57-3.81,4.04-5.57,3.18-3.26,6.18-5.14,9.01-5.63,1.28-.3,2.63-.11,3.78.55,1,.63,1.5,1.8,1.5,3.48,0,.71-.08,1.41-.21,2.11,4.62-3.03,8.04-5.19,10.24-6.47.19-.15.4-.28.63-.38l.52-.18c.17-.04.35-.03.52.04.06.02.11.06.14.11.04.05.06.11.06.17,0,.18-.24.43-.72.76-.26.19-.54.36-.83.5-2.42,1.44-6.08,3.74-10.97,6.88-1.08,3.08-2.61,5.97-4.56,8.59-2.08,2.92-4.49,5.58-7.19,7.93-2.66,2.3-5.13,3.65-7.41,4.05h-.02ZM145.27,117.91c2.97-.51,6.04-2.61,9.21-6.3,2.96-3.35,5.38-7.14,7.15-11.25-3.59,2.38-6.91,4.79-9.94,7.24-3.45,2.82-5.8,5.12-7.04,6.88-.54.72-.96,1.52-1.25,2.38v.36c0,.37.07.59.21.69l.41.1c.42,0,.83-.04,1.24-.1h0Z" fill="#f60"/>
  <path d="M143.95,119.68h-.36c-.41-.05-.8-.2-1.15-.42-.29-.21-.53-.5-.68-.83s-.22-.69-.19-1.05v-.6c.35-1.08.86-2.1,1.52-3.02,1.38-1.92,3.8-4.3,7.47-7.27,3.54-2.89,7.23-5.59,11.05-8.1.32-1,.5-2.04.54-3.08,0-1.23-.27-2.07-.81-2.49-.33-.2-.69-.32-1.07-.36s-.76,0-1.12.11c-2.02.35-4.38,1.94-7.04,4.72-1.47,1.77-2.81,3.65-4.01,5.62-1.18,1.95-2.49,4.36-3.86,7.16l-.13.27-.36.06c-.14.09-.29.15-.46.17-.3.06-.61.03-.89-.1-.18-.09-.32-.23-.42-.4-.1-.17-.14-.37-.12-.57v-.27c0-2.46.69-6.55,2.14-12.48,1.41-5.82,3.05-11.61,4.87-17.21,1.82-5.6,3.44-9.77,4.86-12.25l.05-.08c.34-.44.83-.75,1.38-.85.47-.1.96-.02,1.38.23.21.12.38.29.51.49.12.21.18.44.18.68-.04.46-.23.89-.54,1.23-1.01,1.16-2.4,4.17-4.13,8.95-1.74,4.78-3.48,10.12-5.06,15.7-1.1,3.9-1.94,7.29-2.51,10.15.38-.64.79-1.31,1.21-2,1.23-1.97,2.6-3.85,4.08-5.64,3.28-3.37,6.42-5.32,9.36-5.84,1.44-.33,2.94-.1,4.22.64,1.17.74,1.77,2.07,1.77,3.95,0,.28,0,.59-.05.92,4.06-2.65,7.15-4.59,9.18-5.78.21-.16.44-.29.69-.4l.69-.23c.3-.06.61-.03.89.09.16.07.29.18.39.32s.15.31.15.48c0,.4-.3.76-.98,1.23-.28.2-.58.38-.89.54-2.35,1.38-5.98,3.67-10.75,6.73-1.1,3.06-2.64,5.94-4.57,8.55-2.1,2.95-4.55,5.65-7.28,8.03-2.75,2.36-5.31,3.77-7.7,4.19-.49.08-.98.12-1.47.11h.02ZM142.76,117v.38c0,.69.29.9.38.96.05.04.11.07.17.09h-.04c-.16-.14-.29-.32-.37-.52s-.11-.41-.1-.63v-.41s-.03.08-.05.12h0ZM144.02,117.45h.08c.36-.01.71-.05,1.07-.12,2.82-.49,5.8-2.54,8.86-6.1,2.46-2.81,4.54-5.92,6.2-9.26-2.91,1.99-5.65,4.02-8.17,6.05-3.39,2.75-5.72,5.06-6.93,6.79-.48.65-.87,1.37-1.14,2.13v.29c0,.07.02.15.04.22h-.01ZM162.91,98.82l-.73,1.76c-1.79,4.16-4.24,8.01-7.24,11.4l-.2.23c1.69-1.71,3.23-3.55,4.63-5.51,1.91-2.57,3.42-5.42,4.47-8.44l.06-.19.15-.1.18-1.06c.12-.66.19-1.34.2-2.01,0-1.47-.41-2.48-1.23-3-.77-.46-1.66-.65-2.55-.56.52.06,1.02.26,1.45.58.83.65,1.25,1.78,1.25,3.38-.05,1.22-.27,2.43-.65,3.59v.06l.19-.14h.02ZM154.78,67.85c-1.38,2.42-2.95,6.46-4.74,12-1.8,5.54-3.44,11.37-4.86,17.16-.88,3.42-1.55,6.89-2,10.39l.05-.37c.75-4.62,1.79-9.19,3.13-13.67,1.58-5.61,3.29-10.93,5.09-15.79,1.83-4.99,3.26-8.03,4.34-9.29.27-.34.28-.5.28-.52s0-.14-.13-.21c-.15-.09-.34-.11-.51-.08-.25.05-.48.18-.64.39h0Z" fill="#f60"/>
  <path d="M176.12,102.24c-1.26.29-2.59.17-3.78-.33-.49-.23-.89-.61-1.16-1.08s-.39-1.01-.34-1.55c.1-1.43.51-2.82,1.19-4.08.86-1.75,1.96-3.37,3.26-4.82,2.55-2.54,4.68-3.96,6.42-4.25,1.38-.24,2.13.23,2.28,1.41,0,1.13-1.11,2.69-3.32,4.66-2.32,2.04-5.07,3.52-8.04,4.33-.25.72-.39,1.48-.42,2.24,0,1.98,1.11,2.72,3.32,2.21,1.93-.33,4.36-1.39,7.3-3.19,2.85-1.73,5.56-3.66,8.12-5.79,1.94-1.51,3.68-3.27,5.18-5.23.04-.08.1-.15.17-.21.07-.06.15-.1.24-.13.08-.01.15,0,.23.02.07.03.14.07.19.13.06.04.11.1.14.17.04.06.06.13.07.21l-.1.2c-1.84,2.13-3.83,4.14-5.95,5.99-2.77,2.52-5.77,4.79-8.95,6.78-1.87,1.1-3.91,1.88-6.04,2.31h-.01ZM173.12,95.47c1.42-.67,2.79-1.45,4.09-2.33,1.38-.9,2.68-1.92,3.88-3.06,1.1-1.06,1.65-1.86,1.65-2.4,0-.42-.34-.6-1.03-.54-1.11.19-2.52,1.05-4.25,2.58-1.74,1.55-3.17,3.4-4.24,5.47-.07.07-.1.12-.1.15v.13h0Z" fill="#f60"/>
  <path d="M174.62,102.96c-.88.02-1.75-.16-2.55-.53-.58-.28-1.07-.73-1.4-1.28-.33-.56-.48-1.2-.43-1.85.1-1.51.52-2.99,1.25-4.32.89-1.79,2.02-3.44,3.35-4.92,2.69-2.68,4.9-4.13,6.77-4.45.36-.09.73-.11,1.1-.06.37.06.72.18,1.03.38.25.19.45.43.59.7s.23.57.25.88c0,1.38-1.14,3.04-3.5,5.15-2.31,2.02-5.04,3.51-7.99,4.36-.18.58-.28,1.18-.3,1.78-.03.28,0,.56.09.83.09.27.24.51.44.71.4.3,1.1.35,2.07.12,1.87-.33,4.25-1.38,7.11-3.13,2.82-1.71,5.51-3.63,8.06-5.73,1.9-1.48,3.61-3.2,5.07-5.12.09-.15.21-.28.35-.38s.3-.17.47-.21c.17-.03.34-.02.5.04.16.05.31.14.43.27.12.1.21.21.28.35.07.14.11.28.11.43v.14l-.23.41c-1.86,2.16-3.87,4.18-6.02,6.05-2.8,2.55-5.83,4.84-9.04,6.85-1.92,1.13-4.01,1.93-6.2,2.38-.54.1-1.09.14-1.64.14h-.02ZM171.73,97.6c-.18.55-.27,1.12-.28,1.69-.05.43.04.86.25,1.24s.53.68.92.87c1.08.45,2.27.55,3.4.28,2.05-.42,4.01-1.17,5.82-2.23,2.18-1.36,4.27-2.86,6.26-4.49-1.58,1.16-3.25,2.27-4.98,3.33-3.03,1.85-5.51,2.92-7.51,3.27-1.3.3-2.33.19-3.04-.34-.35-.3-.61-.67-.78-1.1-.17-.42-.24-.88-.19-1.33,0-.4.05-.8.13-1.19h0ZM172.52,95.53c-.07.17-.15.32-.22.48l.13-.03h.09v-.45ZM182.7,86.67c.11.04.21.11.29.19.11.1.21.22.26.36.06.14.09.29.09.44,0,.69-.59,1.61-1.83,2.81-1.23,1.16-2.55,2.2-3.96,3.12-.69.47-1.41.9-2.07,1.28,1.76-.78,3.38-1.82,4.82-3.08,2.57-2.3,3.12-3.58,3.12-4.24,0-.14-.04-.28-.11-.4-.06-.13-.15-.24-.26-.33-.11-.06-.23-.1-.36-.11v-.03h.01ZM181.95,87.68h-.19c-.93.17-2.26.98-3.89,2.43-1.3,1.15-2.42,2.49-3.35,3.96.74-.41,1.53-.89,2.35-1.43,1.35-.88,2.62-1.88,3.79-2.99,1.27-1.22,1.46-1.78,1.48-1.96-.07,0-.13,0-.2.01v-.03h.01Z" fill="#f60"/>
  <path d="M200.45,104.9c-1.65.27-2.55-.57-2.69-2.53.1-1.66.45-3.3,1.04-4.85.22-.67.49-1.31.83-1.93.76-1.29,1.19-2.75,1.24-4.25.02-.75-.23-1.49-.72-2.07-.5-.57-1.06-1.1-1.66-1.58-.52-.37-1.01-.78-1.45-1.25-.42-.45-.64-1.04-.62-1.65.02-.44.09-.88.21-1.3.14-.56.37-1.1.69-1.59.15-.24.35-.45.59-.61.24-.16.51-.26.79-.3.43-.08.88-.04,1.29.1.38.15.57.37.57.69l-.1.38c-.96,1.53-1.45,2.66-1.45,3.39-.02.37.05.75.21,1.09.21.33.5.6.83.81.36.35.71.71,1.03,1.09.8.99,1.24,2.22,1.25,3.49-.04,1.92-.51,3.8-1.38,5.51v.09c-.52,1.32-.84,2.71-.93,4.13,0,1.32.55,1.86,1.66,1.62,1.65-.27,4.09-1.84,7.3-4.72,3.21-2.87,6.25-5.86,9.11-8.95,2.86-3.1,4.74-5.39,5.64-6.88.27-.4.52-.61.73-.65.06-.01.12-.01.18,0s.12.04.16.07c.05.04.09.08.12.13.03.05.05.11.05.17l-.21.57c-1.84,2.92-3.99,5.64-6.42,8.1-3.03,3.24-6.29,6.27-9.73,9.06-3.42,2.75-6.14,4.29-8.14,4.62h-.02Z" fill="#f60"/>
  <path d="M199.88,105.49c-.57.02-1.12-.15-1.58-.49-.37-.33-.66-.74-.85-1.19-.2-.45-.29-.94-.28-1.43.09-1.73.45-3.44,1.06-5.07.23-.7.52-1.37.87-2.02.72-1.21,1.12-2.58,1.18-3.99.03-.63-.18-1.24-.59-1.72-.48-.54-1.01-1.05-1.58-1.5-.55-.38-1.05-.82-1.51-1.31-.26-.28-.46-.6-.6-.95-.13-.35-.2-.73-.18-1.11.02-.48.1-.96.22-1.43.16-.62.41-1.21.74-1.76.2-.32.46-.59.77-.79.31-.2.67-.33,1.04-.39.54-.1,1.1-.05,1.62.14.27.07.5.23.67.45.17.22.26.48.27.76v.14l-.17.53c-1.12,1.79-1.38,2.67-1.38,3.09-.02.28.03.56.14.82.18.25.42.46.69.62.4.37.78.77,1.14,1.18.88,1.09,1.37,2.46,1.38,3.86-.03,1.96-.48,3.89-1.34,5.65l-.04.15c-.49,1.26-.8,2.58-.89,3.93,0,.52.1.89.27,1.02.1.05.21.08.32.09.11,0,.22,0,.33-.04,1.57-.25,3.92-1.79,7.02-4.58s6.2-5.84,9.07-8.95c2.06-2.1,3.92-4.38,5.57-6.82.12-.23.28-.42.48-.58s.43-.28.68-.34c.13-.03.27-.02.4,0,.13.03.26.08.37.16s.21.17.28.29c.07.11.12.24.14.37l.04.16-.3.81c-1.86,2.96-4.04,5.72-6.5,8.21-3.05,3.26-6.32,6.3-9.79,9.12-3.57,2.89-6.34,4.47-8.46,4.82-.23.05-.47.09-.71.1h0ZM200.9,89.25c.38.62.58,1.34.56,2.07-.05,1.59-.5,3.15-1.31,4.52-.32.59-.58,1.2-.79,1.84-.56,1.5-.9,3.08-1.01,4.68,0,.33.04.65.16.96.12.3.3.58.53.81.19.12.41.2.64.24.23.03.46.02.68-.04.51-.09,1.01-.24,1.49-.43h-.05c-.27.08-.56.1-.85.05-.28-.05-.55-.16-.79-.32-.26-.24-.45-.54-.57-.88-.12-.33-.16-.69-.12-1.04.09-1.44.41-2.86.94-4.21v-.12l.06-.11c.82-1.65,1.26-3.46,1.29-5.29,0-.96-.31-1.9-.85-2.7v-.03h0ZM220.68,87.64c-.63.72-1.38,1.51-2.13,2.37-1.38,1.5-2.81,2.98-4.29,4.43,1.25-1.2,2.47-2.44,3.66-3.7,1.02-1.08,1.95-2.1,2.77-3.07v-.03h-.01ZM199.18,81.45h-.39c-.2.02-.4.09-.57.2-.17.11-.31.26-.42.43-.27.44-.48.93-.61,1.43-.11.38-.17.77-.19,1.16-.02.47.15.93.47,1.27.42.44.88.83,1.38,1.17.63.5,1.22,1.06,1.76,1.67.09.11.18.22.25.33-.08-.12-.17-.23-.25-.36-.37-.42-.69-.77-.97-1.02-.38-.25-.7-.57-.94-.95-.21-.43-.3-.9-.27-1.38,0-.83.49-2.01,1.49-3.61l.05-.19c-.06-.05-.12-.09-.19-.11-.19-.04-.39-.05-.59-.01v-.04h0Z" fill="#f60"/>
  <path d="M226.01,97.73c-.51.11-1.04.07-1.53-.09-.49-.17-.93-.46-1.27-.86-.69-.8-1.03-2.24-1.03-4.35.02-1.56.16-3.11.41-4.65,1.08-5.56,2.66-11.01,4.71-16.3,2.01-5.62,4.49-11.07,7.4-16.28.17-.28.4-.52.66-.71.27-.19.57-.32.89-.39.28-.05.57,0,.83.12.1.05.18.13.23.23s.08.21.08.32c-.03.38-.17.75-.41,1.05-1.24,2.11-2.37,4.29-3.37,6.53-1.68,3.56-3.43,7.67-5.22,12.34-1.66,4.2-2.97,8.52-3.93,12.94-.3,1.59-.48,3.2-.52,4.82.14,2.93,1.04,4.26,2.69,4.03,1.38-.19,3.04-1.1,4.97-2.72,2.07-1.74,4.01-3.64,5.8-5.68,2.44-2.71,4.72-5.55,6.84-8.52.11-.12.25-.2.41-.23.18-.03.35,0,.52.07.06.02.11.06.15.12.04.05.06.11.06.18l-.1.19c-2.03,2.87-4.2,5.62-6.52,8.26-2.06,2.36-4.33,4.53-6.78,6.49-2.31,1.87-4.26,2.9-5.96,3.13v-.04Z" fill="#f60"/>
  <path d="M225.42,98.35c-.51.01-1.01-.09-1.47-.3-.46-.21-.87-.52-1.19-.91-.78-.91-1.17-2.46-1.17-4.72.03-1.58.17-3.16.42-4.73,1.09-5.6,2.68-11.09,4.74-16.41,2.03-5.65,4.52-11.12,7.45-16.36.22-.35.51-.66.85-.9.34-.24.73-.4,1.14-.48.42-.07.85,0,1.22.19.18.1.34.25.44.44s.16.39.16.6c-.02.5-.21.98-.52,1.38-1.22,2.09-2.33,4.24-3.32,6.44-1.67,3.53-3.44,7.67-5.21,12.3-1.64,4.18-2.94,8.48-3.9,12.86-.3,1.56-.47,3.14-.51,4.73.1,2.11.6,2.93,1,3.24.14.11.31.18.48.22.18.04.36.04.53,0,1.25-.18,2.82-1.05,4.66-2.58,2.05-1.73,3.96-3.61,5.74-5.62,2.42-2.69,4.69-5.51,6.79-8.45l.08-.09c.2-.22.47-.36.76-.4.3-.05.61,0,.88.14.15.07.28.18.37.32s.14.3.14.47v.14l-.17.32c-2.05,2.91-4.25,5.71-6.59,8.38-2.09,2.39-4.39,4.59-6.89,6.57-2.42,1.9-4.47,2.95-6.24,3.2-.22.02-.45.03-.67.01h0ZM236.5,54.65h-.15c-.24.06-.46.17-.66.32s-.36.34-.48.55c-2.88,5.17-5.34,10.57-7.33,16.14-2.04,5.25-3.61,10.67-4.69,16.2-.24,1.51-.37,3.03-.4,4.56,0,1.96.3,3.3.9,3.99.27.32.62.55,1.02.69.4.13.82.15,1.23.06.17-.03.34-.06.51-.1-.6.06-1.19-.12-1.66-.5-.87-.69-1.33-2.02-1.43-4.1.04-1.67.21-3.33.52-4.96.97-4.45,2.3-8.81,3.97-13.05,1.79-4.65,3.55-8.82,5.25-12.39,1-2.27,2.14-4.47,3.41-6.61.18-.21.29-.46.32-.73-.09-.06-.2-.09-.31-.07h-.02Z" fill="#f60"/>
  <path d="M241.34,91.98c-1.18.14-1.9-.6-2.18-2.25,0-1.98.96-4.45,2.9-7.39,1.93-2.94,4.03-4.73,6.31-5.36.66-.05,1.33.05,1.94.31.61.26,1.15.66,1.58,1.17.37-.34.69-.74.94-1.18.11-.25.25-.48.41-.69.08-.09.17-.16.28-.21.11-.05.22-.08.34-.09.32-.02.63.07.88.26.14.08.25.19.34.32.08.13.13.29.13.44l-.1.37c-.6,1.22-1.12,2.48-1.56,3.77-.51,1.35-.79,2.79-.83,4.23-.04.71.14,1.41.52,2.02.19.25.44.45.73.56s.61.14.92.07c1.31-.14,3.02-.96,5.13-2.43s4.13-3.05,6.15-4.74c2.02-1.69,3.52-3.02,4.56-4.01l.31-.3.41-.21c.07,0,.14,0,.2.03s.12.07.17.12c.1.09.15.21.16.34,0,.07-.03.15-.07.21-.04.07-.09.12-.15.17l-.41.4c-1.1,1.06-2.67,2.43-4.71,4.13-2.06,1.74-4.22,3.35-6.47,4.82-2.29,1.5-4.26,2.33-5.9,2.51-.49.11-1.01.09-1.49-.07-.48-.15-.92-.43-1.26-.8-.61-.78-.92-1.76-.88-2.75,0-.86.11-1.72.31-2.55.21-.87.41-1.61.62-2.23-1.55,2.47-3.25,4.85-5.07,7.12-1.92,2.41-3.64,3.7-5.16,3.88h0ZM241.13,91.29c1.03-.13,2.48-1.37,4.34-3.74,1.86-2.36,3.51-4.65,4.95-6.85-.18-.39-.47-.71-.84-.93-.37-.21-.8-.31-1.22-.27-1.1.13-2.28.93-3.52,2.4-1.24,1.46-2.32,3.06-3.21,4.76-.89,1.7-1.38,2.97-1.38,3.81.04.66.32.93.87.8h0v.02Z" fill="#f60"/>
  <path d="M241.06,92.57c-.88,0-2.11-.44-2.49-2.75v-.1c0-2.07,1-4.67,2.99-7.69,1.99-3.02,4.24-4.94,6.65-5.6h.1c.65-.07,1.3,0,1.91.22.62.21,1.18.55,1.65,1,.16-.19.31-.4.43-.62.12-.29.28-.57.47-.82.26-.29.63-.47,1.02-.5.46-.04.92.09,1.29.36.22.13.4.3.52.52.13.22.2.46.2.71v.14l-.15.47c-.58,1.2-1.09,2.44-1.52,3.7-.49,1.29-.76,2.66-.8,4.05-.03.6.11,1.19.42,1.7.15.21.41.45,1.09.38,1.19-.13,2.82-.92,4.82-2.33s4.13-3.05,6.11-4.7c1.98-1.65,3.51-3.02,4.53-3.98l.45-.4.52-.27h.12c.16-.01.32.01.46.07.15.06.28.15.39.27.19.19.3.46.31.73,0,.15-.04.3-.11.43-.07.14-.16.25-.27.35l-.41.39c-1.1,1.05-2.65,2.41-4.74,4.18-2.08,1.74-4.26,3.36-6.53,4.85-2.38,1.56-4.41,2.41-6.2,2.6-.59.12-1.21.08-1.78-.1-.57-.19-1.09-.52-1.5-.97-.69-.9-1.05-2.01-1-3.14,0-.53.04-1.06.12-1.58-.98,1.38-2.06,2.83-3.19,4.26-2.07,2.57-3.88,3.93-5.57,4.13-.11.01-.22.02-.33.01l.02.03ZM248.64,80.07h-.16c-.94.11-2,.85-3.13,2.2-1.22,1.43-2.29,2.98-3.17,4.64-.85,1.62-1.28,2.82-1.28,3.56v.25h.13c.49-.06,1.65-.6,3.95-3.51,1.76-2.22,3.35-4.4,4.74-6.49-.12-.19-.28-.34-.46-.46-.19-.11-.4-.18-.62-.19h.02-.02ZM239.78,89.7v.1c.29-1.18.74-2.32,1.34-3.37.92-1.73,2.02-3.36,3.28-4.87,1.38-1.6,2.64-2.46,3.92-2.61.54-.05,1.08.06,1.56.32s.85.67,1.09,1.16l.13.21.87-1.38-.07.07-.43-.44c-.36-.44-.81-.78-1.33-1.01-.51-.23-1.08-.33-1.64-.3-2.07.6-4.1,2.31-5.93,5.1-1.83,2.79-2.79,5.16-2.81,7.01h.02ZM253.33,77.64l-1.16,3.48c-.2.61-.41,1.34-.61,2.18-.19.8-.29,1.61-.29,2.43-.05.87.22,1.74.75,2.43.24.26.54.46.88.58.33.12.69.16,1.05.11-.48-.12-.91-.42-1.19-.83-.44-.7-.65-1.51-.61-2.33.04-1.51.33-3,.86-4.41.44-1.29.96-2.56,1.55-3.79l.06-.23c0-.06-.06-.13-.21-.23-.13-.11-.3-.16-.47-.17-.08,0-.16.04-.23.08-.13.18-.24.38-.32.59-.03.03-.06.06-.09.1h.03Z" fill="#f60"/>
  <path d="M272.7,88.6c-.53.1-1.08.05-1.58-.15-.5-.2-.94-.53-1.27-.96-.59-.85-.89-1.86-.88-2.89.04-1.79.39-3.56,1.04-5.23.69-1.86,1.27-3.35,1.76-4.47.09-.2.24-.37.42-.49.18-.12.4-.19.62-.2.34-.03.68.04.98.19.32.15.47.35.47.59v.18c-.77,1.59-1.46,3.23-2.07,4.89-.73,1.76-1.15,3.64-1.24,5.55-.08.58.07,1.16.41,1.63.43.29.94.43,1.45.38,1.51-.12,3.33-.99,5.43-2.58,2.07-1.55,4.05-3.23,5.91-5.03,1.83-1.77,3.19-3.08,4.09-3.98.05-.1.12-.2.21-.28.11-.11.26-.18.41-.2.15,0,.29.03.41.11.06.03.11.07.15.12s.06.12.06.18c-.07.12-.14.25-.21.37-.69.76-2,2.07-3.93,3.96-2.02,1.96-4.16,3.79-6.42,5.47-2.36,1.74-4.44,2.68-6.23,2.83h0ZM274.56,71.07c-.27,0-.41-.15-.41-.51.03-.4.13-.79.31-1.15.2-.45.46-.86.78-1.23.18-.27.46-.47.78-.55.11-.02.23,0,.34.03.11.04.2.1.28.19.14.2.22.44.21.69-.06.61-.34,1.17-.78,1.59-.36.49-.9.83-1.5.94h0Z" fill="#f60"/>
  <path d="M272.27,89.19c-.56.04-1.12-.07-1.64-.31-.51-.24-.95-.61-1.28-1.07-.65-.94-.99-2.06-.98-3.21.03-1.85.39-3.69,1.07-5.42.69-1.9,1.29-3.37,1.77-4.5.13-.3.35-.56.62-.75s.59-.3.92-.32c.45-.04.9.05,1.31.25.23.09.42.24.56.43.14.2.22.43.23.67v.31l-.06.12c-.78,1.57-1.46,3.18-2.07,4.82-.71,1.7-1.11,3.51-1.21,5.36,0,1.01.21,1.2.22,1.21,0,0,.32.22,1.05.23,1.34-.12,3.06-.94,5.07-2.46,2.04-1.55,4-3.21,5.85-4.99,1.79-1.73,3.13-3.03,4.03-3.92.08-.13.17-.25.28-.35.21-.21.49-.34.79-.36.27,0,.53.06.76.2.14.07.27.19.35.32.09.14.13.3.13.46v.14l-.35.61c-.69.74-1.93,2-3.96,3.99-2.04,1.97-4.2,3.81-6.48,5.51-2.46,1.85-4.6,2.82-6.53,2.98l-.46.03v.02ZM272.96,74.73h-.1c-.12,0-.23.04-.33.1-.1.07-.17.16-.21.27-.47,1.09-1.04,2.55-1.74,4.43-.62,1.61-.96,3.31-1,5.03-.01.92.26,1.82.78,2.58.25.36.63.63,1.05.75-.16-.07-.32-.17-.45-.28-.41-.36-.61-1.02-.61-2.07.09-1.97.52-3.92,1.28-5.74.6-1.64,1.29-3.25,2.07-4.82v-.05s-.04-.03-.15-.09c-.18-.09-.38-.12-.58-.11h-.01ZM274.52,71.62c-.23,0-.46-.07-.63-.23-.11-.11-.2-.24-.25-.39-.06-.15-.08-.3-.07-.46.02-.48.14-.95.36-1.38.22-.5.51-.97.87-1.38.14-.2.31-.37.52-.5.2-.13.43-.22.67-.26.21-.03.43,0,.62.07.2.08.37.2.51.37.23.3.35.67.34,1.05-.05.75-.38,1.45-.92,1.96-.47.61-1.15,1.01-1.91,1.13h-.1v.02ZM276.06,68.18c-.14.11-.26.23-.37.36-.28.33-.51.69-.69,1.09-.12.25-.21.52-.26.8.34-.16.63-.39.86-.69.34-.32.56-.75.63-1.22,0-.12-.02-.24-.08-.35h-.1.01Z" fill="#f60"/>
  <path d="M286.36,86.38c-.22,0-.43-.04-.62-.14-.09-.03-.16-.09-.22-.17-.05-.08-.09-.17-.09-.26v-.18c1.06-3.61,2.13-7.21,3.21-10.81.06-.23.21-.44.41-.56.22-.13.47-.21.73-.21.26-.02.51.04.72.19.1.06.17.15.23.25.05.1.08.21.08.32v.27c-.83,2.47-1.65,4.95-2.48,7.42,1.48-2.32,3.15-4.53,4.97-6.6,1.65-1.85,3.14-2.79,4.45-2.84h.42c.53.05,1.02.31,1.37.72s.52.94.49,1.47c-.1,1.87-.59,3.69-1.45,5.36-.55,1.05-.91,2.19-1.04,3.37-.01.12.01.24.07.35s.14.2.24.26l.42.08c1.03-.03,2.72-.8,5.07-2.26,2.35-1.47,4.54-2.97,6.58-4.49,1.29-.87,2.49-1.88,3.57-2.99.04-.07.1-.14.17-.18.07-.05.15-.08.24-.09.14,0,.27.05.37.14.05.04.09.08.11.14.03.06.04.12.04.18l-.1.27c-1.32,1.31-2.76,2.5-4.3,3.54-2.17,1.58-4.5,3.11-6.99,4.58-2.48,1.47-4.45,2.25-5.9,2.3l-.83-.14c-.27-.12-.5-.32-.64-.57-.15-.25-.21-.55-.18-.84.12-1.75.61-3.46,1.45-5,.69-1.28,1.11-2.68,1.25-4.13.02-.2-.03-.4-.14-.56-.12-.16-.29-.27-.48-.32h-.1c-.96.03-2.15.84-3.57,2.44-1.42,1.6-2.72,3.3-3.88,5.09-1.17,1.8-2,3.14-2.48,4.01-.08.19-.23.34-.41.43-.23.11-.48.18-.73.2l-.03-.04Z" fill="#f60"/>
  <path d="M286.3,86.95c-.3,0-.59-.08-.85-.22-.18-.08-.33-.21-.44-.38-.11-.16-.17-.36-.18-.55v-.34l3.21-10.81c.1-.36.33-.68.65-.88.31-.19.66-.3,1.03-.32.39-.02.78.08,1.1.3.17.11.32.27.42.45s.15.39.15.59v.44l-1.18,3.52c.88-1.18,1.77-2.26,2.64-3.24,1.79-1.99,3.38-2.98,4.88-3.04h.57c.67.08,1.28.41,1.71.92.43.51.66,1.17.62,1.84-.1,1.95-.61,3.85-1.5,5.59-.53.97-.86,2.04-.99,3.14v.09h.16c.65-.05,1.99-.47,4.71-2.18,2.33-1.46,4.53-2.96,6.53-4.45,2.48-1.86,3.24-2.59,3.44-2.87.08-.14.2-.25.33-.34.14-.09.29-.14.45-.17.16-.02.32-.01.48.03.15.05.3.13.42.23.11.09.2.21.26.33.06.13.09.27.09.41v.19l-.21.44c-1.35,1.34-2.82,2.56-4.39,3.63-2.16,1.58-4.53,3.13-7.04,4.62-2.51,1.49-4.63,2.33-6.2,2.38h-.07l-1.01-.19c-.38-.15-.71-.42-.93-.77s-.31-.76-.27-1.17c.12-1.84.63-3.62,1.5-5.25.65-1.19,1.05-2.5,1.19-3.86,0-.21-.05-.28-.11-.3-.53,0-1.51.42-3.13,2.24-1.4,1.58-2.68,3.26-3.83,5.03-1.13,1.73-1.95,3.06-2.45,3.94-.14.31-.38.55-.69.69-.3.14-.62.22-.96.23l-.13.05h.02ZM286.03,85.72c.09.06.19.08.3.08.1,0,.19-.02.28-.04l3.61-10.79v-.24s-.03-.03-.05-.04c-.1-.07-.23-.1-.35-.08-.15,0-.3.04-.43.12-.04.03-.08.06-.11.1s-.05.09-.06.13l-3.19,10.76ZM296.48,85.07l.69.12c.19-.01.37-.03.56-.06l-.17-.06c-.2-.11-.36-.27-.47-.47-.11-.2-.16-.42-.14-.65.12-1.26.49-2.48,1.08-3.6.82-1.59,1.29-3.34,1.38-5.13.04-.39-.08-.78-.33-1.08s-.61-.5-1-.54h-.34c-.11,0-.23.02-.34.03h.27c.32.07.6.26.79.52.19.26.29.58.27.91-.13,1.52-.57,3-1.29,4.34-.79,1.47-1.26,3.1-1.38,4.77.01.66.27.83.42.89h0Z" fill="#f60"/>
  <path d="M75.5,54.6c-.02.22-.05.44-.11.65-.06.22-.14.43-.24.63-.12.29-.29.55-.51.77s-.48.39-.77.51c-.63.18-1.3.11-1.88-.19-.32-.13-.61-.32-.86-.56-.22-.21-.39-.47-.51-.75-.11-.27-.15-.57-.14-.86.02-.32.1-.64.25-.92.1-.2.21-.4.34-.58.12-.17.26-.33.41-.47l.69.32c-.18.13-.34.28-.47.45-.13.17-.25.35-.34.54-.09.18-.13.37-.14.57,0,.2.03.39.11.57.08.19.21.37.36.52.18.17.39.31.62.41.42.22.92.28,1.38.15.2-.07.38-.18.53-.33.15-.14.27-.32.35-.51.09-.19.15-.39.2-.6.04-.21.06-.42.05-.63l.7.31h-.02Z" fill="#f60"/>
  <path d="M78.87,44.05c.09.05.17.1.25.15l.19.12-1.76,2.75c.34.23.77.31,1.17.23.4-.12.75-.4.95-.76.08-.12.14-.23.21-.35s.12-.23.17-.35.1-.23.14-.34l.11-.31.57.34c-.07.23-.16.47-.26.69-.12.26-.26.51-.41.75-.18.3-.42.56-.69.78-.23.18-.5.3-.79.35s-.59.03-.87-.05c-.34-.09-.66-.23-.96-.41-.27-.16-.52-.36-.73-.59-.2-.22-.35-.47-.45-.74-.1-.26-.13-.55-.1-.83.03-.3.14-.59.31-.85.16-.25.36-.47.6-.64.2-.15.44-.26.69-.31.26-.06.54-.06.8,0,.31.07.61.19.88.36h-.02ZM78.32,44.69c-.16-.11-.34-.19-.52-.24-.17-.05-.34-.06-.51-.03-.16.02-.32.08-.46.17-.15.1-.28.24-.38.4-.09.14-.15.29-.17.45-.01.16,0,.31.05.46.06.16.15.31.25.44.12.15.27.28.43.39,0,0,1.31-2.04,1.31-2.04Z" fill="#f60"/>
  <path d="M81.27,37.22l.45-.55.62.43c-.04-.18-.06-.37-.07-.55,0-.15,0-.3.03-.44.02-.13.06-.26.12-.37.06-.12.14-.23.22-.33.12-.16.27-.3.45-.4.18-.1.37-.16.58-.18.46.02.91.19,1.26.5l2.44,1.85-.51.62-2.35-1.84c-.22-.19-.49-.31-.78-.34-.12,0-.23.03-.33.09-.1.05-.19.13-.26.22-.06.07-.11.16-.15.25-.04.1-.06.21-.06.32-.02.14-.02.29,0,.43.03.2.07.4.12.59l2.47,1.88-.51.62-3.74-2.81h0Z" fill="#f60"/>
  <path d="M94.69,29.53c-.1.16-.21.32-.34.46-.13.15-.26.3-.41.43-.32.35-.76.58-1.23.63-.23,0-.45-.06-.65-.15-.2-.09-.39-.23-.54-.4l-1.76-1.69-.94.9-.49-.47.94-.9-.92-.89.43-.69,1.07,1.03,1.51-1.45.49.47-1.51,1.45,1.71,1.64c.09.1.2.19.33.24.13.06.26.09.4.09.29-.02.56-.16.75-.37.12-.11.23-.23.33-.36.12-.15.22-.3.32-.46l.5.47v.02Z" fill="#f60"/>
  <path d="M97.17,21.45l.59-.45.56.65c0-.36.07-.71.2-1.05.11-.27.28-.51.51-.69.16-.14.35-.24.55-.29s.42-.06.62-.01c.47.14.89.45,1.16.87l-.65.5c-.17-.26-.41-.46-.69-.58-.11-.03-.22-.04-.33-.02s-.21.07-.3.14c-.09.07-.16.16-.23.25-.07.11-.12.22-.15.34-.04.16-.07.31-.09.47-.02.21-.03.42-.03.63l1.89,2.31-.69.5-2.93-3.57h.01Z" fill="#f60"/>
  <path d="M111.3,17.55l-.34-.52c-.07.31-.21.6-.39.85-.17.23-.39.42-.63.56-.2.12-.42.21-.65.26-.18.04-.37.04-.56,0-.17-.03-.32-.11-.45-.21-.14-.11-.26-.24-.36-.39-.12-.17-.19-.37-.22-.58-.02-.21.01-.42.09-.61.25-.49.64-.88,1.14-1.12l.84-.49-.22-.34c-.06-.11-.15-.2-.24-.27-.1-.07-.21-.12-.33-.15-.3-.04-.6.04-.84.21-.23.13-.44.29-.63.47-.2.19-.39.39-.56.61l-.39-.61.24-.27.29-.28c.11-.1.22-.19.35-.28.12-.1.25-.18.39-.25.22-.13.45-.24.69-.32.22-.06.46-.08.69-.06.2.03.4.1.57.22.19.13.35.3.47.5l1.71,2.69-.65.37h-.01ZM110.1,15.82l-.89.52c-.15.09-.3.19-.43.32-.1.09-.17.2-.22.32-.04.11-.05.22-.03.33.02.12.06.23.12.32.05.07.11.14.18.19.07.06.14.1.23.12.1.02.2.02.3,0,.12-.02.24-.07.34-.13.19-.12.34-.28.47-.47.17-.26.29-.54.37-.84l-.43-.69h-.01Z" fill="#f60"/>
  <path d="M117.11,8.13l-1.28.56-.28-.59,2.07-.89,2.5,5.25,1.29-.56.28.6-3.44,1.52-.28-.61,1.42-.62-2.26-4.65h-.02Z" fill="#f60"/>
  <path d="M141.82,6.73l-.64-3.22c-.02-.12-.05-.23-.08-.34-.02-.07-.06-.14-.1-.2-.03-.04-.06-.08-.11-.1-.05,0-.09,0-.14,0-.06,0-.12.04-.17.09-.06.06-.1.13-.13.21-.06.11-.1.23-.14.35-.05.14-.1.33-.16.54l.58,2.88-.74.13-.63-3.13c-.02-.13-.05-.26-.09-.39-.02-.08-.06-.16-.1-.23-.02-.05-.06-.08-.11-.1-.05,0-.1,0-.15,0-.05,0-.1.04-.14.08-.06.06-.1.12-.14.19-.05.11-.1.23-.14.35-.05.15-.1.34-.16.56l.58,2.88-.74.14-.89-4.48.62-.12.21.85c.04-.16.09-.32.14-.47.05-.12.11-.23.18-.33.06-.08.14-.15.23-.21s.19-.09.3-.11c.11-.03.22-.03.32,0,.11.02.21.07.29.14.19.19.31.43.34.69.05-.17.09-.32.14-.45.04-.12.1-.24.17-.34.06-.09.14-.17.23-.23.1-.07.21-.11.33-.13.58-.11.97.28,1.14,1.14l.65,3.27-.75.13v-.04Z" fill="#f60"/>
  <path d="M152.22,5.58l-.06-.61c-.21.24-.47.43-.75.58-.26.13-.54.2-.83.22-.23.02-.46,0-.69-.05-.18-.05-.35-.13-.49-.24-.13-.11-.24-.24-.31-.39-.07-.16-.11-.33-.12-.51-.02-.21,0-.42.09-.61s.21-.36.37-.5c.45-.32.99-.49,1.54-.5l.99-.07v-.4c0-.12-.04-.24-.09-.35s-.13-.2-.23-.28c-.25-.16-.55-.23-.84-.19-.27,0-.53.06-.79.14-.27.08-.54.18-.79.3l-.06-.69.35-.13.39-.12.44-.1c.15-.03.31-.05.47-.06.26-.02.53,0,.79.03.21.04.42.12.6.24.17.11.31.26.41.44.1.2.16.43.17.65l.23,3.14-.78.02v.04ZM151.98,3.51l-1.05.07c-.18,0-.36.04-.53.1-.13.04-.25.11-.35.19-.08.08-.15.17-.19.28-.04.11-.06.23-.05.34,0,.09.03.17.06.25s.09.15.15.2c.07.06.17.11.26.13.12.02.25.02.37,0,.22-.02.44-.09.63-.21.27-.15.52-.35.74-.58l-.06-.78h.02Z" fill="#f60"/>
  <path d="M160.38.89l.76.03v.84c.24-.28.54-.51.87-.69.26-.13.55-.19.84-.18.21,0,.42.04.61.13s.36.22.49.38c.26.41.36.9.29,1.38l-.83-.04c.05-.3,0-.61-.15-.87-.06-.09-.15-.16-.24-.22-.1-.05-.21-.08-.32-.08s-.23,0-.34.04c-.13.04-.25.09-.36.17-.14.09-.27.19-.39.3-.16.14-.31.29-.45.45l-.14,2.93-.83-.03.2-4.54h0Z" fill="#f60"/>
  <path d="M174.95,6.99l-1.11-.18-1.78-2.75-.41,2.42-.82-.13L171.93,0l.81.12-.69,3.9,2.46-1.72,1.08.17-2.57,1.73,1.92,2.79h.01Z" fill="#f60"/>
  <path d="M185.89,7.04c0,.11-.06.2-.08.27s-.06.14-.08.2l-3.21-.9c-.07.18-.1.38-.09.58s.07.39.16.56c.24.35.6.6,1.02.69l.41.1.4.07.37.04h.34l-.19.63c-.26,0-.52-.02-.78-.06-.29-.04-.58-.11-.86-.19-.34-.09-.67-.24-.96-.43-.24-.16-.43-.38-.56-.64-.12-.26-.19-.54-.19-.82,0-.34.06-.67.16-.99.09-.3.23-.58.41-.84.16-.24.38-.45.62-.61.24-.16.52-.27.8-.32.31-.05.63-.03.94.06.29.08.56.21.81.39.21.16.37.35.49.58.11.23.18.49.19.75,0,.3-.04.6-.13.88h.01ZM185.1,6.71c.07-.18.1-.36.1-.55,0-.17-.03-.33-.1-.48s-.17-.28-.3-.38c-.15-.12-.32-.2-.5-.25-.16-.05-.33-.06-.5-.03-.16.02-.32.08-.46.17-.14.1-.27.21-.38.35-.12.15-.21.32-.28.5l2.4.67h.02Z" fill="#f60"/>
  <path d="M195.08,13.07c-.19-.03-.38-.07-.57-.13s-.38-.12-.57-.2c-.45-.15-.83-.45-1.07-.86-.08-.2-.11-.42-.1-.64s.07-.43.18-.62l.98-2.19-1.23-.5.28-.61,1.23.5.51-1.16.85.12-.6,1.34,1.96.81-.27.61-1.97-.81-.95,2.13c-.06.12-.1.25-.11.38,0,.13,0,.27.06.39.14.25.37.43.64.52.15.07.31.12.47.16.18.05.37.09.56.12l-.28.63h0Z" fill="#f60"/>
  <path d="M215.18,22.14c-.21.27-.45.5-.74.69-.25.17-.54.29-.83.35-.29.06-.59.06-.88,0-.31-.08-.61-.22-.87-.41-.25-.17-.47-.39-.64-.65-.15-.22-.24-.48-.28-.75-.02-.29.02-.57.12-.84.12-.32.29-.62.5-.89.2-.27.45-.5.73-.69.25-.17.54-.29.83-.35.29-.06.59-.06.88,0,.32.08.61.22.87.41.25.17.47.39.64.65.15.22.25.48.28.75.03.28,0,.57-.11.83-.12.32-.29.63-.5.9h0ZM214.5,21.69c.16-.21.29-.44.39-.69.08-.18.11-.38.1-.58,0-.18-.06-.36-.15-.51-.1-.16-.23-.3-.39-.41-.17-.13-.38-.22-.59-.25-.19-.03-.39,0-.58.05-.19.07-.38.17-.54.3-.17.14-.33.29-.46.47-.16.2-.29.41-.38.65-.08.19-.12.38-.11.59,0,.18.06.35.15.51.1.16.24.3.4.41.17.13.38.22.59.25.19.03.39,0,.58-.05.19-.07.38-.16.54-.29.16-.13.31-.28.45-.44h0,0Z" fill="#f60"/>
  <path d="M225.96,26.78c-.21-.3-.45-.58-.72-.83-.1-.12-.23-.21-.37-.27-.14-.06-.3-.09-.45-.08-.15,0-.31.05-.44.12-.14.07-.25.18-.35.3l-.57.58,1.51,1.38-.48.48-1.51-1.38-2.33,2.35-.61-.55,2.33-2.35-1.12-1.01.47-.47,1.11,1.01.54-.55c.87-.88,1.79-.88,2.75,0,.25.24.49.51.69.8l-.47.48h.02Z" fill="#f60"/>
  <path d="M91.11,161.59c-.19-.32-.4-.61-.65-.89-.09-.12-.21-.22-.35-.3-.14-.07-.29-.11-.44-.12-.15,0-.31.03-.45.09s-.27.16-.37.28l-.62.53,1.38,1.49-.52.44-1.38-1.49-2.52,2.16-.56-.6,2.52-2.16-1.02-1.1.51-.44,1.02,1.1.59-.5c.95-.8,1.86-.74,2.75.2.24.27.46.55.65.85l-.54.45h0Z" fill="#f60"/>
  <path d="M97.1,167.02l-1.05-.89.45-.48,1.68,1.42-3.98,4.32,1.07.89-.45.5-2.86-2.42.45-.49,1.18.99,3.52-3.84h0Z" fill="#f60"/>
  <path d="M105.62,177.66c-.19.26-.42.5-.69.69-.24.18-.52.31-.82.38-.29.06-.59.06-.88,0-.32-.06-.62-.19-.89-.38-.27-.16-.5-.38-.69-.63-.16-.22-.26-.48-.3-.74-.04-.28-.01-.57.08-.83.11-.33.27-.64.48-.91.19-.27.42-.5.69-.69.25-.18.52-.31.82-.37.29-.07.59-.07.88,0,.32.06.62.19.89.38.27.16.5.38.69.63.16.22.26.47.3.74.04.28.01.57-.08.84-.11.32-.27.63-.47.9h-.01ZM104.93,177.23c.15-.21.28-.44.36-.69.07-.19.09-.39.08-.59-.01-.18-.07-.35-.17-.49-.11-.16-.24-.3-.41-.41-.18-.12-.39-.2-.6-.23-.2-.02-.39,0-.58.07s-.37.17-.52.31c-.17.14-.32.3-.45.48-.15.21-.27.44-.36.69-.07.19-.1.39-.09.59.02.18.07.35.17.5.11.16.25.3.41.4.18.13.38.21.6.23.2.02.39,0,.58-.07s.37-.18.52-.31c.16-.15.3-.31.42-.49h.04Z" fill="#f60"/>
  <path d="M116.69,181.16l-2.84,3.73-.88-.45.32-2,.1-.47-.38.36-1.5,1.38-.84-.43,1.62-4.34.69.36-1.16,2.92-.26.65.47-.44,1.61-1.51.53.27-.33,2.12-.1.63.37-.54,1.85-2.6.72.35h0Z" fill="#f60"/>
  <path d="M125.66,187.03c-.04.1-.08.19-.11.26-.03.07-.06.13-.09.19l-3.12-1.15c-.08.18-.13.37-.13.57s.05.39.13.57c.21.37.55.64.96.76.13.05.26.09.39.12l.39.1.37.07.34.04-.25.61c-.26-.02-.51-.06-.76-.12-.28-.07-.56-.15-.84-.25-.34-.11-.65-.29-.92-.51-.22-.18-.4-.42-.5-.69-.1-.26-.14-.55-.12-.83.03-.33.12-.66.25-.97.11-.29.27-.57.47-.81.19-.23.43-.41.69-.56.26-.14.54-.22.83-.25.32-.03.63.02.92.14.28.1.54.25.77.44.19.17.34.38.44.62.1.24.14.5.12.76-.03.3-.11.6-.24.88h0ZM124.9,186.62c.08-.17.14-.35.15-.54.02-.16,0-.33-.06-.49-.06-.15-.15-.29-.26-.4-.14-.13-.3-.23-.47-.29-.16-.06-.33-.08-.5-.07-.16,0-.32.06-.46.13-.15.08-.29.19-.41.32-.13.15-.24.31-.32.48l2.33.86h0Z" fill="#f60"/>
  <path d="M133.25,187.16l.73.18-.19.82c.3-.22.63-.38.99-.49.28-.07.58-.07.86,0,.2.03.4.11.56.23.17.12.31.28.41.46.16.44.16.93,0,1.38l-.81-.2c.11-.28.13-.59.05-.88-.04-.1-.11-.19-.2-.26-.08-.07-.19-.12-.29-.14-.11-.02-.23-.02-.34,0-.13,0-.26.04-.39.09-.15.06-.3.14-.45.23-.16.1-.34.21-.53.36l-.75,2.84-.81-.2,1.16-4.41h0Z" fill="#f60"/>
  <path d="M147.07,193.05c0,.15-.06.29-.14.41-.07.12-.17.23-.28.31-.11.09-.24.16-.37.21-.14.06-.29.1-.43.12-.15.03-.31.04-.47.04-.15,0-.3,0-.45,0-.29-.04-.59-.09-.87-.15-.26-.06-.52-.14-.77-.23l.1-.72c.26.11.53.2.8.27.26.07.53.12.8.16.3.06.6.04.9-.05.09-.03.17-.08.23-.15.06-.07.1-.16.11-.25.02-.07.02-.15,0-.23-.03-.08-.08-.15-.14-.21-.1-.09-.21-.17-.34-.23-.16-.08-.37-.18-.65-.3-.2-.08-.38-.18-.57-.28-.16-.09-.3-.2-.43-.33-.12-.11-.21-.25-.26-.41-.06-.16-.08-.34-.05-.52.03-.14.07-.28.14-.4.09-.16.22-.29.37-.39.2-.12.41-.21.64-.25.32-.05.64-.05.96,0,.19,0,.39.06.61.11s.45.11.69.19l-.1.69c-.23-.09-.46-.17-.69-.23-.19-.05-.39-.09-.59-.12-.17-.02-.35-.02-.52,0-.12,0-.24.04-.35.08-.08.04-.16.09-.21.17-.05.06-.08.14-.08.22-.02.07-.02.15,0,.23.04.08.09.15.16.21.11.09.22.17.35.23.15.08.35.17.6.28.24.09.47.21.69.33.16.1.3.21.43.34.1.11.17.25.21.39.02.14,0,.28-.02.42v.04Z" fill="#f60"/>
  <path d="M169.19,194.17l-.08-.61c-.2.25-.45.45-.73.61-.25.14-.53.22-.82.25-.23.04-.46.04-.69,0-.18-.03-.36-.11-.5-.23-.14-.1-.24-.23-.32-.38-.08-.16-.13-.33-.14-.5-.03-.21,0-.42.06-.61s.19-.37.35-.51c.44-.34.97-.53,1.53-.55l.98-.1-.04-.4c0-.12-.05-.24-.11-.35s-.14-.2-.24-.27c-.25-.15-.56-.21-.85-.15-.26.02-.53.08-.78.17-.27.09-.53.2-.78.32l-.08-.69c.11-.05.22-.1.34-.14.12-.05.26-.1.39-.14l.43-.11c.15-.03.31-.06.47-.08.26-.03.52-.03.79,0,.22.03.42.1.61.21.17.11.31.26.41.43.11.2.18.41.2.64l.35,3.13-.75.04v.02ZM168.88,192.1l-1.04.11c-.18,0-.35.05-.52.11-.13.04-.24.12-.34.21-.09.07-.15.17-.18.28-.04.11-.05.23-.03.34,0,.09.03.17.07.25.04.08.1.14.16.2.08.06.17.1.26.12.12.02.25.02.37,0,.22-.03.44-.11.63-.23.26-.17.49-.37.69-.6l-.06-.79h-.01Z" fill="#f60"/>
  <path d="M176.5,188.42l.69-.16.2.69c.09-.17.19-.32.3-.47.09-.12.2-.23.32-.33.1-.09.22-.16.34-.21s.25-.09.38-.12c.2-.06.4-.07.61-.04.2.03.4.1.57.21.36.28.61.69.69,1.14l.69,2.9-.8.18-.69-2.84c-.05-.28-.18-.54-.39-.73-.1-.07-.21-.12-.33-.14s-.24,0-.36.02c-.1.02-.19.06-.28.1-.1.06-.19.13-.26.21-.1.11-.19.23-.26.35-.09.15-.19.32-.29.53l.69,2.95-.8.18-1.01-4.43h-.01Z" fill="#f60"/>
  <path d="M187.68,187.99c-.12-.33-.19-.67-.21-1.02,0-.3.05-.6.17-.87.12-.27.3-.5.53-.69.25-.21.53-.37.84-.47.14-.05.29-.08.43-.12.14-.03.29-.05.43-.05l-.69-1.81.78-.27,2.27,6.04-.69.24-.34-.8c-.08.33-.24.64-.45.91-.2.23-.45.41-.74.5-.23.09-.48.12-.73.08-.24-.04-.46-.13-.65-.27-.21-.16-.4-.35-.54-.57-.17-.26-.31-.54-.42-.83h.01ZM188.46,187.67c.13.42.36.79.69,1.08.11.1.25.16.39.19s.29,0,.43-.03c.22-.09.41-.26.53-.47.18-.31.32-.64.41-.98l-.74-2c-.16-.02-.32-.02-.48,0-.16.02-.32.06-.47.12-.19.05-.36.14-.5.27-.15.13-.26.28-.34.46-.14.45-.1.94.1,1.37h-.02Z" fill="#f60"/>
  <path d="M211.52,176.34c.21.29.37.63.46.98.07.29.07.6,0,.9-.06.28-.18.54-.36.76-.19.24-.42.45-.69.61-.13.08-.26.15-.39.22-.14.07-.28.13-.43.18l1.1,1.59-.69.44-3.69-5.37.61-.39.48.61c0-.33.09-.66.25-.95.16-.25.37-.46.62-.61.21-.14.44-.22.69-.25.24,0,.47.03.69.12.26.1.49.25.69.43.24.22.46.46.65.73h0ZM210.84,176.81c-.13-.18-.27-.36-.42-.52-.13-.13-.28-.25-.44-.34-.14-.07-.29-.11-.45-.12-.15,0-.3.05-.43.13-.09.06-.17.13-.24.21-.07.1-.14.2-.19.31-.06.14-.1.29-.14.44-.04.2-.07.4-.08.6l1.27,1.85c.17-.03.33-.07.48-.13.15-.05.3-.13.44-.21.17-.1.31-.23.42-.39s.18-.34.21-.53c0-.47-.14-.93-.44-1.29h0Z" fill="#f60"/>
  <path d="M216.18,168.6l-1.07.87-.44-.5,1.71-1.38,3.88,4.4,1.08-.88.45.5-2.92,2.37-.44-.51,1.19-.96-3.44-3.92h0Z" fill="#f60"/>
  <path d="M229.42,164.4l-.48-.41c.02.31-.03.62-.13.92-.1.26-.26.49-.45.69-.16.17-.35.32-.56.42-.16.09-.35.13-.53.15-.17,0-.34-.02-.5-.09-.17-.07-.32-.17-.46-.29-.16-.13-.29-.3-.37-.5-.08-.19-.11-.4-.09-.61.1-.53.38-1.01.78-1.38l.69-.69-.3-.28c-.09-.09-.2-.15-.32-.2-.12-.04-.24-.06-.37-.05-.29.04-.56.18-.74.41-.18.18-.34.39-.47.61-.15.23-.27.48-.37.74l-.55-.49c.05-.1.1-.21.16-.32s.13-.23.21-.35c.08-.12.16-.23.26-.36.1-.12.19-.23.3-.34.17-.19.38-.35.6-.48.19-.12.39-.19.61-.22.2-.03.41,0,.61.06.22.08.42.2.59.36l2.4,2.15-.51.54h-.01ZM227.78,163.03l-.69.74c-.12.12-.23.26-.32.41-.07.11-.1.24-.12.37,0,.11,0,.23.05.33.05.11.12.21.21.28.07.06.14.1.22.14s.17.06.25.06c.1,0,.2-.03.28-.08.11-.06.21-.13.3-.22.15-.16.26-.36.32-.57.09-.29.13-.6.13-.9l-.65-.55h.02Z" fill="#f60"/>
  <path d="M231.02,155.48l.43-.57.64.41c-.05-.18-.08-.36-.09-.54-.02-.15-.02-.3,0-.45.02-.13.06-.25.11-.37.06-.12.13-.23.21-.34.11-.17.26-.32.44-.42s.37-.17.58-.19c.46,0,.92.15,1.27.45l2.51,1.76-.49.64-2.45-1.73c-.23-.18-.5-.29-.79-.3-.12,0-.23.04-.33.09-.1.06-.19.14-.25.23-.06.08-.11.16-.14.26-.03.1-.05.21-.06.32,0,.15.02.29.05.43,0,.17.08.36.14.59l2.55,1.79-.49.64-3.83-2.7h-.01Z" fill="#f60"/>
  <path d="M243.14,145.77c-.05.18-.12.36-.19.53-.08.18-.17.35-.28.52-.21.42-.57.75-1.01.92-.22.06-.45.07-.67.03s-.44-.12-.63-.24l-2.16-1.18-.65,1.12-.61-.33.69-1.11-1.14-.62.22-.79,1.33.72,1.05-1.79.6.33-1.05,1.78,2.11,1.14c.12.08.25.13.39.15.14.02.28.02.41-.02.27-.1.49-.29.62-.55.08-.14.15-.28.21-.43.07-.17.13-.35.18-.52l.59.34h-.01Z" fill="#f60"/>
  <path d="M246.83,135.35c.14.05.27.14.39.24.1.1.18.21.23.34.06.13.1.26.11.4.02.14.02.29,0,.43,0,.15-.04.3-.07.44-.04.14-.09.28-.15.41-.11.26-.24.52-.39.77-.12.23-.27.45-.43.65l-.69-.28c.18-.22.34-.45.48-.69.14-.22.27-.45.38-.69.13-.26.2-.54.19-.83,0-.09-.04-.18-.1-.26-.06-.07-.13-.13-.22-.17-.07-.03-.15-.04-.23-.04s-.17.03-.24.07c-.11.07-.22.16-.32.26-.17.17-.33.34-.47.52-.13.16-.28.31-.43.45-.13.12-.29.23-.45.31-.15.08-.31.12-.48.13-.18,0-.36-.02-.53-.09-.14-.06-.26-.14-.37-.25-.13-.12-.23-.27-.28-.44-.08-.22-.11-.46-.08-.69.03-.31.11-.61.24-.89.08-.18.17-.36.27-.54.11-.2.23-.4.37-.59l.69.27c-.15.19-.29.39-.41.6-.1.17-.2.34-.28.52-.07.15-.12.31-.15.48-.02.12-.02.24,0,.35,0,.09.05.17.11.24.05.06.12.11.2.14.07.03.15.05.23.05.09,0,.18-.05.26-.1.12-.07.23-.16.32-.26.12-.12.27-.28.44-.48.15-.19.32-.37.51-.54.14-.12.29-.23.46-.3.14-.07.29-.1.44-.09.15.02.3.07.43.14h.02Z" fill="#f60"/>
  <path d="M101.77,138.95c14.57-3.26,29.15-6.53,43.91-8.89,14.76-2.37,29.67-3.64,44.62-3.8,8.46-.08,16.91.19,25.36.82,1.62.12,1.61-2.31,0-2.42-15.03-1.12-30.12-1.11-45.15.03-14.95,1.25-29.82,3.43-44.5,6.52-8.33,1.69-16.62,3.55-24.91,5.4-1.58.35-.92,2.68.69,2.33h-.02,0Z" fill="#f60"/>
</svg>