<?xml version="1.0" encoding="UTF-8"?>
<svg id="Layer_2" data-name="Layer 2" xmlns="http://www.w3.org/2000/svg" width="150" height="121" viewBox="0 0 150 121">
  <path d="M92.45,33.53c.08,0,.16.01.25.01h0c.69,0,1.32-.22,1.91-.67.66-.5,1.01-1.1,1.07-1.82l.46-5.53c.03-.36-.03-.69-.17-1.03-.15-.35-.37-.67-.64-.95-.27-.28-.58-.51-.94-.68-.36-.17-.73-.27-1.14-.3-1.21-.09-2.43-.16-3.63-.23l-.49-.03-.59,10.99.49.03c1.16.07,2.32.14,3.45.22Z" fill="#f60"/>
  <path d="M134.83,59.13c-.11-.33-.37-.57-.7-.65-3.46-.83-6.99-1.6-10.48-2.28-.31-.07-.64.03-.88.25-2.21,2.1-4.4,4.26-6.53,6.44l1.09-6.61s.01-.01.02-.02l.04-.03s.08-.06.12-.09l.04-.03s.08-.06.12-.09l.04-.03s.08-.06.12-.09l.04-.03s.08-.06.12-.09l.04-.03s.08-.06.13-.09l.04-.03s.08-.06.12-.09l.04-.03s.08-.06.12-.09l.04-.03s.08-.06.12-.09l.04-.03s.08-.06.12-.09l.05-.03s.08-.06.12-.09l.05-.03s.09-.06.12-.09l.04-.03s.08-.06.13-.09l.04-.03s.08-.06.12-.09l.05-.03s.08-.06.12-.09l.04-.03s.08-.06.12-.09l.05-.04s.08-.06.12-.09l.05-.03s.08-.06.12-.09l.05-.03s.08-.06.12-.09l.05-.04s.08-.06.12-.09l.05-.04s.08-.06.12-.09l.05-.04s.08-.06.12-.09l.05-.03s.08-.06.12-.09l.05-.04s.08-.06.12-.09l.05-.03s.08-.06.12-.09l.05-.03s.08-.06.12-.09l.05-.04s.08-.06.12-.09l.05-.03s.08-.06.12-.09l.05-.04s.08-.06.12-.09l.05-.04s.08-.06.12-.09l.05-.03s.08-.06.12-.09l.05-.03s.08-.06.12-.09l.05-.04s.08-.06.12-.09l.05-.04s.08-.06.12-.09l.05-.03s.08-.06.12-.09l.05-.04s.08-.06.12-.09l.05-.03s.08-.06.12-.09l.05-.04s.08-.06.12-.09l.05-.03s.08-.06.12-.09l.05-.04s.08-.06.12-.09l.05-.04s.08-.06.12-.09l.05-.03s.05-.04.07-.05c.7-.23,1.35-.51,1.96-.85,1.18-.67,2.19-1.55,3-2.62.64-.84,1.15-1.78,1.53-2.79.11-.12.18-.27.22-.42l3.09-12.88c.34-1.42.39-2.83.13-4.21-.26-1.4-.84-2.71-1.71-3.9-.87-1.17-2.04-2.22-3.5-3.11-1.46-.89-3.19-1.54-5.17-1.95-4.52-.86-9.12-1.61-13.68-2.23-.26-.04-.52.03-.73.19-.21.16-.35.39-.38.65l-.12.9h-.05s-.03.23-.03.23h-.08s-.03.23-.03.23h-.08s-.03.22-.03.22h-.08s-.03.23-.03.23h-.08s-.03.22-.03.22h-.08s-.03.22-.03.22h-.08s-.03.22-.03.22h-.08s-.03.23-.03.23h-.08s-.03.22-.03.22h-.08s-.03.23-.03.23h-.08s-.03.22-.03.22h-.08s-.03.22-.03.22h-.08s-.03.23-.03.23h-.08s-.03.22-.03.22h-.08s-.03.22-.03.22h-.08s-.03.23-.03.23h-.08s-.03.22-.03.22h-.08s-.03.22-.03.22h-.08s-.03.22-.03.22h-.08s-.03.23-.03.23h-.08s-.03.22-.03.22h-.08s-.03.23-.03.23h-.08s-.03.22-.03.22h-.08s-.03.22-.03.22h-.08s-.03.22-.03.22h-.08s-.03.22-.03.22h-.02c-.12-.72-.31-1.43-.58-2.12-.53-1.34-1.34-2.55-2.41-3.6-1.07-1.05-2.39-1.9-3.92-2.53-1.54-.63-3.25-.97-5.05-1.01-4.46-.32-8.99-.52-13.46-.6h-.05c-.27.02-.49.12-.65.28-.19.18-.3.43-.3.69l-.13,7.1-.07.95h-.01v.23h-.02v.23h-.02v.23h-.02v.23h-.02v.23h-.02v.23h-.02l-.19,2.56h-.01l-.02.47h-.01v.23h-.02v.23h-.02v.23h-.02v.23h-.02l-.03.73-.57,7.41h-.04s0,.23,0,.23h-.01v.23h-.02v.23h-.02l-.19,2.56h-.01v.08c-2.34-8.42-4.94-16.84-7.77-25.12-.14-.4-.51-.67-.95-.67h-.02c-4.34.13-8.73.37-13.05.71-.44.03-.79.34-.89.77-1.3,5.8-2.48,11.65-3.55,17.52v-.06s-.08.01-.08.01l-.03-.23h-.07s-.03-.23-.03-.23h-.07s-.03-.23-.03-.23h-.07s-.03-.22-.03-.22h-.07s-.03-.22-.03-.22h-.07s-.03-.23-.03-.23h-.07s-.03-.22-.03-.22h-.07s-.03-.22-.03-.22h-.07s-.03-.22-.03-.22h-.07s-.03-.22-.03-.22h-.07s-.03-.22-.03-.22h-.07s-.03-.22-.03-.22h-.07s-.03-.22-.03-.22h-.07s-.03-.22-.03-.22h-.07s-.03-.22-.03-.22h-.08s-.04-.23-.04-.23h-.05s-.03-.22-.03-.22h-.07s-.03-.22-.03-.22h-.08s-.04-.23-.04-.23h-.06s-.04-.22-.04-.22h-.05s-.03-.23-.03-.23h-.07s-.03-.22-.03-.22h-.07s-.03-.22-.03-.22h-.07s-.03-.22-.03-.22h-.07s-.03-.22-.03-.22h-.07s-.03-.22-.03-.22h-.07s-.03-.22-.03-.22h-.07s-.03-.22-.03-.22h-.07s-.03-.22-.03-.22h-.07s-.03-.22-.03-.22h-.07s-.03-.23-.03-.23h-.07s-.03-.22-.03-.22h-.07s-.03-.23-.03-.23h-.07s-.03-.22-.03-.22h-.07s-.03-.22-.03-.22h-.07s-.03-.22-.03-.22h-.07s-.03-.22-.03-.22h-.07s-.03-.22-.03-.22h-.07s-.03-.23-.03-.23h-.07s-.03-.22-.03-.22h-.07s-.03-.22-.03-.22h-.07s-.03-.23-.03-.23h-.07s-.03-.22-.03-.22h-.07s-.03-.23-.03-.23h-.07s-.03-.22-.03-.22h-.07s-.03-.23-.03-.23h-.07s-.03-.22-.03-.22h-.07s-.03-.22-.03-.22h-.07s-.03-.22-.03-.22h-.07s-.03-.22-.03-.22h-.07s-.03-.22-.03-.22h-.07s-.03-.22-.03-.22h-.07s-.03-.23-.03-.23h-.07s-.03-.22-.03-.22h-.07s-.03-.22-.03-.22h-.07s-.03-.22-.03-.22h-.07s-.03-.23-.03-.23h-.07s-.03-.22-.03-.22h-.07s-.03-.22-.03-.22h-.07s-.03-.22-.03-.22h-.07s-.03-.22-.03-.22h-.07s-.03-.23-.03-.23h-.07s-.03-.23-.03-.23h-.07s-.03-.23-.03-.23h-.07s-.03-.22-.03-.22h-.07s-.03-.23-.03-.23h-.01s-.15-1.16-.15-1.16c-.07-.54-.57-.92-1.11-.85-3.02.4-6.08.85-9.08,1.36-.54.09-.9.6-.81,1.14l2.25,13.36h-.06s-.05-.23-.05-.23l-.11.02-.05-.24-.11.02-.05-.24-.11.02-.05-.24-.11.02-.05-.23-.11.02-.05-.24-.11.02-.05-.24-.11.02-.05-.24-.11.02-.05-.24-.11.02-.05-.24-.11.02-.05-.24-.11.02-.05-.24-.11.02-.05-.24-.11.02-.05-.24-.11.02-.05-.24-.11.02-.05-.24-.11.02-.05-.24-.11.02-.05-.23-.11.02-.05-.24-.11.02-.05-.24-.11.02-.05-.24-.11.02-.05-.24-.11.02-.05-.24-.11.02-.05-.24-.11.02-.05-.24-.11.02-.05-.24-.11.02-.05-.24-.11.02-.05-.24-.11.02-.05-.24-.11.02-.05-.24-.11.02-.05-.24-.11.02-.05-.24-.11.02-.05-.24-.11.02-.05-.24-.11.02-.05-.23-.11.02-.05-.24-.11.02-.05-.24-.11.02-.05-.24-.11.02-.05-.24-.11.02-.05-.24-.11.02-.05-.24-.11.02-.05-.24-.11.02-.05-.24-.11.02-.05-.24-.11.02-.05-.24-.11.02-.05-.24-.11.02-.05-.24-.11.02-.05-.23-.11.02-.05-.24-.11.02-.05-.24-.11.02-.05-.24-.11.02-.05-.24-.11.02-.05-.24-.09.02-.14-.7c-.11-.53-.63-.88-1.16-.77-3,.61-6.03,1.28-9,1.99-.26.06-.47.22-.61.44-.14.22-.18.49-.12.75l7.41,30.84c.11.45.5.76.96.76h0c.08,0,.16,0,.23-.02.02,0,.04,0,.06-.01l.02.08.13-.03.03.14.13-.03.03.14.13-.03.03.14.13-.03.03.14.13-.03.03.14.13-.03.03.14.13-.03.03.14.13-.03.03.14.13-.03.03.14.13-.03.03.14.13-.03.03.14.13-.03.03.14.13-.03.03.14.13-.03.03.14.13-.03.03.14.13-.03.03.14.13-.03.03.14.13-.03.03.15.13-.03.03.14.13-.03.03.14.13-.03.02.1c-3.65.71-7.3,1.49-10.9,2.36-.26.06-.48.22-.61.44-.14.22-.18.49-.12.75l7.4,30.8c.11.45.5.76.96.76h0c.08,0,.16,0,.23-.02,0,0,0,0,.01,0l.03.12.12-.03.04.15.12-.03.04.16.12-.03.04.15.12-.03.04.15.12-.03.04.16.12-.03.04.15.12-.03.04.15.12-.03.04.16.12-.03.04.15.12-.03.04.15.12-.03.04.16.12-.03.04.15.12-.03.04.15.12-.03.04.16.12-.03.04.15.12-.03.04.15.12-.03.04.16.12-.03.04.15.12-.03.04.15.12-.03.04.16.12-.03.04.15.12-.03.04.15.12-.03.04.16.12-.03.04.15.12-.03.04.15.12-.03.04.16.12-.03.04.15.12-.03.04.16.12-.03.04.15.12-.03.04.15.12-.03.04.15.12-.03.04.16.12-.03.04.15.12-.03.04.15.12-.03.04.16.12-.03.04.15.12-.03.04.16.12-.03.04.15.12-.03.04.15.12-.03.04.16.12-.03.04.15.12-.03.04.15.12-.03.04.16.12-.03.04.15.12-.03.04.15.12-.03.04.16.12-.03.04.15.12-.03.04.15.12-.03.04.16.12-.03.04.15.12-.03.04.15.12-.03.04.16.12-.03.04.15.12-.03.04.15.12-.03.04.16.12-.03.04.15.12-.03.04.15.12-.03.04.16.12-.03.04.15.12-.03.04.15.12-.03.04.16.12-.03.04.15.12-.03.04.15.12-.03.04.16.12-.03.04.15.12-.03.04.16.12-.03.04.15.12-.03.04.15.12-.03.04.15.12-.03.04.16.12-.03.04.15.12-.03.04.15.12-.03.04.16.12-.03.04.15.12-.03.04.16.12-.03.04.15.12-.03.04.15.12-.03.04.16.12-.03.04.15.12-.03.04.15.12-.03.04.16.12-.03.04.15.12-.03.04.15.12-.03.04.16.12-.03.04.16.12-.03.04.15.12-.03.04.16.12-.03.04.16.12-.03.04.15.12-.03.04.16.12-.03.04.15.12-.03.04.15.12-.03.04.16.12-.03.04.15.12-.03.04.15.12-.03.04.16.12-.03.04.15.12-.03.04.15.12-.03.04.16.12-.03.04.15.12-.03.04.15.12-.03.04.16.12-.03.04.15.12-.03.04.16.12-.03.04.16.12-.03.04.15.12-.03.04.16.12-.03.04.15.12-.03.04.15.12-.03.04.15.12-.03.04.16.12-.03.04.15.12-.03.04.16.12-.03.04.15.12-.03.04.15.12-.03.04.16.12-.03.04.16.12-.03.04.15.12-.03.04.16.12-.03.04.16.12-.03.04.15.12-.03.04.16.12-.03.04.15.12-.03.04.15.12-.03.04.16.12-.03.04.15.12-.03.04.15.12-.03.04.16.12-.03.04.15.12-.03.04.15.12-.03.04.16.12-.03.04.15.48-.11c2.95-.71,5.96-1.31,8.95-1.8.72-.12,1.39-.36,1.99-.73.55-.34,1.02-.75,1.42-1.23v.07s.09-.01.09-.01l-.02.16h.1s-.02.13-.02.13h.1s-.02.15-.02.15h.1s-.02.13-.02.13h.1s-.02.15-.02.15h.1s-.02.14-.02.14h.1s-.02.15-.02.15h.1s-.02.13-.02.13h.1s-.02.14-.02.14l.64-.08c1.6-.2,3.23-.37,4.84-.51l.38-.03.07-.38c.1-.54.19-1.09.29-1.63,1.75-.14,3.52-.24,5.27-.3.16.53.32,1.06.48,1.59l.11.36h.38c1.61-.06,3.25-.08,4.86-.07h.65s-.04-.13-.04-.13h.04l-.04-.14h.04l-.04-.15h.04l-.04-.14h.04l-.04-.15h.04l-.04-.14h.04l-.04-.14h.04l-.04-.16h.04l-.03-.13h.04l-.04-.16h.04l-.03-.13h.04l-.04-.14h.04l-.04-.16h.04l-.03-.13h.04l-.04-.16h.04l-.04-.15h.04l-.03-.13h.01c.23.36.5.69.8,1,.56.57,1.28,1.04,2.11,1.39.82.34,1.77.55,2.83.62l.57.03c1.06.07,2.03-.02,2.89-.26.88-.25,1.64-.63,2.27-1.12.64-.5,1.16-1.11,1.55-1.82.1-.18.19-.37.27-.55l.03-.05s.04-.08.05-.11l.03-.05s.04-.08.05-.11l.03-.05s.04-.08.05-.11l.03-.05s.04-.08.05-.11l.03-.05s.04-.08.05-.11l.02-.05s.04-.08.05-.11l.03-.05s.04-.08.05-.11l.03-.05s.04-.08.05-.11l.02-.05s.04-.08.05-.11l.02-.05s.04-.08.05-.11l.03-.05s.04-.08.05-.11l.03-.05s.04-.08.05-.11l.03-.05s.04-.08.05-.11l.03-.05s.04-.08.05-.11l.03-.05s.04-.08.05-.11l.03-.05s.04-.08.05-.11l.03-.05s.04-.08.05-.11l.03-.05s.04-.08.05-.11l.03-.05s.04-.08.05-.11l.03-.05s.03-.06.04-.08l-.94,7.32.49.06c1.54.2,3.1.43,4.63.68l.49.08.03-.15h.08s.02-.13.02-.13h.08s.02-.13.02-.13h.08s.02-.13.02-.13h.08s.02-.14.02-.14h.08s.02-.14.02-.14h.08s.02-.14.02-.14l.08.02.02-.15h.08s.02-.14.02-.14h.08s.02-.14.02-.14h.08s.02-.14.02-.14h.08s.02-.14.02-.14h.08s.03-.14.03-.14h.08s.02-.13.02-.13h.08s.02-.13.02-.13h.08s.03-.16.03-.16h.08s.02-.11.02-.11h.08s.02-.14.02-.14h.08s0-.01,0-.01c.28.98.53,1.85.75,2.68l.08.3.3.06c1.76.34,3.54.73,5.28,1.15l.79.19-.05-.07-.04-.17.2.05-.04-.18.2.05-.04-.17.2.05-.04-.17.2.05-.04-.17.2.05-.04-.18.2.05-.04-.17.2.05-.04-.17.2.05-.05-.18.2.05-.04-.17.2.05-.04-.17.2.05-.04-.18.2.05-.04-.17.2.05-.04-.17.2.05-.04-.18.2.05-.04-.17.2.05-.04-.17.2.05-.04-.17.2.05-.04-.18.2.05-.04-.17.2.05-.04-.18.2.05-.04-.17.2.05-.04-.17.19.05-.04-.17.2.05-.04-.18.2.05-.04-.17.2.05-.04-.17.2.05-.04-.18.2.05-.04-.17.2.05-.04-.17.2.05-.04-.18.2.05-.04-.17.2.05-.04-.18.2.05-.04-.18.2.05-.04-.17.2.05-.04-.17.2.05-.04-.17.2.05-.04-.17.2.05-.04-.17.2.05-.04-.18.2.05-.04-.17.2.05-.04-.17.19.05-.04-.18.2.05-.04-.18.2.05-.04-.17.2.05-.04-.17.2.05-.04-.18.2.05-.04-.17.2.05-.04-.17.2.05-.04-.18.2.05-.04-.17.2.05-.04-.17.2.05-.04-.18.2.05-.04-.17.2.05-.04-.17.2.05-.04-.18.2.05-.04-.17.2.05-.04-.17.2.05-.04-.18.2.05-.04-.17.2.05-.04-.17.2.05-.04-.18.2.05-.04-.17.2.05-.04-.17.2.05-.04-.18.2.05-.04-.17.2.05-.04-.17.2.05-.04-.17.2.05-.04-.18.2.05-.04-.17.2.05-.04-.18.2.05-.04-.17.2.05-.04-.17.2.05-.04-.17.2.05-.04-.18.2.05-.04-.17.2.05-.04-.17.2.05-.04-.18.2.05-.04-.17.2.05-.04-.17.19.05-.04-.18.2.05-.04-.17.2.05-.04-.17.2.05-.04-.18.2.05-.04-.17.2.05-.04-.17.2.05-.05-.18.2.05-.04-.17.2.05-.04-.17.2.05-.04-.18.2.05-.04-.17.2.05-.04-.17.2.05-.04-.18.2.05-.04-.17.2.05-.04-.17.2.05-.04-.17.2.05-.04-.18.2.05-.04-.17.2.05-.04-.17.2.05-.04-.18.2.05-.04-.17.2.05-.04-.17.2.05-.04-.18.2.05-.04-.17.2.05-.04-.17.2.05-.04-.18.2.05-.04-.17.2.05-.04-.17.2.05-.04-.18.2.05-.04-.17.2.05-.04-.17.2.05-.04-.18.2.05-.04-.17.2.05-.04-.17.2.05-.04-.17.2.05-.04-.18.2.05-.04-.17.2.05-.04-.17.2.05-.04-.18.2.05-.04-.17.2.05-.04-.17.2.05-.04-.18.2.05-.04-.17.2.05-.04-.17.2.05-.04-.18.2.05-.04-.17.2.05-.04-.17.2.05-.04-.18.2.05-.04-.17.2.05-.04-.17.19.05-.04-.18.2.05-.04-.17.2.05-.03-.13s0,0,0,0h0s.06-.02.09-.02l.09.02v-.04c.19-.04.38-.11.52-.26.24-.24.34-.6.26-.93-1.32-5.33-2.84-10.7-4.51-16.01l.13-.12h0l.24-.2-.11-.03.22-.21h-.04s.22-.22.22-.22h0l.24-.21-.1-.02.22-.21h-.04s.22-.22.22-.22h-.04s.22-.22.22-.22h-.04s.22-.22.22-.22l.24-.2-.1-.03.22-.21h0l.23-.19-.1-.03.23-.22h0l.24-.21h-.06s.24-.22.24-.22h-.06s.24-.22.24-.22h-.06s.24-.22.24-.22l-.1-.02.22-.21.24-.2-.1-.02.22-.21h0l.24-.2-.11-.03.22-.21h-.04s.22-.22.22-.22h0l.24-.21h-.06s.24-.22.24-.22h-.06s.24-.22.24-.22l-.1-.02.22-.21h0l.24-.21h-.06s.24-.22.24-.22h-.06s.24-.22.24-.22h-.06s.23-.21.23-.21l-.06-.02.25-.22-.1-.02.22-.21h-.04s.22-.22.22-.22h0l.24-.21h-.06s.24-.22.24-.22l-.06-.02.24-.2-.1-.02.22-.21h0l.24-.2-.1-.02.22-.21h0l.23-.19-.06-.02.25-.22h-.06s.24-.22.24-.22l-.06-.02.24-.2-.1-.02.22-.21h0l.24-.21h-.06s.24-.22.24-.22h-.06s.24-.22.24-.22h-.06s.24-.22.24-.22h-.06s.24-.22.24-.22l-.07-.02.26-.22h-.06s.22-.21.22-.21h-.06s.24-.22.24-.22l-.1-.02.22-.21h-.04s.22-.22.22-.22h0l.24-.21h-.06s.24-.22.24-.22h0c.53-.47,1.06-.93,1.59-1.39.28-.24.4-.62.32-.98,0,0,0,0,0,0l.05-.05-.08-.02ZM24.8,52.86l-7.41-30.84c2.96-.71,5.97-1.38,8.96-1.98h0s3.57,17.65,3.57,17.65l.48-.1c2.22-.44,4.48-.86,6.73-1.25l.49-.08-2.99-17.76c2.99-.5,6.04-.96,9.05-1.35l4.13,31.45c-2.63.35-5.29.74-7.92,1.18l-1.12-6.66-.49.08c-2.16.37-4.35.77-6.5,1.2l-.49.1,1.34,6.62c-2.6.53-5.24,1.11-7.85,1.74ZM47.53,81.12c-.31,1.03-.8,1.98-1.45,2.81-.65.83-1.45,1.54-2.37,2.11-.93.57-1.97.95-3.09,1.14-5.13.85-10.3,1.89-15.35,3.1l-7.4-30.8c4.99-1.2,10.09-2.26,15.15-3.14.62-.11,1.23-.16,1.84-.16.65,0,1.29.06,1.92.19,1.21.24,2.3.67,3.25,1.28.94.6,1.73,1.37,2.35,2.29.61.91,1,1.94,1.15,3.05l.23,1.71c.14,1.02.07,2.02-.19,2.97-.17.6-.4,1.18-.7,1.73l-.24.45.46.22c1.02.5,1.93,1.19,2.69,2.06.99,1.13,1.6,2.48,1.79,4.02l.21,1.72c.14,1.1.05,2.2-.27,3.24ZM109.82,17.27c4.54.61,9.12,1.36,13.62,2.22,1.86.39,3.49,1,4.85,1.83,1.35.82,2.43,1.78,3.22,2.85.78,1.06,1.3,2.24,1.54,3.49.23,1.23.19,2.51-.12,3.79l-3.09,12.88-.1.09-.05.13c-.35.96-.83,1.84-1.42,2.64-.73.96-1.64,1.75-2.7,2.36-1.05.6-2.27,1.01-3.64,1.21-1.34.2-2.84.17-4.41-.11h0c-1.46-.28-2.95-.55-4.43-.8-2.48-.42-5-.81-7.49-1.14l4.25-31.43ZM80.35,15.02s.01,0,.05-.01c4.44.08,8.94.28,13.4.6,1.7.03,3.29.35,4.72.93,1.41.58,2.63,1.36,3.61,2.32.97.95,1.71,2.05,2.19,3.26.47,1.19.68,2.44.63,3.71l-.73,6.06c-.18,1.52-.71,2.93-1.57,4.19-.7,1.02-1.6,1.9-2.67,2.61l-.36.24.18.39c1.43,3.02,2.82,6.11,4.12,9.16-3.07-.39-6.18-.72-9.26-.98-1.2-2.29-2.45-4.6-3.73-6.87l-.13-.23-.27-.02c-.63-.04-1.26-.08-1.9-.11l-.49-.03h0s-.37,6.78-.37,6.78c-2.65-.14-5.34-.24-7.98-.29l.57-31.7ZM50.12,48.23s0,0,0,0c1.59-10.8,3.62-21.71,6.02-32.43,4.31-.35,8.68-.59,13-.71,2.01,5.88,3.9,11.83,5.66,17.8-.13,0-.19-.01-.24-.05l-.12-.08h-.15c-.07,0-.15-.03-.28-.08-.1-.04-.21-.08-.32-.11l-.07-.02h-.06s-.11-.04-.19-.05c-.27-.12-.54-.19-.78-.25-.14-.06-.29-.1-.43-.14-.16-.05-.31-.1-.43-.15l-.04-.02c-.14-.05-.26-.1-.38-.14-.16-.06-.31-.11-.44-.17l-.1-.05h-.16s-.06-.04-.06-.04l-.07-.04c-.11-.06-.22-.08-.3-.1-.04-.01-.08-.02-.1-.03l-.1-.04c-.1-.02-.19-.06-.3-.1-.15-.05-.32-.11-.51-.16h0c-.08-.05-.2-.11-.37-.14-.16-.11-.34-.16-.47-.2-.06-.02-.14-.04-.17-.06l-.05-.03c-.15-.07-.33-.16-.54-.18l-.13-.13h-.12s-.12-.05-.2-.06c-.17-.17-.4-.2-.57-.2-.03-.02-.07-.04-.11-.06-.09-.06-.21-.13-.36-.18l-.08-.03h-.04s-.02-.01-.02-.01c-.04-.02-.08-.04-.12-.07l-.98-.4c-.06-.03-.11-.06-.16-.09-.32-.91-.63-1.82-.95-2.73l-.56-1.59-.38,1.64c-.76,3.24-1.48,6.53-2.16,9.78l-.13.64h0s.65-.04.65-.04c1.5-.1,3.02-.18,4.53-.25.03.07.05.13.1.19v.09l.11.11c.02.05.06.13.12.2.06.18.15.32.21.42.05.08.08.13.1.17l.09.37h.11c.05.11.11.21.17.3.07.11.13.21.17.31l.03.06v.09l.14.14s.07.11.11.18c.04.08.09.16.14.24.06.13.14.28.29.44.03.06.07.13.11.2.04.07.08.14.11.2.05.1.12.19.18.27.03.04.07.08.09.12.08.17.18.31.27.43.07.1.14.2.19.3.15.3.35.63.55.9.15.29.35.56.54.81.06.09.12.2.18.3.07.13.14.25.21.36.12.18.24.37.38.52.01.02.02.03.03.05,0,.01,0,.02.01.03-.06-.02-.11-.05-.17-.07-.12-.05-.27-.11-.41-.15-.07-.02-.15-.05-.23-.07-.04-.14-.08-.29-.13-.43l-.11-.36h-.38c-.55.03-1.1.06-1.66.09-.05-.01-.09-.02-.14-.03-.06-.01-.13-.02-.2-.04l-.08-.03h-.08c-.17,0-.33.06-.48.15-2.31.1-4.63.23-6.93.41l-.38.03-.07.37c-.19,1.02-.38,2.04-.56,3.06-2.74.22-5.53.5-8.29.83,0,0,0,0,0,0h0ZM69.11,84.36c-.3-.99-.6-1.99-.9-2.98l-.11-.36h-.38c-3.17.13-6.4.32-9.59.58l-.38.03-.07.37c-.18,1.02-.37,2.04-.55,3.06-2.76.24-5.56.54-8.3.88,1.54-10.81,3.52-21.73,5.89-32.47,4.33-.37,8.73-.63,13.09-.76h0c3.61,10.38,6.86,20.99,9.65,31.55-2.77-.02-5.57.01-8.34.1ZM76.85,67.13c-.07-.09-.15-.18-.22-.28-.14-.16-.28-.33-.39-.51l-.07-.09c-.05-.05-.11-.12-.16-.19-.08-.1-.16-.19-.23-.27-.24-.24-.42-.48-.61-.74-.09-.13-.19-.27-.28-.41-.09-.14-.19-.29-.29-.42-.1-.19-.22-.35-.33-.49-.05-.06-.1-.12-.13-.17-.06-.1-.12-.19-.17-.28-.13-.2-.24-.38-.32-.58l-.06-.11c-.19-.25-.36-.55-.46-.81l-.02-.04c-.12-.24-.25-.49-.43-.75-.05-.27-.2-.48-.32-.62-.18-.43-.36-.84-.47-1.25l-.23-.48s-.02-.07-.03-.11c-.02-.08-.04-.18-.08-.29-.03-.14-.08-.26-.12-.38-.06-.18-.12-.36-.12-.52v-.15l-.08-.12s-.01-.08-.01-.13c0-.03,0-.06,0-.09h.37c.23.03.44.05.66.06.2.02.41.03.63.06h.07c.07,0,.15,0,.17.02l.06.03h.06c.19.05.39.07.58.09.17.02.34.03.48.06h.1c.15.01.31.03.46.04.15.02.31.03.46.03h.56v-.77l-.18-.18c-.09-.12-.18-.2-.25-.26-.02-.02-.05-.04-.06-.04-.03-.11-.09-.2-.18-.28v-.04l-.37-.37c-.15-.22-.3-.37-.43-.5-.02-.02-.06-.08-.09-.14-.06-.1-.13-.22-.24-.33-.12-.12-.23-.23-.33-.38-.08-.11-.17-.23-.26-.34-.07-.08-.14-.17-.2-.26l-.06-.07c-.18-.18-.34-.34-.44-.53l-.03-.05c-.19-.29-.41-.54-.6-.76-.1-.11-.19-.22-.29-.34-.32-.38-.57-.77-.83-1.14l-.27-.29c-.09-.18-.19-.3-.27-.41-.04-.05-.08-.1-.13-.18-.1-.13-.18-.24-.26-.36-.08-.12-.17-.23-.25-.34-.03-.05-.07-.1-.1-.16-.1-.16-.22-.36-.39-.54-.05-.07-.1-.14-.16-.21-.09-.12-.18-.23-.25-.36-.15-.31-.35-.58-.53-.85-.06-.08-.12-.17-.18-.26-.04-.11-.11-.2-.17-.28-.1-.23-.25-.45-.39-.65-.05-.08-.1-.15-.15-.23-.04-.15-.12-.27-.18-.36-.02-.03-.04-.05-.05-.08-.03-.07-.06-.14-.09-.2-.04-.09-.08-.18-.13-.28.03,0,.06,0,.08.02l.1.05h.19c.22.06.43.11.63.21l.1.05h.16c.05.02.11.05.16.08.11.05.23.11.36.16h.04c.24.07.43.13.62.2h.04c.09.03.18.07.29.12.1.04.21.09.33.13.11.07.23.1.34.11.1.05.19.06.26.07.16.06.35.11.54.13.12.05.25.05.38,0h.19s.13-.31.13-.31c.08-.18.04-.39-.09-.55-.06-.09-.12-.16-.17-.23-.04-.06-.1-.12-.11-.15-.06-.13-.15-.3-.31-.44-.01-.02-.02-.05-.03-.07v-.07l-.14-.14c-.1-.1-.22-.28-.34-.45-.06-.09-.12-.19-.18-.3-.07-.13-.14-.25-.23-.39-.19-.25-.37-.49-.48-.71l-.05-.07c-.17-.22-.35-.52-.48-.78-.08-.17-.18-.31-.27-.43-.07-.1-.14-.2-.19-.3-.05-.11-.12-.2-.18-.28-.03-.04-.06-.08-.08-.12-.04-.07-.09-.17-.15-.26-.04-.07-.09-.14-.11-.2l-.04-.07-.06-.06c-.07-.07-.11-.15-.17-.27l-.03-.05c-.04-.06-.08-.13-.11-.19-.05-.09-.1-.19-.17-.28-.02-.07-.06-.13-.11-.19-.07-.14-.14-.27-.21-.38-.09-.14-.17-.27-.19-.37l-.08-.4h-.15s-.05-.08-.07-.11c-.04-.06-.07-.1-.08-.13v-.29l-.2-.1s-.01-.02-.02-.03c-.03-.1-.08-.18-.15-.26-.03-.06-.07-.14-.1-.22-.05-.13-.12-.27-.19-.39-.18-.31-.31-.55-.42-.83-.08-.23-.21-.44-.35-.65-.05-.16-.13-.29-.19-.4-.04-.07-.08-.14-.1-.19v-.11l-.43-.87c-.07-.21-.13-.41-.21-.56-.03-.06-.07-.12-.11-.18-.01-.02-.02-.04-.03-.05l-.03-.09c-.04-.13-.1-.25-.16-.36-.03-.06-.06-.12-.09-.18-.03-.24-.13-.44-.21-.58l-.03-.05c-.04-.1-.07-.21-.1-.32-.04-.14-.09-.29-.15-.44.06.03.13.07.2.09.04.02.08.04.13.06.1.05.21.09.32.16l1.06.44s.04.02.05.03c.08.05.2.12.37.14.04.02.08.04.12.07.09.06.21.13.36.18l.08.03h.15c.11.09.27.16.42.19.02,0,.04.02.07.03.14.1.32.17.48.17.03,0,.1.04.16.07.13.08.28.12.4.16.08.02.19.06.22.09l.17.15h.2s.03.02.05.03c.03.02.06.03.1.05l.06.03h.06c.15.04.3.09.45.15.12.04.23.08.34.11.09.04.18.06.24.08.02,0,.04.01.06.02.15.11.35.18.54.19.15.07.29.12.45.17.1.04.21.07.33.12.18.09.37.15.55.2.13.04.26.08.39.13l.06.02c.24.06.48.12.69.23l.11.06h.12c.05.02.14.04.24.05.06.02.12.04.17.06.13.05.29.11.48.13.22.11.43.13.64.14,0,.1.02.21.07.34,0,.11.01.25.06.39v.31l.03.08c.02.06.03.14.05.22.02.1.04.22.08.35.01.06.02.13.02.21,0,.16.02.35.09.55,0,.28.09.59.15.76.03.11.04.2.05.3.02.13.04.25.07.39.06.36.13.75.28,1.11.02.07.03.13.04.2.02.09.03.18.07.28,0,.08.02.17.07.28.01.13.05.24.08.33.02.05.04.12.04.14v.12c.05.16.11.31.16.45.04.1.08.2.1.29v.28l.13.13c0,.09.03.17.04.23,0,.03.02.05.02.08v.21l.14.13v.04c.05.16.1.31.16.45.04.12.09.24.11.34l.03.13.08.08v.17l.05.1s.02.06.03.08c.02.08.05.19.13.3.01.02.03.05.04.07,0,0,.01.02.01.02v.08l.05.1s.03.06.03.08c.03.07.06.16.14.26.08.13.13.27.18.43.09.35.26.65.37.82.13.32.31.62.49.92.03.17.11.29.18.37.04.1.09.18.13.25.04.07.07.12.09.17l.06.19.09.05c.03.07.07.17.15.27,0,0,0,.01,0,.02.04.1.09.17.14.23l.06.09c.07.11.15.21.22.3.03.04.06.08.09.11v.11l.29.29c.12.23.29.49.54.67.02.02.03.04.04.05h-.24c-.21,0-.45,0-.57-.04l-.08-.02h-.95c-.27-.06-.53-.07-.73-.07-.26-.06-.47-.07-.66-.07-.21-.07-.37,0-.47.06l-.22.17v.26c0,.17.07.32.18.42.12.24.25.48.43.71.13.19.27.41.48.62.2.34.41.68.71.97.16.16.28.34.42.54l.59.79.04.06c.06.1.14.24.3.36.04.05.08.12.12.19.07.13.16.29.31.43l.08.06s.07.07.13.15c.05.07.1.14.17.22.39.51.79,1.04,1.27,1.6.04.07.09.14.16.18.05.06.09.12.14.18.06.07.11.14.17.23.13.2.28.43.51.6.06.08.11.15.17.22.06.07.11.14.17.23l.06.08c.17.17.36.43.55.67.1.14.21.26.32.39.09.11.18.21.29.36.26.31.53.63.8.99-.23-.03-.47-.01-.68.03-.03,0-.06.01-.09.02-.25-.06-.51-.06-.71-.06h-1.22c-.49-.07-1.02-.07-1.49-.07h-.99c-.09,0-.18,0-.27,0-.21.01-.39.02-.53-.04l-.09-.04h-.1c-.12,0-.41,0-.57.26-.06.1-.11.25-.05.45v.22l.05.1c.09.18.16.37.24.58.07.19.15.4.25.59.02.1.06.18.12.25,0,.09.04.16.06.22l.05.14c.04.07.09.17.15.27.04.06.07.12.1.17.01.03.02.06.02.08.04.15.09.35.27.53.03.03.08.14.12.21.06.11.11.21.16.36.04.18.15.32.24.4.07.23.18.41.28.55.04.07.09.13.12.2.06.11.12.23.19.34.1.16.19.31.25.48l.04.09.07.07c.08.08.14.15.16.19.11.26.27.5.42.73.06.1.13.2.19.3.04.08.09.15.13.19v.1l.21.21s.04.04.05.06v.13l.14.14c.3.3.54.66.81,1.07l.61.82c.27.33.54.67.81.95.02.02.03.04.05.06.04.07.09.14.16.21.13.12.25.27.38.41.13.15.27.3.4.43.37.43.85.98,1.33,1.47.33.33.66.66,1.07,1.01l.23.23c-.13-.08-.26-.15-.41-.22h0c-.12-.12-.24-.17-.35-.19-.02-.01-.04-.02-.06-.03-.12-.11-.24-.17-.33-.21-.02-.01-.06-.02-.06-.02l-.07-.06c-.11-.07-.2-.12-.29-.18-.08-.05-.15-.09-.24-.15-.08-.05-.18-.11-.28-.16-.11-.06-.22-.12-.31-.18-.07-.11-.18-.2-.31-.24-.08-.05-.16-.1-.25-.16-.12-.09-.26-.19-.43-.27-.1-.05-.19-.12-.3-.19-.11-.08-.22-.16-.36-.23-.12-.1-.23-.17-.35-.25-.03-.02-.06-.04-.09-.06-.15-.15-.3-.29-.49-.39-.08-.04-.15-.1-.23-.17-.09-.08-.21-.18-.36-.26-.05-.04-.1-.07-.14-.1-.02-.01-.05-.03-.06-.04-.11-.11-.22-.2-.33-.29-.09-.07-.17-.14-.26-.23l-.07-.06c-.09-.06-.21-.14-.32-.22-.11-.08-.22-.16-.32-.22l-.13-.11c-.46-.41-.93-.82-1.45-1.28-.11-.15-.24-.27-.37-.38-.06-.05-.12-.11-.18-.17l-.07-.06c-.16-.11-.34-.29-.52-.47l-.78-.78c-.31-.37-.71-.84-1.11-1.25ZM101.33,76.58c-.15,1.3-.53,2.52-1.15,3.64-.61,1.11-1.43,2.07-2.43,2.86-.99.78-2.2,1.38-3.59,1.77-1.36.39-2.92.53-4.66.42l-.98-.06c-1.72-.1-3.26-.43-4.57-.99-1.33-.56-2.45-1.3-3.35-2.2-.9-.9-1.6-1.96-2.07-3.13-.47-1.18-.71-2.45-.7-3.75.01-1.82.02-3.64.03-5.46l.16.17c.2.2.4.41.63.56.06.06.13.12.19.17.11.09.19.17.24.25l.08.09c.54.48,1.02.9,1.5,1.32l.15.13.05.04c.1.06.21.14.32.22.1.07.21.15.3.21.1.09.2.18.3.26.09.07.17.14.26.23.07.07.14.12.21.16.02.02.06.04.06.04l.06.06.07.04c.08.04.15.1.24.17.11.09.24.2.43.29.06.03.18.15.27.24l.08.06c.05.04.11.07.15.1.12.07.18.11.23.17l.06.06.07.04c.1.05.19.12.3.19.12.09.26.19.43.27.1.05.19.12.3.19.1.07.22.16.35.23h.01c.18.19.41.32.6.42.07.04.14.08.2.12.04.03.08.05.11.07.02.05.02.1.04.15.14.34.34.64.59.91.26.27.56.49.91.65.34.16.71.26,1.09.28.34.02.67.04,1.01.06.37.02.74-.03,1.08-.15.35-.12.68-.31.96-.54.29-.24.53-.52.73-.85.18-.31.29-.64.32-1l.03-.42c2.78.21,5.58.48,8.33.79l-.05.42ZM102.82,63.46l-.05.42c-2.91-.33-5.86-.61-8.79-.83l.03-.42c.06-.73-.2-1.38-.8-1.98-.6-.6-1.29-.92-2.12-.97l-1.09-.07c-.81-.05-1.56.19-2.22.71-.66.52-1,1.13-1.03,1.86l-.48,10.5s-.03-.03-.04-.04c-.14-.16-.28-.32-.41-.45-.01-.02-.03-.04-.04-.06-.04-.06-.09-.14-.16-.21-.24-.24-.49-.55-.75-.87l-.58-.77c-.24-.36-.49-.73-.79-1.06l-.04-.07c-.09-.18-.18-.29-.26-.36-.05-.12-.12-.21-.17-.27-.01-.01-.03-.03-.03-.03l-.02-.03c-.07-.12-.15-.23-.22-.35-.14-.2-.27-.4-.34-.57l-.02-.04c-.08-.16-.2-.3-.29-.39-.09-.2-.19-.37-.28-.52-.06-.09-.11-.18-.16-.28-.05-.1-.11-.2-.17-.29-.09-.14-.16-.24-.18-.38l-.03-.15-.17-.17s-.01-.01-.01-.01c-.08-.23-.15-.38-.22-.52-.08-.17-.17-.34-.29-.46,0-.01-.02-.06-.03-.1-.02-.05-.03-.11-.05-.17l-.03-.06c-.04-.07-.09-.17-.15-.26-.03-.05-.06-.1-.09-.15-.01-.04-.03-.08-.04-.11,0-.16-.03-.35-.21-.53h0c-.07-.16-.14-.34-.21-.52-.03-.07-.05-.13-.08-.2.09,0,.17,0,.25,0,.07,0,.15,0,.22,0h.99c.45,0,.96,0,1.38.06h1.33c.15,0,.38,0,.5.04l.08.03h.08c.11,0,.23-.02.33-.04.05-.01.09-.02.13-.02.11,0,.21,0,.24.01l.1.05h.12c.15,0,.36,0,.59-.1.22-.09.38-.28.43-.52.06-.28,0-.57-.18-.77-.34-.47-.67-.87-.98-1.24-.11-.14-.21-.27-.32-.39-.09-.11-.18-.21-.28-.34-.19-.26-.4-.53-.61-.74-.06-.09-.13-.17-.19-.26-.06-.07-.11-.14-.17-.23l-.05-.08-.08-.05c-.12-.08-.21-.22-.33-.39-.07-.11-.15-.21-.22-.3-.05-.06-.1-.13-.16-.2l-.16-.25h-.06c-.44-.51-.83-1.02-1.2-1.52l-.02-.02c1.04-.79,2.32-1.4,3.8-1.8,1.2-.33,2.53-.49,3.97-.49h0c.39,0,.78.01,1.18.04.38.02.75.04,1.12.07,1.97.12,3.72.51,5.22,1.15,1.48.63,2.72,1.46,3.66,2.44.93.97,1.61,2.09,2.01,3.33.4,1.21.52,2.49.37,3.81ZM121.2,71.11l-.22.21.09.29c2,6.16,3.8,12.44,5.34,18.66-2.99-.72-6.04-1.38-9.07-1.97-.84-3.12-1.75-6.28-2.71-9.39l-.25-.81-.58.62c-.45.48-.9.97-1.35,1.45l-.1.11-1.14,6.92c-2.63-.44-5.3-.83-7.94-1.16l4.01-31.47c3.03.39,6.09.83,9.11,1.33l-1.65,9.95,1.1-1.14c2.47-2.55,5.02-5.09,7.6-7.54,3.48.68,6.99,1.44,10.44,2.27-4.36,3.74-8.63,7.66-12.69,11.67Z" fill="#f60"/>
  <polygon points="59.16 74.62 59.16 74.62 59.16 74.62 59.16 74.62" fill="#f60"/>
  <path d="M34.86,68.41c.33-.42.44-.88.35-1.41l-.37-2.12c-.09-.5-.36-.89-.82-1.19-.46-.29-.97-.38-1.56-.27-1.23.22-2.48.46-3.73.71l-.49.1,1.15,5.74.48-.1c1.21-.24,2.43-.47,3.63-.69.58-.11,1.02-.36,1.35-.78Z" fill="#f60"/>
  <path d="M39.11,76.35c-.08-.5-.33-.89-.77-1.19s-.92-.4-1.49-.3c-1.91.33-3.84.69-5.74,1.07l-.49.1,1.15,5.7h0s.48-.09.48-.09c1.84-.37,3.72-.72,5.59-1.04.55-.1.97-.34,1.28-.75.31-.41.42-.87.34-1.39l-.35-2.11Z" fill="#f60"/>
  <path d="M118.49,43.74c.19.03.37.05.55.05h0c.54,0,1.07-.16,1.58-.48.69-.43,1.1-.99,1.24-1.7l2.44-12.07c.15-.72-.03-1.39-.54-2.06-.51-.67-1.16-1.07-1.96-1.22-1.22-.23-2.44-.45-3.63-.66l-.49-.08-3.01,17.54.49.08c1.1.19,2.23.4,3.34.61Z" fill="#f60"/>
  <path d="M62.36,64.12l-.57-1.58-.38,1.64c-.75,3.25-1.46,6.54-2.13,9.8l-.13.64.65-.05c1.8-.13,3.62-.23,5.41-.32l.65-.03-.21-.62c-1.06-3.15-2.17-6.34-3.3-9.48Z" fill="#f60"/>
  <polygon points="70.78 5.79 72.11 5.79 72.11 1.18 73.36 1.18 73.36 1.18 73.36 0 69.53 0 69.53 1.18 70.78 1.18 70.78 5.79" fill="#f60"/>
  <polygon points="75.48 4.52 77.01 4.52 77.01 5.79 78.34 5.79 78.34 0 77.01 0 77.01 3.38 75.48 3.38 75.48 0 74.15 0 74.15 5.79 75.48 5.79 75.48 4.52" fill="#f60"/>
  <polygon points="82.92 4.64 80.93 4.64 80.93 3.4 82.57 3.4 82.57 2.25 80.93 2.25 80.93 1.15 82.92 1.15 82.92 0 79.6 0 79.6 5.79 82.92 5.79 82.92 4.64" fill="#f60"/>
  <path d="M4.27,55.95c-.16-.16-.36-.29-.58-.39-.22-.09-.46-.14-.7-.14h-.41c-.25,0-.48.05-.7.14-.22.09-.41.22-.58.39-.16.16-.29.36-.39.58-.09.22-.14.46-.14.7h1.22c0-.16.06-.3.17-.42.12-.11.26-.17.42-.17h.41c.16,0,.3.06.42.17s.17.26.17.42v.55c0,.16-.06.31-.17.43-.12.12-.26.18-.42.18h-.54c-.23,0-.45.04-.65.13-.2.09-.38.21-.53.36-.15.15-.27.33-.36.53-.09.2-.13.42-.13.65v1.23h3.9v-1.23h-2.57c0-.13.05-.24.14-.34h0c.09-.09.2-.14.34-.14h.42c.25,0,.48-.05.7-.14s.41-.22.58-.39c.16-.16.29-.36.39-.57.09-.22.14-.45.14-.71v-.55c0-.25-.05-.48-.14-.7-.09-.22-.22-.41-.39-.58Z" fill="#f60"/>
  <path d="M9.34,56.49c-.08-.21-.2-.4-.37-.55-.16-.16-.37-.28-.6-.38s-.51-.14-.82-.14h-.19c-.3,0-.57.04-.8.13s-.43.2-.59.35c-.16.15-.29.33-.38.53-.09.2-.14.41-.15.64h0v2.56c0,.24.04.46.13.67.08.21.21.4.37.55.16.16.36.28.6.38.24.09.52.14.83.14h.19c.3,0,.57-.04.8-.13.23-.08.43-.2.59-.35.16-.15.29-.33.38-.52.09-.2.14-.41.15-.64h0v-2.56c0-.24-.05-.46-.13-.67ZM8.14,59.63c0,.08-.02.15-.05.22-.03.07-.07.13-.13.19-.05.06-.12.1-.19.13-.07.03-.15.05-.22.05h-.19c-.08,0-.15-.02-.22-.05-.07-.03-.13-.08-.19-.13-.06-.06-.1-.12-.13-.19-.03-.07-.05-.15-.05-.22v-2.47c0-.08.02-.15.05-.22.03-.07.07-.13.13-.19.06-.06.12-.1.19-.13.07-.03.15-.05.22-.05h.19c.08,0,.15.02.22.05.07.03.13.08.19.13.06.06.1.12.13.19.03.07.05.15.05.22v2.47Z" fill="#f60"/>
  <polygon points="144.22 55.5 143.21 55.5 143.21 56.69 143.72 56.69 143.72 61.29 145.04 61.29 145.04 55.5 144.22 55.5 144.22 55.5" fill="#f60"/>
  <path d="M149.71,57.17c0-.24-.04-.46-.12-.67-.08-.21-.2-.4-.37-.55-.16-.16-.37-.28-.6-.38s-.51-.14-.82-.14h-.19c-.3,0-.57.04-.8.13-.23.08-.43.2-.59.35-.16.15-.29.33-.38.53-.09.2-.14.41-.15.64h0v2.56c0,.24.04.46.13.67.09.21.21.4.37.55.16.16.36.28.6.38.24.09.52.14.83.14h.19c.3,0,.57-.04.8-.13.23-.08.43-.2.59-.35.16-.15.29-.33.38-.52.09-.2.14-.41.15-.64h0v-2.56ZM148.38,59.63c0,.08-.02.15-.05.22-.03.07-.07.13-.13.19-.05.06-.12.1-.19.13-.07.03-.15.05-.23.05h-.19c-.08,0-.16-.02-.22-.05-.07-.03-.14-.08-.19-.13-.06-.06-.1-.12-.13-.19-.03-.07-.05-.15-.05-.22v-2.47c0-.08.02-.15.05-.23.03-.07.07-.13.13-.19.06-.06.12-.1.19-.13.07-.03.15-.05.22-.05h.19c.08,0,.15.02.23.05.07.03.13.08.19.13.06.06.1.12.13.19.03.07.05.15.05.23v2.47Z" fill="#f60"/>
  <path d="M39.07,116.37c.12-.12.26-.18.42-.18h.18c.16,0,.3.06.42.18.12.12.18.26.18.42h1.33c0-.24-.04-.46-.13-.67-.08-.21-.21-.39-.37-.55s-.36-.28-.6-.38c-.24-.09-.52-.14-.83-.14h-.18c-.3,0-.57.04-.8.13-.23.08-.43.2-.59.35s-.29.33-.38.53-.14.41-.15.64h0v2.57c0,.24.05.46.13.67.08.21.21.39.37.55s.36.28.6.38c.24.09.52.14.83.14h.18c.31,0,.59-.05.83-.14.24-.09.44-.22.6-.38s.28-.34.37-.55c.08-.21.13-.44.13-.67h-1.33c0,.08-.02.15-.05.23-.03.07-.08.13-.13.19-.06.06-.12.1-.19.13h0c-.07.03-.15.05-.22.05h-.18c-.08,0-.15-.02-.23-.05-.07-.03-.14-.07-.19-.13-.06-.05-.1-.12-.13-.19-.03-.07-.05-.15-.05-.23v-2.47c0-.16.06-.3.18-.42Z" fill="#f60"/>
  <path d="M45.26,119.24c0,.08-.01.15-.05.22-.03.07-.08.13-.13.19-.05.06-.12.1-.19.13-.07.03-.15.05-.22.05h-.19c-.08,0-.15-.02-.22-.05-.07-.03-.13-.08-.19-.13-.06-.05-.1-.12-.13-.19-.03-.07-.05-.15-.05-.22v-4.14h-1.34v4.14c0,.24.04.46.13.67.08.21.21.4.37.55s.36.28.6.38c.24.09.51.14.83.14h.19c.3,0,.57-.04.8-.13.23-.09.43-.2.59-.35.16-.15.29-.32.38-.52s.14-.41.15-.64h0s0,0,0,0v-4.23h-1.33v4.14Z" fill="#f60"/>
  <path d="M49.33,116.25h.4c.17,0,.31.06.43.17.12.12.17.26.17.42h1.22c0-.25-.05-.48-.14-.7-.09-.22-.22-.41-.39-.58-.16-.16-.36-.29-.58-.39-.22-.09-.45-.14-.71-.14h-.4c-.25,0-.49.05-.71.14-.22.09-.41.23-.57.39-.16.16-.29.36-.39.58-.09.22-.14.45-.14.7s.05.48.14.69.22.39.39.55c.16.15.36.27.57.36.22.09.45.13.71.13h.4c.17,0,.31.06.43.17.12.12.17.26.17.43s-.06.3-.17.42c-.12.12-.26.17-.43.17h-.4c-.17,0-.31-.06-.42-.17-.11-.12-.17-.26-.17-.42h-1.22c0,.25.05.48.14.7.09.22.22.41.39.58s.36.29.57.39c.22.09.45.14.71.14h.4c.25,0,.49-.05.71-.14.22-.1.41-.22.58-.39s.3-.36.39-.58c.09-.22.14-.45.14-.7s-.05-.49-.14-.71c-.09-.22-.22-.41-.39-.57-.16-.16-.36-.29-.58-.39h0c-.22-.1-.45-.14-.71-.14h-.4c-.17,0-.31-.04-.42-.14-.11-.09-.17-.22-.17-.39s.06-.3.17-.42c.11-.12.26-.17.42-.17Z" fill="#f60"/>
  <polygon points="52.06 116.28 53.31 116.28 53.31 120.9 54.64 120.9 54.64 116.28 55.89 116.28 55.89 116.28 55.89 115.11 52.06 115.11 52.06 116.28" fill="#f60"/>
  <path d="M59.91,115.54c-.16-.16-.36-.28-.6-.38-.24-.09-.51-.14-.83-.14h-.19c-.3,0-.57.04-.8.13-.23.08-.43.2-.59.35-.16.15-.29.33-.38.53-.09.2-.14.41-.15.64v2.57c0,.24.04.46.13.67.08.21.21.4.37.55.16.16.36.28.6.38.24.09.51.14.83.14h.19c.3,0,.57-.04.8-.13.23-.09.43-.2.59-.35.16-.15.29-.32.38-.52.09-.2.14-.41.15-.64v-2.57c0-.24-.04-.46-.13-.67-.08-.21-.21-.4-.37-.55ZM59.07,119.24c0,.08-.02.15-.05.22-.03.07-.07.13-.13.19-.05.06-.12.1-.19.13-.07.03-.15.05-.23.05h-.19c-.08,0-.15-.02-.22-.05-.07-.03-.13-.08-.19-.13-.06-.05-.1-.12-.13-.19-.03-.07-.05-.15-.05-.22v-2.47c0-.08.02-.16.05-.23.03-.07.07-.14.13-.19.06-.06.12-.1.19-.13.07-.03.15-.05.22-.05h.19c.16,0,.3.06.42.18.12.12.18.26.18.42v2.47Z" fill="#f60"/>
  <polygon points="63.8 118.65 62.68 115.11 61.36 115.11 61.36 120.9 62.68 120.9 62.68 119.14 63.3 120.9 64.3 120.9 64.9 119.17 64.9 120.9 66.23 120.9 66.23 115.11 64.9 115.11 63.8 118.65" fill="#f60"/>
  <path d="M71.03,116.25h.4c.17,0,.31.06.43.17.12.12.17.26.17.42h1.22c0-.25-.05-.48-.14-.7-.09-.22-.22-.41-.39-.58-.16-.16-.36-.29-.58-.39-.22-.09-.45-.14-.71-.14h-.4c-.25,0-.49.05-.71.14-.22.09-.41.23-.57.39-.16.16-.29.36-.39.58-.09.22-.14.45-.14.7s.05.48.14.69c.09.21.22.39.39.55.16.15.36.27.57.36.22.09.45.13.71.13h.4c.17,0,.31.06.43.17.12.12.17.26.17.43s-.06.3-.17.42c-.12.12-.26.17-.43.17h-.4c-.17,0-.31-.06-.42-.17-.11-.12-.17-.26-.17-.42h-1.22c0,.25.05.48.14.7.09.22.22.41.39.58.16.16.36.29.57.39.22.09.45.14.71.14h.4c.25,0,.49-.05.71-.14.22-.1.41-.22.58-.39s.3-.36.39-.58c.09-.22.14-.45.14-.7s-.05-.49-.14-.71c-.09-.22-.22-.41-.39-.57-.16-.16-.36-.29-.58-.39h0c-.22-.1-.45-.14-.71-.14h-.4c-.17,0-.31-.04-.42-.14-.11-.09-.17-.22-.17-.39s.06-.3.17-.42c.11-.12.26-.17.42-.17Z" fill="#f60"/>
  <path d="M76.91,119.24c0,.08-.01.15-.05.22s-.08.13-.13.19c-.05.06-.12.1-.19.13-.07.03-.15.05-.22.05h-.19c-.08,0-.15-.02-.22-.05-.07-.03-.13-.08-.19-.13-.06-.05-.1-.12-.13-.19-.03-.07-.05-.15-.05-.22v-4.14h-1.34v4.14c0,.24.04.46.13.67.08.21.21.4.37.55.16.16.36.28.6.38.24.09.51.14.83.14h.19c.3,0,.57-.04.8-.13.23-.09.43-.2.59-.35.16-.15.29-.32.38-.52.09-.2.14-.41.15-.64h0s0,0,0,0v-4.23h-1.33v4.14Z" fill="#f60"/>
  <path d="M83.15,115.56c-.17-.15-.37-.27-.6-.35-.23-.09-.48-.12-.76-.1h-2.28v5.79h1.33v-1.27h.95c.29.01.56-.03.79-.12.24-.09.44-.22.61-.38.17-.16.3-.35.39-.56.09-.22.14-.44.14-.68h0v-1.14c-.02-.23-.07-.44-.17-.65-.1-.21-.23-.39-.4-.54ZM82.39,117.89c0,.16-.06.3-.18.42-.12.12-.26.18-.42.18h0s-.95,0-.95,0v-2.23h.95c.16,0,.3.06.42.18.12.12.18.26.18.42v1.04Z" fill="#f60"/>
  <polygon points="84.66 120.9 87.98 120.9 87.98 119.75 85.99 119.75 85.99 118.51 87.63 118.51 87.63 117.36 85.99 117.36 85.99 116.26 87.98 116.26 87.98 115.11 84.66 115.11 84.66 120.9" fill="#f60"/>
  <path d="M93.1,118.66c.12-.24.18-.5.18-.78v-1.14c-.02-.23-.07-.44-.17-.65-.1-.21-.23-.39-.4-.54-.17-.15-.37-.27-.6-.35-.23-.08-.48-.11-.76-.1h-2.11v5.79h1.33v-1.27h.6l.8,1.27h1.55l-.95-1.63c.22-.16.4-.36.51-.6ZM91.95,117.88c0,.16-.06.3-.18.41-.12.12-.26.18-.42.18h-.77v-2.22h.77c.08,0,.15.02.23.05.07.03.13.08.19.13.05.05.1.12.13.19.03.07.05.15.05.23v1.04Z" fill="#f60"/>
  <path d="M97.75,117.84h0c.11-.13.2-.28.26-.44.06-.16.09-.33.09-.52v-.32c0-.2-.04-.39-.11-.56s-.18-.33-.31-.46c-.13-.13-.29-.23-.47-.31-.18-.08-.37-.11-.57-.11h-2.41v5.78h2.82c.2,0,.39-.04.57-.12.18-.08.33-.18.46-.31.13-.13.23-.28.31-.46s.11-.37.11-.57v-.32c0-.28-.07-.52-.21-.75-.14-.22-.32-.4-.54-.53ZM95.56,117.5v-1.26h.79c.12,0,.22.04.31.13.08.08.12.18.12.3v.4c0,.12-.04.22-.12.3-.08.08-.18.12-.31.12h-.79ZM97.17,119.32c0,.12-.04.22-.12.3-.08.08-.18.12-.31.12h-1.19v-1.25h1.19c.12,0,.22.04.31.13.08.08.12.18.12.3v.4Z" fill="#f60"/>
  <rect x="99.45" y="115.11" width="1.33" height="5.79" fill="#f60"/>
  <polygon points="104.65 115.11 103.37 117.2 103.37 115.11 102.04 115.11 102.04 120.9 103.37 120.9 103.37 119.64 103.75 119.03 104.65 120.9 106.18 120.9 104.56 117.72 106.18 115.11 104.65 115.11" fill="#f60"/>
  <polygon points="107.03 120.9 110.35 120.9 110.35 119.75 108.36 119.75 108.36 118.51 110.01 118.51 110.01 117.36 108.36 117.36 108.36 116.26 110.35 116.26 110.35 115.11 107.03 115.11 107.03 120.9" fill="#f60"/>
  <path d="M113.1,116.25h.4c.17,0,.31.06.43.17.12.12.17.26.17.42h1.22c0-.25-.05-.48-.14-.7-.1-.22-.23-.41-.39-.58-.16-.16-.36-.29-.58-.39-.22-.09-.45-.14-.71-.14h-.4c-.25,0-.49.05-.71.14-.22.09-.41.23-.58.39-.16.16-.29.36-.39.58-.09.22-.14.45-.14.7s.05.48.14.69c.09.21.23.39.39.55.16.15.36.27.58.36.22.09.45.13.71.13h.4c.17,0,.31.06.43.17.12.12.18.26.18.43s-.06.3-.18.42c-.12.12-.26.17-.43.17h-.4c-.17,0-.31-.06-.42-.17-.11-.12-.17-.26-.17-.42h-1.22c0,.25.05.48.14.7.09.22.22.41.39.58.16.16.36.29.58.39.22.09.45.14.71.14h.4c.25,0,.49-.05.71-.14.22-.1.41-.22.58-.39s.3-.36.39-.58c.09-.22.14-.45.14-.7s-.05-.49-.14-.71c-.1-.22-.23-.41-.39-.57-.16-.16-.36-.29-.58-.39h0c-.22-.1-.45-.14-.71-.14h-.4c-.17,0-.31-.04-.42-.14-.11-.09-.17-.22-.17-.39s.06-.3.17-.42c.11-.12.26-.17.42-.17Z" fill="#f60"/>
</svg>