<?xml version="1.0" encoding="UTF-8"?>
<svg id="Layer_1" data-name="Layer 1" xmlns="http://www.w3.org/2000/svg" width="143" height="100" viewBox="0 0 143 100">
  <path d="M54.15,4.95v22.17c0,1.01-.41,1.98-1.13,2.7s-1.7,1.12-2.71,1.12h-1.39c-1.02,0-1.99-.4-2.71-1.12-.72-.72-1.12-1.69-1.12-2.7V4.95c0-1.01.4-1.98,1.12-2.7.72-.72,1.69-1.12,2.71-1.12h1.39c.5,0,1,.1,1.47.29s.89.47,1.25.83c.36.35.64.78.83,1.24.19.46.29.96.29,1.46Z" fill="#f60"/>
  <path d="M66.37,8.17c4.32-5.24,9.89-7.86,16.7-7.87,6.82,0,12.16,2.34,16.04,7.04,3.3,3.99,5.34,8.9,6.12,14.71.07.54.03,1.09-.13,1.61-.16.52-.43,1.01-.79,1.42s-.81.74-1.3.97c-.5.23-1.04.34-1.59.34h-.62c-.9,0-1.78-.31-2.47-.89s-1.15-1.39-1.3-2.27c-.67-4.26-2.02-7.62-4.06-10.08-2.73-3.33-6.02-4.98-9.88-4.97-4.09,0-7.73,1.93-10.91,5.8-4.09,4.97-6.13,12.56-6.13,22.77s2.04,17.81,6.13,22.78c2.96,3.59,6.59,5.38,10.91,5.38,4.54,0,8.06-1.52,10.56-4.55,2.65-3.22,4.2-7.59,4.64-13.11.08-.95.52-1.82,1.23-2.46.7-.64,1.62-.99,2.58-.99h.43c.54,0,1.07.12,1.56.33.49.22.93.54,1.29.94s.63.87.8,1.38.22,1.05.16,1.58c-.73,7.38-2.91,13.28-6.56,17.71-3.86,4.7-9.43,7.04-16.7,7.04-6.82,0-12.38-2.62-16.7-7.87-5.68-6.89-8.52-16.28-8.52-28.16,0-12.14,2.82-21.66,8.5-28.57h0Z" fill="#f60"/>
  <path d="M82.94,23.3h1.37c1.02,0,1.99.4,2.71,1.12.72.72,1.12,1.69,1.12,2.7s.41,1.98,1.12,2.7c.72.72,1.69,1.12,2.71,1.12h24.64c1.02,0,1.99-.4,2.71-1.12.72-.72,1.12-1.69,1.13-2.7v-14.74c0-1.01.4-1.98,1.12-2.7s1.69-1.12,2.71-1.12h1.39c1.02,0,1.99.4,2.71,1.12s1.12,1.69,1.12,2.7v55.72c0,1.01-.4,1.98-1.12,2.7-.72.72-1.7,1.12-2.71,1.12h-1.39c-1.02,0-1.99-.4-2.71-1.12s-1.12-1.69-1.12-2.7v-25.46c0-1.01-.41-1.99-1.12-2.7s-1.7-1.12-2.71-1.12h-24.64c-1.02,0-1.99.4-2.71,1.12-.72.72-1.12,1.69-1.12,2.7v7.26c0,.5-.1,1-.29,1.46s-.48.88-.83,1.24c-.36.35-.78.64-1.25.83-.47.19-.96.29-1.47.29h-1.39c-.5,0-1-.1-1.47-.29-.47-.19-.89-.47-1.25-.83-.36-.35-.64-.78-.83-1.24-.19-.46-.29-.96-.29-1.46v-22.78c0-.5.1-1,.29-1.47.19-.46.48-.89.84-1.24.36-.36.78-.64,1.25-.83s.97-.29,1.47-.29h.01Z" fill="#f60"/>
  <path d="M142.24,4.39v30.8c0,1.01-.4,1.98-1.12,2.7s-1.69,1.12-2.71,1.12h-1.39c-.5,0-1-.1-1.47-.29s-.89-.47-1.25-.83c-.36-.35-.64-.78-.83-1.24s-.29-.96-.29-1.46V4.39c0-.5.1-1,.29-1.46.19-.46.48-.89.83-1.24.36-.36.78-.64,1.24-.83.47-.19.97-.29,1.47-.29h1.39c1.02,0,1.99.4,2.71,1.12s1.12,1.69,1.12,2.7h0Z" fill="#f60"/>
  <path d="M36.43,1.11h-.85c-1.42,0-2.79.55-3.82,1.53l-10.45,9.98c-.25.24-.58.37-.93.37s-.68-.13-.93-.37L8.99,2.64c-1.03-.98-2.39-1.53-3.82-1.53h-.85c-1.08,0-2.12.43-2.88,1.19C.67,3.07.24,4.1.24,5.18v44.12c0,1.11.44,2.17,1.23,2.95.79.78,1.85,1.22,2.96,1.23.64,0,1.27-.13,1.86-.37.59-.24,1.13-.6,1.58-1.05.45-.45.81-.99,1.06-1.57.24-.59.37-1.22.37-1.86v-30.16c0-.26.08-.52.23-.74s.36-.39.6-.49c.24-.1.51-.13.77-.08.26.05.5.18.69.36l4.09,4.07s.03.04.05.06l2.88,2.87c.47.46,1.1.72,1.76.72s1.29-.27,1.75-.73l2.88-2.87.06-.06,4.09-4.07c.19-.19.43-.31.69-.36.26-.05.53-.02.77.08s.45.27.6.49.23.48.23.74v50.47c0,.5.1,1,.29,1.46s.48.89.83,1.24.78.64,1.25.83.97.29,1.47.29h1.39c1.02,0,1.99-.4,2.71-1.12.72-.72,1.12-1.69,1.12-2.7V5.2c0-.54-.1-1.07-.3-1.56-.2-.5-.5-.95-.88-1.33-.38-.38-.83-.68-1.33-.89-.5-.21-1.03-.31-1.57-.31h.01Z" fill="#f60"/>
  <path d="M.24,48.24v2.34c0,.5.1,1,.29,1.46.19.46.48.89.83,1.24.36.36.78.64,1.25.83.47.19.96.29,1.47.29h1.39c1.02,0,1.99-.4,2.71-1.12.72-.72,1.12-1.69,1.12-2.7v-2.34s-9.06,0-9.06,0Z" fill="#f60"/>
  <path d="M54.15,42.84v3.1c0,1.01-.4,1.99-1.12,2.7-.72.72-1.7,1.12-2.71,1.12h-1.39c-1.02,0-1.99-.4-2.71-1.12s-1.12-1.69-1.12-2.7v-3.1c0-1.01.41-1.98,1.12-2.7.72-.72,1.69-1.12,2.71-1.12h1.39c1.02,0,1.99.4,2.71,1.12s1.12,1.69,1.13,2.7h-.01Z" fill="#f60"/>
  <path d="M35,88.75c0,.15-.03.3-.1.44-.06.13-.16.24-.28.32-.13.09-.28.16-.43.2-.18.05-.37.07-.56.07h-.91v-3.45h1c.77,0,1.16.28,1.16.84,0,.18-.04.35-.14.5-.11.15-.26.25-.44.3.09.01.18.05.27.09.08.04.16.1.22.16.07.07.12.15.15.23.03.09.05.19.04.29h.02ZM34.39,87.25c0-.07,0-.14-.04-.2-.02-.06-.06-.12-.11-.16-.06-.05-.14-.09-.22-.11-.11-.03-.23-.04-.34-.04h-.5v1.08h.47c.1,0,.2,0,.29-.03.08-.02.16-.06.23-.11.06-.04.11-.1.15-.17.04-.08.07-.18.07-.27h0ZM34.5,88.78c0-.08-.02-.16-.06-.23s-.09-.13-.16-.18c-.08-.05-.16-.09-.26-.11-.11-.03-.23-.04-.35-.04h-.5v1.19h.5c.21.02.43-.04.61-.15.07-.06.13-.13.17-.22.04-.08.05-.18.04-.27h0Z" fill="#f60"/>
  <path d="M41.59,89.79h-1.97v-3.45h1.97v.39h-1.5v1.07h1.44v.4h-1.44v1.19h1.5s0,.4,0,.4Z" fill="#f60"/>
  <path d="M48.83,89.79h-.5l-.24-.75h-1.44l-.25.75h-.5l1.15-3.45h.65s1.13,3.45,1.13,3.45ZM47.94,88.61l-.59-1.84-.58,1.84h1.17Z" fill="#f60"/>
  <path d="M55.29,89.66c-.28.11-.57.17-.87.17-.21.01-.42-.02-.61-.09-.19-.07-.37-.19-.52-.34-.29-.37-.43-.83-.39-1.29,0-.25.03-.51.11-.75.06-.21.17-.4.31-.57.14-.16.31-.28.5-.36.2-.09.42-.13.64-.13.15,0,.3.01.45.04.14.02.27.07.4.12v.46c-.12-.07-.25-.12-.39-.15-.14-.04-.29-.06-.44-.05-.15,0-.3.03-.44.09-.13.06-.25.15-.34.26-.1.13-.17.27-.21.42-.05.19-.08.38-.08.57-.02.35.07.7.27,1,.1.12.22.21.36.27s.29.08.44.07c.14,0,.29-.02.43-.05.13-.04.27-.08.39-.14v.45h-.01Z" fill="#f60"/>
  <path d="M62.13,89.79h-.47v-1.58h-1.46v1.58h-.45v-3.45h.47v1.46h1.46v-1.46h.47l-.03,3.45h0Z" fill="#f60"/>
  <path d="M75.7,88.75c0,.15-.03.3-.1.44-.06.13-.16.24-.28.32-.13.1-.28.16-.43.2-.18.05-.37.07-.56.07h-.91v-3.45h1c.77,0,1.16.28,1.16.84,0,.18-.04.35-.14.5-.11.15-.26.25-.44.3.09.01.18.05.27.09.08.04.16.09.22.16.07.07.12.15.15.23.04.09.05.19.05.29h0ZM75.08,87.25c0-.07,0-.14-.03-.2-.02-.06-.06-.12-.12-.16-.06-.05-.13-.09-.21-.11-.11-.03-.23-.04-.35-.04h-.5v1.08h.47c.1,0,.2,0,.3-.03.08-.02.16-.06.23-.11.06-.05.11-.11.15-.17.04-.08.06-.18.07-.27h-.01ZM75.2,88.78c0-.08-.02-.16-.06-.23s-.1-.13-.17-.18c-.08-.05-.16-.09-.26-.11-.11-.03-.23-.04-.35-.04h-.5v1.19h.5c.21.02.43-.04.61-.15.07-.06.13-.13.17-.21s.05-.18.05-.27h0Z" fill="#f60"/>
  <path d="M81.04,86.73h-.8v-.39h2.06v.39h-.8v2.66h.8v.4h-2.07v-.4h.8v-2.66h.01Z" fill="#f60"/>
  <path d="M89.21,88.85c0,.15-.03.3-.1.43-.07.12-.16.23-.28.3-.13.09-.28.15-.43.18-.27.06-.55.07-.83.05h-.27l-.24-.03-.2-.05v-.45c.14.05.29.09.45.11.19.03.37.04.56.04.13,0,.26,0,.39-.03.09-.02.18-.05.26-.1.07-.04.12-.1.15-.17s.05-.15.05-.23c0-.09-.02-.17-.08-.24-.06-.07-.13-.13-.21-.17-.09-.06-.19-.11-.29-.14l-.33-.13-.33-.14c-.1-.05-.2-.12-.29-.19-.08-.07-.15-.16-.21-.26-.06-.11-.08-.23-.08-.35s.03-.24.08-.35c.05-.12.13-.22.23-.3.12-.1.25-.17.4-.21.19-.06.39-.09.59-.08h.4l.21.04.19.04v.42c-.13-.04-.27-.07-.41-.09-.13-.02-.26-.03-.39-.03-.21-.02-.42.03-.6.13-.06.04-.11.09-.14.15-.03.06-.05.13-.05.2,0,.09.02.17.08.24.06.07.13.13.21.18.09.06.19.11.29.14l.33.13c.12.04.23.09.34.15.11.05.2.12.29.19.08.07.15.16.21.26.05.11.08.24.08.36h-.03Z" fill="#f60"/>
  <path d="M96.11,86.74h-1v3.05h-.5v-3.05h-1v-.4h2.51v.4h-.01Z" fill="#f60"/>
  <path d="M102.92,89.79h-.54l-.5-1.1c-.03-.07-.07-.14-.12-.21-.04-.05-.08-.1-.13-.13-.05-.03-.1-.06-.15-.07h-.41v1.54h-.47v-3.45h.93c.17,0,.34.02.5.06.13.04.25.1.36.18.09.08.16.17.2.28.07.22.07.46,0,.68-.03.09-.08.18-.14.26-.07.08-.14.15-.23.2-.1.06-.21.1-.32.12.1.04.19.1.25.18.08.1.15.22.21.33l.57,1.11v.02ZM102.16,87.29c0-.08,0-.16-.04-.23-.03-.07-.08-.14-.14-.19-.14-.11-.32-.15-.5-.14h-.45v1.14h.38c.1,0,.2-.01.3-.04.08-.02.16-.06.23-.11.06-.05.11-.11.14-.18.04-.08.06-.17.07-.25h0Z" fill="#f60"/>
  <path d="M109.76,88.06c0,.27-.03.54-.11.8-.06.2-.17.39-.3.55-.11.14-.26.26-.44.33-.16.07-.33.1-.5.1-.2,0-.4-.04-.58-.12-.17-.08-.31-.2-.41-.34-.12-.17-.2-.36-.25-.55-.05-.24-.08-.49-.08-.73,0-.27.03-.54.11-.8.06-.2.16-.39.3-.56.12-.14.27-.25.44-.32.17-.08.36-.12.55-.12s.38.04.55.12c.17.08.31.2.42.34.11.17.2.35.24.55.05.25.07.5.06.75ZM109.25,88.1c0-.19-.01-.37-.05-.56-.03-.15-.08-.3-.15-.43-.06-.11-.16-.21-.27-.28-.12-.07-.25-.1-.39-.1s-.27.03-.38.1c-.11.08-.2.17-.26.29-.07.14-.13.28-.16.43-.03.17-.05.35-.05.52,0,.19.01.37.05.55.02.15.07.3.15.43.06.11.15.21.26.28.12.07.25.1.39.1s.27-.03.39-.1c.11-.08.2-.17.27-.29.07-.13.13-.28.15-.43.04-.18.06-.37.06-.56v.05Z" fill="#f60"/>
  <path d="M56.9,98.5h-1v-.27h1v.27Z" fill="#f60"/>
  <path d="M61.37,97.48c-.08-.04-.16-.07-.25-.1-.09-.02-.19-.03-.28-.03-.11,0-.21.02-.31.06-.09.04-.17.1-.23.17-.06.08-.11.17-.14.27-.04.11-.05.23-.05.34,0,.12,0,.24.04.35.02.1.06.19.13.26.06.07.13.13.22.17.1.04.21.06.32.05h.27v-.68h-.44v-.3h.73v1.1l-.14.05s-.1.03-.16.04l-.16.02h-.15c-.14,0-.27-.02-.4-.07-.12-.04-.22-.11-.31-.2-.09-.1-.15-.21-.19-.34-.05-.15-.07-.31-.07-.47s.02-.32.08-.47c.04-.13.11-.25.21-.36.09-.1.2-.17.33-.22s.28-.08.42-.08c.09,0,.19,0,.28.03.09.01.17.04.25.08v.33Z" fill="#f60"/>
  <path d="M65.69,99.27h-.33l-.33-.69s-.05-.09-.08-.13c-.02-.03-.05-.06-.08-.08-.03-.02-.06-.03-.1-.04h-.26v.96h-.3v-2.16h.58c.11,0,.22.01.32.04.08.02.16.06.23.11.06.05.1.11.13.18s.04.15.04.23c0,.06,0,.13-.03.19-.02.06-.05.12-.09.16-.04.05-.09.09-.15.12-.06.04-.13.07-.2.08.06.02.11.06.16.11.05.07.09.14.13.21l.34.69.02.02ZM65.22,97.7s0-.1-.02-.14c-.02-.05-.05-.09-.09-.12-.09-.06-.2-.09-.31-.08h-.28v.71h.24c.06,0,.13,0,.19-.03.05-.01.1-.04.14-.07s.07-.07.09-.11c.02-.05.04-.1.04-.16Z" fill="#f60"/>
  <path d="M69.78,99.27h-1.23v-2.16h1.23v.25h-.94v.69h.9v.24h-.9v.74h.94v.23h0Z" fill="#f60"/>
  <path d="M73.99,99.27h-1.2v-2.16h1.23v.25h-.93v.69h.9v.24h-.9v.74h.93l-.03.23h0Z" fill="#f60"/>
  <path d="M78.3,99.19c-.17.07-.36.11-.55.11-.13,0-.26-.01-.38-.06-.12-.05-.23-.12-.32-.21-.18-.23-.27-.52-.25-.81,0-.16.02-.32.07-.47.04-.13.11-.25.2-.35.08-.1.19-.17.31-.22.13-.06.26-.08.4-.08.09,0,.19,0,.28.03.08.02.17.05.25.08v.29c-.08-.04-.16-.08-.24-.1-.09-.02-.18-.03-.28-.03s-.19.02-.28.06c-.08.03-.16.09-.21.16-.06.08-.11.17-.14.26-.03.12-.05.23-.05.35-.02.22.04.44.17.63.06.07.14.13.22.17.09.04.18.05.28.05.09,0,.18,0,.27-.03.08-.02.17-.05.25-.09v.27h0Z" fill="#f60"/>
  <path d="M82.47,99.27h-1.23v-2.16h1.23v.25h-.94v.69h.9v.24h-.9v.74h.94v.23h0Z" fill="#f60"/>
  <path d="M86.57,98.5h-1v-.27h1v.27Z" fill="#f60"/>
</svg>