<?xml version="1.0" encoding="UTF-8"?>
<svg id="Layer_1" data-name="Layer 1" xmlns="http://www.w3.org/2000/svg" width="147" height="64" viewBox="0 0 147 64">
  <path d="M82.55,58.23c-.09.02-.17.04-.26.04h-.27c-.21.02-.43-.05-.6-.17-.07-.07-.12-.15-.16-.25-.03-.09-.05-.19-.04-.29v-1.07h-.6v-.3h.6v-.56l.37-.09v.65h.96v.3h-.96v1.04c0,.06,0,.12.03.18.02.06.05.11.1.15.1.08.23.12.36.11.08,0,.15,0,.22,0,.08,0,.16-.03.25-.05,0,0,0,.32,0,.32Z" fill="#f60"/>
  <path d="M85.51,57.22c0,.15-.02.3-.07.44-.04.13-.11.24-.2.34-.09.09-.2.17-.32.22-.14.05-.28.08-.43.08-.14,0-.28-.02-.41-.07-.11-.04-.22-.11-.3-.2-.09-.09-.15-.21-.19-.33-.05-.15-.07-.3-.07-.45s.02-.3.07-.44c.04-.13.11-.24.2-.34s.2-.17.32-.22c.14-.05.28-.08.43-.08.14,0,.28.02.41.07.11.04.22.11.3.2.09.09.15.21.19.33.05.14.07.3.07.45ZM85.13,57.22c0-.11-.01-.22-.04-.33-.03-.09-.07-.17-.13-.24-.05-.06-.12-.11-.19-.14-.08-.03-.17-.05-.26-.05-.1,0-.2.02-.28.06s-.14.1-.19.17-.09.15-.11.24c-.03.1-.04.2-.04.3,0,.11.01.23.04.33.02.09.07.17.12.24.05.06.12.11.19.14.08.03.17.05.26.05.1,0,.19-.02.28-.06.08-.04.14-.1.19-.17s.09-.15.11-.24c.02-.09.03-.19.03-.29h.02Z" fill="#f60"/>
  <path d="M88.39,58.26h-.51l-.99-1.1v1.1h-.36v-2.87h.37v1.77l.96-.94h.49l-1,.94,1.04,1.09h0Z" fill="#f60"/>
  <path d="M91.19,56.21l-.72,1.83c-.06.17-.14.33-.23.48-.07.12-.16.24-.26.33-.09.08-.19.15-.3.19-.12.04-.25.06-.38.06h-.2v-.32h.22c.06,0,.13,0,.19-.03.06-.02.12-.05.17-.09.06-.05.11-.1.15-.17.05-.08.1-.16.14-.24l-.85-2.05h.42l.54,1.35.11.32.12-.33.5-1.34h.39-.01Z" fill="#f60"/>
  <path d="M93.97,57.22c0,.15-.02.3-.07.44-.04.13-.11.24-.2.34-.09.09-.2.17-.32.22-.14.05-.28.08-.43.08-.14,0-.28-.02-.41-.07-.11-.04-.22-.11-.3-.2-.09-.09-.15-.21-.19-.33-.05-.15-.07-.3-.07-.45s.02-.29.07-.43c.04-.13.11-.24.2-.34s.2-.17.32-.22c.14-.05.28-.08.43-.08.14,0,.28.02.41.07.11.04.22.11.3.2.09.09.15.21.19.33.05.14.07.3.07.45h0ZM93.6,57.22c0-.11-.01-.22-.04-.33-.03-.09-.07-.17-.13-.24-.05-.06-.12-.11-.19-.14-.08-.03-.17-.05-.26-.05-.1,0-.2.02-.28.06s-.14.1-.19.17-.09.15-.11.24c-.03.1-.04.2-.04.3,0,.11.01.23.05.33.02.09.06.17.12.24.05.06.12.11.19.14.08.03.17.05.26.05.1,0,.19-.02.28-.06.08-.04.14-.1.19-.17s.09-.15.11-.24c.02-.09.04-.19.04-.29h0Z" fill="#f60"/>
  <path d="M99.48,58.26h-.37v-1.31c0-.12-.02-.25-.09-.35-.03-.04-.07-.07-.12-.09s-.1-.03-.15-.03-.09,0-.14.02-.09.04-.13.07c-.05.04-.11.08-.15.13-.05.05-.12.12-.19.2v1.36h-.37v-2.87h.37v1.15c.04-.06.1-.12.16-.17.05-.04.11-.08.17-.11.05-.03.11-.05.17-.06.06,0,.12-.02.18-.02.09,0,.18,0,.27.04.09.03.16.08.23.14.13.16.19.36.17.56v1.34Z" fill="#f60"/>
  <path d="M101.31,56.51h-.63v-.3h1v1.75h.63v.3h-1.71v-.3h.7v-1.45h.01ZM101.44,55.36s.08,0,.11.02c.04,0,.07.03.09.06.03.03.05.06.06.09.01.03.02.07.02.11s0,.07-.02.11c-.01.03-.03.06-.06.09s-.06.05-.09.06c-.04,0-.07.02-.11.02s-.08,0-.11-.02c-.04,0-.07-.04-.09-.06-.03-.02-.05-.06-.06-.09-.02-.03-.02-.07-.02-.11s0-.07.02-.11c.01-.03.03-.06.06-.09s.06-.05.09-.06c.04,0,.07-.02.11-.02Z" fill="#f60"/>
  <path d="M104.94,56.5s.07.11.09.17c.02.07.04.14.03.21,0,.1-.02.2-.06.3-.04.09-.1.17-.17.23-.08.06-.17.11-.26.15-.11.03-.22.05-.34.05-.08,0-.17,0-.25-.03-.06,0-.13-.04-.18-.07-.02.03-.05.07-.07.11-.02.03-.03.07-.03.11,0,.03,0,.05.02.08.01.02.03.04.06.05.06.04.13.06.2.06l.56.02c.1,0,.2,0,.3.04.08.02.16.05.23.1.06.04.12.1.15.16.04.07.06.15.05.22,0,.09-.02.18-.06.26-.05.08-.11.16-.19.21-.1.07-.21.12-.33.15-.15.04-.31.06-.47.06-.15,0-.29,0-.44-.04-.1-.02-.2-.06-.3-.11-.07-.04-.13-.1-.17-.17-.03-.07-.05-.14-.05-.21,0-.09.02-.18.07-.26.06-.09.14-.16.22-.21-.04,0-.07-.03-.1-.06-.02-.02-.05-.05-.07-.08-.02-.03-.03-.06-.04-.1v-.1c0-.09.02-.17.07-.24.04-.08.09-.15.15-.21-.03-.03-.05-.06-.07-.09s-.04-.06-.05-.1c-.01-.04-.03-.07-.04-.11v-.14c0-.1.02-.2.06-.3.04-.09.1-.16.17-.23.08-.06.17-.11.26-.15.11-.03.23-.05.34-.05h.15l.13.03h.77v.3h-.37.03ZM103.66,58.55s.01.09.04.13.07.07.11.08c.14.05.29.07.44.07.1,0,.2,0,.3-.03.07,0,.13-.04.19-.08.04-.03.08-.07.1-.12.02-.04.03-.09.03-.13s0-.07-.03-.11c-.02-.03-.05-.06-.08-.07-.1-.05-.21-.07-.32-.07l-.55-.02s-.08.06-.12.09c-.03.03-.05.05-.07.09-.01.03-.03.06-.04.09,0,.03-.01.06-.01.09h.01ZM103.77,56.88c0,.06.01.12.03.18.02.05.05.1.09.14.04.04.09.07.15.09.06.02.12.03.19.03s.13,0,.19-.04c.06-.02.11-.05.15-.1.04-.04.07-.09.09-.14s.03-.11.03-.16c0-.06-.01-.12-.04-.18-.02-.05-.05-.1-.1-.14-.04-.04-.09-.07-.14-.09-.06-.02-.12-.03-.18-.03-.07,0-.14,0-.2.04-.05.02-.1.05-.14.1-.04.04-.07.09-.09.14s-.03.11-.03.17h0Z" fill="#f60"/>
  <path d="M107.94,58.26h-.37v-1.31c0-.12-.02-.25-.09-.35-.03-.04-.07-.07-.12-.09s-.1-.03-.15-.02c-.05,0-.09,0-.14.02-.05,0-.09.04-.14.07-.06.04-.11.08-.15.13-.05.05-.12.12-.19.2v1.36h-.37v-2.87h.37v1.15c.05-.06.11-.12.17-.17.05-.04.11-.08.17-.11.05-.03.11-.05.17-.06.06,0,.12-.02.18-.02.09,0,.18,0,.27.04.08.03.16.08.22.15.13.16.19.36.17.56v1.32h0Z" fill="#f60"/>
  <path d="M113.7,57.2c0,.16-.02.32-.08.48-.05.13-.12.24-.22.34-.1.09-.21.16-.33.2-.13.05-.27.07-.41.07h-.2c-.07,0-.14-.02-.21-.03v.86h-.37v-2.88h.33l.02.34c.09-.13.2-.23.34-.3.12-.06.25-.08.39-.08.11,0,.22.02.32.07.09.05.17.12.23.21.07.1.11.21.14.32.03.13.05.27.05.41h0ZM113.32,57.22c0-.1,0-.2-.02-.3-.01-.08-.04-.16-.08-.23-.03-.06-.08-.11-.14-.15s-.13-.06-.2-.05c-.05,0-.09,0-.14.02s-.1.04-.15.07c-.06.04-.11.08-.16.13-.07.06-.13.13-.19.21v.99c.07.03.14.05.22.07.07,0,.15.02.22.02.09,0,.17,0,.25-.05.08-.03.15-.08.21-.15.13-.17.19-.38.17-.58h.01Z" fill="#f60"/>
  <path d="M116.5,57.13v.22h-1.5c0,.09,0,.18.04.26.03.08.08.16.14.22.15.12.34.18.53.17h.19c.06,0,.12,0,.18-.02l.17-.03c.05,0,.1-.02.15-.04v.3c-.11.03-.23.05-.34.07-.13.02-.26.03-.39.03-.16,0-.32-.02-.47-.07-.12-.04-.23-.11-.32-.21s-.15-.21-.19-.33c-.04-.14-.06-.29-.06-.44,0-.14.02-.28.07-.41.04-.12.1-.24.19-.34.08-.1.18-.17.3-.23.13-.06.27-.09.41-.09.13,0,.27.02.4.07.11.04.21.11.3.19.08.09.14.19.18.3.04.12.05.25.05.38h-.03ZM116.11,57.07c0-.08,0-.17-.03-.25-.02-.07-.06-.14-.1-.19-.05-.05-.11-.1-.18-.13-.08-.03-.16-.05-.25-.04-.08,0-.15,0-.22.04-.07.03-.12.07-.17.13-.05.06-.09.12-.11.2-.03.08-.05.16-.06.25h1.12,0Z" fill="#f60"/>
  <path d="M117.61,56.21h.34v.38c.1-.13.23-.23.37-.32.11-.06.24-.1.37-.1.09,0,.19,0,.27.04.09.04.17.09.23.16.12.17.18.39.15.6h-.37c.01-.14-.01-.27-.08-.39-.03-.04-.07-.07-.11-.09s-.1-.03-.14-.03c-.05,0-.1,0-.15.02-.06.02-.11.05-.16.08-.06.04-.12.09-.17.15-.07.07-.13.14-.19.21v1.31h-.37v-2.03h.01Z" fill="#f60"/>
  <path d="M122.23,55.71c-.17-.03-.33-.05-.5-.06-.07,0-.14,0-.2.02-.07.02-.12.06-.17.11-.05.05-.08.11-.11.17-.02.07-.03.13-.02.2v.36h.93v.3h-.93v1.45h-.38v-1.45h-.69v-.3h.69v-.34c0-.55.3-.82.9-.82.16,0,.33.02.49.05v.3h-.01Z" fill="#f60"/>
  <path d="M125.02,57.22c0,.15-.02.3-.07.44-.04.13-.11.24-.2.34-.09.09-.2.17-.32.22-.14.05-.28.08-.43.08-.14,0-.28-.02-.41-.07-.11-.04-.22-.11-.3-.2-.09-.09-.15-.21-.19-.33-.04-.15-.07-.3-.07-.45s.02-.3.07-.43c.04-.13.11-.24.2-.34s.2-.17.32-.22c.14-.05.28-.08.43-.08.14,0,.28.02.41.07.11.04.22.11.3.2.09.09.15.21.19.33.05.14.07.3.07.45h0ZM124.64,57.22c0-.11-.01-.22-.04-.33-.03-.09-.07-.17-.12-.24-.05-.06-.12-.11-.19-.14-.08-.03-.17-.05-.26-.05-.1,0-.2.02-.29.06-.08.04-.14.1-.19.17s-.09.15-.11.24c-.03.1-.04.2-.04.3,0,.11.01.23.04.33.02.09.06.17.12.24.05.06.12.11.19.14.08.03.17.05.26.05.1,0,.19-.02.28-.06.08-.04.14-.1.19-.17s.09-.15.11-.24c.02-.09.03-.19.03-.29h.02Z" fill="#f60"/>
  <path d="M126.07,56.21h.34v.38c.1-.13.23-.23.37-.32.11-.06.24-.1.37-.1.09,0,.19,0,.28.04s.17.09.23.16c.12.17.18.39.16.6h-.37c.01-.14-.02-.27-.08-.39-.03-.04-.07-.07-.11-.09-.05-.02-.09-.03-.14-.03s-.1,0-.15.02-.11.05-.15.08c-.06.04-.12.09-.17.15-.07.07-.13.14-.19.21v1.31h-.38v-2.03h-.01Z" fill="#f60"/>
  <path d="M130.33,58.26v-1.63s0-.06-.02-.1c0-.02-.02-.04-.04-.05-.02,0-.04,0-.06,0-.03,0-.06,0-.08.02-.03.02-.05.05-.07.08-.04.05-.07.09-.09.15-.03.06-.07.13-.12.22v1.31h-.34v-1.61s0-.07-.02-.11c0-.02-.02-.04-.04-.05-.02,0-.04,0-.06,0-.03,0-.05,0-.07.02-.03.02-.06.05-.08.07-.03.05-.06.09-.09.14-.04.06-.07.14-.12.24v1.31h-.34v-2.05h.28l.02.39c.03-.07.07-.13.11-.2.03-.05.06-.09.11-.13.04-.03.08-.06.12-.07.04-.02.09-.02.14-.02s.1,0,.14.02.09.05.12.08c.07.1.1.22.09.33.03-.07.07-.13.1-.19.03-.05.07-.1.1-.14.04-.04.08-.07.13-.09s.1-.03.16-.03c.27,0,.4.2.4.6v1.49h-.35l-.03.02Z" fill="#f60"/>
  <path d="M133,58.26v-.28c-.1.1-.22.18-.35.24-.12.05-.25.08-.38.07-.1,0-.2,0-.3-.04-.08-.03-.15-.07-.21-.13-.05-.05-.1-.11-.12-.18-.03-.07-.04-.15-.04-.23,0-.09.02-.19.06-.27s.1-.16.18-.21c.21-.13.46-.19.7-.18h.44v-.18c0-.06,0-.11-.03-.16-.02-.05-.05-.1-.09-.14-.1-.08-.24-.12-.37-.11-.12,0-.24,0-.36.04-.12.03-.24.07-.36.11v-.32c.05-.02.1-.03.15-.05.06-.02.12-.03.18-.04.07,0,.13-.02.2-.03h.21c.12,0,.23,0,.35.04.09.02.18.06.26.12.07.06.13.13.17.21.04.09.06.2.06.3v1.41h-.35,0ZM132.96,57.33h-.47c-.08,0-.16,0-.24.03-.06,0-.12.04-.17.07-.04.03-.07.07-.1.12-.02.05-.03.1-.03.15,0,.04,0,.08.02.11,0,.04.03.07.06.1s.07.05.11.07c.05.02.11.02.16.02.1,0,.21-.03.3-.07.13-.06.24-.14.34-.24v-.36h.02Z" fill="#f60"/>
  <path d="M134.46,56.21h.33v.33c.07-.06.13-.12.2-.18.05-.04.11-.08.17-.11.05-.03.11-.05.17-.06.06,0,.12-.02.18-.02.09,0,.18,0,.27.04.09.03.16.08.23.15.12.16.18.36.17.56v1.34h-.37v-1.31c0-.13-.02-.25-.09-.35-.03-.04-.08-.07-.13-.09s-.1-.03-.15-.02c-.04,0-.09,0-.13.02-.05,0-.09.04-.13.07-.06.04-.11.08-.15.13-.06.06-.12.13-.18.2v1.36h-.37v-2.05h-.02Z" fill="#f60"/>
  <path d="M138.93,58.18c-.1.04-.2.06-.3.08s-.21.02-.32.02c-.14,0-.28,0-.41-.05s-.26-.12-.36-.21c-.1-.1-.17-.22-.22-.36-.05-.13-.07-.27-.06-.41,0-.15.02-.3.08-.44.05-.13.12-.24.22-.34s.21-.17.34-.22c.14-.05.29-.08.43-.07.1,0,.2,0,.3.02.09,0,.19.04.28.07v.34c-.09-.04-.18-.08-.28-.1-.1-.02-.2-.03-.3-.03-.09,0-.18.02-.27.05-.08.04-.16.09-.22.15-.07.07-.12.15-.15.24-.04.1-.06.21-.05.32,0,.1,0,.2.04.3.03.1.08.18.15.26.07.06.15.11.24.14.09.03.18.04.28.04s.2,0,.3-.03c.09-.02.18-.05.27-.1v.33h.01Z" fill="#f60"/>
  <path d="M141.9,57.13v.22h-1.5c0,.09,0,.18.04.26.03.08.08.16.14.22.15.12.34.18.53.17h.18c.06,0,.12,0,.18-.02l.17-.03s.1-.02.15-.04v.3c-.11.03-.23.05-.34.07-.13.02-.26.03-.39.03-.16,0-.32-.02-.47-.07-.12-.04-.23-.11-.32-.21-.09-.1-.15-.21-.19-.33-.04-.14-.06-.29-.06-.44,0-.14.02-.28.07-.41.04-.12.1-.24.19-.34.08-.1.18-.17.3-.23.13-.06.27-.09.41-.09.13,0,.27.02.39.07.11.04.21.11.3.19.08.09.14.19.18.3.04.12.06.25.05.38h0ZM141.51,57.07c0-.08,0-.17-.03-.25-.02-.07-.06-.14-.1-.19-.05-.05-.11-.1-.18-.13-.08-.03-.16-.05-.25-.04-.08,0-.15,0-.22.04-.06.03-.12.07-.17.13s-.09.13-.12.2c-.03.08-.05.16-.06.25h1.13Z" fill="#f60"/>
  <path d="M91.19,60.71c-.17-.03-.33-.05-.5-.06-.07,0-.14,0-.2.02-.07.02-.12.06-.17.11-.05.05-.08.11-.11.17-.02.07-.03.13-.02.2v.36h.93v.3h-.93v1.45h-.36v-1.45h-.69v-.3h.69v-.34c0-.55.3-.82.9-.82.16,0,.33.02.49.05l-.02.3h-.01Z" fill="#f60"/>
  <path d="M92.84,61.51h-.63v-.3h1v1.75h.63v.3h-1.71v-.3h.7v-1.45h.01ZM92.98,60.36s.08,0,.11.02c.04,0,.07.03.09.06.03.03.05.06.06.09.02.03.02.07.02.11s0,.07-.02.11c-.01.03-.03.06-.06.09s-.06.05-.09.06c-.04,0-.07.02-.11.02s-.08,0-.12-.02c-.03,0-.07-.04-.09-.06-.03-.03-.05-.06-.06-.09-.02-.03-.02-.07-.02-.11s0-.07.02-.11c.01-.03.03-.06.06-.09s.06-.05.09-.06c.04-.02.08-.02.12-.02Z" fill="#f60"/>
  <path d="M95.67,60.67h-.63v-.3h1v2.58h.63v.3h-1.71v-.3h.7v-2.28h.01Z" fill="#f60"/>
  <path d="M99.48,63.24c-.08.02-.17.04-.26.04h-.27c-.21.02-.43-.05-.6-.17-.07-.07-.12-.15-.16-.25-.03-.09-.05-.19-.04-.29v-1.07h-.6v-.3h.6v-.56l.37-.09v.65h.96v.3h-.96v1.04c0,.06,0,.12.02.18s.05.11.1.15c.1.08.23.12.36.11.07,0,.15,0,.22,0,.08,0,.17-.03.25-.05v.32h.01Z" fill="#f60"/>
  <path d="M102.38,62.13v.22h-1.5c0,.09,0,.18.04.26.03.08.08.16.14.22.15.12.34.18.53.17h.19c.06,0,.12,0,.18-.02l.17-.03.15-.04v.3c-.11.03-.23.05-.34.07-.13.02-.26.03-.39.03-.16,0-.32-.02-.47-.07-.12-.04-.23-.11-.32-.21s-.15-.21-.19-.33c-.04-.14-.07-.29-.06-.44,0-.14.02-.28.07-.41.04-.12.1-.24.19-.34.08-.1.18-.17.3-.23.13-.06.27-.09.41-.09s.27.02.4.07c.11.04.21.1.3.19.08.09.14.19.18.3.04.12.06.25.05.38h-.03ZM102,62.08c0-.08,0-.17-.03-.25-.02-.07-.06-.14-.1-.19-.05-.05-.11-.1-.18-.13-.08-.03-.16-.05-.25-.04-.08,0-.15,0-.22.04-.06.03-.12.07-.17.13-.05.06-.09.13-.12.2-.03.08-.05.16-.06.25h1.13Z" fill="#f60"/>
  <path d="M103.49,61.22h.34v.38c.1-.13.23-.23.37-.32.11-.06.24-.1.37-.1.09,0,.19,0,.28.04s.17.09.23.16c.13.18.18.39.16.61h-.37c.01-.14-.01-.27-.08-.39-.03-.04-.07-.07-.11-.09s-.09-.03-.14-.03-.1,0-.15.02c-.06.02-.11.05-.16.08-.06.04-.12.09-.17.15-.07.07-.13.14-.19.21v1.31h-.38v-2.05.02Z" fill="#f60"/>
  <path d="M110.57,63.26v-1.63s0-.07-.02-.1c0-.02-.02-.04-.04-.05h-.06s-.06,0-.08.02c-.03.02-.05.05-.08.08-.03.05-.07.09-.09.15-.03.06-.07.13-.12.22v1.31h-.34v-1.61s-.01-.07-.02-.11c0-.02-.02-.04-.04-.05h-.06s-.05,0-.07.02c-.03.02-.06.05-.08.07-.03.05-.06.09-.09.14-.04.06-.07.14-.12.24v1.31h-.34v-2.05h.28l.02.39c.03-.07.07-.13.11-.2.03-.05.06-.09.1-.13.04-.03.08-.06.12-.07.04-.02.09-.02.14-.02s.1,0,.14.02.09.05.12.08c.07.1.1.22.09.33.03-.07.07-.13.1-.19.03-.05.06-.1.1-.14s.08-.07.13-.09c.05-.02.1-.03.16-.03.27,0,.4.2.4.6v1.49l-.35-.03v.03Z" fill="#f60"/>
  <path d="M113.24,63.27v-.28c-.1.1-.22.18-.35.24-.12.05-.25.08-.38.07-.1,0-.2,0-.3-.04-.08-.03-.15-.07-.21-.13-.06-.05-.1-.11-.12-.18-.03-.07-.04-.15-.04-.23,0-.09.02-.19.06-.27s.1-.16.18-.21c.21-.13.46-.19.7-.18h.44v-.18c0-.06,0-.11-.03-.16-.02-.05-.05-.1-.1-.14-.1-.08-.24-.12-.37-.11-.12,0-.24,0-.36.04-.12.03-.24.07-.36.11v-.32c.05-.02.11-.03.16-.05.06-.02.12-.03.18-.04.07,0,.13-.02.2-.03h.21c.12,0,.23,0,.35.04.09.02.18.06.26.12.07.06.13.13.17.21.04.09.06.2.06.3v1.41h-.35,0ZM113.21,62.33h-.47c-.08,0-.16,0-.24.03-.06,0-.12.04-.17.07-.04.03-.07.07-.09.12s-.03.1-.03.15c0,.04,0,.08.02.11.01.04.03.07.06.1s.07.05.11.07c.05.02.11.02.17.02.1,0,.21-.03.3-.07.13-.06.24-.14.35-.24v-.36h-.01Z" fill="#f60"/>
  <path d="M114.7,61.22h.33v.33c.07-.06.13-.12.2-.18.05-.04.11-.08.17-.11.05-.03.11-.05.17-.06.06,0,.12-.02.18-.02.09,0,.18,0,.27.04.08.03.16.08.23.15.12.16.18.36.17.56v1.33h-.37v-1.32c.01-.13-.02-.25-.09-.35-.03-.04-.08-.07-.13-.09-.05-.02-.1-.03-.15-.02-.04,0-.09,0-.13.02-.05,0-.1.04-.14.07-.06.04-.11.08-.15.13-.06.06-.12.13-.18.2v1.36h-.37v-2.04h0Z" fill="#f60"/>
  <path d="M119.23,63.27h-.33v-.33c-.06.06-.12.12-.18.18-.05.04-.11.08-.17.11-.05.03-.11.05-.17.06-.06,0-.12.02-.18.02-.09,0-.18,0-.27-.04-.09-.03-.16-.08-.23-.15-.12-.16-.18-.36-.17-.56v-1.34h.37v1.31c0,.3.12.47.37.47.04,0,.09,0,.13-.02.05-.02.09-.04.14-.07.05-.04.1-.08.15-.13.05-.06.12-.13.18-.21v-1.36h.37v2.05h-.01Z" fill="#f60"/>
  <path d="M122.23,60.71c-.17-.03-.33-.05-.5-.06-.07,0-.14,0-.2.02-.07.02-.12.06-.17.11-.05.05-.08.11-.11.17-.02.07-.03.13-.02.2v.36h.93v.3h-.93v1.45h-.38v-1.45h-.69v-.3h.69v-.34c0-.55.3-.82.9-.82.16,0,.33.02.49.05v.3h-.01Z" fill="#f60"/>
  <path d="M124.53,63.27v-.28c-.1.1-.22.18-.35.24-.12.05-.25.08-.37.07-.1,0-.2,0-.3-.04-.08-.03-.15-.07-.22-.13-.05-.05-.1-.11-.12-.18-.03-.07-.04-.15-.04-.23,0-.09.02-.19.06-.27s.1-.16.18-.21c.21-.13.46-.19.7-.18h.44v-.18c0-.06,0-.11-.03-.16-.02-.05-.05-.1-.1-.14-.1-.08-.24-.12-.37-.11-.12,0-.24,0-.36.04-.12.03-.24.07-.36.11v-.32c.05-.02.1-.03.16-.05.06-.02.12-.03.18-.04.07,0,.13-.02.2-.03h.21c.12,0,.23,0,.35.04.1.02.18.06.26.12.07.06.13.13.17.21.04.09.06.2.06.3v1.41h-.35,0ZM124.49,62.33h-.47c-.08,0-.16,0-.24.03-.06,0-.12.04-.17.07-.04.03-.07.07-.09.12s-.03.1-.03.15c0,.04,0,.08.02.11.01.04.03.07.06.1s.07.05.11.07c.05.02.11.02.17.02.1,0,.21-.03.3-.07.13-.06.24-.14.35-.24v-.36h-.01Z" fill="#f60"/>
  <path d="M127.64,63.19c-.1.04-.2.06-.3.08-.1,0-.2.02-.3.02-.14,0-.28,0-.41-.05-.13-.05-.26-.12-.36-.21-.1-.1-.17-.22-.22-.36-.05-.13-.07-.27-.06-.41,0-.15.03-.3.08-.44.05-.13.12-.24.22-.34.1-.09.21-.17.34-.22.14-.05.29-.08.44-.07.1,0,.2,0,.3.02.1,0,.19.04.28.07v.34c-.09-.04-.18-.08-.28-.1-.1-.02-.2-.03-.3-.03-.09,0-.18.02-.27.05-.08.04-.16.09-.22.15-.07.07-.12.15-.15.24-.04.1-.06.21-.06.32,0,.1,0,.2.04.3.03.1.08.18.15.26.07.06.15.11.24.14s.18.04.28.04.2,0,.3-.03c.09-.02.19-.05.27-.1v.33h0Z" fill="#f60"/>
  <path d="M130.52,63.24c-.08.02-.17.04-.26.04h-.27c-.21.02-.43-.04-.6-.17-.07-.07-.12-.15-.16-.25-.03-.09-.05-.19-.04-.29v-1.07h-.6v-.3h.6v-.56l.37-.09v.65h.96v.3h-.96v1.04c0,.06,0,.12.02.18s.05.11.1.15c.1.08.23.12.36.11.07,0,.15,0,.22,0,.08,0,.17-.03.25-.05v.32h0Z" fill="#f60"/>
  <path d="M133.34,63.27h-.33v-.33c-.06.06-.12.12-.18.18-.05.04-.11.08-.17.11-.05.03-.11.05-.17.06-.06,0-.12.02-.18.02-.09,0-.18,0-.27-.04-.09-.03-.16-.08-.23-.15-.12-.16-.18-.36-.17-.56v-1.34h.37v1.31c0,.3.12.47.37.47.04,0,.09,0,.13-.02.05-.02.09-.04.13-.07.05-.04.11-.08.15-.13.05-.06.12-.13.18-.21v-1.36h.37v2.05h0Z" fill="#f60"/>
  <path d="M134.54,61.22h.34v.38c.1-.13.23-.23.37-.32.11-.06.24-.1.37-.1.09,0,.19,0,.27.04.09.04.16.09.23.16.13.18.18.39.16.61h-.37c.02-.14,0-.27-.08-.39-.03-.04-.07-.07-.11-.09s-.09-.03-.14-.03-.1,0-.15.02c-.06.02-.11.05-.16.08-.06.04-.11.09-.17.15-.07.07-.13.14-.19.21v1.31h-.37v-2.05.02Z" fill="#f60"/>
  <path d="M139.07,62.13v.22h-1.5c0,.09,0,.18.04.26.03.08.08.16.15.22.15.12.33.18.52.17h.19c.06,0,.12,0,.18-.02l.16-.03.15-.04v.3c-.11.03-.23.05-.34.07-.13.02-.26.03-.39.03-.16,0-.32-.02-.47-.07-.12-.04-.23-.11-.32-.21-.09-.1-.15-.21-.18-.33-.04-.14-.06-.29-.06-.44,0-.14.02-.28.06-.41.04-.12.11-.24.19-.34s.19-.17.3-.23c.13-.06.27-.09.41-.09.13,0,.27.02.39.07.11.04.21.1.3.19.08.09.14.19.18.3.04.12.05.25.05.38h0ZM138.69,62.08c0-.08,0-.17-.03-.25-.02-.07-.06-.14-.1-.19-.05-.06-.11-.1-.18-.13-.08-.03-.16-.05-.25-.04-.08,0-.15,0-.22.04-.06.03-.12.07-.17.13s-.09.13-.12.2c-.03.08-.05.16-.05.25h1.12Z" fill="#f60"/>
  <path d="M140.19,61.22h.33v.38c.1-.13.23-.23.37-.32.11-.06.24-.1.37-.1.09,0,.19,0,.27.04.09.04.17.09.23.16.13.18.18.39.16.61h-.38c.02-.14,0-.27-.08-.39-.03-.04-.07-.07-.11-.09s-.1-.03-.14-.03c-.05,0-.1,0-.15.02-.05.02-.11.05-.16.08-.06.04-.12.09-.17.15-.07.07-.13.14-.19.21v1.31h-.37v-2.05l.02.02Z" fill="#f60"/>
  <g>
    <path d="M144.41,48.71s-.09-.08-.15-.1c.07,0,.13-.04.19-.07.05-.03.1-.07.14-.12.04-.04.07-.1.09-.15.02-.06.03-.12.03-.18,0-.07,0-.15-.04-.22s-.07-.12-.12-.17c-.07-.05-.14-.09-.22-.11-.1-.03-.21-.04-.32-.04h-.56v2.02h.3v-.89h.25s.07.02.09.04c.03.02.06.05.08.08.03.04.05.08.08.13l.3.65h.32l-.34-.66c-.03-.07-.08-.13-.13-.19v-.02ZM144.15,48.42c-.06.02-.12.02-.18.02h-.23v-.67h.27c.11,0,.21.02.3.08.04.03.06.07.08.11s.03.09.02.13c0,.05,0,.1-.03.15-.02.04-.05.08-.09.11s-.09.06-.14.07h0Z" fill="#f60"/>
    <path d="M146.08,47.77c-.11-.25-.26-.47-.46-.66-.2-.19-.42-.33-.68-.43-.25-.1-.52-.15-.79-.14-.27,0-.54.04-.79.14s-.48.25-.68.43c-.19.19-.35.41-.46.66s-.17.51-.17.78.06.53.17.78.26.47.46.66c.19.19.42.33.68.43.25.1.52.15.79.14.27,0,.54-.04.79-.14s.48-.25.68-.43c.19-.19.35-.41.46-.66s.17-.51.17-.78-.06-.53-.17-.78ZM145.32,49.69c-.31.3-.73.46-1.16.45-.43,0-.85-.16-1.16-.45-.31-.3-.49-.71-.5-1.14,0-.43.19-.84.5-1.14s.73-.46,1.16-.45c.43,0,.85.15,1.16.45s.49.71.5,1.14c0,.43-.19.84-.5,1.14Z" fill="#f60"/>
  </g>
  <g>
    <path d="M64.17,11.84s0-.02-.01-.03l-.6-.53c-.79-.69-1.64-1.3-2.56-1.81-.83-.46-1.71-.83-2.62-1.08-.88-.24-1.78-.36-2.69-.36-1.7-.04-3.38.32-4.9,1.07-1.42.74-2.57,1.9-3.29,3.32-.77,1.49-1.16,3.28-1.16,5.36,0,2.36.43,4.23,1.28,5.55.68,1.15,1.71,2.07,2.94,2.63,1.32.52,2.69.92,4.09,1.19l.27.07s.07.02.11.02l.12.02c.92.19,1.82.46,2.69.8.6.24,1.13.65,1.52,1.17.35.55.52,1.2.47,1.85,0,1.15-.37,1.98-1.16,2.63-.91.74-2.25,1.12-3.97,1.12-1.23,0-2.46-.24-3.59-.72-1.12-.5-2.13-1.22-2.97-2.12l-.28-.3h0s0-.01-.02-.01h-.02s0,.01-.02.02l-2.93,4.36s0,.02,0,.03,0,.02,0,.03l.57.6c.81.84,1.72,1.56,2.72,2.16.96.57,2.01,1.01,3.09,1.28,1.13.29,2.3.43,3.46.42,1.75.05,3.48-.32,5.06-1.06,1.44-.72,2.63-1.86,3.39-3.28.81-1.47,1.22-3.26,1.22-5.33,0-2.19-.39-3.97-1.17-5.28l-.03-.05c-.64-1.14-1.6-2.07-2.75-2.68-1.23-.59-2.52-1.05-3.85-1.36l-.2-.04-.13-.03h-.05l-.12-.03-.16-.04c-1-.22-1.98-.51-2.95-.86-.63-.24-1.18-.63-1.6-1.15-.21-.26-.5-.73-.5-1.76,0-1.19.35-2.05,1.1-2.71.86-.75,2.11-1.13,3.72-1.13.94,0,1.86.21,2.72.6.99.46,1.9,1.08,2.69,1.81l.28.25s0,.01.02.01h.04s0-.01.02-.02l2.69-4.57s.01-.02.01-.03h.02Z" fill="#f60"/>
    <path d="M84.69,17.83c.05-.12.08-.24.08-.37v-5.52c0-.25-.11-.5-.29-.67-.18-.18-.43-.28-.68-.28-5.59-.13-11.18-.2-16.77-.2h-1.35c.17.23.31.48.36.77.07.42-.01.85-.23,1.22l-1.83,3.1v1.48c0,.13.03.25.08.37s.13.22.22.31c.09.09.2.16.32.2.12.05.25.07.37.07h5.05c.31,0,.6.11.82.33.22.21.35.5.35.81v24.05c0,.26.11.5.3.68s.44.28.7.27c1.47,0,2.94-.03,4.41-.04.26,0,.5-.1.69-.28.18-.18.29-.42.29-.68v-23.95c0-.31.13-.6.35-.81s.52-.33.83-.32l5,.06h.01c.13,0,.26-.02.37-.07.12-.05.23-.12.32-.2.09-.09.17-.19.22-.31v-.02Z" fill="#f60"/>
    <path d="M89.64,7.69c-1.47-.05-2.94-.1-4.41-.13h-.03c-.26,0-.51.09-.7.27-.19.18-.29.42-.3.68v.7c.61.08,1.18.34,1.62.77.52.52.82,1.22.83,1.95v5.52c-.01.74-.32,1.45-.86,1.97-.44.42-1,.68-1.59.75v19.55c0,.26.11.5.3.68s.44.28.69.27h.03c1.47-.04,2.94-.09,4.41-.14.25,0,.49-.11.67-.29s.28-.42.28-.67V8.64c0-.25-.11-.49-.28-.67-.18-.18-.42-.28-.67-.29h0Z" fill="#f60"/>
    <path d="M46.87,40.22c-1.03-.65-1.98-1.4-2.82-2.27l-.58-.6c-.29-.3-.47-.69-.51-1.1-.04-.41.07-.83.3-1.18l1.33-1.98c-2.26-7-4.51-13.89-6.77-20.6-.07-.19-.2-.36-.36-.48-.17-.12-.37-.18-.58-.18h-.06l-3.53.2c-.2,0-.39.08-.55.2s-.28.28-.35.47c-1.42,4.3-2.84,8.53-4.26,12.69.29.44.55.9.76,1.38.58,1.36.88,2.83.86,4.32v.05c.04,1.89-.43,3.77-1.34,5.43-.91,1.63-2.34,2.92-4.05,3.67-.52.23-1.06.39-1.61.53-.06.17-.12.33-.18.5-.05.14-.06.29-.04.44.02.15.07.29.16.41s.19.22.32.3c.13.07.27.11.42.12,1.6.12,3.21.23,4.82.34h.07c.21,0,.41-.06.58-.18s.3-.29.36-.49c.53-1.64,1.07-3.29,1.6-4.96.03-.08.07-.14.14-.19s.14-.07.23-.07h.01c2.57.1,5.14.19,7.71.27.08,0,.15.03.22.07.06.05.11.11.13.18.55,1.8,1.1,3.62,1.64,5.45.06.19.18.36.34.49.16.12.36.2.56.21,1.6.08,3.19.15,4.79.21h.04c.15,0,.3-.03.44-.09.14-.07.26-.16.35-.28s.16-.26.18-.41c.03-.15.02-.3-.02-.45-.26-.81-.51-1.61-.77-2.41h.02ZM36.86,30.01s-.08.08-.13.11c-.05.02-.11.04-.17.04h0l-2.91-.03c-.06,0-.11-.01-.17-.04-.05-.02-.1-.06-.13-.11-.03-.05-.06-.1-.07-.15,0-.06,0-.11,0-.17.49-1.55.97-3.1,1.46-4.66.02-.08.07-.15.14-.19.07-.05.15-.07.23-.07s.16.02.23.07.11.11.14.19c.49,1.56.97,3.12,1.45,4.69.02.06.02.11,0,.17,0,.06-.03.11-.07.16h0Z" fill="#f60"/>
    <path d="M26.79,35.71c.76-1.4,1.14-2.97,1.11-4.56v-.06c0-1.24-.25-2.47-.74-3.62-.35-.81-.84-1.55-1.45-2.19-.15-.16-.24-.36-.24-.58s.08-.43.22-.58c.52-.57.93-1.22,1.23-1.93.43-1.02.64-2.12.64-3.23.04-1.57-.3-3.13-1-4.55-.67-1.29-1.76-2.31-3.1-2.89-1.12-.47-2.33-.69-3.54-.67-.39,0-.78.02-1.2.05-3.51.31-7.01.64-10.51,1-.24.02-.47.13-.63.3-.17.18-.26.41-.26.65v24.42c0,.24.1.47.26.65.17.18.39.28.63.3,3.6.37,7.2.71,10.81,1.03.35.03.69.05,1.03.05,1.22.02,2.42-.21,3.54-.69,1.35-.59,2.48-1.61,3.19-2.9h.01ZM13.69,18.25c0-.23.09-.46.25-.62.16-.17.39-.26.62-.27l3.53-.18h.41c.93,0,1.64.18,2.06.52.26.21.6.61.6,1.7,0,1.17-.4,1.55-.53,1.68-.5.47-1.39.6-2.05.6l-3.95.08h-.02c-.12,0-.24-.02-.35-.06-.11-.04-.21-.11-.3-.19s-.15-.18-.2-.29-.07-.23-.08-.34v-2.63h.01ZM21.49,30.64c0,1.05-.36,1.45-.71,1.75-.35.3-1.06.6-2.49.6-.52,0-1.11-.1-1.84-.11-.4,0-.66-.03-.99-.03-.27,0-.54-.03-.82-.03h-.02c-.12,0-.24-.02-.35-.06-.11-.04-.21-.11-.3-.19-.09-.08-.15-.18-.2-.29s-.07-.23-.07-.35v-3.28c0-.12.02-.24.07-.35.05-.11.11-.21.2-.29.09-.08.19-.15.3-.19.11-.04.23-.06.35-.06h.02l3.95.07c.63-.02,1.26.11,1.84.38.34.17.61.45.77.8.21.5.32,1.05.3,1.59v.05h-.01Z" fill="#f60"/>
    <path d="M132.88,14.11c-1.48-.15-2.96-.3-4.43-.44h-.09c-.12,0-.24.02-.35.06s-.21.11-.3.19c-.08.08-.15.18-.2.29-.05.11-.07.23-.07.35v10.73c0,.13-.03.26-.08.38-.05.12-.13.23-.22.31-.09.09-.2.16-.33.21-.12.05-.25.07-.38.06-.17,0-.33-.04-.48-.12s-.27-.2-.36-.34c-2.57-4.01-5.15-8.23-7.73-12.62-.08-.14-.2-.25-.33-.34-.14-.08-.29-.14-.45-.15-1.31-.1-2.63-.2-3.94-.3h-.07v-.03c-.1,0-.21.02-.32.06-.1.04-.2.1-.28.18s-.14.17-.19.27-.07.21-.07.32v3.19c.04.09.1.16.14.25,1.01,2.2,1.51,4.6,1.45,7.02v7.27c.06,2.42-.44,4.82-1.45,7.03-.04.09-.1.17-.14.25v3c0,.25.11.49.29.67.18.18.43.27.68.27h.08c1.46-.11,2.92-.22,4.38-.34.24-.02.47-.13.64-.3.17-.18.26-.41.26-.65v-11.35c0-.13.03-.26.08-.37.05-.12.13-.23.22-.31.09-.09.2-.16.33-.2.12-.05.25-.07.38-.06.17,0,.33.04.48.12s.27.2.36.34c2.53,3.99,5.08,7.79,7.62,11.38.09.13.22.24.36.31s.3.11.46.11h.1c1.31-.13,2.63-.26,3.94-.39.24-.02.47-.13.64-.3.17-.18.26-.41.26-.65V15.06c0-.24-.1-.47-.26-.65-.17-.18-.39-.28-.64-.3h0Z" fill="#f60"/>
    <path d="M134.09,7.03c-1.5-.15-2.99-.3-4.47-.45-.28-.03-.56-.04-.84-.04-1.63,0-3.23.45-4.61,1.32-.04.02-.08.04-.12.05h-.13s-.08-.03-.12-.05c-.04-.03-.07-.06-.09-.1l-.61-1.05c-.15-.24-.35-.45-.59-.59-.24-.15-.52-.24-.8-.26l-3.04-.25c-1.5-.12-3.02-.24-4.51-.35-.22-.01-.43-.02-.65-.02-1.27,0-2.52.28-3.67.81-2.29-1.17-4.81-1.85-7.39-1.98-.36-.02-.71-.03-1.07-.03-1.36,0-2.72.15-4.04.46-.75-1.18-1.78-2.16-3.01-2.85-1.22-.69-2.6-1.07-4-1.11-1.48-.05-2.98-.1-4.46-.14h-.25c-1.32,0-2.63.29-3.81.87s-2.23,1.42-3.03,2.46c-3.78-.06-7.57-.09-11.32-.09h-.38c-.55-.36-1.11-.69-1.68-.99-1.46-.78-3.01-1.38-4.61-1.79-1.51-.37-3.06-.56-4.62-.56h-.42c-3.09.02-6.14.77-8.88,2.18-1.77.93-3.35,2.18-4.67,3.67-1.44-.97-3.15-1.49-4.89-1.49h-.48l-3.58.2c-1.45.09-2.85.54-4.08,1.3-.67-.45-1.38-.84-2.12-1.17-2.11-.91-4.39-1.37-6.7-1.34-.6,0-1.24.03-1.88.08-3.53.3-7.11.65-10.62,1.01C3.52,5.21.23,8.71.23,12.9v24.42c0,4.17,3.29,7.69,7.62,8.13,3.03.31,6.09.6,9.13.88.73,1,1.68,1.82,2.77,2.42,1.09.59,2.29.95,3.53,1.03,1.62.12,3.26.24,4.87.34.19,0,.4.02.6.02,1.23,0,2.44-.24,3.56-.74s2.12-1.22,2.93-2.14c.76,1.08,1.75,1.97,2.91,2.6,1.16.63,2.45.99,3.76,1.05,1.6.07,3.22.15,4.84.21h.36c2.29,0,4.49-.9,6.12-2.5h.43c.55.04,1.1.05,1.63.05,2.94.05,5.84-.56,8.51-1.79.3-.13.56-.28.84-.43.65,1.56,1.75,2.9,3.17,3.83,1.42.93,3.08,1.43,4.78,1.41h.07c1.47,0,2.97-.03,4.45-.05,1.4,0,2.78-.37,4.01-1.04,1.23-.67,2.28-1.62,3.06-2.79.48.08.96.12,1.44.12h.25c1.47-.04,2.97-.09,4.46-.14.45-.02.89-.06,1.33-.14.31.22.64.43.97.63,2.64,1.59,5.66,2.41,8.75,2.38.35,0,.71,0,1.07-.03,2.6-.14,5.14-.83,7.45-2.02,1.16.54,2.43.82,3.71.82.22,0,.44,0,.66-.02,1.48-.11,2.97-.23,4.43-.34,2.09-.16,4.05-1.08,5.51-2.57,1.48,1.04,3.24,1.6,5.06,1.6.3,0,.57,0,.86-.04,1.32-.13,2.66-.26,3.99-.4,4.33-.44,7.6-3.95,7.6-8.13V15.16c0-4.17-3.29-7.69-7.61-8.13h-.02ZM135.68,39.48c0,.69-.28,1.36-.75,1.87s-1.12.82-1.82.88c-1.31.13-2.64.27-3.95.39-.1,0-.2,0-.3,0-.46,0-.92-.11-1.34-.32-.41-.21-.77-.52-1.04-.89-1.95-2.76-3.98-5.75-6.03-8.91v8.36c-.01.7-.29,1.38-.78,1.89s-1.15.82-1.86.86c-1.46.12-2.93.23-4.39.34h-.25c-.75,0-1.47-.31-2-.84s-.83-1.25-.83-2v-.14c-.68.78-1.45,1.48-2.32,2.07-1.88,1.28-4.08,2.01-6.35,2.12-.24.02-.49.02-.74.02-2.02.03-4.01-.51-5.74-1.54-1.2-.74-2.23-1.7-3.07-2.81-.13.25-.29.48-.49.69-.52.52-1.22.81-1.95.82-1.47.05-2.96.1-4.42.14h-.08c-.75,0-1.47-.27-2.01-.79s-.85-1.23-.86-1.97v-19.53c-.95-.01-1.91-.02-2.86-.03v23.26c-.02.74-.32,1.44-.85,1.96s-1.24.81-1.98.81c-1.46.02-2.95.05-4.43.05h-.02c-.75,0-1.47-.27-2.01-.79s-.85-1.23-.86-1.97v-23.36h-4.32c-.75.01-1.47-.27-2.01-.79-.35-.34-.59-.76-.73-1.21-.16.07-.33.13-.51.16-.29.04-.58.03-.86-.06-.28-.08-.54-.22-.75-.42l-.28-.25c-.66-.61-1.41-1.11-2.22-1.49-.6-.28-1.26-.43-1.92-.44-1.13,0-1.96.22-2.46.66-.25.22-.49.54-.49,1.37-.02.22,0,.44.09.64.22.27.51.48.84.6.89.32,1.8.58,2.72.79h.06c.07.01.15.03.24.06h.07l.27.06c1.47.34,2.91.85,4.27,1.51,1.48.78,2.71,1.98,3.54,3.43l.05.08c.9,1.57,1.37,3.62,1.37,6.09s-.48,4.44-1.43,6.17c-.94,1.74-2.4,3.15-4.18,4.03-1.85.89-3.88,1.33-5.93,1.29-1.33,0-2.66-.16-3.95-.49-.52-.13-1.03-.3-1.54-.5.07.23.15.46.22.69.13.41.16.85.08,1.28-.08.43-.26.83-.52,1.17-.27.35-.62.63-1.02.82s-.84.29-1.28.29h-.13c-1.59-.07-3.2-.14-4.79-.21-.59-.02-1.16-.23-1.63-.58-.47-.36-.82-.85-.99-1.41-.45-1.49-.89-2.96-1.34-4.44-1.82-.06-3.66-.12-5.48-.19-.42,1.31-.84,2.61-1.26,3.9-.19.57-.56,1.07-1.05,1.42s-1.09.53-1.69.52h-.2c-1.6-.11-3.23-.22-4.83-.34-.43-.03-.86-.15-1.23-.37-.38-.21-.7-.51-.95-.87-.24-.35-.39-.75-.44-1.17-.03-.28,0-.56.05-.84-.22,0-.44.03-.66.03-.39,0-.79-.02-1.2-.05-3.6-.32-7.25-.66-10.84-1.03-.69-.06-1.34-.37-1.82-.88-.47-.51-.74-1.17-.75-1.87V12.86c0-.69.28-1.36.75-1.87s1.12-.82,1.82-.88c3.49-.36,7.04-.7,10.54-1,.47-.04.93-.06,1.37-.06,1.49-.03,2.96.26,4.33.83,1.72.74,3.14,2.05,4,3.71.44.89.76,1.84.96,2.8.46-1.39.93-2.8,1.41-4.23.19-.54.53-1.01.99-1.35.46-.34,1.01-.54,1.58-.57,1.18-.07,2.36-.14,3.54-.21h.16-.02c.6-.02,1.19.16,1.68.5s.86.83,1.06,1.39c2.01,6,4.1,12.36,6.31,19.19l.27-.41c.16-.24.38-.44.63-.59s.54-.23.83-.25c.29-.03.59.01.86.12.28.1.52.27.73.48l.28.3c.66.72,1.46,1.29,2.35,1.69.89.38,1.85.57,2.82.56,1.25,0,2.2-.24,2.75-.69.3-.25.5-.55.5-1.25,0-.61-.12-.79-.13-.81-.18-.25-.43-.45-.72-.56-.75-.29-1.53-.52-2.32-.69-.14-.02-.27-.04-.4-.08l-.16-.04c-1.51-.29-2.99-.72-4.42-1.28-1.58-.7-2.9-1.86-3.78-3.33-1.04-1.62-1.56-3.8-1.56-6.5,0-2.36.46-4.43,1.37-6.17.9-1.75,2.32-3.18,4.07-4.09,1.8-.9,3.79-1.34,5.8-1.3,1.08,0,2.16.15,3.21.43,1.06.29,2.09.72,3.05,1.25.68.38,1.32.82,1.93,1.29.34-.14.71-.22,1.09-.22h2.07c5.07,0,10.2.06,15.28.17v-.64c.01-.75.32-1.45.86-1.97.54-.52,1.26-.8,2.01-.79h.08c1.47.04,2.96.09,4.42.14.73.01,1.43.3,1.95.82s.81,1.21.82,1.94v4.68c.78-.93,1.69-1.75,2.73-2.39,1.73-1.04,3.72-1.57,5.74-1.54.24,0,.49,0,.74.02,2.27.1,4.47.84,6.35,2.12.86.59,1.63,1.29,2.32,2.07v-.4c0-.5.15-.99.42-1.41s.66-.76,1.11-.97c.37-.18.78-.27,1.2-.26h.22c1.5.11,2.99.23,4.49.35l.47.04c.16.01.32.06.45.15.14.08.25.2.33.34l.23.39c2.15,3.68,4.27,7.17,6.31,10.43v-7.69c.02-.72.32-1.41.84-1.91s1.23-.78,1.95-.77c.09,0,.19.02.28.02,1.47.14,2.97.29,4.44.44.7.06,1.34.38,1.82.88.48.51.74,1.17.76,1.87v24.4l-.03-.02Z" fill="#f60"/>
    <path d="M106.95,12.99c-1.59-1.08-3.45-1.7-5.37-1.79-.22-.01-.43-.02-.63-.02-1.67-.03-3.31.41-4.74,1.26-1.64,1.02-2.93,2.52-3.7,4.28-.01.03-.02.07-.04.1v20.92s.02.07.04.1c.77,1.77,2.06,3.26,3.7,4.28,1.43.85,3.07,1.29,4.74,1.27.21,0,.42-.02.63-.02,1.92-.09,3.78-.71,5.37-1.79,1.6-1.11,2.88-2.62,3.7-4.38.9-1.96,1.34-4.1,1.28-6.26v-7.32c.06-2.16-.38-4.3-1.28-6.26-.82-1.76-2.09-3.28-3.7-4.39v.02ZM105.45,31.36c.03.9-.14,1.79-.49,2.61-.27.64-.72,1.2-1.3,1.6-.61.41-1.34.63-2.08.64h-.15c-.68.02-1.35-.16-1.93-.52-.58-.38-1.03-.92-1.3-1.56-.35-.83-.52-1.73-.49-2.64v-8.39c-.02-.9.15-1.79.49-2.62.27-.64.72-1.18,1.3-1.56.58-.36,1.24-.54,1.92-.52h.16c.74,0,1.46.22,2.08.63.58.4,1.03.95,1.3,1.6.35.81.52,1.69.49,2.57v8.16Z" fill="#f60"/>
  </g>
</svg>