<?xml version="1.0" encoding="UTF-8"?>
<svg id="Layer_1" data-name="Layer 1" xmlns="http://www.w3.org/2000/svg" width="155" height="203" viewBox="0 0 155 203">
  <path d="M93.2,111.8c.45.04.91-.09,1.27-.36.37-.27.62-.67.7-1.12l3.26-14.05c.06-.29.2-.43.36-.43s.3.14.36.43l3.3,14.04c.08.45.33.85.69,1.12.36.28.82.4,1.27.36h8.41c.46.05.91-.07,1.28-.35.36-.28.61-.68.68-1.14l7.36-36.66c.24-1.22-.34-1.91-1.61-1.91h-7.13c-1.07,0-1.84.51-1.96,1.49l-3.4,23.85c-.06.29-.22.43-.36.43s-.29-.15-.36-.43l-4-23.85c-.07-.45-.32-.86-.68-1.14s-.82-.4-1.28-.35h-5.13c-.45-.05-.91.08-1.27.35-.37.28-.61.68-.69,1.14l-4,23.85c-.06.29-.2.43-.36.43s-.3-.15-.36-.43l-3.4-23.85c-.11-.97-.89-1.49-1.96-1.49h-7.11c-1.27,0-1.85.71-1.61,1.91l7.35,36.66c.07.45.32.86.69,1.14s.83.4,1.28.35h8.41Z" fill="#f60"/>
  <path d="M152.14,185.02c-4.83,0-7.36-2.54-9.21-4.45-1.64-1.68-2.45-2.41-4.29-2.41s-2.65.74-4.29,2.41c-1.84,1.91-4.37,4.45-9.2,4.45s-7.36-2.54-9.21-4.45c-1.64-1.68-2.44-2.41-4.28-2.41s-2.64.74-4.29,2.41c-1.84,1.91-4.37,4.45-9.2,4.45s-7.36-2.54-9.2-4.45c-1.65-1.68-2.45-2.41-4.28-2.41s-2.64.74-4.28,2.41c-1.85,1.91-4.38,4.45-9.2,4.45s-7.36-2.54-9.2-4.45c-1.65-1.68-2.45-2.41-4.28-2.41s-2.64.74-4.29,2.41c-1.84,1.91-4.37,4.45-9.2,4.45s-7.36-2.54-9.2-4.45c-1.65-1.68-2.45-2.41-4.28-2.41s-2.64.74-4.29,2.41c-1.85,1.91-4.37,4.45-9.2,4.45s-7.36-2.54-9.2-4.45c-1.64-1.68-2.45-2.41-4.28-2.41v-6.49c4.83,0,7.36,2.57,9.2,4.45,1.64,1.67,2.45,2.41,4.28,2.41s2.64-.74,4.29-2.41c1.84-1.9,4.37-4.45,9.2-4.45s7.36,2.57,9.2,4.45c1.65,1.67,2.45,2.41,4.29,2.41s2.64-.74,4.28-2.41c1.85-1.9,4.37-4.45,9.2-4.45s7.36,2.57,9.2,4.45c1.64,1.67,2.45,2.41,4.28,2.41s2.64-.74,4.28-2.41c1.85-1.9,4.37-4.45,9.2-4.45s7.36,2.57,9.2,4.45c1.65,1.67,2.45,2.41,4.29,2.41s2.64-.74,4.29-2.41c1.84-1.87,4.37-4.45,9.2-4.45s7.36,2.57,9.2,4.45c1.65,1.67,2.45,2.41,4.29,2.41s2.64-.74,4.29-2.41c1.85-1.87,4.38-4.45,9.21-4.45s7.36,2.57,9.2,4.45c1.64,1.68,2.45,2.41,4.29,2.41v6.5h-.01Z" fill="#f60"/>
  <path d="M152.14,202.69c-4.83,0-7.36-2.54-9.21-4.45-1.64-1.67-2.45-2.41-4.29-2.41s-2.65.74-4.29,2.41c-1.84,1.9-4.37,4.45-9.2,4.45s-7.36-2.54-9.21-4.45c-1.64-1.67-2.44-2.41-4.28-2.41s-2.64.74-4.29,2.41c-1.84,1.9-4.37,4.45-9.2,4.45s-7.36-2.54-9.2-4.45c-1.65-1.67-2.45-2.41-4.28-2.41s-2.64.74-4.28,2.41c-1.85,1.9-4.38,4.45-9.2,4.45s-7.36-2.54-9.2-4.45c-1.65-1.67-2.45-2.41-4.28-2.41s-2.64.74-4.29,2.41c-1.84,1.9-4.37,4.45-9.2,4.45s-7.36-2.54-9.2-4.45c-1.65-1.67-2.45-2.41-4.28-2.41s-2.64.74-4.29,2.41c-1.85,1.9-4.37,4.45-9.2,4.45s-7.36-2.54-9.2-4.45c-1.64-1.67-2.45-2.41-4.28-2.41v-6.48c4.83,0,7.36,2.54,9.2,4.45,1.64,1.67,2.45,2.41,4.28,2.41s2.64-.74,4.29-2.41c1.84-1.91,4.37-4.45,9.2-4.45s7.36,2.54,9.2,4.45c1.65,1.67,2.45,2.41,4.29,2.41s2.64-.74,4.28-2.41c1.85-1.91,4.37-4.45,9.2-4.45s7.36,2.54,9.2,4.45c1.64,1.67,2.45,2.41,4.28,2.41s2.64-.74,4.28-2.41c1.85-1.91,4.37-4.45,9.2-4.45s7.36,2.54,9.2,4.45c1.65,1.67,2.45,2.41,4.29,2.41s2.64-.74,4.29-2.41c1.84-1.91,4.37-4.45,9.2-4.45s7.36,2.54,9.2,4.45c1.65,1.67,2.45,2.41,4.29,2.41s2.64-.74,4.29-2.41c1.85-1.91,4.38-4.45,9.21-4.45s7.36,2.54,9.2,4.45c1.64,1.67,2.45,2.41,4.29,2.41v6.48h-.01Z" fill="#f60"/>
  <path d="M36.68,31.26c.24.03.48.01.71-.06.24-.07.45-.19.64-.36.18-.17.31-.37.39-.6.08-.22.11-.46.09-.7v-6.41c0-1.14-.6-1.72-1.78-1.72H6.22c-1.16,0-1.79.57-1.79,1.72v6.41c-.02.24.01.48.1.7.08.22.22.42.39.58.18.17.4.29.64.36.23.07.46.1.7.07h8.25c1.19,0,1.78.57,1.78,1.72v26.79c-.02.24.01.48.1.7.08.22.22.42.39.58.17.16.38.29.6.36.23.07.46.1.7.07h6.68c.24.03.48,0,.7-.06.23-.07.43-.2.6-.36.18-.16.31-.37.39-.6.08-.22.11-.46.09-.7v-26.79c0-1.14.64-1.72,1.79-1.72h8.35v.02Z" fill="#f60"/>
  <path d="M70.05,61.48c1.19,0,1.79-.64,1.79-1.72V23.13c0-1.14-.6-1.72-1.79-1.72h-6.64c-.24-.03-.47,0-.7.07-.24.07-.45.19-.64.36-.17.16-.3.36-.39.58s-.12.46-.1.7v14.3c.03.23,0,.46-.06.68-.07.24-.2.46-.37.64-.18.17-.4.29-.64.36-.23.07-.47.09-.71.06h-5.72c-.24.03-.47,0-.7-.07-.23-.08-.43-.21-.6-.38-.17-.17-.3-.38-.37-.6-.09-.22-.12-.46-.1-.7v-14.28c.03-.23,0-.47-.06-.69-.09-.22-.22-.42-.39-.59-.17-.16-.37-.28-.59-.35s-.45-.1-.68-.08h-6.75c-1.19,0-1.78.57-1.78,1.72v36.63c-.02.24,0,.48.1.7.08.22.22.42.39.59.17.16.38.29.6.36.22.08.46.1.7.07h6.68c.24.03.48,0,.71-.06s.43-.2.6-.36c.18-.16.32-.36.41-.59.08-.23.11-.47.09-.7v-9.06c0-1.14.64-1.72,1.79-1.72h5.72c1.19,0,1.78.57,1.78,1.72v9.06c-.02.24,0,.48.1.7.08.22.22.42.39.59.17.16.38.29.6.36.22.08.46.1.7.07h6.61l.02-.02Z" fill="#f60"/>
  <path d="M78.3,61.05c.18.17.4.29.64.36.22.08.46.1.7.07h25.04c1.19,0,1.79-.57,1.79-1.72v-6.41c0-1.14-.6-1.72-1.79-1.72h-14.47c-.24.03-.47,0-.7-.07-.23-.07-.43-.2-.6-.36s-.3-.36-.39-.58c-.08-.22-.12-.46-.1-.7v-1.86c0-1.14.64-1.72,1.79-1.72h9.24c1.19,0,1.79-.64,1.79-1.72v-6.4c0-1.14-.6-1.72-1.79-1.72h-9.24c-.24.03-.47,0-.7-.07-.23-.07-.43-.2-.6-.36s-.3-.36-.39-.58c-.08-.22-.12-.46-.1-.7v-1.83c0-1.14.64-1.72,1.79-1.72h14.43c1.19,0,1.79-.64,1.79-1.72v-6.41c0-1.14-.6-1.72-1.79-1.72h-25.06c-1.15,0-1.78.57-1.78,1.72v36.63c-.02.24.01.47.1.69.1.23.24.43.42.59l-.02.03Z" fill="#f60"/>
  <path d="M37.38,111.71c.23-.07.43-.2.61-.36.17-.17.3-.37.38-.59.08-.22.11-.46.09-.7v-36.6c0-1.14-.6-1.72-1.78-1.72h-6.65c-1.15,0-1.78.57-1.78,1.72v18.48c0,.32-.2.5-.33.5s-.28-.11-.39-.33l-8.14-19.06c-.16-.41-.45-.76-.82-.99-.37-.24-.81-.35-1.25-.32h-8.78c-1.16,0-1.79.57-1.79,1.72v36.59c-.02.24.01.48.1.7.08.22.22.42.39.58.18.17.4.29.64.36.23.07.46.1.7.07h6.64c1.19,0,1.79-.64,1.79-1.72v-18.47c0-.32.18-.5.32-.5s.29.11.39.33l8.11,19.06c.15.42.44.78.82,1.02s.82.36,1.27.32h8.77c.24.02.48,0,.7-.08h-.01Z" fill="#f60"/>
  <path d="M71.25,71.74h-25.04c-1.16,0-1.79.57-1.79,1.72v36.6c-.02.24,0,.48.1.7.08.22.22.42.39.58s.38.29.6.36c.22.08.46.1.7.07h25.04c1.19,0,1.78-.57,1.78-1.71v-6.4c0-1.14-.6-1.72-1.78-1.72h-14.43c-.24.03-.47,0-.7-.07-.24-.07-.45-.19-.64-.36-.17-.16-.3-.36-.39-.58-.08-.22-.12-.46-.1-.69v-1.84c0-1.14.64-1.72,1.78-1.72h9.24c1.19,0,1.79-.64,1.79-1.71v-6.42c0-1.14-.6-1.72-1.79-1.72h-9.21c-.24.03-.47,0-.7-.07-.24-.07-.45-.19-.64-.36-.17-.16-.31-.37-.39-.59-.08-.22-.12-.46-.1-.69v-1.83c0-1.14.64-1.72,1.78-1.72h14.46c.24.03.48.01.71-.06.22-.08.43-.2.6-.36.17-.17.31-.37.39-.6.08-.22.11-.46.09-.7v-6.41c0-1.14-.6-1.72-1.78-1.72l.03.02Z" fill="#f60"/>
  <path d="M23.58,161.75c.37-.27.62-.67.7-1.12l3.28-14.07c.06-.29.21-.43.36-.43s.3.14.36.43l3.28,14.07c.08.45.33.85.69,1.12.36.28.82.41,1.27.36h8.41c.46.06.92-.07,1.28-.35.37-.28.61-.69.68-1.14l7.34-36.66c.24-1.22-.34-1.91-1.61-1.91v-.04h-7.1c-1.07,0-1.84.51-1.96,1.49l-3.4,23.86c-.06.29-.22.43-.36.43s-.29-.15-.36-.43l-4-23.86c-.07-.45-.31-.86-.68-1.14-.36-.27-.82-.4-1.27-.35h-5.14c-.45-.05-.91.08-1.27.35-.37.28-.61.68-.69,1.14l-4.01,23.86c-.06.29-.2.43-.36.43s-.3-.15-.36-.43l-3.4-23.85c-.11-.97-.89-1.49-1.96-1.49h-7.1c-1.27,0-1.85.7-1.61,1.9l7.33,36.7c.07.45.32.86.69,1.14s.83.4,1.28.35h8.4c.46.04.91-.1,1.27-.38l.02.02Z" fill="#f60"/>
  <path d="M81.56,162.07c1.19,0,1.79-.67,1.79-1.94v-24.2c0-7.21-1.19-14.87-14.61-14.87s-14.58,7.63-14.58,14.87v24.23c0,1.27.64,1.94,1.79,1.94h6.65c1.19,0,1.78-.57,1.78-1.71v-4.97c0-1.14.64-1.71,1.79-1.71h5.13c1.19,0,1.79.57,1.79,1.71v4.97c0,1.14.64,1.71,1.78,1.71l6.67-.03h.02ZM73.13,142.07c0,1.14-.6,1.71-1.79,1.77h-5.1c-.24.03-.47,0-.7-.07-.23-.07-.43-.2-.6-.36s-.3-.36-.39-.59c-.09-.22-.12-.46-.1-.7v-6.2c0-2.74.41-4.12,4.35-4.12s4.36,1.38,4.36,4.12l-.03,6.14h0Z" fill="#f60"/>
  <path d="M86.51,123.92l8.72,36.7c.08.45.33.85.7,1.12.36.28.82.41,1.27.36h11.08c.46.04.91-.08,1.27-.36.36-.28.61-.68.69-1.13l8.71-36.66c.3-1.22-.28-1.91-1.55-1.91v-.04h-7.09c-.46-.04-.91.08-1.28.36-.36.28-.61.68-.69,1.13l-5.26,21.96c-.06.26-.2.39-.36.39s-.3-.13-.36-.39l-5.25-21.96c-.08-.45-.33-.85-.69-1.12-.36-.28-.82-.41-1.27-.36h-7.09c-1.25,0-1.85.71-1.55,1.9h0Z" fill="#f60"/>
  <path d="M124.76,122.06c-1.15,0-1.78.57-1.78,1.72v36.6c-.02.23.01.47.1.69.08.22.21.42.38.58s.38.29.6.36.46.1.7.07h25.04c1.19,0,1.79-.57,1.79-1.71v-6.39c0-1.14-.6-1.72-1.79-1.72h-14.43c-.24.03-.48,0-.71-.07-.22-.08-.43-.2-.6-.36-.17-.17-.3-.37-.39-.59s-.12-.46-.11-.69v-1.83c0-1.14.63-1.72,1.79-1.72h9.24c.24.03.48,0,.7-.06.23-.07.44-.2.6-.37.17-.16.3-.36.38-.58s.11-.46.09-.69v-6.43c0-1.14-.6-1.72-1.78-1.72h-9.23c-.24.03-.47,0-.7-.07-.24-.07-.46-.19-.63-.36-.17-.16-.3-.36-.39-.58s-.12-.46-.1-.7v-1.83c0-1.14.63-1.72,1.79-1.72h14.43c1.19,0,1.79-.63,1.79-1.71v-6.41c0-1.14-.6-1.72-1.79-1.72h-25.01.02Z" fill="#f60"/>
  <path d="M99.44,36.52h-7.47c2.54,2.79,5.72,4.91,9.26,6.19v-4.45c0-1.16-.6-1.74-1.79-1.74Z" fill="#f60"/>
  <path d="M109.32,0c-11.29,0-20.71,7.86-22.63,18.18h6.9c1.8-6.71,8.17-11.69,15.72-11.69,8.96,0,16.24,6.99,16.24,15.58s-7.28,15.57-16.24,15.57c-1.64,0-3.28-.24-4.86-.71.11.43.16.87.15,1.31v5.42c1.55.31,3.13.47,4.71.46,12.71,0,22.99-9.89,22.99-22.05S121.99,0,109.32,0Z" fill="#f60"/>
  <path d="M86.35,21.42v.64c0,3.41.82,6.78,2.4,9.81.18-.22.4-.39.66-.5s.54-.16.81-.14h6.03c-2.04-2.63-3.14-5.87-3.14-9.2v-.64l-6.76.03Z" fill="#f60"/>
</svg>