<svg width="141" height="139" viewBox="0 0 141 139" fill="none" xmlns="http://www.w3.org/2000/svg">
<g clip-path="url(#clip0_3397_10493)">
<g style="mix-blend-mode:multiply">
<path d="M45.6238 39.924C45.7114 39.9038 45.8865 39.86 45.9707 39.8398C46.166 39.8836 46.3815 40.0183 46.6644 40.0419C46.8597 40.0857 47.1426 40.1126 47.4457 40.2237C47.9238 40.2945 48.3987 40.3618 48.8768 40.4325C49.0722 40.4763 49.1799 40.5437 49.355 40.5032C49.6379 40.5268 49.8534 40.6581 50.1363 40.6817C50.3114 40.6413 50.4831 40.5975 50.5909 40.6649C50.6987 40.7322 50.894 40.776 50.9815 40.7558C51.0691 40.7356 51.1768 40.7996 51.2644 40.7794C51.3722 40.8467 51.5675 40.8905 51.655 40.8703C51.8301 40.8299 52.0255 40.8703 52.2208 40.9174C52.5238 41.0286 52.9582 40.9242 53.2815 41.1229C53.5442 41.0589 53.6519 41.1229 53.8473 41.17C54.3052 41.1532 54.6925 41.2407 55.0629 41.2441C55.2582 41.2879 55.4334 41.2441 55.6287 41.2912C55.7364 41.3586 55.9317 41.4024 56.1068 41.362L56.1944 41.3417C56.585 41.4327 56.9521 41.436 57.4303 41.5034C57.8209 41.5943 58.2755 41.5741 58.7537 41.6448C59.1241 41.6448 59.4912 41.6516 59.8818 41.7425C60.0569 41.7021 60.1647 41.7661 60.3398 41.7256C60.7068 41.7256 61.0099 41.8401 61.3601 41.7559C61.6632 41.8671 61.9259 41.8031 62.2727 41.7189C62.4445 41.6785 62.7913 41.9614 62.8317 42.1365C62.8721 42.3116 62.8957 42.3991 63.0237 42.5507C63.0641 42.7258 63.1079 42.8975 63.2358 43.0524C63.2762 43.2275 63.2998 43.3117 63.3402 43.4868C63.4918 43.7259 63.5524 43.9886 63.7039 44.2277C63.8757 44.5543 63.8723 44.9248 64.1316 45.2312L64.1518 45.3188C64.2158 45.5814 64.3875 45.9081 64.5357 46.1472C64.7074 46.4738 64.7714 46.7365 64.9398 47.0631C65.1519 47.5649 65.3439 47.9791 65.6234 48.3731C65.7749 48.6122 65.8355 48.8748 65.9669 49.0264C65.9871 49.1139 66.0073 49.2015 66.1386 49.353C66.2026 49.6157 66.4383 49.8346 66.5023 50.0939C66.674 50.4205 66.93 50.7269 67.1017 51.0536C67.1152 51.112 67.1287 51.1703 67.1421 51.2287C67.2499 51.2961 67.3778 51.4476 67.4014 51.5351C67.4418 51.7103 67.5732 51.8618 67.6136 52.0369C67.7213 52.1009 67.8291 52.1682 67.8729 52.3433C68.0446 52.67 68.3005 52.9764 68.4723 53.3031C68.6878 53.4344 68.7316 53.6095 68.772 53.7813C68.9 53.9328 68.9437 54.1079 69.0515 54.1753C69.1795 54.3268 69.2872 54.3941 69.331 54.5693C69.459 54.7208 69.4825 54.8084 69.5869 54.8757C69.8226 55.0946 69.9742 55.3337 70.1257 55.5761C70.2975 55.9028 70.5534 56.2092 70.7925 56.4281C71.072 56.8221 71.439 57.1925 71.8027 57.5663C71.8431 57.7414 71.9543 57.8054 72.062 57.8728C72.2136 58.1119 72.4291 58.2466 72.5773 58.4856C72.7726 58.5294 72.8366 58.7921 73.0521 58.9234C73.18 59.075 73.2036 59.1625 73.2878 59.1423C73.3596 59.1872 73.4023 59.2377 73.4158 59.2939C73.6515 59.5127 73.8704 59.6441 74.1061 59.863L74.1263 59.9505C74.2341 60.0179 74.3418 60.0818 74.4496 60.1492C74.7089 60.4556 74.9446 60.6745 75.2477 60.7856C75.4632 60.917 75.5945 61.0719 75.7225 61.2234C75.9582 61.4423 75.9582 61.8127 75.6282 61.9811C75.3655 62.0451 75.1062 62.1057 74.8469 62.1697C74.5001 62.2539 74.1499 62.3381 73.867 62.3145C73.4326 62.4189 73.0857 62.5031 72.648 62.6075C72.2775 62.6075 71.9307 62.6883 71.668 62.7523C71.301 62.7523 71.0383 62.8129 70.7756 62.8735C70.6881 62.8937 70.5803 62.8297 70.6005 62.9139C70.6005 62.9139 70.6207 63.0015 70.7083 62.9813C70.9676 63.2877 71.2235 63.5941 71.5704 63.877C71.8061 64.0959 72.0452 64.3148 72.3685 64.5135C72.7355 64.8839 73.0992 65.2577 73.5336 65.5203C73.8569 65.719 74.096 65.9379 74.3317 66.1568L75.3689 67.0121C75.4767 67.0795 75.6282 67.3186 75.8235 67.3624C76.1468 67.561 76.3185 67.8877 76.6418 68.0864C76.9449 68.1975 77.0964 68.4366 77.312 68.5713C78.0023 69.1404 78.6926 69.7129 79.4705 70.2618L79.5783 70.3291C79.5783 70.3291 79.5985 70.4167 79.686 70.3965C79.9218 70.6154 80.1406 70.7467 80.3764 70.9656C80.6121 71.1845 80.8512 71.4034 81.1543 71.5145C81.39 71.7334 81.6055 71.8647 81.8446 72.0836C82.1679 72.2823 82.5147 72.5651 82.8582 72.8514C83.2017 73.1376 83.5283 73.3363 83.8718 73.6192C84.4342 74.0367 84.9932 74.4543 85.5758 74.9561C85.7913 75.0874 85.8957 75.5218 85.6566 75.6733C85.5051 75.8013 85.33 75.8451 85.1548 75.8855C84.9595 75.8417 84.7844 75.8855 84.5251 75.9461C84.3534 75.9865 84.1109 76.1381 83.9358 76.1785C83.6529 76.1549 83.3061 76.2391 83.0434 76.3031C82.5215 76.4277 81.9995 76.5556 81.39 76.7038C80.7603 76.7644 80.0632 76.9328 79.4537 77.0776C79.0193 77.182 78.5849 77.2864 78.1471 77.3941C77.7127 77.4985 77.2985 77.6905 76.8203 77.6231C76.6452 77.6635 76.5576 77.6871 76.689 77.8386C76.7092 77.9262 76.7294 78.0137 76.7529 78.1013C77.1402 78.5593 77.4601 79.1284 77.8474 79.5864C77.8609 79.6447 77.8968 79.6672 77.9551 79.6537C78.0629 79.7211 78.0831 79.8052 78.1269 79.9804C78.1471 80.0679 78.2548 80.1319 78.2784 80.2195C78.4064 80.371 78.6455 80.5932 78.7734 80.7448C78.925 80.9839 78.9654 81.159 79.1809 81.2903C79.2887 81.3577 79.4166 81.5092 79.548 81.6641C79.6759 81.8156 79.8073 81.9706 79.9554 82.2096C79.9756 82.2972 80.0834 82.3645 80.1912 82.4285L80.2989 82.4959C80.4909 82.9101 80.8141 83.1088 81.0734 83.4152C81.3327 83.7216 81.6762 84.0079 81.9557 84.3985C82.0635 84.4659 82.279 84.5972 82.4103 84.7487C82.6898 85.1427 83.1411 85.4929 83.5081 85.8667C83.6361 86.0183 83.8314 86.0654 83.8752 86.2405L83.983 86.3079C84.0907 86.3752 84.1985 86.4392 84.3298 86.5941L84.35 86.6817C84.8888 87.0117 85.3636 87.4495 85.8384 87.8872C86.1853 88.1735 86.5288 88.4563 86.8756 88.7426C87.3302 89.0928 87.7815 89.4464 88.2125 89.709C88.3203 89.7764 88.4483 89.9279 88.5594 89.9953C88.9904 90.2579 89.445 90.6115 89.8761 90.8742C90.5462 91.3591 91.3207 91.908 92.0784 92.3694C92.6172 92.6994 93.1594 93.0294 93.7857 93.3392C94.0012 93.4705 94.3245 93.6692 94.5434 93.8005C94.8667 93.9992 95.2775 94.1777 95.6042 94.373C95.676 94.4157 95.7187 94.4662 95.7321 94.5246C95.8601 94.6761 95.8365 94.959 95.7052 95.1745L95.5301 95.2149C95.4425 95.2351 95.355 95.2553 95.2674 95.2789C95.2674 95.2789 95.1799 95.2991 95.1597 95.2115C94.8768 95.188 94.5737 95.0768 94.2942 95.0533C93.8834 94.8748 93.4725 94.6997 92.9944 94.6323C92.936 94.6458 92.9001 94.6233 92.8866 94.565C92.7788 94.4976 92.6913 94.5212 92.6037 94.5414C92.5319 94.4965 92.4668 94.4819 92.4084 94.4976C92.1727 94.2787 91.91 94.3427 91.6945 94.208C91.3914 94.0969 91.1961 94.0531 90.8931 93.942C90.59 93.8309 90.1118 93.7635 89.7885 93.5648C89.7683 93.4773 89.6808 93.4975 89.6808 93.4975C89.2901 93.4066 88.9668 93.2079 88.5762 93.1203C88.1856 93.0294 87.8623 92.8307 87.4717 92.7432C87.2562 92.6118 87.0608 92.5647 86.7578 92.4569C86.5423 92.3256 86.3267 92.1909 86.1314 92.1471C85.7408 92.0562 85.5051 91.8373 85.1144 91.7464C85.0067 91.679 84.8114 91.6353 84.7036 91.5679C84.3803 91.3692 84.0772 91.2581 83.754 91.0594C83.4509 90.9483 83.0401 90.7698 82.737 90.6587C81.8951 90.2175 81.0499 89.7764 80.1002 89.2679C79.8645 89.049 79.5614 88.9379 79.2348 88.7392C78.9317 88.6281 78.6084 88.4294 78.2818 88.2341C77.8508 87.9714 77.4163 87.7054 76.9853 87.4427C76.4229 87.0252 75.7562 86.5436 75.1062 86.1462C74.7628 85.86 74.3284 85.5973 73.9647 85.2235C73.7491 85.0922 73.51 84.8733 73.2945 84.7386C72.8635 84.476 72.5166 84.1897 72.1732 83.9035C71.8297 83.6173 71.4626 83.2468 71.1158 82.9606C70.8565 82.6541 70.5332 82.4555 70.2975 82.2366C69.9304 81.8628 69.5869 81.5799 69.3074 81.1859C68.9639 80.903 68.5969 80.5293 68.3174 80.1353C68.0581 79.8288 67.8022 79.5224 67.4553 79.2395C67.3913 78.9768 67.1556 78.758 66.9401 78.6266C66.5326 78.0811 66.1251 77.5356 65.8019 76.9665C65.6739 76.8149 65.5426 76.66 65.4146 76.5085C65.2866 76.3569 65.2227 76.0943 65.0947 75.9427C64.9027 75.5285 64.5357 75.1547 64.4111 74.6328C64.1754 74.4139 64.1989 74.131 64.0272 73.8044L64.007 73.7168C63.9666 73.5417 64.0306 73.434 64.0979 73.3262C64.1619 73.2184 64.2494 73.1982 64.3572 73.2622C64.3572 73.2622 64.4448 73.242 64.4246 73.1545C64.5997 73.114 64.7714 73.0703 64.8825 73.1376C64.9701 73.1174 65.0576 73.0972 65.1452 73.0736C65.7749 73.013 66.2969 72.8884 66.9266 72.8278C67.1017 72.7874 67.2735 72.7436 67.4688 72.7874C67.9234 72.7706 68.4453 72.6426 68.9033 72.6258C69.3377 72.5214 69.7957 72.5012 70.1426 72.4203L70.2301 72.4001L70.2099 72.3126L70.1021 72.2452C69.8664 72.0263 69.5836 72.0028 69.432 71.7603C69.4118 71.6728 69.3243 71.693 69.3243 71.693C69.2165 71.6256 69.1087 71.5616 69.0885 71.4741C69.0167 71.4292 68.9449 71.3854 68.873 71.3427C68.7855 71.3629 68.7653 71.2754 68.6575 71.2114C68.4218 70.9925 68.2029 70.8612 67.9874 70.7265C67.7718 70.5952 67.6203 70.3527 67.4048 70.2214C67.1893 70.09 66.9737 69.9553 66.7347 69.7398C66.4989 69.5209 66.1723 69.3222 65.9366 69.1034C65.6133 68.9047 65.2866 68.706 65.0307 68.3995C64.5559 67.9618 64.0171 67.6318 63.5625 67.2815C63.0001 66.864 62.5253 66.4262 62.0538 65.9884C61.8383 65.8571 61.7306 65.7897 61.6228 65.7258C61.3635 65.4193 61.148 65.288 60.9123 65.0691C60.5654 64.7829 60.3297 64.564 59.9862 64.2777C59.7505 64.0589 59.4912 63.7524 59.1679 63.5537C58.9322 63.3348 58.6055 63.1362 58.3496 62.8297C57.9623 62.3717 57.5077 62.0182 57.0363 61.5804C57.0161 61.4928 56.9083 61.4288 56.8006 61.3615C56.5211 60.9675 56.0698 60.6173 55.7028 60.2469C55.6623 60.0717 55.4435 59.9404 55.3155 59.7889C55.0562 59.4824 54.8878 59.1558 54.5645 58.9571C54.5241 58.782 54.4804 58.6103 54.5241 58.4149C54.5915 58.3072 54.743 58.1792 54.9181 58.1354C55.201 58.159 55.4603 58.095 55.6556 58.1422C55.7432 58.122 55.8307 58.1018 55.8307 58.1018C56.2011 58.1018 56.5682 58.1085 56.9588 58.1994C56.9588 58.1994 57.0464 58.1792 57.1339 58.159C57.4168 58.1826 57.7199 58.2937 58.0028 58.3173C58.3732 58.3173 58.6527 58.3442 58.9355 58.3678C59.306 58.3678 59.609 58.4823 59.9761 58.4856C60.0839 58.553 60.1714 58.5294 60.3465 58.4856C60.4543 58.553 60.5418 58.5294 60.6294 58.5092C60.9123 58.5328 61.1951 58.5564 61.4544 58.4958C61.4544 58.4958 61.5622 58.5631 61.542 58.4755C61.6295 58.4553 61.5218 58.388 61.5218 58.388C61.2861 58.1691 61.0672 58.0378 60.9392 57.8829C60.8112 57.7313 60.6799 57.5764 60.4846 57.5327C60.3768 57.4653 60.3566 57.3811 60.3566 57.3811C60.3364 57.2936 60.2489 57.3138 60.2287 57.2262C60.0131 57.0949 59.7741 56.876 59.5383 56.6571C59.3026 56.4382 59.0433 56.1318 58.8076 55.9129C58.4607 55.6266 58.1172 55.3438 57.8579 55.0373C57.5145 54.7511 57.1474 54.3807 56.8881 54.0742C56.6288 53.7678 56.3055 53.5691 56.0462 53.2627C55.9183 53.1111 55.6994 52.9764 55.5714 52.8249C55.4435 52.6734 55.2044 52.4511 55.0764 52.2996C54.8609 52.1682 54.7295 52.0133 54.6016 51.8618C54.3659 51.6429 54.2143 51.4038 53.9988 51.2725C53.9853 51.2141 53.9427 51.1636 53.8708 51.1209C53.5913 50.7269 53.1603 50.4643 52.9683 50.0501L52.8808 50.0703C52.709 49.7436 52.406 49.6325 52.2376 49.3059L52.2174 49.2183C52.0221 49.1745 51.9817 48.9994 51.8705 48.9321C51.8571 48.8737 51.8144 48.8232 51.7426 48.7805C51.5069 48.5617 51.3351 48.235 51.096 48.0161C50.729 47.6423 50.473 47.3359 50.1935 46.9453C50.042 46.7062 49.8063 46.4873 49.5705 46.2684C49.3988 45.9417 49.0755 45.7431 48.9038 45.4164L48.8836 45.3289C48.6243 45.0224 48.3684 44.716 48.1091 44.4095C47.9575 44.1704 47.8093 43.928 47.6814 43.7764C47.5534 43.6249 47.3345 43.4902 47.2941 43.3185C47.1426 43.0794 46.9069 42.8605 46.7587 42.618C46.6947 42.3554 46.459 42.1365 46.331 41.9849C46.0515 41.5909 45.8394 41.0926 45.4723 40.7188L45.4521 40.6312C45.3679 40.2844 45.4992 40.0655 45.6542 39.9375L45.6238 39.924Z" fill="#E3B82C"/>
</g>
<g style="mix-blend-mode:multiply">
<path d="M68.8108 121.782C98.1996 121.782 122.024 97.9574 122.024 68.5686C122.024 39.1798 98.1996 15.3555 68.8108 15.3555C39.422 15.3555 15.5977 39.1798 15.5977 68.5686C15.5977 97.9574 39.422 121.782 68.8108 121.782Z" stroke="#005990" stroke-width="0.953" stroke-miterlimit="10"/>
</g>
<g style="mix-blend-mode:multiply">
<path d="M42.6331 40.9348C42.7206 40.9146 42.8957 40.8708 42.9799 40.8506C43.1752 40.8944 43.3908 41.0291 43.6736 41.0526C43.8689 41.0964 44.1518 41.1234 44.4549 41.2345C44.9331 41.3052 45.4079 41.3725 45.8861 41.4433C46.0814 41.487 46.1891 41.5544 46.3643 41.514C46.6471 41.5376 46.8626 41.6689 47.1455 41.6925C47.3206 41.652 47.4924 41.6083 47.6001 41.6756C47.7079 41.743 47.9032 41.7867 47.9908 41.7665C48.0783 41.7463 48.1861 41.8103 48.2736 41.7901C48.3814 41.8575 48.5767 41.9012 48.6642 41.881C48.8394 41.8406 49.0347 41.881 49.23 41.9282C49.5331 42.0393 49.9675 41.9349 50.2907 42.1336C50.5534 42.0696 50.6612 42.1336 50.8565 42.1807C51.3145 42.1639 51.7017 42.2515 52.0722 42.2548C52.2675 42.2986 52.4426 42.2548 52.6379 42.302C52.7457 42.3693 52.941 42.4131 53.1161 42.3727L53.2036 42.3525C53.5943 42.4434 53.9613 42.4468 54.4395 42.5141C54.8301 42.6051 55.2847 42.5848 55.7629 42.6556C56.1333 42.6556 56.5004 42.6623 56.891 42.7532C57.0661 42.7128 57.1739 42.7768 57.349 42.7364C57.7161 42.7364 58.0191 42.8509 58.3694 42.7667C58.6724 42.8778 58.9351 42.8138 59.282 42.7296C59.4537 42.6892 59.8005 42.9721 59.841 43.1472C59.8814 43.3223 59.9049 43.4099 60.0329 43.5614C60.0733 43.7365 60.1171 43.9083 60.2451 44.0632C60.2855 44.2383 60.309 44.3225 60.3495 44.4976C60.501 44.7367 60.5616 44.9993 60.7131 45.2384C60.8849 45.5651 60.8815 45.9355 61.1408 46.2419L61.161 46.3295C61.225 46.5922 61.3967 46.9188 61.5449 47.1579C61.7167 47.4845 61.7806 47.7472 61.949 48.0739C62.1612 48.5756 62.3531 48.9898 62.6326 49.3838C62.7841 49.6229 62.8448 49.8856 62.9761 50.0371C62.9963 50.1247 63.0165 50.2122 63.1478 50.3638C63.2118 50.6264 63.4475 50.8453 63.5115 51.1046C63.6833 51.4312 63.9392 51.7377 64.1109 52.0643C64.1244 52.1227 64.1379 52.1811 64.1514 52.2394C64.2591 52.3068 64.3871 52.4583 64.4106 52.5459C64.4511 52.721 64.5824 52.8725 64.6228 53.0476C64.7306 53.1116 64.8383 53.179 64.8821 53.3541C65.0538 53.6807 65.3098 53.9872 65.4815 54.3138C65.697 54.4452 65.7408 54.6203 65.7812 54.792C65.9092 54.9435 65.953 55.1187 66.0607 55.186C66.1887 55.3375 66.2964 55.4049 66.3402 55.58C66.4682 55.7315 66.4918 55.8191 66.5961 55.8864C66.8319 56.1053 66.9834 56.3444 67.1349 56.5869C67.3067 56.9135 67.5626 57.22 67.8017 57.4389C68.0812 57.8329 68.4483 58.2033 68.812 58.5771C68.8524 58.7522 68.9635 58.8162 69.0713 58.8835C69.2228 59.1226 69.4383 59.2573 69.5865 59.4964C69.7818 59.5402 69.8458 59.8028 70.0613 59.9342C70.1893 60.0857 70.2128 60.1733 70.297 60.1531C70.3689 60.198 70.4115 60.2485 70.425 60.3046C70.6607 60.5235 70.8796 60.6548 71.1153 60.8737L71.1355 60.9613C71.2433 61.0286 71.351 61.0926 71.4588 61.1599C71.7181 61.4664 71.9538 61.6853 72.2569 61.7964C72.4724 61.9277 72.6038 62.0826 72.7317 62.2342C72.9674 62.4531 72.9674 62.8235 72.6374 62.9919C72.3748 63.0558 72.1155 63.1164 71.8562 63.1804C71.5093 63.2646 71.1591 63.3488 70.8762 63.3252C70.4418 63.4296 70.095 63.5138 69.6572 63.6182C69.2868 63.6182 68.9399 63.699 68.6773 63.763C68.3102 63.763 68.0475 63.8236 67.7849 63.8842C67.6973 63.9044 67.5896 63.8405 67.6098 63.9246C67.6098 63.9246 67.63 64.0122 67.7175 63.992C67.9768 64.2984 68.2327 64.6049 68.5796 64.8878C68.8153 65.1066 69.0544 65.3255 69.3777 65.5242C69.7448 65.8946 70.1084 66.2684 70.5429 66.5311C70.8661 66.7298 71.1052 66.9487 71.341 67.1675C71.6878 67.4538 72.0313 67.7367 72.3781 68.0229C72.4859 68.0902 72.6374 68.3293 72.8327 68.3731C73.156 68.5718 73.3278 68.8984 73.6511 69.0971C73.9541 69.2082 74.1057 69.4473 74.3212 69.582C75.0115 70.1511 75.7019 70.7236 76.4797 71.2725L76.5875 71.3399C76.5875 71.3399 76.6077 71.4274 76.6953 71.4072C76.931 71.6261 77.1499 71.7574 77.3856 71.9763C77.6213 72.1952 77.8604 72.4141 78.1635 72.5252C78.3992 72.7441 78.6147 72.8754 78.8538 73.0943C79.1771 73.293 79.524 73.5759 79.8674 73.8621C80.2143 74.1484 80.5376 74.347 80.8811 74.6299C81.4434 75.0475 82.0024 75.465 82.585 75.9668C82.8005 76.0981 82.9049 76.5325 82.6658 76.6841C82.5143 76.812 82.3392 76.8558 82.1641 76.8962C81.9688 76.8525 81.7936 76.8962 81.5343 76.9568C81.3626 76.9973 81.1201 77.1488 80.945 77.1892C80.6622 77.1656 80.3153 77.2498 80.0527 77.3138C79.5307 77.4384 79.0087 77.5664 78.3992 77.7112C77.7695 77.7718 77.0724 77.9402 76.4629 78.085C76.0285 78.1894 75.5941 78.2937 75.1563 78.4015C74.7185 78.5093 74.3077 78.6978 73.8295 78.6305C73.6544 78.6709 73.5669 78.6945 73.6982 78.846C73.7184 78.9336 73.7386 79.0211 73.7622 79.1087C74.1494 79.5667 74.4694 80.1358 74.8566 80.5937C74.8701 80.6521 74.906 80.6746 74.9644 80.6611C75.0721 80.7284 75.0923 80.8126 75.1361 80.9877C75.1563 81.0753 75.2641 81.1393 75.2877 81.2268C75.4156 81.3784 75.6547 81.6006 75.7827 81.7522C75.9342 81.9912 75.9746 82.1664 76.1901 82.2977C76.2979 82.365 76.4259 82.5166 76.5572 82.6715C76.6852 82.823 76.8165 82.9779 76.9647 83.217C76.9849 83.3046 77.0926 83.3719 77.2004 83.4359L77.3081 83.5033C77.5001 83.9175 77.8234 84.1161 78.0827 84.4226C78.342 84.729 78.6855 85.0153 78.965 85.4059C79.0727 85.4732 79.2882 85.6046 79.4196 85.7561C79.6991 86.1501 80.1503 86.5003 80.5174 86.8741C80.6453 87.0257 80.8406 87.0728 80.8844 87.2479L80.9922 87.3153C81.0999 87.3826 81.2077 87.4466 81.339 87.6015L81.3592 87.689C81.898 88.0191 82.3729 88.4568 82.8477 88.8946C83.1945 89.1808 83.538 89.4637 83.8849 89.7499C84.3395 90.1002 84.7907 90.4538 85.2218 90.7164C85.3295 90.7838 85.4575 90.9353 85.5686 91.0027C85.9996 91.2653 86.4543 91.6189 86.8853 91.8816C87.5554 92.3665 88.3299 92.9154 89.0876 93.3767C89.6264 93.7068 90.1686 94.0368 90.795 94.3466C91.0105 94.4779 91.3338 94.6766 91.5526 94.8079C91.8759 95.0066 92.2868 95.1851 92.61 95.3804C92.6819 95.423 92.7245 95.4736 92.738 95.5319C92.866 95.6835 92.8424 95.9663 92.7111 96.1819C92.6527 96.1953 92.5943 96.2088 92.536 96.2223C92.4484 96.2425 92.3608 96.2627 92.2733 96.2863C92.2733 96.2863 92.1857 96.3065 92.1655 96.2189C91.8827 96.1953 91.5796 96.0842 91.3001 96.0606C90.8892 95.8822 90.4784 95.7071 90.0002 95.6397C89.9419 95.6532 89.9059 95.6307 89.8925 95.5723C89.7847 95.505 89.6972 95.5286 89.6096 95.5488C89.5378 95.5039 89.4726 95.4893 89.4143 95.505C89.1786 95.2861 88.9159 95.3501 88.7004 95.2154C88.3973 95.1043 88.202 95.0605 87.8989 94.9494C87.5958 94.8382 87.1176 94.7709 86.7944 94.5722C86.7742 94.4846 86.6866 94.5049 86.6866 94.5049C86.296 94.4139 85.9727 94.2152 85.5821 94.1277C85.1914 94.0368 84.8682 93.8381 84.4775 93.7505C84.262 93.6192 84.0667 93.5721 83.7636 93.4643C83.5481 93.333 83.3326 93.1983 83.1373 93.1545C82.7466 93.0636 82.5109 92.8447 82.1203 92.7538C82.0125 92.6864 81.8172 92.6426 81.7095 92.5753C81.3862 92.3766 81.0831 92.2655 80.7598 92.0668C80.4568 91.9557 80.0459 91.7772 79.7428 91.666C78.901 91.2249 78.0557 90.7838 77.1061 90.2753C76.8704 90.0564 76.5673 89.9453 76.2406 89.7466C75.9376 89.6355 75.6143 89.4368 75.2877 89.2415C74.8566 88.9788 74.4222 88.7128 73.9912 88.4501C73.4288 88.0325 72.762 87.551 72.1121 87.1536C71.7686 86.8674 71.3342 86.6047 70.9705 86.2309C70.755 86.0996 70.5159 85.8807 70.3004 85.746C69.8694 85.4833 69.5225 85.1971 69.179 84.9109C68.8355 84.6246 68.4685 84.2542 68.1216 83.968C67.8623 83.6615 67.539 83.4628 67.3033 83.244C66.9363 82.8702 66.5928 82.5873 66.3133 82.1933C65.9698 81.9104 65.6027 81.5366 65.3232 81.1426C65.0639 80.8362 64.808 80.5298 64.4612 80.2469C64.3972 79.9842 64.1615 79.7653 63.9459 79.634C63.5385 79.0885 63.131 78.5429 62.8077 77.9738C62.6798 77.8223 62.5484 77.6674 62.4205 77.5159C62.2925 77.3643 62.2285 77.1016 62.1005 76.9501C61.9086 76.5359 61.5415 76.1621 61.4169 75.6402C61.1812 75.4213 61.2048 75.1384 61.0331 74.8118L61.0128 74.7242C60.9724 74.5491 61.0364 74.4413 61.1038 74.3336C61.1678 74.2258 61.2553 74.2056 61.3631 74.2696C61.3631 74.2696 61.4506 74.2494 61.4304 74.1618C61.6055 74.1214 61.7773 74.0776 61.8884 74.145L62.1511 74.081C62.7808 74.0204 63.3027 73.8958 63.9325 73.8352C64.1076 73.7948 64.2793 73.751 64.4746 73.7948C64.9292 73.7779 65.4512 73.65 65.9092 73.6331C66.3436 73.5287 66.8016 73.5085 67.1484 73.4277L67.236 73.4075L67.2158 73.32L67.108 73.2526C66.8723 73.0337 66.5894 73.0101 66.4379 72.7677C66.4177 72.6801 66.3301 72.7003 66.3301 72.7003C66.2224 72.633 66.1146 72.569 66.0944 72.4814C66.0226 72.4365 65.9507 72.3928 65.8789 72.3501C65.7913 72.3703 65.7711 72.2828 65.6634 72.2188C65.4276 71.9999 65.2087 71.8686 64.9932 71.7339C64.7777 71.6025 64.6262 71.3601 64.4106 71.2287C64.1951 71.0974 63.9796 70.9627 63.7405 70.7472C63.5048 70.5283 63.1781 70.3296 62.9424 70.1107C62.6191 69.912 62.2925 69.7134 62.0366 69.4069C61.5617 68.9692 61.0229 68.6391 60.5683 68.2889C60.006 67.8713 59.5312 67.4336 59.0597 66.9958C58.8442 66.8645 58.7364 66.7971 58.6287 66.7331C58.3694 66.4267 58.1538 66.2954 57.9181 66.0765C57.5713 65.7902 57.3355 65.5714 56.9921 65.2851C56.7563 65.0662 56.497 64.7598 56.1738 64.5611C55.938 64.3422 55.6114 64.1435 55.3555 63.8371C54.9682 63.3791 54.5136 63.0255 54.0421 62.5878C54.0219 62.5002 53.9142 62.4362 53.8064 62.3689C53.5269 61.9749 53.0757 61.6246 52.7086 61.2542C52.6682 61.0791 52.4493 60.9478 52.3213 60.7962C52.062 60.4898 51.8937 60.1632 51.5704 59.9645C51.53 59.7894 51.4862 59.6176 51.53 59.4223C51.5973 59.3146 51.7489 59.1866 51.924 59.1428C52.2069 59.1664 52.4662 59.1024 52.6615 59.1495L52.8366 59.1091C53.207 59.1091 53.5741 59.1159 53.9647 59.2068L54.1398 59.1664C54.4227 59.19 54.7257 59.3011 55.0086 59.3247C55.379 59.3247 55.6585 59.3516 55.9414 59.3752C56.3118 59.3752 56.6149 59.4897 56.982 59.493C57.0897 59.5604 57.1773 59.5368 57.3524 59.493C57.4601 59.5604 57.5477 59.5368 57.6353 59.5166C57.9181 59.5402 58.201 59.5637 58.4603 59.5031C58.4603 59.5031 58.568 59.5705 58.5478 59.4829C58.6354 59.4627 58.5276 59.3954 58.5276 59.3954C58.2919 59.1765 58.073 59.0452 57.9451 58.8902C57.8171 58.7387 57.6858 58.5838 57.4904 58.54C57.3827 58.4727 57.3625 58.3885 57.3625 58.3885C57.3423 58.3009 57.2547 58.3211 57.2345 58.2336C57.019 58.1023 56.7799 57.8834 56.5442 57.6645C56.3085 57.4456 56.0492 57.1391 55.8134 56.9203C55.4666 56.634 55.1231 56.3512 54.8638 56.0447C54.5203 55.7585 54.1533 55.3881 53.894 55.0816C53.6347 54.7752 53.3114 54.5765 53.0521 54.27C52.9241 54.1185 52.7052 53.9838 52.5773 53.8323C52.4493 53.6807 52.2102 53.4585 52.0823 53.3069C51.8667 53.1756 51.7354 53.0207 51.6074 52.8692C51.3717 52.6503 51.2202 52.4112 51.0047 52.2799C50.9912 52.2215 50.9485 52.171 50.8767 52.1283C50.5972 51.7343 50.1662 51.4717 49.9742 51.0575L49.8867 51.0777C49.7149 50.751 49.4118 50.6399 49.2435 50.3132L49.2233 50.2257C49.0279 50.1819 48.9875 50.0068 48.8764 49.9395C48.8629 49.8811 48.8203 49.8306 48.7484 49.7879C48.5127 49.569 48.341 49.2424 48.1019 49.0235C47.7348 48.6497 47.4789 48.3433 47.1994 47.9526C47.0479 47.7135 46.8121 47.4946 46.5764 47.2758C46.4047 46.9491 46.0814 46.7504 45.9096 46.4238L45.8894 46.3362C45.6301 46.0298 45.3742 45.7233 45.1149 45.4169C44.9634 45.1778 44.8152 44.9354 44.6872 44.7838C44.5593 44.6323 44.3404 44.4976 44.3 44.3258C44.1484 44.0867 43.9127 43.8679 43.7646 43.6254C43.7006 43.3627 43.4648 43.1438 43.3369 42.9923C43.0574 42.5983 42.8452 42.0999 42.4782 41.7261L42.458 41.6386C42.3738 41.2917 42.5051 41.0728 42.66 40.9449L42.6331 40.9348Z" fill="#D45027"/>
</g>
<g style="mix-blend-mode:multiply">
<path d="M9.01928 43.8901L17.1855 46.7996L16.5187 48.6719L14.7339 48.0355L13.9661 50.1873L15.7509 50.8238L15.0841 52.6994L6.91797 49.7899L7.58473 47.9142L12.3497 49.6115L13.1175 47.4596L8.35589 45.7624L9.02265 43.8867L9.01928 43.8901Z" fill="#D45027"/>
<path d="M20.2063 40.7854L19.2533 40.5598L17.8389 43.2269L18.5595 43.8903L17.5897 45.7222L11.0332 39.6068L12.4341 36.96L21.1761 38.9501L20.2063 40.7821V40.7854ZM16.5593 42.028L17.5392 40.1759L13.5925 39.2768L16.5593 42.028Z" fill="#D45027"/>
<path d="M22.0179 34.549L21.4859 35.2832L23.0282 36.4012L21.8597 38.0108L14.8418 32.9259L15.2055 32.4275L16.6939 30.37C16.9162 30.0231 17.1788 29.747 17.4785 29.5382C17.7783 29.3294 18.0982 29.1914 18.4315 29.1206C18.7649 29.0499 19.0983 29.0466 19.4351 29.1072C19.7718 29.1678 20.0816 29.289 20.3712 29.4709L21.7519 30.471C22.092 30.7168 22.3547 31.0165 22.5399 31.3735C22.7251 31.7304 22.8194 32.1143 22.8228 32.5285L25.6279 32.8148L24.2674 34.6938L22.0179 34.549ZM19.3273 31.1714C19.233 31.1007 19.1252 31.0569 19.0108 31.0367C18.8929 31.0165 18.7784 31.0165 18.6639 31.0367C18.5494 31.0569 18.4383 31.094 18.3373 31.1546C18.2362 31.2152 18.1487 31.2927 18.0813 31.387L17.4045 32.3231L20.0985 34.2763L20.7753 33.3401C20.9168 33.1482 20.9673 32.9259 20.9302 32.6733C20.8932 32.4208 20.7821 32.2255 20.5901 32.0874L19.3273 31.1748V31.1714Z" fill="#D45027"/>
<path d="M28.6516 26.0463C28.8874 26.2921 29.0692 26.5615 29.1972 26.8579C29.3251 27.1542 29.3891 27.4606 29.3857 27.7873C29.3857 28.1106 29.3117 28.4406 29.1702 28.7807C29.0288 29.1174 28.8133 29.4475 28.5203 29.7674L27.6582 30.6766L27.3147 31.0403L26.291 32.1213L20.0039 26.1541L21.0276 25.0731L21.3711 24.7094L22.2332 23.8002C22.5464 23.4803 22.8764 23.2412 23.2199 23.0863C23.5633 22.9314 23.9035 22.8472 24.2335 22.8371C24.5635 22.827 24.8868 22.8842 25.1966 23.0088C25.5064 23.1368 25.7893 23.3186 26.0486 23.5645L28.6584 26.0429L28.6516 26.053V26.0463ZM27.2137 28.6426C27.3753 28.4709 27.4562 28.2587 27.4494 28.0062C27.4461 27.7536 27.3551 27.5448 27.1834 27.3832L24.6746 25.0024C24.5029 24.8407 24.2907 24.7633 24.0382 24.77C23.7856 24.7801 23.5768 24.8677 23.4152 25.0394L22.6137 25.8847L26.4089 29.4879L27.2103 28.6426H27.2137Z" fill="#D45027"/>
<path d="M35.4812 18.0282C35.8617 17.9878 36.2322 18.045 36.5992 18.1966C36.9629 18.3481 37.266 18.5906 37.5051 18.924L37.7879 19.3179C37.9631 19.5604 38.0809 19.8264 38.1415 20.1059C38.2021 20.3888 38.2089 20.6683 38.1651 20.9411C38.118 21.2172 38.0237 21.4765 37.8721 21.7257C37.724 21.9715 37.5253 22.1837 37.2828 22.3588L33.8513 24.8103L31.6423 21.719L31.0294 20.8603L28.8203 17.7689L31.7635 15.6676C32.006 15.4925 32.272 15.3746 32.5549 15.314C32.8377 15.25 33.1206 15.2433 33.3934 15.2904C33.6695 15.3376 33.9288 15.4352 34.1746 15.5834C34.4205 15.7316 34.6326 15.9303 34.8077 16.1727L35.0906 16.5667C35.2522 16.7923 35.3634 17.0314 35.4273 17.2806C35.4913 17.5332 35.5082 17.7824 35.4846 18.0316L35.4812 18.0282ZM32.5145 19.52L33.4776 18.833C33.6257 18.7286 33.7133 18.5906 33.7436 18.4188C33.7705 18.2471 33.7335 18.0888 33.6291 17.9406L33.2789 17.449C33.1778 17.3076 33.0398 17.22 32.868 17.1897C32.6963 17.1594 32.5347 17.1964 32.3865 17.3008L31.4234 17.9878L32.5178 19.52H32.5145ZM35.7169 19.8466C35.6159 19.7052 35.4812 19.621 35.3095 19.5907C35.1377 19.5604 34.9761 19.5975 34.8279 19.7018L33.3833 20.7357L34.471 22.2578L35.9156 21.224C36.0638 21.1196 36.1513 20.9815 36.1817 20.8097C36.212 20.6414 36.1715 20.4797 36.0672 20.3349L35.7169 19.8466Z" fill="#D45027"/>
<path d="M44.5726 18.126L43.9159 17.3986L41.2354 18.7928L41.4509 19.7491L39.6123 20.7055L37.6895 11.95L40.3464 10.5693L46.4079 17.173L44.5692 18.1294L44.5726 18.126ZM40.865 17.0787L42.7239 16.1122L39.9861 13.132L40.865 17.0787Z" fill="#D45027"/>
<path d="M49.811 14.2292C49.8951 14.1484 49.9625 14.0541 50.013 13.9497C50.0635 13.8453 50.0938 13.7308 50.1073 13.613C50.1208 13.4951 50.1073 13.3806 50.0669 13.2695L51.9392 12.596C52.0604 12.9294 52.1143 13.2661 52.1009 13.6062C52.0874 13.9463 52.0099 14.2696 51.8618 14.5727C51.7136 14.8758 51.4947 15.1553 51.2017 15.4078C50.9088 15.6604 50.5451 15.8658 50.1039 16.0241L49.848 16.115C49.4102 16.2733 48.996 16.3474 48.6121 16.3406C48.2282 16.3339 47.8814 16.2564 47.5749 16.115C47.2685 15.9736 47.0025 15.7749 46.7735 15.5223C46.5479 15.2664 46.3761 14.9734 46.2549 14.64L44.9416 11.0234H44.9517C44.8506 10.6933 44.8136 10.3701 44.8405 10.0401C44.8675 9.7134 44.9517 9.40023 45.1032 9.10725C45.2547 8.81428 45.4736 8.54825 45.7632 8.30916C46.0528 8.07007 46.4098 7.87475 46.8341 7.72322L47.09 7.63229C47.5278 7.47402 47.942 7.39994 48.3259 7.40667C48.7098 7.41341 49.0566 7.49086 49.3631 7.63229C49.6695 7.77373 49.9356 7.97241 50.1645 8.22497C50.3902 8.4809 50.5619 8.77387 50.6831 9.10725L48.8108 9.78075C48.73 9.5585 48.5751 9.39349 48.3427 9.2891C48.1104 9.18471 47.8848 9.17124 47.6625 9.25206L47.4066 9.34298C47.1843 9.4238 47.0159 9.5787 46.9048 9.80769C46.7937 10.0367 46.7768 10.2623 46.8577 10.4846L48.1104 13.9733C48.1508 14.0844 48.2114 14.1821 48.2922 14.2663C48.373 14.3504 48.4673 14.4178 48.5717 14.4683C48.6761 14.5188 48.7906 14.5458 48.9118 14.5525C49.0331 14.5592 49.1476 14.5424 49.2587 14.502L49.5146 14.4111C49.6257 14.3706 49.7234 14.31 49.8076 14.2292H49.811Z" fill="#D45027"/>
<path d="M56.7065 9.08733L60.1043 13.2125L57.8615 13.7075L55.9387 11.2695L55.5817 12.2831L55.9892 14.1217L54.0462 14.5494L52.1738 6.08689L54.1169 5.65922L54.7937 8.72364L55.9892 5.24502L58.2319 4.75L56.7065 9.0907V9.08733Z" fill="#D45027"/>
<path d="M67.3775 11.0169C67.4819 10.9664 67.5761 10.8991 67.657 10.8115C67.7378 10.7273 67.8018 10.6297 67.8489 10.5219C67.8961 10.4142 67.9196 10.2997 67.9163 10.1818L69.9064 10.1178C69.9166 10.4714 69.866 10.8115 69.7482 11.1314C69.6303 11.4513 69.4552 11.7342 69.2228 11.9767C68.9905 12.2225 68.6942 12.4178 68.3406 12.5694C67.987 12.7175 67.5761 12.8017 67.1081 12.8152L66.8353 12.8253C66.3706 12.8388 65.953 12.7849 65.5893 12.6569C65.2256 12.5289 64.9192 12.3538 64.67 12.1248C64.4208 11.8959 64.2289 11.6265 64.0908 11.3133C63.9527 11.0035 63.8786 10.6701 63.8685 10.3131L63.7305 6.46746H63.7439C63.7473 6.12734 63.8147 5.80406 63.9393 5.50099C64.0638 5.19791 64.2423 4.92851 64.4781 4.69616C64.7138 4.4638 65.0034 4.27859 65.3502 4.14052C65.6971 4.00245 66.0978 3.925 66.5491 3.91153L66.8218 3.90143C67.2899 3.88796 67.7041 3.94184 68.0678 4.0698C68.4315 4.19777 68.7379 4.37288 68.9871 4.60187C69.2363 4.83086 69.4283 5.10026 69.5663 5.41343C69.7044 5.72324 69.7785 6.05662 69.7886 6.41358L67.7984 6.47756C67.7917 6.24184 67.694 6.03642 67.5054 5.86468C67.3169 5.69293 67.1081 5.61211 66.869 5.61885L66.5962 5.62895C66.3605 5.63569 66.1551 5.73334 65.9766 5.91519C65.8015 6.1004 65.7173 6.30919 65.724 6.54491L65.8453 10.2492C65.8486 10.367 65.8756 10.4781 65.9261 10.5859C65.9766 10.6903 66.0439 10.7846 66.1315 10.862C66.219 10.9395 66.3167 11.0035 66.4278 11.0472C66.539 11.091 66.6535 11.1112 66.7747 11.1079L67.0475 11.0978C67.1653 11.0944 67.2764 11.0675 67.3808 11.0169H67.3775Z" fill="#D45027"/>
<path d="M77.5546 10.896C77.5041 11.2327 77.3997 11.5425 77.2414 11.8288C77.0832 12.115 76.8676 12.3541 76.6016 12.5494C76.3356 12.7447 76.0258 12.8895 75.6654 12.9838C75.3051 13.0781 74.9044 13.1051 74.4565 13.0579L74.1736 13.031C73.7089 12.9838 73.3082 12.8761 72.9647 12.701C72.6212 12.5259 72.3417 12.3103 72.1262 12.051C71.9107 11.7917 71.7558 11.4988 71.6615 11.1721C71.5672 10.8455 71.5369 10.5054 71.5739 10.1518L72.1936 3.98926L74.1736 4.18794L73.5641 10.3505C73.554 10.4683 73.5641 10.5828 73.6012 10.6939C73.6382 10.8051 73.6921 10.9061 73.7662 10.997C73.8403 11.0879 73.9278 11.162 74.0288 11.2193C74.1299 11.2765 74.2376 11.3102 74.3555 11.3237L74.635 11.3506C74.7529 11.3641 74.8673 11.3506 74.9751 11.3136C75.0862 11.2765 75.1839 11.2226 75.2748 11.1485C75.3657 11.0745 75.4398 10.9869 75.4971 10.8859C75.5543 10.7849 75.588 10.6737 75.6015 10.5559L76.2211 4.39336L78.2012 4.59204L77.5681 10.896H77.5546Z" fill="#D45027"/>
<path d="M84.0473 9.50461C84.3335 9.71676 84.5693 9.97269 84.7545 10.2657C84.9397 10.562 85.0643 10.8853 85.1283 11.2355C85.1923 11.5857 85.1788 11.946 85.0946 12.3165C85.0104 12.6768 84.8589 13.0034 84.6467 13.293C84.4312 13.5826 84.1753 13.8184 83.8789 14.0002C83.5792 14.1821 83.256 14.3033 82.9057 14.3673C82.5555 14.4313 82.1952 14.4178 81.8248 14.3302L81.2355 14.1922C80.8684 14.1046 80.5384 13.9564 80.2521 13.7409C79.9659 13.5288 79.7302 13.2728 79.5483 12.9799C79.3665 12.6869 79.2453 12.3602 79.1813 12.0067C79.1207 11.6531 79.1308 11.2928 79.215 10.9324L80.9896 11.35C80.9324 11.5891 80.9694 11.8113 81.094 12.0201C81.2186 12.2289 81.4038 12.3602 81.6497 12.4175L82.239 12.5556C82.4848 12.6128 82.7138 12.5791 82.9226 12.4478C83.1314 12.3198 83.2627 12.1346 83.3199 11.8955C83.3772 11.6497 83.3435 11.4207 83.2122 11.2119C83.0808 11.0031 82.8956 10.8684 82.6498 10.8112L82.0605 10.6731C81.6934 10.5856 81.3634 10.4408 81.0738 10.2387C80.7842 10.0367 80.5485 9.79758 80.3599 9.51808C80.1713 9.23858 80.0467 8.92877 79.9827 8.58865C79.9154 8.24854 79.9289 7.89495 80.0131 7.52453C80.0972 7.1642 80.2488 6.83756 80.4609 6.54795C80.6765 6.25835 80.929 6.02262 81.222 5.84078C81.515 5.65893 81.8382 5.53434 82.1918 5.47372C82.542 5.40974 82.9024 5.42321 83.2728 5.5074L83.8621 5.64547C84.2325 5.73302 84.5592 5.88119 84.8454 6.09671C85.1316 6.30886 85.3674 6.56479 85.5526 6.86113C85.7378 7.15747 85.8624 7.48075 85.9264 7.8377C85.987 8.19466 85.9769 8.55161 85.8927 8.91193L84.118 8.49436C84.1753 8.25527 84.1382 8.03302 84.0069 7.82423C83.8789 7.61545 83.6904 7.48075 83.4445 7.4235L82.8552 7.28543C82.6094 7.22819 82.3838 7.26523 82.1784 7.39319C81.9729 7.52453 81.8416 7.70637 81.7877 7.94546C81.7305 8.19129 81.7675 8.40007 81.9022 8.56845C82.0369 8.73682 82.2255 8.85132 82.4713 8.90857L83.0606 9.04663C83.4311 9.13419 83.7577 9.28236 84.0439 9.49788L84.0473 9.50461Z" fill="#D45027"/>
<path d="M92.9279 10.4879L91.1667 9.85143L88.8196 16.344L86.9473 15.6671L89.2944 9.17456L87.5366 8.5381L88.136 6.87793L93.5273 8.82771L92.9279 10.4879Z" fill="#D45027"/>
<path d="M97.6387 17.8533C97.4737 18.1496 97.2616 18.4022 97.009 18.611C96.7531 18.8197 96.4668 18.9679 96.1503 19.0555C95.8337 19.143 95.4903 19.1666 95.1198 19.1296C94.7494 19.0891 94.3655 18.9713 93.9614 18.7692L93.7089 18.6413C93.2913 18.4325 92.9545 18.1867 92.6953 17.9004C92.436 17.6175 92.2507 17.3145 92.143 16.9946C92.0352 16.6746 91.9948 16.3446 92.0218 16.0079C92.0487 15.6678 92.143 15.3411 92.3013 15.0212L94.0254 11.5796C94.1904 11.2833 94.4026 11.0307 94.6551 10.8219C94.9077 10.6132 95.1939 10.465 95.5105 10.3707C95.827 10.2764 96.1705 10.2528 96.5409 10.2966C96.9113 10.3404 97.2986 10.465 97.6993 10.667L97.9553 10.795C98.3728 11.0038 98.7096 11.2496 98.9689 11.5359C99.2282 11.8187 99.4134 12.1218 99.5212 12.4417C99.6289 12.7616 99.6693 13.0916 99.6424 13.4284C99.6155 13.7685 99.5212 14.0951 99.3629 14.4117L97.6387 17.8533ZM94.7326 17.2303C94.837 17.2842 94.9481 17.3145 95.066 17.3178C95.1838 17.3246 95.295 17.3077 95.4061 17.2707C95.5172 17.2337 95.6182 17.1798 95.7092 17.1057C95.8001 17.0316 95.8708 16.9407 95.9247 16.8363L97.5848 13.5227C97.6892 13.3105 97.7027 13.0849 97.6253 12.8458C97.5444 12.6067 97.3996 12.435 97.1875 12.3306L96.9349 12.2026C96.8305 12.1487 96.7194 12.1218 96.6015 12.1151C96.4837 12.1083 96.3726 12.1252 96.2614 12.1622C96.1503 12.1993 96.0493 12.2565 95.9584 12.3306C95.8674 12.4047 95.7967 12.4956 95.7428 12.6L94.0827 15.9136C94.0288 16.018 94.0018 16.1291 93.9951 16.247C93.9884 16.3648 94.0052 16.476 94.0423 16.5871C94.0793 16.6982 94.1365 16.7992 94.2106 16.8902C94.2847 16.9811 94.3756 17.0518 94.48 17.1057L94.7326 17.2337V17.2303Z" fill="#D45027"/>
<path d="M108.697 17.6308L103.747 24.7463L102.114 23.6081L103.589 21.4731L101.37 23.0895L100.137 22.2341L100.881 19.5502L99.3793 21.7088L97.7461 20.5706L102.7 13.4551L104.333 14.5933L102.676 19.9038L107.064 16.4926L108.697 17.6308Z" fill="#D45027"/>
<path d="M110.806 28.8206L110.183 28.164L108.799 29.4739L107.432 28.0293L113.722 22.0654L114.146 22.5133L115.894 24.3553C116.194 24.6382 116.419 24.9446 116.568 25.278C116.716 25.6114 116.793 25.9481 116.803 26.2916C116.81 26.6318 116.753 26.9618 116.632 27.2817C116.51 27.5982 116.332 27.8845 116.103 28.1337L114.867 29.3055C114.564 29.5951 114.221 29.7972 113.837 29.9151C113.453 30.0329 113.059 30.0531 112.651 29.979L111.853 32.6865L110.257 31.0028L110.813 28.8173L110.806 28.8206ZM114.618 26.7968C114.702 26.7159 114.766 26.6183 114.81 26.5105C114.85 26.3994 114.874 26.2849 114.877 26.167C114.877 26.0492 114.86 25.9347 114.823 25.8269C114.786 25.7192 114.722 25.6181 114.641 25.5306L113.847 24.6921L111.432 26.982L112.227 27.8205C112.392 27.9922 112.601 28.0865 112.853 28.0966C113.106 28.1067 113.318 28.0326 113.49 27.8676L114.621 26.7968H114.618Z" fill="#D45027"/>
<path d="M112.4 33.5421L119.257 28.2383L120.472 29.8109L113.616 35.1147L112.4 33.5421Z" fill="#D45027"/>
<path d="M120.045 40.4186C119.749 40.587 119.443 40.6947 119.123 40.7419C118.806 40.7924 118.49 40.7756 118.176 40.6914C117.863 40.6072 117.56 40.4556 117.27 40.2334C116.978 40.0111 116.715 39.7182 116.479 39.3578L115.816 38.2971L115.55 37.8728L114.762 36.61L122.116 32.0234L122.904 33.2862L123.17 33.7106L123.834 34.7713C124.063 35.1552 124.211 35.5357 124.278 35.9062C124.342 36.2799 124.339 36.6268 124.265 36.9501C124.194 37.2734 124.056 37.5697 123.857 37.8391C123.659 38.1085 123.406 38.3375 123.106 38.5227L120.052 40.4287L120.045 40.4186ZM117.893 38.3779C118.018 38.5766 118.203 38.7079 118.449 38.7652C118.695 38.8258 118.921 38.7921 119.119 38.6675L122.052 36.839C122.254 36.7144 122.382 36.5291 122.436 36.2799C122.49 36.0341 122.456 35.8085 122.332 35.6098L121.716 34.6198L117.274 37.3879L117.89 38.3779H117.893Z" fill="#D45027"/>
<path d="M125.707 41.843L124.202 42.5367L125.232 44.7727L123.673 45.49L122.642 43.254L120.955 44.0319L122.205 46.7427L120.646 47.46L118.564 42.9442L126.438 39.3174L126.694 39.873L127.269 41.1224L128.519 43.8332L126.96 44.5505L125.71 41.8396L125.707 41.843Z" fill="#D45027"/>
<path d="M127.312 51.3094C127.275 51.663 127.181 51.9964 127.023 52.3095C126.865 52.6227 126.652 52.8955 126.383 53.1312C126.114 53.3669 125.8 53.542 125.44 53.6565C125.087 53.771 124.73 53.8081 124.373 53.7744C124.012 53.7407 123.679 53.6431 123.369 53.4781C123.059 53.3164 122.787 53.1009 122.554 52.8315C122.318 52.5621 122.143 52.2489 122.029 51.8886L121.844 51.3128C121.729 50.9524 121.689 50.5921 121.722 50.2385C121.759 49.885 121.854 49.5516 122.015 49.2451C122.174 48.9387 122.389 48.6659 122.662 48.4302C122.935 48.1945 123.248 48.0194 123.601 47.9049L124.157 49.6425C123.925 49.7166 123.75 49.8614 123.639 50.0769C123.524 50.2924 123.507 50.518 123.585 50.7605L123.77 51.3363C123.847 51.5754 123.995 51.7539 124.214 51.865C124.433 51.9762 124.659 51.9964 124.891 51.9223C125.13 51.8448 125.309 51.6967 125.42 51.4778C125.531 51.2589 125.551 51.0299 125.474 50.7908L125.289 50.215C125.174 49.8546 125.127 49.4977 125.151 49.1475C125.174 48.7972 125.258 48.4672 125.403 48.1642C125.548 47.8611 125.747 47.5951 126.006 47.3627C126.262 47.1303 126.572 46.9586 126.932 46.8407C127.286 46.7262 127.642 46.6892 127.999 46.7229C128.36 46.7565 128.693 46.8542 129 47.0125C129.306 47.1708 129.579 47.3863 129.815 47.6523C130.05 47.9183 130.225 48.2349 130.34 48.5952L130.525 49.171C130.64 49.5314 130.68 49.8917 130.646 50.2453C130.613 50.5989 130.515 50.9356 130.357 51.2454C130.198 51.5552 129.983 51.8314 129.713 52.0671C129.441 52.3028 129.128 52.4779 128.774 52.5924L128.218 50.8548C128.451 50.7807 128.622 50.6325 128.737 50.417C128.848 50.1981 128.868 49.9691 128.791 49.73L128.606 49.1542C128.528 48.9151 128.38 48.74 128.164 48.6289C127.949 48.5177 127.723 48.5043 127.491 48.5784C127.248 48.6558 127.09 48.7939 127.016 48.9959C126.939 49.198 126.942 49.4202 127.016 49.6593L127.201 50.2352C127.316 50.5955 127.356 50.9524 127.323 51.3094H127.312Z" fill="#D45027"/>
<path d="M128.617 61.667L128.987 66.7923L127.249 66.9169L126.879 61.7916L128.617 61.667Z" fill="#D45027"/>
<path d="M131.629 83.953L123.109 82.3635L123.473 80.407L126.026 80.8751L123.641 79.518L123.918 78.043L126.672 77.6187L124.089 77.1372L124.453 75.1807L132.973 76.7701L132.609 78.7266L127.086 79.4001L132 81.9965L131.636 83.953H131.629Z" fill="#D45027"/>
<path d="M120.999 88.7383L121.975 88.8158L122.972 85.9669L122.16 85.4214L122.844 83.4648L130.246 88.5228L129.259 91.3515L120.318 90.6982L121.002 88.7417L120.999 88.7383ZM124.417 86.9603L123.726 88.9404L127.764 89.2334L124.417 86.9603Z" fill="#D45027"/>
<path d="M119.212 98.2211C118.915 98.0528 118.666 97.844 118.461 97.5948C118.255 97.3456 118.107 97.0695 118.02 96.7563C117.932 96.4431 117.908 96.1064 117.949 95.7427C117.989 95.379 118.104 95.0018 118.296 94.6146L118.868 93.5033L119.097 93.0588L119.777 91.7354L127.486 95.7023L126.805 97.0257L126.576 97.4702L126.004 98.5815C125.792 98.9755 125.543 99.2987 125.256 99.5446C124.97 99.7904 124.667 99.9655 124.354 100.07C124.037 100.174 123.714 100.208 123.381 100.174C123.047 100.141 122.724 100.043 122.407 99.8779L119.205 98.2312L119.212 98.2211ZM119.862 95.3251C119.754 95.5339 119.737 95.7595 119.814 96.002C119.889 96.2444 120.033 96.4195 120.242 96.5273L123.317 98.11C123.529 98.2178 123.754 98.2312 123.993 98.1538C124.233 98.073 124.408 97.9315 124.515 97.7194L125.048 96.6822L120.394 94.2879L119.862 95.3251Z" fill="#D45027"/>
<path d="M120.88 103.815L119.516 102.875L118.119 104.906L116.704 103.933L118.102 101.905L116.57 100.851L114.879 103.31L113.465 102.337L116.283 98.2383L123.423 103.151L123.076 103.657L122.294 104.791L120.604 107.25L119.19 106.276L120.88 103.818V103.815Z" fill="#D45027"/>
<path d="M109.397 119.046L104.871 111.408L106.333 110.041L110.013 112.483L107.818 108.65L109.279 107.283L116.597 112.308L115.075 113.715L111.013 110.61L113.744 114.964L113.751 114.975L112.99 115.688L112.239 116.392L112.232 116.382L108.067 113.372L110.902 117.628L109.397 119.053V119.046Z" fill="#D45027"/>
<path d="M102.161 113.459L107.202 120.511L105.586 121.669L100.545 114.617L102.165 113.459H102.161Z" fill="#D45027"/>
<path d="M98.1037 124.212L99.7167 123.265L96.2246 117.312L97.9387 116.305L101.434 122.258L103.047 121.312L103.94 122.834L98.9961 125.734L98.1037 124.212Z" fill="#D45027"/>
<path d="M91.2595 129.209L87.8516 121.238L89.6801 120.457L90.4243 122.198L92.5256 121.299L91.7814 119.558L93.61 118.776L97.0179 126.747L95.1893 127.528L93.2025 122.878L91.1012 123.777L93.088 128.428L91.2595 129.209Z" fill="#D45027"/>
<path d="M77.8982 128.411C77.8241 128.064 77.8241 127.717 77.8915 127.371C77.9588 127.024 78.0935 126.707 78.2922 126.421C78.4909 126.131 78.7502 125.886 79.0668 125.683C79.3867 125.478 79.7605 125.34 80.1881 125.266L81.5755 124.973L81.1849 123.121L83.1313 122.71L84.9195 131.193L84.3167 131.321L81.5755 131.896C81.1782 132.004 80.7976 132.031 80.434 131.981C80.0703 131.927 79.7436 131.819 79.4506 131.651C79.1577 131.482 78.9051 131.26 78.6997 130.987C78.4909 130.711 78.3427 130.411 78.2485 130.085L77.8982 128.418V128.411ZM80.5484 126.946C80.3161 126.997 80.1275 127.125 79.9861 127.337C79.8446 127.549 79.7975 127.771 79.8446 128L80.1679 129.529C80.2151 129.761 80.3498 129.943 80.5619 130.081C80.7774 130.219 80.9997 130.26 81.2354 130.213L82.6228 129.92L81.9359 126.653L80.5484 126.946Z" fill="#D45027"/>
<path d="M72.9012 126.266L73.8037 126.199L73.6657 124.296L75.6491 124.151L76.2822 132.796L75.666 132.84L73.1336 133.025C72.7261 133.079 72.3456 133.055 71.992 132.961C71.6384 132.863 71.3286 132.712 71.0592 132.499C70.7898 132.291 70.5709 132.035 70.4026 131.738C70.2342 131.442 70.1264 131.125 70.0759 130.789L69.9513 129.088C69.921 128.671 69.9816 128.277 70.1332 127.906C70.2847 127.536 70.5204 127.216 70.8336 126.946L69.2441 124.616L71.5576 124.448L72.8979 126.263L72.9012 126.266ZM72.0526 130.499C72.0627 130.617 72.0964 130.728 72.1537 130.829C72.2143 130.93 72.2884 131.021 72.3759 131.099C72.4635 131.176 72.5645 131.233 72.6756 131.27C72.7867 131.311 72.9012 131.324 73.0191 131.317L74.1708 131.233L73.9283 127.916L72.7766 128C72.5376 128.017 72.3355 128.122 72.1671 128.31C71.9988 128.499 71.9213 128.714 71.9381 128.947L72.0526 130.499Z" fill="#D45027"/>
<path d="M68.2198 124.508L67.9707 133.173L65.9805 133.116L66.233 124.451L68.2198 124.508Z" fill="#D45027"/>
<path d="M58.0628 126.05C58.1234 125.717 58.2346 125.411 58.3962 125.134C58.5612 124.858 58.7734 124.623 59.036 124.437C59.2987 124.249 59.6085 124.111 59.9655 124.027C60.3224 123.942 60.7164 123.922 61.1441 123.973L62.3867 124.134L62.8817 124.198L64.3567 124.39L63.2319 132.984L61.757 132.792L61.2619 132.728L60.0193 132.567C59.5748 132.499 59.1909 132.375 58.8609 132.189C58.5309 132.004 58.2649 131.779 58.0628 131.516C57.8608 131.253 57.716 130.96 57.6352 130.637C57.5543 130.31 57.5375 129.974 57.5846 129.62L58.0527 126.05H58.0662H58.0628ZM61.0094 125.683C60.777 125.653 60.5581 125.714 60.3561 125.865C60.154 126.017 60.0362 126.212 60.0059 126.448L59.558 129.876C59.5277 130.112 59.5883 130.327 59.7466 130.526C59.9015 130.725 60.0968 130.839 60.3292 130.873L61.4842 131.024L62.1644 125.835L61.0094 125.683Z" fill="#D45027"/>
<path d="M53.4503 129.536L53.8544 127.929L51.4669 127.33L51.8844 125.666L54.272 126.266L54.7266 124.464L51.8339 123.737L52.2515 122.073L57.0738 123.286L54.9623 131.691L54.3697 131.543L53.0328 131.206L50.1367 130.479L50.5543 128.812L53.447 129.539L53.4503 129.536Z" fill="#D45027"/>
<path d="M47.5262 120.303L44.0981 128.263L42.2695 127.475L45.6976 119.515L47.5262 120.303Z" fill="#D45027"/>
<path d="M34.4746 123.384L38.721 115.827L40.4553 116.8L40.2027 121.454L42.2501 117.811L43.9844 118.784L39.738 126.34L38.0037 125.364L37.9936 125.357L38.3439 120.555L36.2089 124.354L34.4746 123.38V123.384Z" fill="#D45027"/>
<path d="M26.3644 115.005L27.8024 116.204L32.2239 110.9L33.7527 112.173L29.3312 117.477L30.7691 118.676L29.6376 120.03L25.2363 116.359L26.3678 115.005H26.3644Z" fill="#D45027"/>
<path d="M19.3432 110.24L25.6977 104.344L27.0514 105.802L25.664 107.092L27.2164 108.765L28.6038 107.476L29.9575 108.934L23.6031 114.827L22.2494 113.369L25.957 109.93L24.4012 108.253L20.6936 111.692L19.3398 110.234L19.3432 110.24Z" fill="#D45027"/>
<path d="M17.771 105.307L19.1247 104.351L17.7036 102.34L19.1045 101.35L20.5256 103.361L22.0443 102.287L20.3202 99.8484L21.721 98.8584L24.5935 102.92L17.5151 107.924L17.1615 107.425L16.3667 106.301L14.6426 103.866L16.0435 102.876L17.7676 105.311L17.771 105.307Z" fill="#D45027"/>
<path d="M14.5615 90.0556C14.878 89.9276 15.1979 89.8603 15.5246 89.8569C15.8512 89.8502 16.1678 89.9142 16.4675 90.0421C16.7706 90.1735 17.0534 90.3688 17.3161 90.6315C17.5788 90.8941 17.8044 91.2275 17.993 91.6383L18.1108 91.8976C18.3061 92.3219 18.4139 92.726 18.4375 93.1099C18.461 93.4938 18.4139 93.844 18.2994 94.1606C18.1849 94.4771 18.0098 94.76 17.7741 95.0058C17.5383 95.2517 17.2622 95.4503 16.9389 95.5985L11.3085 98.178L10.4801 96.3697L16.1072 93.7801C16.2149 93.7295 16.3058 93.6622 16.3833 93.5746C16.4608 93.4871 16.5214 93.3894 16.5618 93.2783C16.6022 93.1672 16.6224 93.056 16.6224 92.9416C16.6224 92.8271 16.5954 92.7126 16.5483 92.6082L16.4304 92.3522C16.3833 92.2445 16.3126 92.1536 16.225 92.0761C16.1375 91.9987 16.0398 91.9414 15.9287 91.901C15.8176 91.8606 15.7064 91.8404 15.5886 91.8437C15.4707 91.8437 15.3596 91.8707 15.2518 91.9212L9.62137 94.5007L8.79297 92.6924L14.5514 90.0556V90.0657L14.5615 90.0556Z" fill="#D45027"/>
<path d="M10.08 85.146C10.1204 84.7925 10.2214 84.4591 10.3797 84.1493C10.5413 83.8395 10.7568 83.5701 11.0262 83.3377C11.299 83.1053 11.6155 82.9336 11.9759 82.8225C12.3294 82.7147 12.6864 82.6777 13.0467 82.7181C13.4037 82.7585 13.7371 82.8595 14.0435 83.0245C14.3499 83.1895 14.6193 83.4084 14.8517 83.6812C15.0841 83.954 15.2558 84.2705 15.3669 84.6308L15.5454 85.2067C15.6565 85.5703 15.6936 85.9273 15.6532 86.2809C15.6127 86.6345 15.5117 86.9679 15.3501 87.2709C15.1884 87.574 14.9696 87.8468 14.6934 88.0791C14.4173 88.3115 14.1041 88.4832 13.7472 88.591L13.2117 86.8466C13.4441 86.7759 13.6226 86.6311 13.7371 86.419C13.8515 86.2068 13.8751 85.9778 13.801 85.7354L13.6226 85.1595C13.5485 84.9171 13.4037 84.7386 13.1848 84.6241C12.9659 84.5096 12.7436 84.486 12.5079 84.5601C12.2655 84.6342 12.087 84.779 11.9725 84.9979C11.858 85.2134 11.8378 85.4424 11.9119 85.6848L12.0904 86.2607C12.2015 86.6244 12.2419 86.9813 12.2149 87.3315C12.188 87.6818 12.1005 88.0084 11.9523 88.3115C11.8041 88.6112 11.6021 88.8772 11.3428 89.1062C11.0835 89.3352 10.7703 89.5036 10.41 89.6147C10.0564 89.7225 9.69943 89.7595 9.33911 89.7191C8.97879 89.6821 8.64877 89.581 8.34233 89.4194C8.03589 89.2578 7.76649 89.0422 7.53413 88.7695C7.30178 88.4967 7.13003 88.1802 7.01891 87.8198L6.84043 87.244C6.7293 86.8803 6.69226 86.5233 6.73267 86.1698C6.77308 85.8162 6.8741 85.4828 7.03238 85.173C7.19402 84.8632 7.40954 84.5938 7.68567 84.3581C7.9618 84.1257 8.27498 83.954 8.63194 83.8462L9.16737 85.5906C8.93501 85.6613 8.7599 85.8061 8.64541 86.025C8.53091 86.2405 8.51071 86.4728 8.58479 86.7119L8.76327 87.2878C8.83735 87.5302 8.98215 87.7053 9.19767 87.8165C9.41319 87.9276 9.63882 87.9478 9.87117 87.8771C10.1136 87.803 10.2719 87.6649 10.3527 87.4629C10.4302 87.2608 10.4335 87.0386 10.3595 86.7995L10.181 86.2236C10.0699 85.8599 10.0328 85.503 10.0732 85.1494L10.08 85.146Z" fill="#D45027"/>
<path d="M13.3062 75.898L12.4104 76.2988L12.9021 79.279L13.8787 79.3699L14.2154 81.414L5.29493 80.5182L4.80664 77.5616L12.9694 73.8506L13.3062 75.8947V75.898ZM11.1577 79.0971L10.8176 77.0295L7.13358 78.7065L11.1577 79.1005V79.0971Z" fill="#D45027"/>
<path d="M8.63813 66.0014L9.07927 60.8828L10.8135 61.0343L10.369 66.1563L8.63477 66.0048L8.63813 66.0014Z" fill="#D45027"/>
</g>
<g style="mix-blend-mode:multiply">
<path d="M68.8114 136.659C106.417 136.659 136.902 106.174 136.902 68.5682C136.902 30.9628 106.417 0.477539 68.8114 0.477539C31.2059 0.477539 0.720703 30.9628 0.720703 68.5682C0.720703 106.174 31.2059 136.659 68.8114 136.659Z" stroke="#005990" stroke-width="0.953" stroke-miterlimit="10"/>
</g>
<g style="mix-blend-mode:multiply">
<path d="M82.0866 85.3186C82.8207 88.6827 82.75 89.0699 80.2042 90.5786C79.4869 91.0029 78.4194 90.8682 77.5102 90.9389C76.6616 91.0062 75.786 90.9086 74.9576 91.0601C73.7318 91.2857 72.5398 91.6932 71.3241 91.9761C66.0169 93.2221 60.7232 94.5152 55.3891 95.6264C54.4765 95.815 53.2979 95.3739 52.456 94.8654C52.1799 94.7004 52.3483 93.2625 52.7187 92.653C54.4058 89.868 53.3484 87.2414 52.4729 84.5811C52.227 83.8301 51.7994 83.1128 51.6916 82.3484C51.4694 80.7825 51.4289 79.1931 49.1424 79.4389C48.8899 79.4658 48.4723 79.1459 48.3342 78.8799C46.9064 76.1118 44.9802 73.5391 46.1218 70.02C46.5831 68.5956 46.6067 66.794 46.1656 65.3695C45.5628 63.4197 46.1184 61.7899 46.6437 60.0657C47.0175 58.8366 47.6203 57.6613 47.8628 56.412C49.9237 45.7775 59.6591 39.3253 70.1185 42.1035C74.0282 43.1407 77.7863 44.9356 81.4198 46.7709C87.286 49.7309 90.0911 54.9606 91.0037 61.2612C91.4516 64.3492 92.1251 67.5584 91.721 70.5824C91.1889 74.5661 89.8722 78.4792 88.5556 82.308C87.8214 84.4464 85.3766 84.4396 83.5212 85.0559C83.1036 85.194 82.649 85.2209 82.0866 85.3186ZM48.9841 60.4631C46.6471 61.241 46.0275 62.5577 46.8795 64.8947C47.2229 65.8376 47.5664 66.7805 47.8493 67.7402C47.92 67.9827 47.8594 68.3767 47.7011 68.5619C46.4888 69.9325 46.1521 72.2965 46.8694 73.9903C48.4049 72.97 48.735 70.3399 51.631 70.9158C53.0925 71.2054 53.9714 71.6802 53.7087 73.2461C53.6077 73.8455 53.345 74.4348 53.0757 74.9905C51.9139 77.3881 50.971 79.7386 54.2004 81.6278C54.1465 80.4492 54.096 79.3514 54.0455 78.2536C54.1061 78.2435 54.1667 78.2333 54.2273 78.2232C54.3856 79.1998 54.5439 80.1798 54.7055 81.1934C57.7464 80.86 56.0862 78.7486 56.5475 76.9941C56.7866 78.6341 56.9617 79.8464 57.1133 80.9004C56.2377 81.3651 55.4565 81.9814 54.5809 82.1868C53.5303 82.4326 53.6178 82.995 53.8502 83.6853C54.0893 84.3959 54.2004 85.3489 55.3824 84.9077C55.3218 85.0761 55.2612 85.2445 55.2005 85.4128C55.0928 85.7058 54.847 86.0291 54.9008 86.2884C55.0355 86.9417 55.3049 87.568 55.6552 88.6052C54.8874 88.1237 54.5573 87.9183 54.6247 87.962C54.1735 89.895 53.7155 91.8515 53.271 93.7474C54.2576 93.5487 54.9614 91.3935 56.3893 93.148C56.4734 92.9695 56.5273 92.6361 56.6587 92.6024C58.7903 92.0737 60.9084 91.4137 63.0771 91.1241C65.7004 90.7739 68.3708 90.7638 71.0143 90.555C71.9067 90.4843 72.927 89.9017 73.6409 90.1812C74.9239 90.6863 75.2573 89.8748 75.5335 89.1508C75.9746 88.0024 76.1901 86.7699 76.5336 85.4398C76.6111 86.7228 76.5033 87.9082 76.8131 88.9689C76.995 89.5885 77.7796 90.2115 78.4295 90.4506C78.8437 90.6021 79.6418 90.1812 80.0425 89.7872C80.6655 89.1743 81.0966 88.3661 81.8374 87.3155C80.6588 85.359 81.1134 82.7727 81.9149 80.3683C82.6927 78.0313 84.0195 75.8795 85.0197 73.8219C84.6695 73.8522 84.0162 73.9129 83.0598 73.997C82.6927 74.8726 81.6084 75.637 80.4029 75.0679C79.46 74.6234 78.8572 73.4582 78.1062 72.613L77.6213 72.8285C78.0692 74.5224 78.4766 76.2297 78.9784 77.9067C79.305 78.9978 78.7966 82.042 77.9379 83.1667C77.9816 80.4828 78.5305 77.7585 76.446 75.6741C76.446 77.4959 77.0522 79.6746 76.2777 81.1058C75.4695 82.6044 73.3311 83.389 71.5362 84.6552C71.415 83.6584 71.3578 83.1735 71.3106 82.7862C71.6777 82.6212 72.2569 82.5168 72.2906 82.3181C72.5095 81.062 72.725 79.7824 72.6846 78.5196C72.6677 78.0246 72.0548 77.4824 71.607 77.0749C69.243 74.9332 69.61 70.6801 72.3276 69.1815C72.5566 69.0569 72.9203 68.9727 73.1358 69.067C74.2134 69.5351 75.2641 70.0705 76.3551 70.5925C75.3247 70.7205 74.1764 71.2155 73.348 70.8922C71.442 70.1547 71.2567 71.3738 70.8627 72.5456C71.415 73.2292 71.9336 73.8657 72.5633 74.6402C72.7586 74.2664 72.8967 74.0408 73.0011 73.7984C73.6679 72.2695 74.4794 71.4175 76.4999 71.6398C78.0153 71.8048 79.7125 71.0471 81.1908 70.3871C81.7094 70.1547 81.8037 68.9862 82.1068 68.2555C82.1405 68.1713 82.2819 68.1309 82.5749 67.9356C82.7904 68.3733 83.0766 68.7572 83.1777 69.1883C83.3696 70.0032 83.3865 70.8653 83.6255 71.6634C83.7535 72.091 84.1307 72.5254 84.5146 72.7612C84.7267 72.8925 85.2992 72.7309 85.5181 72.512C86.2791 71.7442 86.2657 69.4004 85.4238 68.7505C83.7198 67.4338 82.0698 65.9151 80.1402 65.0631C78.0523 64.1404 77.0993 62.7328 76.5909 60.6887C76.0824 58.6379 75.4392 56.6208 74.8431 54.5902C74.5299 53.5227 75.9712 51.5493 77.1768 51.519C75.3685 54.4353 76.7121 57.2168 77.6449 60.2004C77.8234 59.8906 77.9985 59.5808 78.1769 59.271C77.2913 62.5644 77.5742 62.8506 80.5914 64.4502C82.5749 65.5009 84.3058 67.0398 86.104 68.4205C86.4206 68.6629 86.562 69.1815 86.7102 69.5957C87.3938 71.5017 87.515 73.4515 87.6093 75.4922C87.7608 78.8092 84.9658 80.0282 83.8714 82.5707C83.4841 81.6951 83.2551 81.1765 83.0261 80.6546C82.8982 80.6882 82.7668 80.7219 82.6389 80.7556C82.3796 81.9241 82.1236 83.0926 81.8576 84.2881C86.1377 84.5979 88.4209 82.8535 89.0472 78.9809C89.2392 77.8057 89.128 76.4418 89.7005 75.4956C91.5998 72.3739 91.3741 69.0266 90.9802 65.7029C90.4346 61.076 90.1383 56.0988 86.8954 52.5326C80.1537 45.1242 71.7652 40.8946 61.5078 42.8814C53.2811 44.4742 48.7888 50.3067 48.3544 59.3417C48.9808 58.9848 49.624 58.8164 49.9439 58.3988C51.3077 56.6208 51.274 56.5938 53.3989 57.3145C51.915 57.5031 50.8396 58.318 50.1729 59.7593C49.7822 59.9916 49.3882 60.2274 48.9976 60.4597L48.9841 60.4631ZM47.7786 75.5932C47.6641 75.4754 47.5496 75.3609 47.4317 75.243C47.7112 75.8458 47.984 76.4519 48.2702 77.0514C48.5497 77.644 48.8427 78.23 49.1289 78.8193C49.267 78.7385 49.4051 78.661 49.5431 78.5802C49.4455 78.4152 49.331 78.2569 49.2535 78.0818C48.506 76.3846 48.8225 75.829 50.6309 75.4686C51.2235 75.3508 51.7825 75.0645 52.5941 74.7682C51.3784 74.2092 50.4827 73.795 49.3512 73.273C48.9101 73.923 48.3443 74.7581 47.7786 75.5932ZM82.1102 72.5389C83.4572 72.1449 83.5043 71.9597 82.4132 70.6733C81.5714 71.064 80.7228 71.4579 79.6923 71.9361C80.0526 72.8083 80.3523 73.6502 80.7834 74.4213C80.8305 74.5022 81.7633 74.2664 82.0698 73.96C82.2785 73.7546 82.1102 73.1686 82.1102 72.5389Z" fill="#005990"/>
<path d="M50.1587 59.7628C51.3811 59.0422 52.6002 58.3215 53.9606 57.5201C54.3849 58.3552 54.651 58.8805 54.89 59.3486C55.2234 58.4394 55.5568 57.5437 55.8868 56.6445C56.0788 56.7119 56.2707 56.7759 56.4627 56.8432C56.0316 58.2744 55.6006 59.7022 55.1662 61.1368C56.6984 60.0154 57.1968 61.221 57.8736 62.4905C58.4731 63.6186 59.3486 64.6154 60.1804 65.6054C61.2714 66.9053 61.716 69.0032 60.9414 70.3603C60.6653 70.8419 60.0726 71.2258 59.5406 71.4346C59.3553 71.5053 58.9108 70.9025 58.4596 70.495C57.584 70.7476 56.5401 71.0473 55.348 71.3908C54.6139 70.2694 55.0045 69.0908 56.2471 67.8819C56.6108 67.5283 56.4559 66.5248 56.3583 65.8445C56.2943 65.4067 55.9003 65.0161 55.6511 64.6019C55.4019 65.1778 55.1056 65.8681 54.6779 66.8649V62.2009C54.5129 62.1807 54.3512 62.1605 54.1862 62.1403C54.8463 64.282 54.4287 66.1813 52.8662 67.6158C52.1018 68.3196 50.8996 69.1817 50.0712 69.0268C48.9801 68.8247 47.9126 67.8078 47.9665 66.3025C47.9766 66.0297 47.9328 65.7199 47.8116 65.4775C46.8182 63.4738 47.2189 61.8136 48.9835 60.4633C49.3741 60.2309 49.7681 59.9952 50.1587 59.7628Z" fill="#005990"/>
<path d="M55.3786 84.9039C55.1833 84.3281 54.9914 83.7522 54.6445 82.7285C55.8535 84.089 56.7492 85.0959 57.7292 86.2004C56.9445 86.5641 56.4764 86.7796 55.877 87.0591C55.6514 86.5102 55.4224 85.9613 55.1968 85.4124C55.2574 85.244 55.318 85.0757 55.3786 84.9073V84.9039Z" fill="#005990"/>
<path d="M61.0131 57.5133C61.7776 56.6074 62.6901 55.5264 63.9024 54.0919C62.9629 54.56 62.3568 54.863 61.8449 55.119C62.5655 53.2736 63.9496 52.8897 65.9398 53.6507C67.051 54.0751 68.3947 53.9403 69.6339 53.9572C73.2573 54.001 73.7389 54.3714 74.1598 57.9477C74.3316 59.3856 74.5572 60.8909 74.2979 62.2783C74.1531 63.0494 73.1428 63.7835 72.3548 64.2685C71.715 64.6624 70.8395 64.7029 70.0549 64.8308C67.1453 65.3023 65.0407 63.4704 64.0573 60.4868C63.6532 59.261 62.0065 58.4427 61.0098 57.5166L61.0131 57.5133ZM65.9937 54.9843C67.0409 55.0887 68.0882 55.284 69.1355 55.2806C71.0079 55.2772 72.8263 55.2469 73.1125 57.8904C73.2506 54.8866 72.0484 54.3849 65.9937 54.9843Z" fill="#005990"/>
<path d="M64.7871 68.2627V67.1009C67.3801 66.7844 69.8451 65.0737 72.4145 66.653C71.4952 67.3434 70.6398 68.3435 69.5791 68.6702C68.6867 68.9429 67.5586 68.4041 66.5281 68.2762C66.0162 68.2122 65.4875 68.2661 64.7905 68.2661L64.7871 68.2627Z" fill="#005990"/>
<path d="M59.9191 80.7961C60.8283 80.1697 61.5725 79.9004 61.8756 79.375C62.1685 78.8699 62.0002 78.0987 62.2898 77.4219C62.2224 78.6544 61.9396 80.0216 63.6368 80.1664C64.0914 80.2068 64.6403 79.1528 64.9063 78.8598C65.0309 80.621 65.1892 80.7624 66.4284 79.934C66.7988 80.264 67.139 80.5671 67.4791 80.8736C67.8226 80.2034 68.166 79.5333 68.5095 78.8598C68.5802 78.8665 68.6543 78.8766 68.725 78.8834C68.2772 80.5065 67.8293 82.133 67.341 83.9144C66.5463 82.9614 68.4321 81.6009 66.6136 81.2204C63.63 80.5941 63.6199 80.6446 63.1081 82.8233C63.0037 82.005 62.906 81.2204 62.8084 80.4358C61.9463 81.7424 59.5924 79.237 59.5015 81.8771C59.2624 81.5167 59.03 81.1699 58.9492 81.0487C59.121 79.7589 59.2691 78.6342 59.4173 77.5061C59.5217 77.5364 59.6295 77.5667 59.7338 77.597C59.7877 78.5062 59.8382 79.4154 59.9191 80.7961Z" fill="#005990"/>
<path d="M75.2109 67.9859C76.4603 67.4336 77.3695 67.0295 78.4437 66.5547C78.5178 67.2349 78.5919 67.9051 78.6997 68.8985C77.3998 68.5583 76.4131 68.299 75.2109 67.9859Z" fill="#005990"/>
<path d="M57.9043 59.7355C57.9817 58.9913 58.0626 58.2471 58.1434 57.4658C59.2547 57.8632 60.2818 58.2269 61.3122 58.5939C61.2819 58.7556 61.255 58.9138 61.2246 59.0755C60.0258 58.5198 58.8809 58.1427 58.3757 59.8972C58.2175 59.8433 58.0626 59.7894 57.9043 59.7355Z" fill="#005990"/>
</g>
<g style="mix-blend-mode:multiply">
<path d="M26.9967 66.2028V67.3915H28.7613V68.6206H26.9967V69.9508H29.1351V71.1799H25.5723V64.9736H29.1351V66.2028H26.9967Z" fill="#005990"/>
<path d="M33.3686 67.5534C33.6044 67.6545 33.8098 67.7925 33.9883 67.9676C34.1667 68.1427 34.3048 68.3482 34.4092 68.5839C34.5102 68.8196 34.5607 69.0722 34.5607 69.3416C34.5607 69.611 34.5102 69.8602 34.4092 70.0959C34.3082 70.335 34.1667 70.5404 33.9883 70.7155C33.8098 70.8906 33.6044 71.0287 33.3686 71.1297C33.1329 71.2307 32.8803 71.2812 32.6109 71.2812H32.1799C31.9071 71.2812 31.6546 71.2307 31.4222 71.1297C31.1865 71.0287 30.9811 70.8906 30.806 70.7155C30.6309 70.5404 30.4928 70.335 30.3918 70.0959C30.2907 69.8568 30.2402 69.6076 30.2402 69.3416H31.5468C31.5468 69.5167 31.6074 69.6682 31.7287 69.7895C31.8499 69.9107 32.0014 69.9747 32.1833 69.9747H32.6143C32.7962 69.9747 32.9477 69.914 33.0723 69.7895C33.1969 69.6649 33.2575 69.5167 33.2575 69.3416C33.2575 69.1665 33.1969 69.0082 33.0723 68.8836C32.9477 68.759 32.7962 68.6984 32.6143 68.6984H32.1833C31.9105 68.6984 31.6579 68.6512 31.4256 68.5569C31.1899 68.4627 30.9844 68.3347 30.8093 68.1697C30.6342 68.0047 30.4962 67.8094 30.3951 67.5837C30.2941 67.3581 30.2436 67.1089 30.2436 66.8362C30.2436 66.5634 30.2941 66.3176 30.3951 66.0818C30.4962 65.8428 30.6342 65.6373 30.8093 65.4622C30.9844 65.2871 31.1899 65.149 31.4256 65.048C31.6613 64.947 31.9139 64.8965 32.1833 64.8965H32.6143C32.8871 64.8965 33.1396 64.947 33.372 65.048C33.6077 65.149 33.8131 65.2871 33.9916 65.4622C34.1701 65.6373 34.3082 65.8428 34.4126 66.0818C34.5136 66.3209 34.5641 66.5701 34.5641 66.8362H33.2575C33.2575 66.661 33.1969 66.5129 33.0723 66.3883C32.9477 66.2637 32.7962 66.2031 32.6143 66.2031H32.1833C32.0014 66.2031 31.8499 66.2671 31.7287 66.3883C31.6074 66.5129 31.5468 66.6644 31.5468 66.8362C31.5468 67.0079 31.6074 67.1561 31.7287 67.2504C31.8499 67.3447 32.0014 67.3952 32.1833 67.3952H32.6143C32.8871 67.3952 33.1396 67.4457 33.372 67.5467L33.3686 67.5534Z" fill="#005990"/>
<path d="M39.3081 66.2364H37.9678V71.1799H36.5434V66.2364H35.2031V64.9736H39.3081V66.2364Z" fill="#005990"/>
<path d="M41.2343 70.5976C41.2343 70.7795 41.1703 70.931 41.0424 71.059C40.9144 71.1869 40.7629 71.2509 40.581 71.2509C40.3992 71.2509 40.2443 71.1869 40.1197 71.059C39.9917 70.931 39.9277 70.7795 39.9277 70.5976C39.9277 70.4158 39.9917 70.2609 40.1197 70.1363C40.2476 70.0083 40.3992 69.9443 40.581 69.9443C40.7629 69.9443 40.9178 70.0083 41.0424 70.1363C41.1703 70.2642 41.2343 70.4191 41.2343 70.5976Z" fill="#005990"/>
<path d="M97.1175 69.5068C97.0199 69.6045 96.9694 69.7257 96.9694 69.8671H99.7273V71.1805H95.5449V69.8671C95.5449 69.6179 95.5921 69.3856 95.6864 69.1667C95.7806 68.9478 95.9086 68.7592 96.0736 68.5942C96.2386 68.4292 96.4272 68.3013 96.6461 68.207C96.865 68.1127 97.0973 68.0655 97.3465 68.0655H97.7102H97.9291C98.1042 68.0655 98.2558 68.0016 98.377 67.8702C98.5016 67.7389 98.5622 67.5873 98.5622 67.4122V66.8196C98.5622 66.6444 98.4982 66.4929 98.377 66.3717C98.2558 66.2505 98.1042 66.1865 97.9291 66.1865H97.488C97.3129 66.1865 97.1647 66.2471 97.0401 66.3717C96.9155 66.4963 96.8549 66.6444 96.8549 66.8196H95.5483C95.5483 66.5535 95.5988 66.301 95.6998 66.0652C95.8008 65.8261 95.9389 65.6207 96.114 65.4456C96.2891 65.2705 96.4946 65.1324 96.7336 65.0314C96.9727 64.9304 97.2219 64.8799 97.488 64.8799H97.9291C98.1951 64.8799 98.4477 64.9304 98.6834 65.0314C98.9225 65.1324 99.1279 65.2705 99.303 65.4456C99.4782 65.6207 99.6162 65.8261 99.7172 66.0652C99.8183 66.3043 99.8688 66.5535 99.8688 66.8196V67.4122C99.8688 67.685 99.8183 67.9376 99.7172 68.1699C99.6162 68.4056 99.4782 68.6111 99.303 68.7862C99.1279 68.9613 98.9225 69.0994 98.6834 69.2004C98.4443 69.3014 98.1951 69.3519 97.9291 69.3519H97.4812C97.3398 69.3519 97.2186 69.4024 97.1209 69.5001L97.1175 69.5068Z" fill="#005990"/>
<path d="M104.984 69.5031H104.974C104.964 69.7523 104.91 69.9813 104.812 70.1934C104.714 70.4056 104.58 70.5908 104.408 70.7525C104.236 70.9141 104.024 71.0387 103.775 71.1296C103.526 71.2205 103.239 71.2643 102.916 71.2643H102.711C102.377 71.2643 102.081 71.2138 101.822 71.1161C101.562 71.0185 101.35 70.8838 101.175 70.712C101.003 70.5437 100.872 70.345 100.781 70.1194C100.69 69.8937 100.646 69.6547 100.646 69.3987V66.6508H100.657C100.667 66.4084 100.721 66.1794 100.815 65.9639C100.909 65.7484 101.044 65.5598 101.219 65.4015C101.394 65.2432 101.606 65.1153 101.855 65.0244C102.105 64.9334 102.391 64.8896 102.714 64.8896H102.92C103.253 64.8896 103.549 64.9402 103.802 65.0378C104.058 65.1355 104.273 65.2702 104.448 65.4419C104.623 65.6137 104.755 65.809 104.842 66.0346C104.93 66.2602 104.974 66.5027 104.974 66.7552L104.984 69.5031ZM102.916 70.0385C103 70.0385 103.081 70.0217 103.159 69.988C103.236 69.9544 103.303 69.9072 103.361 69.8466C103.418 69.786 103.465 69.7186 103.502 69.6446C103.539 69.5705 103.553 69.4863 103.553 69.4021V66.7552C103.553 66.6711 103.536 66.5902 103.502 66.5128C103.468 66.4353 103.421 66.368 103.361 66.3107C103.3 66.2535 103.233 66.203 103.159 66.1693C103.085 66.1356 103 66.1188 102.916 66.1188H102.714C102.63 66.1188 102.549 66.1356 102.472 66.1693C102.394 66.203 102.327 66.2501 102.27 66.3107C102.209 66.3713 102.165 66.4387 102.128 66.5128C102.095 66.5902 102.078 66.6711 102.078 66.7552V69.4021C102.078 69.4863 102.095 69.5671 102.128 69.6446C102.162 69.722 102.209 69.7894 102.27 69.8466C102.33 69.9072 102.398 69.9544 102.472 69.988C102.546 70.0217 102.63 70.0385 102.714 70.0385H102.916Z" fill="#005990"/>
<path d="M106.294 64.9639H107.18V71.1803H105.755V66.2368H105.213V64.9639H106.294Z" fill="#005990"/>
<path d="M112.294 69.5031H112.284C112.274 69.7523 112.22 69.9813 112.123 70.1934C112.025 70.4056 111.89 70.5908 111.719 70.7525C111.547 70.9141 111.335 71.0387 111.085 71.1296C110.836 71.2205 110.55 71.2643 110.227 71.2643H110.021C109.688 71.2643 109.392 71.2138 109.132 71.1161C108.876 71.0185 108.661 70.8838 108.486 70.712C108.314 70.5437 108.183 70.345 108.092 70.1194C108.001 69.8937 107.957 69.6547 107.957 69.3987V66.6508H107.967C107.977 66.4084 108.031 66.1794 108.125 65.9639C108.22 65.7484 108.354 65.5598 108.53 65.4015C108.705 65.2432 108.917 65.1153 109.166 65.0244C109.415 64.9334 109.701 64.8896 110.025 64.8896H110.23C110.563 64.8896 110.86 64.9402 111.112 65.0378C111.368 65.1355 111.584 65.2702 111.759 65.4419C111.934 65.6137 112.065 65.809 112.153 66.0346C112.24 66.2602 112.284 66.5027 112.284 66.7552L112.294 69.5031ZM110.223 70.0385C110.308 70.0385 110.388 70.0217 110.466 69.988C110.543 69.9544 110.611 69.9072 110.668 69.8466C110.728 69.786 110.776 69.7186 110.809 69.6446C110.843 69.5705 110.86 69.4863 110.86 69.4021V66.7552C110.86 66.6711 110.843 66.5902 110.809 66.5128C110.776 66.4353 110.728 66.368 110.668 66.3107C110.607 66.2501 110.54 66.203 110.466 66.1693C110.392 66.1356 110.308 66.1188 110.223 66.1188H110.021C109.937 66.1188 109.856 66.1356 109.779 66.1693C109.701 66.203 109.634 66.2501 109.577 66.3107C109.516 66.3713 109.469 66.4387 109.435 66.5128C109.402 66.5902 109.385 66.6711 109.385 66.7552V69.4021C109.385 69.4863 109.402 69.5671 109.435 69.6446C109.469 69.722 109.516 69.7894 109.577 69.8466C109.637 69.9072 109.705 69.9544 109.779 69.988C109.856 70.0217 109.937 70.0385 110.021 70.0385H110.223Z" fill="#005990"/>
</g>
<g style="mix-blend-mode:multiply">
<path d="M67.5986 29.2326C67.8377 29.3673 68.0297 29.5558 68.1778 29.7983C68.3294 30.0374 68.4035 30.3068 68.4035 30.5998V30.9466C68.4035 31.1621 68.3631 31.3642 68.2789 31.5528C68.1981 31.7413 68.0836 31.9063 67.9421 32.0478C67.8007 32.1892 67.6357 32.3003 67.4471 32.3845C67.2585 32.4687 67.0565 32.5091 66.841 32.5091H63.8203V26.3096H66.4099C66.6254 26.3096 66.8275 26.35 67.0194 26.4342C67.2114 26.515 67.3764 26.6261 67.5178 26.7675C67.6593 26.909 67.7704 27.074 67.8512 27.2626C67.932 27.4512 67.9724 27.6532 67.9724 27.8687V28.2156C67.9724 28.4143 67.9388 28.5995 67.8714 28.7712C67.8041 28.943 67.7098 29.0979 67.5919 29.2326H67.5986ZM65.2481 28.8689H66.0967C66.2281 28.8689 66.3358 28.8251 66.4234 28.7375C66.5109 28.65 66.5547 28.5422 66.5547 28.4109V27.9798C66.5547 27.8552 66.5109 27.7475 66.4234 27.6566C66.3358 27.5656 66.2281 27.5219 66.0967 27.5219H65.2481V28.8689ZM66.979 30.391C66.979 30.2664 66.9352 30.162 66.8477 30.0711C66.7601 29.9801 66.6524 29.9364 66.521 29.9364H65.2481V31.2766H66.521C66.6524 31.2766 66.7601 31.2328 66.8477 31.1453C66.9352 31.0577 66.979 30.95 66.979 30.822V30.391Z" fill="#005990"/>
<path d="M74.0345 29.283C74.0345 29.5356 73.984 29.7814 73.8863 30.0138C73.7853 30.2461 73.6472 30.4482 73.4654 30.6199C73.2835 30.7916 73.0646 30.9263 72.8121 31.024C72.5595 31.1217 72.2766 31.1621 71.9635 31.152H70.9498V32.5091H69.5254V26.3028H71.9736C72.2665 26.2859 72.5393 26.323 72.7851 26.4139C73.0309 26.5048 73.2465 26.6294 73.4249 26.7911C73.6068 26.9527 73.7482 27.1446 73.8526 27.3669C73.957 27.5892 74.0176 27.8249 74.0345 28.0673V29.2897V29.283ZM71.9601 29.9195C72.1318 29.9195 72.28 29.8555 72.4113 29.7275C72.5427 29.5995 72.6066 29.4514 72.6066 29.283V28.165C72.6066 27.9966 72.5427 27.8451 72.4113 27.7205C72.28 27.5925 72.1318 27.5285 71.9601 27.5285H70.9465V29.9195H71.9601Z" fill="#005990"/>
<path d="M66.8042 108.689C66.8817 108.655 66.949 108.608 67.0063 108.547C67.0669 108.487 67.1141 108.419 67.1511 108.345C67.1881 108.271 67.205 108.187 67.205 108.103H68.6294C68.6294 108.355 68.5856 108.598 68.4947 108.823C68.4038 109.049 68.2725 109.248 68.1007 109.416C67.929 109.584 67.7135 109.719 67.4542 109.82C67.1982 109.918 66.9019 109.968 66.5651 109.968H66.3698C66.0365 109.968 65.7401 109.918 65.4808 109.82C65.2215 109.722 65.0094 109.588 64.8343 109.416C64.6625 109.248 64.5312 109.049 64.4403 108.823C64.3493 108.598 64.3056 108.355 64.3056 108.103L64.2988 105.348H64.3056C64.3157 105.106 64.3695 104.877 64.4672 104.661C64.5649 104.446 64.6996 104.257 64.8713 104.099C65.043 103.937 65.2552 103.813 65.5078 103.722C65.7603 103.631 66.0466 103.587 66.3698 103.587H66.5651C66.8985 103.587 67.1949 103.637 67.4542 103.735C67.7135 103.833 67.929 103.967 68.1007 104.139C68.2725 104.308 68.4038 104.506 68.4947 104.732C68.5856 104.957 68.6294 105.197 68.6294 105.453H67.205C67.205 105.284 67.141 105.136 67.0097 105.008C66.8783 104.88 66.7302 104.816 66.5618 104.816H66.3665C66.1981 104.816 66.0466 104.88 65.9186 105.008C65.7873 105.136 65.7233 105.284 65.7233 105.453V108.106C65.7233 108.19 65.7401 108.271 65.7738 108.349C65.8075 108.426 65.8546 108.493 65.9152 108.551C65.9758 108.611 66.0432 108.655 66.124 108.692C66.2048 108.729 66.2856 108.743 66.3698 108.743H66.5651C66.6493 108.743 66.7302 108.726 66.8076 108.692L66.8042 108.689Z" fill="#005990"/>
<path d="M73.3745 104.914H72.0342V109.858H70.6098V104.914H69.2695V103.651H73.3745V104.914Z" fill="#005990"/>
</g>
<g style="mix-blend-mode:multiply">
<path d="M80.9636 85.3186C81.6977 88.6827 81.6269 89.0699 79.0811 90.5786C78.3638 91.0029 77.2964 90.8682 76.3871 90.9389C75.5385 91.0062 74.663 90.9086 73.8346 91.0601C72.6088 91.2857 71.4167 91.6932 70.201 91.9761C64.8939 93.2221 59.6002 94.5152 54.2661 95.6264C53.3535 95.815 52.1749 95.3739 51.333 94.8654C51.0569 94.7004 51.2252 93.2625 51.5956 92.653C53.2828 89.868 52.2254 87.2414 51.3498 84.5811C51.104 83.8301 50.6763 83.1128 50.5686 82.3484C50.3463 80.7825 50.3059 79.1931 48.0194 79.4389C47.7668 79.4658 47.3492 79.1459 47.2112 78.8799C45.7834 76.1118 43.8572 73.5391 44.9987 70.02C45.4601 68.5956 45.4836 66.794 45.0425 65.3695C44.4397 63.4197 44.9954 61.7899 45.5207 60.0657C45.8945 58.8366 46.4973 57.6613 46.7397 56.412C48.8006 45.7775 58.5361 39.3253 68.9955 42.1035C72.9051 43.1407 76.6633 44.9356 80.2968 46.7709C86.163 49.7309 88.9681 54.9606 89.8807 61.2612C90.3286 64.3492 91.0021 67.5584 90.598 70.5824C90.0659 74.5661 88.7492 78.4792 87.4325 82.308C86.6984 84.4464 84.2536 84.4396 82.3981 85.0559C81.9805 85.194 81.5259 85.2209 80.9636 85.3186ZM47.8611 60.4631C45.5241 61.241 44.9044 62.5577 45.7564 64.8947C46.0999 65.8376 46.4434 66.7805 46.7263 67.7402C46.797 67.9827 46.7364 68.3767 46.5781 68.5619C45.3658 69.9325 45.029 72.2965 45.7463 73.9903C47.2819 72.97 47.6119 70.3399 50.508 70.9158C51.9694 71.2054 52.8484 71.6802 52.5857 73.2461C52.4847 73.8455 52.222 74.4348 51.9526 74.9905C50.7908 77.3881 49.8479 79.7386 53.0773 81.6278C53.0235 80.4492 52.973 79.3514 52.9224 78.2536C52.9831 78.2435 53.0437 78.2333 53.1043 78.2232C53.2626 79.1998 53.4208 80.1798 53.5825 81.1934C56.6233 80.86 54.9631 78.7486 55.4245 76.9941C55.6636 78.6341 55.8387 79.8464 55.9902 80.9004C55.1147 81.3651 54.3334 81.9814 53.4579 82.1868C52.4072 82.4326 52.4948 82.995 52.7271 83.6853C52.9662 84.3959 53.074 85.3489 54.2593 84.9077C54.1987 85.0761 54.1381 85.2445 54.0775 85.4128C53.9697 85.7058 53.7239 86.0291 53.7778 86.2884C53.9125 86.9417 54.1819 87.568 54.5321 88.6052C53.7643 88.1237 53.4343 87.9183 53.5017 87.962C53.0504 89.895 52.5924 91.8515 52.1479 93.7474C53.1346 93.5487 53.8384 91.3935 55.2662 93.148C55.3504 92.9695 55.4043 92.6361 55.5356 92.6024C57.6672 92.0737 59.7854 91.4137 61.9541 91.1241C64.5773 90.7739 67.2478 90.7638 69.8912 90.555C70.7836 90.4843 71.804 89.9017 72.5179 90.1812C73.8009 90.6863 74.1343 89.8748 74.4104 89.1508C74.8516 88.0024 75.0671 86.7699 75.4106 85.4398C75.488 86.7228 75.3803 87.9082 75.6901 88.9689C75.8719 89.5885 76.6565 90.2115 77.3065 90.4506C77.7207 90.6021 78.5188 90.1812 78.9195 89.7872C79.5425 89.1743 79.9735 88.3661 80.7144 87.3155C79.5357 85.359 79.9903 82.7727 80.7918 80.3683C81.5697 78.0313 82.8965 75.8795 83.8966 73.8219C83.5464 73.8522 82.8931 73.9129 81.9368 73.997C81.5697 74.8726 80.4854 75.637 79.2798 75.0679C78.3369 74.6234 77.7341 73.4582 76.9832 72.613L76.4983 72.8285C76.9461 74.5224 77.3536 76.2297 77.8554 77.9067C78.182 78.9978 77.6735 82.042 76.8148 83.1667C76.8586 80.4828 77.4075 77.7585 75.323 75.6741C75.323 77.4959 75.9292 79.6746 75.1546 81.1058C74.3464 82.6044 72.2081 83.389 70.4132 84.6552C70.292 83.6584 70.2347 83.1735 70.1876 82.7862C70.5546 82.6212 71.1338 82.5168 71.1675 82.3181C71.3864 81.062 71.6019 79.7824 71.5615 78.5196C71.5447 78.0246 70.9318 77.4824 70.4839 77.0749C68.1199 74.9332 68.487 70.6801 71.2046 69.1815C71.4335 69.0569 71.7972 68.9727 72.0128 69.067C73.0904 69.5351 74.141 70.0705 75.2321 70.5925C74.2016 70.7205 73.0533 71.2155 72.2249 70.8922C70.3189 70.1547 70.1337 71.3738 69.7397 72.5456C70.292 73.2292 70.8106 73.8657 71.4403 74.6402C71.6356 74.2664 71.7737 74.0408 71.8781 73.7984C72.5448 72.2695 73.3564 71.4175 75.3769 71.6398C76.8923 71.8048 78.5895 71.0471 80.0678 70.3871C80.5864 70.1547 80.6807 68.9862 80.9838 68.2555C81.0174 68.1713 81.1589 68.1309 81.4518 67.9356C81.6674 68.3733 81.9536 68.7572 82.0546 69.1883C82.2466 70.0032 82.2634 70.8653 82.4991 71.6634C82.6271 72.091 83.0043 72.5254 83.3882 72.7612C83.6003 72.8925 84.1728 72.7309 84.3917 72.512C85.1561 71.7442 85.1392 69.4004 84.2974 68.7505C82.5934 67.4338 80.9433 65.9151 79.0138 65.0631C76.9259 64.1404 75.9729 62.7328 75.4644 60.6887C74.9559 58.6379 74.3128 56.6208 73.7167 54.5902C73.4035 53.5227 74.8448 51.5493 76.0504 51.519C74.242 54.4353 75.5857 57.2168 76.5185 60.2004C76.6969 59.8906 76.8721 59.5808 77.0505 59.271C76.1649 62.5644 76.4477 62.8506 79.465 64.4502C81.4485 65.5009 83.1794 67.0398 84.9776 68.4205C85.2942 68.6629 85.4356 69.1815 85.5838 69.5957C86.2674 71.5017 86.3886 73.4515 86.4829 75.4922C86.6344 78.8092 83.8394 80.0282 82.745 82.5707C82.3577 81.6951 82.1287 81.1765 81.8997 80.6546C81.7718 80.6882 81.6404 80.7219 81.5125 80.7556C81.2532 81.9241 80.9972 83.0926 80.7312 84.2881C85.0113 84.5979 87.2944 82.8535 87.9208 78.9809C88.1127 77.8057 88.0016 76.4418 88.5741 75.4956C90.4734 72.3739 90.2477 69.0266 89.8537 65.7029C89.3082 61.076 89.0119 56.0988 85.769 52.5326C79.0272 45.1242 70.6388 40.8946 60.3814 42.8814C52.1547 44.4742 47.6624 50.3067 47.228 59.3417C47.8544 58.9848 48.4976 58.8164 48.8175 58.3988C50.1813 56.6208 50.1476 56.5938 52.2725 57.3145C50.7886 57.5031 49.7132 58.318 49.0465 59.7593C48.6558 59.9916 48.2618 60.2274 47.8712 60.4597L47.8611 60.4631ZM46.6555 75.5932C46.541 75.4754 46.4265 75.3609 46.3087 75.243C46.5882 75.8458 46.861 76.4519 47.1472 77.0514C47.4267 77.644 47.7197 78.23 48.0059 78.8193C48.144 78.7385 48.282 78.661 48.4201 78.5802C48.3224 78.4152 48.208 78.2569 48.1305 78.0818C47.3829 76.3846 47.6995 75.829 49.5078 75.4686C50.1005 75.3508 50.6595 75.0645 51.4711 74.7682C50.2554 74.2092 49.3596 73.795 48.2282 73.273C47.787 73.923 47.2213 74.7581 46.6555 75.5932ZM80.9871 72.5389C82.3341 72.1449 82.3813 71.9597 81.2902 70.6733C80.4483 71.064 79.5997 71.4579 78.5693 71.9361C78.9296 72.8083 79.2293 73.6502 79.6603 74.4213C79.7075 74.5022 80.6403 74.2664 80.9467 73.96C81.1555 73.7546 80.9871 73.1686 80.9871 72.5389Z" fill="#005990"/>
<path d="M49.0357 59.7628C50.2581 59.0422 51.4771 58.3215 52.8376 57.5201C53.2619 58.3552 53.5279 58.8805 53.767 59.3486C54.1004 58.4394 54.4338 57.5437 54.7638 56.6445C54.9557 56.7119 55.1477 56.7759 55.3396 56.8432C54.9086 58.2744 54.4775 59.7022 54.0431 61.1368C55.5753 60.0154 56.0737 61.221 56.7506 62.4905C57.35 63.6186 58.2256 64.6154 59.0573 65.6054C60.1484 66.9053 60.5929 69.0032 59.8184 70.3603C59.5422 70.8419 58.9496 71.2258 58.4175 71.4346C58.2323 71.5053 57.7878 70.9025 57.3365 70.495C56.461 70.7476 55.4171 71.0473 54.225 71.3908C53.4909 70.2694 53.8815 69.0908 55.1241 67.8819C55.4878 67.5283 55.3329 66.5248 55.2352 65.8445C55.1712 65.4067 54.7772 65.0161 54.5281 64.6019C54.2789 65.1778 53.9825 65.8681 53.5548 66.8649V62.2009C53.3898 62.1807 53.2282 62.1605 53.0632 62.1403C53.7232 64.282 53.3057 66.1813 51.7431 67.6158C50.9787 68.3196 49.7765 69.1817 48.9481 69.0268C47.857 68.8247 46.7896 67.8078 46.8434 66.3025C46.8535 66.0297 46.8098 65.7199 46.6885 65.4775C45.6951 63.4738 46.0959 61.8136 47.8604 60.4633C48.251 60.2309 48.645 59.9952 49.0357 59.7628Z" fill="#005990"/>
<path d="M54.2556 84.9039C54.0603 84.3281 53.8683 83.7522 53.5215 82.7285C54.7304 84.089 55.6262 85.0959 56.6061 86.2004C55.8215 86.5641 55.3534 86.7796 54.754 87.0591C54.5284 86.5102 54.2994 85.9613 54.0738 85.4124C54.1344 85.244 54.195 85.0757 54.2556 84.9073V84.9039Z" fill="#005990"/>
<path d="M59.8901 57.5133C60.6545 56.6074 61.5671 55.5264 62.7794 54.0919C61.8399 54.56 61.2337 54.863 60.7219 55.119C61.4425 53.2736 62.8265 52.8897 64.8167 53.6507C65.928 54.0751 67.2716 53.9403 68.5109 53.9572C72.1343 54.001 72.6158 54.3714 73.0368 57.9477C73.2085 59.3856 73.4341 60.8909 73.1748 62.2783C73.03 63.0494 72.0164 63.7835 71.2318 64.2685C70.592 64.6624 69.7164 64.7029 68.9318 64.8308C66.0223 65.3023 63.9176 63.4704 62.9343 60.4868C62.5302 59.261 60.8835 58.4427 59.8867 57.5166L59.8901 57.5133ZM64.8706 54.9843C65.9179 55.0887 66.9652 55.284 68.0125 55.2806C69.8848 55.2772 71.7033 55.2469 71.9895 57.8904C72.1276 54.8866 70.9254 54.3849 64.8706 54.9843Z" fill="#005990"/>
<path d="M63.6641 68.2627V67.1009C66.257 66.7844 68.722 65.0737 71.2914 66.653C70.3721 67.3434 69.5168 68.3435 68.456 68.6702C67.5636 68.9429 66.4355 68.4041 65.4051 68.2762C64.8932 68.2122 64.3645 68.2661 63.6674 68.2661L63.6641 68.2627Z" fill="#005990"/>
<path d="M58.796 80.7961C59.7052 80.1697 60.4494 79.9004 60.7525 79.375C61.0455 78.8699 60.8771 78.0987 61.1667 77.4219C61.0994 78.6544 60.8165 80.0216 62.5137 80.1664C62.9683 80.2068 63.5172 79.1528 63.7833 78.8598C63.9079 80.621 64.0661 80.7624 65.3054 79.934C65.6758 80.264 66.0159 80.5671 66.356 80.8736C66.6995 80.2034 67.043 79.5333 67.3865 78.8598C67.4572 78.8665 67.5313 78.8766 67.602 78.8834C67.1541 80.5065 66.7063 82.133 66.218 83.9144C65.4232 82.9614 67.309 81.6009 65.4906 81.2204C62.507 80.5941 62.4969 80.6446 61.985 82.8233C61.8806 82.005 61.783 81.2204 61.6853 80.4358C60.8232 81.7424 58.4694 79.237 58.3784 81.8771C58.1393 81.5167 57.907 81.1699 57.8262 81.0487C57.9979 79.7589 58.1461 78.6342 58.2943 77.5061C58.3986 77.5364 58.5064 77.5667 58.6108 77.597C58.6647 78.5062 58.7152 79.4154 58.796 80.7961Z" fill="#005990"/>
<path d="M74.0879 67.9859C75.3372 67.4336 76.2465 67.0295 77.3207 66.5547C77.3948 67.2349 77.4689 67.9051 77.5766 68.8985C76.2768 68.5583 75.2901 68.299 74.0879 67.9859Z" fill="#005990"/>
<path d="M56.7812 59.7355C56.8587 58.9913 56.9395 58.2471 57.0203 57.4658C58.1316 57.8632 59.1587 58.2269 60.1892 58.5939C60.1588 58.7556 60.1319 58.9138 60.1016 59.0755C58.9028 58.5198 57.7578 58.1427 57.2527 59.8972C57.0944 59.8433 56.9395 59.7894 56.7812 59.7355Z" fill="#005990"/>
</g>
<g style="mix-blend-mode:multiply">
<path d="M71.3619 1.78125C109.169 1.78125 139.927 32.5399 139.927 70.3501C139.927 108.16 109.169 138.916 71.3619 138.916C33.555 138.916 2.79297 108.157 2.79297 70.3501C2.79297 32.5433 33.555 1.78125 71.3619 1.78125ZM138.974 70.3501C138.974 33.0686 108.643 2.73762 71.3619 2.73762C34.0803 2.73762 3.74934 33.0686 3.74934 70.3501C3.74934 107.632 34.0803 137.963 71.3619 137.963C108.643 137.963 138.974 107.632 138.974 70.3501Z" fill="#E3B82C"/>
<path d="M71.3625 2.7373C108.644 2.7373 138.975 33.0683 138.975 70.3498C138.975 107.631 108.644 137.962 71.3625 137.962C34.081 137.962 3.75 107.631 3.75 70.3498C3.75 33.0683 34.081 2.7373 71.3625 2.7373ZM125.05 70.3498C125.05 40.7428 100.966 16.6585 71.3625 16.6585C41.7589 16.6585 17.6712 40.7428 17.6712 70.3498C17.6712 99.9568 41.7589 124.038 71.3625 124.038C100.966 124.038 125.05 99.9535 125.05 70.3498Z" fill="#E3B82C"/>
<path d="M71.3612 16.6592C100.965 16.6592 125.049 40.7435 125.049 70.3505C125.049 99.9575 100.965 124.038 71.3612 124.038C41.7576 124.038 17.6699 99.9541 17.6699 70.3505C17.6699 40.7469 41.7576 16.6592 71.3612 16.6592ZM124.096 70.3505C124.096 41.2722 100.44 17.6155 71.3612 17.6155C42.2829 17.6155 18.6263 41.2722 18.6263 70.3505C18.6263 99.4288 42.2829 123.085 71.3612 123.085C100.44 123.085 124.096 99.4288 124.096 70.3505Z" fill="#E3B82C"/>
</g>
</g>
<defs>
<clipPath id="clip0_3397_10493">
<rect width="139.775" height="139" fill="white" transform="translate(0.240234)"/>
</clipPath>
</defs>
</svg>
