<?xml version="1.0" encoding="UTF-8"?>
<svg id="Layer_1" data-name="Layer 1" xmlns="http://www.w3.org/2000/svg" width="111" height="106" viewBox="0 0 111 106">
  <path d="M26.58,30.12l3.44-3.61,1.23,1.07-4.88,5.13-6.62-5.74,4.79-5.01,1.23,1.07-3.32,3.48,4.14,3.61h-.01ZM23.75,27.88l3.04-3.17,1.2,1.04-3.04,3.17s-1.2-1.04-1.2-1.04Z" fill="#f60"/>
  <path d="M33.65,25.81l-4.79-7.2,1.83-1.11,3.89,5.84,3.99-2.41.91,1.36s-5.83,3.52-5.83,3.52Z" fill="#f60"/>
  <path d="M49.66,19.34l-5.23-7.93,2.33-.31,4.58,7.03-1.37.18,2.49-7.93,2.14-.28-2.82,8.98-2.13.27h0Z" fill="#f60"/>
  <path d="M58,18.93l.8-8.5,2.17.19-.8,8.5s-2.17-.19-2.17-.19Z" fill="#f60"/>
  <path d="M66.34,18.7l4.87,1.5-.51,1.51-6.92-2.13,2.75-8.12,6.75,2.08-.51,1.51-4.7-1.45-1.73,5.11h0ZM67.33,15.32l4.3,1.32-.49,1.46-4.3-1.32s.49-1.46.49-1.46Z" fill="#f60"/>
  <path d="M74.74,24.11c-.51-.3-.95-.71-1.29-1.19-.31-.43-.52-.92-.58-1.45l1.76-.48c.03.35.13.7.29,1.01.15.28.37.51.65.67.74.46,1.38.29,1.92-.5l2.3-3.42-2.79-1.7.9-1.33,4.6,2.82-3.14,4.66c-.6.89-1.29,1.4-2.06,1.55-.77.14-1.62-.06-2.55-.63h-.01Z" fill="#f60"/>
  <path d="M83.29,31.05c-.46-.5-.83-1.07-1.09-1.7-.23-.57-.35-1.17-.34-1.79,0-.59.14-1.16.4-1.69.27-.55.66-1.03,1.15-1.42.48-.4,1.04-.7,1.64-.87.59-.17,1.21-.21,1.82-.14.63.08,1.25.27,1.81.57.6.32,1.14.75,1.6,1.25.46.49.83,1.07,1.08,1.69.23.57.34,1.17.33,1.78-.01.59-.15,1.16-.4,1.69-.27.56-.66,1.05-1.14,1.44-.48.4-1.05.7-1.65.87-.59.17-1.21.21-1.82.14-.63-.08-1.24-.27-1.8-.57-.6-.33-1.14-.75-1.59-1.26h0ZM84.62,29.93c.26.29.57.53.91.71.33.17.69.27,1.06.31.37.03.74,0,1.09-.12.38-.12.72-.31,1.03-.57.3-.24.55-.55.73-.89.16-.31.26-.66.28-1.01s-.04-.71-.17-1.04c-.14-.36-.35-.69-.61-.97-.26-.29-.57-.53-.91-.71-.33-.17-.69-.27-1.05-.3-.37-.03-.74,0-1.1.11-.37.12-.72.31-1.02.57-.3.24-.55.54-.73.88-.17.31-.27.66-.29,1.02-.02.36.04.71.17,1.04.14.36.34.68.6.97h.01Z" fill="#f60"/>
  <path d="M28.43,86.77c-.57-.42-1.06-.93-1.44-1.52-.35-.53-.59-1.12-.71-1.75-.11-.61-.08-1.23.08-1.83s.45-1.15.86-1.62c.4-.5.91-.9,1.48-1.19.57-.28,1.18-.44,1.81-.48.66-.04,1.32.05,1.95.25.68.21,1.31.54,1.87.98.57.41,1.05.93,1.44,1.51.35.53.58,1.12.7,1.74.1.59.08,1.2-.06,1.79-.16.61-.46,1.18-.87,1.66-.4.5-.91.91-1.49,1.19-.57.28-1.18.44-1.82.48-.65.03-1.31-.05-1.93-.25-.67-.21-1.31-.54-1.87-.97h0ZM29.54,85.39c.32.25.68.43,1.07.55.37.11.75.15,1.13.12s.75-.14,1.08-.32c.36-.19.67-.45.92-.76.26-.3.45-.65.57-1.04.1-.35.13-.72.07-1.08-.05-.36-.18-.71-.38-1.02-.44-.68-1.11-1.18-1.88-1.42-.37-.11-.75-.15-1.13-.12-.38.04-.75.14-1.09.32-.35.19-.67.45-.92.77-.25.3-.44.65-.56,1.03-.1.35-.13.72-.08,1.08.06.36.19.71.4,1.02.21.34.49.63.81.87,0,0-.01,0,0,0Z" fill="#f60"/>
  <path d="M40.2,92.93l-2.12-.7,3.02-8.33,6.92,2.29-.56,1.54-4.79-1.59s-2.47,6.79-2.47,6.79ZM41.7,88.3l4.39,1.45-.56,1.54-4.39-1.45.56-1.54Z" fill="#f60"/>
  <path d="M50.1,95.23l.88-8.76,2.23.21-.89,8.78-2.23-.23h0Z" fill="#f60"/>
  <path d="M62.95,95.06c-.7.11-1.42.1-2.11-.02-.64-.11-1.25-.35-1.8-.69-.52-.33-.97-.76-1.32-1.27-.35-.52-.58-1.12-.69-1.74-.1-.62-.07-1.26.09-1.86.17-.58.47-1.12.86-1.59.42-.49.92-.89,1.49-1.19.62-.32,1.3-.53,1.99-.63.77-.13,1.55-.11,2.31.06.69.15,1.33.46,1.88.9l-1.22,1.4c-.36-.28-.77-.49-1.22-.6-.44-.11-.91-.13-1.36-.06-.42.06-.82.2-1.2.4-.34.18-.64.42-.88.72-.23.29-.4.62-.49.98-.1.38-.11.78-.04,1.16.05.39.19.76.4,1.1.21.32.48.59.8.79.32.21.69.35,1.07.42.42.07.85.07,1.26,0,.45-.06.88-.21,1.27-.45s.72-.56.97-.94l1.6.98c-.38.58-.9,1.06-1.5,1.4-.67.38-1.4.62-2.17.73h0Z" fill="#f60"/>
  <path d="M71.79,92.51l-3.69-8.06,2.05-.85,3.69,8.06-2.05.85Z" fill="#f60"/>
  <path d="M83.1,86.26c-.56.44-1.19.79-1.87,1.02-.62.21-1.28.31-1.94.28-.63-.03-1.25-.18-1.82-.45-.58-.28-1.09-.67-1.51-1.16-.42-.47-.72-1.03-.9-1.64-.16-.58-.2-1.2-.1-1.79.1-.62.33-1.22.67-1.76.37-.59.84-1.11,1.4-1.54.56-.44,1.18-.79,1.86-1.01.62-.21,1.27-.3,1.93-.27.63.03,1.25.18,1.82.44.58.27,1.1.67,1.52,1.16.42.48.73,1.04.9,1.65.16.58.2,1.19.1,1.79-.1.62-.33,1.21-.67,1.75-.37.59-.84,1.11-1.4,1.53h.01ZM81.94,84.92c.32-.24.59-.54.8-.88.19-.31.31-.66.36-1.03.05-.36.02-.73-.09-1.08-.18-.56-.53-1.06-.99-1.43s-1.03-.6-1.62-.65c-.38-.03-.76.02-1.13.13-.39.13-.75.32-1.07.57-.32.24-.59.54-.8.88-.19.31-.31.66-.36,1.03-.05.36-.02.73.1,1.08.12.38.32.73.58,1.02.26.31.57.56.93.74.34.18.71.28,1.09.31s.76-.02,1.13-.13c.39-.13.74-.32,1.06-.57h.01Z" fill="#f60"/>
  <path d="M39.73,49.8c1.86-1.71,3.49-3.06,4.93-4.58,2.09-2.2,4.44-3.92,7.47-4.76,1.01-.3,1.99-.68,2.93-1.15.93-.45,1.4.18,1.73.71.16.27-.09.96-.4,1.25-3.89,3.77-7.83,7.49-11.73,11.25-.65.62-1.09.68-1.76.02-.9-.89-1.93-1.67-3.18-2.74h0Z" fill="#f60"/>
  <path d="M48.79,49.44l2.23-2.17c1.82,1.8,3.56,3.57,5.34,5.26,4.86,4.67,9.74,9.33,14.63,13.98,1.1,1.05.91,2.12-.57,2.65-.37.13-1.1-.22-1.46-.56-3.47-3.26-6.91-6.55-10.37-9.84l-9.8-9.34v.02Z" fill="#f60"/>
  <path d="M44,44.59c-.3-.93.76-1.98,2.26-1.73l-2.26,1.73Z" fill="#f60"/>
  <path d="M14.59,52.8c0,6.98,1.95,13.83,5.63,19.78.1.16.25.3.42.39s.36.14.56.14.39-.04.56-.13.31-.23.41-.39c.1-.17.15-.35.16-.55,0-.19-.05-.38-.15-.55-2.56-4.15-4.25-8.77-4.95-13.58-.7-4.82-.41-9.72.87-14.42.04-.16.04-.33,0-.5-.04-.16-.11-.32-.22-.45-.11-.13-.24-.24-.39-.31s-.32-.11-.49-.1c-.24,0-.48.07-.68.21s-.34.35-.41.58c-.88,3.22-1.32,6.54-1.32,9.87h0Z" fill="#f60"/>
  <path d="M94.42,42.15c-.17,0-.34.03-.49.1s-.29.18-.39.31c-.11.13-.18.28-.22.45-.04.16-.03.33,0,.5,1.28,4.7,1.58,9.6.88,14.42-.7,4.81-2.38,9.44-4.95,13.58-.1.17-.15.36-.15.55s.06.38.16.55c.1.17.24.3.41.39.17.09.36.14.56.13.19,0,.39-.05.56-.14s.32-.23.42-.39c2.71-4.39,4.49-9.28,5.23-14.38.74-5.1.43-10.29-.92-15.26-.07-.23-.22-.44-.42-.58-.2-.14-.44-.22-.68-.21h0v-.02Z" fill="#f60"/>
  <path d="M29.69,52.1c.02.38-.09.76-.29,1.09s-.5.58-.85.74-.74.21-1.12.14c-.38-.07-.73-.24-1.01-.51-.28-.27-.47-.61-.55-.98s-.05-.76.1-1.12c.14-.36.39-.66.71-.87s.7-.33,1.08-.33c.5,0,.99.18,1.35.53s.57.82.58,1.32h0Z" fill="#f60"/>
  <path d="M85.6,52.1c.02.38-.08.76-.29,1.09-.2.33-.5.59-.85.74-.35.16-.74.21-1.12.14-.38-.07-.73-.24-1.01-.51-.28-.27-.47-.61-.55-.98-.08-.38-.05-.77.1-1.12.14-.36.39-.66.71-.88.32-.21.7-.33,1.08-.33.5,0,.99.18,1.35.53s.57.82.58,1.32Z" fill="#f60"/>
  <path d="M54.79,105.31h-.06c-.43,0-.86-.11-1.25-.3s-.73-.47-1-.8c-.13-.16-.29-.3-.48-.4s-.39-.16-.6-.17c-.21-.02-.42.01-.62.08s-.38.18-.54.32c-.32.29-.7.51-1.11.64s-.85.16-1.28.1c-.43-.06-.84-.21-1.2-.44-.36-.24-.66-.55-.89-.92-.11-.18-.25-.33-.42-.45-.17-.12-.37-.2-.57-.24-.21-.04-.42-.04-.62,0-.21.04-.4.13-.57.25-.36.25-.76.42-1.19.5s-.87.06-1.29-.06c-.42-.1-.8-.3-1.13-.57-.33-.28-.59-.62-.76-1.01-.08-.19-.21-.36-.36-.49-.15-.14-.34-.24-.53-.3-.2-.07-.41-.09-.62-.07s-.42.08-.6.18c-.38.21-.81.33-1.25.35-.44.03-.87-.05-1.28-.21-.4-.15-.76-.4-1.05-.71s-.5-.69-.62-1.1c-.06-.2-.16-.38-.3-.54s-.31-.28-.5-.37c-.19-.09-.4-.14-.61-.15-.21,0-.42.03-.62.11-.41.16-.84.23-1.28.2-.44-.03-.86-.15-1.24-.36-.37-.2-.7-.48-.94-.83-.25-.34-.41-.74-.47-1.16-.03-.2-.11-.4-.22-.57-.11-.17-.26-.32-.44-.42-.18-.11-.37-.18-.58-.22-.21-.03-.42-.02-.62.03-.42.11-.86.13-1.29.05s-.84-.25-1.19-.51c-.35-.24-.63-.57-.83-.94s-.31-.79-.31-1.21c0-.2-.05-.4-.14-.59-.09-.18-.22-.35-.38-.47-.16-.13-.35-.23-.55-.29-.2-.06-.42-.07-.62-.04-.43.06-.87.02-1.28-.11s-.79-.35-1.11-.64c-.31-.28-.55-.64-.7-1.03-.15-.4-.2-.82-.15-1.24.02-.2,0-.41-.06-.6-.06-.19-.17-.37-.31-.52-.14-.15-.31-.27-.51-.35-.19-.08-.4-.12-.6-.12h-.05c-.43,0-.85-.09-1.24-.27-.39-.18-.73-.44-1.01-.77-.27-.32-.47-.7-.56-1.11-.1-.41-.09-.84.01-1.24.05-.2.06-.4.02-.6s-.12-.39-.25-.55c-.12-.17-.28-.31-.46-.41-.18-.1-.38-.17-.59-.19-.43-.04-.85-.18-1.22-.41s-.68-.53-.91-.89c-.23-.35-.36-.75-.41-1.16-.04-.41.02-.83.17-1.22.08-.19.11-.4.1-.6-.01-.21-.07-.41-.17-.59-.1-.18-.24-.34-.41-.46s-.36-.21-.56-.26c-.42-.09-.81-.28-1.15-.55-.34-.27-.61-.61-.79-1-.18-.38-.27-.8-.25-1.22s.13-.83.34-1.2c.1-.18.16-.37.17-.57s-.02-.4-.09-.59c-.08-.19-.19-.37-.34-.51s-.33-.25-.52-.32c-.41-.14-.77-.38-1.07-.68s-.52-.68-.66-1.08c-.13-.4-.16-.82-.09-1.24.07-.41.24-.81.49-1.14.12-.16.21-.35.25-.55.04-.2.03-.4-.02-.6s-.14-.38-.27-.54c-.13-.16-.29-.29-.47-.38-.38-.19-.72-.46-.97-.8-.26-.34-.43-.73-.51-1.15-.07-.41-.05-.84.07-1.24s.34-.77.64-1.07c.14-.15.25-.32.32-.52.07-.19.09-.4.07-.6-.02-.2-.09-.4-.2-.57-.11-.17-.25-.32-.42-.43-.35-.24-.64-.55-.85-.92-.21-.37-.33-.78-.35-1.2-.02-.42.06-.84.24-1.23.18-.38.44-.72.77-.98.16-.13.29-.29.38-.47s.14-.38.14-.59-.04-.41-.12-.59c-.08-.19-.21-.35-.36-.49-.32-.27-.57-.62-.73-1.01s-.22-.81-.19-1.23c.04-.42.17-.83.4-1.19.22-.36.53-.66.89-.88.17-.12.31-.27.42-.45.1-.18.17-.37.19-.58.03-.2.02-.41-.04-.6-.06-.2-.16-.37-.3-.52-.28-.31-.49-.69-.59-1.1-.11-.41-.12-.83-.02-1.24.09-.42.28-.8.55-1.13s.61-.59,1-.77c.19-.08.36-.21.5-.36.14-.16.24-.34.3-.54.06-.19.07-.4.04-.6-.03-.2-.11-.39-.23-.56-.24-.34-.39-.74-.44-1.15-.05-.41,0-.83.13-1.23.15-.4.38-.76.7-1.06.31-.3.69-.52,1.1-.64.2-.06.38-.16.53-.3s.28-.3.36-.49c.08-.19.13-.39.12-.6,0-.21-.06-.41-.15-.59-.19-.37-.29-.79-.29-1.21s.1-.83.29-1.21c.2-.38.48-.71.83-.96s.75-.43,1.17-.51c.21-.04.4-.12.57-.24.17-.12.32-.27.42-.45.11-.17.17-.37.19-.57.02-.2,0-.41-.07-.6-.14-.39-.18-.82-.13-1.23.06-.41.21-.81.45-1.15.25-.35.57-.65.95-.86.38-.21.8-.34,1.23-.36.21-.01.41-.07.6-.17.19-.1.35-.23.48-.39.13-.16.22-.34.27-.54s.05-.4,0-.6c-.09-.41-.07-.84.04-1.24.11-.41.32-.78.6-1.09.29-.32.65-.57,1.05-.74.4-.16.83-.24,1.27-.22.21.01.42-.02.62-.09s.38-.19.53-.33c.14-.14.25-.32.32-.51s.09-.39.08-.6c-.03-.42.04-.84.2-1.23s.42-.73.74-1.01c.33-.28.72-.49,1.14-.61s.86-.14,1.29-.06c.21.04.42.03.63-.02s.4-.14.57-.27c.16-.12.3-.28.4-.46s.15-.38.17-.58c.02-.42.15-.83.36-1.2.21-.37.51-.68.87-.91.36-.24.78-.4,1.21-.46.43-.06.87-.03,1.29.09.2.06.42.08.63.05s.41-.09.59-.2c.18-.1.33-.24.45-.41s.2-.36.24-.56c.08-.42.26-.81.51-1.15.26-.34.59-.61.98-.8.39-.2.82-.3,1.26-.32.44-.01.87.07,1.27.25.19.08.4.13.61.13s.42-.04.61-.13c.19-.08.36-.2.49-.35.14-.15.24-.33.3-.52.13-.41.36-.77.66-1.08s.67-.53,1.08-.67c.41-.15.85-.2,1.28-.16.44.04.86.18,1.23.4.18.11.38.17.59.2s.42,0,.62-.05c.2-.06.39-.16.55-.3.16-.14.29-.31.38-.5.19-.39.46-.72.8-.99s.73-.45,1.15-.54c.43-.1.88-.11,1.31-.02s.84.28,1.19.55c.17.13.36.22.57.27s.42.06.63.02c.21-.03.4-.11.58-.22.18-.11.32-.26.44-.44.24-.36.55-.66.92-.89.37-.22.79-.36,1.22-.4.44-.05.88,0,1.29.14s.79.38,1.1.68c.15.15.33.26.52.34.2.08.41.11.62.1.21,0,.42-.06.61-.15.19-.09.36-.22.49-.38.28-.33.64-.59,1.03-.76.4-.18.83-.26,1.26-.26s.86.11,1.25.3.73.46,1,.8c.13.16.29.3.48.4.19.1.39.16.6.17.21.02.42,0,.62-.08s.38-.18.54-.32c.32-.29.7-.51,1.11-.64s.85-.16,1.28-.1c.43.05.84.2,1.2.44s.66.55.89.92c.11.18.25.33.42.45.17.12.37.2.57.24.21.04.42.04.62,0,.21-.04.4-.13.57-.25.36-.25.76-.42,1.19-.5s.87-.06,1.29.05.8.3,1.13.58c.33.27.59.62.76,1.01.08.19.21.35.36.49s.34.24.53.3c.2.07.41.09.62.07s.42-.08.6-.18c.38-.21.81-.33,1.24-.35.44-.02.87.05,1.28.21.4.15.76.4,1.05.71s.5.69.62,1.1c.06.2.16.38.3.54s.31.28.5.36c.19.09.4.14.61.15s.42-.03.62-.11c.41-.16.84-.23,1.28-.2s.86.15,1.24.36c.37.2.7.48.94.83.25.34.41.74.47,1.16.03.2.11.4.22.57s.26.31.44.42.37.19.58.22c.21.03.42.02.62-.03.42-.11.86-.13,1.29-.05s.84.25,1.19.51c.35.24.63.57.83.94.2.37.31.79.31,1.21,0,.22.04.43.13.62.09.2.23.37.4.5.17.14.36.23.56.29.21.06.42.07.63.04.43-.06.87-.02,1.28.11.41.13.79.35,1.11.64.31.28.55.64.7,1.03.15.39.2.82.15,1.24-.03.2,0,.41.06.6s.17.37.31.52.32.27.51.35.4.12.61.12h.04c.43,0,.85.09,1.24.27s.73.44,1.01.77c.27.32.47.7.56,1.11.1.41.09.84-.01,1.24-.05.2-.06.4-.02.6s.12.39.25.55c.12.17.28.31.46.41s.38.17.59.19c.43.04.85.18,1.21.41.37.22.68.53.92.89.23.35.37.76.41,1.17.04.42-.02.84-.18,1.23-.08.19-.11.39-.1.59s.07.4.17.58.24.34.41.46.36.21.56.25c.42.09.82.28,1.15.55.34.27.61.61.79,1,.18.38.27.8.25,1.21-.01.42-.13.83-.34,1.19-.1.18-.17.38-.18.59s.02.41.1.6c.07.19.19.37.34.51.15.14.33.25.52.32.4.14.77.37,1.07.68s.52.68.66,1.08c.13.4.16.82.09,1.24-.07.41-.24.81-.49,1.14-.12.16-.21.35-.25.55s-.03.4.02.6c.05.2.14.38.27.54s.29.29.47.38c.38.19.72.46.97.8.26.34.43.73.51,1.15.07.41.05.84-.08,1.24-.12.4-.34.77-.64,1.07-.15.14-.26.32-.33.51s-.09.4-.07.6c.02.2.09.4.2.57s.25.32.42.44c.35.23.65.55.86.91.21.37.33.78.35,1.2.02.42-.06.84-.24,1.23-.17.38-.44.72-.77.99-.16.13-.29.29-.38.47s-.14.38-.14.59.04.41.12.59c.08.19.21.35.36.48.32.28.57.63.73,1.02s.22.82.19,1.24c-.04.42-.17.83-.4,1.19-.22.36-.53.66-.9.88-.17.11-.32.25-.44.42-.11.17-.19.36-.22.57-.03.2-.02.41.04.6s.16.37.29.53c.28.31.49.69.6,1.09.11.41.12.83.03,1.24-.09.42-.28.8-.55,1.13-.27.33-.61.59-1,.77-.19.08-.36.21-.5.36-.14.16-.24.34-.3.54-.06.19-.07.4-.04.6s.11.39.23.56c.24.34.39.74.44,1.15s0,.83-.13,1.23c-.15.4-.39.76-.7,1.06-.31.3-.68.52-1.1.64-.2.06-.38.16-.53.3-.16.14-.28.3-.36.49-.09.19-.13.39-.12.6,0,.21.06.41.15.59.19.37.3.79.3,1.21s-.1.83-.3,1.21c-.2.38-.48.71-.83.96s-.74.43-1.17.51c-.21.04-.4.12-.57.24-.17.12-.32.27-.42.45-.11.17-.17.37-.19.57-.02.2,0,.41.07.6.14.39.18.82.13,1.23-.06.41-.21.81-.45,1.15-.25.35-.57.65-.95.86s-.8.34-1.23.36c-.21.01-.41.07-.6.17-.19.1-.35.23-.48.4-.13.16-.22.34-.26.54-.05.2-.05.4,0,.6.09.41.07.84-.04,1.24-.11.41-.32.78-.6,1.09-.29.32-.65.57-1.05.74-.4.16-.84.24-1.27.21-.21-.01-.42.02-.62.09-.2.07-.38.19-.53.33s-.26.31-.33.5-.1.39-.09.6c.03.42-.04.84-.2,1.23-.16.39-.42.74-.74,1.01-.33.28-.72.49-1.14.61s-.86.14-1.29.06c-.21-.04-.42-.03-.63.02-.21.05-.4.14-.57.27-.16.12-.3.28-.4.46s-.15.38-.17.58c-.02.42-.15.83-.36,1.2-.21.37-.51.68-.86.91-.36.24-.78.4-1.21.46s-.87.03-1.29-.09c-.2-.06-.41-.07-.61-.05-.21.03-.4.09-.58.19-.18.1-.33.24-.45.41-.12.17-.2.36-.24.56-.08.42-.26.81-.51,1.15-.26.34-.59.61-.98.8-.39.2-.82.3-1.26.32-.44.01-.87-.07-1.27-.24-.19-.08-.4-.13-.61-.13s-.42.04-.61.13c-.19.08-.36.2-.49.35-.14.15-.24.33-.3.52-.13.4-.36.78-.66,1.08s-.67.53-1.08.67c-.41.15-.85.2-1.29.16-.44-.04-.86-.18-1.23-.4-.18-.1-.38-.17-.58-.2-.21-.03-.41-.01-.61.05-.2.06-.39.15-.55.29-.16.13-.29.3-.38.49-.19.39-.46.73-.8.99-.34.26-.73.45-1.16.54-.42.1-.87.1-1.29.01-.43-.09-.83-.28-1.17-.54-.17-.13-.36-.22-.57-.27-.21-.05-.42-.06-.63-.02-.21.03-.4.11-.58.22s-.32.26-.44.43c-.24.36-.55.66-.92.89-.37.22-.79.36-1.22.4-.44.05-.88,0-1.29-.14s-.79-.38-1.1-.68c-.15-.15-.33-.26-.52-.34-.2-.08-.41-.11-.62-.1-.21,0-.42.06-.6.15-.19.09-.36.22-.49.38-.28.32-.63.58-1.02.75s-.81.26-1.24.25v.04ZM51.29,102.31h.24c.4.03.79.14,1.15.33s.67.45.92.76c.14.18.32.32.52.42s.42.15.65.15.45-.04.66-.13.39-.23.54-.4c.26-.31.58-.55.95-.73.36-.18.76-.27,1.16-.29.4-.02.81.05,1.19.19.38.14.72.36,1.01.65.16.16.36.28.57.35s.44.1.67.07c.22-.02.44-.09.63-.21.19-.12.36-.27.48-.46.22-.34.51-.62.85-.84.34-.22.72-.36,1.12-.42.4-.07.81-.05,1.2.05.39.1.76.27,1.08.52.18.14.39.23.61.28.22.05.45.04.67,0,.22-.05.42-.14.6-.28s.32-.31.41-.51c.17-.36.42-.68.73-.93.31-.26.66-.44,1.05-.56.39-.11.8-.15,1.2-.1.4.05.79.18,1.14.39.2.11.41.18.64.21.23.02.45,0,.67-.09.21-.07.4-.19.56-.35s.27-.35.34-.56c.13-.38.33-.72.6-1.01s.6-.52.97-.67c.37-.16.78-.24,1.18-.24s.81.08,1.18.24c.21.09.43.13.66.13s.45-.06.65-.16c.2-.1.38-.24.52-.41.14-.18.23-.38.28-.6.07-.39.23-.75.46-1.08.23-.32.53-.59.87-.78.35-.2.74-.33,1.14-.38.4-.05.81-.01,1.2.1.22.06.45.08.67.05s.44-.12.63-.24c.19-.12.34-.28.45-.47s.18-.4.19-.62c.02-.39.13-.78.32-1.12.19-.35.45-.65.76-.88.32-.24.69-.42,1.09-.52.39-.1.8-.11,1.2-.04.22.04.45.03.67-.03s.42-.17.59-.32c.17-.14.3-.32.38-.52.08-.2.12-.42.1-.64-.03-.39.03-.78.16-1.15.14-.37.35-.7.63-.97.29-.28.63-.5,1.01-.64.38-.14.78-.21,1.19-.19.22,0,.45-.03.65-.12.21-.09.39-.22.54-.38.15-.16.26-.36.31-.57.06-.21.06-.43.02-.65-.08-.38-.08-.78.02-1.16.09-.38.26-.74.51-1.04.25-.31.57-.57.92-.76.36-.19.75-.3,1.15-.32.22-.01.44-.08.64-.19s.36-.26.49-.45c.13-.18.21-.38.24-.6s0-.44-.06-.64c-.13-.37-.18-.76-.14-1.15s.16-.76.37-1.1.49-.63.82-.86.71-.38,1.1-.46c.22-.04.43-.13.61-.26.18-.13.33-.3.43-.5.1-.19.15-.41.15-.62s-.05-.43-.15-.62c-.18-.35-.28-.73-.29-1.12s.06-.78.22-1.14.4-.69.7-.95c.3-.27.65-.46,1.03-.59.21-.07.41-.18.57-.33.16-.15.28-.34.36-.55.08-.2.1-.42.07-.64s-.11-.42-.23-.6c-.22-.32-.37-.69-.43-1.07s-.04-.78.07-1.15c.11-.38.31-.73.57-1.03.26-.3.58-.54.94-.71.2-.09.38-.23.51-.4.14-.17.24-.37.28-.59.05-.21.04-.43-.01-.65-.06-.21-.16-.41-.31-.57-.26-.29-.46-.64-.57-1.01-.11-.38-.14-.77-.08-1.16s.21-.76.43-1.09.51-.6.85-.81c.19-.12.35-.27.46-.46.12-.19.19-.4.21-.62.02-.22-.02-.44-.1-.64s-.21-.38-.38-.53c-.3-.26-.54-.58-.7-.93-.16-.36-.24-.75-.23-1.14,0-.39.1-.78.28-1.13.17-.35.43-.66.74-.91.17-.14.31-.31.4-.51.09-.2.13-.42.12-.64,0-.22-.07-.43-.18-.62s-.26-.35-.45-.47c-.33-.22-.6-.51-.81-.84-.21-.34-.34-.71-.39-1.1-.04-.39,0-.78.13-1.15.13-.37.33-.71.61-.99.15-.16.26-.34.33-.55.06-.21.08-.43.04-.64-.04-.22-.13-.42-.26-.6-.13-.18-.31-.32-.51-.42-.35-.18-.67-.43-.92-.74s-.43-.67-.53-1.05c-.09-.38-.1-.77-.02-1.16.08-.38.24-.74.47-1.06.13-.17.22-.38.25-.59.04-.22.02-.44-.05-.64-.07-.21-.18-.4-.34-.56-.15-.16-.35-.28-.55-.35-.38-.13-.72-.34-1-.62-.29-.27-.51-.6-.66-.97-.14-.36-.2-.75-.18-1.14.03-.39.14-.77.33-1.11.11-.19.17-.4.18-.62,0-.22-.04-.43-.13-.63-.1-.2-.24-.37-.41-.51-.17-.14-.38-.23-.59-.28-.39-.09-.76-.26-1.08-.5s-.59-.54-.78-.89c-.19-.34-.3-.72-.32-1.11-.03-.39.04-.78.18-1.14.08-.2.12-.42.09-.64-.02-.22-.09-.43-.21-.61-.12-.19-.28-.35-.48-.46-.19-.12-.41-.19-.63-.21-.4-.04-.79-.17-1.14-.36-.35-.2-.65-.47-.89-.79-.23-.31-.39-.68-.47-1.06s-.07-.78.03-1.16c.05-.21.06-.43,0-.64-.05-.21-.15-.41-.29-.58-.14-.18-.33-.32-.53-.41-.21-.09-.43-.14-.66-.13-.4.01-.81-.06-1.18-.22s-.71-.39-.99-.68c-.27-.28-.48-.62-.6-1-.13-.37-.17-.77-.12-1.15.03-.22,0-.44-.07-.65-.08-.21-.2-.39-.36-.54-.17-.15-.36-.27-.58-.34s-.44-.09-.67-.06c-.4.05-.81.03-1.2-.08s-.75-.3-1.07-.55c-.31-.25-.55-.56-.73-.91-.17-.35-.27-.74-.27-1.13,0-.22-.06-.44-.16-.63-.1-.19-.25-.36-.43-.49s-.39-.22-.62-.26c-.22-.04-.45-.03-.67.03-.39.1-.8.12-1.2.06-.4-.06-.79-.2-1.13-.42-.34-.21-.62-.49-.84-.82-.22-.33-.36-.7-.42-1.09-.03-.22-.12-.43-.24-.61-.13-.18-.3-.33-.49-.43-.2-.11-.42-.17-.65-.19-.23-.01-.45.02-.67.1-.38.15-.78.22-1.19.2-.41-.01-.81-.11-1.17-.28s-.68-.41-.94-.71-.45-.65-.56-1.03c-.06-.21-.17-.41-.32-.57-.15-.16-.34-.29-.54-.37-.21-.08-.44-.12-.66-.11-.23.01-.45.08-.65.18-.36.19-.75.31-1.16.34-.4.03-.81-.01-1.2-.14-.38-.12-.73-.32-1.03-.59-.3-.27-.53-.59-.69-.96-.09-.2-.23-.38-.4-.53-.17-.14-.37-.25-.59-.3-.22-.06-.45-.07-.67-.03s-.43.13-.62.26c-.33.23-.71.4-1.11.48s-.81.08-1.21,0c-.39-.08-.77-.24-1.09-.46-.33-.23-.6-.52-.81-.86-.12-.19-.27-.35-.46-.48-.19-.12-.4-.2-.62-.23-.23-.03-.45,0-.67.06-.22.07-.42.18-.58.34-.3.27-.65.48-1.03.61-.38.13-.79.18-1.19.15s-.79-.14-1.15-.33c-.36-.19-.67-.45-.92-.76-.14-.18-.32-.32-.52-.42s-.42-.15-.65-.15-.45.04-.66.13-.39.23-.54.4c-.26.3-.59.55-.95.73s-.76.27-1.16.29-.81-.05-1.18-.19c-.38-.14-.72-.36-1.01-.64-.16-.16-.36-.28-.57-.35-.21-.07-.44-.1-.67-.08-.22.02-.44.09-.63.21-.19.12-.36.27-.48.46-.22.33-.51.62-.85.84-.34.22-.72.36-1.11.43-.4.07-.81.05-1.2-.05s-.76-.27-1.09-.52c-.18-.14-.39-.23-.61-.28s-.45-.05-.67,0c-.22.05-.42.14-.6.28-.18.14-.32.31-.41.51-.17.36-.42.68-.73.93-.31.26-.66.44-1.05.55s-.8.15-1.2.1-.79-.18-1.14-.38c-.2-.12-.41-.19-.64-.21s-.45,0-.67.08c-.21.07-.4.19-.56.35s-.27.35-.34.56c-.13.38-.33.72-.6,1.01-.27.29-.6.52-.97.67-.37.16-.77.24-1.18.24s-.81-.08-1.18-.24c-.21-.09-.43-.13-.66-.13s-.45.06-.65.16c-.2.1-.37.24-.51.41-.14.18-.23.38-.27.6-.07.39-.23.75-.46,1.08-.23.32-.53.59-.87.78-.35.2-.74.33-1.14.38s-.81.01-1.2-.1c-.22-.06-.45-.08-.67-.05s-.44.12-.63.24c-.19.12-.34.28-.45.47-.11.19-.18.4-.19.62-.02.39-.13.78-.32,1.12-.19.35-.45.65-.76.89-.32.24-.69.42-1.09.51-.39.1-.8.11-1.2.04-.22-.04-.45-.03-.67.03-.22.06-.42.17-.59.31s-.3.32-.38.52-.12.42-.1.64c.03.39-.03.78-.16,1.15-.14.37-.35.7-.63.97-.29.28-.64.5-1.01.64-.38.14-.78.2-1.19.18-.22-.01-.45.02-.66.11s-.39.22-.54.39c-.14.16-.25.35-.31.56s-.07.42-.02.63c.08.38.07.78-.02,1.16s-.26.74-.51,1.04c-.25.31-.57.57-.93.76-.36.19-.75.3-1.15.33-.22.01-.44.08-.64.19-.2.11-.36.26-.49.45-.13.18-.21.38-.24.6-.03.22,0,.44.07.64.13.37.18.76.14,1.15s-.16.76-.36,1.1c-.21.34-.49.63-.82.86-.33.23-.71.38-1.1.46-.22.04-.43.13-.61.26-.18.13-.33.3-.43.5-.1.19-.15.41-.15.63s.05.43.15.63c.18.35.28.73.29,1.12.01.39-.06.78-.22,1.14s-.4.69-.7.95c-.3.27-.65.47-1.03.59-.21.07-.41.18-.57.33-.16.15-.29.34-.36.55-.07.2-.1.42-.07.64.03.22.11.42.23.6.22.32.37.69.43,1.07.06.39.04.78-.07,1.15-.11.38-.31.73-.57,1.03-.26.3-.58.54-.95.71-.2.09-.38.23-.52.4-.14.17-.23.37-.28.59-.05.21-.04.43,0,.65.06.21.16.41.31.57.26.29.46.64.57,1.01s.14.77.08,1.15c-.06.39-.21.76-.43,1.09s-.51.61-.85.81c-.19.12-.35.27-.46.46-.12.19-.19.4-.21.62-.02.22.02.44.1.64s.21.38.38.53c.3.26.54.58.7.93.16.36.24.75.23,1.14,0,.39-.1.78-.28,1.13-.18.35-.43.66-.74.91-.17.14-.31.31-.4.51-.09.2-.13.42-.12.64s.07.43.18.62c.11.19.26.35.44.48.33.22.61.5.81.84.21.33.34.71.38,1.1.04.39,0,.79-.13,1.16s-.33.71-.61,1c-.15.16-.26.34-.33.55-.06.21-.08.43-.04.64.04.22.13.42.26.6s.31.32.51.42c.36.18.67.43.92.74s.43.67.53,1.05c.09.38.1.77.02,1.16-.08.38-.24.74-.47,1.06-.13.17-.22.38-.25.59-.04.22-.02.44.05.64.07.21.18.4.34.56.15.16.34.28.55.35.38.13.72.34,1,.62.29.27.51.6.66.97.14.36.2.75.18,1.14-.03.39-.14.77-.33,1.11-.11.19-.17.4-.18.62,0,.22.04.43.13.63.1.2.24.38.41.51.17.14.38.23.6.28.39.09.76.26,1.08.5.32.24.59.54.79.89.19.34.3.72.32,1.11.02.39-.04.78-.18,1.14-.08.2-.11.42-.09.64.02.22.09.43.21.61.12.19.28.35.48.46.19.12.41.19.63.21.4.04.79.16,1.14.36s.65.47.89.79c.23.31.39.68.47,1.06s.07.78-.03,1.16c-.05.21-.06.43,0,.64s.15.41.29.58.32.31.52.4c.2.09.42.14.65.14h.05c.4,0,.79.08,1.16.23s.7.38.97.67c.27.28.48.62.6.99.13.37.17.76.12,1.15-.03.22,0,.44.07.65.08.21.2.39.36.54.17.15.36.27.58.34s.44.09.67.06c.4-.05.81-.02,1.2.09.39.11.75.3,1.07.55.31.25.55.56.73.91.17.35.27.74.27,1.13,0,.22.06.44.16.63.1.19.25.36.43.49s.39.22.62.26c.22.04.45.03.67-.02.39-.1.8-.12,1.2-.06.4.06.79.21,1.13.42.34.21.62.49.84.82s.36.7.42,1.09c.03.22.12.43.24.61.13.18.3.33.49.43.2.11.42.17.65.19.23.01.45-.02.67-.11.38-.15.78-.21,1.19-.2s.8.11,1.17.28c.36.17.68.41.94.71.26.3.45.65.56,1.03.06.21.17.41.32.57.15.16.34.29.54.37.21.08.44.12.66.11.23-.01.45-.08.65-.18.36-.19.75-.31,1.16-.34.4-.04.81.01,1.2.14.38.12.73.32,1.03.59s.53.6.69.96c.09.2.23.38.4.53.17.14.37.25.59.3.22.06.45.07.67.03.22-.04.43-.13.62-.26.33-.23.71-.4,1.1-.48.4-.08.81-.08,1.21,0,.39.08.77.23,1.1.46.33.23.61.52.81.87.12.19.27.35.46.48.19.12.4.2.62.23.23.03.45.01.67-.06.22-.07.42-.18.58-.34.54-.48,1.25-.74,1.98-.73v-.04Z" fill="#f60"/>
</svg>