<?xml version="1.0" encoding="UTF-8"?>
<svg id="Layer_1" data-name="Layer 1" xmlns="http://www.w3.org/2000/svg" width="125" height="71" viewBox="0 0 125 71">
  <path d="M32.63,38.78c-.05-.11-.12-.22-.22-.3-.09-.08-.2-.15-.32-.19-.05-.09-.1-.18-.18-.24-.19-.17-.43-.26-.69-.25h-2.68c-.16,0-.32,0-.46.07-.15.05-.28.14-.4.25-.11.12-.21.24-.3.38l-4,6.87-3.73-6.41c-.08-.16-.19-.31-.33-.43-.09-.08-.19-.12-.29-.17-.06-.09-.12-.19-.2-.26-.23-.21-.54-.31-.85-.3h-2.7c-.25,0-.48.09-.66.25-.09.08-.17.18-.22.3-.05.11-.08.24-.07.36v15.59c0,.13.02.25.07.36.05.11.12.22.22.3.09.08.2.15.32.19.05.09.1.18.18.25.18.16.42.26.66.25h3c.25,0,.5-.09.68-.26.09-.08.16-.19.21-.3s.07-.23.07-.36v-7.3l1.71,3.04c.1.18.24.34.4.47.06.05.14.08.21.11.08.12.16.24.27.33.22.17.48.26.76.25h1.3c.27,0,.54-.08.76-.25.16-.13.29-.29.38-.47l1.73-3.07v6.45c0,.13.02.25.07.36s.13.22.22.3c.08.07.17.12.27.16.05.11.12.21.21.28.19.17.43.26.69.25h2.96c.13,0,.27,0,.39-.06.13-.05.24-.12.34-.21.09-.08.17-.19.22-.3.05-.11.08-.24.07-.36v-15.59c0-.12-.02-.25-.07-.36v.02ZM31.54,54.29s0,.08-.02.11c-.01.04-.04.07-.07.09-.06.06-.15.09-.24.08h-2.98c-.09,0-.17-.03-.24-.08-.03-.02-.05-.06-.07-.09-.01-.03-.02-.07-.02-.11v-10.24l-3.46,6.15c-.05.11-.13.2-.22.28-.1.07-.22.1-.33.09h-1.3c-.12,0-.24-.02-.33-.09-.1-.09-.19-.19-.25-.3l-3.45-6.11v10.24s0,.08-.02.11c-.01.04-.03.07-.06.1-.03.03-.06.05-.1.06-.04,0-.08.02-.12,0h-3c-.08,0-.16-.03-.22-.08-.03-.03-.05-.06-.06-.09s-.02-.07-.02-.11v-15.59s0-.08.02-.11c.01-.03.04-.07.07-.09.03-.03.06-.05.1-.06s.08-.02.11-.02h2.7c.14,0,.27.03.38.11.09.07.16.16.21.26l4.68,8.05,4.69-8.06c.07-.1.14-.19.22-.28.11-.08.25-.11.38-.1h2.68c.09,0,.17.03.24.08.03.02.05.06.07.09.01.03.02.07.02.11v15.59h.01Z" fill="#f60"/>
  <g>
    <path d="M59.52,54.51l-5.85-15.37c-.07-.24-.21-.46-.41-.62-.05-.04-.11-.06-.17-.09-.08-.13-.17-.26-.29-.35-.25-.2-.56-.3-.88-.28h-3.7c-.32-.02-.63.09-.88.28-.19.15-.33.36-.4.6l-5.89,15.43c-.02.1-.03.19-.03.29,0,.11.03.21.07.31.04.1.11.19.19.26.08.08.17.13.26.18h0c.05.11.11.2.19.27.08.08.17.14.27.18.1.04.21.07.32.07h3.08c.15,0,.3,0,.45-.06.14-.05.28-.12.39-.22.13-.12.23-.27.3-.43l.87-2.24h5.96l.71,1.78c.07.17.18.32.32.45.06.05.13.08.2.11.07.12.15.24.25.33.22.19.51.29.8.27h3.08c.23,0,.46-.09.62-.25.12-.11.21-.25.25-.42s0-.33-.06-.48h-.02ZM58.41,54.52s-.04.04-.07.05-.06.02-.08.02h-3.08c-.12,0-.23-.02-.33-.09-.07-.06-.13-.13-.16-.21l-1.06-2.65h-7.13l-1.03,2.67c-.04.08-.09.15-.16.21-.02.02-.09.08-.36.08h-3.08s-.05,0-.07-.02c-.02,0-.04-.03-.06-.05-.02,0-.04-.03-.05-.06,0-.02-.02-.05-.02-.07v-.11l5.89-15.42c.04-.12.11-.23.22-.31.13-.09.28-.14.44-.13h3.7c.16,0,.32.03.44.13.11.09.19.21.22.34l5.87,15.43s.02.07,0,.11c0,.04-.03.07-.06.09h.01Z" fill="#f60"/>
    <path d="M47.28,48.8h5.59l-2.82-7.58-2.76,7.58h-.01ZM51.93,48.17h-3.11l1.53-4.23,1.59,4.23h0Z" fill="#f60"/>
  </g>
  <g>
    <path d="M83.77,54.43l-3.28-5.61c.82-.4,1.53-.99,2.08-1.73.63-.89.95-1.97.92-3.06,0-1.76-.63-3.15-1.83-4.15-.19-.2-.39-.39-.62-.57-1.31-1.01-3.1-1.52-5.31-1.52h-6.81c-.25,0-.5.09-.68.26-.09.08-.16.19-.2.3-.05.11-.07.23-.07.35v15.59c0,.12.02.24.07.36.05.11.12.22.2.3.08.08.18.14.29.18.05.09.1.18.17.25.18.17.43.27.68.26h3.23c.25,0,.5-.09.68-.26.09-.08.16-.19.21-.3.05-.11.07-.23.07-.36v-5h1.83l2.52,4.66c.1.18.23.35.38.49.07.06.15.09.22.13.08.11.14.22.24.31.13.12.27.21.43.26.16.06.33.08.5.07h3.31c.12,0,.23-.02.34-.06s.21-.1.29-.19c.08-.07.15-.16.19-.26s.07-.2.07-.31c0-.15-.04-.29-.12-.42v.03ZM82.73,54.46s-.03.04-.05.05c-.02.02-.04.04-.07.05s-.06.02-.08.02h-3.31c-.17.02-.33-.03-.46-.13-.11-.1-.2-.22-.27-.35l-2.95-5.44h-3.11v5.64s0,.08-.02.11c-.01.04-.03.07-.06.1s-.06.05-.1.06c-.04,0-.08.02-.12,0h-3.23s-.08,0-.12,0-.07-.03-.1-.06c-.03-.03-.05-.06-.06-.1-.01-.04-.02-.07-.02-.11v-15.59s0-.08.02-.11c.01-.04.04-.07.06-.1.03-.03.06-.05.1-.06.04,0,.08-.02.12-.02h6.81c2.06,0,3.72.46,4.89,1.36,1.17.89,1.74,2.13,1.74,3.79.03.96-.25,1.91-.8,2.7-.55.74-1.28,1.31-2.13,1.67l-.33.14,3.62,6.19s.03.08.04.12c0,.02,0,.05-.02.07h0Z" fill="#f60"/>
    <path d="M77.7,41.8c-.44-.45-1.12-.67-2.03-.67h-3.23v4.78h3.23c.73.05,1.45-.19,2.01-.66.23-.22.4-.49.52-.79.12-.3.17-.61.15-.93.01-.32-.04-.63-.15-.93s-.28-.57-.5-.8ZM77.57,44.23c-.08.22-.22.42-.38.59-.43.34-.97.5-1.52.46h-2.11v-3.08h2.56c.28-.03.56,0,.82.08.16.05.32.13.47.22.07.11.12.22.17.34.08.22.12.46.1.7.01.24-.02.47-.11.7h0Z" fill="#f60"/>
  </g>
  <path d="M108.98,54.37l-5.38-7.62,4.93-7.2c.11-.14.17-.31.17-.49,0-.11-.02-.21-.07-.31-.04-.1-.11-.19-.19-.26-.07-.07-.16-.12-.25-.17v-.02c-.04-.1-.11-.19-.19-.26-.17-.16-.39-.25-.62-.25h-3.42c-.29-.02-.58.08-.8.27-.13.11-.25.24-.35.38l-2.68,3.86-2.33-3.39c-.09-.16-.21-.3-.35-.41-.05-.04-.11-.06-.16-.09-.08-.13-.17-.25-.29-.35-.22-.19-.51-.28-.8-.27h-3.63c-.11,0-.23.02-.33.06-.11.04-.2.11-.28.19-.07.07-.13.16-.18.26-.04.1-.06.2-.06.3,0,.16.05.32.13.46l4.93,7.26-5.34,7.58c-.05.07-.09.14-.11.22-.03.08-.04.16-.04.24,0,.11.03.21.07.31.04.1.11.19.19.26.08.08.18.14.28.18.04.1.1.19.18.26.17.16.39.25.62.25h3.61c.29,0,.58-.08.8-.27.12-.1.23-.22.32-.35l2.91-4.12,2.64,3.67c.1.14.21.27.35.38.03.03.07.04.11.06h0c.1.15.22.28.35.39.23.18.51.28.8.26h3.73c.11,0,.22-.03.32-.07s.19-.11.27-.19c.15-.15.24-.35.24-.56v-.2c-.02-.1-.06-.19-.11-.27v.02ZM108.01,54.39s0,.05-.02.07c-.01.02-.03.04-.04.06-.02.02-.04.03-.06.04-.02,0-.05,0-.08,0h-3.73c-.13,0-.27-.02-.38-.1-.09-.07-.17-.15-.24-.25l-3.6-4.98-3.52,5.04c-.06.09-.13.16-.22.23-.1.07-.23.11-.35.09h-3.6s-.06,0-.08-.02c-.03,0-.05-.03-.07-.05-.02,0-.04-.03-.05-.05s-.02-.05-.02-.07v-.05s.02-.05.03-.06l5.58-7.96-5.15-7.58s-.04-.1-.04-.15c0-.03,0-.05.02-.07.01-.02.03-.04.05-.06.02-.02.04-.03.06-.04.02,0,.05,0,.07,0h3.63c.12,0,.25.02.35.09.09.08.17.17.22.27l3.28,4.75,3.3-4.76c.07-.1.16-.19.25-.27.1-.07.23-.1.35-.09h3.42s.06,0,.09.02.05.03.07.05c.07.06.07.13.07.13,0,.04-.02.08-.04.11l-5.2,7.58,5.66,7.99v.09h-.01Z" fill="#f60"/>
  <path d="M33.41,15.71c-.05-.11-.12-.22-.22-.3-.07-.06-.15-.09-.22-.13h0c-.05-.12-.13-.23-.22-.31-.19-.17-.43-.26-.69-.25h-2.66c-.16-.01-.32.01-.46.07-.15.05-.28.14-.4.25-.11.12-.22.24-.3.38l-4.03,6.93-3.75-6.45c-.09-.16-.2-.31-.34-.43-.05-.04-.11-.06-.16-.09-.08-.13-.16-.26-.28-.36-.23-.2-.53-.31-.84-.3h-2.71c-.24,0-.48.09-.66.25-.09.08-.17.18-.22.3-.05.11-.08.24-.07.36v15.59c0,.12.02.25.07.36.05.11.13.22.22.3.07.06.14.1.22.14h0c.05.12.12.23.22.31.18.17.42.26.66.25h3.03c.25,0,.5-.09.68-.26.09-.08.16-.19.2-.3.05-.11.07-.23.07-.35v-7.36l1.74,3.09c.1.18.23.33.38.47.06.04.12.07.19.1.08.12.17.25.28.35.21.17.48.26.76.25h1.3c.27.01.54-.08.76-.25.16-.13.29-.29.38-.47l1.74-3.08v6.46c0,.12.02.25.07.36s.12.22.22.3c.08.07.17.11.26.15.05.11.12.21.21.29.19.17.43.26.69.25h2.98c.25,0,.49-.09.67-.26.09-.08.17-.18.22-.3.05-.11.08-.24.07-.36v-15.59c0-.12-.02-.25-.07-.36h.01ZM32.37,31.22s0,.08-.02.11c0,.03-.04.07-.06.09-.07.06-.15.09-.24.08h-2.98s-.09,0-.13-.02-.08-.04-.11-.06c-.03-.02-.05-.06-.07-.09-.01-.03-.02-.07-.02-.11v-10.24l-3.45,6.13c-.05.11-.13.2-.22.28-.1.07-.22.1-.33.09h-1.3c-.12,0-.24-.02-.34-.09-.1-.08-.18-.18-.25-.3l-3.45-6.11v10.24s0,.08-.02.11c-.01.04-.04.07-.06.1-.03.03-.06.05-.1.06s-.08.02-.12.01h-3.01s-.08,0-.11-.02c-.04-.01-.07-.03-.1-.06-.03-.03-.05-.06-.06-.09s-.02-.07-.02-.11v-15.59s0-.08.02-.11c.01-.04.04-.07.07-.09.03-.03.06-.05.1-.06.04-.01.08-.02.11-.02h2.71c.14-.01.27.03.38.11.08.07.16.16.21.25l4.69,8.07,4.69-8.06c.07-.1.14-.19.23-.28.11-.08.25-.11.38-.09h2.66c.09,0,.17.02.24.08.03.03.05.06.07.09,0,.04.02.07.02.11v15.59h0Z" fill="#f60"/>
  <g>
    <path d="M60.35,31.44l-5.85-15.37c-.07-.24-.21-.46-.41-.62-.05-.04-.11-.06-.17-.09-.08-.13-.17-.26-.29-.35-.25-.2-.56-.3-.88-.28h-3.7c-.32-.01-.63.09-.88.28-.19.16-.33.36-.4.6l-5.89,15.43c-.02.1-.04.19-.03.29,0,.11.02.21.07.31.04.1.11.19.19.26.08.08.17.13.26.18h0c.04.11.11.2.19.27.16.16.37.24.6.25h3.08c.15,0,.3,0,.45-.05.14-.05.28-.12.39-.23.13-.12.23-.27.29-.43l.87-2.24h5.95l.71,1.79c.07.17.18.33.32.45.06.05.14.08.21.12.07.12.15.23.25.32.22.19.51.29.8.27h3.08c.23,0,.45-.09.61-.25.08-.07.14-.16.19-.26.04-.1.07-.21.07-.31,0-.11-.02-.22-.07-.32v-.02ZM59.31,31.32s0,.05-.02.07c0,.02-.03.04-.05.05-.02.02-.04.04-.07.05-.03.01-.06.01-.08.01h-3.08c-.12,0-.23-.02-.33-.09-.07-.06-.13-.13-.16-.21l-1.06-2.65h-7.14l-1.04,2.67c-.03.08-.09.15-.15.21-.02.02-.1.08-.36.08h-3.08s-.05,0-.07-.02c-.02-.01-.04-.03-.06-.04s-.04-.03-.05-.05c0-.02-.02-.05-.02-.07v-.11l5.91-15.43c.04-.14.13-.26.25-.34s.27-.11.41-.1h3.7c.15-.02.3.02.42.11.12.09.21.21.25.36l5.87,15.43v.08h.01Z" fill="#f60"/>
    <path d="M48.11,25.74h5.58l-2.82-7.58s-2.76,7.58-2.76,7.58ZM52.76,25.11h-3.1l1.52-4.22s1.58,4.22,1.58,4.22Z" fill="#f60"/>
  </g>
  <g>
    <path d="M84.58,31.36l-3.28-5.61c.82-.4,1.53-1,2.08-1.73.64-.89.97-1.97.95-3.07,0-1.81-.66-3.25-1.94-4.24-.16-.16-.34-.32-.53-.47-1.31-1.01-3.1-1.52-5.31-1.52h-6.78c-.25,0-.5.09-.68.26-.09.08-.16.19-.21.3-.05.11-.07.23-.07.36v15.59c0,.12.02.24.07.35s.12.21.21.3c.07.07.16.11.25.16.05.11.11.21.2.29.18.17.43.27.68.26h3.23c.25,0,.5-.09.68-.26.09-.08.16-.19.2-.3s.07-.23.07-.35v-5.01h1.84l2.52,4.66c.1.18.23.35.38.5.06.05.14.08.2.12.08.11.15.23.25.32.13.11.27.2.44.26.16.06.33.08.5.07h3.31c.23,0,.45-.08.62-.23.08-.07.14-.16.19-.26.04-.1.07-.21.07-.31,0-.15-.04-.29-.12-.42l-.02-.02ZM83.58,31.39s-.03.04-.05.05c-.02.02-.04.04-.07.05-.03.01-.06.02-.08.01h-3.3c-.17.02-.33-.03-.46-.13-.11-.1-.2-.22-.27-.35l-2.95-5.45h-3.1v5.64s0,.08-.02.11c-.01.04-.04.07-.06.1-.03.03-.06.05-.1.06s-.08.02-.12.01h-3.23s-.08,0-.12-.01-.07-.03-.1-.06c-.03-.03-.05-.06-.06-.1-.01-.04-.02-.07-.02-.11v-15.58s0-.08.02-.11c.01-.04.03-.07.06-.1.03-.03.06-.05.1-.06s.08-.02.12-.01h6.81c2.06,0,3.72.47,4.89,1.36,1.17.89,1.74,2.13,1.74,3.79.03.96-.25,1.91-.8,2.7-.55.74-1.28,1.31-2.13,1.67l-.33.14,3.62,6.19s.04.08.04.12c0,.02,0,.05-.02.07h-.01Z" fill="#f60"/>
    <path d="M78.55,18.73c-.44-.45-1.12-.67-2.03-.67h-3.23v4.78h3.21c.73.05,1.45-.18,2.02-.64.23-.22.41-.5.53-.79s.17-.62.16-.94c.01-.32-.04-.63-.15-.93-.11-.3-.28-.57-.5-.8h0ZM78.42,21.15c-.08.22-.22.42-.38.59-.43.34-.97.5-1.52.46h-2.13v-3.08h2.56c.28-.03.56,0,.82.08.18.05.34.14.5.24.06.1.11.2.15.31.08.22.12.46.1.7.01.24-.02.47-.11.7h0Z" fill="#f60"/>
  </g>
  <path d="M108.68,15.45c-.08-.08-.18-.15-.28-.19h-.02c-.04-.09-.1-.18-.17-.25-.08-.08-.17-.15-.28-.19s-.22-.07-.33-.06h-3.13c-.29-.01-.58.08-.8.26-.14.11-.27.25-.36.41l-3.21,5.51-2.95-5.07c-.1-.21-.27-.39-.47-.51-.02-.01-.04-.01-.06-.03-.1-.17-.24-.31-.4-.42-.2-.12-.43-.18-.67-.18h-3.13c-.23,0-.46.09-.62.25-.08.07-.14.16-.19.26-.04.1-.07.2-.07.31,0,.08.01.17.05.25.02.03.05.08.05.12l5.79,10.24v5.08c0,.12.02.25.07.36s.13.22.22.3c.07.07.16.12.25.16.05.11.12.21.21.28.18.16.42.26.66.25h3.26c.25.02.5-.07.69-.23.09-.08.16-.19.2-.3.05-.11.07-.23.07-.35v-5.08l5.79-10.19.03-.05c.03-.06.04-.12.04-.17v-.19c0-.21-.09-.41-.23-.56v-.02ZM107.78,15.61v.07l-5.82,10.24-.04.07v5.24s0,.08-.02.11c-.01.04-.03.07-.06.1s-.06.05-.1.06-.08.02-.11.01h-3.26s-.08,0-.11-.02c-.04-.01-.07-.03-.1-.06-.03-.02-.05-.06-.07-.09-.01-.03-.02-.07-.02-.11v-5.23l-5.83-10.31-.09-.14s0-.05.02-.07c.01-.02.03-.04.05-.05.02-.02.04-.04.07-.05s.06-.01.08-.01h3.13c.13-.01.27.02.38.1.14.13.17.19.17.19l3.92,6.73,3.9-6.69c.05-.09.13-.17.21-.23.11-.08.25-.11.38-.1h3.13s.05,0,.07.01c.02,0,.04.02.06.04.02.02.03.04.04.06s.02.05.02.07v.07h0Z" fill="#f60"/>
  <path d="M124.18,50.26c-.19-.29-.43-.55-.71-.78-.34-.39-.77-.7-1.25-.91-.63-.27-1.32-.35-1.99-.22-.67.12-1.29.44-1.79.91-.49.47-.84,1.08-.99,1.74-.15.67-.1,1.36.14,2,.22.57.59,1.07,1.06,1.46.17.19.36.38.57.53.55.4,1.21.63,1.9.66.94.02,1.85-.34,2.53-.99s1.07-1.55,1.1-2.49c0-.68-.2-1.35-.58-1.92h.01ZM123.21,53.35c-.31.47-.75.83-1.26,1.05-.52.22-1.08.28-1.63.18-.55-.1-1.06-.36-1.46-.75s-.68-.88-.81-1.43c-.12-.55-.08-1.11.11-1.64.2-.52.55-.98,1-1.3.45-.33.99-.51,1.55-.54.77-.02,1.52.28,2.08.81.56.53.88,1.27.9,2.04,0,.56-.16,1.11-.47,1.57h-.01Z" fill="#f60"/>
  <path d="M78.32,64.93c-.05-.11-.12-.21-.2-.29-.09-.08-.19-.15-.3-.19s-.23-.06-.35-.06h-29.43c-.12,0-.24.02-.35.06-.11.04-.21.11-.3.19s-.15.18-.2.29-.07.23-.08.35v4.14c0,.24.11.47.28.64s.41.26.65.25h29.43c.24,0,.47-.09.65-.25.17-.17.27-.4.28-.64v-4.14c0-.12-.03-.24-.08-.35ZM77.74,68.97s0,.07-.02.1c-.01.03-.03.06-.06.08s-.05.04-.09.06c-.03.01-.07.02-.1.02h-29.43s-.07,0-.1-.02c-.03-.01-.06-.03-.09-.06-.02-.02-.05-.05-.06-.08,0-.03-.02-.07-.02-.1v-3.7c0-.07.03-.14.08-.18.05-.05.12-.07.19-.07h29.43c.07,0,.14.03.19.07.05.05.08.11.08.18v3.7h0Z" fill="#f60"/>
  <path d="M25,.99c-.08-.08-.18-.14-.29-.18-.05-.1-.1-.19-.18-.26-.17-.16-.4-.25-.64-.25H1.69c-.24,0-.47.09-.64.25-.17.16-.27.39-.27.63v21.28c0,.24.1.46.27.63.08.08.18.14.28.18.05.1.11.19.18.26.08.08.19.15.29.19.11.04.23.06.34.06h3.48c.12,0,.24-.01.35-.06.11-.04.22-.11.3-.19s.16-.18.2-.29c.05-.11.07-.23.07-.35V6.1s0-.07.02-.1c.01-.03.03-.06.06-.08s.05-.04.08-.05c.03-.01.06-.02.1-.02h17.53c.12,0,.23-.02.34-.06s.21-.11.29-.19c.08-.08.15-.18.2-.29s.07-.22.08-.34V1.62c0-.24-.11-.46-.28-.63h.04ZM24.15,4.54s0,.07-.02.1c-.01.03-.03.06-.06.08-.02.02-.05.04-.08.05s-.06.02-.1.02H6.36c-.12,0-.23.02-.34.06s-.21.11-.29.19-.15.18-.2.29-.07.22-.08.34v16.79s0,.07-.02.1c-.01.03-.03.06-.06.08-.02.02-.05.04-.08.05-.03.01-.06.02-.1.02H1.69s-.07,0-.1-.02c-.03-.01-.06-.03-.08-.05-.02-.02-.04-.05-.06-.08,0-.03-.02-.06-.02-.1V1.18s0-.07.02-.1c0-.03.03-.06.06-.08.02-.02.05-.04.08-.05.03,0,.06-.02.1-.02h22.21s.07,0,.1.02c.03,0,.06.03.08.05s.04.05.06.08c.01.03.02.06.02.1v3.36h-.01Z" fill="#f60"/>
</svg>