<?xml version="1.0" encoding="UTF-8"?>
<svg id="Layer_1" data-name="Layer 1" xmlns="http://www.w3.org/2000/svg" width="141" height="139" xmlns:xlink="http://www.w3.org/1999/xlink" viewBox="0 0 141 139">
  <defs>
    <clipPath id="clippath">
      <rect x=".24" width="139.77" height="139" fill="none"/>
    </clipPath>
  </defs>
  <g clip-path="url(#clippath)">
    <g>
      <path d="M82.09,85.32c.56-.1,1.02-.12,1.43-.26,1.86-.62,4.3-.61,5.03-2.75,1.32-3.83,2.63-7.74,3.17-11.73.4-3.02-.27-6.23-.72-9.32-.91-6.3-3.72-11.53-9.58-14.49-3.63-1.84-7.39-3.63-11.3-4.67-10.46-2.78-20.19,3.67-22.26,14.31-.24,1.25-.85,2.42-1.22,3.65-.53,1.72-1.08,3.35-.48,5.3.44,1.42.42,3.23-.04,4.65-1.14,3.52.78,6.09,2.21,8.86.14.27.56.59.81.56,2.29-.25,2.33,1.34,2.55,2.91.11.76.54,1.48.78,2.23.88,2.66,1.93,5.29.25,8.07-.37.61-.54,2.05-.26,2.21.84.51,2.02.95,2.93.76,5.33-1.11,10.63-2.4,15.93-3.65,1.22-.28,2.41-.69,3.63-.92.83-.15,1.7-.05,2.55-.12.91-.07,1.98.06,2.69-.36,2.55-1.51,2.62-1.9,1.88-5.26ZM50.63,75.47c-1.81.36-2.12.92-1.38,2.61.08.18.19.33.29.5-.14.08-.28.16-.41.24-.29-.59-.58-1.18-.86-1.77-.29-.6-.56-1.21-.84-1.81.12.12.23.23.35.35.57-.84,1.13-1.67,1.57-2.32,1.13.52,2.03.94,3.24,1.5-.81.3-1.37.58-1.96.7ZM86.71,69.6c-.15-.41-.29-.93-.61-1.18-1.8-1.38-3.53-2.92-5.51-3.97-3.02-1.6-3.3-1.89-2.41-5.18-.18.31-.35.62-.53.93-.93-2.98-2.28-5.77-.47-8.68-1.21.03-2.65,2-2.33,3.07.6,2.03,1.24,4.05,1.75,6.1.51,2.04,1.46,3.45,3.55,4.37,1.93.85,3.58,2.37,5.28,3.69.84.65.86,2.99.09,3.76-.22.22-.79.38-1,.25-.38-.24-.76-.67-.89-1.1-.24-.8-.26-1.66-.45-2.48-.1-.43-.39-.82-.6-1.25-.29.2-.43.24-.47.32-.3.73-.4,1.9-.92,2.13-1.48.66-3.18,1.42-4.69,1.25-2.02-.22-2.83.63-3.5,2.16-.1.24-.24.47-.44.84-.63-.77-1.15-1.41-1.7-2.09.39-1.17.58-2.39,2.49-1.65.83.32,1.98-.17,3.01-.3-1.09-.52-2.14-1.06-3.22-1.53-.22-.09-.58-.01-.81.11-2.72,1.5-3.08,5.75-.72,7.89.45.41,1.06.95,1.08,1.44.04,1.26-.18,2.54-.39,3.8-.03.2-.61.3-.98.47.05.39.1.87.23,1.87,1.79-1.27,3.93-2.05,4.74-3.55.77-1.43.17-3.61.17-5.43,2.08,2.08,1.54,4.81,1.49,7.49.86-1.12,1.37-4.17,1.04-5.26-.5-1.68-.91-3.38-1.36-5.08l.48-.22c.75.85,1.35,2.01,2.3,2.45,1.21.57,2.29-.2,2.66-1.07.96-.08,1.61-.14,1.96-.18-1,2.06-2.33,4.21-3.1,6.55-.8,2.4-1.26,4.99-.08,6.95-.74,1.05-1.17,1.86-1.79,2.47-.4.39-1.2.81-1.61.66-.65-.24-1.43-.86-1.62-1.48-.31-1.06-.2-2.25-.28-3.53-.34,1.33-.56,2.56-1,3.71-.28.72-.61,1.54-1.89,1.03-.71-.28-1.73.3-2.63.37-2.64.21-5.31.22-7.94.57-2.17.29-4.29.95-6.42,1.48-.13.03-.19.37-.27.55-1.43-1.75-2.13.4-3.12.6.44-1.9.9-3.85,1.35-5.79-.07-.04.26.16,1.03.64-.35-1.04-.62-1.66-.75-2.32-.05-.26.19-.58.3-.87.23.55.45,1.09.68,1.64.6-.28,1.07-.49,1.85-.86-.98-1.1-1.88-2.11-3.08-3.47.35,1.02.54,1.6.73,2.18h0s0,0,0,0c-1.18.44-1.29-.51-1.53-1.22-.23-.69-.32-1.25.73-1.5.88-.21,1.66-.82,2.53-1.29-.15-1.05-.33-2.27-.57-3.91-.46,1.75,1.2,3.87-1.84,4.2-.16-1.01-.32-1.99-.48-2.97-.06.01-.12.02-.18.03.05,1.1.1,2.2.15,3.37-3.23-1.89-2.29-4.24-1.12-6.64.27-.56.53-1.14.63-1.74.26-1.57-.62-2.04-2.08-2.33-2.9-.58-3.23,2.05-4.76,3.07-.72-1.69-.38-4.06.83-5.43.16-.19.22-.58.15-.82-.28-.96-.63-1.9-.97-2.85-.85-2.34-.23-3.65,2.1-4.43h0c-1.76,1.35-2.17,3.01-1.17,5.01.12.24.17.55.15.83-.05,1.51,1.01,2.52,2.1,2.72.83.15,2.03-.71,2.79-1.41,1.56-1.43,1.98-3.33,1.32-5.48.16.02.33.04.49.06v4.66c.43-1,.72-1.69.97-2.26.25.41.64.8.71,1.24.1.68.25,1.68-.11,2.04-1.24,1.21-1.63,2.39-.9,3.51,1.19-.34,2.24-.64,3.11-.9.45.41.9,1.01,1.08.94.53-.21,1.12-.59,1.4-1.07.77-1.36.33-3.46-.76-4.75-.83-.99-1.71-1.99-2.31-3.11-.68-1.27-1.18-2.48-2.71-1.35.43-1.43.87-2.86,1.3-4.29-.19-.07-.38-.13-.58-.2-.33.9-.66,1.79-1,2.7-.24-.47-.51-.99-.93-1.83-1.35.8-2.57,1.52-3.78,2.23.67-1.44,1.74-2.25,3.22-2.44-2.12-.72-2.09-.69-3.46,1.08-.32.42-.96.59-1.59.94.43-9.03,4.93-14.87,13.15-16.46,10.26-1.99,18.65,2.24,25.39,9.65,3.24,3.57,3.54,8.54,4.08,13.17.39,3.32.62,6.67-1.28,9.79-.57.95-.46,2.31-.65,3.49-.63,3.87-2.91,5.62-7.19,5.31.27-1.2.52-2.36.78-3.53.13-.03.26-.07.39-.1.23.52.46,1.04.85,1.92,1.09-2.54,3.89-3.76,3.74-7.08-.09-2.04-.22-3.99-.9-5.9ZM82.07,73.96c-.31.31-1.24.54-1.29.46-.43-.77-.73-1.61-1.09-2.49,1.03-.48,1.88-.87,2.72-1.26,1.09,1.29,1.04,1.47-.3,1.87,0,.63.17,1.22-.04,1.42Z" fill="#f60"/>
      <path d="M69.63,53.96c-1.24-.02-2.58.12-3.69-.31-1.99-.76-3.37-.38-4.09,1.47.51-.26,1.12-.56,2.06-1.03-1.21,1.43-2.12,2.52-2.89,3.42h0c1,.93,2.64,1.75,3.05,2.97.98,2.98,3.09,4.82,6,4.34.78-.13,1.66-.17,2.3-.56.79-.48,1.8-1.22,1.94-1.99.26-1.39.03-2.89-.14-4.33-.42-3.58-.9-3.95-4.53-3.99ZM73.11,57.89c-.29-2.64-2.1-2.61-3.98-2.61-1.05,0-2.09-.19-3.14-.3,6.05-.6,7.26-.1,7.12,2.91Z" fill="#f60"/>
      <path d="M64.79,67.1v1.16h0c.7,0,1.23-.05,1.74.01,1.03.13,2.16.67,3.05.39,1.06-.33,1.92-1.33,2.84-2.02-2.57-1.58-5.03.13-7.63.45Z" fill="#f60"/>
      <path d="M59.42,77.51c-.15,1.13-.3,2.25-.47,3.54.08.12.31.47.55.83.02-.64.18-.97.41-1.14-.08-1.35-.13-2.25-.18-3.14-.1-.03-.21-.06-.32-.09Z" fill="#f60"/>
      <path d="M67.48,80.87c-.34-.31-.68-.61-1.05-.94-1.24.83-1.4.69-1.52-1.07-.27.29-.81,1.35-1.27,1.31-1.7-.14-1.41-1.51-1.35-2.74-.29.68-.12,1.45-.41,1.95-.27.47-.91.75-1.7,1.26.79-.16,2.05.69,2.63-.19.1.78.2,1.57.3,2.39.51-2.18.52-2.23,3.51-1.6,1.82.38-.07,1.74.73,2.69.49-1.78.94-3.41,1.38-5.03-.07,0-.14-.02-.22-.02-.34.67-.69,1.34-1.03,2.01Z" fill="#f60"/>
      <path d="M59.92,80.8c.09-.06.17-.11.26-.17-.1.02-.18.05-.26.11,0,.02,0,.04,0,.06Z" fill="#f60"/>
      <path d="M78.44,66.55c-1.07.47-1.98.88-3.23,1.43,1.2.31,2.19.57,3.49.91-.11-.99-.18-1.66-.26-2.34Z" fill="#f60"/>
      <path d="M61.22,59.08c.03-.16.06-.32.09-.48-1.03-.37-2.06-.73-3.17-1.13-.08.78-.16,1.53-.24,2.27.16.05.31.11.47.16.51-1.75,1.65-1.38,2.85-.82Z" fill="#f60"/>
      <polygon points="25.57 71.18 29.14 71.18 29.14 69.95 27 69.95 27 68.62 28.76 68.62 28.76 67.39 27 67.39 27 66.2 29.14 66.2 29.14 64.97 25.57 64.97 25.57 71.18" fill="#f60"/>
      <path d="M32.18,66.2h.43c.18,0,.33.06.46.19s.19.27.19.45h1.31c0-.27-.05-.52-.15-.75-.1-.24-.24-.44-.42-.62-.18-.18-.38-.31-.62-.41-.23-.1-.48-.15-.76-.15h-.43c-.27,0-.52.05-.76.15-.24.1-.44.24-.62.41-.18.18-.31.38-.41.62-.1.24-.15.48-.15.75s.05.52.15.75c.1.23.24.42.41.59.18.17.38.29.62.39.23.09.48.14.76.14h.43c.18,0,.33.06.46.19s.19.28.19.46-.06.32-.19.45c-.12.12-.28.19-.46.19h-.43c-.18,0-.33-.06-.45-.19s-.18-.27-.18-.45h-1.31c0,.27.05.52.15.75.1.24.24.44.41.62.18.18.38.31.62.41.23.1.48.15.76.15h.43c.27,0,.52-.05.76-.15.24-.1.44-.24.62-.41.18-.18.32-.38.42-.62.1-.24.15-.48.15-.75s-.05-.52-.15-.76c-.1-.24-.24-.44-.42-.62-.18-.18-.38-.31-.62-.41h0c-.23-.11-.48-.16-.76-.16h-.43c-.18,0-.33-.05-.45-.14-.12-.09-.18-.24-.18-.41s.06-.32.18-.45c.12-.12.27-.19.45-.19Z" fill="#f60"/>
      <polygon points="35.2 66.24 36.54 66.24 36.54 71.18 37.97 71.18 37.97 66.24 39.31 66.24 39.31 64.97 35.2 64.97 35.2 66.24" fill="#f60"/>
      <path d="M40.58,69.94c-.18,0-.33.06-.46.19-.13.12-.19.28-.19.46s.06.33.19.46c.12.13.28.19.46.19s.33-.06.46-.19c.13-.13.19-.28.19-.46s-.06-.33-.19-.46c-.12-.13-.28-.19-.46-.19Z" fill="#f60"/>
      <path d="M99.3,65.45c-.18-.18-.38-.31-.62-.41-.24-.1-.49-.15-.75-.15h-.44c-.27,0-.52.05-.75.15-.24.1-.44.24-.62.41-.18.18-.31.38-.41.62-.1.24-.15.49-.15.75h1.31c0-.18.06-.32.19-.45s.27-.19.45-.19h.44c.18,0,.33.06.45.19s.19.27.19.45v.59c0,.18-.06.33-.19.46-.12.13-.27.2-.45.2h-.58c-.25,0-.48.05-.7.14-.22.09-.41.22-.57.39-.16.17-.29.35-.39.57-.09.22-.14.45-.14.7v1.31h4.18v-1.31h-2.76c0-.14.05-.26.15-.36h0c.1-.1.22-.15.36-.15h.45c.27,0,.52-.05.75-.15.24-.1.44-.24.62-.41.18-.18.31-.38.41-.62.1-.23.15-.48.15-.76v-.59c0-.27-.05-.52-.15-.75-.1-.24-.24-.44-.41-.62Z" fill="#f60"/>
      <path d="M104.84,66.03c-.09-.23-.22-.42-.39-.59-.17-.17-.39-.31-.65-.4-.25-.1-.55-.15-.88-.15h-.21c-.32,0-.61.04-.86.13-.25.09-.46.22-.64.38-.17.16-.31.35-.4.56-.09.22-.15.44-.16.69h-.01v2.75c0,.26.04.49.14.72.09.23.22.42.39.59.17.17.39.31.65.4.26.1.55.15.89.15h.21c.32,0,.61-.04.86-.13.25-.09.46-.22.63-.38.17-.16.31-.35.4-.56.1-.21.15-.44.16-.69h.01v-2.75c-.01-.25-.05-.49-.14-.72ZM103.55,69.4c0,.08-.01.17-.05.24-.04.07-.08.14-.14.2-.06.06-.12.11-.2.14-.08.03-.16.05-.24.05h-.2c-.08,0-.17-.02-.24-.05-.07-.03-.14-.08-.2-.14-.06-.06-.11-.12-.14-.2-.03-.08-.05-.16-.05-.24v-2.65c0-.08.02-.16.05-.24.04-.07.08-.14.14-.2.06-.06.12-.11.2-.14.08-.03.16-.05.24-.05h.2c.08,0,.17.02.24.05.07.03.14.08.2.14.06.06.11.12.14.2.03.08.05.16.05.24v2.65Z" fill="#f60"/>
      <polygon points="105.21 64.96 105.21 66.24 105.76 66.24 105.76 71.18 107.18 71.18 107.18 64.96 106.29 64.96 105.21 64.96" fill="#f60"/>
      <path d="M112.28,66.76c0-.25-.04-.49-.13-.72-.09-.23-.22-.42-.39-.59-.18-.17-.39-.31-.65-.4-.25-.1-.55-.15-.88-.15h-.2c-.32,0-.61.04-.86.13-.25.09-.46.22-.64.38-.18.16-.31.35-.41.56-.09.22-.15.44-.16.69h0v2.75c0,.26.04.49.13.72.09.23.22.42.39.59.17.17.39.31.65.4.26.1.56.15.89.15h.21c.32,0,.61-.04.86-.13.25-.09.46-.22.63-.38.17-.16.31-.35.4-.56.1-.21.15-.44.16-.69h.01v-2.75ZM110.86,69.4c0,.08-.02.17-.05.24-.03.07-.08.14-.14.2-.06.06-.12.11-.2.14-.08.03-.16.05-.24.05h-.2c-.08,0-.16-.02-.24-.05-.07-.03-.14-.08-.2-.14-.06-.06-.11-.12-.14-.2-.03-.08-.05-.16-.05-.24v-2.65c0-.08.02-.16.05-.24.03-.07.08-.14.14-.2.06-.06.12-.11.2-.14.08-.03.16-.05.24-.05h.2c.08,0,.17.02.24.05s.14.08.2.14c.06.06.11.12.14.2.03.08.05.16.05.24v2.65Z" fill="#f60"/>
      <path d="M122.5,68.57c0-29.6-24.08-53.69-53.69-53.69S15.12,38.96,15.12,68.57s24.09,53.69,53.69,53.69,53.69-24.09,53.69-53.69ZM68.81,121.31c-29.08,0-52.74-23.66-52.74-52.74S39.73,15.83,68.81,15.83s52.74,23.66,52.74,52.74-23.66,52.74-52.74,52.74Z" fill="#f60"/>
      <polygon points="9.02 43.89 9.02 43.89 9.02 43.89 9.02 43.89" fill="#f60"/>
      <polygon points="15.75 50.82 13.97 50.19 14.73 48.04 16.52 48.67 17.19 46.8 9.02 43.89 8.36 45.76 13.12 47.46 12.35 49.61 7.58 47.91 6.92 49.79 15.08 52.7 15.75 50.82" fill="#f60"/>
      <path d="M18.56,43.89l-.72-.66,1.41-2.67.95.23h0s.97-1.84.97-1.84l-8.74-1.99-1.4,2.65,6.56,6.12.97-1.83ZM16.56,42.03l-2.97-2.75,3.95.9-.98,1.85Z" fill="#f60"/>
      <path d="M23.03,36.4l-1.54-1.12.53-.73,2.25.14,1.36-1.88-2.81-.29c0-.41-.1-.8-.28-1.16-.19-.36-.45-.66-.79-.9l-1.38-1c-.29-.18-.6-.3-.94-.36-.34-.06-.67-.06-1,.01-.33.07-.65.21-.95.42-.3.21-.56.48-.78.83l-1.49,2.06-.36.5,7.02,5.08,1.17-1.61ZM20.78,33.34l-.68.94-2.69-1.95.68-.94c.07-.09.15-.17.26-.23.1-.06.21-.1.33-.12s.23-.02.35,0c.11.02.22.06.32.13h0s1.26.92,1.26.92c.19.14.3.33.34.59.04.25-.01.47-.15.67Z" fill="#f60"/>
      <path d="M27.31,31.04l.34-.36.86-.91c.29-.32.51-.65.65-.99.14-.34.22-.67.22-.99,0-.33-.06-.63-.19-.93-.13-.3-.31-.56-.54-.81h0s-2.61-2.48-2.61-2.48c-.26-.25-.54-.43-.85-.56-.31-.12-.63-.18-.96-.17-.33.01-.67.09-1.01.25-.34.15-.67.39-.99.71l-.86.91-.34.36-1.02,1.08,6.29,5.97,1.02-1.08ZM23.42,25.04c.16-.17.37-.26.62-.27.25,0,.46.07.64.23l2.51,2.38c.17.16.26.37.27.62,0,.25-.07.46-.24.64h0l-.8.85-3.8-3.6.8-.85Z" fill="#f60"/>
      <path d="M31.64,21.72l2.21,3.09,3.43-2.45c.24-.18.44-.39.59-.63.15-.25.25-.51.29-.78.04-.27.04-.55-.02-.84-.06-.28-.18-.55-.35-.79l-.28-.39c-.24-.33-.54-.58-.91-.73-.37-.15-.74-.21-1.11-.17.02-.25,0-.5-.06-.75-.06-.25-.18-.49-.34-.71l-.28-.39c-.18-.24-.39-.44-.63-.59-.25-.15-.51-.25-.78-.29-.27-.05-.56-.04-.84.02-.28.06-.55.18-.79.35l-2.94,2.1,2.21,3.09.61.86ZM34.83,19.7c.15-.1.31-.14.48-.11.17.03.31.11.41.26l.35.49c.1.14.14.31.11.47-.03.17-.12.31-.27.41l-1.44,1.03-1.09-1.52,1.44-1.03ZM32.39,17.3c.15-.1.31-.14.48-.11.17.03.31.12.41.26l.35.49c.1.15.14.31.11.48-.03.17-.12.31-.27.41l-.96.69-1.09-1.53.96-.69Z" fill="#f60"/>
      <path d="M41.45,19.75l-.22-.96,2.68-1.39.66.73h0s1.84-.95,1.84-.95l-6.06-6.6-2.66,1.38,1.92,8.76,1.84-.96ZM42.72,16.11l-1.86.97-.88-3.95,2.74,2.98Z" fill="#f60"/>
      <path d="M44.94,11.02l1.31,3.62c.12.33.29.63.52.88.23.25.49.45.8.59.31.14.65.22,1.04.23.38,0,.8-.07,1.24-.23l.26-.09c.44-.16.8-.36,1.1-.62.29-.25.51-.53.66-.84.15-.3.23-.63.24-.97.01-.34-.04-.68-.16-1.01l-1.87.67c.04.11.05.23.04.34-.01.12-.04.23-.09.34-.05.1-.12.2-.2.28h0c-.08.08-.18.14-.29.18l-.26.09c-.11.04-.23.06-.35.05-.12,0-.24-.03-.34-.08-.1-.05-.2-.12-.28-.2-.08-.08-.14-.18-.18-.29l-1.25-3.49c-.08-.22-.06-.45.05-.68.11-.23.28-.38.5-.46l.26-.09c.22-.08.45-.07.68.04.23.1.39.27.47.49l1.87-.67c-.12-.33-.29-.63-.52-.88-.23-.25-.49-.45-.8-.59-.31-.14-.65-.22-1.04-.23-.38,0-.8.07-1.24.23l-.26.09c-.42.15-.78.35-1.07.59-.29.24-.51.51-.66.8s-.24.61-.26.93c-.03.33.01.65.11.98h-.01Z" fill="#f60"/>
      <polygon points="55.99 14.12 55.58 12.28 55.94 11.27 57.86 13.71 60.1 13.21 56.71 9.09 58.23 4.75 55.99 5.24 54.79 8.72 54.12 5.66 52.17 6.09 54.05 14.55 55.99 14.12" fill="#f60"/>
      <path d="M64.09,11.31c.14.31.33.58.58.81.25.23.56.4.92.53.36.13.78.18,1.25.17h.27c.47-.02.88-.11,1.23-.26.35-.15.65-.35.88-.59.23-.24.41-.53.53-.85.12-.32.17-.66.16-1.01l-1.99.06c0,.12-.02.23-.07.34-.05.11-.11.21-.19.29-.08.09-.18.15-.28.21h0c-.1.05-.22.08-.33.08h-.27c-.12.01-.24,0-.35-.05-.11-.04-.21-.11-.3-.19-.09-.08-.15-.17-.21-.28-.05-.11-.08-.22-.08-.34l-.12-3.7c0-.24.08-.44.25-.63.18-.18.38-.28.62-.29h.27c.24-.02.45.06.64.24.19.17.29.38.29.61l1.99-.06c-.01-.36-.08-.69-.22-1-.14-.31-.33-.58-.58-.81s-.56-.4-.92-.53c-.36-.13-.78-.18-1.25-.17h-.27c-.45.02-.85.1-1.2.24-.35.14-.64.32-.87.56-.24.23-.41.5-.54.8-.12.3-.19.63-.2.97h-.01l.14,3.85c.01.36.08.69.22,1Z" fill="#f60"/>
      <path d="M72.13,12.05c.22.26.49.47.84.65s.74.28,1.21.33l.28.03c.45.05.85.02,1.21-.07.36-.09.67-.24.94-.43.27-.2.48-.43.64-.72.16-.29.26-.6.31-.93h.01l.63-6.3-1.98-.2-.62,6.16c-.01.12-.05.23-.1.33-.06.1-.13.19-.22.26-.09.07-.19.13-.3.17-.11.04-.22.05-.34.04l-.28-.03c-.12-.01-.23-.05-.33-.1-.1-.06-.19-.13-.26-.22-.07-.09-.13-.19-.16-.3-.04-.11-.05-.23-.04-.34l.61-6.16-1.98-.2-.62,6.16c-.04.35,0,.69.09,1.02.09.33.25.62.46.88Z" fill="#f60"/>
      <path d="M79.55,12.98c.18.29.42.55.7.76.29.22.62.36.98.45l.59.14c.37.09.73.1,1.08.04.35-.06.67-.19.97-.37.3-.18.55-.42.77-.71.21-.29.36-.62.45-.98.08-.37.1-.73.03-1.08-.06-.35-.19-.67-.37-.97-.19-.29-.42-.55-.71-.76h0c-.29-.22-.61-.37-.98-.46l-.59-.14c-.25-.06-.43-.17-.57-.34-.13-.17-.17-.38-.11-.62.05-.24.19-.42.39-.55.21-.13.43-.16.68-.11l.59.14c.25.06.43.19.56.4.13.21.17.43.11.67l1.77.42c.08-.36.09-.72.03-1.07-.06-.36-.19-.68-.37-.98s-.42-.55-.71-.76c-.29-.22-.61-.36-.98-.45l-.59-.14c-.37-.08-.73-.1-1.08-.03-.35.06-.68.19-.97.37-.29.18-.55.42-.76.71-.21.29-.36.62-.45.98-.08.37-.1.72-.03,1.06.06.34.19.65.38.93.19.28.42.52.71.72.29.2.62.35.99.43l.59.14c.25.06.43.19.56.4.13.21.16.44.11.68-.06.24-.19.42-.4.55-.21.13-.44.16-.68.11l-.59-.14c-.25-.06-.43-.19-.56-.4-.12-.21-.16-.43-.1-.67l-1.77-.42c-.08.36-.09.72-.03,1.07.06.35.19.68.37.97Z" fill="#f60"/>
      <polygon points="88.82 16.34 91.17 9.85 92.93 10.49 93.53 8.83 88.14 6.88 87.54 8.54 89.29 9.17 86.95 15.67 88.82 16.34" fill="#f60"/>
      <path d="M92.02,16.01c-.03.34.01.67.12.99.11.32.29.62.55.91.26.29.6.53,1.01.74l.25.13c.4.2.79.32,1.16.36.37.04.71.01,1.03-.07.32-.09.6-.24.86-.44.25-.21.46-.46.63-.76l1.72-3.44c.16-.32.25-.64.28-.98.03-.34-.01-.67-.12-.99-.11-.32-.29-.62-.55-.91-.26-.29-.6-.53-1.01-.74l-.26-.13c-.4-.2-.79-.33-1.16-.37-.37-.04-.71-.02-1.03.07-.32.09-.6.24-.86.45-.25.21-.46.46-.63.76l-1.72,3.44c-.16.32-.25.65-.28.99ZM94.08,15.91l1.66-3.31c.05-.1.12-.2.22-.27.09-.07.19-.13.3-.17.11-.04.22-.05.34-.05.12,0,.23.03.33.09l.25.13c.21.1.36.28.44.52.08.24.06.46-.04.68l-1.66,3.31c-.05.1-.12.2-.22.27-.09.07-.19.13-.3.16-.11.04-.22.05-.34.05-.12,0-.23-.03-.33-.09h0s-.25-.12-.25-.12c-.1-.05-.2-.12-.27-.22-.07-.09-.13-.19-.17-.3-.04-.11-.05-.22-.05-.34,0-.12.03-.23.09-.33Z" fill="#f60"/>
      <polygon points="99.38 21.71 100.88 19.55 100.14 22.23 101.37 23.09 103.59 21.47 102.11 23.61 103.75 24.75 108.7 17.63 107.06 16.49 102.68 19.9 104.33 14.59 102.7 13.46 97.75 20.57 99.38 21.71" fill="#f60"/>
      <path d="M108.8,29.47l1.38-1.31.62.66h0s-.56,2.18-.56,2.18l1.6,1.68.8-2.71c.41.07.8.05,1.19-.06.38-.12.73-.32,1.03-.61l1.24-1.17c.23-.25.41-.54.53-.85.12-.32.18-.65.17-.99,0-.34-.09-.68-.23-1.01-.15-.33-.37-.64-.67-.92l-1.75-1.84-.42-.45-6.29,5.96,1.37,1.44ZM113.85,24.69l.79.84c.08.09.15.19.18.3.04.11.05.22.05.34,0,.12-.03.23-.07.34-.04.11-.11.21-.19.29h0l-1.13,1.07c-.17.16-.38.24-.64.23-.25-.01-.46-.1-.63-.28l-.79-.84,2.41-2.29Z" fill="#f60"/>
      <rect x="112.1" y="30.68" width="8.67" height="1.99" transform="translate(4.96 77.87) rotate(-37.73)" fill="#f60"/>
      <path d="M115.55,37.87l.27.42.66,1.06c.24.36.5.65.79.88.29.22.59.37.91.46.31.08.63.1.95.05.32-.05.63-.15.92-.32h0s3.05-1.9,3.05-1.9c.3-.19.55-.41.75-.68.2-.27.34-.57.41-.89.07-.32.08-.67.01-1.04-.07-.37-.22-.75-.44-1.13l-.66-1.06-.27-.42-.79-1.26-7.35,4.59.79,1.26ZM121.72,34.62l.62.99c.12.2.16.42.1.67-.05.25-.18.43-.38.56l-2.93,1.83c-.2.12-.42.16-.67.1-.25-.06-.43-.19-.56-.39h0l-.62-.99,4.44-2.77Z" fill="#f60"/>
      <polygon points="120.65 47.46 122.21 46.74 120.96 44.03 122.64 43.25 123.67 45.49 125.23 44.77 124.2 42.54 125.71 41.84 125.71 41.84 126.96 44.55 128.52 43.83 127.27 41.12 126.69 39.87 126.44 39.32 118.56 42.94 120.65 47.46" fill="#f60"/>
      <path d="M126.93,46.84c-.36.12-.67.29-.93.52-.26.23-.46.5-.6.8-.15.3-.23.63-.25.98-.02.35.02.71.14,1.07l.18.58c.08.24.06.47-.05.69-.11.22-.29.37-.53.44-.23.07-.46.05-.68-.06-.22-.11-.37-.29-.44-.53l-.18-.58c-.08-.24-.06-.47.05-.68.11-.22.29-.36.52-.43l-.56-1.74c-.35.11-.67.29-.94.53-.27.24-.49.51-.65.81-.16.31-.26.64-.29.99-.03.35,0,.71.12,1.07l.18.58c.11.36.29.67.53.94.23.27.51.48.82.65.31.17.64.26,1,.3.36.03.71,0,1.07-.12.36-.11.67-.29.94-.53.27-.24.48-.51.64-.82.16-.31.25-.65.29-1h.01c.03-.36,0-.71-.12-1.07l-.18-.58c-.07-.24-.08-.46,0-.66.07-.2.23-.34.48-.42.23-.07.46-.06.67.05.22.11.36.29.44.53l.18.58c.08.24.06.47-.05.69-.11.22-.29.36-.52.44l.56,1.74c.35-.11.67-.29.94-.53.27-.24.48-.51.64-.82.16-.31.26-.65.29-1,.03-.35,0-.71-.12-1.07l-.18-.58c-.11-.36-.29-.68-.53-.94-.24-.27-.51-.48-.82-.64-.31-.16-.64-.26-1-.29-.36-.03-.71,0-1.07.12Z" fill="#f60"/>
      <rect x="127.06" y="61.72" width="1.74" height="5.14" transform="translate(-4.3 9.38) rotate(-4.13)" fill="#f60"/>
      <polygon points="132.97 76.77 124.45 75.18 124.09 77.14 126.67 77.62 123.92 78.04 123.64 79.52 126.03 80.88 123.47 80.41 123.11 82.36 131.63 83.95 131.64 83.95 132 82 127.09 79.4 132.61 78.73 132.97 76.77" fill="#f60"/>
      <path d="M122.16,85.42l.81.55-1,2.85-.98-.08h0s-.68,1.96-.68,1.96l8.94.65.99-2.83-7.4-5.06-.68,1.96ZM124.42,86.96l3.35,2.27-4.04-.29.69-1.98Z" fill="#f60"/>
      <path d="M119.1,93.06l-.23.44-.57,1.11c-.19.39-.31.76-.35,1.13-.04.36-.02.7.07,1.01.09.31.23.59.44.84.21.25.45.46.75.63h0s3.2,1.66,3.2,1.66c.32.17.64.26.97.3.33.03.66,0,.97-.1.31-.1.62-.28.9-.53.29-.25.54-.57.75-.96l.57-1.11.23-.44.68-1.32-7.71-3.97-.68,1.32ZM120.39,94.29l4.65,2.39-.53,1.04c-.11.21-.28.35-.52.43-.24.08-.46.06-.68-.04l-3.08-1.58c-.21-.11-.35-.28-.43-.53-.08-.24-.06-.47.05-.68l.53-1.04Z" fill="#f60"/>
      <polygon points="113.47 102.34 114.88 103.31 116.57 100.85 118.1 101.9 116.7 103.93 118.12 104.91 119.52 102.88 120.88 103.82 120.88 103.82 119.19 106.28 120.6 107.25 122.29 104.79 123.08 103.66 123.42 103.15 116.28 98.24 113.47 102.34" fill="#f60"/>
      <polygon points="107.82 108.65 110.01 112.48 106.33 110.04 104.87 111.41 109.4 119.05 109.4 119.05 110.9 117.63 108.07 113.37 112.23 116.38 112.24 116.39 112.99 115.69 113.75 114.97 113.74 114.96 111.01 110.61 115.08 113.71 116.6 112.31 109.28 107.28 107.82 108.65" fill="#f60"/>
      <polygon points="102.16 113.46 102.16 113.46 102.16 113.46 102.16 113.46" fill="#f60"/>
      <rect x="102.88" y="113.23" width="1.99" height="8.67" transform="translate(-49 82.33) rotate(-35.56)" fill="#f60"/>
      <polygon points="101.43 122.26 97.94 116.3 96.22 117.31 99.72 123.27 98.1 124.21 99 125.73 103.94 122.83 103.05 121.31 101.43 122.26" fill="#f60"/>
      <polygon points="91.78 119.56 92.53 121.3 90.42 122.2 89.68 120.46 87.85 121.24 91.26 129.21 93.09 128.43 91.1 123.78 93.2 122.88 95.19 127.53 97.02 126.75 93.61 118.78 91.78 119.56" fill="#f60"/>
      <path d="M81.18,123.12l.39,1.85-1.39.29c-.43.07-.8.21-1.12.42-.32.2-.58.45-.77.74-.2.29-.33.6-.4.95-.07.35-.07.69,0,1.04h0s.35,1.67.35,1.67c.09.33.24.63.45.9.21.27.46.49.75.66.29.17.62.28.98.33.36.05.74.02,1.14-.09l2.74-.58.6-.13-1.79-8.48-1.95.41ZM81.24,130.21c-.24.05-.46,0-.67-.13-.21-.14-.35-.32-.39-.55l-.32-1.53c-.05-.23,0-.45.14-.66.14-.21.33-.34.56-.39l1.39-.29.69,3.27-1.39.29Z" fill="#f60"/>
      <path d="M73.67,124.3l.14,1.9-.9.07h0s-1.34-1.82-1.34-1.82l-2.31.17,1.59,2.33c-.31.27-.55.59-.7.96-.15.37-.21.77-.18,1.18l.12,1.7c.05.34.16.65.33.95.17.3.39.55.66.76.27.21.58.36.93.46.35.09.73.12,1.14.06l2.53-.18.62-.04-.63-8.65-1.98.15ZM73.02,131.32c-.12,0-.23,0-.34-.05-.11-.04-.21-.09-.3-.17-.09-.08-.16-.17-.22-.27-.06-.1-.09-.21-.1-.33l-.11-1.55c-.02-.23.06-.45.23-.64.17-.19.37-.29.61-.31l1.15-.08.24,3.32-1.15.08Z" fill="#f60"/>
      <rect x="62.77" y="127.82" width="8.67" height="1.99" transform="translate(-63.58 192.2) rotate(-88.36)" fill="#f60"/>
      <path d="M62.39,124.13l-1.24-.16c-.43-.05-.82-.03-1.18.05-.36.08-.67.22-.93.41-.26.19-.47.42-.64.7-.16.28-.27.58-.33.92h-.01l-.47,3.57c-.05.35-.03.69.05,1.02.08.32.23.62.43.88.2.26.47.49.8.67.33.19.71.31,1.16.38l1.24.16.5.06,1.47.19,1.12-8.59-1.47-.19-.49-.06ZM61.48,131.02l-1.15-.15c-.23-.03-.43-.15-.58-.35-.16-.2-.22-.41-.19-.65l.45-3.43c.03-.24.15-.43.35-.58.2-.15.42-.21.65-.18l1.16.15-.68,5.19Z" fill="#f60"/>
      <polygon points="51.83 123.74 54.73 124.46 54.27 126.27 51.88 125.67 51.47 127.33 53.85 127.93 53.45 129.54 53.45 129.54 50.55 128.81 50.14 130.48 53.03 131.21 54.37 131.54 54.96 131.69 57.07 123.29 52.25 122.07 51.83 123.74" fill="#f60"/>
      <rect x="40.56" y="122.89" width="8.67" height="1.99" transform="translate(-86.64 116.09) rotate(-66.69)" fill="#f60"/>
      <polygon points="42.25 117.81 40.2 121.45 40.46 116.8 38.72 115.83 34.48 123.38 36.21 124.35 38.34 120.55 37.99 125.36 38 125.36 39.74 126.34 43.98 118.78 42.25 117.81" fill="#f60"/>
      <polygon points="34.47 123.38 34.48 123.38 34.47 123.38 34.47 123.38" fill="#f60"/>
      <polygon points="32.22 110.9 27.8 116.2 26.37 115.01 25.24 116.36 29.64 120.03 30.77 118.68 29.33 117.48 33.75 112.17 32.22 110.9" fill="#f60"/>
      <polygon points="26.36 115.01 26.37 115.01 26.37 115.01 26.36 115.01" fill="#f60"/>
      <polygon points="19.34 110.24 19.34 110.24 19.34 110.23 19.34 110.24" fill="#f60"/>
      <polygon points="28.6 107.48 27.22 108.77 25.66 107.09 27.05 105.8 25.7 104.34 19.34 110.24 20.69 111.69 24.4 108.25 25.96 109.93 22.25 113.37 23.6 114.83 29.96 108.93 28.6 107.48" fill="#f60"/>
      <polygon points="21.72 98.86 20.32 99.85 22.04 102.29 20.53 103.36 19.1 101.35 17.7 102.34 19.12 104.35 17.77 105.31 17.77 105.31 16.04 102.88 14.64 103.87 16.37 106.3 17.16 107.42 17.52 107.92 24.59 102.92 21.72 98.86" fill="#f60"/>
      <path d="M17.77,95.01c.24-.25.41-.53.53-.85.11-.32.16-.67.14-1.05-.02-.38-.13-.79-.33-1.21l-.12-.26c-.19-.41-.41-.74-.68-1.01-.26-.26-.55-.46-.85-.59-.3-.13-.62-.19-.94-.19-.33,0-.65.07-.96.2h-.01s0,0,0,0l-5.76,2.64.83,1.81,5.63-2.58c.11-.05.22-.08.34-.08.12,0,.23.02.34.06s.21.1.3.18c.09.08.16.17.21.28l.12.26c.05.1.07.22.07.33s-.02.23-.06.34c-.04.11-.1.21-.18.3-.08.09-.17.15-.28.21l-5.63,2.59.83,1.81,5.63-2.58c.32-.15.6-.35.84-.59Z" fill="#f60"/>
      <path d="M10.41,89.61c.36-.11.67-.28.93-.51.26-.23.46-.49.61-.79.15-.3.24-.63.26-.98.03-.35-.01-.71-.12-1.07l-.18-.58c-.07-.24-.05-.47.06-.69.11-.22.29-.36.54-.44.24-.07.46-.05.68.06.22.11.36.29.44.54l.18.58c.07.24.05.47-.06.68-.11.21-.29.36-.53.43l.54,1.74c.36-.11.67-.28.95-.51.28-.23.49-.51.66-.81.16-.3.26-.64.3-.99.04-.35,0-.71-.11-1.07l-.18-.58c-.11-.36-.28-.68-.52-.95-.23-.27-.5-.49-.81-.66-.31-.16-.64-.27-1-.31-.36-.04-.72,0-1.07.1-.36.11-.68.28-.95.52-.27.23-.48.5-.65.81-.16.31-.26.64-.3,1h0c-.04.36,0,.71.11,1.08l.18.58c.07.24.07.46,0,.66-.08.2-.24.34-.48.41-.23.07-.46.05-.67-.06s-.36-.29-.43-.53l-.18-.58c-.07-.24-.05-.47.06-.69.11-.22.29-.36.52-.43l-.54-1.74c-.36.11-.67.28-.95.51-.28.24-.49.51-.65.81-.16.31-.26.64-.3,1-.04.35,0,.71.11,1.07l.18.58c.11.36.28.68.52.95.23.27.5.49.81.65.31.16.64.26,1,.3.36.04.72,0,1.07-.1Z" fill="#f60"/>
      <path d="M13.88,79.37l-.98-.09-.49-2.98.9-.4h0s-.34-2.05-.34-2.05l-8.16,3.71.49,2.96,8.92.9-.34-2.04ZM11.16,79.1l-4.02-.39,3.68-1.68.34,2.07h0Z" fill="#f60"/>
      <polygon points="8.63 66 10.37 66.16 10.81 61.03 9.08 60.88 8.64 66 8.63 66" fill="#f60"/>
      <path d="M68.81,0C31,0,.24,30.76.24,68.57s30.76,68.57,68.57,68.57,68.57-30.76,68.57-68.57S106.62,0,68.81,0ZM68.81,136.18C31.53,136.18,1.2,105.85,1.2,68.57S31.53.95,68.81.95s67.61,30.33,67.61,67.61-30.33,67.61-67.61,67.61Z" fill="#f60"/>
      <path d="M67.45,32.38c.19-.08.35-.2.49-.34.14-.14.26-.31.34-.49.08-.19.12-.39.12-.61v-.35c0-.29-.07-.56-.23-.8-.15-.24-.34-.43-.58-.57h0c.12-.13.21-.29.28-.46.07-.17.1-.36.1-.56v-.35c0-.22-.04-.42-.12-.61s-.19-.35-.33-.5-.31-.25-.5-.33c-.19-.08-.39-.12-.61-.12h-2.59v6.2h3.02c.22,0,.42-.04.61-.12ZM65.25,27.52h.85c.13,0,.24.04.33.13.09.09.13.2.13.32v.43c0,.13-.04.24-.13.33-.09.09-.2.13-.33.13h-.85v-1.35ZM65.25,31.28v-1.34h1.27c.13,0,.24.04.33.13.09.09.13.2.13.32v.43c0,.13-.04.24-.13.32-.09.09-.2.13-.33.13h-1.27Z" fill="#f60"/>
      <path d="M70.95,31.15h1.01c.31.01.6-.03.85-.13.25-.1.47-.23.65-.4.18-.17.32-.37.42-.61.1-.23.15-.48.15-.73v-1.22c-.02-.24-.08-.48-.18-.7-.1-.22-.25-.41-.43-.58-.18-.16-.39-.29-.64-.38-.25-.09-.52-.13-.81-.11h-2.45v6.21h1.42v-1.36ZM70.95,27.53h1.01c.17,0,.32.06.45.19.13.12.2.28.2.44v1.12c0,.17-.06.32-.2.44-.13.13-.28.19-.45.19h-1.01v-2.39Z" fill="#f60"/>
      <path d="M65.92,105.01c.13-.13.28-.19.45-.19h.2c.17,0,.32.06.45.19.13.13.2.28.2.45h1.42c0-.26-.04-.5-.13-.72-.09-.23-.22-.42-.39-.59-.17-.17-.39-.31-.65-.4-.26-.1-.56-.15-.89-.15h-.2c-.32,0-.61.04-.86.14-.25.09-.46.22-.64.38-.17.16-.31.35-.4.56-.1.22-.15.45-.16.69h0v2.75c0,.25.05.5.14.72.09.23.22.42.39.59.18.17.39.31.65.4.26.1.56.15.89.15h.2c.34,0,.63-.05.89-.15.26-.1.47-.24.65-.4.17-.17.3-.37.39-.59.09-.22.13-.47.13-.72h-1.42c0,.08-.02.17-.05.24-.04.07-.08.14-.14.2-.06.06-.12.11-.2.14h0c-.08.04-.16.05-.24.05h-.2c-.08,0-.16-.01-.25-.05-.08-.04-.15-.08-.21-.14-.06-.06-.11-.12-.14-.2-.03-.08-.05-.16-.05-.24v-2.65c0-.17.06-.32.2-.45Z" fill="#f60"/>
      <polygon points="69.27 104.91 70.61 104.91 70.61 109.86 72.03 109.86 72.03 104.91 73.37 104.91 73.37 103.65 69.27 103.65 69.27 104.91" fill="#f60"/>
      <path d="M62.67,69.94c.09.06.18.12.27.17.19.17.42.34.63.5l.43-1.01-.72-.72v-3.11s1.31-.16,1.31-.16c.39-.05.78-.14,1.19-.24-1.39-.92-2.5-2.41-3.16-4.41-.03-.09-.09-.19-.18-.29l-.11.59-1.75-.81c-.36-.17-.58-.25-.72-.29-.02.04-.04.1-.05.17l-.44,1.51-.2-.07.02.03c.47.89,1.17,1.71,1.9,2.58l.23.27c1.26,1.5,1.74,3.59,1.35,5.3Z" fill="#f60"/>
      <path d="M78.25,88.55c.04.07.23.24.45.37.1-.06.22-.13.29-.2.31-.31.6-.74.96-1.3.05-.08.1-.15.15-.23-.13-.33-.23-.67-.31-1-.14-.14-.28-.28-.38-.43-.13-.15-.35-.28-.45-.35-.14-.2-.3-.37-.45-.52l-.48.62c.02.36.02.71.03,1.06.01.77.02,1.44.18,1.99Z" fill="#f60"/>
      <path d="M69.18,84.91c.3.25.61.49.97.73l-.46-3.77,1.01-.45c.08-.03.16-.07.24-.1.14-.83.26-1.72.25-2.56-.13-.16-.39-.4-.55-.54-.06-.06-.12-.12-.18-.18l-.29,1.24-1.44,5.23c.15.14.3.28.45.4Z" fill="#f60"/>
      <path d="M61.42,75.64s0,0,0,0l.66-1.55-.19.05c-.11-.07-.28-.02-.46.02.02.09-.07.11-.07.11-.11-.06-.2-.04-.26.06-.07.11-.13.22-.09.39l.02.09c.17.33.15.61.38.83Z" fill="#f60"/>
      <path d="M69.32,70.23c-.1,0-.2.02-.3.02-.63,0-1.24-.15-1.79-.29-.32-.08-.63-.16-.89-.19-.23-.03-.51-.02-.87-.01-.21,0-.44.01-.69.01h-.58l-.07,1.29c.09.06.18.12.27.17.22.13.37.37.58.51.22.13.43.27.67.48.11.06.13.15.22.13.07.04.14.09.22.13.02.09.13.15.24.22,0,0,.09-.02.11.07.15.24.43.27.67.48l.11.07.02.09-.09.02c-.35.08-.8.1-1.24.21-.46.02-.98.14-1.43.16-.17-.04-.33,0-.48.03l-.15,2.73.14,1.1,2.18-2.4.21,2.92.2-.13.47.42.61-1.19,2.33.23c-1.09-1.35-1.59-3.12-1.38-4.93.1-.84.36-1.63.74-2.34Z" fill="#f60"/>
      <path d="M58.3,55.93l1.42.5.73-1.86c.36-.91,1.32-2.64,3.5-2.78-.15-.23-.31-.46-.43-.69-.06-.26-.3-.48-.36-.74-.13-.15-.15-.24-.17-.33-.13-.15-.19-.41-.34-.65-.28-.39-.47-.81-.68-1.31-.17-.33-.23-.59-.4-.92-.15-.24-.32-.57-.38-.83l-.02-.09c-.26-.31-.26-.68-.43-1-.12-.18-.19-.38-.28-.56-4.39,1.2-7.47,3.86-9.15,7.86.1.11.2.22.32.34.13.15.26.31.47.44.13.15.37.37.5.53.13.15.35.29.47.44.26.31.58.51.84.81.13.15.28.31.44.48l.24-.14.1.19.32-.87,3.32,1.16v.03Z" fill="#f60"/>
      <path d="M80.95,77.19c.18-.04.42-.19.59-.23.08-.02.15-.03.22-.04.03-.07.06-.14.1-.21-.56.1-1.13.06-1.69-.12.06.22.13.44.19.67.2-.04.41-.08.6-.06Z" fill="#f60"/>
      <path d="M92.61,95.38c-.32-.2-.73-.37-1.06-.57-.22-.13-.54-.33-.76-.46-.63-.31-1.17-.64-1.71-.97-.76-.46-1.53-1.01-2.2-1.5-.43-.26-.89-.62-1.32-.88-.11-.07-.24-.22-.35-.29-.43-.26-.88-.62-1.34-.97-.09-.07-.18-.15-.27-.22-.42.82-1.24,1.51-2.65,2.34-.11.06-.22.1-.33.15.04.02.09.04.12.05.32.2.63.31.95.51.11.07.3.11.41.18.39.09.63.31,1.02.4.2.04.41.18.63.31.3.11.5.15.71.29.39.09.71.29,1.1.38.39.09.71.29,1.1.38,0,0,.09-.02.11.07.32.2.8.27,1.1.38.3.11.5.15.8.27.22.13.48.07.71.29.06-.02.12,0,.2.04.09-.02.18-.04.28.02.01.06.05.08.11.07.48.07.89.24,1.3.42.28.02.58.13.87.16.02.09.11.07.11.07.09-.02.18-.04.26-.06.06-.01.12-.03.18-.04.13-.22.15-.5.03-.65-.01-.06-.06-.11-.13-.15Z" fill="#f60"/>
      <path d="M45.91,46.42c.17.33.5.53.67.85.24.22.47.44.62.68.28.39.54.7.9,1.07.23.21.4.51.62.73,1.59-2.83,3.8-5.22,6.56-6.94.1-.06.21-.11.31-.17-.41-.04-.8-.05-1.14-.13-.48-.07-.85-.07-1.24-.16l-.09.02c-.18.04-.37,0-.48-.07-.2-.05-.37,0-.57-.05-.37,0-.76-.09-1.22-.07-.2-.05-.3-.11-.57-.05-.32-.2-.76-.09-1.06-.21-.2-.05-.39-.09-.57-.05-.09.02-.28-.02-.39-.09-.09.02-.2-.04-.28-.02-.09.02-.28-.02-.39-.09-.11-.07-.28-.02-.45.02-.28-.02-.5-.15-.78-.18-.18.04-.28-.03-.48-.07-.48-.07-.95-.14-1.43-.21-.3-.11-.59-.14-.78-.18-.28-.02-.5-.16-.69-.2-.08.02-.26.06-.35.08h.03c-.15.14-.29.36-.2.7l.02.09c.37.37.58.87.86,1.27.13.15.36.37.43.63.15.24.38.46.54.7.04.17.26.31.39.46.13.15.28.39.43.63.26.31.52.61.77.92l.02.09Z" fill="#f60"/>
      <path d="M73.99,88.45c.05.03.11.07.16.1.26-.7.45-1.47.64-2.29.09-.39.18-.79.29-1.19l.26-1c-.42.28-.87.54-1.3.79-.55.32-1.12.66-1.63,1.02l-1.01.71c.25.2.5.38.72.56.65.4,1.32.88,1.88,1.3Z" fill="#f60"/>
    </g>
  </g>
</svg>