<?xml version="1.0" encoding="UTF-8"?>
<svg id="Layer_1" data-name="Layer 1" xmlns="http://www.w3.org/2000/svg" width="149" height="121" viewBox="0 0 149 121">
  <polygon points="13.64 115.5 15.65 115.5 15.65 120.71 16.03 120.71 16.03 115.5 18.02 115.5 18.02 115.13 13.64 115.13 13.64 115.5" fill="#f60"/>
  <path d="M21.96,118.03c.23-.07.42-.18.59-.31.17-.14.3-.3.39-.49.09-.19.14-.41.14-.64,0-.5-.17-.88-.5-1.12-.32-.23-.78-.35-1.36-.35h-1.37v5.58h.38v-2.55h.68s.09,0,.12,0c.02,0,.04,0,.06.01.01,0,.02.01.03.02.01.01.03.03.05.05l1.98,2.38s.07.07.12.08c.03,0,.06.01.09.01h.37s-2.17-2.58-2.17-2.58c.14-.02.28-.05.41-.09ZM22.29,117.46c-.13.11-.3.19-.49.24-.19.06-.41.09-.66.09h-.92v-2.3h.99c.49,0,.87.09,1.12.27.24.17.36.45.36.83,0,.19-.04.35-.1.5-.07.15-.17.27-.3.37Z" fill="#f60"/>
  <path d="M26.9,115.13l-.06-.15-.06.15h-.08l-2.33,5.58h.28c.09,0,.16-.05.19-.13l.7-1.68h2.6l.7,1.67c.03.09.1.14.18.14h.28l-2.33-5.58h-.08ZM25.7,118.54l1.15-2.76,1.15,2.76h-2.3Z" fill="#f60"/>
  <path d="M33.26,118.07c-.14-.1-.3-.19-.48-.26-.17-.06-.34-.12-.51-.18-.17-.06-.34-.11-.5-.18-.15-.06-.29-.13-.41-.21-.11-.08-.2-.18-.27-.3-.07-.11-.1-.26-.1-.44,0-.14.03-.28.08-.4.05-.13.13-.24.23-.34.1-.1.23-.18.37-.23.3-.12.75-.11,1-.02.13.05.24.1.31.15.08.06.14.1.18.15.06.06.12.12.21.12.06,0,.11-.03.15-.07l.09-.13-.08-.08c-.19-.2-.39-.34-.61-.43s-.46-.14-.74-.14c-.25,0-.47.04-.66.12-.19.08-.36.18-.49.31-.13.13-.24.29-.31.46-.07.17-.1.35-.1.54s.03.36.09.51c.06.14.14.27.24.37.1.1.21.19.34.26.12.07.26.13.4.18.14.05.27.1.42.14.13.04.27.08.4.13.13.05.25.1.36.16.1.05.2.12.27.2.08.07.14.16.18.27.04.1.07.23.07.37,0,.18-.03.35-.09.51-.06.16-.15.29-.27.41-.12.12-.26.21-.44.28-.17.07-.37.11-.6.11-.15,0-.29-.01-.41-.04-.12-.03-.23-.07-.32-.11-.09-.04-.17-.09-.23-.14-.07-.05-.12-.1-.17-.15-.05-.05-.09-.09-.11-.12-.04-.04-.1-.09-.17-.09h-.07s-.04.03-.04.03c0,0-.02.02-.05.05l-.09.09.08.1c.09.11.2.22.3.31.11.09.23.17.35.23.13.07.27.11.42.15.15.03.32.05.51.05h0c.27,0,.52-.04.74-.13.22-.09.41-.21.56-.36.15-.15.27-.34.35-.54.08-.2.12-.42.12-.66s-.05-.44-.14-.6c-.09-.16-.21-.3-.35-.41Z" fill="#f60"/>
  <polygon points="39.46 117.69 36.03 117.69 36.03 115.13 35.65 115.13 35.65 120.71 36.03 120.71 36.03 118.06 39.46 118.06 39.46 120.71 39.84 120.71 39.84 115.13 39.46 115.13 39.46 117.69" fill="#f60"/>
  <polygon points="48.45 117.69 45.02 117.69 45.02 115.13 44.64 115.13 44.64 120.71 45.02 120.71 45.02 118.06 48.45 118.06 48.45 120.71 48.83 120.71 48.83 115.13 48.45 115.13 48.45 117.69" fill="#f60"/>
  <path d="M52.88,115.13l-.06-.16-.06.16h-.08l-2.33,5.58h.28c.09,0,.16-.05.19-.13l.7-1.68h2.6l.7,1.67c.03.09.09.14.18.14h.28l-2.33-5.58h-.08ZM51.68,118.54h0l1.15-2.76,1.15,2.76h-2.3Z" fill="#f60"/>
  <path d="M60.29,118.6c0,.25-.04.49-.12.71-.08.22-.19.41-.33.57-.14.16-.32.29-.52.38-.41.19-1,.19-1.41,0-.21-.09-.38-.22-.52-.38-.14-.16-.26-.36-.33-.58-.08-.22-.12-.46-.12-.72v-3.46h-.38v3.47c0,.3.05.58.14.84.09.27.23.5.41.7.18.2.4.36.65.47.25.11.54.17.86.17h0c.31,0,.6-.06.86-.17.25-.12.47-.27.65-.47.18-.2.32-.43.41-.7.09-.26.14-.54.14-.84v-3.47h-.38v3.47Z" fill="#f60"/>
  <polygon points="63.44 115.13 63.06 115.13 63.06 120.71 66.14 120.71 66.14 120.34 63.44 120.34 63.44 115.13" fill="#f60"/>
  <rect x="67.97" y="115.13" width=".38" height="5.58" fill="#f60"/>
  <path d="M75.13,115.13h-.36v4.83l-3.48-4.74c-.04-.06-.1-.09-.17-.09l-.2-.26.04.26h-.02v5.58h.36v-4.85l3.5,4.77c.05.07.1.08.16.09l.22.29h0s-.06-.29-.06-.29v-5.58Z" fill="#f60"/>
  <polygon points="79.9 120.77 79.9 120.77 79.9 120.77 79.9 120.77" fill="#f60"/>
  <path d="M80.44,118.33c0,.1.08.18.19.18h1.04v1.42c-.11.07-.22.13-.33.18-.13.06-.26.12-.41.16-.14.04-.3.08-.47.1-.17.02-.36.04-.57.04-.34,0-.66-.06-.94-.17-.28-.11-.52-.28-.72-.48-.2-.21-.36-.47-.47-.78-.11-.31-.17-.66-.17-1.06s.06-.75.17-1.05c.11-.3.27-.57.47-.78.2-.21.45-.38.74-.49.29-.11.62-.17.99-.17.29,0,.54.03.73.08.2.05.36.12.48.18.12.07.21.13.27.18.1.09.16.13.23.13.06,0,.11-.03.15-.07l.08-.14-.09-.08c-.12-.11-.25-.21-.38-.29-.13-.08-.27-.15-.42-.2-.15-.05-.31-.09-.48-.12-.17-.03-.36-.04-.56-.04-.42,0-.8.07-1.14.2-.34.13-.63.33-.87.58-.24.25-.43.55-.55.9-.13.35-.19.74-.19,1.17s.06.83.19,1.18c.13.35.31.66.54.9.24.25.52.44.85.57.33.13.69.2,1.09.2.23,0,.44-.01.64-.04.19-.03.38-.07.54-.12.17-.05.33-.12.47-.19.14-.07.29-.16.42-.25l.06-.04v-1.97h-1.6v.18Z" fill="#f60"/>
  <path d="M90.69,119.71c-.07,0-.12.05-.13.06-.11.1-.23.2-.34.28-.11.08-.23.14-.36.2-.13.05-.27.1-.43.12-.16.03-.34.04-.55.04-.32,0-.61-.05-.89-.17-.27-.11-.5-.27-.7-.48-.2-.21-.36-.48-.47-.78-.11-.31-.17-.67-.17-1.06s.06-.73.17-1.04c.11-.3.27-.57.47-.78.2-.21.44-.38.72-.49.28-.11.59-.17.93-.17.19,0,.35.01.49.04.14.03.27.06.38.1.11.04.2.08.27.13.08.05.14.09.2.13.06.04.1.08.13.1.04.03.1.08.17.08.06,0,.11-.03.15-.07l.08-.14-.09-.08c-.13-.11-.26-.2-.38-.28-.13-.08-.26-.15-.41-.21-.14-.05-.3-.1-.46-.12-.16-.03-.34-.04-.54-.04-.39,0-.76.07-1.08.21-.33.14-.61.33-.85.59-.24.25-.42.55-.55.9-.13.35-.19.72-.19,1.15s.06.83.19,1.18c.13.35.31.65.54.9.23.25.51.44.83.57.32.13.66.2,1.04.2h0c.23,0,.44-.02.63-.06.19-.04.37-.09.53-.16.16-.07.31-.15.44-.24.13-.09.26-.2.38-.31l.11-.11-.21-.18h-.06Z" fill="#f60"/>
  <path d="M97.05,115.84c-.23-.25-.51-.44-.82-.58-.63-.26-1.46-.27-2.09,0-.32.13-.59.33-.82.57-.23.25-.41.55-.53.9-.12.35-.19.74-.19,1.17s.06.83.19,1.18c.13.35.31.65.53.9.23.25.51.44.82.57.31.13.67.2,1.04.2h0c.38,0,.73-.06,1.05-.2.32-.13.59-.32.82-.57.23-.25.41-.55.53-.9.12-.35.19-.74.19-1.18s-.06-.83-.19-1.18c-.12-.35-.3-.65-.53-.9ZM95.18,115.43h0c.33,0,.63.05.9.17.27.11.5.27.69.48.19.21.34.47.45.78.11.31.16.67.16,1.06s-.06.75-.16,1.05c-.11.3-.26.57-.45.77-.19.21-.42.37-.69.48-.54.22-1.25.23-1.79,0-.26-.11-.5-.27-.69-.48-.19-.21-.35-.47-.46-.78-.11-.31-.17-.66-.17-1.05s.06-.75.17-1.05c.11-.31.26-.57.46-.78.19-.21.42-.37.69-.48.27-.11.57-.17.89-.17Z" fill="#f60"/>
  <polygon points="105.14 120.71 105.14 120.71 105.14 120.71 105.14 120.71" fill="#f60"/>
  <path d="M104.93,115.13c-.06.01-.11.04-.14.1l-2.25,3.91-2.32-3.91c-.03-.05-.09-.09-.15-.1l-.26-.44.08.44h-.01v5.58h.36v-4.75l2.13,3.59c.04.05.07.08.11.09l.07.16.07-.16s.08-.04.12-.1l2.05-3.57v4.73h.36v-5.58h0l.11-.53-.31.53Z" fill="#f60"/>
  <path d="M109.07,115.13h-1.34v5.58h.38v-2.27h.96c.28,0,.54-.04.77-.12.23-.08.44-.2.61-.34.17-.15.31-.32.4-.53.1-.2.14-.43.14-.67,0-.55-.17-.97-.52-1.25-.33-.27-.81-.41-1.42-.41ZM108.11,115.49h.96c.53,0,.93.11,1.18.33.25.21.38.53.38.96,0,.18-.04.35-.11.5-.07.16-.18.29-.31.41-.13.12-.3.21-.49.28-.19.07-.41.1-.66.1h-.96v-2.59Z" fill="#f60"/>
  <path d="M114.1,115.13l-.06-.16-.06.16h-.08l-2.33,5.58h.28c.09,0,.16-.05.19-.13l.7-1.68h2.6l.7,1.67c.03.09.1.14.18.14h.28l-2.33-5.58h-.07ZM112.89,118.54h0l1.15-2.76,1.15,2.76h-2.3Z" fill="#f60"/>
  <path d="M122.23,115.13h-.36v4.83l-3.48-4.74c-.04-.06-.1-.09-.17-.09l-.2-.26.04.26h-.02v5.58h.36v-4.85l3.5,4.77c.05.07.1.08.16.09l.22.29h0s-.06-.29-.06-.29v-5.58Z" fill="#f60"/>
  <path d="M127.84,115.22l-1.77,2.74-1.77-2.74c-.04-.06-.1-.1-.17-.1h-.34l2.09,3.23v2.35h.38v-2.35l2.09-3.23h-.34c-.07,0-.14.04-.17.1Z" fill="#f60"/>
  <polygon points="129.39 120.77 129.39 120.77 129.39 120.77 129.39 120.77" fill="#f60"/>
  <path d="M129.11,120.11c-.07.08-.11.17-.11.27s.04.2.11.27c.07.07.17.11.27.11.1,0,.2-.04.27-.11.08-.07.12-.17.12-.28s-.04-.2-.12-.28c-.15-.15-.41-.15-.55,0Z" fill="#f60"/>
  <path d="M115.6,49.28c.13.05.26.09.38.16-.12-.07-.25-.11-.38-.16h0Z" fill="#f60"/>
  <path d="M125.63,100.13c.04.1.06.21.08.32v-3.92l-4.37-7.47,4.29,11.07Z" fill="#f60"/>
  <polygon points="43.52 65.48 45.8 65.48 44.66 62.11 43.52 65.48" fill="#f60"/>
  <path d="M100.72,17.13s.78.94.91,1.48c.36-.77.44-1.23-.91-1.48Z" fill="#f60"/>
  <path d="M108.75,27.42s-1.81-1.35-2.82-2.45c-1.01-1.11-1.92-2.08-1.92-2.08.28,1.48,1.46,2.76,1.92,3.22.46.46,2.82,1.31,2.82,1.31Z" fill="#f60"/>
  <path d="M142.62,44.88c-1.03-1.44-2.14-2.85-3.01-3.72-.68-.69-1.52-1.85-2.32-2.96,3.35-1.56,6.22-4.01,8.29-7.18,2.93-4.48,3.94-9.84,2.84-15.08-2.27-10.82-12.92-17.78-23.74-15.51-8.61,1.81-14.76,8.93-15.77,17.22-.67-1.05-1.4-1.9-2.66-2.55-1.37-2.56-3.18-4.76-4.17-5.88-.94-1.07-2.49-1.36-3.76-.72-1.12.57-1.95,1.05-2.46,1.41-1,.71-1.7,2.1-2.64,4.14-.13.28-.3.64-.4.85-.3.25-1.04.73-1.89,1.23-.57-.5-1.25-1.16-1.81-1.68-1.49-1.41-2.06-1.93-2.56-2.21-1.66-.93-5.34-.46-5.35-.46-.38.07-.84.15-3.38,1.79-.2-.25-.41-.52-.64-.8-1.71-2.16-2.99-3.92-3.61-4.97-1.17-1.99-1.97-2.76-3.27-3.11-.27-.21-.51-.46-.72-.76-.19-.27-.35-.56-.52-.87-.55-1-1.46-2.67-3.72-2.67-.96,0-1.96.29-3.08.89-.37.2-.75.44-1.14.7h-.03l-.6.45c-1.72,1.3-3.32,2.97-4.49,4.19-.24.25-.46.48-.67.69-.1.1-.19.19-.27.27-.16.15-.62.48-1.99,1-.53.2-1.09.39-1.64.58-1.24.42-2.4.82-3.26,1.33-1.54.9-2.53,1.97-3.49,3.02-.18.19-.36.39-.55.59l-.06.06c-.11.12-.23.25-.36.38-.46.47-.66.62-.73.67-.07.01-.21.03-.33.05-.18.02-.38.05-.61.09-.56.09-1.06.28-1.5.53-1.17-.89-2.41-1.3-3.71-1.22-2.62.16-4.44,2.24-5.74,4.04-1.69,2.34-7.39,7.81-9.07,8.49-2.08.84-3.67,2.23-4.41,2.97-.59.23-1.59.61-2.26.83-2.09.69-5.33,4.43-7.38,10.09-2.96,1.31-4.53,3.17-5.66,5.34-.3.31-.58.63-.82.99-1.37,2.03-1.65,4.6-.74,6.87l10.12,25.24c.14.35.31.69.49,1.01-3.01.93-5.21,3.74-5.21,7.05v13.45c0,4.07,3.31,7.37,7.37,7.37h2.16c1.32,0,2.56-.35,3.63-.96,1.07.61,2.31.96,3.63.96h2.16c.46,0,.91-.05,1.35-.13.45.09.91.13,1.37.13h1.74c1.76,0,3.41-.55,4.77-1.59,0,0,0,0,.01,0,1.36,1.03,3.02,1.58,4.79,1.58h1.72c1.06,0,2.09-.23,3.03-.65,1.49.54,3.1.81,4.81.81,1.81,0,3.51-.31,5.07-.91.25-.1.5-.2.74-.32,1.11.67,2.41,1.07,3.79,1.07h7.63c1.84,0,3.52-.68,4.81-1.8,1.32,1.15,3.03,1.8,4.82,1.8h1.75c1.76,0,3.41-.55,4.77-1.59,0,0,0,0,.01,0,1.36,1.03,3.02,1.58,4.79,1.58h1.73c.8,0,1.58-.13,2.31-.37.74.24,1.52.37,2.33.37h2.2c1.27,0,2.47-.32,3.53-.89,1.05.58,2.26.89,3.53.89h2.2c.81,0,1.6-.13,2.33-.38.74.24,1.52.38,2.31.38h1.74c1.76,0,3.41-.55,4.77-1.59,0,0,0,0,.01,0,1.36,1.03,3.02,1.58,4.79,1.58h1.72c.83,0,1.63-.14,2.39-.4.75.26,1.55.4,2.38.4h2.11c4.07,0,7.39-3.31,7.39-7.39v-3.12l3.84-6.57c1.33-2.28,1.35-5.12.03-7.41-.9-1.56-2.33-2.72-3.98-3.3.68-1.11,1.08-2.42,1.08-3.82v-7.63h0s8.14-13.92,8.14-13.92c1.33-2.27,1.34-5.09.03-7.37-.76-1.32-1.9-2.34-3.24-2.97ZM125.24,3.05c1.2-.25,2.39-.37,3.57-.37h0c8.04,0,15.28,5.63,16.99,13.81.95,4.54.08,9.18-2.46,13.06-1.89,2.89-4.53,5.1-7.63,6.44-.53.23-1.07.43-1.62.6,0,0-.02,0-.02,0-.56.18-1.13.33-1.71.45-.44.09-.88.15-1.33.21-.23.03-.46.06-.7.08-.08,0-.16,0-.24.01-.58.04-1.16.06-1.73.05,0,0,0,0,0,0-.57-.01-1.15-.06-1.71-.13,0,0,0,0,0,0h0c-.92-.11-1.83-.31-2.73-.57-.95-.28-1.87-.63-2.77-1.07-.33-.17-.66-.34-.98-.53-.29-.17-.59-.33-.88-.51-.37-.24-.72-.51-1.07-.78-.26-.2-.52-.41-.77-.63-.04-.03-.07-.07-.11-.1-.54-.48-1.06-.98-1.53-1.52,0,0-.01-.01-.02-.02-.24-.27-.47-.55-.69-.83-.05-.06-.09-.12-.13-.17-.44-.57-.84-1.17-1.2-1.79,0,0,0,0,0,0-.17-.29-.32-.59-.48-.89-.05-.11-.1-.21-.16-.32-.3-.63-.57-1.29-.8-1.96-.01-.04-.03-.07-.04-.11-.17-.53-.32-1.07-.45-1.62-.02-.08-.05-.16-.07-.25-.1-.48-.16-.95-.22-1.42-.05-.43-.08-.86-.1-1.28-.42-8.38,5.3-16.08,13.76-17.86ZM125.11,37.02c-.4-.09-.79-.19-1.18-.31.39.11.78.22,1.18.31ZM93.52,18.47c.91-.65,1.54-2.77,1.58-2.83.03-.06,1.48-2.13,1.48-2.13l2.44-1.18,2.62,2.92s.59,1.92,1.31,3.1c.72,1.18,1.26,3.27,2.74,4.35-.44-.41-1.09-2.64-1.09-2.64,0,0,1.43,1.06,1.86,1.94.44.89.72,1.67,1.79,2.86.36.41.88.79,1.39,1.11.06.18.12.36.18.54l-1.33-.37h0s.68.48,1.55.97c.21.56.44,1.11.7,1.65-.14.03-.27.06-.41.09-.89.22-1.14,2.34-3.1,3.22.8-.39,1.39-2.32,1.39-2.32,0,0-1.43,1.26-1.64,1.19-.21-.07-1.08-.85-1.33-.97-.25-.12-2.74-.46-2.74-.46,0,0,3.31.24,5.14-.7-2.49.14-5.97-.58-7.15-1.02-1.18-.44-2.04-.6-2.63-.78-.59-.19-1.88-2.11-1.88-2.11,0,0,1.16,1.02,1.87,1.43.7.41,3.33.78,3.33.78,0,0-1.52-2.85-.42-2.06,1.1.78,4.45,1.82,4.45,1.82,0,0-2.53-1.82-3.6-2.74-1.07-.92-2.26-2.61-2.26-2.61l3.22,2.01s-2.28-2.59-3.48-3.41c-1.2-.82-2.74-2.68-2.74-2.68,0,0,1.58,1.04,1.88,1.16.3.12.13-.07.13-.89s.36-.9,1.05-2.01c-1.44.48-1.62,1.47-1.62,1.47,0,0-.74-1.57.27-2.83-1.18.46-1.85,1.76-2.7,3.1-.86,1.35-1.69,2.22-3.71,2.32,0,0,.55-.64,1.46-1.29ZM45.28,17.59h0c1.18-1.23,2.04-2.31,3.55-3.16,1-.57,2.88-1.08,4.54-1.7.24,0,.48-.02.74-.05,3.31-.42,4.99-2.11,6.93-4.29-3.16,2.64-4.61,2.59-4.61,2.59h0c1.06-1.05,2.96-3.1,4.88-4.54h0c.85-.02,2.02.01,3.11-.55-.71.09-1.63-.4-1.63-.4.7-.37,1.38-.6,1.99-.6,1.29,0,1.47,1.23,2.39,2.52-.04.38-.02.7.16.92.91,1.09,1.6,3.32,3.93,5.07-1.19-1.66-2.35-4.44-2.35-4.44.52.16.89.02,2.12,2.08.84,1.4,2.46,3.49,3.76,5.09l.27,2.31h0s-1.01-.53-1.01-.53l-.84,1.47-.1.9c-.28-1.21-1.14-2.37-1.14-2.37,0,0,.21,2.25.3,2.98.09.74-.61,1.79-.88,2.66-.27.87-.88,1.23-1.71,2.06-.84.84-2.45,1.76-3.54,2.85-1.05,1.06-3.65,2.19-3.81,2.26.13-.1,2.21-1.73,2.92-2.55-1.1.34-4,.68-4.82.91-.8.22-2.51,1.56-2.62,1.64.09-.1,1.82-2.21,2.56-2.31.76-.11,2.97-.41,3.58-1.18.61-.77,1.57-1.07,2.43-1.27.86-.2,1.43-.75,1.43-.75,0,0-1.79.02-3.87-.47,1.77-.51,4.52-.54,5.9-.12-.55-.88-2.89-1.33-3.13-1.45-.24-.11-1.37-1.94-1.13-2.07.24-.12,1.45-.43,2.23-.45.79-.02,1.95.27,1.95.27-1.79-1.55-6.19-1.08-7.14-.83-.95.25-2.27,1.34-3.64,1.6-1.37.26-2.23,0-3.92.27,1.39-.84,2.83-.89,3.65-1.06.82-.17,1.93-1.17,3.82-2.86-1.73.9-4.64,1.11-4.64,1.11,0,0,2.9-1,4.05-1.67,1.15-.67,2.7-1.22,4-1.27,1.29-.06,2.4.91,2.4.91,0,0-.61-1.11-1.6-1.55-.99-.43-3.76-.09-6.33.84,1.22-1.09,3.41-1.94,6.75-1.47-1.71-1.41-6.46-1.5-8.41-1.04.82-.66,2.39-.8,3.07-1.16.68-.36.71-1.9,1.38-1.8.67.1,1.83.1,2.73.72.87.59,2.08,1.39,2.16,1.44-.08-.09-1.45-1.57-1.81-2.26-.37-.71-1.03-1.65-1.7-2.25.91.18,1.46,1.51,2.35,1.72-.57-.49-1.65-3.83-1.97-3.91-.31-.08-.59-.05-.94.38-.34.42-.51.55-.88.55s-.8.36-2.53,2.3c-1.74,1.94-3.14,2.96-4.61,3.42-1.47.46-4.03,1.47-5.8,2.44.72-.29,2.66-.32,4.83-1.02-.91.67-3.39,1.7-5.08,1.78.05.5-1.65,2.07-3.25,2.66-1.6.59-2.74,1.18-3.68,2.02l2.26-3.34ZM8.95,45c1.13-.31,2.85-1.27,2.85-1.27,0,0-.7.15-1.46-.09.71-1.77,2.97-4.61,4.36-6.5,1.4-1.89,3.02-2.68,3.96-3.02.94-.34,2.13-.86,2.13-.86l-1.66-.24.52-.62,2.66-1.48s5.56-4.17,6.5-5.06c.94-.89,3.07-3.22,3.74-3.94.67-.73,1.46-2.22,2.68-2.73,1.22-.51,2.22-.21,3.06.32.84.53,1.27,1.89,1.64,2.37.36.48,1.18.73,3.08,2.01,1.9,1.28,4.73,4.12,4.73,4.12l-4.06-2.25s1.55,1.27,2.51,2.18c.96.91,2.84,2.29,4.03,3.11,1.19.82,1.35.73,6.62,4.16h0c-1.17-.66-4.9-1.02-4.9-1.02,0,0,2.54.48,4.39,1.98-1.93,1.07-5.68,5.09-5.78,5.09s1.83-3.41,1.83-3.41l-4.24-.79,2.64-.5c-1.52-.66-4.97-.27-7.84-.07,3.17-1.59,4.54-1.18,4.54-1.18,0,0-2.72-1.41-3.17-1.64-.46-.23-2.13.02-4.64.23-2.51.21-4.36.3-4.87.45-.51.16-3.91,3.02-5.43,5.73.25-2.07,2.46-4.84,2.46-4.84,0,0-4.59,1.66-6.98,3.48,3.22-3.71,7.76-4.66,8.09-4.73.33-.07,1.07-.73,3.3-1.48,2.23-.75,2.54-1.09,3.73-1.32,1.19-.23,5.54.25,5.54.25,0,0-3.42-1.91-6.72-2.13-3.29-.22-5.84,1.43-5.84,1.43,0,0,1.79-1.94,3.94-2.68,2.15-.73,4.8.02,7.35.73-3.65-2.22-5.21-2.59-7.31-2.59,1.85-1.18,4.03.05,4.09.09.06.03-2.26-1.5-2.82-1.72-.55-.22-1.6.02-1.6.02l.49-1.93s.95,1.04,2.11,1.45c-1.33-1.16-2.02-2.9-1.83-3.05.19-.15,1.1-.03,1.1-.03-1.85-1.82-3.29-.24-4.58,1.35-1.29,1.58-5.08,5.35-5.08,5.35l2.74-1.79c-1.83,2.2-3.52,3.07-5.25,4.29-1.73,1.23-4.28,2.47-4.28,2.47h2.4s-3.92,1.24-4.74,1.57c-.82.32-3.01,1.89-4.19,3.66-1.18,1.77-3.16,4.86-3.16,4.86,0,0,1.71-.38,2.55-1.64.84-1.26,3.6-2.76,5.71-2.76-2.47.38-5.33,3.75-6.53,4.74-1.2.99-1.83.99-2.7,1.75-.88.77-2.7.65-5.14,1.57,0,0,1.57-1.14,2.7-1.44ZM6.29,52.42c-.3-.74-.21-1.59.24-2.25.45-.67,1.2-1.06,2-1.06h4.02c.93,0,1.73.25,2.37.74.57.43,1.01.99,1.3,1.66.02.04.03.07.04.11l4.76,13.16,4.72-13.15s.01-.03.02-.05c.25-.64.68-1.2,1.27-1.67.66-.52,1.48-.79,2.39-.79h4.05c.8,0,1.55.4,2,1.06.45.67.54,1.51.24,2.25l-10.12,25.24c-.37.92-1.25,1.52-2.24,1.52h-4.71c-.99,0-1.87-.59-2.24-1.52l-10.12-25.24ZM69.31,101.02c0,1.33-1.08,2.41-2.41,2.41h-7.63c-1.33,0-2.41-1.08-2.41-2.41v-1.5c-.35.68-.79,1.29-1.32,1.82-.72.72-1.6,1.28-2.61,1.68-.99.38-2.09.57-3.28.57,0,0,0,0,0,0h0s0,0,0,0c-1.2,0-2.31-.19-3.29-.57-.85-.33-1.59-.78-2.24-1.34-.07.25-.17.48-.32.7-.45.66-1.2,1.05-2,1.05h0s-1.72,0-1.72,0c-.87,0-1.46-.31-1.8-.57-.42-.32-.75-.74-.97-1.24-.02-.05-.04-.09-.06-.14l-.46-1.35h-3.04l-.46,1.35s-.02.05-.03.08c-.19.49-.51.91-.95,1.26-.51.4-1.13.61-1.82.61h-1.74c-.49,0-.95-.16-1.35-.43-.39.27-.86.43-1.38.43h-2.16c-1.34,0-2.42-1.09-2.42-2.42v-3.8h-2.41v3.8c0,1.34-1.09,2.42-2.42,2.42h-2.16c-1.34,0-2.42-1.09-2.42-2.42v-13.45c0-1.34,1.09-2.42,2.42-2.42h2.16c1.34,0,2.42,1.09,2.42,2.42v3.73h2.41v-3.73c0-1.34,1.09-2.42,2.42-2.42h2.16c1.34,0,2.42,1.09,2.42,2.42v7.52l3.25-8.4c.36-.92,1.26-1.55,2.26-1.55h2.63c.99,0,1.9.62,2.26,1.55l2.68,6.92v-6.04c0-1.34,1.09-2.42,2.42-2.42h2.14c1.34,0,2.42,1.09,2.42,2.42v8.07c0,.33.04.61.11.84.06.18.13.31.22.42.07.08.15.14.26.18.14.06.32.09.54.09s.4-.03.54-.09c.11-.05.2-.11.26-.19.09-.1.16-.23.21-.4.07-.23.11-.51.11-.84v-8.08c0-1.34,1.09-2.42,2.42-2.42h2.14c.81,0,1.53.41,1.97,1.02.44-.62,1.15-1.02,1.96-1.02h2.18c1.33,0,2.41,1.08,2.41,2.41v9.59h3.05c1.33,0,2.41,1.08,2.41,2.41v1.49ZM137.22,86.36c.43.76.43,1.69-.01,2.44l-4.52,7.72v4.46c0,1.35-1.09,2.44-2.44,2.44h0s-2.11,0-2.11,0c-1.21,0-2.21-.89-2.4-2.04-.06.35-.18.69-.38.98-.45.66-1.2,1.05-2,1.05h-1.72c-.86,0-1.46-.31-1.8-.57-.42-.32-.75-.74-.97-1.24-.02-.05-.04-.09-.06-.14l-.46-1.35h-3.04l-.46,1.35s-.02.05-.03.08c-.19.49-.51.91-.96,1.26-.5.4-1.14.61-1.82.61h-1.74c-.8,0-1.55-.39-2-1.05-.16-.23-.26-.49-.33-.75l-.04.12c-.31,1.01-1.23,1.68-2.28,1.68h0s-2.2,0-2.2,0c-1.06,0-1.98-.68-2.29-1.69l-1.23-4.06-1.25,4.07c-.31,1.01-1.23,1.69-2.28,1.69h-2.2c-1.05,0-1.97-.68-2.28-1.68l-.04-.13c-.07.27-.17.53-.33.76-.45.66-1.2,1.05-1.99,1.05h-1.72c-.87,0-1.46-.31-1.8-.57-.42-.32-.75-.74-.97-1.24-.02-.04-.04-.09-.06-.14l-.46-1.35h-3.04l-.46,1.35s-.02.05-.03.08c-.19.49-.51.91-.95,1.26-.51.4-1.13.61-1.82.61h-1.75c-.8,0-1.54-.39-1.99-1.05-.45-.66-.55-1.5-.26-2.24l5.21-13.46c.36-.92,1.26-1.55,2.25-1.55h2.63c.99,0,1.9.62,2.25,1.55l3.28,8.48-2.14-6.94c-.22-.72-.09-1.52.36-2.12s1.17-.97,1.92-.97h2.05c.66,0,1.25.17,1.75.51.55.37.93.91,1.11,1.54l.81,3.08.97-3.14c.18-.56.52-1.02,1.01-1.4.51-.39,1.13-.59,1.81-.59h1.01c.86,0,1.46.31,1.8.57.42.32.75.74.97,1.23.03.06.05.13.07.19l.95,3.08.79-3.01c.17-.6.53-1.11,1.05-1.5.51-.37,1.13-.57,1.79-.57h1.87c.76,0,1.47.36,1.92.97.45.61.58,1.4.36,2.12l-2.11,6.84,3.25-8.39c.36-.93,1.27-1.55,2.26-1.55h2.62c.99,0,1.9.62,2.26,1.55l.49,1.26c-.08-.54,0-1.09.28-1.58.43-.75,1.24-1.23,2.12-1.23h1.87c.89,0,1.48.33,1.82.6.36.29.66.65.89,1.08.01.02.02.04.03.06l1.3,2.67,1.28-2.67s.03-.05.04-.08c.09-.17.2-.34.33-.5.16-.21.35-.4.56-.56.23-.18.5-.33.79-.43.32-.12.66-.18,1.01-.18h1.89c.87,0,1.68.47,2.12,1.23ZM142.48,52.73l-8.82,15.08v8.98c0,1.32-1.08,2.4-2.4,2.4h0s-4.91,0-4.91,0c-1.32,0-2.4-1.08-2.4-2.4v-8.98l-6.95-11.88c-.37.87-1.23,1.49-2.24,1.49h-8.45v2.61h5.91c1.34,0,2.42,1.09,2.42,2.42v3.27c0,1.34-1.09,2.42-2.42,2.42h-5.91v2.74h8.45c1.34,0,2.42,1.09,2.42,2.42v3.45c0,1.34-1.09,2.42-2.42,2.42h0s-15.78,0-15.78,0c-.98,0-1.82-.59-2.2-1.42-.38.84-1.23,1.42-2.21,1.42h-14.68c-.98,0-1.83-.59-2.21-1.43-.38.84-1.23,1.43-2.21,1.43h0s-14.68,0-14.68,0c-.73,0-1.38-.33-1.83-.85-.45.53-1.11.85-1.81.85h0s-3.86,0-3.86,0c-.93,0-1.73-.25-2.37-.74-.57-.43-1.01-.99-1.3-1.66-.02-.05-.04-.09-.06-.14l-1.15-3.41h-7.51l-1.15,3.41s-.02.06-.03.08c-.25.64-.68,1.2-1.27,1.67-.66.52-1.48.79-2.39.79h-3.9c-.79,0-1.54-.39-1.98-1.05-.45-.65-.55-1.49-.26-2.23l9.78-25.26c.36-.92,1.26-1.54,2.24-1.54h5.44c.99,0,1.89.62,2.24,1.54l8.74,22.59v-21.69c0-1.34,1.09-2.43,2.43-2.43h3.67c.67-1.84,1.56-4.5,1.16-4.47-2.96.22-9.34,5.12-9.93,5.58.43-.42,4.07-3.85,6.78-5.31,2.9-1.54,6.4-2.36,7.64-3.21,1.24-.84,5.96-3.41,7.21-3.89,1.24-.48,12.23-2.57,13.22-2.82.95-.24,5.69.96,6.02,1.04-.19-.08-1.79-.79-4.19-1.77-2.56-1.05-6.6-1.44-9.53-1.57-2.84-.12-5.84,1.54-6.02,1.64.12-.1,1.67-1.4,2.92-2.22,1.3-.86,4.86-1.77,5.7-1.81.81-.04,3.68,1.16,3.86,1.24-.16-.15-2.78-2.57-3.88-2.94-1.13-.39-4.88.27-4.88.27l2.08-1.54,5.73-.1-6.27-1.26.29-2.19s.65-.78,1.05-1.12c.41-.34.96-.41,1.65,0-.41-.75-2.28-1.55-2.28-1.55,0,0,.07-1.48.27-1.72.2-.24,1.24-1.25,1.52-1.17.26.08,2.07,1.33,2.31,1.52-.23-.26-2.22-2.57-2.76-2.82-.58-.26-2.19-.23-2.53-.15-.33.08-1.69.82-2.26,2.26-.57,1.44-1.72,2.45-1.8,3-.07.54.13,1.43.66,1.8-.84,0-1.14-1-1.52-1s-1.7.98-2.74,2.14c-1.04,1.16-3.78,3.73-3.78,3.73l.89-1.84s-2.1,2.02-3.2,3.57c-1.09,1.55-2.99,3.29-2.99,3.29,0,0,1.06-.32,2.36-.75s3.83-1.84,3.83-1.84c0,0-2.56,2.82-4.52,3.34-1.95.52-2.97.91-4.64,2.52.81-.57,2.08-.68,2.08-.68,0,0-7.84,5.32-8.14,5.45-.3.14-1.04.05-1.6.21-.56.16-2.61,1.43-7.08,4.18,0,0,4.9-4.66,5.81-5.68.91-1.02,1.45-1,3.32-1.93,1.88-.93,5.02-3.36,5.1-3.41-.02,0-3.55,1.54-3.55,1.54,0,0,1.9-1.48,3.32-2.36,1.42-.89,5.1-3.79,6.04-4.5.94-.71,3.04-3.39,4.61-4.39,1.58-1,3.35-2.41,4.21-3.11.85-.69,2.46-3.04,2.51-3.11-.12.06-2,.94-2.84,1.52-.82.57-1.98,1.98-2.07,2.08.08-.15,1.31-2.53,2.17-3.06.86-.53,1.55-1.68,1.59-1.76h0c1.08-.7,3.1-1.99,3.52-2.06.57-.1,3.15-.17,3.84.21.64.35,3.72,3.48,4.98,4.35l.08.3s-1.31.61-2.55.17c1.22,1,3.01.61,3.82,1.13.82.51,2.23,2.33,3.54,3.72,1.31,1.38,2.36,2.69,3.33,3.49.97.8,2.36,2.2,3.05,3.12.66.89,2.39,1.93,2.52,2.01-.12-.05-2.13-.91-3.02-1.68-.89-.78-2.47-2.45-2.57-2.55.04.1.72,1.63,1.94,2.66-1.18-.19-4.01-1.67-4.01-1.67,0,0,2.43,2.28,5.1,3.54,2.62,1.24,8.02,5.86,8.19,6.01-.07-.1-1.19-1.77-2.99-3.95,1.4,1.09,4.74,4.18,5.38,5.36.64,1.18.94,1.16,2.41,2.68,1.12,1.16,3.62,3.32,4.75,4.28h.22l-3.07-4.19,4.58,4.19h1.1c.95,0,1.75.26,2.38.76.5.4.91.91,1.23,1.51.01.02.02.04.03.06l3.63,7.47,3.59-7.47s.02-.05.04-.07c.13-.24.29-.48.47-.71.21-.27.46-.53.74-.75.31-.24.66-.43,1.04-.58.41-.15.85-.23,1.32-.23h2.29c-.8-.51-1.38-1.3-1.67-1.75-.43-.66-2.79-2.34-2.79-2.34l2.28,2.84s-5.94-4.11-7.71-4.48c2,1.36,3.86,4.45,3.86,4.45,0,0-4.92-3.57-6.32-4.32-1.4-.75-3.6-1.52-4.59-1.5-.99.02-3.04-2.05-3.04-2.05,0,0,2.49,1.29,4.62,1.34,2.13.05,3.17-.02,3.17-.02,0,0-3.93-1.43-5.23-1.43s-3.37-1.84-4.59-2.14c-1.22-.29-2.11-1.05-2.84-1.05s-1.95-2.68-1.95-2.68c0,0,1.45,1.73,1.98,1.95.53.23,1.75.74,2.03.64.09-.03.23-.95.2-1.26-.03-.32-.89-.76-.89-.76,0,0,.11.04.28.1.84.79,1.75,1.52,2.74,2.16,3.3,2.16,7.08,3.27,10.93,3.27h0c.82,0,1.63-.07,2.45-.17.77.57,1.45,1.18,1.95,1.79-.37-.62-.8-1.28-1.24-1.9.25-.04.51-.07.76-.12.08.12.18.24.25.36.96,1.73,2.69,5.36,2.69,5.36l-.46-2.95,1.72,1.82s.33,1.86,1.17,2.93c.51.65,1.53,1.29,2.4,1.89.84.02,1.61.47,2.03,1.2.43.75.42,1.67-.01,2.41ZM123.29,43.8c2.73.59,4.47,2.11,6.37,3.82-1.57-.45-4.53-2.18-6.37-3.82Z" fill="#f60"/>
  <path d="M110.86,49.11c-1.1-1.47-3.19-3.38-3.19-3.38,0,0-1.07.68-1.63.82-.56.14-2.87.11-4.57.09-1.7-.02-3.47,1.02-6.57.63,2.31-1.25,7.69-2.11,7.69-2.11l-12.94-.57s1.63-1.05,2.79-1.07c1.17-.02,7.23.21,10.96,0-4.11-.27-8.14-1.05-9.84-1.3-1.7-.25-3.73-1.63-5.66-3.32,1.75.38,4.8,2.16,4.99,2.26-.12-.11-1.79-1.61-4.15-3.51,2.26-.46,4.8-.37,4.8-.37-3.02-1.09-5.45-.98-6.92-.73-1.47.25-8.07,1.47-8.85,1.7-.79.23-3.93,2.05-5.63,3.07-1.7,1.02-4.01,2.18-4.9,3.93-.5.98-1.5,2.6-2.29,3.84h.71c1.34,0,2.43,1.09,2.43,2.43v19.16h7.39c.82,0,1.55.41,1.99,1.04v-20.19c0-1.34,1.09-2.43,2.43-2.43h4.86c1.34,0,2.43,1.09,2.43,2.43v19.16h7.39c.82,0,1.54.41,1.99,1.04v-20.2c0-1.34,1.09-2.42,2.42-2.42h11.88Z" fill="#f60"/>
  <path d="M109.19,43.57c-1.42-.93-2.82-.68-3.86-2.68-.94-1.8-2.64-2.69-2.96-2.84.25.14,1.28.8,1.92,2.61.73,2.07,2.11,3.16,3.1,3.59.89.39,2.49,1.78,3.71,4.86h3.67c.3,0,.57.07.84.18-.36-.3-.79-.68-1.36-1.17-2.1-1.82-3.63-3.61-5.05-4.55Z" fill="#f60"/>
  <path d="M48.07,31.6c.53.34,2,.72,2,.72,0,0-1.85-1.64-3.46-1.88.49.14.93.82,1.46,1.16h0Z" fill="#f60"/>
  <polygon points="20.43 68.44 20.43 68.44 20.43 68.44 20.43 68.44" fill="#f60"/>
  <path d="M110.44,87.7c.12-.39-.17-.78-.58-.78h-1.87c-.28,0-.53.07-.73.22-.2.15-.33.32-.38.52l-2.02,7.68c-.06.24-.12.49-.18.75-.06.27-.11.55-.17.85-.12-.6-.27-1.13-.44-1.61l-2.36-7.68c-.09-.22-.23-.39-.41-.53-.18-.14-.42-.21-.72-.21h-1.01c-.28,0-.52.08-.72.23-.2.15-.33.32-.39.51l-2.39,7.68c-.18.49-.32,1.06-.44,1.69-.06-.31-.12-.61-.18-.89-.06-.29-.12-.55-.18-.79l-2.02-7.68c-.06-.22-.19-.4-.39-.54s-.45-.2-.74-.2h-2.05c-.41,0-.7.39-.58.78l4.18,13.52c.08.25.31.42.58.42h2.2c.26,0,.5-.17.58-.42l2.68-8.7c.06-.14.1-.3.15-.47.05-.17.09-.35.14-.54.05.19.09.37.14.54.05.17.1.33.15.47l2.64,8.7c.08.25.31.43.58.43h2.2c.27,0,.5-.17.58-.42l4.18-13.52h0Z" fill="#f60"/>
  <path d="M118.76,87.33c-.09-.25-.33-.41-.59-.41h-2.62c-.26,0-.5.16-.59.41l-5.21,13.45c-.16.42.15.87.59.87h1.74c.28,0,.52-.07.71-.23.19-.15.32-.32.4-.51l.72-2.13c.09-.26.33-.43.6-.43h4.68c.27,0,.52.17.6.43l.72,2.13c.1.22.23.39.41.53.18.14.42.21.72.21h1.72c.45,0,.75-.45.59-.87l-5.21-13.45ZM117.99,96.02h-2.26c-.43,0-.74-.43-.6-.84l1.07-3.17c.1-.25.21-.56.32-.91.11-.35.22-.73.32-1.14.11.4.23.78.34,1.13.11.35.22.65.33.9l1.08,3.19c.14.41-.17.84-.6.84Z" fill="#f60"/>
  <path d="M133.21,86.92c-.14,0-.27.02-.39.07-.12.04-.22.1-.32.17-.09.07-.17.15-.24.24-.07.09-.12.18-.17.26l-2.06,4.28c-.18.33-.33.64-.46.93-.13.29-.25.58-.35.87-.11-.28-.23-.57-.37-.86-.14-.29-.3-.61-.47-.94l-2.08-4.28c-.11-.22-.26-.39-.43-.53-.17-.14-.41-.21-.7-.21h-1.87c-.5,0-.82.55-.56.98l4.67,7.99c.06.1.09.21.09.33v4.77c0,.36.29.65.65.65h2.11c.36,0,.65-.29.65-.65v-4.77c0-.12.03-.23.09-.33l4.67-7.99c.26-.43-.06-.98-.56-.98h-1.89Z" fill="#f60"/>
  <path d="M26.05,86.92h-2.16c-.35,0-.64.29-.64.64v4.88c0,.35-.29.64-.64.64h-4.71c-.35,0-.64-.29-.64-.64v-4.88c0-.35-.29-.64-.64-.64h-2.16c-.35,0-.64.29-.64.64v13.45c0,.35.29.64.64.64h2.16c.35,0,.64-.29.64-.64v-4.95c0-.35.29-.64.64-.64h4.71c.35,0,.64.29.64.64v4.95c0,.35.29.64.64.64h2.16c.35,0,.64-.29.64-.64v-13.45c0-.35-.29-.64-.64-.64Z" fill="#f60"/>
  <path d="M42.41,100.78l-5.21-13.46c-.09-.25-.33-.41-.59-.41h-2.63c-.26,0-.5.16-.59.41l-5.21,13.46c-.16.42.15.86.59.86h1.74c.28,0,.52-.07.71-.23.19-.15.32-.32.4-.51l.72-2.14c.09-.26.33-.43.6-.43h4.69c.27,0,.51.17.6.43l.72,2.14c.09.22.23.39.41.53.18.14.42.21.72.21h1.72c.44,0,.75-.45.59-.86h0ZM36.43,96.01h0s-2.27,0-2.27,0c-.43,0-.74-.42-.6-.84l1.07-3.18c.1-.26.21-.56.32-.91.11-.35.22-.73.32-1.14.11.4.23.78.34,1.13.11.35.22.65.32.9l1.08,3.2c.14.41-.17.84-.6.84Z" fill="#f60"/>
  <path d="M55.35,86.92h-2.14c-.35,0-.64.28-.64.64v8.08c0,.52-.07.98-.2,1.39-.13.41-.32.75-.57,1.04-.25.28-.56.5-.92.65-.36.15-.77.23-1.23.23h0c-.46,0-.87-.08-1.23-.23-.36-.15-.67-.37-.92-.66-.25-.29-.44-.63-.57-1.04-.13-.41-.2-.87-.2-1.39v-8.07c0-.35-.28-.64-.64-.64h-2.14c-.35,0-.64.28-.64.64v8.08c0,.9.14,1.73.43,2.49.29.75.71,1.41,1.25,1.95.55.54,1.21.97,1.99,1.27.78.3,1.67.46,2.65.46s1.86-.15,2.64-.46c.78-.3,1.44-.73,1.99-1.27.55-.55.97-1.2,1.26-1.95.29-.75.44-1.58.44-2.49v-8.08c0-.35-.28-.64-.64-.64Z" fill="#f60"/>
  <path d="M66.91,98.91h-4.22c-.34,0-.62-.28-.62-.62v-10.75c0-.34-.28-.62-.62-.62h-2.18c-.34,0-.62.28-.62.62v13.48c0,.34.28.62.62.62h7.63c.34,0,.62-.28.62-.62v-1.49h0c0-.34-.28-.62-.62-.62Z" fill="#f60"/>
  <path d="M90.18,100.78l-5.21-13.46c-.09-.24-.33-.4-.59-.4h-2.63c-.26,0-.49.16-.59.4l-5.21,13.46c-.16.41.15.86.59.86h1.75c.28,0,.52-.08.71-.23.19-.15.32-.32.4-.51l.72-2.14c.09-.26.33-.43.6-.43h4.69c.27,0,.51.17.6.43l.72,2.14c.09.22.23.39.41.53.18.14.42.21.72.21h1.73c.44,0,.75-.45.59-.86h0ZM84.21,96.02h-2.28c-.43,0-.74-.42-.6-.83l1.07-3.18c.1-.25.21-.56.32-.91.11-.35.22-.73.32-1.14.11.4.23.78.34,1.13.11.35.22.65.32.9l1.08,3.2c.14.41-.16.83-.6.83Z" fill="#f60"/>
  <path d="M18.65,77.39h4.71c.26,0,.49-.16.59-.4l10.12-25.24c.17-.41-.14-.86-.58-.86h-4.05c-.51,0-.94.14-1.28.41-.35.27-.59.58-.72.92l-5.09,14.19c-.24.62-.47,1.29-.68,2.03,0,0,0,.01,0,.02-.18.61-1.02.62-1.21.02,0-.01,0-.03-.01-.04-.23-.73-.47-1.41-.71-2.03l-5.13-14.19c-.17-.39-.42-.71-.75-.95-.33-.25-.76-.37-1.29-.37h-4.02c-.45,0-.75.45-.58.86l10.12,25.24c.1.24.33.4.58.4Z" fill="#f60"/>
  <path d="M57.73,76.55l-9.78-25.26c-.09-.24-.32-.4-.58-.4h-5.44c-.25,0-.48.16-.58.4l-9.78,25.26c-.16.41.14.84.58.84h3.9c.51,0,.94-.14,1.28-.41.35-.27.58-.58.72-.92l1.42-4.2c.09-.25.32-.42.59-.42h9.19c.26,0,.5.17.59.42l1.42,4.2c.17.39.42.71.75.95.33.25.76.37,1.29.37h3.86c.43,0,.74-.44.58-.84h0ZM47.43,67.26h-5.53c-.42,0-.72-.42-.59-.82l2.16-6.4c.18-.46.38-1.01.58-1.64,0-.01,0-.03.01-.04.19-.58.99-.58,1.18,0,0,0,0,.01,0,.02.21.62.4,1.17.58,1.63l2.18,6.44c.14.4-.16.82-.59.82Z" fill="#f60"/>
  <path d="M75.47,72.48h-8.53c-.36,0-.64-.29-.64-.64v-20.3c0-.36-.29-.64-.64-.64h-4.86c-.36,0-.64.29-.64.64v25.21c0,.36.29.64.64.64h14.68c.36,0,.64-.29.64-.64v-3.62h0c0-.36-.29-.65-.64-.65Z" fill="#f60"/>
  <path d="M94.57,72.48h-8.53c-.36,0-.65-.29-.65-.65v-20.3c0-.36-.29-.65-.65-.65h-4.86c-.36,0-.65.29-.65.65v25.21c0,.36.29.65.65.65h14.68c.36,0,.65-.29.65-.65v-3.62h0c0-.36-.29-.65-.65-.65Z" fill="#f60"/>
  <path d="M114.76,50.89h-15.78c-.35,0-.64.29-.64.64v25.22c0,.35.29.64.64.64h15.78c.35,0,.64-.29.64-.64v-3.45c0-.35-.29-.64-.64-.64h-9.6c-.35,0-.64-.29-.64-.64v-5.03c0-.35.29-.64.64-.64h7.05c.35,0,.64-.29.64-.64v-3.27c0-.35-.29-.64-.64-.64h-7.05c-.35,0-.64-.29-.64-.64v-4.91h0c0-.36.29-.64.64-.64h9.6c.35,0,.64-.29.64-.64v-3.45c0-.35-.29-.64-.64-.64Z" fill="#f60"/>
  <path d="M140.4,50.9h-4.38c-.26,0-.49.04-.7.12-.21.08-.4.18-.56.31-.16.13-.31.27-.43.43-.12.16-.22.31-.31.47l-3.71,7.71c-.32.59-.59,1.15-.83,1.68-.03.07-.06.13-.09.2-.21.49-.89.5-1.12.02-.03-.07-.06-.13-.09-.2-.26-.53-.54-1.09-.86-1.7l-3.75-7.71c-.21-.39-.46-.71-.77-.95-.31-.25-.73-.37-1.27-.37h-4.35c-.48,0-.77.52-.53.93l8.98,15.35c.05.09.09.2.09.31v9.29c0,.34.28.62.62.62h4.91c.34,0,.62-.28.62-.62v-9.29h0c0-.11.03-.21.09-.31l8.98-15.35c.24-.41-.06-.93-.53-.93Z" fill="#f60"/>
  <path d="M140.46,49.12h0s-.04,0-.05,0c.02,0,.04,0,.05,0Z" fill="#f60"/>
  <path d="M134.61,30.25c-.42-.98-1.32-1.59-2.34-1.15-.85.37-1.04,1.17-.84,2.1l.04-.02c-.18-.89,0-1.69.82-2.04.97-.42,1.79.22,2.2,1.16.4.93.14,1.95-.71,2.31-.6.26-1.11,0-1.47-.38l-.15.12c.52.43,1.05.56,1.64.3.9-.39,1.24-1.43.82-2.41h0Z" fill="#f60"/>
  <path d="M130.54,30.61c-.03-.24-.05-.4-.06-.83h0s-1.87.21-1.87.21l-.08.15c.4-.12.75-.18,1.18-.23l.63-.07.22,1.89-.35.04c-.24.03-.49.06-.92.06l.02.14c.42-.09.67-.12.91-.15l.35-.04.19,1.64-.45.05c-.15.02-.68.07-1.1.03l-.12.15,1.81-.21c-.08-.42-.1-.58-.13-.82l-.23-2.02Z" fill="#f60"/>
  <path d="M124.62,29.49c.42.04.81.12,1.23.24l1.05.28c-.64.69-1.24.86-1.71,1.08-.49.23-.99.46-1.12.95-.15.55.17,1.04.81,1.21.63.17,1.14-.1,1.25-.52.1-.37-.06-.67-.3-.91l-.14.15c.21.16.44.39.35.73-.11.41-.58.66-1.15.5-.57-.15-.83-.6-.69-1.13.13-.5.57-.71,1.06-.94.49-.23,1.19-.5,1.77-1.22h0s-2.22-.6-2.22-.6l-.19.16Z" fill="#f60"/>
  <path d="M123.25,28.36c-.71-.44-1.66-.13-2.28.85-.62.98-.49,1.98.22,2.42.71.45,1.66.13,2.28-.85h0c.62-.98.49-1.98-.22-2.42ZM123.35,30.71c-.57.9-1.47,1.31-2.14.89-.66-.42-.69-1.41-.13-2.31.57-.9,1.47-1.31,2.14-.89.67.42.69,1.41.13,2.31Z" fill="#f60"/>
  <path d="M118.17,16.88c.23.09.37.16.76.34l.06-.15c-.41-.14-.55-.21-.78-.3l-.91-.39.73-1.73.91.39c.22.09.37.16.76.34l.06-.15c-.41-.14-.55-.21-.77-.3h0l-1.87-.79c-.22-.09-.37-.16-.76-.34l-.06.15c.4.14.55.21.77.3l.91.39-.73,1.73-.91-.39c-.23-.09-.37-.16-.76-.34l-.06.15c.4.14.55.21.78.3l1.87.79Z" fill="#f60"/>
  <path d="M119.65,14.62c.11.14.16.2.25.38l.05-.07c-.13-.12-.17-.2-.28-.35l-.58-.78.76-1.01.91.35c.17.07.25.09.4.19l.12-.15c-.2-.04-.27-.07-.44-.13h0s-3.16-1.23-3.16-1.23l-.09.12c.07.02.1.04.14.09l1.92,2.59ZM119.82,12.77l-.75.98-1.31-1.78,2.06.8Z" fill="#f60"/>
  <path d="M120.45,11.81h0c.8,1.02,1.36,1.04,1.96.57.6-.47.65-1.09-.1-2.04l-.8-1.01c-.15-.19-.25-.31-.5-.67l-.07.06c.28.32.38.45.53.64l.8,1.01c.72.92.67,1.5.1,1.95-.57.45-1.14.3-1.83-.58l-.8-1.01c-.15-.19-.25-.31-.5-.67l-.13.1c.28.32.38.45.53.64l.8,1.01Z" fill="#f60"/>
  <path d="M123.35,10.62c.1.22.16.37.31.77l1.55-.69.03-.16c-.35.24-.67.4-1.06.57l-.41.18-1.15-2.57c-.1-.22-.16-.37-.32-.77l-.15.07c.2.38.26.53.36.75l.83,1.85Z" fill="#f60"/>
  <path d="M125.47,9.79c.07.24.11.39.2.8l.16-.04c-.14-.41-.18-.56-.25-.79l-.55-1.95c-.07-.24-.11-.39-.2-.8l-.16.04c.14.41.18.56.25.79l.55,1.95Z" fill="#f60"/>
  <path d="M126.25,9.52c.02.24.04.4.05.83h.09c-.06-.43-.08-.59-.1-.83l-.24-2.68,2.7,3.28h.09c-.06-.43-.08-.59-.1-.83h0l-.18-2.02c-.02-.24-.04-.4-.05-.83h-.09c.06.43.08.59.1.83l.24,2.68-2.7-3.28h-.09c.06.43.08.59.1.83l.19,2.02Z" fill="#f60"/>
  <path d="M130.78,10.56c.78.19,1.39-.2,1.76-1.06l-.08.33c-.07.28-.13.52-.29.97l.14.03c.07-.47.13-.71.2-1l.2-.79.39.1v-.05s-1.74-.43-1.74-.43l.1.17c.41.02.93.14,1.08.17l.12.03c-.33,1.12-.99,1.66-1.85,1.44-.96-.24-1.27-1.24-1.02-2.23.24-.98,1.07-1.64,1.96-1.41.63.16.89.67.94,1.19h.19c-.15-.66-.5-1.08-1.12-1.23-.95-.24-1.85.39-2.11,1.42-.26,1.04.14,2.08,1.14,2.32Z" fill="#f60"/>
  <path d="M135.19,11.74l1.76-2.2.03.03c.12.09.42.35.69.67l.2-.02-1.87-1.49.02.19c.37.19.68.43.8.52l.04.03-1.76,2.2c-.15.19-.25.31-.53.63l.13.1c.25-.35.35-.47.5-.66Z" fill="#f60"/>
  <polygon points="134.56 12.3 134.56 12.3 134.56 12.3 134.56 12.3" fill="#f60"/>
  <path d="M135.64,13.18l.1.13c.33-.27.46-.37.65-.52l.7-.53.14.18c.31.41.42.81.02,1.44-.33.52-.45.82-.08,1.32l.04-.03c-.27-.36-.26-.63.14-1.24.31-.48.3-.84.15-1.16.42.48.92.75,1.47.33.63-.47.41-1.11-.05-1.71l-.33-.44c-.33.28-.45.37-.65.52l-1.62,1.22c-.2.15-.32.24-.68.48ZM138.64,11.1l.25.33c.37.49.61,1.12,0,1.57-.61.46-1.14.06-1.51-.44l-.25-.33,1.51-1.13Z" fill="#f60"/>
  <path d="M137.23,15.37l.03.09c.17-.05.26-.04.44-.06l.97-.09.46,1.18-.77.59c-.14.11-.21.17-.37.25l.07.18c.14-.15.2-.2.34-.31h0s2.69-2.07,2.69-2.07l-.05-.14c-.05.05-.09.07-.15.08l-3.21.3c-.18.02-.25.04-.45.02ZM140.93,15.1l-1.75,1.35-.45-1.15,2.21-.2Z" fill="#f60"/>
  <path d="M140.27,18.29c-.43.71-.66,1.18-1.12,1.25-.56.08-.87-.26-.94-.72-.09-.6.33-1.14,1.05-1.27l-.07-.18h0c-.89.35-1.11.9-1.03,1.46.07.51.42.88,1,.8.5-.08.71-.49,1.19-1.26.33-.53.46-.89.89-.96.35-.05.61.17.67.59.09.58-.29.88-.68.97l.07.18c.47-.29.72-.67.65-1.15-.07-.47-.36-.74-.77-.67-.41.06-.54.34-.92.96Z" fill="#f60"/>
  <path d="M139.22,20.2c-.24-.03-.4-.05-.82-.11l-.02.16c.43.03.59.04.83.07l.99.11-.21,1.87-.99-.11c-.24-.03-.4-.05-.82-.11l-.02.16c.43.03.59.04.83.07l2.02.22c.24.03.4.05.82.11l.02-.16c-.43-.03-.59-.04-.83-.07l-.99-.11.21-1.87.99.11c.24.03.4.05.82.11l.02-.16c-.43-.03-.59-.04-.83-.07l-2.02-.22Z" fill="#f60"/>
  <path d="M140.34,25.42c-.37-.2-.63-.05-1.31.23-.77.31-1.24.56-1.64.34-.5-.27-.55-.73-.33-1.13.28-.53.94-.72,1.6-.4l.05-.18c-.92-.25-1.42.07-1.69.56-.24.45-.19.96.33,1.24.45.24.87.03,1.7-.31.58-.24.89-.45,1.28-.24.32.17.39.5.19.88-.28.51-.76.53-1.12.38l-.05.18c.55.05.98-.11,1.21-.54.22-.42.15-.8-.22-1Z" fill="#f60"/>
  <path d="M137.01,26.53c-.19-.15-.32-.24-.65-.52h0s-.1.13-.1.13c.35.24.48.34.67.48l1.61,1.23c.19.15.32.24.65.52l.1-.13c-.36-.24-.48-.34-.67-.49l-1.61-1.23Z" fill="#f60"/>
  <path d="M136.55,27.2c-.16-.18-.27-.3-.54-.63l-.07.06c.3.3.41.42.57.6l1.8,2-4.13-1.02-.07.06c.3.3.41.42.57.6h0s1.36,1.51,1.36,1.51c.16.18.27.3.54.63l.07-.06c-.3-.3-.41-.42-.57-.6l-1.8-2,4.13,1.02.07-.06c-.3-.3-.41-.42-.57-.6l-1.36-1.51Z" fill="#f60"/>
  <polygon points="121.78 27.45 121.77 27.45 121.78 27.45 121.78 27.45" fill="#f60"/>
  <path d="M120.26,25.71l-.25.03c.32.26.61.55.89.88l.72.82c-.91.22-1.51.03-2.03-.05-.54-.09-1.08-.17-1.46.17-.43.37-.44.96,0,1.46.43.49,1,.55,1.33.26.29-.25.33-.59.26-.92l-.2.05c.09.24.15.57-.12.8-.32.28-.85.22-1.23-.22-.39-.44-.35-.97.06-1.32.39-.34.87-.27,1.4-.19.53.08,1.26.25,2.15-.03l-1.51-1.73Z" fill="#f60"/>
  <path d="M117.26,26.41c-.38.18-.88-.02-1.13-.55-.25-.53-.08-1.03.42-1.26.47-.22.91-.03,1.4.2.49.23,1.15.58,2.08.56h0s-.98-2.08-.98-2.08l-.25-.04c.24.34.43.7.61,1.09l.47.98c-.94-.04-1.46-.39-1.94-.6-.49-.23-.99-.45-1.45-.24-.51.24-.68.8-.4,1.4.28.59.81.8,1.21.61.35-.16.48-.48.5-.82h-.21c.02.25-.01.58-.33.74Z" fill="#f60"/>
  <path d="M117.4,19.31h-.11c.06.7.1,1.67.09,2.37h.11c-.07-.7-.1-1.67-.09-2.37Z" fill="#f60"/>
  <path d="M125.14,16.79c1.34-.28,1.84.6,2.08,1.21.35.87,1.38.86,1.71.06-.59-1.09-1.96-1.97-3.95-1.55-2.42.51-3.96,2.38-3.41,5.02h0c.56,2.66,2.71,3.74,5.06,3.25,2.37-.5,3.08-2.27,3.24-4.14l-.26.05c-.14,1.73-.89,3.05-2.44,3.37-2.01.42-3.16-1.17-3.58-3.18-.49-2.33-.07-3.76,1.54-4.1Z" fill="#f60"/>
  <path d="M132.21,18.25c-1.22.25-1.96,1.13-1.73,2.27h0c.24,1.14,1.27,1.64,2.49,1.39,1.21-.25,1.96-1.13,1.72-2.27-.24-1.13-1.28-1.64-2.49-1.38ZM133.77,19.83c.22,1.07-.05,1.78-.83,1.94-.79.17-1.32-.37-1.55-1.44-.22-1.06.05-1.77.84-1.94.78-.16,1.32.38,1.54,1.44Z" fill="#f60"/>
  <polygon points="136.11 21.25 136.11 21.25 136.11 21.25 136.11 21.25" fill="#f60"/>
  <polygon points="135.91 20.31 135.54 20.88 136.11 21.25 136.48 20.68 135.91 20.31" fill="#f60"/>
</svg>