<?xml version="1.0" encoding="UTF-8"?>
<svg id="Layer_1" data-name="Layer 1" xmlns="http://www.w3.org/2000/svg" width="113" height="113" viewBox="0 0 113 113">
  <path d="M56.77.31c-11.08-.1-21.93,3.08-31.2,9.14-9.27,6.07-16.53,14.74-20.86,24.93C.37,44.57-.85,55.82,1.21,66.7c2.06,10.88,7.29,20.91,15.05,28.82,7.75,7.91,17.68,13.34,28.52,15.61,10.84,2.27,22.11,1.27,32.38-2.87s19.09-11.23,25.34-20.37c6.24-9.15,9.64-19.94,9.75-31.02.13-14.85-5.64-29.15-16.04-39.75C85.81,6.51,71.62.47,56.77.31ZM55.74,109.77c-10.57-.1-20.88-3.34-29.61-9.3-8.73-5.96-15.51-14.38-19.46-24.19-3.95-9.81-4.91-20.57-2.74-30.92,2.16-10.35,7.35-19.83,14.9-27.23,7.55-7.4,17.12-12.41,27.51-14.37s21.13-.8,30.86,3.34c9.73,4.14,18.01,11.07,23.8,19.92,5.79,8.85,8.83,19.21,8.73,29.79-.15,14.18-5.92,27.72-16.04,37.64-10.12,9.93-23.77,15.43-37.95,15.31h0Z" fill="#f60"/>
  <path d="M97.33,56.7c.08-8.06-2.24-15.96-6.65-22.7-4.41-6.74-10.73-12.03-18.15-15.18-7.42-3.15-15.6-4.04-23.52-2.54-7.92,1.5-15.22,5.31-20.97,10.95-5.75,5.64-9.7,12.87-11.35,20.76-1.65,7.89-.92,16.09,2.1,23.56,3.01,7.47,8.18,13.89,14.83,18.43,6.66,4.54,14.51,7.01,22.57,7.08,10.8.09,21.2-4.11,28.91-11.68s12.11-17.88,12.22-28.69h.01ZM56.23,94.56c-7.56-.07-14.93-2.38-21.18-6.63-6.25-4.26-11.09-10.27-13.92-17.28s-3.52-14.7-1.97-22.1c1.54-7.4,5.24-14.18,10.64-19.47,5.39-5.3,12.24-8.87,19.67-10.28s15.11-.58,22.06,2.38c6.96,2.96,12.88,7.91,17.02,14.24,4.14,6.32,6.31,13.73,6.24,21.29-.11,10.13-4.24,19.8-11.48,26.89-7.23,7.09-16.99,11.02-27.11,10.94l.03.04v-.02Z" fill="#f60"/>
  <path d="M49.67,42.97l17.66.17.07-7.17-26.4-.25-.39,41.11,8.73.08.15-16.23,14.91.14.07-7.19-14.91-.15.11-10.52h0Z" fill="#f60"/>
  <path d="M72.88,69.37c-.43-.44-.95-.79-1.51-1.03-.59-.26-1.23-.39-1.88-.4-.65,0-1.29.12-1.89.36-.57.23-1.1.57-1.54,1-.45.43-.8.95-1.04,1.52-.49,1.2-.49,2.55,0,3.75.23.57.57,1.09,1.01,1.53.44.43.96.78,1.53,1.02.6.25,1.24.38,1.89.38.64.01,1.28-.11,1.87-.34.58-.22,1.1-.56,1.54-1,.44-.43.78-.93,1.02-1.49.27-.59.41-1.24.41-1.89,0-1.27-.48-2.49-1.37-3.41,0,0-.04,0-.04,0Z" fill="#f60"/>
  <path d="M13.77,45.52l-.87-.2-.43,1.88-1.56-.36.32-1.37-.87-.2-.32,1.37-1.56-.36.43-1.87-.86-.2-.67,2.89,5.72,1.32.67-2.89h0Z" fill="#f60"/>
  <path d="M9.77,43.11c.28.08.58.08.86,0,.34-.11.66-.26.95-.46l1-.65c.12-.08.25-.14.39-.16.14-.03.28-.02.42,0,.13.03.25.11.34.22.06.09.1.19.12.29.02.1.01.21-.02.31-.02.08-.06.15-.11.21-.05.06-.11.11-.19.15-.25.12-.54.15-.81.08l-.25.96c.28.08.58.09.86.04.26-.05.5-.16.7-.33.27-.24.46-.54.56-.88.06-.18.1-.37.11-.57.03-.28-.03-.57-.18-.81-.19-.34-.51-.59-.88-.7-.19-.04-.39-.04-.58,0-.11.02-.21.04-.32.07-.28.08-.55.2-.8.36-.17.11-.33.22-.49.34-.15.13-.32.23-.5.32-.13.08-.28.13-.44.16-.16.02-.31,0-.47-.02-.15-.04-.28-.13-.37-.25-.05-.07-.09-.15-.1-.23-.01-.08,0-.17.03-.25.02-.07.05-.14.1-.2s.1-.11.17-.14c.19-.09.4-.11.6-.06l.17-1c-.23-.06-.47-.06-.7,0-.22.05-.43.17-.6.33-.23.24-.4.52-.49.84-.12.32-.14.66-.06,1,.05.24.17.46.33.64.17.18.38.31.61.38h.04Z" fill="#f60"/>
  <path d="M11.28,37.46l4.56,2,.41-.96-4.56-1.99.44-1.01-.82-.35-1.3,2.97.81.36.44-1.02h.02Z" fill="#f60"/>
  <path d="M16.85,35.36l-.48.93.78.41.48-.93-.78-.41Z" fill="#f60"/>
  <path d="M15.64,30.75l.13.08.58-.84-.18-.13c-.1-.06-.18-.15-.25-.25-.08-.11-.12-.24-.12-.38s.04-.27.12-.38c.05-.08.12-.14.2-.19s.16-.09.25-.1c.08-.01.17-.01.25,0,.08.02.16.06.22.11.2.15.37.34.48.56.19.37.34.77.44,1.17.15.51.25.88.31,1.11l.13.41c.03.13.08.25.11.36.03.13.08.25.13.37l.7.46,1.87-2.73-.7-.49-1.16,1.68-.04-.08c-.04-.08-.09-.25-.15-.44l-.08-.29c-.12-.35-.2-.61-.25-.79-.11-.43-.25-.85-.43-1.25-.17-.37-.44-.68-.77-.91-.16-.11-.34-.18-.54-.22-.19-.03-.39-.02-.58.03-.41.1-.78.35-1.02.7-.26.35-.39.78-.36,1.21.02.24.1.46.22.67.12.2.29.38.48.51v.04Z" fill="#f60"/>
  <path d="M20.64,28.64c.15.12.32.21.5.26.19.05.38.05.57.01.42-.07.8-.3,1.07-.62.28-.32.44-.73.44-1.16,0-.19-.03-.38-.11-.56s-.19-.33-.34-.45l-2.44-2.07c-.15-.12-.32-.21-.51-.26-.19-.05-.38-.05-.57-.02-.42.07-.8.29-1.07.62-.28.32-.44.73-.44,1.16,0,.19.03.38.11.56s.19.33.34.45l2.44,2.07h.01ZM18.84,24.99c.1-.12.24-.2.39-.22.07-.01.14-.01.2,0,.07.02.13.05.18.09l2.45,2.07s.1.1.12.17c.03.06.04.13.04.2,0,.15-.05.3-.15.42s-.24.2-.39.22c-.07.01-.14.01-.2,0-.07-.02-.13-.05-.18-.09l-2.45-2.1s-.09-.1-.12-.16-.04-.13-.04-.2c0-.15.06-.28.15-.39h0Z" fill="#f60"/>
  <path d="M20.91,22.6l.43.43.63-.62,3.19,3.19.74-.7-4.15-4.15-.51.51c.06.23.06.47,0,.7-.07.23-.18.45-.33.64Z" fill="#f60"/>
  <path d="M25.85,23.05c.12.15.28.26.45.34.18.08.37.11.56.11.43,0,.84-.16,1.16-.44.33-.27.55-.64.62-1.06.04-.19.04-.38,0-.57-.05-.19-.14-.36-.26-.5l-2.06-2.45c-.12-.15-.28-.26-.45-.34s-.36-.11-.56-.11c-.43,0-.84.15-1.16.43-.33.27-.56.65-.63,1.07-.04.19-.04.38.01.57.05.19.14.36.26.5,0,0,2.06,2.45,2.06,2.45ZM24.69,19.15c.12-.1.27-.16.42-.15.07,0,.14.01.2.04.06.03.12.07.16.12l2.07,2.45s.08.11.09.18c.02.07.02.14,0,.2-.03.15-.11.29-.23.39-.11.1-.26.16-.41.15-.07,0-.14,0-.2-.04-.06-.03-.12-.07-.16-.12l-2.1-2.45s-.08-.11-.09-.18c-.02-.07-.02-.14,0-.2.03-.16.13-.3.26-.39h-.01Z" fill="#f60"/>
  <path d="M32.45,15.74l-2.61,1.64.47.75,2.61-1.64s-.47-.75-.47-.75Z" fill="#f60"/>
  <path d="M37.79,16.75l-1.02-2.27,1.28-.58-.36-.81-1.28.58-.66-1.46,1.75-.8-.36-.81-2.7,1.22,2.43,5.35.95-.43h-.03Z" fill="#f60"/>
  <path d="M41.39,15.26l-.7-2.1.57-.19.09-.04,1.3,1.88,1.07-.36-1.56-2.17c.12-.17.21-.36.24-.57.03-.21,0-.42-.06-.61l-.27-.81c-.05-.17-.13-.34-.25-.48-.11-.14-.26-.26-.42-.34-.43-.18-.91-.18-1.34,0l-1.55.54,1.91,5.55.98-.29h0ZM39.77,10.6l.6-.2c.37-.13.62-.03.7.29l.28.81c.02.07.03.14.02.21,0,.07-.03.14-.07.19-.08.13-.2.23-.35.27l-.6.2-.58-1.77Z" fill="#f60"/>
  <path d="M44.27,12.91c.04.19.13.36.25.51.12.15.27.27.45.35.38.19.82.24,1.23.13.42-.09.79-.32,1.04-.67.12-.15.2-.33.24-.51.04-.19.04-.38,0-.57l-.7-3.11c-.05-.19-.13-.36-.25-.51-.12-.15-.27-.27-.45-.35-.38-.2-.82-.24-1.23-.13-.41.09-.78.33-1.04.67-.12.15-.2.33-.24.51-.04.19-.04.38,0,.57l.7,3.12h0ZM44.61,9.15c.09-.12.23-.21.38-.25s.31-.02.44.05c.06.03.12.07.16.12s.07.12.09.19l.74,3.12c.02.07.02.14,0,.21,0,.07-.04.13-.09.19-.09.12-.23.21-.38.24-.15.04-.31.03-.44-.04-.06-.03-.12-.07-.16-.13-.04-.05-.08-.12-.09-.18l-.74-3.13c0-.07,0-.14,0-.2.02-.07.05-.13.09-.18h0Z" fill="#f60"/>
  <path d="M48.7,11.93c.03.19.1.37.2.53.11.16.24.29.41.39.36.23.8.32,1.22.25.42-.05.81-.25,1.09-.56.13-.14.24-.3.3-.48s.08-.37.05-.56l-.27-2.03-1.64.22.12.88.57-.08.15,1.14c0,.07,0,.14-.02.2-.02.07-.06.13-.11.17-.1.11-.25.19-.4.2-.15.02-.31,0-.44-.09-.06-.04-.11-.09-.15-.14-.04-.06-.06-.12-.07-.19l-.42-3.18c0-.07,0-.14.02-.2.02-.07.06-.13.1-.18.11-.11.25-.18.4-.2.15-.02.31,0,.44.09.06.04.11.09.15.14.04.06.06.12.08.19l.09.7,1.07-.14-.08-.67c-.03-.19-.1-.37-.2-.53-.11-.16-.24-.29-.41-.39-.36-.22-.79-.31-1.21-.25s-.81.25-1.1.56c-.13.14-.24.3-.3.48-.06.18-.08.37-.05.56l.42,3.16h-.01Z" fill="#f60"/>
  <path d="M57.79,12.45c.22-.11.41-.27.55-.48.17-.28.26-.61.26-.95,0-.14,0-.27-.04-.41-.04-.21-.11-.41-.23-.58-.14-.21-.34-.37-.58-.46.14-.05.26-.12.36-.22.13-.12.23-.27.29-.43.07-.16.1-.34.09-.51,0-.21-.03-.42-.09-.62-.11-.3-.32-.55-.6-.7-.34-.19-.72-.29-1.11-.29h-1.56l-.07,5.87h1.93c.28,0,.55-.08.79-.22h.01ZM56.26,7.67h.41c.09,0,.19,0,.28.04.09.03.17.08.23.15.07.07.12.15.15.23.03.09.05.18.04.28,0,.13-.02.25-.06.37-.05.13-.15.23-.26.3-.12.07-.26.1-.39.09h-.43l.05-1.47h-.02ZM56.21,11.76v-1.75h.46c.11,0,.21,0,.31.05.1.04.19.09.27.16.16.2.24.45.22.7,0,.13-.03.25-.08.36-.06.14-.16.25-.28.34-.12.08-.27.12-.42.12l-.47.02h-.01Z" fill="#f60"/>
  <path d="M60.99,11.54l1.08.13.08,1.4,1.09.13-.47-5.96-1.4-.17-1.86,5.64,1.08.13.41-1.29h-.01ZM61.9,8.45l.11,2.34-.76-.09s.65-2.25.65-2.25Z" fill="#f60"/>
  <path d="M67.3,13.12l-1.87-.43,2.78-3.56.2-.87-2.97-.68-.2.87,1.87.42-2.79,3.56-.2.86,2.97.68.2-.86h.01Z" fill="#f60"/>
  <path d="M69.05,14.52l.65-1.21,1.04.34-.18,1.35,1.04.34.7-5.94-1.36-.43-2.91,5.22s1.02.33,1.02.33ZM71.19,10.46l-.34,2.32-.7-.24s1.04-2.08,1.04-2.08Z" fill="#f60"/>
  <path d="M74.44,14.1l.55.25.08.04-.32,2.28,1.03.46.34-2.66c.2-.04.39-.13.56-.25.16-.13.29-.29.38-.48l.34-.78c.08-.16.13-.34.15-.52.01-.18-.01-.36-.07-.53-.2-.42-.56-.74-1-.89l-1.5-.67-2.38,5.36.95.42.89-2.02h0ZM75.55,11.59l.57.25c.36.16.48.4.34.7l-.34.79c-.03.06-.07.12-.12.16-.05.05-.12.08-.18.09-.15.04-.3.03-.44-.04l-.57-.25.76-1.71h-.02Z" fill="#f60"/>
  <path d="M80.17,15.7l-.47.75,2.61,1.64.47-.75-2.61-1.64Z" fill="#f60"/>
  <path d="M84.71,23.1c.15.13.31.24.48.32.25.13.53.18.81.14.38-.05.73-.25.97-.55.11-.16.19-.34.24-.53.03-.1.05-.2.06-.31.03-.29.02-.59-.03-.88-.03-.2-.08-.39-.13-.58-.05-.19-.09-.39-.11-.58-.05-.31.03-.63.22-.89.09-.12.22-.21.37-.25.08-.02.17-.02.25,0s.16.06.22.12c.06.04.11.1.15.16.04.07.06.14.07.21,0,.21-.05.41-.18.58l.86.53c.14-.2.23-.43.26-.67.04-.24,0-.48-.08-.7-.13-.3-.33-.57-.59-.78-.25-.23-.57-.38-.9-.43-.24-.03-.48,0-.7.09-.22.09-.42.24-.57.43-.19.22-.31.49-.35.78-.03.35,0,.71.06,1.06.1.52.18.9.22,1.16.03.14.03.28,0,.42s-.09.27-.17.38c-.08.11-.2.2-.33.23-.1.03-.21.03-.32,0-.1-.02-.2-.07-.29-.14-.06-.05-.12-.11-.15-.18-.04-.07-.06-.15-.06-.23-.02-.28.06-.55.23-.77l-.79-.6c-.18.23-.3.5-.36.79-.06.26-.04.53.04.78.11.35.32.66.61.88h-.01Z" fill="#f60"/>
  <path d="M87.36,25.45l1.14-.76.76.79-.8,1.11.76.79,3.41-4.91-1-1.02-5.03,3.23s.76.77.76.77ZM91.17,22.88l-1.4,1.89-.54-.56,1.94-1.33Z" fill="#f60"/>
  <path d="M90.55,29l1.75-1.36.37.48s.03.05.06.07l-1.35,1.86.7.89,1.55-2.19c.2.06.41.08.61.04.2-.04.4-.12.56-.25l.7-.53c.15-.1.28-.23.37-.39.1-.15.16-.32.19-.5.01-.23-.02-.46-.1-.68-.08-.22-.2-.42-.36-.58l-1.07-1.29-4.63,3.6.65.82h0ZM94.47,25.95l.39.5c.24.31.23.57-.04.78l-.7.53c-.05.05-.12.08-.19.09s-.14.01-.21,0c-.15-.03-.28-.11-.37-.24l-.39-.5,1.51-1.15h0Z" fill="#f60"/>
  <path d="M93.24,32.69l3.15-1.91-2.63,2.77.43.72,3.62-1.14-3.16,1.91.53.88,5.03-3.04-.74-1.23-4.09,1.39,3.11-3.01-.77-1.28-5.02,3.04.54.89h0Z" fill="#f60"/>
  <path d="M100.96,34.39l-5.28,2.56.45.93,5.28-2.56-.45-.93Z" fill="#f60"/>
  <path d="M97.73,41.71l.83-.33-.72-1.78,1.49-.6.52,1.3.83-.33-.52-1.3,1.49-.6.72,1.79.82-.34-1.09-2.75-5.46,2.18,1.1,2.75h-.01Z" fill="#f60"/>
  <path d="M98.34,43.58l3.61-1.06-3.2,2.43.32,1.07,5.63-1.65-.29-1-3.79,1.11,3.39-2.43-.33-1.12-5.63,1.65.29,1Z" fill="#f60"/>
  <path d="M104.38,47.22l-4.89.9.19,1.02,4.89-.9.2,1.08.88-.16-.6-3.19-.87.16s.2,1.09.2,1.09Z" fill="#f60"/>
  <path d="M104.53,50.77l-3.19.27c-.19.02-.37.08-.54.17-.16.1-.3.23-.41.39-.25.35-.36.77-.32,1.2.03.43.21.83.51,1.13.13.14.29.25.47.32s.37.1.56.08l3.19-.28c.19,0,.38-.07.54-.17.17-.1.3-.23.41-.39.24-.35.35-.77.32-1.2-.04-.42-.22-.82-.51-1.13-.13-.14-.29-.25-.47-.31-.18-.07-.37-.09-.56-.08ZM105.08,52.76c-.04.06-.09.1-.15.14-.06.04-.13.06-.19.06l-3.2.28c-.07,0-.14,0-.2-.03s-.12-.07-.17-.12c-.1-.11-.16-.26-.18-.41-.01-.15.03-.3.11-.43.04-.06.09-.11.15-.14.06-.04.13-.06.2-.06l3.2-.28c.07,0,.14,0,.2.03s.12.07.17.12c.11.11.17.25.18.41.02.15-.02.31-.1.43h-.02Z" fill="#f60"/>
  <path d="M104.59,60.02c-.25-.02-.49-.1-.7-.23-.36-.22-.69-.48-1-.77-.39-.36-.67-.62-.83-.79l-.32-.29-.29-.25c-.1-.09-.2-.17-.31-.25l-.81-.05-.19,3.31.86.05.12-2.04s.04,0,.08.05c.05.05.2.16.35.29l.23.2.61.54c.31.31.65.6,1.02.86.34.22.73.36,1.14.38.19,0,.39-.02.57-.09s.34-.18.47-.33c.31-.3.49-.71.5-1.14.05-.43-.07-.87-.32-1.22-.15-.19-.33-.34-.55-.45-.21-.1-.45-.16-.69-.16h-.15l-.06,1.02h.22c.11,0,.23.03.33.08.13.05.23.14.3.25s.1.25.09.39c0,.09-.02.18-.06.27-.04.08-.1.16-.16.22-.06.05-.13.09-.21.12s-.16.03-.24.03Z" fill="#f60"/>
  <path d="M105.25,63.18c-.1-.23-.15-.49-.14-.74l-.61-.08-.15.83-4.47-.63-.14,1.04,5.81.81.1-.7c-.17-.13-.31-.31-.39-.51v-.02Z" fill="#f60"/>
  <path d="M101.61,67.18l-.8,2.98.86.23.8-2.98-.86-.23Z" fill="#f60"/>
  <path d="M101.59,75.26l-4.58-1.94-.41.96,4.59,1.94-.43,1.02.82.34,1.27-2.99-.82-.34-.43,1.02h0Z" fill="#f60"/>
  <path d="M95.69,76.25l-.47.92,5.22,2.68.47-.92-5.22-2.68Z" fill="#f60"/>
  <path d="M98.55,80.57l-2.73-1.68c-.16-.1-.34-.16-.53-.18s-.38,0-.56.08c-.41.14-.75.42-.96.79-.23.35-.32.78-.26,1.2.02.19.08.37.19.53.1.16.24.3.4.4l1.75,1.07.86-1.4-.76-.47-.3.5-.98-.61c-.06-.04-.11-.08-.15-.14s-.06-.12-.07-.19c-.03-.16,0-.32.08-.46s.2-.24.35-.28c.06-.03.13-.05.2-.05s.14.02.2.05l2.73,1.68c.06.03.11.08.15.14s.06.13.07.2c.03.15,0,.31-.09.43-.08.14-.2.24-.35.29-.07.02-.14.03-.2.02s-.14-.03-.19-.07l-.58-.36-.57.92.57.35c.16.1.34.16.53.18s.38,0,.56-.07c.41-.14.75-.42.96-.79.23-.36.33-.79.26-1.21-.02-.18-.09-.35-.19-.51-.1-.15-.23-.28-.38-.38v.02Z" fill="#f60"/>
  <path d="M91.72,82.74l1.75,1.35-.36.48s-.04.05-.06.08l-2.14-.84-.7.89,2.5.95c-.01.21.03.41.12.6.09.19.22.35.38.48l.7.52c.14.12.3.21.47.26s.36.07.54.05c.45-.1.85-.38,1.1-.76l1-1.3-4.66-3.56-.64.82v-.02ZM93.79,85.12l.39-.5,1.49,1.14-.38.5c-.24.31-.5.36-.77.16l-.7-.52c-.05-.04-.1-.1-.13-.16-.03-.06-.05-.13-.05-.2,0-.16.05-.31.15-.43h0Z" fill="#f60"/>
  <path d="M87.49,87.69l.65.61,1.32-1.4,1.17,1.09-.96,1.03.65.6.95-1.02,1.17,1.09-1.31,1.4.65.61,2.02-2.17-4.29-4.01s-2.02,2.17-2.02,2.17Z" fill="#f60"/>
  <path d="M86.9,91.65l-2.39,1.95.56.69,2.39-1.95-.56-.69Z" fill="#f60"/>
  <path d="M78.89,94.36c-.23.14-.43.34-.57.58-.13.21-.2.45-.21.7,0,.33.09.66.27.94.07.12.15.23.25.33.14.16.31.28.5.37.23.1.49.13.74.08-.09.11-.15.25-.19.39-.04.17-.05.35-.02.52.03.17.09.34.19.48.11.18.24.34.41.48.25.21.57.32.9.31.39-.02.76-.13,1.09-.34l1.33-.81-3.03-5.03-1.65,1h-.01ZM81.37,96.92l.78,1.28-.37.22c-.15.1-.34.14-.52.11-.1-.02-.19-.07-.28-.13-.08-.06-.15-.14-.19-.23-.07-.11-.11-.23-.13-.35-.03-.14-.01-.28.05-.41.06-.13.17-.23.29-.29,0,0,.37-.2.37-.2ZM80.56,96.43c-.09.06-.19.1-.29.13-.1.02-.21.02-.32,0-.24-.09-.44-.27-.55-.5-.07-.11-.11-.23-.13-.35-.03-.15,0-.31.06-.45.07-.14.18-.25.33-.32l.37-.22.9,1.5-.37.22h0Z" fill="#f60"/>
  <path d="M76.3,96.21c-.41-.09-.84-.04-1.22.14-.38.18-.69.48-.88.86-.09.17-.13.36-.13.55s.04.38.13.55l1.94,4.11.98-.46-1.94-4.09c-.03-.06-.04-.13-.04-.2s.02-.14.04-.2c.07-.14.18-.25.32-.32s.3-.08.45-.04c.07.01.13.04.18.09.05.04.1.1.12.16l1.94,4.09.92-.44-1.94-4.1c-.08-.17-.2-.33-.35-.45-.15-.12-.33-.2-.52-.25h0Z" fill="#f60"/>
  <path d="M69.75,98.53l.29.83,1.82-.65.54,1.51-1.33.47.3.84,1.33-.48.54,1.51-1.81.65.3.83,2.78-1-1.98-5.52-2.78,1h0Z" fill="#f60"/>
  <path d="M67.86,99.07l.93,3.65-2.31-3.3-1.08.28,1.44,5.69,1.01-.25-.97-3.83,2.31,3.49,1.13-.29-1.44-5.69-1.01.25h0Z" fill="#f60"/>
  <path d="M64.49,101.23c-.03-.19-.1-.37-.2-.53-.11-.16-.25-.29-.41-.38-.36-.23-.79-.32-1.21-.25-.42.05-.82.26-1.1.58-.13.14-.23.31-.29.49s-.07.38-.05.57l.46,3.17c.03.19.1.37.2.53.11.16.25.29.41.39.36.22.8.31,1.22.24.42-.05.81-.26,1.09-.58.13-.14.23-.31.29-.49s.07-.38.05-.56l-.46-3.17h0ZM63.79,104.94c-.1.11-.25.18-.4.2s-.31,0-.44-.08c-.06-.03-.11-.08-.15-.14s-.06-.12-.07-.19l-.46-3.18c0-.07,0-.14,0-.21.02-.07.06-.13.11-.18.1-.11.24-.19.39-.2.15-.02.31,0,.44.08.06.03.11.08.15.14s.06.12.07.19l.46,3.18c0,.07,0,.14,0,.2,0,.07-.04.13-.08.18h-.03,0Z" fill="#f60"/>
  <path d="M59.03,103.42l-.95-.7c-.12-.08-.21-.18-.29-.31-.07-.12-.12-.26-.13-.4,0-.14,0-.27.08-.39.06-.09.14-.16.23-.22.09-.05.2-.09.3-.09.08,0,.16,0,.23.03s.14.07.2.12c.2.18.32.43.35.7l.99-.11c-.03-.29-.12-.57-.26-.82-.13-.23-.33-.42-.56-.55-.31-.17-.67-.24-1.02-.21-.19,0-.39.04-.57.09-.27.07-.52.23-.7.45-.24.3-.36.68-.33,1.06.02.19.08.38.18.55.05.08.11.18.18.27.18.24.39.44.62.62.16.12.32.24.49.34.17.1.33.22.48.35.12.1.23.22.3.36.08.14.12.29.14.44s-.02.31-.1.44c-.05.07-.11.13-.18.17s-.16.06-.24.06c-.15.01-.3-.03-.42-.13-.15-.15-.24-.35-.27-.55l-.99.2c.03.25.12.49.26.7.13.19.31.34.52.43.3.13.63.19.96.17.34,0,.67-.1.96-.29.2-.14.35-.32.46-.54.1-.22.14-.46.12-.7,0-.29-.1-.57-.27-.81-.21-.29-.47-.54-.76-.74h0Z" fill="#f60"/>
  <path d="M52.14,101.75l-1.08-.12-.1-1.4-1.09-.11.53,5.95,1.4.15,1.79-5.71-1.08-.12-.37,1.35h0ZM51.26,104.85l-.14-2.34.76.08s-.62,2.26-.62,2.26Z" fill="#f60"/>
  <path d="M47.76,99.74l-1.08,5.77,1.02.19,1.08-5.77-1.02-.19Z" fill="#f60"/>
  <path d="M45.03,101.4l-.57-.15h-.09l-.04-2.3-1.09-.29.08,2.67c-.2.07-.37.19-.51.34-.14.15-.24.34-.3.54l-.22.82c-.06.17-.08.36-.06.54s.07.36.15.52c.13.19.3.34.49.46.19.12.41.2.64.24l1.58.43,1.51-5.67-1-.27-.57,2.13h0ZM44.33,104.06l-.61-.16c-.38-.11-.53-.32-.44-.65l.22-.83c.02-.07.05-.13.09-.18s.1-.1.17-.12c.14-.05.3-.05.44,0l.61.16s-.48,1.78-.48,1.78Z" fill="#f60"/>
  <path d="M39.11,98.08l1.8.67-.57,1.5-1.31-.5-.32.83,1.32.5-.57,1.49-1.79-.67-.32.83,2.78,1.04,2.06-5.5-2.77-1.04-.32.83v.02Z" fill="#f60"/>
  <path d="M37.88,98.33c.11-.27.17-.56.16-.85,0-.26-.09-.52-.23-.74-.19-.31-.46-.55-.79-.7-.17-.09-.36-.15-.55-.19-.27-.07-.56-.05-.82.06-.36.14-.65.42-.8.78-.08.18-.11.38-.11.57v.32c.04.29.12.58.25.84.08.18.17.36.27.53.1.17.18.35.25.54.12.3.12.62,0,.92-.06.14-.17.26-.3.34-.07.04-.16.06-.24.06s-.17-.02-.24-.06c-.07-.03-.13-.07-.19-.12-.05-.05-.09-.12-.12-.19-.07-.2-.07-.42,0-.62l-.96-.29c-.09.22-.12.46-.09.7.02.23.11.45.25.63.2.26.46.47.76.61.3.16.64.23.98.2.24-.03.46-.12.66-.27.19-.14.35-.33.44-.55.12-.26.18-.55.15-.84-.06-.35-.17-.69-.33-1l-.5-1.08c-.06-.13-.1-.27-.1-.41s.02-.28.07-.41c.06-.13.15-.23.27-.31.09-.05.2-.08.31-.08s.21.03.31.08c.07.03.14.08.19.14s.1.13.12.2c.08.27.07.55-.04.81l.97.39h0Z" fill="#f60"/>
  <path d="M28.99,94.24l-.5.74,2.55,1.73.5-.74-2.55-1.73Z" fill="#f60"/>
  <path d="M26.17,90.45l-.81-.7.7-1.16-.81-.74-3.11,5.1,1.06.97,4.82-3.51-.8-.7-1.06.74h0ZM23.62,92.43l1.28-1.97.57.52s-1.85,1.45-1.85,1.45Z" fill="#f60"/>
  <path d="M23.85,86.27l-1.66,1.46-.4-.45-.06-.07,1.23-1.94-.74-.85-1.4,2.27c-.2-.05-.41-.05-.61,0s-.39.14-.54.28l-.64.57c-.14.11-.26.25-.35.41s-.14.33-.16.52c.01.46.21.9.54,1.23l1.09,1.23,4.4-3.88-.69-.78h-.01ZM20.13,89.55l-.42-.47c-.26-.3-.27-.56,0-.79l.64-.57c.05-.05.11-.08.18-.1s.14-.02.21-.01c.15.02.29.1.39.22l.41.47s-1.41,1.25-1.41,1.25Z" fill="#f60"/>
  <path d="M21.1,83.52c.03-.43-.09-.85-.35-1.19-.24-.35-.6-.6-1.02-.7-.18-.05-.38-.06-.57-.03s-.37.11-.52.22l-1.66,1.2.97,1.35.7-.52-.34-.47.93-.7c.06-.04.12-.07.19-.08s.14,0,.2.01c.15.04.28.13.37.26.1.12.14.27.13.43,0,.07-.02.14-.05.2-.03.06-.08.11-.13.15l-2.55,1.89c-.06.04-.12.07-.19.08s-.14,0-.21-.01c-.15-.05-.28-.14-.36-.27-.09-.13-.13-.28-.13-.43,0-.07.02-.14.06-.2.03-.06.08-.11.13-.15l.55-.41-.63-.87-.54.39c-.16.11-.28.26-.37.43s-.14.36-.15.55c-.02.42.1.84.35,1.19.25.34.61.59,1.01.71.18.05.38.07.57.03.19-.03.37-.11.52-.22l2.6-1.87c.14-.11.26-.26.35-.42.08-.16.13-.34.14-.53v-.02Z" fill="#f60"/>
  <path d="M17.63,77.54l-.77.45.97,1.65-1.38.81-.71-1.21-.77.45.71,1.21-1.38.81-.97-1.66-.77.46,1.5,2.56,5.06-2.97-1.49-2.56h0Z" fill="#f60"/>
  <path d="M16.75,75.78l-3.41,1.58,2.81-2.88-.47-1.01-5.33,2.47.44.95,3.58-1.66-2.99,2.91.49,1.07,5.32-2.48-.43-.95h0Z" fill="#f60"/>
  <path d="M10.23,73.09l4.7-1.63-.34-.98-4.7,1.63-.36-1.04-.84.29,1.07,3.07.84-.29-.36-1.05h-.01Z" fill="#f60"/>
  <path d="M13.68,67.41l-5.67,1.51.27,1,5.67-1.51-.27-1Z" fill="#f60"/>
  <path d="M13.2,65.25l-3.7.67,3.44-2.08-.2-1.1-5.78,1.06.19,1.02,3.88-.72-3.63,2.07.21,1.15,5.77-1.05s-.18-1.02-.18-1.02Z" fill="#f60"/>
  <path d="M12.49,60.61l-1.36-.15-.08-1.08,1.33-.34-.08-1.09-5.77,1.58.11,1.4,5.93.75-.08-1.06h0ZM7.93,60.14l2.28-.55.06.76-2.33-.22h-.01Z" fill="#f60"/>
  <path d="M9.53,49.91l-.22,3.08.89.06.22-3.08-.89-.06Z" fill="#f60"/>
</svg>