<?xml version="1.0" encoding="UTF-8"?>
<svg id="Layer_1" data-name="Layer 1" xmlns="http://www.w3.org/2000/svg" width="135" height="87" viewBox="0 0 135 87">
  <path d="M18.85,5.64c-.25-.41-.37-.88-.37-1.36s.15-.94.42-1.34c.27-.39.64-.71,1.07-.92s.9-.32,1.37-.31h92.85c.48,0,.95.09,1.37.31.43.21.79.53,1.07.92.26.4.41.86.42,1.34,0,.48-.12.95-.37,1.36l-5.59,9.33s-.04.1-.04.15.01.11.04.15.07.08.11.11c.05.03.1.04.15.04h1.17s.01-.01.02-.02l5.4-9.05c.36-.6.56-1.29.56-1.99s-.18-1.39-.54-2c-.41-.64-.97-1.17-1.64-1.53s-1.42-.54-2.17-.52H21.38c-.76-.02-1.51.16-2.18.52-.67.36-1.23.89-1.64,1.53-.36.6-.54,1.29-.54,2s.2,1.39.57,1.99l5.4,9.05s0,.01.02.02h1.14s.1-.01.15-.04.08-.06.11-.11c.03-.05.04-.1.04-.15s-.01-.11-.04-.15l-5.57-9.33h.01Z" fill="#f60"/>
  <path d="M70.11,83.59c-.25.4-.59.73-1,.96-.41.23-.87.35-1.34.35s-.93-.12-1.34-.35c-.41-.23-.76-.56-1.01-.96l-30.78-51.53s-.08-.09-.13-.12-.11-.04-.17-.04h-.89c-.06,0-.12.01-.17.04s-.1.07-.13.12-.05.11-.05.17.02.12.05.17l31,51.88c.38.61.92,1.12,1.55,1.47.63.35,1.34.54,2.06.54s1.43-.18,2.06-.54c.63-.35,1.16-.86,1.55-1.47l31-51.91s.04-.11.04-.17-.02-.12-.05-.17-.07-.09-.13-.12-.11-.04-.17-.04h-.89c-.06,0-.12.02-.17.04-.05.03-.1.07-.13.12l-30.78,51.56h.02Z" fill="#f60"/>
  <path d="M.82,19.4h4.9v.96h-1.8l-.04,6.25h3.01l.62-1.47,1.06.31-.84,2.13H.83v-.96h1.81v-6.25H.82v-.97Z" fill="#f60"/>
  <path d="M7.76,27.63H.76v-1.07h1.81v-6.14H.74v-1.07h5.02v1.07h-1.8l-.03,6.14h2.9l.63-1.48,1.16.36-.02.06s-.84,2.13-.84,2.13ZM.88,27.51h6.8l.8-2.02-.93-.27-.61,1.45h-3.11v-.06l.03-6.32h1.8v-.84H.89v.84h1.83v6.37H.9l-.02.84h0Z" fill="#f60"/>
  <path d="M9.49,27.57v-.96h1.52l2.64-6.25h-1.61v-.96h3.08l2.88,7.21h1.51v.96h-3.86v-.96h1l-.51-1.26h-3.44l-.54,1.26h1.02v.96h-3.71.02ZM13.11,24.39h2.66l-1.26-3.59-1.4,3.59Z" fill="#f60"/>
  <path d="M19.58,27.63h-3.98v-1.07h.97l-.46-1.15h-3.35l-.49,1.15h.99v1.07h-3.83v-1.07h1.55l2.59-6.14h-1.57v-1.07h3.18v.04l2.87,7.17h1.53l.02,1.06h-.02ZM15.72,27.51h3.74v-.84h-1.49v-.04l-2.87-7.18h-2.98v.84h1.64l-.04.08-2.65,6.29h-1.51v.84h3.58v-.84h-1.06l.59-1.38h3.53l.55,1.38h-1.03v.84h0ZM15.86,24.45h-2.82l1.49-3.83,1.33,3.83ZM13.2,24.33h2.47l-1.17-3.36-1.3,3.36Z" fill="#f60"/>
  <path d="M24.34,27.78c-.66,0-1.32-.05-1.96-.18-.56-.12-1.02-.24-1.41-.36l-.3-1.69,1.06-.08.22,1.04c.33.1.67.17,1.01.23.45.07.91.1,1.36.1.37,0,.73-.04,1.09-.15.31-.08.59-.24.81-.47.11-.12.19-.26.24-.41s.08-.31.07-.47c0-.35-.11-.69-.34-.96-.34-.32-.8-.51-1.27-.51l-1.21-.15c-.76-.06-1.48-.33-2.09-.79-.38-.31-.63-.76-.7-1.25-.07-.49.06-.99.34-1.39.29-.36.67-.64,1.1-.79.61-.21,1.25-.31,1.9-.29.41,0,.78,0,1.1.04.32.03.63.07.94.14.33.07.66.16.98.28l.27,1.72-1.06.1-.21-1.11c-.27-.09-.55-.14-.83-.17-.4-.04-.79-.06-1.19-.06-.56-.03-1.11.08-1.61.32-.18.08-.33.21-.44.38s-.16.36-.16.56c0,.17.03.35.1.51.08.16.19.29.33.39.36.24.78.38,1.21.42l1.45.2c.73.05,1.43.32,1.99.79.21.19.37.42.49.68.11.26.17.54.16.83,0,.39-.09.78-.28,1.13-.19.33-.44.6-.76.81-.34.22-.71.39-1.11.49-.43.11-.88.16-1.32.16l.03-.04Z" fill="#f60"/>
  <path d="M24.34,27.84c-.66,0-1.33-.05-1.98-.18-.56-.12-1.03-.24-1.41-.36h-.04l-.32-1.78,1.17-.09.23,1.07c.31.09.63.16.97.22.45.07.9.1,1.35.1.36,0,.71-.05,1.06-.15.3-.08.57-.23.78-.46.1-.11.18-.25.23-.39s.07-.3.06-.45c0-.34-.11-.66-.32-.92-.34-.31-.78-.48-1.23-.49l-1.21-.15c-.77-.06-1.5-.34-2.12-.8-.24-.19-.43-.43-.55-.7-.13-.27-.19-.57-.19-.87,0-.41.12-.82.35-1.16.29-.38.68-.66,1.13-.81.62-.21,1.27-.31,1.92-.3.41,0,.79,0,1.11.04.32.03.63.07.95.14.33.07.66.16.99.28h.03l.29,1.81-1.17.11-.21-1.13c-.25-.08-.52-.13-.78-.16-.39-.05-.79-.07-1.19-.06-.55-.02-1.09.08-1.58.31-.17.07-.31.2-.41.35-.1.16-.15.34-.15.52,0,.17.02.33.1.48.07.15.18.28.32.37.36.23.77.37,1.19.41l1.45.19c.74.05,1.45.33,2.03.81.21.2.38.44.5.7.11.27.17.56.17.85,0,.41-.09.8-.29,1.16-.19.33-.46.62-.78.83-.35.22-.72.39-1.12.49-.43.1-.87.15-1.31.14l-.02.03ZM21.04,27.19c.35.11.82.23,1.35.36.64.13,1.3.19,1.95.18.44,0,.88-.05,1.31-.16.39-.1.75-.26,1.09-.48.3-.2.56-.47.74-.79.18-.34.27-.72.27-1.1,0-.28-.05-.55-.16-.8s-.27-.48-.47-.67c-.56-.46-1.24-.73-1.96-.78l-1.45-.19c-.44-.04-.87-.18-1.25-.43-.15-.11-.27-.25-.35-.41s-.12-.35-.11-.53c0-.21.06-.41.17-.59.11-.17.27-.31.46-.4.51-.24,1.08-.35,1.64-.33.4,0,.8.02,1.2.06.29.03.57.09.84.17h.04l.2,1.09.93-.09-.26-1.62c-.31-.11-.62-.19-.94-.26-.31-.07-.62-.11-.93-.14-.32-.03-.69-.04-1.1-.04-.64-.02-1.27.08-1.87.29-.43.15-.8.41-1.08.77-.23.32-.35.7-.35,1.09,0,.28.06.57.18.82.12.26.3.48.52.66.6.45,1.32.72,2.06.78l1.21.15c.49,0,.95.2,1.31.53.23.28.36.63.35,1,.02.34-.1.67-.32.92-.23.24-.52.4-.84.49-.36.1-.73.15-1.1.15-.46,0-.92-.03-1.37-.1-.34-.06-.68-.14-1.02-.24h-.04l-.22-1.02-.93.07.28,1.59h.02Z" fill="#f60"/>
  <path d="M33.72,19.4h8.19v2.27h-1.21v-1.32h-2.24l-.03,6.25h1.51v.96h-4.29v-.96h1.51v-6.25h-2.24v1.32h-1.21v-2.27h.01Z" fill="#f60"/>
  <path d="M40,27.63h-4.41v-1.07h1.51v-6.14h-2.12v1.32h-1.33v-2.39h8.31v2.39h-1.33v-1.32h-2.12l-.03,6.14h1.51v1.07h.01ZM35.71,27.51h4.17v-.84h-1.51v-.06l.03-6.32h2.36v1.32h1.09v-2.16h-8.05v2.16h1.06v-1.32h2.36v.06l-.02,6.31h-1.51v.84h.02Z" fill="#f60"/>
  <path d="M43.39,27.57v-.96h1.5v-6.25h-1.5v-.96h4.22c.69-.02,1.38.07,2.04.28.44.14.83.43,1.08.82.23.42.34.89.32,1.37.02.35-.03.7-.17,1.02-.13.32-.34.61-.6.84-.51.43-1.41.64-2.69.64h-1.45v2.23h1v.96h-3.77.02ZM46.18,23.4h1.43c.38,0,.77-.03,1.14-.11.28-.06.53-.21.71-.44.16-.3.25-.63.25-.96s-.08-.67-.25-.96c-.18-.23-.43-.38-.71-.44-.38-.09-.76-.12-1.14-.12h-1.43v3.04h0ZM49.77,27.57l-2.05-3.26,1.35-.14,1.62,2.44h1.45v.96h-2.37Z" fill="#f60"/>
  <path d="M52.2,27.63h-2.47l-.02-.03-1.99-3.16h-1.51v2.13h1v1.07h-3.88v-1.07h1.5v-6.16h-1.5v-1.07h4.28c.7-.02,1.4.07,2.06.28.46.14.85.44,1.11.85.24.42.36.91.35,1.4.02.36-.04.71-.17,1.05-.14.33-.34.63-.61.86-.33.25-.71.43-1.12.5l1.51,2.27h1.48l-.02,1.07h0ZM49.8,27.51h2.28v-.84h-1.41l-1.57-2.36c-.4.08-.81.12-1.22.13,0,0,1.92,3.07,1.92,3.07ZM43.45,27.51h3.65v-.84h-1v-2.35h1.56l-.04-.06,1.49-.15.05.07c.4-.07.78-.24,1.11-.49.25-.23.45-.51.58-.82.13-.32.18-.66.16-1,.02-.47-.09-.93-.32-1.34-.25-.38-.62-.67-1.06-.8-.65-.2-1.34-.3-2.02-.27h-4.15v.84h1.49v6.37h-1.49v.84h-.01ZM47.6,23.46h-1.49v-3.16h1.49c.39,0,.78.03,1.16.12.29.06.56.23.74.47.17.3.26.65.26,1s-.09.69-.26,1c-.19.24-.45.4-.74.46-.38.09-.77.13-1.15.13v-.02h0ZM46.23,23.34h1.37c.38,0,.76-.03,1.13-.11.27-.05.5-.2.67-.42.16-.28.24-.6.24-.93s-.08-.64-.24-.93c-.17-.21-.41-.36-.67-.42-.37-.09-.75-.12-1.13-.12h-1.37v2.92h0Z" fill="#f60"/>
  <path d="M53.49,19.4h7.06l.81,2.13-1.03.31-.64-1.48h-3.4v2.51h2.97v.96h-2.97v2.79h3.74l.64-1.49,1.03.31-.81,2.13h-7.41v-.96h1.53v-6.25h-1.52v-.96Z" fill="#f60"/>
  <path d="M60.91,27.63h-7.5v-1.07h1.52l.02-6.14h-1.53v-1.07h7.17l.85,2.23-1.15.34-.64-1.5h-3.3v2.39h2.97v1.07h-2.97v2.67h3.63l.64-1.5,1.15.36-.86,2.21h0ZM53.53,27.51h7.29l.77-2.04-.92-.27-.63,1.47h-3.84l.02-2.91h2.98v-.84h-2.97v-2.63h3.51l.63,1.47.92-.27-.78-2.04h-6.95v.84h1.53v.06l-.02,6.31h-1.53v.84h0Z" fill="#f60"/>
  <path d="M66.88,27.78c-.66,0-1.32-.05-1.97-.18-.55-.12-1.02-.24-1.39-.36l-.3-1.69,1.06-.08.22,1.04c.33.1.67.17,1.01.23.45.07.9.1,1.36.1.37,0,.74-.04,1.09-.15.31-.08.59-.24.81-.47.21-.24.33-.56.31-.88,0-.35-.11-.69-.34-.96-.35-.32-.8-.51-1.27-.51l-1.21-.15c-.76-.06-1.48-.33-2.09-.79-.23-.18-.41-.41-.54-.68-.13-.26-.19-.55-.19-.85,0-.4.12-.8.35-1.12.28-.37.67-.64,1.1-.79.61-.21,1.25-.31,1.89-.29.42,0,.78,0,1.1.04.32.03.63.07.94.14.33.07.66.16.98.28l.27,1.72-1.06.1-.21-1.11c-.27-.09-.55-.14-.83-.17-.4-.04-.79-.06-1.19-.06-.56-.03-1.11.08-1.62.32-.18.08-.33.21-.44.38s-.16.36-.16.56c0,.17.03.35.11.5.08.16.19.29.33.39.37.24.78.38,1.22.42l1.45.2c.73.05,1.43.32,2,.79.21.19.37.43.48.69s.17.54.16.83c0,.4-.09.79-.28,1.13-.18.33-.44.6-.76.81-.34.22-.71.39-1.1.49-.43.11-.87.16-1.32.16l.03-.03Z" fill="#f60"/>
  <path d="M66.88,27.84c-.66,0-1.33-.05-1.98-.18-.55-.12-1.02-.24-1.39-.36h-.04l-.32-1.78,1.17-.09.23,1.07c.3.09.63.16.97.22.45.07.9.1,1.35.1.36,0,.71-.05,1.06-.15.3-.08.57-.24.78-.46.2-.23.31-.53.29-.84,0-.34-.11-.66-.32-.92-.34-.31-.78-.48-1.24-.49l-1.21-.15c-.77-.06-1.5-.34-2.12-.8-.24-.19-.42-.43-.55-.7s-.19-.57-.19-.87c0-.41.11-.82.35-1.16.29-.38.68-.66,1.13-.81.61-.21,1.26-.31,1.91-.3.41,0,.79,0,1.11.04.32.03.63.07.95.14.33.07.66.16.98.28h.04l.29,1.81-1.17.11-.21-1.13c-.25-.08-.52-.13-.78-.16-.39-.05-.79-.07-1.19-.06-.55-.02-1.09.08-1.58.31-.17.07-.31.2-.41.35-.1.16-.15.34-.15.53,0,.17.02.33.1.48.07.15.18.28.32.37.36.23.76.37,1.19.41l1.45.19c.74.05,1.45.33,2.03.81.21.2.38.44.5.71.11.27.17.56.17.85,0,.41-.09.81-.29,1.16-.19.34-.45.62-.77.83-.35.22-.72.39-1.12.49-.43.1-.88.15-1.32.14h-.02ZM63.58,27.19c.35.11.82.23,1.35.36.64.13,1.3.19,1.95.18.44,0,.88-.05,1.31-.16.39-.1.75-.26,1.09-.48.3-.2.56-.47.74-.79.19-.34.28-.72.27-1.1,0-.28-.05-.55-.16-.8s-.27-.48-.47-.67c-.56-.46-1.24-.73-1.96-.78l-1.45-.19c-.44-.04-.87-.18-1.25-.43-.15-.11-.27-.25-.35-.41-.08-.17-.12-.35-.11-.53,0-.21.06-.41.17-.58s.27-.31.46-.4c.51-.24,1.08-.35,1.64-.33.4,0,.8.02,1.2.06.29.03.57.09.84.17h.03l.2,1.09.93-.09-.25-1.62c-.31-.1-.62-.19-.94-.26-.31-.07-.62-.11-.93-.14-.32-.03-.71-.04-1.1-.04-.64-.02-1.27.08-1.87.29-.42.15-.79.41-1.06.77-.23.32-.35.7-.35,1.09,0,.28.06.57.18.82.12.26.3.48.52.66.6.45,1.31.72,2.06.78l1.21.15c.49,0,.95.2,1.31.53.23.28.36.63.35,1,.02.34-.1.67-.32.92-.23.23-.52.4-.84.49-.36.1-.73.15-1.11.15-.46,0-.92-.03-1.37-.1-.34-.06-.68-.14-1.02-.24h-.04l-.22-1.02-.93.07.26,1.59h.03Z" fill="#f60"/>
  <path d="M76.28,27.57v-.96h1.51v-6.25h-1.51v-.96h4.05c1.13,0,2,.18,2.6.55.28.16.51.39.67.67.16.28.24.6.23.92,0,.38-.12.76-.35,1.07-.24.34-.57.6-.95.77.43.13.82.38,1.13.71.31.35.47.8.46,1.26,0,.31-.06.61-.19.89-.13.28-.33.52-.57.71-.51.42-1.3.63-2.37.63h-4.71ZM79.04,26.6h1.89c.48.03.96-.09,1.37-.36.16-.12.29-.29.37-.47s.12-.39.1-.59c0-.19-.03-.38-.11-.55s-.2-.32-.35-.44c-.38-.26-.84-.38-1.3-.36h-1.97v2.76h0ZM79.04,23.02h1.99c.39.03.77-.1,1.06-.36.12-.13.22-.28.28-.45s.09-.34.08-.52c0-.89-.66-1.33-1.97-1.33h-1.45l.02,2.66h0Z" fill="#f60"/>
  <path d="M81,27.63h-4.78v-1.07h1.51v-6.14h-1.51v-1.07h4.11c1.14,0,2.03.19,2.63.56.29.16.53.4.69.69s.25.62.24.95c0,.38-.13.76-.35,1.07-.22.3-.51.55-.84.71.39.14.74.38,1.02.69.32.36.49.82.48,1.3,0,.32-.06.63-.2.92s-.34.54-.58.73c-.52.45-1.33.66-2.41.66h-.01ZM76.34,27.51h4.66c1.06,0,1.84-.21,2.33-.62.24-.18.43-.42.55-.69.13-.27.19-.57.19-.87,0-.45-.15-.89-.45-1.22-.3-.33-.68-.58-1.1-.71l-.15-.05.14-.06c.37-.16.69-.42.92-.75.21-.29.33-.65.33-1.01,0-.31-.07-.62-.22-.89-.15-.27-.38-.49-.65-.65-.59-.36-1.45-.54-2.57-.54h-3.99v.84h1.51v6.38h-1.51v.84h0ZM80.92,26.65h-1.95v-2.84h2.03c.47-.03.94.09,1.33.36.16.12.28.28.36.46.08.18.12.38.11.57.01.21-.03.42-.11.62-.09.19-.22.36-.39.49-.41.26-.89.39-1.38.37v-.02h0ZM79.09,26.54h1.83c.47.03.94-.1,1.33-.36.15-.12.27-.27.35-.45s.11-.37.1-.56c.01-.18-.02-.36-.1-.52s-.19-.31-.33-.42c-.37-.25-.82-.36-1.26-.33h-1.91l-.02,2.64h.01ZM81.04,23.08h-2.05v-2.78h1.51c1.35,0,2.04.47,2.04,1.39,0,.19-.02.37-.09.55-.07.17-.17.33-.3.47-.3.27-.7.4-1.1.38h-.01ZM79.11,22.96h1.93c.37.02.74-.11,1.02-.36.12-.12.21-.27.27-.43s.09-.33.08-.5c0-.86-.62-1.27-1.91-1.27h-1.38v2.56h0Z" fill="#f60"/>
  <path d="M84.32,27.57v-.96h1.53l2.64-6.25h-1.61v-.96h3.08l2.88,7.21h1.51v.96h-3.88v-.96h1l-.51-1.26h-3.43l-.54,1.26h1.02v.96s-3.69,0-3.69,0ZM87.95,24.39h2.67l-1.26-3.59-1.42,3.59h.01Z" fill="#f60"/>
  <path d="M94.42,27.63h-3.99v-1.07h.97l-.46-1.15h-3.35l-.49,1.15h.98v1.07h-3.82v-1.07h1.55l2.59-6.14h-1.58v-1.07h3.18v.04l2.86,7.17h1.53l.02,1.06h0ZM90.56,27.51h3.74v-.84h-1.49v-.04l-2.86-7.18h-2.98v.84h1.63l-.03.08-2.67,6.29h-1.51v.84h3.59v-.84h-1.06l.59-1.38h3.53l.56,1.38h-1.03v.84h0ZM90.69,24.45h-2.82l1.49-3.83,1.33,3.83ZM88.04,24.33h2.47l-1.18-3.36-1.3,3.36h.01Z" fill="#f60"/>
  <path d="M95.44,19.4h3.53l4.05,6.48v-5.52h-1.34v-.96h4.15v.96h-1.54v7.21h-1.56l-4.51-7.21.03,6.25h1.33v.96h-4.15v-.96h1.53l-.02-6.25h-1.49v-.96h-.01Z" fill="#f60"/>
  <path d="M104.34,27.63h-1.65v-.03l-4.4-7.03.03,5.98h1.34v1.07h-4.27v-1.07h1.52v-6.14h-1.5v-1.07h3.61l.02.03,3.94,6.3v-5.26h-1.33v-1.07h4.27v1.07h-1.55l-.03,7.21h0ZM102.76,27.51h1.47v-7.21h1.54v-.84h-4.03v.84h1.34v5.79l-4.15-6.63h-3.42v.84h1.5v6.37h-1.53v.84h4.03v-.84h-1.33v-.06l-.03-6.47,4.62,7.36h-.01Z" fill="#f60"/>
  <path d="M111.39,19.4c1.52,0,2.7.37,3.55,1.12.43.39.76.87.98,1.4.22.54.32,1.11.29,1.69.03.55-.07,1.09-.29,1.6-.22.5-.54.95-.96,1.31-.82.71-1.98,1.07-3.45,1.07h-4.36v-.96h1.51v-6.25h-1.51v-.96l4.23-.02h0ZM111.23,26.61c1.2,0,2.11-.25,2.71-.76.31-.28.56-.62.71-1.01.16-.39.23-.81.2-1.22,0-1.07-.3-1.88-.89-2.43-.59-.55-1.45-.83-2.58-.82h-1.45v6.25h1.3Z" fill="#f60"/>
  <path d="M111.51,27.63h-4.42v-1.07h1.52v-6.14h-1.51v-1.07h4.29c1.52,0,2.73.38,3.59,1.13.43.39.77.88,1,1.43.22.54.32,1.13.29,1.72.03.56-.07,1.11-.29,1.62s-.55.97-.97,1.33c-.84.7-2.02,1.05-3.5,1.05ZM107.22,27.51h4.29c1.45,0,2.6-.36,3.41-1.03.4-.35.72-.79.93-1.28s.31-1.03.28-1.56c.03-.57-.07-1.14-.28-1.67-.22-.53-.55-1-.97-1.38-.83-.71-2.01-1.1-3.5-1.1h-4.18v.84h1.51v6.36h-1.51v.84l.02-.02ZM111.23,26.67h-1.35v-6.37h1.51c1.15,0,2.03.28,2.63.84s.9,1.39.9,2.49c.03.43-.04.85-.21,1.25-.16.39-.41.75-.73,1.03-.62.5-1.55.76-2.75.76h0ZM110,26.55h1.22c1.18,0,2.08-.25,2.67-.75.3-.27.54-.61.7-.99.15-.38.22-.79.19-1.2,0-1.07-.29-1.85-.86-2.39-.58-.54-1.43-.81-2.54-.81h-1.38v6.14Z" fill="#f60"/>
  <path d="M116.38,27.57v-.96h1.53l2.64-6.25h-1.61v-.96h3.08l2.88,7.21h1.51v.96h-3.88v-.96h1l-.51-1.26h-3.43l-.54,1.26h1.02v.96s-3.69,0-3.69,0ZM120,24.39h2.66l-1.26-3.59-1.4,3.59Z" fill="#f60"/>
  <path d="M126.48,27.63h-3.99v-1.07h.97l-.46-1.15h-3.35l-.49,1.15h.99v1.07h-3.83v-1.07h1.55l2.59-6.14h-1.58v-1.07h3.18v.04l2.86,7.17h1.53l.03,1.06h0ZM122.6,27.51h3.74v-.84h-1.49v-.04l-2.86-7.18h-2.98v.84h1.63l-.03.08-2.66,6.29h-1.51v.84h3.58v-.84h-1.06l.59-1.38h3.53l.56,1.38h-1.03l-.02.84h.01ZM122.73,24.45h-2.82l1.49-3.83,1.33,3.83ZM120.08,24.33h2.47l-1.18-3.36-1.29,3.36Z" fill="#f60"/>
  <path d="M131.23,27.78c-.66,0-1.32-.05-1.97-.18-.56-.12-1.02-.24-1.39-.36l-.3-1.69,1.06-.08.22,1.04c.33.1.67.17,1.01.23.45.07.9.1,1.36.1.37,0,.74-.04,1.09-.15.31-.08.59-.24.81-.47.21-.24.33-.56.31-.88,0-.35-.11-.69-.34-.96-.35-.32-.8-.51-1.27-.51l-1.21-.15c-.76-.06-1.48-.33-2.09-.79-.23-.18-.41-.41-.54-.68s-.19-.55-.18-.85c0-.4.12-.8.35-1.12.28-.37.67-.64,1.1-.79.61-.21,1.25-.31,1.89-.29.41,0,.78,0,1.1.04.32.03.63.07.94.14.33.07.66.16.98.28l.27,1.72-1.06.1-.21-1.11c-.27-.09-.54-.14-.82-.17-.4-.04-.79-.06-1.19-.06-.56-.03-1.11.08-1.62.32-.18.08-.33.21-.44.38s-.16.36-.16.56c0,.17.03.35.11.5.08.16.19.29.33.39.37.24.78.38,1.22.42l1.45.2c.73.05,1.43.32,2,.79.21.19.37.43.48.69s.16.54.16.83c0,.4-.09.79-.28,1.13-.18.33-.44.6-.76.81-.34.22-.71.39-1.1.49-.43.11-.87.16-1.32.16v-.03Z" fill="#f60"/>
  <path d="M131.24,27.84c-.66,0-1.33-.05-1.98-.18-.55-.12-1.02-.24-1.41-.36h-.03l-.32-1.78,1.17-.09.23,1.07c.3.09.63.16.97.22.45.07.9.1,1.35.1.36,0,.71-.05,1.06-.15.3-.08.57-.24.78-.46.2-.23.31-.53.29-.84,0-.34-.11-.66-.32-.92-.34-.31-.78-.48-1.23-.49l-1.21-.15c-.77-.06-1.5-.34-2.12-.8-.24-.19-.43-.43-.55-.7-.13-.27-.19-.57-.19-.87,0-.42.13-.82.37-1.16.29-.38.68-.66,1.13-.81.62-.21,1.26-.31,1.92-.3.41,0,.79,0,1.11.04.32.03.63.07.95.14.33.07.66.16.98.28h.04l.29,1.81-1.17.11-.21-1.13c-.25-.08-.51-.13-.78-.16-.39-.05-.79-.07-1.19-.06-.55-.02-1.09.08-1.58.31-.17.07-.31.2-.41.35-.1.16-.15.34-.15.53,0,.17.02.33.1.48.07.15.18.28.32.37.35.23.76.37,1.18.41l1.45.19c.74.05,1.45.33,2.03.81.21.2.38.44.5.71.11.27.17.56.16.85,0,.4-.09.8-.29,1.16-.19.34-.45.62-.77.83-.35.23-.73.39-1.13.49-.43.1-.88.15-1.32.14h-.02ZM127.93,27.19c.35.11.82.23,1.35.36.64.13,1.3.19,1.95.18.44,0,.88-.05,1.31-.16.39-.1.75-.26,1.09-.48.3-.2.56-.47.74-.79.18-.34.28-.72.27-1.1,0-.28-.05-.55-.16-.8s-.27-.48-.47-.67c-.56-.46-1.24-.73-1.96-.78l-1.45-.19c-.44-.04-.87-.18-1.25-.43-.15-.11-.27-.25-.35-.41-.08-.17-.12-.35-.11-.53,0-.21.06-.41.17-.59.11-.17.27-.31.46-.4.51-.24,1.08-.35,1.65-.33.4,0,.8.02,1.2.06.29.03.57.09.84.17h.03l.2,1.09.93-.09-.25-1.62c-.31-.1-.62-.19-.93-.26s-.62-.11-.93-.14c-.32-.03-.71-.04-1.1-.04-.63-.02-1.27.08-1.87.29-.42.15-.79.41-1.06.77-.23.32-.35.7-.35,1.09,0,.29.06.57.18.82.12.26.3.48.52.66.6.45,1.31.72,2.06.78l1.21.15c.49,0,.95.2,1.31.53.23.28.36.63.35,1,0,.17-.02.34-.07.49-.06.16-.14.3-.26.43-.23.23-.52.4-.84.49-.36.1-.73.15-1.11.15-.46,0-.92-.03-1.37-.1-.34-.06-.68-.14-1.02-.24h-.04l-.22-1.02-.93.07.26,1.59h.02Z" fill="#f60"/>
  <path d="M67.76,69.7c-4.64,0-8.41-3.65-8.41-8.13s3.77-8.13,8.41-8.13,8.41,3.65,8.41,8.13-3.77,8.13-8.41,8.13ZM67.76,54.62c-3.96,0-7.19,3.12-7.19,6.95s3.23,6.95,7.19,6.95,7.19-3.11,7.19-6.95-3.23-6.96-7.19-6.96h0Z" fill="#f60"/>
  <path d="M64.69,63.36c0-1.23.93-1.92,1.81-2.19-.89-.32-1.41-.95-1.41-1.75,0-1.18.93-2.1,2.74-2.1,1.66,0,2.61.92,2.61,2.09,0,.4-.15.8-.4,1.11s-.6.54-.99.63c.5.11.94.39,1.26.78.32.4.5.89.5,1.41,0,1.48-1.28,2.47-3.11,2.47-1.74-.01-3.02-.98-3.02-2.44h.01ZM70.07,63.33c0-1.19-.84-1.85-2.3-1.85-1.61,0-2.31.82-2.31,1.85s.81,1.88,2.3,1.88c1.37,0,2.31-.67,2.31-1.88ZM65.87,59.39c0,.79.54,1.51,1.96,1.51,1.31,0,1.86-.6,1.86-1.46,0-.78-.56-1.53-1.88-1.53-1.42,0-1.93.64-1.93,1.48h-.01Z" fill="#f60"/>
  <path d="M67.73,66.1c-1.97,0-3.35-1.13-3.35-2.74,0-.47.14-.92.39-1.31.25-.39.6-.7,1.02-.9-.3-.18-.55-.43-.72-.73s-.26-.65-.26-1c0-1.46,1.2-2.4,3.05-2.4,1.72,0,2.92.98,2.92,2.39,0,.34-.09.68-.25.98-.17.3-.4.55-.69.74.4.21.74.53.97.92s.36.84.36,1.29c-.01,1.63-1.42,2.76-3.43,2.76h0ZM65.69,61.92c-.22.17-.4.39-.52.64-.12.25-.18.53-.18.81,0,1.1.85,1.91,2.12,2.1-1.36-.22-1.97-1.18-1.97-2.13,0-.53.2-1.03.56-1.41h-.01ZM69.59,61.68c.25.19.46.44.59.73.14.29.2.6.19.92,0,.48-.15.95-.45,1.33-.3.38-.72.63-1.19.73,1.11-.28,1.8-1.03,1.8-2.06,0-.33-.09-.66-.25-.95s-.4-.53-.69-.7ZM67.77,61.78c-1.3,0-2.01.55-2.01,1.56s.78,1.59,1.99,1.59,2.01-.59,2.01-1.59c0-1.29-1.08-1.56-1.99-1.56ZM67.29,61.14l.14.05h-.02c.23-.02.47-.02.71,0l-.09-.02c-.25,0-.49,0-.73-.03h-.01ZM66.54,57.83c-.33.11-.62.32-.82.61s-.31.63-.31.98c0,.26.07.51.2.73s.32.4.54.52c-.18-.16-.33-.35-.43-.57s-.15-.46-.15-.71c-.01-.33.07-.65.25-.93.17-.28.43-.5.73-.63h-.01ZM67.8,58.19c-1.09,0-1.62.39-1.62,1.18s.6,1.21,1.65,1.21,1.55-.38,1.55-1.16-.59-1.23-1.58-1.23h0ZM68.27,57.62c1.26.17,1.72,1.04,1.72,1.78.01.39-.11.78-.35,1.09.16-.13.29-.3.38-.49.09-.19.14-.4.13-.61,0-.94-.74-1.62-1.88-1.76h0Z" fill="#f60"/>
  <path d="M36.39,14.29v.71h-.23v-1.93h.55c.18-.01.35.04.49.15.06.05.11.12.14.19s.04.15.04.23,0,.17-.05.25c-.03.08-.08.15-.15.2-.15.12-.34.19-.53.17l-.26.02h0ZM36.39,13.29v.79h.24c.13,0,.25-.03.35-.11.04-.04.08-.08.1-.14.02-.05.03-.11.03-.17,0-.26-.16-.38-.47-.38h-.26.01Z" fill="#f60"/>
  <path d="M40.98,15.05c-.13,0-.25-.02-.37-.06-.12-.05-.22-.12-.31-.21-.09-.1-.16-.21-.2-.33s-.06-.25-.06-.38c0-.27.08-.54.26-.74.09-.09.2-.17.32-.21.12-.05.25-.07.38-.06.12,0,.25.02.36.06.11.05.22.12.3.21.09.1.15.21.2.33.04.12.06.25.06.38,0,.27-.08.54-.26.75-.09.09-.2.16-.32.21s-.25.07-.37.06h0ZM40.99,13.27c-.1,0-.19.01-.28.05s-.17.1-.23.17c-.12.17-.19.37-.19.57s.07.41.19.57c.06.07.14.13.22.17.09.04.18.06.27.05.1,0,.19-.01.28-.05s.17-.09.24-.16c.13-.16.2-.37.19-.58,0-.21-.05-.42-.18-.59-.06-.07-.14-.13-.23-.17s-.18-.06-.28-.05h0v.02Z" fill="#f60"/>
  <path d="M45.54,15.05c-.13,0-.25-.02-.37-.06-.12-.05-.22-.12-.31-.21-.09-.1-.15-.21-.2-.33-.04-.12-.06-.25-.06-.38,0-.27.08-.54.26-.74.09-.09.2-.17.32-.21.12-.05.25-.07.38-.06.12,0,.25.02.36.06.11.05.22.12.3.21.09.1.15.21.2.33.04.12.06.25.06.38,0,.27-.08.54-.26.75-.09.09-.2.16-.32.21s-.25.07-.37.06h0ZM45.56,13.27c-.1,0-.19.02-.28.05s-.17.09-.23.17c-.12.17-.19.37-.19.57s.07.41.19.57c.06.07.14.13.22.17.09.04.18.06.27.05.1,0,.19-.01.28-.05s.17-.09.24-.16c.13-.16.2-.37.19-.58,0-.21-.05-.42-.18-.59-.06-.07-.14-.13-.23-.17s-.18-.06-.28-.05h0v.02Z" fill="#f60"/>
  <path d="M50.34,15.01h-1.03v-1.93h.23v1.72h.8v.2h0Z" fill="#f60"/>
  <path d="M54.13,15.01h-1.06v-1.93h1.01v.21h-.78v.64h.71v.2h-.71v.68h.82v.2h.01Z" fill="#f60"/>
  <path d="M56.84,14.94v-.27s.07.05.11.07c.05.02.09.04.14.05l.14.04h.14c.11,0,.22-.02.32-.08.03-.02.06-.06.08-.1s.03-.08.02-.12c0-.05,0-.09-.04-.14-.03-.04-.06-.08-.1-.11-.05-.04-.1-.07-.15-.09l-.18-.09c-.07-.03-.13-.07-.19-.1-.06-.03-.11-.07-.16-.11-.04-.04-.08-.09-.1-.14-.03-.06-.04-.12-.04-.19,0-.08.02-.16.06-.23.04-.06.09-.12.16-.16s.14-.08.22-.09c.08-.02.17-.03.25-.03.15,0,.29.01.43.07v.26c-.14-.08-.3-.13-.46-.12h-.15s-.09.03-.14.05c-.04.02-.07.05-.1.09s-.04.09-.04.14c0,.04,0,.09.03.13.02.04.05.07.08.1.04.03.09.06.13.09l.19.09c.07.04.14.07.2.11.06.03.12.08.17.12s.08.1.11.15c.03.06.04.12.04.19,0,.08-.02.17-.06.24s-.09.12-.16.16-.15.07-.23.09c-.09.02-.18.03-.27.03h-.12l-.14-.02-.14-.04s-.07-.01-.1-.02l.05-.02Z" fill="#f60"/>
  <path d="M65.36,13.09l-.66,1.22v.71h-.24v-.71l-.64-1.22h.26l.44.87s.04.08.05.12c0-.03.02-.07.05-.12l.47-.87h.27Z" fill="#f60"/>
  <path d="M71.26,15.01v-1.93h.57c.15,0,.29.04.41.12.05.04.09.09.11.14.03.06.04.12.04.18,0,.1-.03.2-.09.28s-.15.14-.25.17c.12,0,.23.06.32.15.04.04.07.09.09.15s.03.11.03.17c0,.08-.01.15-.04.22-.03.07-.08.13-.14.18-.13.1-.3.16-.46.15h-.58v.02ZM71.49,13.29v.62h.24c.11,0,.22-.02.3-.09.04-.03.07-.07.09-.11s.03-.09.02-.14c0-.18-.13-.28-.38-.28h-.27ZM71.49,14.12v.71h.31c.11,0,.23-.03.32-.1.04-.03.07-.07.09-.11s.03-.09.03-.14c0-.23-.16-.36-.48-.36,0,0-.27,0-.27,0Z" fill="#f60"/>
  <path d="M75.74,13.09v.19h-.19v1.54h.19v.19h-.62v-.19h.19v-1.54h-.19v-.19h.62Z" fill="#f60"/>
  <path d="M79.52,15.01h-1.03v-1.93h.23v1.72h.8v.2h0Z" fill="#f60"/>
  <path d="M83.28,15.01h-1.03v-1.93h.23v1.72h.8v.2h0Z" fill="#f60"/>
  <path d="M87.55,15.01h-.26l-.21-.54h-.85l-.2.54h-.26l.77-1.93h.24s.77,1.93.77,1.93ZM87.01,14.27l-.31-.82s-.02-.08-.03-.13c0,.04-.02.09-.03.13l-.31.82s.68,0,.68,0Z" fill="#f60"/>
  <path d="M91.69,15.02h-.28l-.33-.54s-.06-.09-.09-.13c-.02-.03-.05-.06-.09-.09-.03-.02-.06-.04-.1-.05h-.31v.82h-.23v-1.93h.59c.08,0,.16.01.24.03.07.02.13.05.19.1.06.04.1.1.13.16.03.07.05.15.05.22,0,.06,0,.13-.03.18-.02.06-.05.11-.09.15-.04.04-.09.08-.14.11-.06.03-.12.06-.18.07.03.01.06.03.09.05.02.02.05.04.07.06.03.03.05.05.07.09l.07.11.37.57v.02ZM90.5,13.29v.71h.32c.06,0,.11,0,.16-.02s.09-.04.13-.07.07-.08.09-.12c.02-.05.03-.1.03-.15s0-.09-.02-.13-.04-.08-.08-.11c-.09-.06-.19-.09-.3-.09h-.32v-.02Z" fill="#f60"/>
  <path d="M95.45,15.01h-1.06v-1.93h1.01v.21h-.78v.64h.71v.2h-.71v.68h.83s0,.2,0,.2Z" fill="#f60"/>
  <path d="M98.16,14.94v-.27s.07.06.11.07c.04.02.09.04.14.05l.15.04h.13c.11,0,.23-.02.32-.08.03-.02.06-.06.08-.1.02-.04.03-.08.02-.12,0-.05-.01-.09-.04-.14-.03-.04-.06-.08-.1-.11-.05-.04-.1-.07-.15-.09l-.18-.09c-.07-.03-.13-.07-.19-.1-.06-.03-.11-.07-.16-.11-.04-.04-.08-.09-.11-.14-.03-.06-.04-.12-.04-.19,0-.08.02-.16.06-.23.04-.06.09-.12.16-.16.07-.04.14-.08.22-.09.08-.02.17-.03.25-.03.15,0,.29.01.43.07v.26c-.14-.08-.29-.13-.46-.12h-.15c-.05,0-.1.02-.14.05-.04.02-.07.05-.1.09s-.04.09-.04.14c0,.04,0,.09.03.13.02.04.05.07.08.1.04.03.09.06.13.09l.18.09c.07.03.14.07.2.11.06.03.12.08.17.12.05.04.08.1.11.15.03.06.04.12.04.19,0,.08-.02.17-.06.24s-.09.12-.16.16c-.07.04-.15.07-.23.09-.09.02-.18.03-.27.03h-.12l-.14-.02-.14-.04s-.07-.01-.1-.02l.07-.02Z" fill="#f60"/>
  <path d="M49.41,33.85v-1.93h.55c.71,0,1.06.31,1.06.94,0,.13-.02.27-.07.39s-.13.23-.22.32c-.22.19-.5.28-.78.27h-.54ZM49.64,32.12v1.52h.3c.22,0,.44-.06.61-.2.08-.07.13-.16.17-.26.04-.1.05-.21.05-.31,0-.49-.27-.74-.82-.74h-.31,0Z" fill="#f60"/>
  <path d="M54.88,33.85h-1.06v-1.93h1.01v.2h-.78v.64h.71v.21h-.71v.67h.83v.21Z" fill="#f60"/>
  <path d="M57.59,33.79v-.27s.07.05.11.07.09.04.14.06l.15.03h.13c.11,0,.23-.02.32-.08.04-.03.06-.06.08-.1.02-.04.03-.08.02-.13,0-.05,0-.09-.04-.14-.03-.04-.06-.08-.1-.1-.05-.04-.1-.07-.15-.09l-.18-.09c-.07-.04-.13-.07-.19-.1-.06-.03-.11-.07-.16-.12-.04-.04-.08-.09-.1-.14-.03-.06-.04-.12-.04-.19,0-.08.02-.16.06-.23.04-.06.09-.12.16-.16s.14-.08.22-.1.17-.03.25-.03c.15,0,.29.01.43.07v.25c-.14-.08-.3-.12-.46-.12h-.15s-.1.03-.14.05-.07.05-.1.09-.04.09-.04.14c0,.04,0,.09.03.13.02.04.05.07.08.1.04.03.09.06.13.09l.18.09.2.11c.06.04.12.08.17.12.04.05.08.1.11.15.03.06.04.13.04.19,0,.08-.02.17-.06.24-.04.06-.09.12-.16.16s-.15.07-.23.09c-.09.02-.18.03-.27.03h-.12l-.14-.02-.14-.04s-.07,0-.1-.02h.06Z" fill="#f60"/>
  <path d="M61.62,33.85v-1.93h.55c.71,0,1.06.31,1.06.94,0,.13-.02.27-.07.39s-.13.23-.22.32c-.22.19-.5.28-.78.27h-.54ZM61.85,32.12v1.52h.3c.22,0,.44-.06.61-.2.08-.07.13-.16.17-.26.04-.1.05-.21.05-.31,0-.49-.27-.74-.82-.74h-.31,0Z" fill="#f60"/>
  <path d="M67.09,33.85h-1.06v-1.93h1.01v.2h-.78v.64h.71v.21h-.71v.67h.83s0,.21,0,.21Z" fill="#f60"/>
  <path d="M74.17,33.85h-1.19v-.2l.58-.56c.12-.11.23-.23.32-.36.06-.09.09-.2.09-.31,0-.05,0-.09-.02-.14-.02-.04-.04-.08-.07-.12-.08-.07-.18-.1-.28-.09-.19,0-.37.09-.51.22v-.23c.16-.12.35-.18.54-.17.15,0,.3.04.42.14.05.05.09.1.11.16.03.06.04.13.04.19,0,.13-.04.25-.11.36-.11.16-.23.31-.38.44l-.46.44h.93v.23h-.01Z" fill="#f60"/>
  <path d="M77.54,33.88c-.09,0-.18-.02-.26-.06s-.15-.11-.2-.18c-.12-.22-.18-.46-.17-.71-.02-.27.04-.54.17-.78.05-.08.13-.15.21-.2.09-.05.19-.07.28-.06.42,0,.63.33.63.98.02.26-.05.52-.18.75-.05.08-.13.15-.21.2-.09.05-.18.07-.28.06h.01ZM77.57,32.08c-.29,0-.43.28-.43.84s.14.78.42.78.41-.27.41-.8-.14-.82-.41-.82h.01Z" fill="#f60"/>
  <path d="M82.12,33.85h-1.13v-.2h.46v-1.5l-.46.14v-.21l.71-.2v1.78h.45l-.02.19h-.01Z" fill="#f60"/>
  <path d="M85.45,33.88c-.09,0-.18-.02-.26-.06s-.15-.11-.2-.18c-.12-.22-.18-.46-.17-.71-.02-.27.04-.54.17-.78.05-.08.13-.15.22-.2.09-.05.19-.07.29-.06.42,0,.62.33.62.98.02.26-.04.52-.18.75-.05.08-.13.15-.21.2-.09.05-.18.07-.28.06ZM85.48,32.08c-.28,0-.42.28-.42.84s.14.78.42.78.41-.27.41-.8-.13-.83-.41-.83h0Z" fill="#f60"/>
</svg>