<?xml version="1.0" encoding="UTF-8"?>
<svg id="Layer_1" data-name="Layer 1" xmlns="http://www.w3.org/2000/svg" width="95" height="129" viewBox="0 0 95 129">
  <path d="M66.91,47.68c4.85,0,8.98.76,12.38,2.28,3.18,1.36,6.03,3.4,8.34,5.98,2.15,2.45,3.7,5.36,4.54,8.51.88,3.21,1.16,6.55.85,9.87-.32,3.37-1.19,6.66-2.57,9.74-1.42,3.22-3.43,6.14-5.9,8.64-2.62,2.62-5.71,4.71-9.11,6.16-3.9,1.63-8.1,2.43-12.33,2.35-2.9-.03-5.76-.73-8.36-2.03-2.72-1.31-5.22-3.04-7.41-5.12l-2.2,24.17c-.06.72-.04,1.44.07,2.16.1.75.33,1.48.67,2.16.32.62.72,1.21,1.19,1.73.22.24.49.44.79.56.3.13.63.19.96.18l-.11,1.23h-17.5l.11-1.23c.68-.02,1.32-.28,1.82-.74.6-.51,1.13-1.09,1.58-1.73.46-.66.81-1.39,1.05-2.16.23-.7.39-1.42.46-2.16l5.68-62.4c.07-.74.11-1.46.13-2.16.03-.63-.08-1.26-.31-1.85-.24-.56-.64-1.03-1.15-1.35-.74-.43-1.58-.66-2.43-.68l.11-1.23h13.18l-.46,5.44c1.99-1.98,4.35-3.56,6.95-4.62,2.85-1.15,5.89-1.71,8.96-1.66M63.66,97c2.91-.02,5.77-.7,8.39-1.97,2.37-1.18,4.48-2.81,6.22-4.81,1.69-1.95,3.04-4.19,3.96-6.6.94-2.43,1.54-4.99,1.77-7.58.28-2.93.1-5.88-.53-8.75-.58-2.75-1.66-5.36-3.2-7.71-1.49-2.25-3.46-4.14-5.76-5.55-2.48-1.48-5.33-2.22-8.22-2.16-1.93,0-3.85.34-5.68.99-3.72,1.27-6.86,3.83-8.87,7.21-1.01,1.71-1.63,3.63-1.79,5.61l-1.47,16.16c-.22,2.08.1,4.18.93,6.1.79,1.82,1.95,3.46,3.4,4.81,1.46,1.37,3.17,2.43,5.03,3.14,1.85.73,3.81,1.1,5.8,1.11" fill="#f60"/>
  <path d="M74.42,121.73c.08-.91.34-1.8.77-2.62.43-.81,1.01-1.53,1.71-2.11,1.45-1.29,3.33-1.98,5.27-1.95.92-.03,1.84.12,2.7.46.86.33,1.64.84,2.3,1.49.63.6,1.11,1.35,1.4,2.17s.4,1.7.3,2.56c-.08.91-.35,1.79-.78,2.59-.44.8-1.03,1.5-1.75,2.06-1.5,1.24-3.39,1.91-5.34,1.88-.9.04-1.81-.11-2.65-.43-.85-.32-1.62-.82-2.27-1.44-.61-.6-1.08-1.33-1.37-2.14s-.38-1.67-.28-2.52h-.01Z" fill="#f60"/>
  <path d="M23.02,57.43l3.06-2.59,13.45,17.76,1.2-13.25-7.68-9.96,20.6-16.28c.63-.47,1.3-.88,2-1.23.54-.37,1.13-.67,1.76-.87.61-.17,6.85-.37,7.38-.37l.12-1.23h-17.81l-.11,1.23c.63,0,.92.29.86.87-.03.29-.11.57-.25.82s-.33.48-.55.66l-23.51,18.74L28.21.3,3.83,8.59l-.12,1.23c1.34.08,12.76-3.53,13.77-2.61,1.01.92,1,2.3.9,3.45l-5.71,62.77c-.07.72-.23,1.43-.46,2.11-.25.74-.59,1.45-1,2.11-.35.67-.87,1.24-1.5,1.66-1.23.68-8.74.68-9.37.68l-.11,1.23h25.05l.11-1.23c-.67.02-1.32-.23-1.82-.68-.52-.49-.95-1.08-1.25-1.73-.34-.68-.57-1.41-.68-2.16-.11-.65-.14-1.32-.09-1.98l1.46-16.03v.02Z" fill="#f60"/>
  <path d="M51.95,81.22h7.68l.12-1.22c-1.03-.09-2.01-.5-2.79-1.17-1.04-.77-2.02-1.61-2.94-2.53-1.16-1.18-2.22-2.46-3.16-3.82l-.55-.71-.83,9.14c.8.21,1.63.33,2.47.31Z" fill="#f60"/>
</svg>