<?xml version="1.0" encoding="UTF-8"?>
<svg id="Layer_1" data-name="Layer 1" xmlns="http://www.w3.org/2000/svg" width="174" height="169" viewBox="0 0 174 169">
  <path d="M62.33,152.47c-.25-.09-.46-.27-.58-.5-.12-.23-.15-.5-.08-.76l1.62-9.99c.07-.34-.19-.45-.38-.16l-6.12,8.13c-.13.23-.35.4-.6.48-.26.08-.53.06-.77-.06l-6.56-2.71c-.14-.03-.26-.1-.37-.19s-.19-.21-.24-.33c-.05-.13-.08-.27-.07-.41,0-.14.05-.27.13-.39l8.51-19.94c.04-.14.11-.26.2-.36.1-.11.21-.19.35-.24.13-.05.28-.07.42-.06s.28.06.4.13l3.53,1.46c.13.04.26.11.36.2.1.09.18.21.24.33.05.13.08.26.07.4,0,.14-.05.27-.11.39l-5.24,12.27c-.1.22.18.37.33.17l8.39-11.16c.14-.22.36-.39.62-.46s.53-.04.77.08l2.09.86c.25.08.47.26.6.49.13.23.17.5.1.76l-2.23,13.7s0,.09.02.13c.02.04.06.07.11.08s.09,0,.14,0c.04-.02.08-.05.1-.1l5.25-12.27c.04-.13.11-.26.2-.36s.21-.18.34-.24c.13-.05.27-.07.41-.07s.28.05.4.12l3.53,1.49c.14.04.26.11.37.2s.19.21.24.34c.05.13.08.27.07.4,0,.14-.05.27-.12.39l-8.51,19.93c-.04.13-.1.26-.2.36s-.21.19-.34.24-.27.07-.41.06-.28-.05-.4-.12l-6.56-2.73-.02.02Z" fill="#f60"/>
  <path d="M27.19,126.42c-.11-.09-.19-.2-.24-.33-.05-.13-.08-.27-.07-.4,0-.14.05-.27.12-.39.07-.12.17-.22.29-.3l2.9-2.48c.09-.1.21-.18.34-.24.13-.05.27-.07.41-.06.14,0,.28.05.4.12.12.07.23.17.31.28l5.46,6.17c.08.11.18.21.31.28.12.07.26.11.4.12.14,0,.28,0,.41-.06s.25-.13.34-.24l.83-.71c.11-.08.21-.18.28-.3s.11-.25.12-.39c0-.14,0-.27-.06-.4-.05-.13-.13-.24-.23-.34l-3.49-3.97c-.11-.09-.19-.21-.25-.33-.05-.13-.08-.27-.07-.41s.05-.27.12-.39.17-.22.29-.3l2.9-2.48c.09-.1.21-.18.34-.23s.27-.07.41-.06c.14,0,.28.05.4.12s.23.17.3.28l3.49,3.97c.08.11.18.21.31.28.12.07.26.11.4.12.14,0,.28-.01.41-.06.13-.05.25-.13.34-.24l.83-.71c.11-.08.21-.18.28-.3s.11-.25.12-.39c0-.14,0-.27-.06-.4-.05-.13-.13-.24-.23-.34l-5.46-6.17c-.11-.09-.19-.21-.25-.33-.05-.13-.08-.27-.07-.41s.05-.27.12-.39.17-.22.29-.3l2.9-2.48c.09-.11.21-.19.34-.24.13-.05.27-.08.41-.07.14,0,.28.05.4.12.12.07.22.17.3.29l9.48,10.7c.1.1.18.21.23.34s.07.26.06.4c0,.14-.05.27-.12.39s-.16.22-.28.3l-16.59,14.19c-.09.1-.21.18-.34.23s-.27.07-.41.06c-.14,0-.28-.05-.4-.12-.12-.07-.23-.16-.31-.28l-9.48-10.72h.02Z" fill="#f60"/>
  <path d="M32.81,94.84c-.06-.12-.1-.26-.1-.4s.03-.28.1-.4c.06-.12.16-.23.27-.32.11-.08.25-.14.39-.16l3.65-1.19c.13-.06.27-.09.41-.09s.28.03.4.1c.13.06.23.15.32.26s.14.24.17.37l5.4,15.93c.26.77-.13,1.21-.94,1.06l-18.62-3.62c-.27-.06-.4.09-.32.35l2.08,6.12c.06.12.09.26.08.4,0,.14-.04.27-.1.39s-.15.23-.26.32c-.11.08-.24.14-.37.18l-3.66,1.19c-.13.06-.27.09-.41.09s-.28-.03-.4-.1c-.13-.06-.23-.15-.32-.26s-.14-.24-.17-.37l-5.24-15.45c-.26-.77.13-1.22.95-1.06l18.66,3.78c.27.06.4-.09.32-.35l-2.28-6.76h-.01Z" fill="#f60"/>
  <path d="M33.65,71.93c0-.14.02-.28.08-.4.06-.13.15-.24.26-.32.11-.09.24-.15.38-.18s.28-.03.42,0l3.83.4c.14,0,.28.03.41.09s.24.14.33.25.15.23.18.37c.03.13.03.27,0,.41l-1.81,16.7c-.09.81-.63,1.06-1.31.58l-15.41-10.91c-.23-.16-.41-.07-.43.19l-.71,6.42c0,.14-.03.27-.09.4-.06.12-.15.23-.26.32s-.24.15-.37.18c-.14.03-.28.03-.41,0l-3.83-.4c-.14,0-.28-.03-.41-.09s-.24-.14-.33-.25-.15-.23-.18-.37c-.03-.13-.03-.27,0-.41l1.75-16.19c.09-.81.64-1.06,1.31-.58l15.43,11.05c.23.16.41.07.44-.19l.74-7.08h-.01Z" fill="#f60"/>
  <path d="M26.89,44.5c.05-.13.13-.25.23-.34.1-.1.23-.17.36-.2.14-.04.28-.05.42-.02.14.02.27.08.38.16l3.38,1.82c.13.05.25.13.34.23.1.1.17.22.21.36.04.13.05.27.03.41s-.08.27-.16.38l-3.99,7.17c-.08.11-.14.24-.16.38s-.01.28.03.41.11.26.2.36.21.18.34.23l.96.5c.12.08.25.13.38.15.14.02.28,0,.41-.03.13-.04.26-.11.36-.2s.19-.2.24-.33l2.55-4.6c.05-.13.13-.25.23-.34s.23-.16.36-.2c.14-.04.28-.05.42-.02s.27.08.38.17l3.37,1.81c.13.05.25.13.34.23.1.1.17.22.21.36.04.13.05.27.03.41s-.08.27-.16.38l-2.56,4.6c-.08.11-.14.24-.16.38s-.02.28.02.41.11.26.2.36c.09.1.21.18.34.23l.97.5c.11.08.25.13.38.15.14.02.28,0,.41-.03.13-.04.26-.11.36-.2.1-.09.19-.2.24-.33l3.99-7.17c.05-.13.13-.25.23-.34.1-.1.23-.17.36-.2.14-.04.28-.05.42-.02.14.02.27.08.39.16l3.38,1.82c.13.05.25.13.35.23s.17.22.21.36c.04.13.05.27.02.41-.02.14-.08.27-.17.38l-6.92,12.45c-.05.13-.14.24-.24.33-.1.09-.23.16-.36.2-.13.04-.28.05-.41.03-.14-.02-.27-.07-.38-.15l-19.31-10.33c-.13-.05-.25-.13-.34-.23s-.16-.22-.2-.36c-.04-.13-.05-.27-.02-.41.02-.14.08-.27.16-.38l6.93-12.45.02-.04Z" fill="#f60"/>
  <path d="M52.75,22.31c5.7-2.97,9.11-1.86,11.77,3.02.55,1.02,1.31,3.14.8,5.14,1.55-.08,3.27.93,4.27,2.78,2.02,3.7,1.31,6.36-4.4,9.35l-7.5,3.92c-.12.08-.25.13-.39.15s-.28,0-.41-.03c-.13-.04-.26-.11-.36-.2-.1-.09-.18-.21-.24-.33l-10.33-19.05c-.08-.11-.14-.24-.16-.38s-.02-.28.02-.41.11-.26.2-.36.21-.19.34-.24l6.38-3.34v-.02ZM58.22,31.23c1.46-.76,2.09-1.32,1.08-3.17s-1.83-1.65-3.28-.89l-1.64.86c-.13.05-.25.13-.35.23s-.17.22-.21.35c-.04.13-.05.27-.03.41s.08.27.16.38l1.23,2.27c.05.13.13.24.23.34.1.09.23.16.36.2s.28.05.42.03.27-.07.39-.15l1.63-.86h0ZM62.5,38.56c1.46-.76,2.1-1.29,1.34-2.69-.76-1.4-1.54-1.26-3-.5l-1.97,1.04c-.13.05-.25.13-.34.23-.1.1-.17.22-.21.35-.04.13-.05.27-.03.41s.08.27.16.38l.74,1.37c.05.13.13.24.23.34.1.09.23.16.36.2s.28.05.42.03.27-.07.39-.15l1.91-1.01Z" fill="#f60"/>
  <path d="M89.33,35.78c.09.74-.2,1.18-.88,1.26l-3.82.45c-.14.03-.28.04-.42,0-.14-.03-.27-.09-.38-.17-.11-.09-.2-.19-.26-.32-.06-.12-.09-.26-.09-.4l-.36-2.91c0-.14-.03-.28-.08-.4-.06-.13-.15-.24-.26-.32-.11-.09-.24-.15-.38-.17s-.28-.02-.42,0l-2.94.35c-.14,0-.28.03-.41.09-.13.06-.24.15-.33.26-.09.11-.15.24-.18.37-.03.14-.03.28,0,.41l.36,2.92c.04.13.04.28.01.41-.03.14-.09.26-.18.37-.09.11-.2.2-.33.26-.13.06-.27.09-.41.08l-3.82.45c-.65.07-1.07-.28-1.16-1.02l-1.73-14.22c-.5-4.23-.38-8.8,7.3-9.71,7.68-.9,8.91,3.51,9.43,7.74l1.73,14.22h.01ZM81.73,22.24c-.2-1.61-.53-2.38-2.79-2.12-2.25.26-2.39,1.1-2.19,2.71l.44,3.65c0,.14.04.27.1.4s.15.23.26.32c.11.08.24.14.37.17.14.03.28.03.41,0l2.93-.35c.14,0,.28-.04.41-.1.13-.06.24-.15.32-.27.09-.11.15-.24.17-.38.03-.14.03-.28,0-.41l-.44-3.62h0Z" fill="#f60"/>
  <path d="M108.77,39.6c.07.21.07.44.02.65-.06.21-.17.41-.33.56s-.36.26-.58.31c-.22.05-.45.04-.66-.04l-3.8-.95c-.16-.04-.31-.12-.42-.23-.12-.12-.19-.26-.23-.42l-1.76-7.44s-.05-.1-.08-.14c-.04-.04-.09-.07-.14-.09l-1.33-.33c-.14-.04-.28-.06-.42-.04-.14.02-.28.06-.4.13s-.23.17-.31.28c-.08.11-.14.25-.16.38l-1.34,5.17c-.03.14-.08.27-.17.38-.08.12-.19.21-.31.28-.12.07-.26.12-.4.13-.14,0-.29,0-.42-.04l-3.72-.94c-.14-.03-.27-.08-.39-.16s-.21-.18-.29-.3-.12-.25-.14-.39,0-.28.04-.41l5.41-20.89c.03-.14.08-.27.17-.38.08-.11.19-.21.31-.28.12-.07.26-.12.4-.13.14-.02.28,0,.42.04l7.3,1.82c5.93,1.49,7.68,4.58,6.29,9.94-.79,3.04-2.11,4.96-4.2,5.78-.08.03-.14.09-.18.16-.04.07-.05.16-.03.24l1.86,7.34h0ZM102.07,21.4c-.14-.04-.28-.06-.42-.04-.14.02-.28.06-.4.13s-.23.17-.31.28c-.08.11-.14.24-.17.38l-.62,2.42c-.04.13-.06.27-.04.41s.06.27.13.39c.07.12.17.22.29.3s.25.14.39.16l1.7.43c1.6.4,2.45.4,2.98-1.63.52-2.03-.22-2.43-1.82-2.83l-1.7-.43v.03Z" fill="#f60"/>
  <path d="M127.93,35.19c1.63-1.55,6.35-5.35,12,.41,5.08,5.19,2.32,9.34.5,11.24-.15.17-.36.27-.58.29-.23.02-.45-.04-.63-.18l-3.27-2.12c-.13-.09-.25-.21-.33-.35s-.14-.29-.15-.46c-.02-.16,0-.32.05-.48.05-.15.14-.29.25-.41.97-1.15,1.18-2.2-.1-3.51-1.76-1.8-3.03-.82-4.96.99l-3.56,3.38c-1.91,1.8-2.95,3.03-1.19,4.83,1.32,1.34,2.31,1.1,3.6.16.12-.11.26-.18.42-.23.15-.04.32-.05.47-.03.16.03.31.09.44.18s.24.21.32.35l2.08,3.34c.13.19.18.42.15.65-.04.23-.16.43-.34.57-1.98,1.69-6.3,4.23-11.38-.95-5.65-5.77-1.6-10.26.03-11.81l6.2-5.87h-.02Z" fill="#f60"/>
  <path d="M137.1,74.58c-.13.18-.31.32-.52.41-.21.09-.43.12-.66.08-.22-.03-.43-.12-.6-.27-.17-.14-.3-.33-.37-.54l-1.54-3.54c-.07-.15-.09-.31-.07-.47.02-.16.1-.31.21-.43l4.96-5.89s.06-.1.06-.15c0-.06,0-.11-.02-.16l-.54-1.24c-.05-.13-.12-.25-.22-.35s-.22-.18-.35-.23-.28-.08-.42-.07c-.14,0-.28.04-.41.1l-4.99,2.09c-.13.06-.27.1-.41.1s-.28-.02-.42-.07c-.13-.05-.25-.13-.35-.23s-.17-.22-.22-.35l-1.51-3.47c-.06-.13-.09-.26-.1-.4,0-.14.02-.28.07-.41s.13-.25.23-.34.22-.17.35-.22l20.17-8.43c.13-.06.27-.1.41-.1s.28.02.42.07c.13.05.25.13.35.23s.18.22.22.35l2.95,6.81c2.4,5.53.96,8.77-4.22,10.95-2.95,1.23-5.31,1.38-7.23.23-.07-.04-.16-.05-.24-.04s-.15.06-.21.12l-4.8,5.88.02-.02ZM147.75,58.3c-.05-.13-.12-.25-.22-.35s-.22-.18-.35-.23-.27-.08-.42-.07c-.14,0-.28.04-.41.1l-2.34.99c-.13.05-.26.12-.36.22-.1.1-.18.21-.24.34-.05.13-.08.27-.07.41,0,.14.04.28.1.4l.68,1.59c.65,1.49,1.16,2.16,3.12,1.34,1.96-.82,1.83-1.65,1.18-3.14l-.69-1.6h.02Z" fill="#f60"/>
  <path d="M143.64,91.79c-2.26.12-8.36-.02-8.81-8.02-.44-8,5.61-8.79,7.87-8.92l8.57-.46c2.26-.12,8.37.03,8.81,8.02s-5.6,8.79-7.87,8.92l-8.58.46h.01ZM150.08,85.63c2.64-.14,4.25-.4,4.11-2.89s-1.76-2.58-4.4-2.44l-4.94.26c-2.64.14-4.25.4-4.1,2.89.14,2.5,1.76,2.58,4.4,2.43l4.94-.26h0Z" fill="#f60"/>
  <path d="M131.09,109.19c-.71-.24-1.01-.69-.76-1.33l1.27-3.57c.03-.13.09-.26.18-.37s.2-.19.32-.26c.13-.06.26-.09.4-.09s.28.03.4.1l2.82.99c.13.06.27.1.41.1s.28-.03.41-.09.24-.15.33-.26.15-.24.17-.38l.97-2.74c.06-.12.1-.26.1-.4s-.03-.28-.09-.4-.15-.23-.26-.32-.24-.15-.38-.18l-2.82-.99c-.14-.03-.27-.08-.38-.17-.11-.08-.2-.19-.26-.32s-.09-.26-.09-.4.04-.28.1-.4l1.27-3.57c.22-.6.73-.82,1.44-.57l13.76,4.73c4.08,1.4,8.21,3.53,5.65,10.71-2.55,7.18-7.13,6.32-11.22,4.91l-13.76-4.73h.02ZM146.8,108.44c1.56.53,2.42.58,3.17-1.53.75-2.1.04-2.6-1.51-3.13l-3.53-1.22c-.13-.06-.26-.09-.4-.09s-.28.03-.4.09c-.13.06-.24.15-.32.25-.09.11-.15.23-.18.37l-.98,2.74c-.06.13-.09.27-.08.41,0,.14.04.28.1.4s.15.24.27.32c.11.08.24.15.38.18l3.5,1.2h-.02Z" fill="#f60"/>
  <path d="M139.3,124.29c.09.1.21.18.34.24.13.05.27.07.41.06s.28-.06.4-.13.22-.17.3-.29l3.08-3.63c.08-.12.18-.21.3-.28.12-.07.25-.11.39-.13.14-.01.28,0,.41.05s.25.12.35.22l2.96,2.42c.12.07.22.17.29.29.07.12.12.25.13.39,0,.14,0,.28-.06.41-.05.13-.13.25-.23.34l-11.26,13.3c-.07.12-.18.22-.3.29-.12.07-.26.12-.4.13-.14,0-.28,0-.41-.06-.13-.05-.25-.13-.35-.23l-2.96-2.42c-.12-.08-.22-.18-.29-.29-.07-.12-.12-.25-.13-.39,0-.14,0-.28.06-.41.05-.13.13-.24.23-.34l3.08-3.63c.1-.1.18-.21.23-.34.05-.13.07-.27.06-.4,0-.14-.06-.27-.13-.39s-.17-.22-.29-.29l-12.37-10.12c-.12-.08-.22-.18-.29-.29-.07-.12-.12-.25-.13-.39-.01-.14,0-.28.06-.4.05-.13.13-.24.23-.34l2.47-2.91c.08-.11.18-.21.3-.28s.25-.11.39-.12.28,0,.41.05c.13.05.25.12.35.22l12.36,10.12v-.03Z" fill="#f60"/>
  <path d="M126.65,145c-.1.1-.23.17-.36.2-.14.04-.28.05-.42.02s-.27-.08-.38-.17c-.11-.08-.2-.19-.27-.32l-12.52-17.8c-.09-.1-.16-.23-.2-.36-.04-.13-.04-.27-.02-.41s.08-.26.16-.38c.08-.11.19-.2.31-.27l3.11-2.11c.11-.09.23-.15.37-.19s.28-.04.41-.02c.14.02.27.08.38.16s.21.18.27.3l12.52,17.78c.09.1.16.23.2.36s.04.27.02.41c-.03.13-.08.26-.16.38-.08.11-.19.2-.31.27l-3.11,2.13v.02Z" fill="#f60"/>
  <path d="M95.39,134.1c-.25-.7-.06-1.19.59-1.42l3.63-1.25c.13-.06.27-.09.41-.09s.28.03.41.09c.13.06.24.15.33.26.09.11.15.24.18.37l1.01,2.78c.03.14.09.26.18.37.09.11.2.2.32.26s.27.09.41.09.28-.04.4-.1l2.79-.96c.14-.03.26-.09.38-.17.11-.09.2-.19.26-.32.06-.12.09-.26.09-.4s-.03-.27-.1-.4l-1.01-2.78c-.07-.12-.1-.26-.1-.4s.03-.28.09-.4.15-.24.26-.32c.11-.09.24-.14.38-.17l3.63-1.25c.61-.21,1.11.05,1.36.75l4.8,13.52c1.43,4.02,2.3,8.52-5,11.02-7.3,2.51-9.47-1.55-10.89-5.57l-4.81-13.52h0ZM105.77,145.71c.54,1.53,1.04,2.22,3.19,1.49,2.14-.73,2.09-1.58,1.55-3.11l-1.24-3.47c-.03-.13-.1-.26-.18-.36-.09-.11-.2-.19-.33-.25-.12-.06-.26-.09-.4-.09s-.28.03-.4.09l-2.79.96c-.14.03-.27.1-.38.19s-.2.2-.26.33c-.06.13-.09.26-.09.4s.04.28.1.4l1.22,3.43h0Z" fill="#f60"/>
  <path d="M53.65,84.32c-.35,4.13.09,8.56,2.57,11.9,2.49,3.34,7.49,5.14,11.13,3.01,6.48-3.78,3.97-15.67,10.89-18.63,2.31,4.21.33,9.31-1.05,13.88s-1.54,10.66,2.69,13.06c3.65,2.09,8.53-.15,10.92-3.58s3.03-7.69,4.13-11.71,2.93-8.22,6.64-10.19c2.69,3.81,1.3,8.95.54,13.52-.76,4.58,0,10.48,4.48,11.98,2.56.85,5.48-.23,7.39-2.09,1.92-1.86,3.03-4.4,3.87-6.94,2.87-8.55,3.47-17.67,1.74-26.51-.61-3.14-1.6-6.35-3.81-8.69s-5.96-3.54-8.83-2.04c-2.78,1.45-3.85,4.73-5.37,7.44-1.52,2.71-4.71,5.29-7.53,3.93-2.45-1.19-2.75-4.4-3.36-7.01-2.3-9.82-6.87-.59-10.26.96-4.32,1.98-6.78-1.29-10.36-2.89-11.02-4.88-15.68,11.88-16.43,20.62v-.02Z" fill="#f60"/>
  <path d="M72.34,167.82c-.06,0-.12-.04-.16-.09s-.06-.11-.06-.17l-.14-2.44c0-.08-.07-.1-.1,0l-1.01,2.23c-.02.06-.06.11-.12.14-.06.03-.12.04-.18.03l-1.69-.31s-.07,0-.1-.03c-.03-.02-.06-.04-.07-.07-.02-.03-.03-.06-.04-.09v-.1l.96-5.14s.01-.07.03-.09c.02-.03.04-.05.07-.07s.06-.03.09-.04h.1l.92.16s.07,0,.1.03.05.04.07.07c.02.03.03.06.04.09v.1l-.59,3.16v.04s.02.02.03.02h.04s.02-.02.02-.03l1.39-3.06c.02-.06.07-.11.12-.14.06-.03.12-.04.19-.02l.54.1c.06,0,.12.04.17.08.04.05.07.11.07.17l.19,3.35s0,.02.01.03c0,0,.02,0,.03,0s.02,0,.03,0c0,0,.01-.02.01-.03l.59-3.16s.01-.07.03-.1.04-.05.07-.07.06-.03.09-.04h.1l.91.17s.07,0,.1.03.05.04.07.07c.02.03.03.06.04.09v.1l-.95,5.13s-.01.07-.03.1-.04.05-.07.07-.06.03-.09.03h-.1l-1.7-.3h-.02Z" fill="#f60"/>
  <path d="M62.86,165.67s-.07-.02-.1-.04c-.03-.02-.05-.04-.07-.07-.02-.03-.03-.06-.03-.1,0-.03,0-.07.02-.1l.24-.88s.02-.06.04-.09.04-.05.07-.07.06-.03.1-.03c.03,0,.07,0,.1,0l1.94.49s.07.02.1,0c.03,0,.07,0,.1-.03s.05-.04.07-.07c.02-.03.03-.06.04-.09l.07-.25s.02-.07.02-.1-.01-.07-.03-.1-.04-.05-.07-.07-.06-.03-.09-.04l-1.24-.33s-.07-.02-.1-.03c-.03-.02-.05-.04-.07-.07-.02-.03-.03-.06-.03-.1,0-.03,0-.07.02-.1l.24-.88s.02-.06.04-.09c.02-.03.04-.05.07-.07s.06-.03.09-.03.07,0,.1,0l1.25.33s.07.02.1,0c.03,0,.07,0,.1-.03s.05-.04.07-.07c.02-.03.03-.06.04-.09l.07-.25s.02-.06.01-.1c0-.03-.01-.06-.03-.09s-.04-.05-.07-.07-.06-.03-.09-.04l-1.94-.5s-.07-.02-.1-.04c-.03-.02-.05-.04-.07-.07-.02-.03-.03-.06-.03-.1s0-.07.02-.1l.24-.88s.02-.06.03-.09c.02-.03.04-.05.07-.07s.06-.02.1-.03c.03,0,.07,0,.1.02l3.37.89s.06.02.09.04c.03.02.05.04.07.07.02.03.03.06.03.09s0,.07-.01.1l-1.39,5.04s-.02.06-.04.09c-.02.03-.04.05-.07.07s-.06.03-.1.03c-.03,0-.07,0-.1,0l-3.37-.89v.05Z" fill="#f60"/>
  <path d="M58.44,159.69s-.06-.02-.09-.04c-.03-.02-.05-.05-.06-.08,0-.03-.02-.06-.02-.1,0-.03,0-.07.02-.1l.3-.86s.02-.06.04-.09.05-.05.08-.06c.03,0,.06-.02.1-.02.03,0,.07,0,.1.02l3.89,1.33c.19.06.22.2.07.33l-3.45,2.97s-.04.09,0,.11l1.51.5s.06.02.09.04c.03.02.05.05.06.08s.02.06.02.1c0,.03,0,.07-.02.1l-.31.86s-.02.06-.04.09-.05.05-.08.06c-.03,0-.06.02-.1.02-.03,0-.07,0-.1-.02l-3.79-1.3c-.19-.06-.22-.2-.07-.33l3.49-2.97s.04-.09,0-.11l-1.65-.53h.01Z" fill="#f60"/>
  <path d="M52.96,157.44s-.06-.02-.09-.05c-.03-.02-.05-.05-.06-.08,0-.03-.02-.07-.02-.1s0-.07.03-.1l.37-.84s.03-.06.05-.08c.02-.03.05-.04.08-.06.03,0,.07-.02.1-.02s.07,0,.1.03l3.79,1.61c.18.08.2.22.04.34l-3.66,2.71s-.05.08,0,.11l1.46.62s.06.03.09.05c.02.02.04.05.06.08,0,.03.02.06,0,.1,0,.03,0,.07-.03.09l-.37.84s-.03.06-.05.09c-.02.02-.05.04-.08.06-.03,0-.07.02-.1,0-.03,0-.07,0-.1-.03l-3.67-1.56c-.18-.07-.2-.22-.04-.34l3.7-2.69c.06-.04.05-.09,0-.11l-1.6-.68h0Z" fill="#f60"/>
  <path d="M45.82,158.73s-.06-.03-.09-.05c-.02-.02-.04-.05-.05-.09,0-.03,0-.07,0-.1,0-.03.02-.07.04-.09l.43-.81s.03-.06.05-.08.05-.04.09-.05c.03,0,.07,0,.1,0,.03,0,.06.02.09.04l1.79.91s.06.03.09.04h.1s.06-.03.09-.05c.02-.02.04-.05.05-.08l.13-.23s.03-.06.03-.09v-.1s-.03-.06-.05-.08-.05-.04-.08-.06l-1.14-.59s-.06-.03-.09-.05c-.02-.02-.04-.05-.05-.09,0-.03,0-.07,0-.1,0-.03.02-.07.04-.09l.43-.81s.03-.06.06-.08c.02-.02.05-.04.09-.05.03,0,.07,0,.1,0,.03,0,.07.02.09.04l1.14.58s.06.03.09.04h.1s.06-.03.09-.05c.02-.02.04-.05.06-.08l.12-.23s.03-.06.03-.09v-.1s-.03-.06-.05-.08-.05-.04-.08-.06l-1.78-.91s-.06-.03-.09-.05c-.02-.03-.04-.05-.05-.09,0-.03,0-.07,0-.1,0-.03.02-.07.04-.09l.43-.81s.03-.06.05-.08.05-.04.09-.05c.03,0,.07,0,.1,0,.03,0,.07.02.09.04l3.09,1.58s.06.03.08.05.04.05.05.08,0,.07,0,.1c0,.03-.02.06-.04.09l-2.45,4.63s-.03.06-.06.08-.05.04-.09.05c-.03,0-.07,0-.1,0-.03,0-.07-.02-.09-.04l-3.09-1.58-.02-.04Z" fill="#f60"/>
  <path d="M39.03,154.65c-1.29-.86-1.43-1.7-.67-2.81.24-.36.59-.62,1.01-.75-.1-.19-.14-.41-.12-.62.02-.21.1-.42.24-.59.58-.84,1.23-.99,2.52-.13l1.7,1.12s.05.04.07.06c.02.03.03.06.04.09v.1s-.02.06-.04.09l-2.97,4.32s-.04.06-.06.08-.06.03-.09.04h-.1s-.06-.02-.09-.05l-1.43-.96h-.01ZM40.35,152.5c-.33-.22-.5-.29-.81.13s-.15.57.18.79l.37.25s.06.04.09.04h.1s.06-.02.09-.04c.03-.02.05-.05.06-.08l.35-.5s.04-.06.04-.09v-.1s-.02-.06-.04-.09-.04-.05-.07-.07l-.37-.26v.02ZM41.45,150.77c-.33-.22-.5-.29-.74.03-.23.32-.1.47.23.68l.44.3s.06.04.09.04h.1s.06-.02.09-.04c.03-.02.05-.05.06-.08l.21-.31s.04-.06.05-.09c0-.03,0-.07,0-.1,0-.03-.02-.06-.04-.09s-.05-.05-.08-.07l-.43-.29.02.02Z" fill="#f60"/>
  <path d="M35.83,145.55s.04-.06.07-.08.06-.04.1-.04h.11s.07.03.09.05l.73.57s.06.04.07.07c.02.03.03.06.03.09s0,.07,0,.1-.03.06-.06.08l-.44.56s-.04.05-.06.08c0,.03-.02.07,0,.1,0,.03.02.07.03.09.02.03.04.05.07.07l.56.44s.05.04.09.05c.03,0,.07,0,.1,0,.03,0,.07-.02.09-.03.03-.02.05-.04.07-.07l.44-.56s.04-.05.07-.07.06-.03.1-.03h.1s.06.03.09.05l.73.57s.05.05.06.08.02.07.02.1,0,.07-.02.1-.04.06-.06.08l-2.15,2.73c-.65.81-1.46,1.57-2.93.44s-.91-2.09-.27-2.9l2.17-2.73h.02ZM34.78,149.13c-.25.31-.32.5.11.83.43.34.6.21.85-.09l.55-.7s.04-.05.05-.08.02-.06,0-.1-.02-.06-.03-.09c-.02-.03-.04-.05-.07-.07l-.56-.43s-.06-.04-.09-.05c-.03,0-.07,0-.1,0-.03,0-.07.02-.1.03-.03.02-.05.04-.07.07l-.55.69h0Z" fill="#f60"/>
  <path d="M31.16,141.68c0-.05.03-.1.07-.14.04-.04.08-.07.14-.08s.11,0,.16,0,.1.04.14.08l.7.62s.05.06.06.09c0,.04,0,.08,0,.11l-.5,1.79v.04s.01.03.02.03l.24.22s.05.04.08.06c.03,0,.06.02.1.02s.07,0,.1-.02c.03,0,.06-.03.08-.06l.88-.96s.05-.04.08-.06c.03,0,.06-.02.1-.02s.07,0,.1.02c.03,0,.06.03.08.06l.69.62s.04.05.06.08c0,.03.02.06.02.1s0,.07-.02.1c0,.03-.03.06-.06.08l-3.53,3.81s-.05.04-.08.06-.06.02-.1.02-.07,0-.1-.02-.06-.03-.08-.06l-1.35-1.21c-1.09-.99-1.11-1.83-.2-2.82.17-.24.41-.44.68-.58.27-.13.57-.2.88-.19.02,0,.04,0,.06,0,.02,0,.03-.03.03-.05l.45-1.74h.02ZM30.49,146.31s.05.04.08.06.06.02.1.02.07,0,.1-.02.06-.03.08-.06l.41-.45s.05-.05.06-.08.02-.06.02-.1,0-.07-.02-.1c-.01-.03-.03-.06-.06-.08l-.31-.28c-.3-.27-.47-.36-.82,0s-.23.54.07.8l.29.28h0Z" fill="#f60"/>
  <path d="M25.1,140.49c-.41.35-1.59,1.22-2.89-.23-1.17-1.3-.45-2.27,0-2.72.04-.04.09-.06.15-.06s.11.02.15.06l.76.54s.06.05.08.09c.02.03.03.07.03.11s0,.08-.02.11c-.01.04-.04.07-.06.1-.06.05-.11.12-.15.19-.03.07-.05.15-.05.24s.02.16.05.24c.04.07.09.14.15.19.41.45.73.23,1.21-.18l.9-.78c.5-.41.75-.7.34-1.15-.3-.34-.54-.29-.87-.08-.03.02-.06.04-.1.05h-.11s-.07-.02-.1-.05c-.03-.02-.06-.05-.07-.09l-.46-.83s-.04-.1-.03-.16.04-.1.09-.14c.5-.39,1.56-.95,2.73.35,1.3,1.45.27,2.48-.14,2.85l-1.57,1.33-.02.02Z" fill="#f60"/>
  <path d="M21.38,130.54s.06-.08.1-.11.09-.05.14-.05.1,0,.15.02.09.05.12.09l.57.74s.04.07.04.11,0,.08-.02.11l-.81,1.67v.08l.2.26s.05.05.07.07c.03.02.06.03.1.03h.1s.06-.02.09-.05l1.04-.78s.06-.04.09-.05c.03,0,.07,0,.1,0,.03,0,.07.02.1.04.03.02.05.04.07.07l.56.73s.04.05.05.09c0,.03.01.07,0,.1,0,.03-.02.07-.03.09-.02.03-.04.05-.07.07l-4.22,3.15s-.06.04-.09.04-.07,0-.1,0c-.03,0-.07-.02-.09-.03-.03-.02-.05-.04-.07-.07l-1.1-1.42c-.89-1.15-.75-1.98.33-2.8.22-.21.48-.37.77-.45.29-.09.6-.1.9-.04h.06s.03-.02.04-.04l.8-1.64v-.03ZM19.86,134.98s.04.05.07.07c.03.02.06.03.09.03h.1s.06-.02.09-.05l.5-.37s.05-.04.07-.07c.02-.03.03-.06.03-.09v-.1s-.03-.06-.05-.09l-.25-.33c-.24-.31-.4-.44-.81-.13s-.33.5-.09.8l.24.33h0Z" fill="#f60"/>
  <path d="M17.08,126.72c.46-.29,1.75-.99,2.82.63,1.07,1.63-.1,2.5-.55,2.8l-1.74,1.11c-.46.29-1.75.99-2.82-.64s.1-2.5.55-2.8l1.74-1.11h0ZM16.49,128.77c-.53.34-.84.59-.5,1.09.33.51.69.33,1.22,0l1.01-.64c.53-.34.84-.59.5-1.1-.33-.51-.69-.33-1.22,0l-1.01.64h0Z" fill="#f60"/>
  <path d="M15.59,121c.16-.09.29-.06.37.08l.45.8s.03.06.04.09v.1s-.03.06-.05.09c-.02.03-.05.04-.08.06l-.63.34s-.06.03-.08.06c-.02.02-.04.05-.05.09,0,.03-.01.07,0,.1,0,.03.02.06.04.09l.35.61s.03.06.06.08c.03.02.05.04.09.05.03.01.07.01.1,0,.03,0,.07-.02.09-.04l.63-.35s.06-.03.09-.04h.1s.06.03.09.05.04.05.06.08l.45.8c.08.13.03.26-.13.35l-3.08,1.67c-.91.5-1.97.88-2.87-.72-.9-1.61,0-2.28.9-2.78l3.08-1.67h-.02ZM13.2,123.9c-.35.19-.5.34-.23.81s.47.43.82.23l.79-.43s.06-.03.08-.06c.02-.02.04-.05.05-.09,0-.03.01-.06,0-.1,0-.03-.02-.06-.04-.09l-.34-.61s-.03-.06-.06-.08c-.03-.02-.06-.04-.09-.05-.03,0-.07-.01-.1,0-.03,0-.07.02-.09.04l-.78.43h0Z" fill="#f60"/>
  <path d="M10.82,120.01s-.06.03-.09.05c-.02.02-.04.05-.06.08-.01.03-.02.07-.01.1,0,.03.02.07.03.09l.5,1.04s.03.06.03.09,0,.07-.01.1-.03.06-.05.08c-.02.02-.05.04-.09.05l-.84.39s-.06.03-.09.03-.07,0-.1-.01c-.03-.01-.06-.03-.08-.06-.02-.02-.04-.05-.05-.09l-1.79-3.78s-.03-.06-.03-.09,0-.07.01-.1.03-.06.06-.08c.02-.02.05-.04.09-.05l.84-.39s.06-.03.09-.03.07,0,.1.01c.03.01.06.03.08.05.02.02.04.05.05.08l.5,1.04s.03.06.05.08c.02.02.05.04.08.05s.07.02.1.01c.03,0,.07-.01.1-.03l3.53-1.61s.06-.03.09-.03.07,0,.1.01c.03.01.06.03.08.06.02.02.04.05.05.09l.39.83s.03.06.03.09,0,.07-.01.1-.03.06-.05.08c-.02.02-.05.04-.08.05l-3.56,1.61h.01Z" fill="#f60"/>
  <path d="M6.92,115.26s-.03-.06-.03-.09,0-.07.02-.1c.01-.03.03-.06.06-.08.03-.02.06-.04.09-.05l4.93-1.93s.06-.03.1-.03c.03,0,.07,0,.1.02.03.01.06.03.08.06.02.03.04.06.05.09l.34.83s.03.06.03.1c0,.03,0,.07-.02.1-.01.03-.03.06-.06.08-.03.02-.06.04-.09.05l-4.93,1.93s-.06.02-.1.03c-.03,0-.07,0-.1-.02-.03-.01-.06-.03-.08-.06s-.04-.06-.05-.09l-.33-.83h0Z" fill="#f60"/>
  <path d="M10.03,107.62c.17-.06.29,0,.34.14l.3.87s.02.06.02.1c0,.03,0,.07-.02.1s-.04.06-.07.08c-.03.02-.06.03-.09.04l-.68.22s-.07.02-.09.04c-.03.02-.05.05-.07.08-.02.03-.02.06-.02.1,0,.03,0,.07.02.1l.23.67s.02.06.04.09c.02.03.05.05.08.06.03.01.06.02.1.02s.07,0,.1-.02l.68-.22s.06-.02.1-.02.07,0,.1.02c.03.01.06.04.08.06.02.03.03.06.04.09l.29.87c.05.15,0,.26-.19.32l-3.33,1.09c-1.01.33-2.1.5-2.69-1.22s.41-2.24,1.41-2.57l3.34-1.09-.02-.02ZM7.14,110.04c-.38.12-.55.24-.37.75.18.51.38.5.76.38l.86-.28s.06-.02.09-.04c.03-.02.05-.05.06-.08.02-.03.02-.06.03-.1,0-.03,0-.07-.02-.1l-.23-.66s-.02-.06-.04-.09-.05-.05-.08-.06c-.03-.01-.06-.02-.1-.02s-.07,0-.1.02l-.85.28h0Z" fill="#f60"/>
  <path d="M5.79,103.09s-.07.01-.1,0c-.03,0-.07-.02-.1-.04-.03-.02-.05-.04-.07-.07s-.03-.06-.03-.1l-.76-3.66s-.01-.07,0-.1c0-.03.02-.06.04-.09s.04-.05.07-.07.06-.03.1-.03l.91-.18s.07-.01.1,0c.03,0,.07.02.09.03.03.02.05.04.07.07s.03.06.03.09l.77,3.66s.01.07,0,.1-.02.07-.04.09c-.02.03-.04.05-.07.07s-.06.03-.1.03l-.91.18v.02Z" fill="#f60"/>
  <path d="M5.53,89.33v-.1s.02-.06.05-.09c.02-.03.05-.05.08-.06.03-.01.07-.02.1-.02l.93-.08h.1s.06.02.09.05c.03.02.05.05.06.08.01.03.02.06.02.1l.34,4.03c0,.2-.1.28-.28.2l-4.16-1.89c-.06-.03-.1,0-.1.06l.13,1.55v.1s-.02.06-.05.09c-.02.03-.05.05-.08.06-.03.01-.06.02-.1.02l-.93.08h-.1s-.06-.02-.09-.05c-.03-.02-.05-.05-.06-.08s-.02-.06-.02-.1l-.33-3.92c0-.19.1-.28.28-.19l4.16,1.93c.06.03.1,0,.1-.06l-.15-1.72h.01Z" fill="#f60"/>
  <path d="M1.04,86.3v-.1s.03-.06.05-.08c.02-.02.05-.04.09-.05.03-.01.07-.01.1-.01l3.88-.06s.07,0,.1-.01c.03-.01.06-.03.08-.05.02-.02.04-.05.05-.08s.01-.06,0-.1l-.03-1.81v-.1s.03-.06.05-.09c.02-.02.05-.04.09-.05.03-.01.07-.02.1-.01h1.03s.06.03.09.05c.02.02.04.05.05.08s.01.07.01.1l.06,3.22s0,.07-.01.1-.03.06-.05.08c-.02.02-.05.04-.08.05-.03.01-.06.02-.1.01l-5.31.08s-.07,0-.1-.01-.06-.03-.09-.05c-.02-.02-.04-.05-.06-.08,0-.03-.02-.06,0-.1l-.02-.93h.03Z" fill="#f60"/>
  <path d="M6.75,78.24c.18,0,.28.1.27.26l-.05.91s0,.07-.02.1c-.01.03-.03.06-.06.08s-.06.04-.09.05c-.03,0-.07.01-.1,0l-.72-.03h-.1s-.06.03-.09.05c-.03.02-.05.05-.06.08-.01.03-.02.07-.01.1l-.04.7v.1s.03.06.05.09c.02.02.05.04.08.06.03.01.07.02.1.02l.72.03s.07,0,.1.02c.03.01.06.03.08.06.02.02.04.05.05.09,0,.03.01.07,0,.1l-.05.91s0,.07-.03.1c-.02.03-.04.06-.07.08-.03.02-.06.04-.1.05h-.11l-3.53-.18c-1.04-.05-2.14-.27-2.05-2.11.1-1.83,1.22-1.94,2.26-1.88l3.53.18.04-.02ZM3.16,79.47c-.4,0-.6.02-.63.56s.17.6.56.63l.9.04h.1s.06-.03.09-.05c.03-.02.04-.05.06-.08.01-.03.02-.06.02-.1l.04-.7v-.1s-.03-.06-.05-.09c-.02-.02-.05-.04-.08-.06-.03-.01-.07-.02-.1-.01l-.89-.04h-.02Z" fill="#f60"/>
  <path d="M3.25,74.94h-.1s-.06.02-.09.04c-.03.02-.05.05-.06.08s-.02.06-.02.1l-.14,1.14s0,.07-.02.1-.04.06-.06.08c-.03.02-.06.03-.09.04h-.1l-.92-.11s-.07,0-.1-.02c-.03-.01-.06-.03-.08-.06s-.04-.06-.04-.09v-.1l.5-4.15s0-.07.02-.1c0-.03.04-.06.06-.08.03-.02.06-.03.09-.04h.1l.92.11s.07,0,.1.02c.03.01.06.04.08.06.02.03.04.06.04.09v.1l-.14,1.13v.1s.02.06.04.09.05.05.08.06c.03.01.06.02.1.02l3.85.47s.07,0,.1.02c.03.01.06.04.08.06.02.03.04.06.04.09v.1l-.11.91s0,.07-.02.1-.04.06-.06.08c-.03.02-.06.03-.09.04h-.1l-3.84-.47h-.02Z" fill="#f60"/>
  <path d="M2.55,68.51c0-.06.04-.12.08-.16s.1-.07.17-.08l2.93-.56c.08,0,.08-.08,0-.1l-2.63-.5s-.07-.01-.1-.03-.05-.04-.07-.07-.03-.06-.03-.09,0-.07,0-.1l.18-.9s0-.07.03-.1.04-.05.07-.07.06-.03.09-.04h.1l5.2,1.02s.07.01.1.03c.03.02.05.04.07.07.02.03.03.06.04.09v.1l-.24,1.17c0,.06-.03.12-.08.16-.04.04-.1.07-.16.08l-2.93.56c-.08,0-.08.09,0,.1l2.63.5s.07.01.1.03c.03.02.05.04.07.07.02.03.03.06.04.09v.1l-.18.89s-.01.07-.03.09c-.02.03-.04.05-.07.07s-.06.03-.09.04h-.1l-5.2-1.02s-.07-.01-.1-.03-.05-.04-.07-.07-.03-.06-.04-.09v-.1l.24-1.17-.03.02Z" fill="#f60"/>
  <path d="M3.94,62.53s.02-.06.04-.09.04-.05.07-.07.06-.03.1-.03c.03,0,.07,0,.1.02l5.14,1.32s.07.02.09.03.05.04.07.07c.02.03.03.06.03.09s0,.07-.02.1l-.23.87s-.02.06-.04.09c-.02.03-.04.05-.07.07s-.06.03-.1.03c-.03,0-.07,0-.1-.02l-5.13-1.32s-.07-.02-.09-.03c-.03-.02-.05-.04-.07-.07s-.03-.06-.03-.09,0-.07,0-.1c0,0,.23-.87.23-.87Z" fill="#f60"/>
  <path d="M12.25,54.61c.05,0,.11,0,.16,0,.05.02.1.05.13.09s.05.09.06.15c0,.05,0,.11-.03.16l-.33.87s-.04.07-.07.09-.07.04-.11.04l-1.86.22s-.03,0-.04.02c-.01,0-.02.02-.03.03l-.11.3s-.02.06-.02.1c0,.03,0,.07.02.1.01.03.03.06.06.08.03.02.06.04.09.05l1.23.45s.06.03.09.05.05.05.06.08c.01.03.02.06.02.1,0,.03,0,.07-.02.1l-.32.86s-.03.06-.05.09c-.02.02-.05.04-.08.06-.03,0-.06.02-.1.02-.03,0-.07,0-.1-.02l-4.96-1.82s-.06-.03-.09-.05-.05-.05-.06-.08c-.01-.03-.02-.06-.02-.1,0-.03,0-.07.02-.1l.64-1.68c.5-1.36,1.32-1.7,2.59-1.23.3.07.57.21.79.41.23.2.4.45.51.73,0,.02.02.04.04.05.02,0,.04.02.06,0l1.84-.25h-.01ZM7.63,55.72s-.02.06-.02.1c0,.03,0,.07.02.1.01.03.03.06.06.08.03.02.06.04.09.05l.57.21s.07.02.1.02.07,0,.1-.02c.03,0,.06-.03.08-.06.02-.03.04-.05.05-.09l.15-.39c.14-.37.16-.57-.32-.74-.48-.17-.6,0-.74.36l-.15.39h0Z" fill="#f60"/>
  <path d="M14.66,49.72c.17.07.22.19.15.34l-.39.83s-.03.06-.05.09c-.02.02-.05.04-.08.06-.03,0-.07.02-.1,0-.03,0-.07,0-.1-.03l-.66-.3s-.06-.03-.1-.03c-.03,0-.07,0-.1,0-.03,0-.06.03-.09.05-.02.02-.04.05-.05.09l-.29.64s-.03.06-.03.09,0,.07.01.1.03.06.05.08.05.04.09.05l.66.29s.06.03.09.05c.02.02.04.05.06.08.01.03.02.06.01.1,0,.03-.02.06-.03.09l-.38.83s-.03.06-.06.09c-.03.02-.06.04-.09.05s-.07,0-.11,0c-.04,0-.07-.02-.1-.04l-3.2-1.44c-.95-.43-1.9-1.03-1.12-2.7.78-1.67,1.86-1.36,2.81-.94l3.2,1.44v.02ZM10.86,49.56c-.36-.16-.57-.19-.8.3-.23.49-.07.62.29.78l.82.37s.06.03.1.03c.03,0,.07,0,.1,0,.03,0,.06-.03.08-.05.02-.02.04-.05.05-.08l.3-.63s.03-.06.03-.1c0-.03,0-.07-.02-.1-.01-.03-.03-.06-.06-.08-.03-.02-.06-.04-.09-.05l-.81-.37h.01Z" fill="#f60"/>
  <path d="M12.62,45.37s-.06-.03-.09-.04h-.1s-.06.03-.09.05c-.02.02-.04.05-.06.08l-.55.99s-.03.06-.06.08-.05.04-.09.05c-.03,0-.07,0-.1,0-.03,0-.07-.02-.09-.04l-.82-.44s-.06-.03-.08-.06c-.02-.02-.04-.05-.05-.09,0-.03-.01-.07,0-.1,0-.03.02-.06.04-.09l2.02-3.67s.03-.06.06-.08c.02-.02.05-.04.09-.05.03,0,.07,0,.1,0,.03,0,.07.02.09.04l.82.44s.06.03.08.06c.02.02.04.05.05.09,0,.03.01.07,0,.1,0,.03-.02.06-.04.09l-.56.99s-.03.06-.04.09v.1s.03.06.05.09c.02.02.05.04.08.06l3.41,1.83s.06.03.08.06c.02.02.04.05.05.09,0,.03.01.07,0,.1,0,.03-.02.06-.04.09l-.45.8s-.03.06-.06.08c-.02.02-.05.04-.09.05-.03,0-.07,0-.1,0-.03,0-.06-.02-.09-.04l-3.4-1.81h.03Z" fill="#f60"/>
  <path d="M16.74,35.69c.9-1.25,1.76-1.37,2.87-.6.36.24.62.61.74,1.02.2-.09.42-.13.64-.1.22.03.42.11.59.25.84.58,1.01,1.23.08,2.48l-1.18,1.65s-.04.05-.07.07c-.03.02-.06.03-.09.04h-.1s-.06-.03-.09-.05l-4.3-3s-.06-.04-.08-.07c-.02-.03-.03-.06-.04-.09v-.1s.03-.06.05-.09l.98-1.4h0ZM18.9,37.03c.23-.32.3-.5-.12-.8s-.58-.16-.81.16l-.26.36s-.04.05-.05.09c0,.03-.01.07,0,.1,0,.03.02.06.04.09s.05.05.08.06l.5.36s.06.04.09.05c.03,0,.07,0,.1,0,.03,0,.06-.02.09-.04s.05-.04.07-.07c0,0,.27-.36.27-.36ZM20.63,38.15c.23-.32.31-.5,0-.72-.31-.23-.47-.1-.7.21l-.31.44s-.04.05-.05.09c0,.03-.01.06,0,.1,0,.03.02.06.04.09s.05.05.07.06l.31.22s.05.04.09.05c.03,0,.07,0,.1,0,.03,0,.06-.02.09-.04s.05-.05.06-.08c0,0,.3-.42.3-.42Z" fill="#f60"/>
  <path d="M21.6,29.52s.04-.05.07-.07.06-.03.1-.03c.03,0,.07,0,.1.01s.06.03.08.06l.72.58s.05.04.07.07c.02.03.03.06.03.09s0,.07-.01.1-.03.06-.06.08l-1.27,1.53s-.04.05-.05.08c-.01.03-.02.06-.01.1,0,.03.01.06.03.09s.04.05.07.07l.21.16s.05.04.09.05.07,0,.1,0,.07,0,.1-.03.05-.04.07-.07l.81-.99s.04-.05.07-.07c.03-.02.06-.03.09-.03s.07,0,.1.01.06.03.08.05l.72.58s.05.04.07.07.03.06.03.09,0,.07-.01.1-.03.06-.05.08l-.81.99s-.04.05-.06.08c-.01.03-.02.06-.01.1,0,.03.01.07.03.09.02.03.04.05.07.07l.21.17s.05.04.08.05.07,0,.1,0,.07,0,.09-.03c.03-.02.05-.04.07-.07l1.27-1.53s.04-.05.07-.07c.03-.02.06-.03.1-.03.03,0,.07,0,.1,0s.06.03.08.06l.72.58s.05.04.07.07.03.06.03.09,0,.07-.01.1-.03.06-.06.08l-2.2,2.65s-.04.05-.07.07c-.03.02-.06.03-.1.03-.03,0-.07,0-.1,0s-.06-.03-.09-.05l-4.11-3.31s-.05-.04-.07-.07-.03-.06-.03-.09,0-.07.01-.1.03-.06.06-.08l2.2-2.65v.02Z" fill="#f60"/>
  <path d="M29.86,28.69s.06.05.07.08c.02.03.03.07.03.1,0,.04,0,.07-.02.11-.01.03-.03.06-.06.09l-.64.66s-.05.05-.08.06-.06.02-.1.02-.07,0-.1-.02c-.03-.01-.06-.04-.08-.06l-.5-.5s-.05-.05-.08-.06-.06-.02-.1-.02-.07,0-.1.02-.06.04-.08.06l-.5.5s-.05.05-.06.08-.02.06-.02.1,0,.07.02.1c.01.03.04.06.06.08l.5.5s.05.05.06.08.02.06.02.1,0,.07-.02.1c-.01.03-.04.06-.06.08l-.62.7s-.05.05-.08.07-.07.02-.1.02-.07,0-.1-.02-.06-.04-.08-.07l-2.56-2.37c-.76-.7-1.46-1.57-.18-2.91,1.28-1.34,2.2-.7,2.97,0l2.58,2.35v-.03ZM26.33,27.35c-.29-.27-.47-.36-.85.03-.37.39-.27.57,0,.84l.66.61s.05.05.08.06.06.02.1.02.07,0,.1-.02c.03-.01.06-.04.08-.06l.5-.5s.05-.05.06-.08c.02-.03.02-.06.02-.1s0-.07-.02-.1-.04-.06-.06-.08l-.67-.63h0Z" fill="#f60"/>
  <path d="M28.55,24.91c-.37-.4-1.28-1.54.16-2.85,1.3-1.18,2.3-.5,2.76-.06.04.04.07.09.07.14s-.01.11-.04.15l-.54.76s-.05.06-.09.08c-.03.02-.07.03-.11.04-.04,0-.08,0-.12-.01s-.07-.03-.1-.06c-.05-.06-.12-.11-.19-.15-.07-.03-.16-.05-.24-.05s-.16.02-.24.05c-.07.03-.14.09-.19.15-.45.41-.22.72.22,1.18l.81.86c.43.46.73.71,1.18.31.33-.3.28-.55.06-.85-.02-.03-.04-.06-.05-.1,0-.04-.01-.08,0-.11,0-.04.02-.07.05-.1.02-.03.05-.06.09-.07l.83-.47s.1-.04.16-.03c.06,0,.1.04.14.08.4.5,1.01,1.52-.29,2.7-1.44,1.31-2.52.33-2.89-.07l-1.4-1.49-.04-.03Z" fill="#f60"/>
  <path d="M32.72,18.84s.05-.04.09-.05c.03-.01.07-.01.1-.01s.07.01.1.03.05.04.07.07l1.29,1.6s.04.05.07.07.06.03.1.03c.03,0,.07,0,.1-.01s.06-.03.09-.05l.62-.5s.05-.04.07-.07c.02-.03.03-.06.03-.09s0-.07,0-.1-.03-.06-.05-.08l-1.3-1.6s-.04-.05-.05-.08,0-.06,0-.1c0-.03,0-.06.03-.09s.04-.05.07-.07l.73-.57s.05-.04.08-.06c.03-.01.07-.02.1-.01.03,0,.07.02.09.03.03.02.05.04.07.07l3.32,4.07s.04.05.05.08.02.06,0,.1c0,.03-.02.06-.03.09-.02.03-.04.05-.07.07l-.73.57s-.05.04-.09.05c-.03.01-.07.01-.1.01s-.07-.01-.09-.03c-.03-.02-.05-.04-.07-.07l-.82-.99s-.04-.05-.07-.07-.06-.03-.09-.03-.07,0-.1.01-.06.03-.08.06l-.63.5s-.05.04-.07.07c-.02.03-.03.06-.03.09s0,.07,0,.1.03.06.05.08l.82.99s.04.05.06.08c0,.03.02.07,0,.1,0,.03-.02.07-.03.09-.02.03-.04.05-.07.07l-.73.57s-.05.04-.08.05c-.03.01-.07.01-.1.01s-.07-.01-.09-.03c-.03-.02-.05-.04-.07-.07l-3.31-4.08s-.04-.05-.05-.08c-.01-.03-.01-.06-.01-.1,0-.03.02-.06.03-.09.02-.03.04-.05.07-.07l.72-.57h-.02Z" fill="#f60"/>
  <path d="M41.62,12.6c1.25-.77,2.09-.56,2.81.58s.55,1.98-.7,2.74l-.34.21s-.06.04-.08.06c-.02.03-.04.06-.04.09v.1s.02.06.05.09l.7,1.11s.04.06.05.09v.1s-.02.06-.04.09-.05.05-.08.06l-.79.5s-.06.03-.09.04h-.1s-.06-.02-.09-.04-.05-.05-.06-.08l-2.81-4.42s-.04-.06-.05-.09c0-.03,0-.07,0-.1,0-.03.02-.06.04-.09s.05-.05.08-.06l1.55-.97h0ZM43.02,14.7c.34-.21.5-.35.21-.78-.3-.43-.46-.37-.8-.16l-.38.23s-.06.04-.08.06c-.02.03-.04.06-.04.09v.1s.02.06.05.09l.33.53s.04.06.06.08c.03.02.06.04.09.04h.1s.06-.02.09-.04l.38-.23h0Z" fill="#f60"/>
  <path d="M51.13,13.54c.09.16.06.28-.09.36l-.82.43s-.06.03-.09.04h-.1s-.06-.03-.09-.05-.04-.05-.06-.08l-.34-.63s-.03-.06-.05-.08c-.02-.02-.05-.04-.09-.05-.03,0-.07-.01-.1,0-.03,0-.06.02-.09.04l-.63.33s-.06.03-.08.06c-.02.02-.04.05-.05.09,0,.03,0,.07,0,.1,0,.03.02.06.04.09l.34.62s.03.06.04.09v.1s-.03.06-.05.09c-.02.02-.05.04-.09.05l-.82.43c-.14.07-.26.02-.35-.13l-1.65-3.05c-.5-.91-.86-1.95.79-2.81s2.31.02,2.8.93l1.65,3.05-.02-.02ZM48.22,11.15c-.19-.35-.33-.5-.81-.24s-.44.45-.26.8l.42.78s.03.06.06.08c.02.02.05.04.09.05.03,0,.07.01.1,0,.03,0,.07-.02.09-.03l.63-.33s.06-.03.08-.06c.02-.03.04-.05.05-.09,0-.03,0-.07,0-.1,0-.03-.02-.06-.04-.09l-.42-.78h0Z" fill="#f60"/>
  <path d="M56.64,10.9s.07.07.09.12.03.1.02.15c0,.05-.03.1-.06.14-.03.04-.07.07-.12.09l-.87.38s-.08.02-.11.02c-.04,0-.08-.02-.11-.04l-1.46-1.16h-.08l-.31.13s-.06.03-.08.05-.04.05-.05.08-.02.06-.02.1c0,.03,0,.07.02.1l.53,1.18s.02.06.02.1,0,.07-.02.1c0,.03-.03.06-.06.08-.02.02-.05.04-.08.05l-.85.37s-.06.02-.1.03c-.03,0-.07,0-.1-.02-.03-.01-.06-.03-.08-.05s-.04-.05-.05-.08l-2.14-4.75s-.02-.06-.02-.1c0-.03,0-.07.02-.1,0-.03.03-.06.06-.08.02-.02.05-.04.08-.05l1.66-.72c1.35-.59,2.15-.26,2.7.97.16.26.24.55.26.84,0,.3-.04.6-.17.87,0,.01-.02.03-.02.05s0,.04.02.05l1.48,1.13v-.03ZM52.61,8.42s-.06.03-.09.05c-.02.02-.04.05-.06.08,0,.03-.02.07-.02.1s0,.07.03.1l.25.55s.03.06.06.08c.02.02.05.04.08.05.03.01.07.02.1.02s.07,0,.1-.02l.39-.17c.36-.16.5-.28.32-.74-.19-.46-.41-.43-.78-.27,0,0-.38.17-.38.17Z" fill="#f60"/>
  <path d="M61.9,9.19c.06.17,0,.29-.14.34l-.88.31s-.06.02-.1.02c-.03,0-.07,0-.1-.02-.03-.01-.06-.03-.08-.06-.02-.03-.04-.06-.04-.09l-.24-.67s-.02-.06-.04-.09-.05-.05-.08-.06c-.03-.01-.06-.02-.1-.02-.03,0-.07,0-.1.02l-.68.24s-.06.02-.09.04-.05.05-.06.08c0,.03-.02.06-.02.1,0,.03,0,.07.02.1l.24.67s.02.06.02.1c0,.03,0,.07-.02.1,0,.03-.04.06-.06.08-.03.02-.06.04-.09.04l-.88.31c-.15.05-.27,0-.33-.18l-1.19-3.26c-.35-.97-.57-2.05,1.19-2.67s2.29.36,2.64,1.33l1.19,3.26.02-.02ZM59.38,6.4c-.14-.37-.26-.54-.77-.35-.51.18-.5.38-.37.75l.3.84s.02.06.05.09c.02.03.05.05.08.06s.06.02.1.02c.03,0,.07,0,.1-.02l.67-.24s.06-.02.09-.05c.03-.02.05-.05.06-.08s.02-.06.02-.1c0-.03,0-.07-.02-.1l-.3-.83h0Z" fill="#f60"/>
  <path d="M64.11,2.88c1.51-.41,2.16.05,2.52,1.34l.5,1.73c.36,1.28.04,2.03-1.47,2.43l-1.78.5s-.07.02-.1.02-.07-.01-.1-.03c-.03-.02-.06-.04-.07-.07-.02-.03-.03-.06-.04-.09l-1.42-5.02s-.02-.06-.02-.1c0-.03,0-.07.03-.1s.04-.05.07-.07.06-.03.09-.04l1.78-.5h.01ZM65.3,7.02c.38-.1.56-.22.43-.69,0,0-.5-1.72-.5-1.73-.14-.5-.34-.5-.73-.38l-.43.12s-.06.02-.09.04c-.03.02-.05.04-.07.07s-.03.06-.03.09,0,.07.02.1l.66,2.33s.02.06.04.09c.02.03.04.05.07.07s.06.03.1.03c.03,0,.07,0,.1-.02l.44-.12h-.01Z" fill="#f60"/>
  <path d="M69.23,1.65s.07-.02.1,0c.03,0,.07,0,.1.03s.05.04.07.07.03.06.03.1l1.13,5.1s.01.07,0,.1c0,.03-.02.06-.03.09-.02.03-.04.05-.07.07s-.06.03-.1.03l-.89.19s-.07.01-.1,0c-.03,0-.07-.02-.09-.03-.03-.02-.05-.04-.07-.07s-.03-.06-.03-.09l-1.12-5.1s-.01-.06-.01-.1c0-.03.02-.06.03-.09.02-.03.04-.05.07-.07.03-.02.06-.03.09-.03,0,0,.89-.19.89-.19Z" fill="#f60"/>
  <path d="M74.72,2.74c-.16.06-.25,0-.3-.16s-.17-.29-.32-.37-.32-.1-.49-.06c-.32.05-.5.26-.42.45.22.61,2.8.19,3.1,2.04.04.24,0,1.71-1.95,2.01-1.72.27-2.27-.79-2.42-1.41,0-.03-.01-.06,0-.09,0-.03.01-.06.03-.09s.04-.05.06-.07c.03-.02.06-.03.09-.04l.89-.35c.16-.06.26,0,.31.17.02.09.06.17.11.24.05.07.12.13.19.18.08.05.16.08.25.09s.18,0,.27-.01c.4-.06.66-.34.57-.55-.27-.66-2.71-.12-3.03-1.98-.05-.24-.13-1.69,1.7-1.98,1.68-.26,2.25.76,2.4,1.33,0,.03.01.06.01.09s-.01.06-.03.09-.04.05-.06.07c-.03.02-.05.03-.09.04l-.88.36h0Z" fill="#f60"/>
  <path d="M81.28,0h.1s.06.02.09.04.05.05.06.08c.01.03.02.06.02.1l.08.91v.1s-.02.06-.04.09c-.02.03-.05.05-.08.06s-.06.02-.1.02l-2.02.17s-.07,0-.1.02c-.03,0-.06.03-.08.06-.02.03-.04.06-.05.09v.36s0,.07.02.1c.01.03.03.06.06.08s.06.04.09.05h.1l1.28-.11h.1s.06.02.09.04.05.05.06.08c.01.03.02.06.02.1l.08.91v.1s-.02.06-.05.09c-.02.03-.05.05-.08.06s-.06.02-.1.02l-1.28.11s-.07,0-.1.02c-.03,0-.06.03-.08.06s-.04.06-.05.09v.36s0,.07.02.1c.01.03.03.06.06.08s.06.04.09.05h.1l2.02-.17h.1s.06.02.09.04.05.05.06.08.02.06.02.1l.09.91v.1s-.02.06-.05.09c-.02.03-.05.05-.08.06-.03.01-.06.02-.1.02l-3.47.3h-.1s-.06-.02-.09-.05c-.03-.02-.05-.05-.06-.08-.01-.03-.02-.06-.02-.1l-.41-5.22v-.1s.02-.06.05-.09c.02-.03.05-.05.08-.06s.06-.02.1-.02l3.46-.3Z" fill="#f60"/>
  <path d="M87.33,2.39s0-.07.01-.1.03-.06.06-.08c.02-.02.05-.04.09-.05s.07,0,.1,0l3.8.1s.07,0,.1,0,.06.03.08.05c.02.02.04.05.05.09,0,.03.01.07,0,.1v.91s0,.07-.01.1-.03.06-.06.08c-.02.02-.05.04-.09.05-.03,0-.07,0-.1,0l-3.8-.1s-.07,0-.1,0-.06-.03-.08-.06c-.02-.02-.04-.05-.05-.08s-.01-.07,0-.1v-.91Z" fill="#f60"/>
  <path d="M99.8.74c1.46.21,1.96.91,1.77,2.23-.2,1.32-.88,1.85-2.35,1.65l-.39-.06h-.1s-.06.02-.09.04-.05.05-.06.08c-.02.03-.02.06-.03.1l-.19,1.29s0,.07-.02.1c-.02.03-.04.06-.07.08s-.06.03-.09.04h-.1l-.92-.13s-.07-.01-.1-.03-.06-.04-.08-.06c-.02-.03-.03-.06-.04-.09v-.1l.77-5.16s.01-.07.03-.1c.02-.03.04-.06.06-.08.03-.02.06-.03.09-.04h.1l1.81.26v-.02ZM99.48,3.22c.39.06.6.04.68-.46s-.12-.58-.5-.63l-.44-.06s-.07,0-.1,0c-.03,0-.07.02-.09.04-.03.02-.05.05-.06.08-.02.03-.02.06-.02.1l-.1.61v.1s.02.06.04.09c.02.03.05.05.08.06.03.02.06.02.1.03l.43.06-.02-.02Z" fill="#f60"/>
  <path d="M104.79,1.61s.07,0,.1.03.05.04.07.07c.02.03.03.06.03.09s0,.07-.01.1l-.7,3.1c-.14.61-.18.99.42,1.13.59.13.73-.24.86-.85l.7-3.12s.01-.07.03-.09c.02-.03.04-.05.07-.07s.06-.03.1-.03h.1l.91.2s.07,0,.1.03.05.04.07.07.03.06.03.09,0,.07-.01.1l-.79,3.54c-.12.53-.55,1.91-2.47,1.49-1.92-.43-1.72-1.85-1.6-2.37l.79-3.54s.01-.07.03-.09c.02-.03.04-.05.07-.07.03-.02.06-.03.1-.03.03,0,.07,0,.1,0l.91.22h0Z" fill="#f60"/>
  <path d="M110.58,4.72s.02-.06.02-.1c0-.03-.01-.07-.03-.1-.02-.03-.04-.06-.07-.07-.03-.02-.06-.03-.09-.04l-1.12-.33s-.06-.02-.09-.04-.05-.04-.07-.07-.03-.06-.03-.09,0-.07.02-.1l.26-.88s.02-.06.04-.09c.02-.03.05-.05.08-.06.03-.02.06-.02.1-.03.03,0,.07,0,.1.02l4.07,1.19s.06.02.09.04.05.05.07.07c.02.03.03.06.03.1,0,.03,0,.07-.02.1l-.27.87s-.02.06-.04.09c-.02.03-.05.05-.08.06-.03.02-.06.02-.1.03-.03,0-.07,0-.1-.02l-1.11-.33s-.07-.02-.1-.02-.07.01-.1.03-.06.04-.07.07c-.02.03-.03.06-.04.09l-1.11,3.65s-.02.06-.04.09c-.02.03-.05.05-.08.07-.03.02-.06.02-.1.03-.03,0-.07,0-.1-.02l-.89-.26s-.07-.02-.09-.04c-.03-.02-.05-.05-.07-.07s-.03-.06-.03-.1c0-.03,0-.07.02-.1l1.11-3.65h.03Z" fill="#f60"/>
  <path d="M121.12,11.37s.06.03.09.05.05.05.06.08c.01.03.02.06.02.1,0,.03-.01.07-.03.09l-.37.84s-.03.06-.05.09c-.02.03-.05.04-.08.06-.03.01-.07.02-.1.01-.03,0-.07-.01-.1-.03l-3.78-1.6c-.19-.08-.21-.22-.05-.34l3.66-2.72c.05-.04.05-.08,0-.11l-1.46-.62s-.06-.03-.08-.05c-.03-.02-.04-.05-.06-.08-.01-.03-.02-.06-.01-.1,0-.03.01-.06.03-.09l.36-.84s.03-.06.05-.09c.02-.02.05-.04.08-.06.03-.01.07-.02.1-.01.03,0,.07.01.1.03l3.67,1.55c.18.08.2.22.05.34l-3.69,2.7c-.06.04-.05.09,0,.11l1.6.68h0Z" fill="#f60"/>
  <path d="M125.99,8.93s.06.03.08.05c.02.02.04.05.05.08s.01.07,0,.1c0,.03-.02.06-.04.09l-1.78,3.4s-.03.06-.04.09v.1s.03.06.05.08c.02.02.05.04.08.05l1.64.83s.06.03.08.05c.02.02.04.05.05.08s.01.07,0,.1c0,.03-.02.06-.04.09l-.42.81s-.03.06-.06.08c-.02.02-.05.04-.09.05-.03.01-.07.01-.1,0-.03,0-.07-.02-.09-.04l-2.91-1.49s-.06-.03-.08-.05c-.02-.02-.04-.05-.05-.08s-.01-.06,0-.1c0-.03.02-.06.04-.09l2.43-4.64s.03-.06.06-.08c.03-.02.05-.04.09-.05.03-.01.07-.01.1,0,.03,0,.07.02.1.03l.83.44.02.02Z" fill="#f60"/>
  <path d="M130.5,17.67c-.1.15-.22.2-.36.11l-.79-.5s-.06-.03-.08-.06c-.02-.03-.04-.06-.05-.09v-.1s.02-.06.04-.09l.37-.61s.04-.06.04-.09v-.1s-.03-.06-.05-.09-.05-.05-.08-.06l-.61-.36s-.06-.03-.09-.04h-.1s-.06.02-.09.04c-.03.02-.05.05-.06.08l-.37.6s-.03.06-.06.08-.06.04-.09.05h-.1s-.06-.02-.09-.04l-.8-.5s-.06-.04-.08-.07c-.02-.03-.04-.06-.04-.1v-.11s.03-.07.05-.09l1.82-2.97c.54-.88,1.25-1.73,2.85-.78s1.17,1.98.62,2.85l-1.82,3.02.02.02ZM131.09,13.99c.21-.34.26-.53-.21-.81-.47-.28-.62-.14-.83.2l-.47.76s-.04.06-.04.09v.1s.02.06.04.09c.02.03.05.05.08.06l.61.36s.06.03.09.04h.1s.06-.02.09-.05c.03-.02.05-.05.06-.08l.46-.75h.02Z" fill="#f60"/>
  <path d="M135.12,16.19s.04-.05.05-.09c0-.03,0-.07,0-.1,0-.03-.02-.06-.04-.09-.02-.03-.05-.05-.08-.06l-.95-.66s-.06-.04-.07-.06c-.02-.03-.03-.06-.04-.09v-.1s.02-.06.05-.09l.53-.75s.04-.06.07-.08c.03-.02.06-.03.09-.04h.1s.06.03.09.05l3.47,2.4s.06.04.08.06c.02.03.03.06.04.09v.1s-.03.06-.05.09l-.53.75s-.04.05-.07.07c-.03.02-.06.03-.09.04h-.1s-.06-.03-.09-.05l-.95-.66s-.06-.04-.09-.05c-.03,0-.07-.01-.1,0-.03,0-.07.02-.09.04-.03.02-.05.05-.07.08l-2.23,3.12s-.04.06-.07.08c-.03.02-.06.03-.09.04h-.1s-.06-.03-.09-.05l-.76-.53s-.05-.04-.07-.07c-.02-.03-.03-.06-.04-.09v-.1s.02-.06.05-.09l2.24-3.12h0Z" fill="#f60"/>
  <path d="M141.21,18.62c.05.04.09.09.11.15s.02.12,0,.18l-.88,2.8c0,.08.04.1.09.04l1.71-2.04s.04-.05.07-.07c.03-.02.06-.03.1-.03.03,0,.07,0,.1.01s.06.03.08.05l.72.58s.05.04.07.07c.02.03.03.06.03.09s0,.07,0,.1-.03.06-.06.08l-3.37,4.03s-.04.05-.07.07c-.03.02-.06.03-.09.03s-.07,0-.1-.01-.06-.03-.08-.05l-.94-.76c-.05-.04-.09-.09-.11-.15s-.02-.12,0-.18l.88-2.8c0-.07-.04-.1-.09-.04l-1.71,2.03s-.04.05-.07.07c-.03.02-.06.03-.1.03-.03,0-.07,0-.1-.01s-.06-.03-.08-.05l-.72-.58s-.05-.04-.07-.07c-.02-.03-.03-.06-.03-.09s0-.07,0-.1.03-.06.05-.08l3.37-4.03s.04-.05.07-.07c.03-.02.06-.03.09-.03s.07,0,.1.01.06.03.08.05l.94.76h0Z" fill="#f60"/>
  <path d="M145.36,27.47c-.38.39-1.48,1.35-2.9,0s-.5-2.48-.11-2.85l1.43-1.49c.38-.39,1.47-1.35,2.89,0s.51,2.45.12,2.85l-1.43,1.49ZM145.44,25.33c.44-.45.68-.76.24-1.17-.44-.42-.75-.17-1.18.29l-.83.85c-.44.46-.68.76-.24,1.17.44.42.75.17,1.18-.28l.83-.85h0Z" fill="#f60"/>
  <path d="M148.1,27.31c.41-.36,1.57-1.25,2.9.18,1.17,1.27.5,2.24.07,2.69-.02.03-.05.05-.08.06l-.09.03s-.07,0-.1-.01-.06-.03-.08-.05l-.78-.55c-.14-.1-.14-.21,0-.34.07-.05.13-.12.17-.19.04-.08.06-.16.07-.25,0-.09,0-.17-.05-.25s-.09-.15-.16-.2c-.41-.45-.73-.22-1.2.2l-.89.79c-.47.42-.73.71-.32,1.16.41.45.73.22,1.01-.05l-.32-.35s-.05-.05-.06-.08-.02-.06-.02-.1,0-.07.02-.1c0-.03.04-.06.06-.08l.51-.44s.05-.05.08-.06.06-.02.1-.02.07,0,.1.02c.03.01.06.04.08.06l1.11,1.21s.05.05.07.08c0,.03.02.06.02.1s0,.07-.02.1-.04.06-.07.08l-.83.74c-.41.36-1.57,1.25-2.9-.18-1.32-1.43-.31-2.48.1-2.85l1.52-1.35h-.02Z" fill="#f60"/>
  <path d="M154.11,40.11s-.06.08-.1.11c-.04.03-.09.05-.14.05s-.1,0-.15-.03c-.05-.02-.09-.05-.12-.1l-.55-.75s-.04-.07-.04-.11,0-.08.04-.11l.85-1.64s0-.05,0-.08l-.2-.26s-.04-.05-.07-.07c-.03-.02-.06-.03-.09-.04h-.1s-.06.02-.09.04l-1.06.75s-.06.04-.09.05c-.03,0-.07,0-.1,0-.03,0-.07-.02-.1-.04s-.05-.04-.07-.07l-.54-.74s-.04-.06-.04-.09v-.1s.02-.06.04-.09c.02-.03.04-.05.07-.07l4.3-3.03s.06-.04.09-.04h.1s.07.02.09.04c.03.02.05.04.07.07l1.06,1.45c.86,1.18.7,2.02-.41,2.8-.22.2-.49.35-.79.42s-.6.08-.9,0h-.06s-.03.02-.04.04l-.86,1.64h0ZM155.75,35.73s-.04-.05-.07-.07c-.03-.02-.06-.03-.09-.04s-.07,0-.1,0-.06.02-.09.04l-.5.35s-.05.04-.07.07-.03.06-.04.09v.1s.02.06.04.09l.25.34c.23.32.39.45.81.15.42-.29.34-.5.11-.8l-.24-.34v.02Z" fill="#f60"/>
  <path d="M156.9,44.82c-.16.09-.28.07-.37-.06l-.51-.78s-.04-.06-.04-.09v-.1s.02-.06.05-.09c.02-.03.05-.05.08-.06l.62-.37s.06-.03.08-.06c.02-.03.04-.06.04-.09v-.1s-.02-.06-.04-.09l-.37-.6s-.04-.06-.06-.08c-.03-.02-.06-.04-.09-.04h-.1s-.06.02-.09.04l-.62.37s-.06.04-.09.04h-.1s-.06-.02-.09-.04-.05-.05-.06-.08l-.5-.78s-.03-.06-.04-.1,0-.07,0-.1.03-.06.05-.09.05-.05.09-.06l3.03-1.81c.89-.54,1.93-.97,2.9.59s.12,2.28-.78,2.82l-2.99,1.81h0ZM159.15,41.82c.34-.21.48-.36.19-.82s-.51-.41-.82-.2l-.77.46s-.06.04-.08.06c-.02.03-.04.06-.04.09v.1s.02.06.04.09l.38.58s.04.06.07.08c.03.02.06.04.09.04h.1s.07-.02.09-.04l.76-.44h0Z" fill="#f60"/>
  <path d="M161.71,45.59s.06-.03.09-.05c.02-.02.04-.05.05-.08,0-.03,0-.07,0-.1,0-.03-.02-.06-.04-.09l-.54-.99s-.03-.06-.03-.09v-.1s.03-.06.05-.08.05-.04.08-.05l.82-.42s.06-.03.09-.04h.1s.06.03.09.05c.02.02.04.05.06.08l1.96,3.7s.03.06.04.09v.1s-.03.06-.05.09c-.02.02-.05.04-.09.05l-.82.42s-.06.03-.09.04h-.1s-.06-.03-.09-.05-.04-.05-.06-.08l-.53-.99s-.03-.06-.06-.08c-.02-.02-.05-.04-.09-.05-.03,0-.07,0-.1,0-.03,0-.07.02-.09.04l-3.45,1.76s-.06.03-.09.04h-.1s-.06-.03-.08-.05c-.03-.02-.04-.05-.06-.08l-.43-.81s-.03-.06-.03-.09v-.1s.03-.06.05-.08.05-.04.08-.05l3.44-1.81.02-.05Z" fill="#f60"/>
  <path d="M161.89,54.87c-.17.07-.29.03-.36-.11l-.37-.84s-.03-.06-.03-.09,0-.07.02-.1c0-.03.03-.06.06-.08.02-.02.05-.04.09-.05l.66-.28s.07-.02.09-.05c.03-.02.05-.05.06-.08,0-.03.02-.07,0-.1,0-.03,0-.07-.03-.09l-.28-.64s-.03-.06-.05-.09-.05-.04-.08-.06c-.03,0-.07-.02-.1,0-.03,0-.07,0-.1.03l-.66.28s-.06.03-.1.03c-.03,0-.07,0-.1,0s-.06-.03-.08-.06c-.02-.03-.04-.06-.05-.09l-.37-.84s-.03-.07-.03-.1c0-.04,0-.07.02-.1,0-.03.04-.06.07-.08.03-.02.06-.04.1-.05l3.23-1.37c.96-.41,2.05-.69,2.79.99.74,1.69-.22,2.27-1.18,2.68l-3.23,1.37h0ZM164.55,52.21c.37-.15.53-.28.31-.78s-.42-.5-.79-.31l-.83.35s-.06.03-.09.05c-.02.02-.04.05-.06.08,0,.03-.02.06,0,.1,0,.03,0,.07.03.09l.28.64s.03.06.05.09c.02.02.05.04.08.06.03,0,.07.02.1,0,.03,0,.07,0,.1-.03l.82-.35h0Z" fill="#f60"/>
  <path d="M165.83,62.81s.02.06.02.1c0,.03,0,.07-.03.1s-.04.06-.07.07c-.03.02-.06.03-.1.03l-.89.27s-.06.02-.1.02c-.03,0-.07,0-.1-.03s-.06-.04-.07-.06c-.02-.03-.03-.06-.04-.09l-1.01-3.33s-.02-.06-.02-.1c0-.03,0-.07.03-.1.02-.03.04-.06.07-.07.03-.02.06-.03.09-.04l.68-.2c1.83-.54,3.05,1.6,3.72,1.54.06,0,.12-.02.17-.05s.09-.07.12-.12.05-.1.06-.16c0-.06,0-.12-.02-.17-.02-.08-.05-.15-.09-.21s-.1-.12-.17-.16c-.07-.04-.14-.07-.22-.08-.08,0-.16,0-.23,0-.17,0-.26-.03-.28-.2l-.07-.95v-.09s.02-.06.04-.09c.02-.03.04-.05.07-.07.03-.02.06-.03.09-.03.58-.12,1.74-.14,2.24,1.49.54,1.75-.85,2.23-1.09,2.29-1.55.47-2.43-1.49-3.31-1.54-.06,0-.09.03-.07.09l.59,1.93h0Z" fill="#f60"/>
  <path d="M168.13,68.83s-.07.02-.1.01c-.03,0-.07-.01-.1-.03s-.05-.04-.07-.07-.03-.06-.03-.09v-.09s0-.07-.03-.09c-.02-.03-.04-.05-.07-.07-.03-.02-.06-.03-.1-.03h-.1l-1.46.32s-.07.01-.1.01-.07-.02-.09-.03c-.03-.02-.05-.04-.07-.07s-.03-.06-.03-.09l-.2-.89s0-.07,0-.1.02-.06.04-.09c.02-.03.04-.05.07-.07.03-.02.06-.03.1-.03l1.46-.32s.07-.01.1-.03.05-.04.07-.07.03-.06.03-.09,0-.07,0-.1l-.46-2.01s0-.06,0-.1c0-.03,0-.06.03-.09s.04-.05.07-.07c.03-.02.06-.03.09-.03l1.13-.25h.17l1.54.38c.06,0,.12.03.17.07s.08.1.09.16l.2.87c.04.18-.05.31-.23.26l-1.51-.37c-.06,0-.09,0-.08.08l.18.78s0,.07.03.1.04.05.07.07c.03.02.06.03.1.03s.07,0,.1-.01l2.02-.44s.07-.02.1-.01c.03,0,.07.01.1.03s.05.04.07.07.03.06.03.09l.2.89s.02.06,0,.1c0,.03,0,.07-.03.09-.02.03-.04.05-.07.07-.03.02-.06.03-.1.03l-2.02.44s-.07.01-.1.03-.05.04-.07.07-.03.06-.04.09v.19s.02.07,0,.1c0,.03,0,.07-.03.09-.02.03-.04.05-.07.07-.03.02-.06.03-.1.03l-.9.21h0Z" fill="#f60"/>
  <path d="M171.38,74s-.07.01-.1,0c-.03,0-.07-.02-.09-.04-.03-.02-.05-.05-.07-.08,0-.03-.02-.06-.02-.1l-.31-2.02v-.03s0-.02-.02-.03c0,0-.02-.01-.03-.01h-.03l-.17.02s-.07,0-.1.03c-.03.02-.06.04-.08.06-.02.03-.03.06-.04.09v.1l.04.25c.05.26.05.53,0,.79-.06.26-.17.51-.33.72-.16.22-.36.4-.59.53s-.49.22-.76.26c-.27.05-.54.05-.81-.01-.26-.06-.51-.18-.73-.34-.22-.16-.4-.37-.53-.6-.13-.23-.21-.49-.23-.76-.25-1.66.8-2.13,1.39-2.27.03,0,.06-.01.1,0,.03,0,.06.01.09.03s.05.04.07.06c.02.03.03.06.04.09l.34.89c.06.16,0,.25-.16.3-.08.02-.15.05-.21.09-.07.04-.12.1-.16.16-.04.07-.07.14-.09.21,0,.08,0,.15,0,.23,0,.07.03.15.07.21.04.06.09.12.16.16.06.04.13.07.21.08.07,0,.15,0,.22-.02.43-.13.57-.47.5-1.1l-.17-1.14s0-.07,0-.1c0-.03.02-.06.04-.09.02-.03.05-.05.07-.06.03-.02.06-.02.1-.03l2.77-.4s.07-.01.1,0c.03,0,.07.02.09.04.03.02.05.05.07.07.02.03.02.06.02.1l.51,3.25s0,.07,0,.1c0,.03-.02.06-.04.09-.02.03-.05.05-.08.06-.03.02-.06.02-.1.02l-.95.13h0Z" fill="#f60"/>
  <path d="M167.01,78.52c-.15-1.93,1.81-2.19,2.89-2.27,1.08-.08,3.03-.15,3.2,1.82.18,1.97-1.81,2.19-2.9,2.27s-3.05.11-3.2-1.82h0ZM170.01,77.66c-.83.06-1.62.13-1.57.76.04.63.84.58,1.67.53.84-.06,1.62-.13,1.57-.76-.05-.63-.84-.59-1.68-.53h0Z" fill="#f60"/>
  <path d="M170.57,85.99s.07,0,.1.01.06.03.08.06c.02.02.04.05.05.08,0,.03,0,.07,0,.1l-.17,3.73s0,.07,0,.1-.03.06-.06.08c-.03.02-.06.04-.09.05-.03,0-.07.01-.1,0l-.93-.04s-.07,0-.1-.02c-.03-.01-.06-.03-.08-.06-.02-.02-.04-.05-.05-.09,0-.03,0-.07,0-.1l.17-3.73s0-.07,0-.1.03-.06.06-.08c.02-.02.05-.04.09-.05.03,0,.07-.01.1,0l.93.04v.02Z" fill="#f60"/>
  <path d="M172.06,98.2c0,.06-.04.12-.09.16s-.11.06-.18.06l-2.48.16c-.09,0-.1.06,0,.09l2.28.99c.06.02.11.06.15.11.03.05.04.12.03.18l-.29,1.67s0,.07-.03.1c-.02.03-.04.05-.07.07-.03.02-.06.03-.09.04h-.1l-5.23-.9s-.07-.01-.1-.03-.05-.04-.07-.06c-.02-.03-.03-.06-.04-.09v-.1l.16-.9s0-.07.03-.09c.02-.03.04-.05.07-.07.03-.02.06-.03.09-.04h.1l3.22.55h.03s0-.01.02-.02v-.03s0-.02-.02-.02l-3.13-1.34c-.06-.02-.11-.06-.14-.12-.03-.06-.04-.12-.02-.18l.09-.53c0-.06.04-.12.08-.17.05-.04.11-.06.18-.06l3.4-.22s.02,0,.03-.01c0,0,0-.02,0-.03s0-.02,0-.03c0,0-.02-.01-.03-.01l-3.22-.55s-.07-.01-.1-.03-.05-.04-.07-.07-.03-.06-.04-.09v-.1l.16-.9s0-.07.03-.1.04-.05.07-.07c.03-.02.06-.03.09-.04h.1l5.22.9s.07.01.1.03.05.04.07.07.03.06.04.09v.1l-.31,1.65v-.02Z" fill="#f60"/>
  <path d="M169.96,107.55s-.02.07-.04.09c-.02.03-.04.05-.07.07-.03.02-.06.03-.1.03-.03,0-.07,0-.1-.01l-.9-.23s-.07-.02-.09-.04c-.03-.02-.05-.04-.07-.07s-.03-.06-.03-.1c0-.03,0-.07.02-.1l.5-1.91s.02-.07,0-.1c0-.03,0-.07-.03-.09-.02-.03-.04-.05-.07-.07-.03-.02-.06-.03-.09-.04l-.26-.06s-.07-.02-.1-.01c-.03,0-.07.01-.1.03s-.05.04-.07.07-.03.06-.04.09l-.33,1.22s0,.07-.03.09c-.02.03-.04.05-.07.07-.03.02-.06.03-.1.03-.03,0-.07,0-.1-.02l-.9-.23s-.07-.02-.09-.03c-.03-.02-.05-.04-.07-.07s-.03-.06-.03-.09,0-.07,0-.1l.32-1.22s.02-.06,0-.1c0-.03,0-.07-.03-.09s-.04-.05-.07-.07c-.03-.02-.06-.03-.09-.04l-.26-.06s-.07-.02-.1-.01c-.03,0-.07.01-.1.03s-.06.04-.07.07c-.02.03-.03.06-.04.09l-.5,1.91s0,.07-.03.09c-.02.03-.04.05-.07.07-.03.02-.06.03-.1.03-.03,0-.07,0-.1-.02l-.9-.23s-.07-.01-.1-.03-.05-.04-.07-.07-.03-.06-.03-.1c0-.03,0-.07.02-.1l.87-3.31s.02-.07.04-.09c.02-.03.04-.05.07-.07.03-.02.06-.03.1-.03.03,0,.07,0,.1.01l5.13,1.31s.07.02.09.03.05.04.07.07.03.06.03.09,0,.07,0,.1l-.87,3.32h.03Z" fill="#f60"/>
  <path d="M168.64,111.62c-.5,1.45-1.26,1.73-2.55,1.3l-1.72-.57c-1.29-.43-1.73-1.11-1.23-2.56l.6-1.72s.02-.06.04-.09c.02-.03.05-.05.08-.06.03-.01.06-.02.1-.02.03,0,.07,0,.1.02l5.04,1.67s.07.02.09.04c.03.02.05.05.07.08s.02.06.03.1c0,.03,0,.07-.02.1l-.62,1.72h-.01ZM164.48,110.26c-.13.37-.13.57.34.73l1.74.59c.5.16.6,0,.73-.38l.15-.42s.02-.06.02-.1,0-.07-.02-.1c0-.03-.04-.06-.06-.08-.03-.02-.06-.03-.09-.04l-2.32-.77s-.06-.02-.1-.02c-.03,0-.07,0-.1.02-.03.01-.06.04-.08.06-.02.03-.04.06-.04.09l-.16.4v.02Z" fill="#f60"/>
  <path d="M166.81,116.47s-.02.06-.05.09-.05.04-.08.06c-.03.01-.07.02-.1.02s-.07-.01-.1-.03l-4.91-1.95s-.06-.02-.09-.04c-.03-.02-.05-.05-.06-.08s-.02-.06-.02-.1c0-.03,0-.07.03-.1l.34-.83s.03-.06.05-.08c.02-.03.05-.04.08-.06.03-.01.06-.02.1-.02.03,0,.07,0,.1.02l4.93,1.95s.06.03.09.05c.03.02.05.05.06.08s.02.06.02.1c0,.03,0,.07-.03.1l-.35.83h0Z" fill="#f60"/>
  <path d="M163.83,119.09s.06.03.1.03c.03,0,.07,0,.1-.01s.06-.03.09-.06c.02-.02.04-.05.05-.09l.5-1.03s.03-.06.05-.08c.02-.02.05-.04.08-.05s.07-.02.1-.01c.03,0,.07.01.1.03l.84.39s.06.03.09.05c.02.02.04.05.05.08,0,.03,0,.07,0,.1s0,.07-.03.09l-1.81,3.78s-.03.06-.05.09-.05.04-.08.06c-.03.01-.07.02-.1.01-.03,0-.07-.02-.09-.03l-.84-.39s-.06-.03-.09-.05c-.02-.02-.04-.05-.06-.08,0-.03-.02-.07,0-.1,0-.03,0-.07.03-.09l.5-1.03s.03-.06.04-.09,0-.07,0-.1-.03-.06-.05-.08c-.02-.02-.05-.04-.09-.05l-3.53-1.63s-.06-.03-.09-.05c-.02-.02-.04-.05-.05-.08,0-.03-.02-.06,0-.1,0-.03,0-.07.03-.09l.4-.83s.03-.06.05-.08.05-.04.08-.05.07-.02.1-.01c.03,0,.07.01.1.03l3.51,1.63v-.03Z" fill="#f60"/>
  <path d="M161.34,127.35s-.03.06-.06.08c-.03.02-.06.04-.09.05s-.07.01-.1,0c-.03,0-.07-.02-.09-.04l-.81-.45s-.06-.03-.08-.06c-.02-.02-.04-.05-.05-.09,0-.03,0-.07,0-.1,0-.03.02-.06.04-.09l.98-1.73s.03-.06.04-.09v-.1s-.03-.06-.05-.09-.05-.04-.08-.06l-.23-.13s-.06-.03-.09-.04h-.1s-.06.03-.09.05c-.02.02-.04.05-.06.08l-.63,1.11s-.03.06-.06.08c-.02.02-.05.04-.09.05-.03,0-.07.01-.1,0-.03,0-.06-.02-.09-.04l-.81-.45s-.06-.03-.09-.06c-.02-.03-.04-.06-.05-.1v-.11s.03-.07.05-.09l.63-1.1s.03-.06.04-.09v-.1s-.03-.06-.05-.09c-.02-.02-.05-.04-.08-.06l-.23-.13s-.06-.03-.09-.04h-.1s-.06.03-.09.05c-.02.02-.04.05-.06.08l-.97,1.74s-.03.06-.06.08-.06.04-.09.05h-.1s-.07-.02-.09-.04l-.81-.45s-.06-.03-.08-.06c-.02-.02-.04-.05-.05-.09,0-.03,0-.07,0-.1,0-.03.02-.06.04-.09l1.71-2.97s.04-.06.06-.08c.03-.02.06-.04.09-.05.03,0,.07-.01.1,0,.03,0,.07.02.09.04l4.63,2.55s.06.03.08.06.04.05.05.09c0,.03,0,.07,0,.1,0,.03-.02.06-.04.09l-1.72,2.97-.02.06Z" fill="#f60"/>
  <path d="M153.31,129.92c-.06,0-.11-.02-.15-.05-.05-.03-.08-.07-.11-.12-.02-.05-.03-.1-.03-.16,0-.05.03-.1.06-.15l.5-.78s.05-.06.09-.07c.04-.02.07-.02.11-.02l1.87.19h.04s.02,0,.03-.02l.19-.27s.03-.06.04-.09v-.1s-.02-.06-.04-.09c-.02-.03-.04-.05-.07-.07l-1.09-.71s-.05-.04-.07-.07-.03-.06-.04-.09v-.1s.02-.06.04-.09l.51-.76s.04-.05.07-.07c.03-.02.06-.03.09-.04h.1s.07.02.09.04l4.42,2.86s.06.04.07.07c.02.03.03.06.04.09v.1s-.02.06-.04.09l-1.01,1.49c-.81,1.21-1.66,1.36-2.8.62-.27-.13-.5-.33-.68-.57s-.29-.53-.33-.82c0-.02,0-.04-.02-.05s-.03-.02-.05-.03l-1.81-.16h-.02ZM158.06,129.86s.03-.06.04-.09v-.1s-.02-.06-.04-.09c-.02-.03-.04-.05-.07-.07l-.51-.33s-.06-.03-.09-.04h-.1s-.06.02-.09.04c-.03.02-.05.04-.07.07l-.23.35c-.22.33-.29.5.14.79.43.3.58.14.8-.18l.22-.35Z" fill="#f60"/>
  <path d="M149.75,134.53c-.06,0-.11-.02-.16-.05s-.08-.08-.1-.13-.02-.11,0-.17c0-.05.04-.1.08-.14l.58-.73s.05-.06.09-.07c.04,0,.08-.02.12,0l1.85.32h.08l.2-.26s.04-.06.05-.09c0-.03,0-.07,0-.1,0-.03,0-.07-.03-.1s-.04-.05-.07-.07l-1.04-.78s-.05-.04-.07-.07c-.02-.03-.03-.06-.03-.1v-.1s.03-.06.05-.09l.57-.72s.04-.05.07-.07c.03-.02.06-.03.1-.03h.1s.06.03.09.05l4.2,3.17s.05.04.07.07c.02.03.03.06.03.1v.1s-.03.06-.05.09l-1.11,1.41c-.9,1.15-1.76,1.24-2.84.43-.26-.15-.48-.37-.64-.62-.16-.26-.25-.54-.27-.84,0-.02,0-.04-.02-.06,0-.02-.03-.03-.05-.03l-1.83-.31h0ZM154.5,134.8s.04-.05.05-.09c0-.03,0-.07,0-.1,0-.03,0-.06-.03-.09s-.04-.05-.07-.07l-.51-.37s-.06-.04-.09-.05c-.03,0-.07,0-.1,0-.03,0-.07,0-.1.03s-.05.04-.07.07l-.26.33c-.24.31-.33.5.08.8.41.31.57.18.81-.13l.27-.33h.02Z" fill="#f60"/>
  <path d="M145.98,138.53c-.14-.12-.16-.24-.04-.37l.62-.68s.05-.05.08-.06.06-.02.1-.02.07,0,.1.02c.03,0,.06.04.08.06l.54.47s.05.05.08.06.06.02.1.02.07,0,.1-.02.06-.04.08-.06l.47-.53s.05-.05.06-.08.02-.06.02-.1,0-.07-.02-.1-.04-.06-.06-.08l-.54-.47s-.05-.05-.06-.08-.02-.06-.02-.1,0-.07.02-.1.04-.06.06-.08l.62-.68c.1-.12.24-.12.37,0l2.63,2.29c.78.68,1.51,1.53.26,2.9s-2.18.77-2.97.08l-2.67-2.34v.05ZM149.55,139.78c.3.26.5.35.85-.06.34-.4.26-.57-.04-.83l-.68-.59s-.05-.05-.08-.06-.06-.02-.1-.02-.07,0-.1.02c-.03,0-.06.04-.08.06l-.47.52s-.04.05-.06.08c0,.03-.02.06,0,.1,0,.03,0,.07.03.09.02.03.04.05.07.07l.67.61h0Z" fill="#f60"/>
  <path d="M147.57,144.68s-.1.08-.16.09-.13,0-.18-.03l-2.73-1.18c-.07-.03-.12.02-.06.08l1.87,1.89s.05.05.06.08.02.06.02.1,0,.07-.02.1c0,.03-.04.06-.06.08l-.67.63s-.05.05-.08.06-.06.02-.1.02-.07,0-.1-.02c-.03,0-.06-.04-.08-.06l-3.7-3.74s-.05-.05-.06-.08-.02-.06-.02-.1,0-.07.02-.1.04-.06.06-.08l.88-.83s.1-.08.16-.09.12,0,.18.02l2.73,1.18c.08.03.11,0,.06-.08l-1.87-1.89s-.05-.05-.07-.08c0-.03-.02-.06-.02-.1s0-.07.02-.1.04-.06.07-.08l.67-.63s.05-.05.08-.06.06-.02.1-.02.07,0,.1.02c.03,0,.06.04.08.06l3.7,3.74s.05.05.06.08.02.06.02.1,0,.07-.02.1c0,.03-.04.06-.06.08l-.88.83h0Z" fill="#f60"/>
  <path d="M140.97,150.48s-.05.04-.08.06c-.03,0-.07.02-.1,0-.03,0-.07,0-.1-.03s-.05-.04-.07-.07l-.6-.69s-.04-.05-.06-.08c0-.03-.02-.07,0-.1,0-.03,0-.07.03-.09.02-.03.04-.05.07-.07l1.51-1.26s.05-.04.07-.07c.02-.03.03-.06.03-.09s0-.07,0-.1-.03-.06-.05-.08l-.17-.2s-.04-.05-.07-.07c-.03-.02-.06-.03-.09-.03s-.07,0-.1,0-.06.03-.08.05l-1.01.81s-.05.04-.08.06c-.03,0-.06.02-.1.02-.03,0-.07,0-.1-.03s-.05-.04-.07-.07l-.6-.7s-.04-.05-.06-.08c0-.03-.02-.07,0-.1,0-.03,0-.07.03-.1s.04-.05.07-.07l1.01-.81s.05-.04.07-.07c.02-.03.03-.06.03-.1,0-.03,0-.07,0-.1s-.03-.06-.05-.08l-.17-.2s-.04-.05-.07-.07c-.03-.02-.06-.03-.09-.03s-.07,0-.1,0-.06.03-.08.05l-1.54,1.26s-.05.04-.08.06c-.03,0-.07.02-.1,0s-.07,0-.1-.03-.05-.04-.07-.07l-.6-.7s-.05-.05-.06-.08-.02-.07,0-.1c0-.03,0-.07.03-.1s.04-.05.07-.07l2.67-2.2s.05-.04.08-.05c.03,0,.06-.02.1,0,.03,0,.07,0,.1.03s.05.04.07.07l3.41,4s.04.05.06.08c0,.03.02.06,0,.1,0,.03,0,.07-.03.09-.02.03-.04.05-.07.07l-2.65,2.19h-.02Z" fill="#f60"/>
  <path d="M132.7,149.75s-.05-.05-.06-.09-.02-.07,0-.1c0-.04,0-.07.03-.1s.04-.06.07-.08l.76-.53s.05-.04.09-.05c.03,0,.07,0,.1,0,.03,0,.07.02.09.04.03.02.05.04.07.07l.42.57s.04.05.07.07c.03.02.06.03.09.04h.1s.06-.03.09-.05l.57-.41s.05-.04.07-.07c.02-.03.03-.06.04-.09v-.1s-.03-.06-.05-.09l-.42-.57s-.04-.05-.05-.09c0-.03,0-.07,0-.1,0-.03.02-.07.04-.09s.04-.05.07-.07l.75-.54s.06-.04.1-.05h.11s.07.02.1.04c.03.02.05.05.07.08l2.06,2.8c.62.83,1.13,1.81-.38,2.89-1.51,1.07-2.3.29-2.91-.55l-2.07-2.8v.02ZM135.93,151.74c.23.32.4.44.84.13s.38-.5.14-.83l-.54-.72s-.04-.05-.07-.07c-.03-.02-.06-.03-.09-.04h-.1s-.06.02-.09.05l-.58.41s-.05.04-.07.07-.03.06-.04.09v.1s.03.06.05.09l.54.71h.01Z" fill="#f60"/>
  <path d="M132.92,156.09c-.05.04-.11.06-.17.06s-.12-.02-.17-.06l-2.41-1.72c-.07-.04-.11,0-.07.07l1.41,2.24s.04.06.04.09v.1s-.02.06-.04.09c-.02.03-.05.04-.08.06l-.79.5s-.06.04-.09.05-.07,0-.1,0-.07-.02-.09-.04c-.03-.02-.05-.05-.06-.08l-2.79-4.44s-.04-.06-.05-.09v-.1s.02-.06.05-.09c.02-.03.05-.05.08-.06l1.01-.63s.11-.06.17-.06.12.02.17.06l2.44,1.69c.07.04.12,0,.07-.07l-1.41-2.24s-.04-.06-.04-.09v-.1s.02-.06.04-.09.05-.05.08-.06l.79-.5s.06-.03.09-.04h.1s.06.02.09.04c.03.02.05.05.06.08l2.79,4.46s.04.06.04.09v.1s-.02.06-.04.09c-.02.03-.05.05-.08.06l-1.04.64h0Z" fill="#f60"/>
  <path d="M124.49,158.67c.23.5.75,1.84-1.03,2.66-1.6.73-2.35-.21-2.65-.76-.03-.05-.04-.1-.03-.15.01-.05.04-.1.09-.13l.75-.57s.07-.04.11-.05h.12s.07.03.11.05c.03.02.06.05.08.09.03.08.08.14.14.2.06.05.13.1.21.12.08.02.16.03.25.02.08,0,.16-.04.23-.09.55-.25.43-.62.16-1.18l-.5-1.07c-.27-.57-.47-.9-1.01-.64-.41.19-.43.44-.32.79.01.04.02.07.02.11s-.01.07-.03.11c-.02.03-.04.06-.07.09-.03.02-.07.04-.11.04l-.94.2c-.06,0-.11,0-.16-.02-.05-.03-.09-.07-.11-.12-.24-.57-.5-1.74,1.11-2.48,1.78-.82,2.52.44,2.74.93l.86,1.85h-.02Z" fill="#f60"/>
  <path d="M118.71,163.18s-.06.03-.1.03-.07,0-.1-.02c-.03,0-.06-.03-.08-.06-.02-.03-.04-.06-.04-.09l-1.16-2.97c-.23-.59-.4-.93-.98-.72-.58.21-.47.59-.25,1.18l1.17,2.97s.02.06.02.1c0,.03,0,.07-.02.1-.01.03-.03.06-.06.08s-.06.04-.09.04l-.87.32s-.06.03-.1.03-.07,0-.1-.02c-.03,0-.06-.03-.08-.06-.02-.03-.04-.06-.04-.09l-1.32-3.39c-.2-.5-.61-1.89,1.22-2.58,1.84-.69,2.47.65,2.65,1.15l1.33,3.37s.02.06.03.1c0,.03,0,.07-.02.1-.01.03-.04.06-.06.08-.03.02-.06.04-.09.04l-.86.33v-.02Z" fill="#f60"/>
  <path d="M112.82,165.22s-.06.02-.1.02c-.03,0-.07,0-.1-.02-.03,0-.06-.04-.08-.06-.02-.03-.03-.06-.04-.09l-1.61-4.96s-.02-.06-.02-.1c0-.03,0-.07.03-.1.01-.03.04-.06.07-.08s.06-.03.09-.04l.87-.27s.06-.02.1-.02c.03,0,.07,0,.1.02s.06.04.08.06c.02.03.03.06.04.09l1.61,4.96s.02.06.02.1c0,.03-.01.07-.03.09-.02.03-.04.06-.06.08s-.06.03-.09.04l-.87.27h-.01Z" fill="#f60"/>
  <path d="M107.26,164.65c.15-.07.25-.02.32.13.07.15.2.27.35.34.15.07.33.07.49.02.31-.08.46-.31.38-.5-.27-.59-2.81.07-3.28-1.74-.07-.24-.16-1.71,1.74-2.19,1.69-.43,2.33.57,2.52,1.18.01.03.02.06.02.09s0,.06-.02.09c-.01.03-.03.05-.06.08-.02.02-.05.04-.08.05l-.86.43c-.15.07-.26,0-.32-.14-.03-.08-.07-.16-.13-.23-.06-.07-.13-.12-.21-.16-.08-.04-.17-.06-.26-.07-.09,0-.18,0-.26.04-.39.1-.63.4-.5.6.33.63,2.71-.13,3.18,1.69.07.24.29,1.67-1.51,2.13-1.65.42-2.32-.54-2.52-1.1-.01-.03-.02-.06-.02-.09s0-.06.02-.09c.01-.03.03-.05.06-.08.02-.02.05-.04.08-.05l.88-.42h0Z" fill="#f60"/>
  <path d="M103.58,167.51s-.07,0-.1,0-.07-.02-.09-.04c-.03-.02-.05-.04-.07-.07-.02-.03-.03-.06-.03-.1l-1.01-5.12s-.02-.07-.01-.1c0-.03.01-.07.03-.09.02-.03.04-.05.07-.07s.06-.03.1-.03l.9-.17s.06,0,.1,0c.03,0,.06.02.09.03s.05.04.07.07c.02.03.03.06.03.09l1.01,5.12s.01.07.01.1-.02.06-.04.09c-.02.03-.04.05-.07.07s-.06.03-.1.03l-.9.17h.01Z" fill="#f60"/>
  <path d="M99.79,168.15c-.06,0-.13,0-.18-.02-.06-.03-.1-.07-.13-.13l-1.51-2.54c-.05-.06-.11-.04-.1.04l.37,2.61s.01.07,0,.1c0,.03-.02.06-.04.09-.02.03-.05.05-.08.06-.03.02-.06.02-.1.02l-.92.12s-.07,0-.1,0c-.03,0-.07-.02-.09-.04-.03-.02-.05-.05-.07-.08s-.02-.06-.02-.1l-.72-5.17v-.1s.02-.06.04-.09c.02-.03.05-.05.08-.06.03-.02.06-.02.1-.02l1.21-.16c.06,0,.12,0,.18.02.06.03.1.07.13.12l1.51,2.54c.04.07.11.04.1-.04l-.37-2.61s-.01-.07,0-.1c0-.03.02-.06.04-.09.02-.03.05-.05.08-.06s.06-.02.1-.02l.92-.12h.1s.06.02.09.04c.03.02.05.05.06.07.02.03.02.06.03.1l.73,5.17s.01.07,0,.1c0,.03-.02.06-.04.09-.02.03-.05.05-.08.06s-.06.02-.1.02l-1.23.17h.01Z" fill="#f60"/>
  <path d="M90.97,168.99h-.1s-.06-.02-.09-.05-.05-.05-.06-.08c-.01-.03-.02-.06-.02-.1l-.06-.91v-.1s.02-.06.05-.09c.02-.03.05-.05.08-.06s.07-.02.1-.02l2.02-.13s.07,0,.1-.02c.03,0,.06-.03.08-.06.02-.02.04-.05.05-.09,0-.03.01-.06,0-.1v-.26s0-.07-.02-.1c-.01-.03-.03-.06-.06-.08s-.06-.04-.09-.05h-.1l-1.28.08h-.1s-.06-.02-.09-.05c-.03-.02-.05-.05-.06-.08-.01-.03-.02-.07-.02-.1l-.06-.91v-.1s.03-.06.05-.09.05-.04.08-.06c.03,0,.06-.02.1-.02l1.29-.08s.07,0,.1-.02c.03,0,.06-.03.08-.06.02-.03.04-.06.05-.09,0-.03.01-.07,0-.1v-.26s0-.07-.02-.1c-.01-.03-.03-.06-.06-.08s-.06-.04-.09-.05c-.03,0-.07,0-.1,0l-2.02.13h-.1s-.06-.03-.09-.05-.05-.05-.06-.08c-.01-.03-.02-.06-.02-.1l-.06-.91v-.1s.02-.06.05-.09c.02-.03.05-.05.08-.06s.07-.02.1-.02l3.48-.22h.1s.06.03.09.05.04.05.06.08c.01.03.02.06.02.1l.35,5.21v.1s-.03.06-.05.09c-.02.02-.05.04-.08.06-.03,0-.06.02-.1.02l-3.52.23.02.03Z" fill="#f60"/>
  <path d="M84.98,166.47s0,.07-.02.1-.03.06-.06.08-.06.04-.09.05c-.03,0-.07,0-.1,0l-3.8-.19s-.07,0-.1,0-.06-.03-.08-.05c-.02-.02-.04-.05-.05-.09,0-.03-.01-.07,0-.1l.05-.91s0-.07.01-.1.03-.06.06-.08.06-.04.09-.05c.03,0,.07,0,.1,0l3.79.19s.07,0,.1.02c.03,0,.06.03.08.06.02.02.04.05.05.09,0,.03.01.06,0,.1l-.05.91.02-.02Z" fill="#f60"/>
</svg>