<?xml version="1.0" encoding="UTF-8"?>
<svg id="Layer_1" data-name="Layer 1" xmlns="http://www.w3.org/2000/svg" width="104" height="93" viewBox="0 0 104 93">
  <path d="M.24,26.79l2.55-.52c.26-.06.5-.2.67-.41.18-.2.28-.47.27-.74V3.49c0-.28-.09-.55-.27-.76-.18-.2-.41-.35-.67-.41L.24,1.81v-.91h10c1.66-.04,3.33.13,4.95.5,1.08.24,2.11.69,3.03,1.32.67.48,1.2,1.14,1.51,1.91.28.71.42,1.46.42,2.22.02,1.58-.56,3.1-1.62,4.26-.55.59-1.19,1.09-1.89,1.47-.77.42-1.6.75-2.45.96,1.03.03,2.05.21,3.03.54.89.29,1.73.73,2.47,1.3.69.54,1.26,1.22,1.67,2,.42.81.63,1.71.61,2.63.02.92-.14,1.84-.45,2.7-.28.75-.69,1.43-1.22,2.02-.54.58-1.17,1.06-1.87,1.43-.74.39-1.51.7-2.31.92-.84.24-1.71.41-2.58.5-.89.1-1.79.14-2.69.15H.24v-.94ZM9.18,13.25c1.14.02,2.28-.09,3.39-.35.8-.18,1.55-.52,2.22-1,.54-.41.96-.96,1.21-1.59.26-.68.39-1.4.38-2.13.02-.91-.12-1.82-.41-2.68-.25-.7-.68-1.33-1.23-1.82-.6-.5-1.3-.85-2.06-1.04-.94-.24-1.91-.35-2.88-.33h-2.44v10.94h1.84-.02ZM11.59,26.24c2.14,0,3.74-.43,4.82-1.28,1.07-.86,1.61-2.26,1.61-4.2.02-.98-.12-1.96-.44-2.89-.27-.75-.74-1.42-1.37-1.91-.7-.52-1.51-.88-2.36-1.06-1.12-.24-2.26-.35-3.41-.33h-3.1v11.67h4.25Z" fill="#f60"/>
  <path d="M37.62,28.31c-1.87.04-3.72-.32-5.44-1.04-1.53-.66-2.9-1.65-4-2.9-1.12-1.29-1.96-2.8-2.47-4.43-.58-1.83-.86-3.73-.84-5.65-.01-1.86.28-3.7.87-5.46.55-1.63,1.4-3.14,2.52-4.45,1.12-1.27,2.49-2.29,4.03-2.98,1.7-.75,3.53-1.12,5.38-1.09,1.95-.05,3.88.33,5.66,1.11,1.53.7,2.89,1.73,3.98,3.02,1.07,1.31,1.87,2.82,2.35,4.44.52,1.75.77,3.57.76,5.4,0,1.14-.11,2.27-.32,3.38-.21,1.12-.54,2.21-.99,3.25s-1.02,2.01-1.71,2.91c-.69.91-1.52,1.7-2.46,2.34-1,.68-2.09,1.21-3.25,1.57-1.32.4-2.69.59-4.06.57h0ZM38,26.91c1.29.03,2.56-.29,3.69-.93,1.07-.62,1.98-1.49,2.65-2.54.74-1.17,1.28-2.45,1.59-3.8.36-1.54.54-3.13.53-4.71.02-1.8-.17-3.59-.55-5.35-.31-1.48-.89-2.9-1.69-4.18-.72-1.13-1.7-2.06-2.86-2.72-1.26-.67-2.66-1.01-4.09-.97-1.34-.04-2.67.3-3.83.99-1.06.66-1.96,1.56-2.61,2.63-.7,1.17-1.21,2.45-1.48,3.79-.32,1.47-.48,2.98-.47,4.48-.01,1.78.17,3.55.54,5.29.31,1.49.87,2.91,1.67,4.2.71,1.15,1.69,2.1,2.84,2.79,1.25.7,2.67,1.06,4.1,1.02h-.03Z" fill="#f60"/>
  <path d="M23.17,58.52l2.55-.52c.26-.06.5-.2.67-.41.18-.2.27-.47.27-.74v-21.62c0-.28-.09-.55-.27-.76-.18-.2-.41-.34-.67-.41l-2.55-.51v-.91h10.61v.91l-2.53.51c-.27.06-.5.21-.68.42-.19.21-.29.48-.28.76v9.51h13.46v-9.52c0-.14-.02-.27-.06-.4-.05-.13-.12-.24-.21-.34-.18-.2-.41-.35-.67-.43l-2.55-.51v-.91h10.61v.91l-2.55.51c-.27.05-.5.19-.67.41-.18.21-.28.48-.27.76v21.62c0,.28.09.56.27.76.18.19.42.33.67.38l2.55.52v.91h-10.61v-.91l2.55-.52c.26-.06.5-.2.67-.41.18-.2.28-.47.27-.74v-10.6h-13.46v10.6c-.01.28.09.55.27.76.19.2.43.33.69.38l2.53.52v.91h-10.61v-.91.02Z" fill="#f60"/>
  <path d="M52.76,58.52l2.55-.52c.26-.06.49-.21.67-.41.18-.2.28-.47.27-.74v-21.62c0-.28-.09-.55-.27-.76-.18-.2-.41-.34-.67-.41l-2.55-.51v-.91h20.17v6.28h-1.14l-1.42-4.14c-.06-.18-.16-.34-.28-.49-.07-.07-.16-.12-.25-.16-.09-.03-.19-.05-.29-.04h-9.67v10.63h6.35c.21.02.42-.04.58-.17.12-.13.22-.28.28-.45l1.14-3.19h.98v9.12h-.98l-1.14-3.15c-.06-.18-.15-.35-.28-.5-.08-.07-.17-.12-.27-.15-.1-.03-.21-.04-.31-.03h-6.35v11.77h11.41c.1,0,.2,0,.29-.04.09-.03.18-.08.25-.15.13-.14.23-.31.28-.49l1.34-4.69h1.14v6.84h-21.82v-.93h-.01Z" fill="#f60"/>
  <path d="M.35,91.19l2.55-.64c.26-.06.5-.21.67-.42.18-.2.27-.46.27-.73v-21.49c0-.28-.09-.55-.27-.76-.17-.2-.41-.35-.67-.41l-2.55-.5v-.92h8.23l6.44,17.29,1.41,3.96,7.95-21.26h8.14v.92l-2.55.5c-.26.06-.5.21-.67.42-.18.21-.28.48-.27.76v21.62c-.01.28.09.56.27.76.18.19.41.33.67.38l2.55.52v.92h-10.63v-.92l2.55-.52c.26-.06.5-.2.67-.41.18-.2.27-.47.27-.74v-22.36l-1.06,2.95-6.55,17.52-2.09,4.45h-.83l-8.19-21.94-1.11-3.02v22.26c-.01.28.08.55.27.76.18.2.41.34.67.4l2.55.64v.92H.36v-.94.03Z" fill="#f60"/>
  <path d="M34.42,91.19l2.55-.52c.26-.06.5-.2.67-.41.18-.2.28-.47.27-.74v-21.61c0-.28-.09-.55-.27-.76-.17-.21-.41-.35-.67-.41l-2.55-.5v-.92h10.61v.92l-2.53.5c-.26.06-.5.2-.68.41-.19.21-.29.48-.28.76v21.62c0,.28.09.56.27.76.19.2.43.33.69.38l2.53.52v.92h-10.61v-.93h0Z" fill="#f60"/>
  <path d="M44.84,91.19l1.73-.49c.27-.08.52-.23.71-.44.2-.2.36-.45.47-.71l7.95-20.18,2.43-4.47h.78l9.85,24.66c.11.27.27.51.47.71.19.21.44.36.71.44l1.73.49v.92h-9.76v-.92l3.5-.64-3.33-8.41h-9.72l-3.11,8.32,3.41.72v.92h-7.81v-.91h0ZM61.45,80.67l-3.29-8.2-1.01-2.63-4.17,10.83s8.47,0,8.47,0Z" fill="#f60"/>
  <path d="M71.53,91.19l2.55-.64c.26-.06.5-.21.67-.42.18-.2.27-.46.27-.73v-21.43c.01-.28-.09-.56-.27-.76-.18-.19-.41-.33-.67-.38l-2.73-.6v-.92h6.75l13.28,18.47,1.89,2.68v-18.44c0-.14-.01-.28-.06-.41s-.12-.25-.21-.35c-.18-.19-.41-.33-.67-.38l-2.55-.64v-.92h8.74v.92l-2.55.64c-.26.06-.5.21-.69.41-.18.2-.28.47-.28.74v19.64l-.6,4.64h-1.14l-14.39-19.99-2.11-2.98v20.07c0,.14.01.28.06.41.05.13.12.25.21.35.18.2.41.34.67.4l2.55.64v.92h-8.71v-.94h0Z" fill="#f60"/>
  <path d="M62.58,21.09c-.02.08-.06.15-.1.22-.04.06-.08.11-.14.16-.05.04-.1.08-.15.12-.07.05-.16.09-.24.11s-.16.02-.25,0c-.16-.03-.31-.12-.41-.26-.05-.07-.09-.15-.12-.24-.02-.09-.02-.17,0-.26.02-.08.04-.16.08-.24s.08-.15.14-.22c.05-.07.11-.13.17-.19.06-.05.11-.1.18-.15l.06-.04.08-.04.08-.05.06-.04-.27-.36s-.09-.1-.14-.15c-.04-.03-.08-.05-.13-.06-.04-.01-.09-.01-.13,0-.05.02-.1.05-.14.08-.07.05-.12.1-.17.17-.05.06-.08.13-.12.21-.03.07-.06.14-.08.21-.02.06-.04.13-.06.18l-.04.03-.3-.27s.05-.11.08-.16c.03-.06.07-.12.11-.17.05-.06.09-.11.15-.16.06-.06.12-.11.19-.16.09-.06.18-.11.28-.15.1-.04.21-.06.31-.06.11,0,.22.02.32.07.12.06.21.14.28.25l.76,1.04s.03.03.05.05h.13s.06-.02.08-.04c0,0,.02-.02.03-.03l.04-.05s.03-.03.05-.05l.04-.05.07.1s-.02.06-.04.1-.04.08-.06.12-.05.08-.08.12c-.03.04-.06.07-.1.1-.04.04-.09.06-.15.08-.04.01-.09.01-.14,0-.05,0-.09-.03-.13-.06-.05-.04-.1-.09-.14-.14.02.1,0,.2,0,.3v.03ZM62.07,20.09c-.11.08-.22.17-.32.26-.08.07-.14.16-.19.26-.04.08-.06.17-.05.26,0,.09.04.18.1.24.04.06.1.11.16.15.05.03.11.05.17.05.05.01.11.01.16,0s.1-.04.14-.07c.04-.03.08-.06.11-.1.04-.04.07-.08.1-.13s.05-.09.06-.15c.02-.05.03-.11.02-.16l-.45-.63v.02Z" fill="#f60"/>
  <path d="M65.81,20.49l.22-.17s.04-.05.05-.08v-.1l-1.2-2.5s-.05-.06-.08-.08c-.05-.01-.09-.01-.14,0h-.24l-.03-.06.65-.48.17.36c.02-.1.05-.2.09-.29.04-.07.08-.14.14-.2.05-.05.1-.09.16-.13l.15-.08c.13-.06.27-.09.41-.08.13,0,.26.03.38.1.12.06.24.15.33.25.1.11.19.24.26.38.08.16.13.33.15.5.02.16.02.32-.02.47-.04.15-.11.29-.2.41-.1.13-.23.23-.38.29-.06.03-.12.05-.19.06h-.32c-.05,0-.09-.02-.13-.03l.04.09.41.84s.04.06.07.07.06.01.09,0l.34-.08.05.1-1.16.52-.07-.08h0ZM65.96,18.93h.29l.15-.03s.08-.03.11-.04c.11-.05.2-.12.27-.21.06-.08.1-.18.12-.29.02-.11.02-.22,0-.33-.02-.12-.06-.24-.12-.35-.06-.13-.13-.25-.22-.36-.07-.1-.16-.18-.27-.25-.09-.06-.2-.1-.31-.1-.12,0-.24.01-.34.07-.04.02-.08.04-.11.07-.04.03-.08.06-.12.1s-.07.08-.09.13c-.03.05-.05.11-.06.17l.68,1.44.02-.02Z" fill="#f60"/>
  <path d="M70.09,18.78l.26-.12s.05-.04.07-.07c0-.01.01-.03.01-.05s0-.03-.01-.05l-.65-2.68s-.03-.07-.06-.1c-.04-.03-.09-.04-.13-.05l-.25-.03v-.06l.73-.34.09.38c.04-.1.09-.18.16-.26.09-.12.22-.21.36-.27.05-.02.11-.04.16-.05.14-.03.28-.03.42,0,.13.03.25.08.35.16.11.09.2.19.27.31.08.13.14.28.17.43.04.17.06.35.05.52,0,.16-.05.32-.12.46-.07.15-.17.27-.3.37-.13.1-.28.16-.43.19-.06.01-.13.02-.19.03-.06,0-.11,0-.17-.02-.05,0-.1-.02-.14-.04l-.12-.06.02.09.22.91s0,.03.02.05.02.03.03.04c.03.02.06.03.09.03h.35l.03.11-1.24.28-.03-.15-.02.04ZM70.56,17.29s.08.03.13.04h.44c.11-.02.22-.08.31-.15.08-.07.14-.16.18-.26s.06-.22.06-.33c0-.13-.01-.26-.04-.38-.03-.13-.08-.26-.14-.38-.05-.11-.12-.21-.21-.29-.08-.08-.17-.13-.28-.16s-.23-.03-.35,0l-.12.04s-.09.04-.13.07c-.05.03-.09.07-.12.11-.04.05-.07.1-.09.15l.38,1.54h-.02Z" fill="#f60"/>
  <path d="M75.93,16.73c-.06.05-.13.09-.21.13-.07.03-.14.05-.21.06h-.19c-.09,0-.18,0-.26-.04-.08-.03-.15-.07-.21-.13-.06-.05-.11-.12-.14-.19-.04-.07-.05-.16-.05-.24,0-.09,0-.18.04-.27.03-.08.08-.15.14-.21s.13-.12.2-.16c.08-.04.16-.08.24-.11.08-.03.17-.05.25-.07.08-.02.16-.02.23-.03h.31v-.44c0-.07,0-.13-.03-.19-.01-.05-.04-.09-.07-.12s-.07-.05-.11-.06h-.16c-.08,0-.17.02-.24.05s-.15.06-.22.1-.13.09-.19.13l-.15.12h-.05l-.09-.38.16-.08c.06-.03.12-.06.19-.08.07-.02.15-.04.22-.06.08-.02.16-.03.25-.03.11,0,.21,0,.31.03.11.02.21.06.3.12.1.06.18.15.23.26.06.1.08.22.08.34l.03,1.28v.07s.02.04.04.05c.02.01.04.02.06.03h.26l.06-.02h.02v.11l-.09.07-.12.07-.14.06s-.09.02-.14.03h-.17c-.05,0-.09-.03-.12-.06-.04-.03-.06-.07-.08-.12-.02-.06-.03-.12-.03-.19-.05.07-.11.13-.17.19l.02-.02ZM76.09,15.62c-.14,0-.28.02-.42.05-.11.02-.21.06-.31.11-.08.04-.15.1-.19.18-.05.08-.07.17-.06.26,0,.07.02.15.05.21.02.05.06.1.11.13.04.03.09.06.14.07h.15c.05,0,.1-.01.15-.02s.11-.03.16-.05c.05-.02.1-.05.14-.08s.08-.07.11-.12l-.02-.75h-.01Z" fill="#f60"/>
  <path d="M79.18,16.86l.29-.02s.06-.02.09-.04c.02-.02.04-.05.05-.08l.23-1.59s.01-.08,0-.11c-.03-.04-.07-.07-.11-.09l-.22-.11v-.07l.8-.06-.08.53.16-.18c.06-.06.12-.11.19-.15s.14-.08.22-.1.17-.02.26,0l.12.02.09.03.07.03.08.04-.08.56h-.13l-.05-.21s0-.02-.01-.03c0,0-.01-.02-.02-.02-.02-.02-.04-.03-.07-.04l-.08-.03h-.25c-.06,0-.11.02-.16.04-.05.02-.1.05-.15.08-.05.04-.1.08-.15.13l-.21,1.43s-.01.06,0,.1c.02.03.04.05.08.06l.31.11v.11l-1.24-.17v-.16h-.03Z" fill="#f60"/>
  <path d="M85.37,17.86l-.06.16c-.07.03-.14.06-.21.08-.08.03-.17.04-.25.05h-.28c-.1,0-.19-.02-.28-.05-.15-.04-.28-.12-.4-.21-.11-.09-.2-.2-.25-.33-.06-.14-.09-.29-.09-.44,0-.18.03-.36.09-.53.05-.15.13-.3.23-.43.09-.12.21-.23.34-.31.13-.08.28-.13.43-.16.16-.02.33,0,.48.05.13.04.25.1.35.19.09.08.16.18.21.29.05.1.07.22.07.33,0,.12-.01.23-.05.34l-.02.05v.05l-.02.04-.02.03-1.51-.49c-.11.27-.13.56-.07.84.04.11.1.21.19.29.09.08.19.14.31.16.08.03.17.05.26.05h.22c.06,0,.13-.02.19-.04l.14-.05h0v.04ZM85.26,16.8c.03-.09.06-.19.07-.29.02-.09.02-.18,0-.26-.01-.08-.04-.15-.09-.21-.05-.07-.12-.11-.2-.13-.08-.03-.17-.03-.25-.02-.08.02-.16.05-.23.09-.08.05-.15.12-.21.19-.07.09-.13.19-.18.29l1.1.35h-.01Z" fill="#f60"/>
  <path d="M87.36,19.16l.27.07h.1s.06-.04.07-.07l1.37-2.53s.03-.07.02-.11c-.01-.05-.04-.09-.07-.12l-.17-.18.03-.06.81.2-1.62,2.99s-.01.06,0,.1c0,.03.03.06.05.08l.19.16-.05.1-1.03-.52.04-.1h0Z" fill="#f60"/>
  <path d="M94,23.81c-.08-.01-.16-.03-.24-.06-.07-.03-.13-.06-.19-.11-.05-.04-.1-.08-.14-.12-.06-.06-.11-.14-.15-.22-.03-.07-.04-.15-.04-.23s.02-.16.06-.23c.03-.08.08-.14.14-.2.07-.07.15-.12.23-.15.08-.03.17-.04.25-.04.09,0,.17.01.26.04.09.02.17.06.25.1s.15.08.22.13c.06.04.12.09.18.15l.05.05.06.07.06.07.05.05.33-.31s.09-.1.13-.15c.03-.04.04-.08.04-.13,0-.04,0-.09-.03-.12-.07-.12-.18-.21-.3-.26-.14-.07-.29-.11-.45-.13l-.19-.03-.04-.04.23-.32.17.05c.06.02.13.05.19.08.07.04.13.07.19.12.07.05.13.1.19.15.07.07.14.16.19.25s.09.19.11.29c.02.11,0,.22-.03.32-.04.12-.12.23-.21.31l-.95.89s-.03.04-.04.06v.06s.01.04.02.07c.01.03.03.05.06.07l.03.02.05.03.06.04.05.03-.09.08-.11-.02s-.09-.02-.13-.04c-.05-.01-.09-.03-.14-.06-.04-.02-.08-.05-.11-.08-.04-.04-.08-.08-.11-.13-.02-.04-.04-.08-.04-.13s.01-.09.04-.13c.03-.06.08-.11.12-.15-.09.03-.18.04-.28.03v-.02ZM94.95,23.17c-.1-.1-.2-.18-.31-.26-.09-.06-.19-.11-.3-.15-.09-.02-.18-.02-.27,0s-.17.07-.23.13c-.06.05-.1.11-.13.18-.02.05-.03.11-.03.17,0,.05.02.1.04.15.02.04.05.09.09.12.04.04.08.07.12.1s.09.05.14.07.1.04.16.05h.17l.56-.55h-.01Z" fill="#f60"/>
  <path d="M96.11,26.2l.2.19s.05.04.09.04c.03,0,.07,0,.09-.03l1.39-.88s.06-.05.07-.09.01-.09,0-.14l-.06-.23.06-.03.59.55-.34.22c.1,0,.19.02.28.04.08.02.15.05.22.09.06.03.12.08.16.13.05.05.09.1.12.16.06.08.1.18.13.28.02.09.02.19,0,.28-.02.1-.07.2-.13.28-.08.1-.18.19-.3.26l-1.1.7s-.06.05-.07.08v.09l.08.23-.1.06-.64-.94.09-.06.2.19s.06.03.09.03c.04,0,.07,0,.1-.03l.97-.62c.09-.05.17-.11.25-.18.06-.05.11-.11.15-.19.03-.07.05-.14.03-.21-.01-.09-.05-.18-.11-.25-.03-.04-.06-.08-.1-.12s-.08-.08-.13-.11c-.05-.03-.1-.06-.15-.08-.06-.02-.11-.03-.17-.04l-1.37.88s-.05.04-.06.08v.09l.08.23-.09.06-.63-.96.09-.05h.02Z" fill="#f60"/>
  <path d="M99.55,31.88c-.11-.02-.21-.06-.3-.12-.07-.04-.14-.09-.2-.15-.05-.05-.09-.1-.12-.16-.03-.05-.05-.1-.06-.14-.06-.12-.08-.26-.07-.39s.05-.26.12-.38c.07-.12.17-.22.28-.31.13-.1.27-.17.42-.23.17-.07.35-.11.53-.12.17-.01.33,0,.49.05.15.04.29.12.4.22.12.1.22.23.28.38.03.06.04.12.06.18v.16c0,.09-.03.18-.07.27l.1-.04.83-.32s.07-.04.09-.07c.02-.04.03-.09.03-.13v-.27l.06-.02.49.68-3.1,1.2s-.07.04-.09.07c-.02.04-.03.09-.02.14v.23l-.06.03-.45-.6-.02-.05.39-.12h-.01ZM101.2,31.22s.02-.08.02-.13v-.15s-.02-.1-.03-.15c0-.04-.02-.07-.03-.11-.04-.11-.11-.2-.2-.28-.09-.07-.18-.11-.29-.14-.11-.02-.23-.02-.35,0-.13.01-.26.05-.38.09-.13.05-.26.12-.38.2-.1.06-.19.15-.27.24-.06.09-.1.19-.12.29-.01.11,0,.23.05.33.02.04.04.08.06.11.03.04.06.09.09.12.04.04.08.07.12.1.05.03.1.05.16.06l1.53-.61.02.03Z" fill="#f60"/>
  <path d="M100.79,38.06l.07.27s.03.06.05.08c.03.02.06.03.1.03l1.66-.03s.08,0,.11-.03c.03-.03.06-.07.07-.11l.08-.23h.07l.19.76h-.39c.07.05.14.11.21.17.05.05.1.11.14.18.03.06.06.12.07.19s.02.14.03.21c0,.08,0,.15-.02.23-.02.07-.04.14-.08.2s-.09.12-.14.16c-.06.05-.14.08-.21.11.1.06.19.13.26.21.06.06.11.13.14.2.03.06.05.12.06.19v.18c0,.1,0,.19-.04.29-.03.09-.08.17-.15.24-.08.07-.17.13-.27.16-.12.04-.25.06-.38.07h-1.33s-.07,0-.09.03c-.02.02-.04.05-.04.08l-.06.24h-.12l-.02-1.12h.11l.07.26s.03.06.05.08c.03.02.06.03.1.03l1.17-.02c.1,0,.21,0,.31-.02.08,0,.16-.04.23-.08.06-.03.12-.09.15-.15.04-.08.06-.17.05-.26,0-.05,0-.1-.02-.15-.01-.05-.03-.1-.05-.15-.03-.05-.07-.09-.11-.13-.04-.05-.08-.09-.13-.12l-1.64.02s-.07,0-.09.03-.04.05-.05.08l-.06.23h-.11v-1.15h.11l.07.26s0,.03.02.04c0,0,.02.02.03.03.03.02.06.03.1.03l1.17-.02c.1,0,.21,0,.31-.02.08,0,.16-.04.24-.08.06-.03.12-.09.15-.15.04-.08.05-.17.05-.26v-.15s-.03-.1-.05-.15c-.02-.05-.05-.1-.08-.14-.04-.04-.08-.08-.12-.11l-1.65.03h-.05s-.03,0-.04.03c-.03.02-.04.05-.05.08l-.06.24h-.11l-.02-1.12.09.03-.06-.03Z" fill="#f60"/>
  <path d="M100.03,45.38c.04-.16.1-.3.2-.43.09-.12.2-.22.33-.29.14-.07.29-.11.45-.13.18,0,.36,0,.53.04.17.03.33.1.47.19.14.08.26.18.35.31.09.12.15.26.19.41.04.16.04.33,0,.49-.04.17-.11.33-.22.46-.1.12-.22.21-.36.28-.14.06-.29.1-.45.11-.16,0-.33,0-.49-.04-.17-.04-.32-.1-.47-.18-.14-.08-.25-.19-.35-.31-.09-.12-.15-.26-.19-.41-.04-.16-.04-.33,0-.49h.01ZM100.19,45.45c-.03.11-.02.23.03.34.05.1.12.19.21.25.1.08.2.14.31.18s.23.08.35.11c.14.03.28.05.42.05.13,0,.25,0,.38-.03.12-.03.23-.08.32-.15.09-.08.15-.18.18-.29.02-.08.02-.16,0-.23s-.05-.13-.09-.19c-.04-.06-.1-.12-.16-.16-.06-.05-.13-.09-.2-.13l-.23-.09c-.08-.03-.15-.05-.23-.07s-.17-.03-.26-.04h-.27c-.09,0-.17,0-.26.03-.08.02-.16.04-.23.08s-.13.09-.18.15c-.04.06-.07.13-.09.21v-.02Z" fill="#f60"/>
  <path d="M99.18,48.69l-.05.27s-.01.06,0,.09c.02.03.04.05.07.07l1.52.64s.08,0,.12,0c.05,0,.09-.04.12-.08l.17-.18.06.03-.15.76-.5-.22.13.2c.04.07.08.14.1.22s.04.16.04.24-.01.17-.05.24c-.02.04-.04.07-.06.11,0,.03-.03.05-.05.07-.02.02-.03.04-.05.06l-.06.06-.54-.23.05-.11h.28l.06-.05s.04-.05.05-.07c.02-.02.03-.05.04-.07.02-.05.04-.11.05-.16v-.16c0-.06-.02-.11-.04-.17-.02-.06-.05-.12-.09-.17l-1.36-.58s-.07,0-.1,0c-.03,0-.06.03-.08.05l-.19.26-.1-.05.5-1.11.12.04h0Z" fill="#f60"/>
  <path d="M96.53,54.19l-.15-.1c-.01-.07-.02-.15-.02-.22v-.25c.01-.09.03-.18.06-.26.03-.09.08-.18.13-.26.09-.13.19-.23.32-.32.12-.08.26-.13.4-.15.15-.02.31,0,.46.03.18.05.35.13.5.23.14.09.27.2.38.33.1.11.17.24.22.38s.06.29.04.44c-.02.16-.08.31-.17.44-.08.11-.18.21-.29.28-.11.06-.22.1-.34.12-.12.02-.24,0-.35-.02-.12-.03-.23-.07-.33-.14l-.04-.03-.04-.03-.03-.03-.03-.03.89-1.29c-.24-.18-.52-.28-.82-.29-.12,0-.23.04-.33.1-.1.06-.18.15-.24.25-.05.07-.09.15-.12.23-.03.07-.04.14-.05.21v.33l-.03.03-.02.02ZM97.62,54.37c.09.06.18.11.27.15.08.04.17.06.27.07.08,0,.16,0,.24-.03.08-.03.14-.09.19-.16s.08-.15.09-.23c0-.08,0-.17-.03-.24-.03-.09-.08-.17-.14-.24-.07-.09-.15-.17-.24-.24l-.64.93h0Z" fill="#f60"/>
</svg>