<svg width="541" height="350" viewBox="0 0 541 350" fill="none" xmlns="http://www.w3.org/2000/svg">
<path d="M401.764 -694.166C278.168 -712.423 206.425 -474.418 25.3291 -475.233C-17.294 -475.422 -66.4057 -488.849 -117.1 -457.853C-123.332 -454.045 -178.631 -419.106 -183.587 -361.832C-187.219 -319.851 -161.9 -287.784 -131.745 -249.615C-99.132 -208.312 -82.2729 -204.895 -62.9012 -181.867C-7.52205 -116.027 -54.5163 -35.9731 -41.4297 70.7268C-30.1246 162.513 26.3433 279.609 127.845 326.05C259.154 386.102 452.481 321.845 484.77 223.795C522.344 109.743 313.65 35.8029 326.632 -135.011C339.343 -302.553 549.143 -350.084 540.099 -509.067C535.461 -591.402 473.185 -683.598 401.764 -694.166Z" stroke="url(#paint0_linear_5328_1813)" stroke-width="0.5" stroke-miterlimit="10"/>
<defs>
<linearGradient id="paint0_linear_5328_1813" x1="-320.772" y1="32.3732" x2="587.809" y2="153.636" gradientUnits="userSpaceOnUse">
<stop stop-color="#222222" stop-opacity="0.5"/>
<stop offset="1" stop-color="#584911" stop-opacity="0"/>
</linearGradient>
</defs>
</svg>
