<svg width="481" height="926" viewBox="0 0 481 926" fill="none" xmlns="http://www.w3.org/2000/svg">
<path d="M-450.056 721.055C-375.57 821.361 -156.545 703.795 -29.0676 832.426C0.937736 862.699 26.171 906.92 83.9347 920.849C91.0334 922.563 154.842 936.959 198.845 899.966C231.098 872.848 235.87 832.27 241.537 783.958C247.681 731.692 238.177 717.354 240.762 687.373C248.159 601.658 337.995 578.281 404.19 493.58C461.099 420.683 503.969 297.955 465.036 193.344C414.649 58.0316 232.51 -33.2351 140.346 13.2652C33.1304 67.3434 128.416 267.195 -1.54766 378.8C-129.006 488.281 -310.966 373.54 -416.989 492.352C-471.929 553.853 -493.086 663.081 -450.056 721.055Z" stroke="url(#paint0_linear_5328_1817)" stroke-width="0.5" stroke-miterlimit="10"/>
<defs>
<linearGradient id="paint0_linear_5328_1817" x1="574.595" y1="718.225" x2="17.8761" y2="-9.98483" gradientUnits="userSpaceOnUse">
<stop stop-color="#222222" stop-opacity="0.5"/>
<stop offset="1" stop-color="#584911" stop-opacity="0"/>
</linearGradient>
</defs>
</svg>
