<svg width="442" height="1047" viewBox="0 0 442 1047" fill="none" xmlns="http://www.w3.org/2000/svg">
<path d="M-49.1393 1045.76C76.933 1034.46 86.0904 789.917 264.135 748.534C306.039 738.792 357.724 740.211 399.522 698.736C404.661 693.64 449.966 647.318 440.084 591.337C432.839 550.304 399.718 525.501 360.277 495.983C317.614 464.038 300.179 464.692 275.226 447.158C203.889 397.024 229.42 309.448 189.091 210.353C154.352 125.12 68.7459 26.1729 -42.887 5.34729C-187.296 -21.5675 -360.593 84.9553 -367.05 186.335C-374.576 304.263 -150.599 326.456 -119.358 492.996C-88.6937 656.34 -282.474 750.687 -232.651 900.773C-206.892 978.511 -121.995 1052.27 -49.1393 1045.76Z" stroke="url(#paint0_linear_5328_1821)" stroke-width="0.5" stroke-miterlimit="10"/>
<defs>
<linearGradient id="paint0_linear_5328_1821" x1="473.279" y1="182.031" x2="-447.307" y2="299.828" gradientUnits="userSpaceOnUse">
<stop stop-color="#222222" stop-opacity="0.5"/>
<stop offset="1" stop-color="#584911" stop-opacity="0"/>
</linearGradient>
</defs>
</svg>
