<svg width="496" height="545" viewBox="0 0 496 545" fill="none" xmlns="http://www.w3.org/2000/svg">
<path d="M-237.764 761.361C-225.266 831.445 -116.783 839.104 -81.0674 841.612C-53.5148 843.587 14.15 847.289 91.4493 802.09C193.889 742.27 185.774 670.981 293.644 598.98C379.155 541.91 426.502 558.447 465.892 497.482C492.118 456.917 504.654 397.829 485.513 367.622C451.823 314.531 331.7 368.914 313.035 377.426C227.378 416.231 238.384 472.93 164.395 457.811C125.089 448.141 103.982 379.171 119.977 320.824C137.824 255.751 189.812 247.418 220.244 172.951C245.473 111.193 245.765 28.6425 211.479 6.95095C163.785 -23.2284 41.7025 59.7284 -18.8182 166.648C-81.456 277.327 -28.445 325.674 -83.5808 473.622C-144.627 637.381 -250.713 688.659 -237.764 761.361Z" stroke="url(#paint0_linear_3969_20870)" stroke-width="0.5" stroke-miterlimit="10"/>
<defs>
<linearGradient id="paint0_linear_3969_20870" x1="-274.254" y1="873.231" x2="375.846" y2="905.663" gradientUnits="userSpaceOnUse">
<stop stop-color="#222222" stop-opacity="0.5"/>
<stop offset="1" stop-color="#584911" stop-opacity="0"/>
</linearGradient>
</defs>
</svg>
