<svg width="545" height="350" viewBox="0 0 545 350" fill="none" xmlns="http://www.w3.org/2000/svg">
<path d="M220.174 195.227C275.864 139.319 287.779 98.5558 357.234 75.1743C415.563 55.5545 451.232 69.5283 491.822 43.3804C536.112 14.8234 552.104 -39.555 539.871 -80.6657C512.7 -171.699 342.011 -215.56 226.876 -219.58C73.6469 -224.952 -34.3419 -161.47 -104.37 -120.482C-127.089 -107.136 -294.218 -9.0109 -264.51 57.1885C-255.209 77.8843 -225.688 97.6778 -210.217 93.9048C-195.794 90.3769 -200.52 68.0255 -175.743 51.1736C-163.434 42.8009 -150.122 40.1103 -138.608 37.8866C-99.7585 30.3858 -1.6515 26.7998 27.2893 67.5647C57.1728 109.689 2.86797 184.828 -65.715 204.308C-138.105 224.864 -198.326 175.458 -248.888 203.777C-276.805 219.403 -287.431 250.662 -280.571 273.86C-266.537 321.265 -176.278 346.345 -110.982 348.67C58.0149 354.405 203.489 211.935 220.174 195.227Z" stroke="url(#paint0_linear_3397_8095)" stroke-width="0.5" stroke-miterlimit="10"/>
<defs>
<linearGradient id="paint0_linear_3397_8095" x1="686.562" y1="-2.42523" x2="280.307" y2="-445.856" gradientUnits="userSpaceOnUse">
<stop stop-color="#222222" stop-opacity="0.5"/>
<stop offset="1" stop-color="#584911" stop-opacity="0"/>
</linearGradient>
</defs>
</svg>
