<svg width="748" height="1007" viewBox="0 0 748 1007" fill="none" xmlns="http://www.w3.org/2000/svg">
<path d="M1041.56 1004.83C1137.57 987.853 1148.28 839.288 1151.79 790.376C1154.55 752.643 1159.75 659.974 1098 554.013C1016.27 413.589 918.619 424.561 820.219 276.675C742.225 159.443 764.969 94.6283 681.548 40.5558C626.042 4.55592 545.138 -12.732 503.729 13.4234C430.945 59.4602 505.191 224.093 516.812 249.674C569.788 367.07 639.237 402.505 626.613 453.416C613.29 507.231 518.784 536.003 438.902 513.979C349.811 489.405 338.502 418.185 236.571 376.355C152.036 341.677 38.9727 341.112 9.19488 388.028C-32.235 453.291 81.1414 620.664 227.461 703.769C378.925 789.781 445.248 717.272 647.772 793.083C871.94 877.021 941.96 1022.42 1041.56 1004.83Z" stroke="url(#paint0_linear_4286_3920)" stroke-width="0.5" stroke-miterlimit="10"/>
<defs>
<linearGradient id="paint0_linear_4286_3920" x1="1194.71" y1="1055.03" x2="1240.43" y2="164.702" gradientUnits="userSpaceOnUse">
<stop stop-color="#222222" stop-opacity="0.5"/>
<stop offset="1" stop-color="#584911" stop-opacity="0"/>
</linearGradient>
</defs>
</svg>
