<svg width="1069" height="803" viewBox="0 0 1069 803" fill="none" xmlns="http://www.w3.org/2000/svg">
<path d="M-134.448 146.632C-209.108 209.342 -144.098 343.356 -122.679 387.469C-106.203 421.527 -64.3768 504.383 42.0829 565.272C183.072 646.02 262.158 587.689 421.318 666.563C547.478 729.092 560.189 796.595 659.47 801.713C725.539 805.137 804.248 779.656 827.032 736.3C867.046 660.04 720.431 554.587 697.577 538.242C593 463.063 515.138 467.1 500.615 416.698C485.246 363.431 552.704 291.261 632.896 270.393C722.338 247.13 767.742 303.154 876.932 288.413C967.48 276.178 1065.68 220.136 1068.01 164.616C1071.26 87.3822 889.383 -0.879579 721.114 0.309741C546.937 1.55312 525.753 97.5095 312.457 133.117C76.3534 172.509 -56.9861 81.5978 -134.448 146.632Z" stroke="url(#paint0_linear_3397_8094)" stroke-width="0.5" stroke-miterlimit="10"/>
<defs>
<linearGradient id="paint0_linear_3397_8094" x1="-292.178" y1="179.729" x2="113.394" y2="973.638" gradientUnits="userSpaceOnUse">
<stop stop-color="#222222" stop-opacity="0.5"/>
<stop offset="1" stop-color="#584911" stop-opacity="0"/>
</linearGradient>
</defs>
</svg>
